%TF.GenerationSoftware,KiCad,Pcbnew,6.0.4-6f826c9f35~116~ubuntu20.04.1*%
%TF.CreationDate,2022-05-25T09:33:46+00:00*%
%TF.ProjectId,RFIQINT01B,52464951-494e-4543-9031-422e6b696361,REV 0.2*%
%TF.SameCoordinates,Original*%
%TF.FileFunction,Soldermask,Bot*%
%TF.FilePolarity,Negative*%
%FSLAX46Y46*%
G04 Gerber Fmt 4.6, Leading zero omitted, Abs format (unit mm)*
G04 Created by KiCad (PCBNEW 6.0.4-6f826c9f35~116~ubuntu20.04.1) date 2022-05-25 09:33:46*
%MOMM*%
%LPD*%
G01*
G04 APERTURE LIST*
G04 Aperture macros list*
%AMRoundRect*
0 Rectangle with rounded corners*
0 $1 Rounding radius*
0 $2 $3 $4 $5 $6 $7 $8 $9 X,Y pos of 4 corners*
0 Add a 4 corners polygon primitive as box body*
4,1,4,$2,$3,$4,$5,$6,$7,$8,$9,$2,$3,0*
0 Add four circle primitives for the rounded corners*
1,1,$1+$1,$2,$3*
1,1,$1+$1,$4,$5*
1,1,$1+$1,$6,$7*
1,1,$1+$1,$8,$9*
0 Add four rect primitives between the rounded corners*
20,1,$1+$1,$2,$3,$4,$5,0*
20,1,$1+$1,$4,$5,$6,$7,0*
20,1,$1+$1,$6,$7,$8,$9,0*
20,1,$1+$1,$8,$9,$2,$3,0*%
G04 Aperture macros list end*
%ADD10C,2.000000*%
%ADD11C,2.900000*%
%ADD12O,1.500000X1.700000*%
%ADD13RoundRect,0.200000X-0.762000X-0.762000X0.762000X-0.762000X0.762000X0.762000X-0.762000X0.762000X0*%
%ADD14RoundRect,0.350000X0.150000X-0.825000X0.150000X0.825000X-0.150000X0.825000X-0.150000X-0.825000X0*%
%ADD15RoundRect,0.200000X0.650000X-0.350000X0.650000X0.350000X-0.650000X0.350000X-0.650000X-0.350000X0*%
%ADD16RoundRect,0.200000X-1.250000X-0.900000X1.250000X-0.900000X1.250000X0.900000X-1.250000X0.900000X0*%
%ADD17C,6.400000*%
%ADD18RoundRect,0.450000X0.250000X0.475000X-0.250000X0.475000X-0.250000X-0.475000X0.250000X-0.475000X0*%
%ADD19RoundRect,0.200000X0.750000X-1.000000X0.750000X1.000000X-0.750000X1.000000X-0.750000X-1.000000X0*%
%ADD20RoundRect,0.200000X1.900000X-1.000000X1.900000X1.000000X-1.900000X1.000000X-1.900000X-1.000000X0*%
%ADD21C,5.400000*%
%ADD22RoundRect,0.400000X0.275000X-0.200000X0.275000X0.200000X-0.275000X0.200000X-0.275000X-0.200000X0*%
%ADD23RoundRect,0.400000X0.200000X0.275000X-0.200000X0.275000X-0.200000X-0.275000X0.200000X-0.275000X0*%
%ADD24RoundRect,0.400000X-0.275000X0.200000X-0.275000X-0.200000X0.275000X-0.200000X0.275000X0.200000X0*%
%ADD25RoundRect,0.425000X0.225000X0.250000X-0.225000X0.250000X-0.225000X-0.250000X0.225000X-0.250000X0*%
%ADD26RoundRect,0.425000X0.250000X-0.225000X0.250000X0.225000X-0.250000X0.225000X-0.250000X-0.225000X0*%
%ADD27RoundRect,0.425000X-0.250000X0.225000X-0.250000X-0.225000X0.250000X-0.225000X0.250000X0.225000X0*%
%ADD28RoundRect,0.450000X-0.250000X-0.475000X0.250000X-0.475000X0.250000X0.475000X-0.250000X0.475000X0*%
G04 APERTURE END LIST*
D10*
%TO.C,J3*%
X145200000Y-101885000D03*
X138800000Y-98075000D03*
X145200000Y-94265000D03*
X138800000Y-113315000D03*
X145200000Y-109505000D03*
X145200000Y-117125000D03*
D11*
X142000000Y-92360000D03*
X142000000Y-96170000D03*
X142000000Y-99980000D03*
X142000000Y-103790001D03*
X142000000Y-107599999D03*
X142000000Y-111410000D03*
X142000000Y-115220000D03*
X142000000Y-119030000D03*
%TD*%
D12*
%TO.C,J2*%
X142810000Y-128860000D03*
X141540000Y-127360000D03*
X140270000Y-127360000D03*
X139000000Y-128860000D03*
X137730000Y-127360000D03*
X136460000Y-127360000D03*
X135190000Y-128860000D03*
D11*
X132440000Y-126360000D03*
X145270000Y-127360000D03*
%TD*%
D12*
%TO.C,J4*%
X130810000Y-122110000D03*
X129540000Y-120610000D03*
X128270000Y-120610000D03*
X127000000Y-122110000D03*
X125730000Y-120610000D03*
X124460000Y-120610000D03*
X123190000Y-122110000D03*
D11*
X120440000Y-119610000D03*
X133270000Y-120610000D03*
%TD*%
D10*
%TO.C,J5*%
X108800000Y-94265000D03*
X115200000Y-98075000D03*
X108800000Y-109505000D03*
X115200000Y-113315000D03*
X108800000Y-101885000D03*
X108800000Y-117125000D03*
D11*
X112000000Y-119030000D03*
X112000000Y-115220000D03*
X112000000Y-111410000D03*
X112000000Y-107599999D03*
X112000000Y-103790001D03*
X112000000Y-99980000D03*
X112000000Y-96170000D03*
X112000000Y-92360000D03*
%TD*%
D12*
%TO.C,J6*%
X118770000Y-128860000D03*
X117500000Y-127360000D03*
X116230000Y-127360000D03*
X114960000Y-128860000D03*
X113690000Y-127360000D03*
X112420000Y-127360000D03*
X111150000Y-128860000D03*
D11*
X108400000Y-126360000D03*
X121230000Y-127360000D03*
%TD*%
D13*
%TO.C,J1*%
X151536400Y-112268000D03*
X154076400Y-112268000D03*
X151536400Y-114808000D03*
X154076400Y-114808000D03*
X151536400Y-117348000D03*
X154076400Y-117348000D03*
X151536400Y-119888000D03*
X154076400Y-119888000D03*
%TD*%
D14*
%TO.C,U1*%
X132905000Y-107235000D03*
X131635000Y-107235000D03*
X130365000Y-107235000D03*
X129095000Y-107235000D03*
X129095000Y-102285000D03*
X130365000Y-102285000D03*
X131635000Y-102285000D03*
X132905000Y-102285000D03*
%TD*%
D15*
%TO.C,L1*%
X127000000Y-109810000D03*
X127000000Y-107910000D03*
%TD*%
D14*
%TO.C,U2*%
X124905000Y-107235000D03*
X123635000Y-107235000D03*
X122365000Y-107235000D03*
X121095000Y-107235000D03*
X121095000Y-102285000D03*
X122365000Y-102285000D03*
X123635000Y-102285000D03*
X124905000Y-102285000D03*
%TD*%
D16*
%TO.C,D1*%
X149536400Y-107950000D03*
X153536400Y-107950000D03*
%TD*%
D17*
%TO.C,M1*%
X101600000Y-127000000D03*
%TD*%
%TO.C,M2*%
X152400000Y-127000000D03*
%TD*%
%TO.C,M3*%
X101600000Y-86360000D03*
%TD*%
%TO.C,M4*%
X152400000Y-86360000D03*
%TD*%
D18*
%TO.C,C1*%
X148828800Y-111810800D03*
X146928800Y-111810800D03*
%TD*%
D19*
%TO.C,U3*%
X153300000Y-101830000D03*
D20*
X151000000Y-95530000D03*
D19*
X151000000Y-101830000D03*
X148700000Y-101830000D03*
%TD*%
D21*
%TO.C,M5*%
X119000000Y-86360000D03*
%TD*%
%TO.C,M6*%
X135000000Y-86360000D03*
%TD*%
D22*
%TO.C,R1*%
X133502400Y-117258600D03*
X133502400Y-115608600D03*
%TD*%
%TO.C,R2*%
X128320800Y-116039400D03*
X128320800Y-114389400D03*
%TD*%
D23*
%TO.C,R3*%
X133325000Y-99827000D03*
X131675000Y-99827000D03*
%TD*%
%TO.C,R4*%
X131825000Y-109610000D03*
X130175000Y-109610000D03*
%TD*%
D22*
%TO.C,R5*%
X133500000Y-114185000D03*
X133500000Y-112535000D03*
%TD*%
%TO.C,R6*%
X128500000Y-112935000D03*
X128500000Y-111285000D03*
%TD*%
D23*
%TO.C,R7*%
X130325000Y-99827000D03*
X128675000Y-99827000D03*
%TD*%
D24*
%TO.C,R8*%
X125500000Y-111285000D03*
X125500000Y-112935000D03*
%TD*%
%TO.C,R9*%
X120500000Y-112535000D03*
X120500000Y-114185000D03*
%TD*%
D23*
%TO.C,R10*%
X125325000Y-99827000D03*
X123675000Y-99827000D03*
%TD*%
%TO.C,R11*%
X123825000Y-109610000D03*
X122175000Y-109610000D03*
%TD*%
%TO.C,R12*%
X122325000Y-99827000D03*
X120675000Y-99827000D03*
%TD*%
D24*
%TO.C,R13*%
X125679200Y-114389400D03*
X125679200Y-116039400D03*
%TD*%
%TO.C,R14*%
X120497600Y-115557800D03*
X120497600Y-117207800D03*
%TD*%
D25*
%TO.C,C2*%
X148638600Y-114706400D03*
X147088600Y-114706400D03*
%TD*%
D26*
%TO.C,C3*%
X134750000Y-102135000D03*
X134750000Y-100585000D03*
%TD*%
D27*
%TO.C,C4*%
X131750000Y-111335000D03*
X131750000Y-112885000D03*
%TD*%
%TO.C,C5*%
X131750000Y-96585000D03*
X131750000Y-98135000D03*
%TD*%
%TO.C,C6*%
X130250000Y-111335000D03*
X130250000Y-112885000D03*
%TD*%
%TO.C,C7*%
X130250000Y-96585000D03*
X130250000Y-98135000D03*
%TD*%
%TO.C,C8*%
X133500000Y-109585000D03*
X133500000Y-111135000D03*
%TD*%
%TO.C,C9*%
X120500000Y-109585000D03*
X120500000Y-111135000D03*
%TD*%
%TO.C,C10*%
X126650000Y-103935000D03*
X126650000Y-105485000D03*
%TD*%
%TO.C,C11*%
X123750000Y-111335000D03*
X123750000Y-112885000D03*
%TD*%
%TO.C,C12*%
X123750000Y-96585000D03*
X123750000Y-98135000D03*
%TD*%
%TO.C,C13*%
X122250000Y-111335000D03*
X122250000Y-112885000D03*
%TD*%
%TO.C,C14*%
X122250000Y-96585000D03*
X122250000Y-98135000D03*
%TD*%
D25*
%TO.C,C15*%
X150525000Y-104680000D03*
X148975000Y-104680000D03*
%TD*%
%TO.C,C16*%
X154150000Y-92885000D03*
X152600000Y-92885000D03*
%TD*%
D28*
%TO.C,C17*%
X148150000Y-92360000D03*
X150050000Y-92360000D03*
%TD*%
M02*
