M48
; DRILL file {KiCad 6.0.4-6f826c9f35~116~ubuntu20.04.1} date Wed May 11 15:22:45 2022
; FORMAT={-:-/ absolute / metric / decimal}
; #@! TF.CreationDate,2022-05-11T15:22:45+00:00
; #@! TF.GenerationSoftware,Kicad,Pcbnew,6.0.4-6f826c9f35~116~ubuntu20.04.1
; #@! TF.FileFunction,Plated,1,2,PTH
FMAT,2
METRIC
; #@! TA.AperFunction,Plated,PTH,ViaDrill
T1C0.400
; #@! TA.AperFunction,Plated,PTH,ComponentDrill
T2C0.740
; #@! TA.AperFunction,Plated,PTH,ComponentDrill
T3C0.889
; #@! TA.AperFunction,Plated,PTH,ComponentDrill
T4C1.350
; #@! TA.AperFunction,Plated,PTH,ComponentDrill
T5C1.400
; #@! TA.AperFunction,Plated,PTH,ComponentDrill
T6C3.000
%
G90
G05
T1
X99.0Y-91.36
X99.0Y-98.36
X99.0Y-106.36
X99.0Y-114.36
X99.0Y-122.36
X104.55Y-117.15
X104.65Y-109.5
X104.65Y-113.35
X105.7Y-105.2
X106.0Y-83.36
X106.0Y-130.36
X106.7Y-121.2
X107.35Y-116.3
X107.55Y-108.1
X108.05Y-98.25
X108.05Y-103.55
X108.4Y-113.05
X109.4Y-123.7
X109.5Y-119.2
X109.55Y-106.2
X110.0Y-83.36
X110.45Y-88.8
X112.5Y-122.3
X113.8Y-117.25
X113.85Y-120.35
X114.95Y-95.6
X115.0Y-83.36
X115.1Y-117.55
X115.55Y-115.1
X115.65Y-92.25
X116.0Y-105.36
X117.0Y-130.36
X117.2Y-109.15
X117.3Y-95.66
X117.75Y-92.25
X119.7Y-95.6
X119.75Y-92.25
X120.5Y-111.935
X120.75Y-98.61
X121.0Y-105.308
X121.006Y-104.394
X121.5Y-95.36
X121.75Y-92.4
X121.8Y-114.585
X121.8Y-116.06
X122.3Y-117.46
X123.0Y-83.36
X123.5Y-93.45
X124.2Y-114.36
X124.2Y-115.86
X124.3Y-127.4
X124.5Y-95.16
X125.0Y-105.36
X125.1Y-121.96
X125.25Y-98.61
X125.7Y-117.26
X126.4Y-124.45
X127.0Y-83.36
X127.0Y-87.56
X127.0Y-111.36
X127.0Y-115.61
X127.0Y-130.36
X127.5Y-92.16
X128.373Y-117.262
X128.7Y-95.86
X128.7Y-98.46
X128.75Y-126.35
X128.9Y-121.96
X129.1Y-103.46
X129.5Y-124.06
X129.6Y-94.7
X129.775Y-114.335
X129.775Y-115.885
X130.1Y-89.76
X130.55Y-93.6
X130.65Y-129.0
X131.0Y-83.36
X131.55Y-117.51
X131.7Y-92.75
X132.2Y-114.585
X132.225Y-116.062
X132.9Y-95.56
X133.0Y-92.76
X133.5Y-111.96
X134.2Y-107.46
X134.55Y-95.65
X134.75Y-92.8
X134.75Y-99.36
X134.75Y-114.61
X134.8Y-103.56
X135.2Y-109.66
X135.6Y-105.56
X135.75Y-122.61
X136.5Y-92.86
X136.55Y-95.65
X137.0Y-101.66
X138.25Y-92.85
X138.25Y-95.7
X138.25Y-116.36
X138.25Y-118.61
X138.6Y-111.26
X138.8Y-104.16
X139.0Y-83.36
X139.35Y-88.55
X139.7Y-107.71
X139.75Y-92.86
X139.75Y-95.56
X139.75Y-100.46
X139.75Y-103.36
X140.5Y-121.61
X142.0Y-88.35
X142.25Y-123.86
X144.0Y-83.36
X144.9Y-88.35
X145.288Y-115.265
X146.0Y-98.36
X146.0Y-105.36
X147.8Y-88.3
X148.0Y-83.36
X149.0Y-130.36
X149.3Y-98.36
X152.7Y-98.36
X155.0Y-91.36
X155.0Y-97.36
X155.0Y-104.36
X156.3Y-116.05
T2
X111.15Y-128.86
X112.42Y-127.36
X113.69Y-127.36
X114.96Y-128.86
X116.23Y-127.36
X117.5Y-127.36
X118.77Y-128.86
X123.19Y-122.11
X124.46Y-120.61
X125.73Y-120.61
X127.0Y-122.11
X128.27Y-120.61
X129.54Y-120.61
X130.81Y-122.11
X135.19Y-128.86
X136.46Y-127.36
X137.73Y-127.36
X139.0Y-128.86
X140.27Y-127.36
X141.54Y-127.36
X142.81Y-128.86
T3
X151.536Y-112.268
X151.536Y-114.808
X151.536Y-117.348
X151.536Y-119.888
X154.076Y-112.268
X154.076Y-114.808
X154.076Y-117.348
X154.076Y-119.888
T4
X108.4Y-126.36
X120.44Y-119.61
X121.23Y-127.36
X132.44Y-126.36
X133.27Y-120.61
X145.27Y-127.36
T5
X112.0Y-92.36
X112.0Y-96.17
X112.0Y-99.98
X112.0Y-103.79
X112.0Y-107.6
X112.0Y-111.41
X112.0Y-115.22
X112.0Y-119.03
X142.0Y-92.36
X142.0Y-96.17
X142.0Y-99.98
X142.0Y-103.79
X142.0Y-107.6
X142.0Y-111.41
X142.0Y-115.22
X142.0Y-119.03
T6
X101.6Y-86.36
X101.6Y-127.0
X119.0Y-86.36
X135.0Y-86.36
X152.4Y-86.36
X152.4Y-127.0
T0
M30
