%TF.GenerationSoftware,KiCad,Pcbnew,6.0.4-6f826c9f35~116~ubuntu20.04.1*%
%TF.CreationDate,2022-05-11T15:22:45+00:00*%
%TF.ProjectId,RFIQINT01B,52464951-494e-4543-9031-422e6b696361,REV 0.2*%
%TF.SameCoordinates,Original*%
%TF.FileFunction,Legend,Bot*%
%TF.FilePolarity,Positive*%
%FSLAX46Y46*%
G04 Gerber Fmt 4.6, Leading zero omitted, Abs format (unit mm)*
G04 Created by KiCad (PCBNEW 6.0.4-6f826c9f35~116~ubuntu20.04.1) date 2022-05-11 15:22:45*
%MOMM*%
%LPD*%
G01*
G04 APERTURE LIST*
%ADD10C,0.150000*%
%ADD11C,0.120000*%
G04 APERTURE END LIST*
D10*
%TO.C,U1*%
X133970780Y-104292495D02*
X134780304Y-104292495D01*
X134875542Y-104340114D01*
X134923161Y-104387733D01*
X134970780Y-104482971D01*
X134970780Y-104673447D01*
X134923161Y-104768685D01*
X134875542Y-104816304D01*
X134780304Y-104863923D01*
X133970780Y-104863923D01*
X134970780Y-105863923D02*
X134970780Y-105292495D01*
X134970780Y-105578209D02*
X133970780Y-105578209D01*
X134113638Y-105482971D01*
X134208876Y-105387733D01*
X134256495Y-105292495D01*
%TO.C,L1*%
X127083333Y-107111904D02*
X127464285Y-107111904D01*
X127464285Y-106311904D01*
X126397619Y-107111904D02*
X126854761Y-107111904D01*
X126626190Y-107111904D02*
X126626190Y-106311904D01*
X126702380Y-106426190D01*
X126778571Y-106502380D01*
X126854761Y-106540476D01*
%TO.C,U2*%
X118832380Y-104038495D02*
X119641904Y-104038495D01*
X119737142Y-104086114D01*
X119784761Y-104133733D01*
X119832380Y-104228971D01*
X119832380Y-104419447D01*
X119784761Y-104514685D01*
X119737142Y-104562304D01*
X119641904Y-104609923D01*
X118832380Y-104609923D01*
X118927619Y-105038495D02*
X118880000Y-105086114D01*
X118832380Y-105181352D01*
X118832380Y-105419447D01*
X118880000Y-105514685D01*
X118927619Y-105562304D01*
X119022857Y-105609923D01*
X119118095Y-105609923D01*
X119260952Y-105562304D01*
X119832380Y-104990876D01*
X119832380Y-105609923D01*
%TO.C,D1*%
X152274495Y-110902380D02*
X152274495Y-109902380D01*
X152036400Y-109902380D01*
X151893542Y-109950000D01*
X151798304Y-110045238D01*
X151750685Y-110140476D01*
X151703066Y-110330952D01*
X151703066Y-110473809D01*
X151750685Y-110664285D01*
X151798304Y-110759523D01*
X151893542Y-110854761D01*
X152036400Y-110902380D01*
X152274495Y-110902380D01*
X150750685Y-110902380D02*
X151322114Y-110902380D01*
X151036400Y-110902380D02*
X151036400Y-109902380D01*
X151131638Y-110045238D01*
X151226876Y-110140476D01*
X151322114Y-110188095D01*
%TO.C,C1*%
X147385066Y-110487942D02*
X147432685Y-110535561D01*
X147575542Y-110583180D01*
X147670780Y-110583180D01*
X147813638Y-110535561D01*
X147908876Y-110440323D01*
X147956495Y-110345085D01*
X148004114Y-110154609D01*
X148004114Y-110011752D01*
X147956495Y-109821276D01*
X147908876Y-109726038D01*
X147813638Y-109630800D01*
X147670780Y-109583180D01*
X147575542Y-109583180D01*
X147432685Y-109630800D01*
X147385066Y-109678419D01*
X146432685Y-110583180D02*
X147004114Y-110583180D01*
X146718400Y-110583180D02*
X146718400Y-109583180D01*
X146813638Y-109726038D01*
X146908876Y-109821276D01*
X147004114Y-109868895D01*
%TO.C,U3*%
X154952380Y-97918095D02*
X155761904Y-97918095D01*
X155857142Y-97965714D01*
X155904761Y-98013333D01*
X155952380Y-98108571D01*
X155952380Y-98299047D01*
X155904761Y-98394285D01*
X155857142Y-98441904D01*
X155761904Y-98489523D01*
X154952380Y-98489523D01*
X154952380Y-98870476D02*
X154952380Y-99489523D01*
X155333333Y-99156190D01*
X155333333Y-99299047D01*
X155380952Y-99394285D01*
X155428571Y-99441904D01*
X155523809Y-99489523D01*
X155761904Y-99489523D01*
X155857142Y-99441904D01*
X155904761Y-99394285D01*
X155952380Y-99299047D01*
X155952380Y-99013333D01*
X155904761Y-98918095D01*
X155857142Y-98870476D01*
%TO.C,R1*%
X135384780Y-116266933D02*
X134908590Y-115933600D01*
X135384780Y-115695504D02*
X134384780Y-115695504D01*
X134384780Y-116076457D01*
X134432400Y-116171695D01*
X134480019Y-116219314D01*
X134575257Y-116266933D01*
X134718114Y-116266933D01*
X134813352Y-116219314D01*
X134860971Y-116171695D01*
X134908590Y-116076457D01*
X134908590Y-115695504D01*
X135384780Y-117219314D02*
X135384780Y-116647885D01*
X135384780Y-116933600D02*
X134384780Y-116933600D01*
X134527638Y-116838361D01*
X134622876Y-116743123D01*
X134670495Y-116647885D01*
%TO.C,R2*%
X128923180Y-117837733D02*
X128446990Y-117504400D01*
X128923180Y-117266304D02*
X127923180Y-117266304D01*
X127923180Y-117647257D01*
X127970800Y-117742495D01*
X128018419Y-117790114D01*
X128113657Y-117837733D01*
X128256514Y-117837733D01*
X128351752Y-117790114D01*
X128399371Y-117742495D01*
X128446990Y-117647257D01*
X128446990Y-117266304D01*
X128018419Y-118218685D02*
X127970800Y-118266304D01*
X127923180Y-118361542D01*
X127923180Y-118599638D01*
X127970800Y-118694876D01*
X128018419Y-118742495D01*
X128113657Y-118790114D01*
X128208895Y-118790114D01*
X128351752Y-118742495D01*
X128923180Y-118171066D01*
X128923180Y-118790114D01*
%TO.C,R3*%
X133770666Y-98902780D02*
X134104000Y-98426590D01*
X134342095Y-98902780D02*
X134342095Y-97902780D01*
X133961142Y-97902780D01*
X133865904Y-97950400D01*
X133818285Y-97998019D01*
X133770666Y-98093257D01*
X133770666Y-98236114D01*
X133818285Y-98331352D01*
X133865904Y-98378971D01*
X133961142Y-98426590D01*
X134342095Y-98426590D01*
X133437333Y-97902780D02*
X132818285Y-97902780D01*
X133151619Y-98283733D01*
X133008761Y-98283733D01*
X132913523Y-98331352D01*
X132865904Y-98378971D01*
X132818285Y-98474209D01*
X132818285Y-98712304D01*
X132865904Y-98807542D01*
X132913523Y-98855161D01*
X133008761Y-98902780D01*
X133294476Y-98902780D01*
X133389714Y-98855161D01*
X133437333Y-98807542D01*
%TO.C,R5*%
X135382380Y-113193333D02*
X134906190Y-112860000D01*
X135382380Y-112621904D02*
X134382380Y-112621904D01*
X134382380Y-113002857D01*
X134430000Y-113098095D01*
X134477619Y-113145714D01*
X134572857Y-113193333D01*
X134715714Y-113193333D01*
X134810952Y-113145714D01*
X134858571Y-113098095D01*
X134906190Y-113002857D01*
X134906190Y-112621904D01*
X134382380Y-114098095D02*
X134382380Y-113621904D01*
X134858571Y-113574285D01*
X134810952Y-113621904D01*
X134763333Y-113717142D01*
X134763333Y-113955238D01*
X134810952Y-114050476D01*
X134858571Y-114098095D01*
X134953809Y-114145714D01*
X135191904Y-114145714D01*
X135287142Y-114098095D01*
X135334761Y-114050476D01*
X135382380Y-113955238D01*
X135382380Y-113717142D01*
X135334761Y-113621904D01*
X135287142Y-113574285D01*
%TO.C,R9*%
X119522380Y-113193333D02*
X119046190Y-112860000D01*
X119522380Y-112621904D02*
X118522380Y-112621904D01*
X118522380Y-113002857D01*
X118570000Y-113098095D01*
X118617619Y-113145714D01*
X118712857Y-113193333D01*
X118855714Y-113193333D01*
X118950952Y-113145714D01*
X118998571Y-113098095D01*
X119046190Y-113002857D01*
X119046190Y-112621904D01*
X119522380Y-113669523D02*
X119522380Y-113860000D01*
X119474761Y-113955238D01*
X119427142Y-114002857D01*
X119284285Y-114098095D01*
X119093809Y-114145714D01*
X118712857Y-114145714D01*
X118617619Y-114098095D01*
X118570000Y-114050476D01*
X118522380Y-113955238D01*
X118522380Y-113764761D01*
X118570000Y-113669523D01*
X118617619Y-113621904D01*
X118712857Y-113574285D01*
X118950952Y-113574285D01*
X119046190Y-113621904D01*
X119093809Y-113669523D01*
X119141428Y-113764761D01*
X119141428Y-113955238D01*
X119093809Y-114050476D01*
X119046190Y-114098095D01*
X118950952Y-114145714D01*
%TO.C,R10*%
X126982457Y-98750380D02*
X127315790Y-98274190D01*
X127553885Y-98750380D02*
X127553885Y-97750380D01*
X127172933Y-97750380D01*
X127077695Y-97798000D01*
X127030076Y-97845619D01*
X126982457Y-97940857D01*
X126982457Y-98083714D01*
X127030076Y-98178952D01*
X127077695Y-98226571D01*
X127172933Y-98274190D01*
X127553885Y-98274190D01*
X126030076Y-98750380D02*
X126601504Y-98750380D01*
X126315790Y-98750380D02*
X126315790Y-97750380D01*
X126411028Y-97893238D01*
X126506266Y-97988476D01*
X126601504Y-98036095D01*
X125411028Y-97750380D02*
X125315790Y-97750380D01*
X125220552Y-97798000D01*
X125172933Y-97845619D01*
X125125314Y-97940857D01*
X125077695Y-98131333D01*
X125077695Y-98369428D01*
X125125314Y-98559904D01*
X125172933Y-98655142D01*
X125220552Y-98702761D01*
X125315790Y-98750380D01*
X125411028Y-98750380D01*
X125506266Y-98702761D01*
X125553885Y-98655142D01*
X125601504Y-98559904D01*
X125649123Y-98369428D01*
X125649123Y-98131333D01*
X125601504Y-97940857D01*
X125553885Y-97845619D01*
X125506266Y-97798000D01*
X125411028Y-97750380D01*
%TO.C,R12*%
X119006857Y-100274380D02*
X119340190Y-99798190D01*
X119578285Y-100274380D02*
X119578285Y-99274380D01*
X119197333Y-99274380D01*
X119102095Y-99322000D01*
X119054476Y-99369619D01*
X119006857Y-99464857D01*
X119006857Y-99607714D01*
X119054476Y-99702952D01*
X119102095Y-99750571D01*
X119197333Y-99798190D01*
X119578285Y-99798190D01*
X118054476Y-100274380D02*
X118625904Y-100274380D01*
X118340190Y-100274380D02*
X118340190Y-99274380D01*
X118435428Y-99417238D01*
X118530666Y-99512476D01*
X118625904Y-99560095D01*
X117673523Y-99369619D02*
X117625904Y-99322000D01*
X117530666Y-99274380D01*
X117292571Y-99274380D01*
X117197333Y-99322000D01*
X117149714Y-99369619D01*
X117102095Y-99464857D01*
X117102095Y-99560095D01*
X117149714Y-99702952D01*
X117721142Y-100274380D01*
X117102095Y-100274380D01*
%TO.C,R13*%
X124685180Y-114824342D02*
X124208990Y-114491009D01*
X124685180Y-114252914D02*
X123685180Y-114252914D01*
X123685180Y-114633866D01*
X123732800Y-114729104D01*
X123780419Y-114776723D01*
X123875657Y-114824342D01*
X124018514Y-114824342D01*
X124113752Y-114776723D01*
X124161371Y-114729104D01*
X124208990Y-114633866D01*
X124208990Y-114252914D01*
X124685180Y-115776723D02*
X124685180Y-115205295D01*
X124685180Y-115491009D02*
X123685180Y-115491009D01*
X123828038Y-115395771D01*
X123923276Y-115300533D01*
X123970895Y-115205295D01*
X123685180Y-116110057D02*
X123685180Y-116729104D01*
X124066133Y-116395771D01*
X124066133Y-116538628D01*
X124113752Y-116633866D01*
X124161371Y-116681485D01*
X124256609Y-116729104D01*
X124494704Y-116729104D01*
X124589942Y-116681485D01*
X124637561Y-116633866D01*
X124685180Y-116538628D01*
X124685180Y-116252914D01*
X124637561Y-116157676D01*
X124589942Y-116110057D01*
%TO.C,R14*%
X119519980Y-115739942D02*
X119043790Y-115406609D01*
X119519980Y-115168514D02*
X118519980Y-115168514D01*
X118519980Y-115549466D01*
X118567600Y-115644704D01*
X118615219Y-115692323D01*
X118710457Y-115739942D01*
X118853314Y-115739942D01*
X118948552Y-115692323D01*
X118996171Y-115644704D01*
X119043790Y-115549466D01*
X119043790Y-115168514D01*
X119519980Y-116692323D02*
X119519980Y-116120895D01*
X119519980Y-116406609D02*
X118519980Y-116406609D01*
X118662838Y-116311371D01*
X118758076Y-116216133D01*
X118805695Y-116120895D01*
X118853314Y-117549466D02*
X119519980Y-117549466D01*
X118472361Y-117311371D02*
X119186647Y-117073276D01*
X119186647Y-117692323D01*
%TO.C,C2*%
X148030266Y-113633542D02*
X148077885Y-113681161D01*
X148220742Y-113728780D01*
X148315980Y-113728780D01*
X148458838Y-113681161D01*
X148554076Y-113585923D01*
X148601695Y-113490685D01*
X148649314Y-113300209D01*
X148649314Y-113157352D01*
X148601695Y-112966876D01*
X148554076Y-112871638D01*
X148458838Y-112776400D01*
X148315980Y-112728780D01*
X148220742Y-112728780D01*
X148077885Y-112776400D01*
X148030266Y-112824019D01*
X147649314Y-112824019D02*
X147601695Y-112776400D01*
X147506457Y-112728780D01*
X147268361Y-112728780D01*
X147173123Y-112776400D01*
X147125504Y-112824019D01*
X147077885Y-112919257D01*
X147077885Y-113014495D01*
X147125504Y-113157352D01*
X147696933Y-113728780D01*
X147077885Y-113728780D01*
%TO.C,C3*%
X136537142Y-101193333D02*
X136584761Y-101145714D01*
X136632380Y-101002857D01*
X136632380Y-100907619D01*
X136584761Y-100764761D01*
X136489523Y-100669523D01*
X136394285Y-100621904D01*
X136203809Y-100574285D01*
X136060952Y-100574285D01*
X135870476Y-100621904D01*
X135775238Y-100669523D01*
X135680000Y-100764761D01*
X135632380Y-100907619D01*
X135632380Y-101002857D01*
X135680000Y-101145714D01*
X135727619Y-101193333D01*
X135632380Y-101526666D02*
X135632380Y-102145714D01*
X136013333Y-101812380D01*
X136013333Y-101955238D01*
X136060952Y-102050476D01*
X136108571Y-102098095D01*
X136203809Y-102145714D01*
X136441904Y-102145714D01*
X136537142Y-102098095D01*
X136584761Y-102050476D01*
X136632380Y-101955238D01*
X136632380Y-101669523D01*
X136584761Y-101574285D01*
X136537142Y-101526666D01*
%TO.C,C4*%
X132307142Y-114483333D02*
X132354761Y-114435714D01*
X132402380Y-114292857D01*
X132402380Y-114197619D01*
X132354761Y-114054761D01*
X132259523Y-113959523D01*
X132164285Y-113911904D01*
X131973809Y-113864285D01*
X131830952Y-113864285D01*
X131640476Y-113911904D01*
X131545238Y-113959523D01*
X131450000Y-114054761D01*
X131402380Y-114197619D01*
X131402380Y-114292857D01*
X131450000Y-114435714D01*
X131497619Y-114483333D01*
X131735714Y-115340476D02*
X132402380Y-115340476D01*
X131354761Y-115102380D02*
X132069047Y-114864285D01*
X132069047Y-115483333D01*
%TO.C,C5*%
X133808742Y-96708933D02*
X133856361Y-96661314D01*
X133903980Y-96518457D01*
X133903980Y-96423219D01*
X133856361Y-96280361D01*
X133761123Y-96185123D01*
X133665885Y-96137504D01*
X133475409Y-96089885D01*
X133332552Y-96089885D01*
X133142076Y-96137504D01*
X133046838Y-96185123D01*
X132951600Y-96280361D01*
X132903980Y-96423219D01*
X132903980Y-96518457D01*
X132951600Y-96661314D01*
X132999219Y-96708933D01*
X132903980Y-97613695D02*
X132903980Y-97137504D01*
X133380171Y-97089885D01*
X133332552Y-97137504D01*
X133284933Y-97232742D01*
X133284933Y-97470838D01*
X133332552Y-97566076D01*
X133380171Y-97613695D01*
X133475409Y-97661314D01*
X133713504Y-97661314D01*
X133808742Y-97613695D01*
X133856361Y-97566076D01*
X133903980Y-97470838D01*
X133903980Y-97232742D01*
X133856361Y-97137504D01*
X133808742Y-97089885D01*
%TO.C,C6*%
X130657142Y-114483333D02*
X130704761Y-114435714D01*
X130752380Y-114292857D01*
X130752380Y-114197619D01*
X130704761Y-114054761D01*
X130609523Y-113959523D01*
X130514285Y-113911904D01*
X130323809Y-113864285D01*
X130180952Y-113864285D01*
X129990476Y-113911904D01*
X129895238Y-113959523D01*
X129800000Y-114054761D01*
X129752380Y-114197619D01*
X129752380Y-114292857D01*
X129800000Y-114435714D01*
X129847619Y-114483333D01*
X129752380Y-115340476D02*
X129752380Y-115150000D01*
X129800000Y-115054761D01*
X129847619Y-115007142D01*
X129990476Y-114911904D01*
X130180952Y-114864285D01*
X130561904Y-114864285D01*
X130657142Y-114911904D01*
X130704761Y-114959523D01*
X130752380Y-115054761D01*
X130752380Y-115245238D01*
X130704761Y-115340476D01*
X130657142Y-115388095D01*
X130561904Y-115435714D01*
X130323809Y-115435714D01*
X130228571Y-115388095D01*
X130180952Y-115340476D01*
X130133333Y-115245238D01*
X130133333Y-115054761D01*
X130180952Y-114959523D01*
X130228571Y-114911904D01*
X130323809Y-114864285D01*
%TO.C,C7*%
X129177142Y-97193333D02*
X129224761Y-97145714D01*
X129272380Y-97002857D01*
X129272380Y-96907619D01*
X129224761Y-96764761D01*
X129129523Y-96669523D01*
X129034285Y-96621904D01*
X128843809Y-96574285D01*
X128700952Y-96574285D01*
X128510476Y-96621904D01*
X128415238Y-96669523D01*
X128320000Y-96764761D01*
X128272380Y-96907619D01*
X128272380Y-97002857D01*
X128320000Y-97145714D01*
X128367619Y-97193333D01*
X128272380Y-97526666D02*
X128272380Y-98193333D01*
X129272380Y-97764761D01*
%TO.C,C8*%
X135507142Y-109883333D02*
X135554761Y-109835714D01*
X135602380Y-109692857D01*
X135602380Y-109597619D01*
X135554761Y-109454761D01*
X135459523Y-109359523D01*
X135364285Y-109311904D01*
X135173809Y-109264285D01*
X135030952Y-109264285D01*
X134840476Y-109311904D01*
X134745238Y-109359523D01*
X134650000Y-109454761D01*
X134602380Y-109597619D01*
X134602380Y-109692857D01*
X134650000Y-109835714D01*
X134697619Y-109883333D01*
X135030952Y-110454761D02*
X134983333Y-110359523D01*
X134935714Y-110311904D01*
X134840476Y-110264285D01*
X134792857Y-110264285D01*
X134697619Y-110311904D01*
X134650000Y-110359523D01*
X134602380Y-110454761D01*
X134602380Y-110645238D01*
X134650000Y-110740476D01*
X134697619Y-110788095D01*
X134792857Y-110835714D01*
X134840476Y-110835714D01*
X134935714Y-110788095D01*
X134983333Y-110740476D01*
X135030952Y-110645238D01*
X135030952Y-110454761D01*
X135078571Y-110359523D01*
X135126190Y-110311904D01*
X135221428Y-110264285D01*
X135411904Y-110264285D01*
X135507142Y-110311904D01*
X135554761Y-110359523D01*
X135602380Y-110454761D01*
X135602380Y-110645238D01*
X135554761Y-110740476D01*
X135507142Y-110788095D01*
X135411904Y-110835714D01*
X135221428Y-110835714D01*
X135126190Y-110788095D01*
X135078571Y-110740476D01*
X135030952Y-110645238D01*
%TO.C,C9*%
X119427142Y-110193333D02*
X119474761Y-110145714D01*
X119522380Y-110002857D01*
X119522380Y-109907619D01*
X119474761Y-109764761D01*
X119379523Y-109669523D01*
X119284285Y-109621904D01*
X119093809Y-109574285D01*
X118950952Y-109574285D01*
X118760476Y-109621904D01*
X118665238Y-109669523D01*
X118570000Y-109764761D01*
X118522380Y-109907619D01*
X118522380Y-110002857D01*
X118570000Y-110145714D01*
X118617619Y-110193333D01*
X119522380Y-110669523D02*
X119522380Y-110860000D01*
X119474761Y-110955238D01*
X119427142Y-111002857D01*
X119284285Y-111098095D01*
X119093809Y-111145714D01*
X118712857Y-111145714D01*
X118617619Y-111098095D01*
X118570000Y-111050476D01*
X118522380Y-110955238D01*
X118522380Y-110764761D01*
X118570000Y-110669523D01*
X118617619Y-110621904D01*
X118712857Y-110574285D01*
X118950952Y-110574285D01*
X119046190Y-110621904D01*
X119093809Y-110669523D01*
X119141428Y-110764761D01*
X119141428Y-110955238D01*
X119093809Y-111050476D01*
X119046190Y-111098095D01*
X118950952Y-111145714D01*
%TO.C,C12*%
X126036342Y-95369142D02*
X126083961Y-95321523D01*
X126131580Y-95178666D01*
X126131580Y-95083428D01*
X126083961Y-94940571D01*
X125988723Y-94845333D01*
X125893485Y-94797714D01*
X125703009Y-94750095D01*
X125560152Y-94750095D01*
X125369676Y-94797714D01*
X125274438Y-94845333D01*
X125179200Y-94940571D01*
X125131580Y-95083428D01*
X125131580Y-95178666D01*
X125179200Y-95321523D01*
X125226819Y-95369142D01*
X126131580Y-96321523D02*
X126131580Y-95750095D01*
X126131580Y-96035809D02*
X125131580Y-96035809D01*
X125274438Y-95940571D01*
X125369676Y-95845333D01*
X125417295Y-95750095D01*
X125226819Y-96702476D02*
X125179200Y-96750095D01*
X125131580Y-96845333D01*
X125131580Y-97083428D01*
X125179200Y-97178666D01*
X125226819Y-97226285D01*
X125322057Y-97273904D01*
X125417295Y-97273904D01*
X125560152Y-97226285D01*
X126131580Y-96654857D01*
X126131580Y-97273904D01*
%TO.C,C14*%
X121057942Y-96131142D02*
X121105561Y-96083523D01*
X121153180Y-95940666D01*
X121153180Y-95845428D01*
X121105561Y-95702571D01*
X121010323Y-95607333D01*
X120915085Y-95559714D01*
X120724609Y-95512095D01*
X120581752Y-95512095D01*
X120391276Y-95559714D01*
X120296038Y-95607333D01*
X120200800Y-95702571D01*
X120153180Y-95845428D01*
X120153180Y-95940666D01*
X120200800Y-96083523D01*
X120248419Y-96131142D01*
X121153180Y-97083523D02*
X121153180Y-96512095D01*
X121153180Y-96797809D02*
X120153180Y-96797809D01*
X120296038Y-96702571D01*
X120391276Y-96607333D01*
X120438895Y-96512095D01*
X120486514Y-97940666D02*
X121153180Y-97940666D01*
X120105561Y-97702571D02*
X120819847Y-97464476D01*
X120819847Y-98083523D01*
%TO.C,C15*%
X153550857Y-105055942D02*
X153598476Y-105103561D01*
X153741333Y-105151180D01*
X153836571Y-105151180D01*
X153979428Y-105103561D01*
X154074666Y-105008323D01*
X154122285Y-104913085D01*
X154169904Y-104722609D01*
X154169904Y-104579752D01*
X154122285Y-104389276D01*
X154074666Y-104294038D01*
X153979428Y-104198800D01*
X153836571Y-104151180D01*
X153741333Y-104151180D01*
X153598476Y-104198800D01*
X153550857Y-104246419D01*
X152598476Y-105151180D02*
X153169904Y-105151180D01*
X152884190Y-105151180D02*
X152884190Y-104151180D01*
X152979428Y-104294038D01*
X153074666Y-104389276D01*
X153169904Y-104436895D01*
X151693714Y-104151180D02*
X152169904Y-104151180D01*
X152217523Y-104627371D01*
X152169904Y-104579752D01*
X152074666Y-104532133D01*
X151836571Y-104532133D01*
X151741333Y-104579752D01*
X151693714Y-104627371D01*
X151646095Y-104722609D01*
X151646095Y-104960704D01*
X151693714Y-105055942D01*
X151741333Y-105103561D01*
X151836571Y-105151180D01*
X152074666Y-105151180D01*
X152169904Y-105103561D01*
X152217523Y-105055942D01*
%TO.C,C16*%
X153855657Y-91593942D02*
X153903276Y-91641561D01*
X154046133Y-91689180D01*
X154141371Y-91689180D01*
X154284228Y-91641561D01*
X154379466Y-91546323D01*
X154427085Y-91451085D01*
X154474704Y-91260609D01*
X154474704Y-91117752D01*
X154427085Y-90927276D01*
X154379466Y-90832038D01*
X154284228Y-90736800D01*
X154141371Y-90689180D01*
X154046133Y-90689180D01*
X153903276Y-90736800D01*
X153855657Y-90784419D01*
X152903276Y-91689180D02*
X153474704Y-91689180D01*
X153188990Y-91689180D02*
X153188990Y-90689180D01*
X153284228Y-90832038D01*
X153379466Y-90927276D01*
X153474704Y-90974895D01*
X152046133Y-90689180D02*
X152236609Y-90689180D01*
X152331847Y-90736800D01*
X152379466Y-90784419D01*
X152474704Y-90927276D01*
X152522323Y-91117752D01*
X152522323Y-91498704D01*
X152474704Y-91593942D01*
X152427085Y-91641561D01*
X152331847Y-91689180D01*
X152141371Y-91689180D01*
X152046133Y-91641561D01*
X151998514Y-91593942D01*
X151950895Y-91498704D01*
X151950895Y-91260609D01*
X151998514Y-91165371D01*
X152046133Y-91117752D01*
X152141371Y-91070133D01*
X152331847Y-91070133D01*
X152427085Y-91117752D01*
X152474704Y-91165371D01*
X152522323Y-91260609D01*
%TO.C,C17*%
X146083257Y-92660742D02*
X146130876Y-92708361D01*
X146273733Y-92755980D01*
X146368971Y-92755980D01*
X146511828Y-92708361D01*
X146607066Y-92613123D01*
X146654685Y-92517885D01*
X146702304Y-92327409D01*
X146702304Y-92184552D01*
X146654685Y-91994076D01*
X146607066Y-91898838D01*
X146511828Y-91803600D01*
X146368971Y-91755980D01*
X146273733Y-91755980D01*
X146130876Y-91803600D01*
X146083257Y-91851219D01*
X145130876Y-92755980D02*
X145702304Y-92755980D01*
X145416590Y-92755980D02*
X145416590Y-91755980D01*
X145511828Y-91898838D01*
X145607066Y-91994076D01*
X145702304Y-92041695D01*
X144797542Y-91755980D02*
X144130876Y-91755980D01*
X144559447Y-92755980D01*
D11*
%TO.C,U1*%
X128440000Y-104760000D02*
X128440000Y-106710000D01*
X133560000Y-104760000D02*
X133560000Y-102810000D01*
X133560000Y-104760000D02*
X133560000Y-108210000D01*
X128440000Y-104760000D02*
X128440000Y-102810000D01*
%TO.C,L1*%
X127880000Y-109460000D02*
X127880000Y-108260000D01*
X126120000Y-108260000D02*
X126120000Y-109460000D01*
%TO.C,U2*%
X120440000Y-104760000D02*
X120440000Y-102810000D01*
X120440000Y-104760000D02*
X120440000Y-106710000D01*
X125560000Y-104760000D02*
X125560000Y-102810000D01*
X125560000Y-104760000D02*
X125560000Y-108210000D01*
%TO.C,D1*%
X148136400Y-106300000D02*
X153536400Y-106300000D01*
X148136400Y-109600000D02*
X148136400Y-106300000D01*
X148136400Y-109600000D02*
X153536400Y-109600000D01*
%TO.C,C1*%
X148140052Y-111075800D02*
X147617548Y-111075800D01*
X148140052Y-112545800D02*
X147617548Y-112545800D01*
%TO.C,U3*%
X154410000Y-96770000D02*
X153150000Y-96770000D01*
X147590000Y-100530000D02*
X147590000Y-96770000D01*
X147590000Y-96770000D02*
X148850000Y-96770000D01*
X154410000Y-102780000D02*
X154410000Y-96770000D01*
%TO.C,R1*%
X134024900Y-116670858D02*
X134024900Y-116196342D01*
X132979900Y-116670858D02*
X132979900Y-116196342D01*
%TO.C,R2*%
X127798300Y-115451658D02*
X127798300Y-114977142D01*
X128843300Y-115451658D02*
X128843300Y-114977142D01*
%TO.C,R3*%
X132737258Y-100349500D02*
X132262742Y-100349500D01*
X132737258Y-99304500D02*
X132262742Y-99304500D01*
%TO.C,R4*%
X131237258Y-109087500D02*
X130762742Y-109087500D01*
X131237258Y-110132500D02*
X130762742Y-110132500D01*
%TO.C,R5*%
X132977500Y-113597258D02*
X132977500Y-113122742D01*
X134022500Y-113597258D02*
X134022500Y-113122742D01*
%TO.C,R6*%
X127977500Y-112347258D02*
X127977500Y-111872742D01*
X129022500Y-112347258D02*
X129022500Y-111872742D01*
%TO.C,R7*%
X129737258Y-99304500D02*
X129262742Y-99304500D01*
X129737258Y-100349500D02*
X129262742Y-100349500D01*
%TO.C,R8*%
X126022500Y-111872742D02*
X126022500Y-112347258D01*
X124977500Y-111872742D02*
X124977500Y-112347258D01*
%TO.C,R9*%
X121022500Y-113122742D02*
X121022500Y-113597258D01*
X119977500Y-113122742D02*
X119977500Y-113597258D01*
%TO.C,R10*%
X124737258Y-100349500D02*
X124262742Y-100349500D01*
X124737258Y-99304500D02*
X124262742Y-99304500D01*
%TO.C,R11*%
X123237258Y-110132500D02*
X122762742Y-110132500D01*
X123237258Y-109087500D02*
X122762742Y-109087500D01*
%TO.C,R12*%
X121737258Y-99304500D02*
X121262742Y-99304500D01*
X121737258Y-100349500D02*
X121262742Y-100349500D01*
%TO.C,R13*%
X125156700Y-114977142D02*
X125156700Y-115451658D01*
X126201700Y-114977142D02*
X126201700Y-115451658D01*
%TO.C,R14*%
X121020100Y-116145542D02*
X121020100Y-116620058D01*
X119975100Y-116145542D02*
X119975100Y-116620058D01*
%TO.C,C2*%
X148004180Y-115216400D02*
X147723020Y-115216400D01*
X148004180Y-114196400D02*
X147723020Y-114196400D01*
%TO.C,C3*%
X135260000Y-101500580D02*
X135260000Y-101219420D01*
X134240000Y-101500580D02*
X134240000Y-101219420D01*
%TO.C,C4*%
X131240000Y-111969420D02*
X131240000Y-112250580D01*
X132260000Y-111969420D02*
X132260000Y-112250580D01*
%TO.C,C5*%
X132260000Y-97219420D02*
X132260000Y-97500580D01*
X131240000Y-97219420D02*
X131240000Y-97500580D01*
%TO.C,C6*%
X130760000Y-111969420D02*
X130760000Y-112250580D01*
X129740000Y-111969420D02*
X129740000Y-112250580D01*
%TO.C,C7*%
X130760000Y-97219420D02*
X130760000Y-97500580D01*
X129740000Y-97219420D02*
X129740000Y-97500580D01*
%TO.C,C8*%
X134010000Y-110219420D02*
X134010000Y-110500580D01*
X132990000Y-110219420D02*
X132990000Y-110500580D01*
%TO.C,C9*%
X121010000Y-110219420D02*
X121010000Y-110500580D01*
X119990000Y-110219420D02*
X119990000Y-110500580D01*
%TO.C,C10*%
X126140000Y-104569420D02*
X126140000Y-104850580D01*
X127160000Y-104569420D02*
X127160000Y-104850580D01*
%TO.C,C11*%
X124260000Y-111969420D02*
X124260000Y-112250580D01*
X123240000Y-111969420D02*
X123240000Y-112250580D01*
%TO.C,C12*%
X123240000Y-97219420D02*
X123240000Y-97500580D01*
X124260000Y-97219420D02*
X124260000Y-97500580D01*
%TO.C,C13*%
X122760000Y-111969420D02*
X122760000Y-112250580D01*
X121740000Y-111969420D02*
X121740000Y-112250580D01*
%TO.C,C14*%
X121740000Y-97219420D02*
X121740000Y-97500580D01*
X122760000Y-97219420D02*
X122760000Y-97500580D01*
%TO.C,C15*%
X149890580Y-105190000D02*
X149609420Y-105190000D01*
X149890580Y-104170000D02*
X149609420Y-104170000D01*
%TO.C,C16*%
X153515580Y-93395000D02*
X153234420Y-93395000D01*
X153515580Y-92375000D02*
X153234420Y-92375000D01*
%TO.C,C17*%
X148838748Y-93095000D02*
X149361252Y-93095000D01*
X148838748Y-91625000D02*
X149361252Y-91625000D01*
%TD*%
M02*
