  0
SECTION
  2
HEADER
  9
$ANGBASE
  50
0.0
  9
$ANGDIR
  70
1
  9
$MEASUREMENT
  70
0
  0
ENDSEC
  0
SECTION
  2
TABLES
  0
TABLE
  2
LTYPE
  70
4
  0
LTYPE
  5
40F
  2
CONTINUOUS
  70
0
  3
Solid line
  72
65
  73
0
  40
0.0
  0
LTYPE
  5
410
  2
DASHDOT
 70
0
  3
Dash Dot ____ _ ____ _
 72
65
 73
4
 40
2.0
 49
1.25
 49
-0.25
 49
0.25
 49
-0.25
  0
LTYPE
  5
411
  2
DASHED
 70
0
  3
Dashed __ __ __ __ __
 72
65
 73
2
 40
0.75
 49
0.5
 49
-0.25
  0
LTYPE
  5
43B
  2
DOTTED
 70
0
  3
Dotted .  .  .  .
 72
65
 73
2
 40
0.2
 49
0.0
 49
-0.2
  0
ENDTAB
  0
TABLE
  2
STYLE
  70
4
  0
STYLE
  2
KICAD
  70
0
  40
0
  41
1
  42
1
  50
0
  71
0
  3
isocp.shx
  0
STYLE
  2
KICADB
  70
0
  40
0
  41
1
  42
1
  50
0
  71
0
  3
isocp.shx
  0
STYLE
  2
KICADI
  70
0
  40
0
  41
1
  42
1
  50
15
  71
0
  3
isocp.shx
  0
STYLE
  2
KICADBI
  70
0
  40
0
  41
1
  42
1
  50
15
  71
0
  3
isocp.shx
  0
ENDTAB
  0
TABLE
  2
LAYER
  70
1
  0
LAYER
  2
BLACK
  70
0
  62
7
  6
CONTINUOUS
  0
ENDTAB
  0
ENDSEC
  0
SECTION
  2
ENTITIES
0
LINE
8
BLACK
6
CONTINUOUS
10
5.14105
20
-5.11962
11
5.14047
21
-5.11823
0
LINE
8
BLACK
6
CONTINUOUS
10
5.14047
20
-5.11823
11
5.14047
21
-4.91323
0
LINE
8
BLACK
6
CONTINUOUS
10
5.14047
20
-4.91323
11
5.14105
21
-4.91184
0
LINE
8
BLACK
6
CONTINUOUS
10
5.14105
20
-4.91184
11
5.14244
21
-4.91126
0
LINE
8
BLACK
6
CONTINUOUS
10
5.14244
20
-4.91126
11
5.80244
21
-4.91126
0
LINE
8
BLACK
6
CONTINUOUS
10
5.80244
20
-4.91126
11
5.80383
21
-4.91184
0
LINE
8
BLACK
6
CONTINUOUS
10
5.80383
20
-4.91184
11
5.80441
21
-4.91323
0
LINE
8
BLACK
6
CONTINUOUS
10
5.80441
20
-4.91323
11
5.80441
21
-5.11823
0
LINE
8
BLACK
6
CONTINUOUS
10
5.80441
20
-5.11823
11
5.80383
21
-5.11962
0
LINE
8
BLACK
6
CONTINUOUS
10
5.80383
20
-5.11962
11
5.80244
21
-5.1202
0
LINE
8
BLACK
6
CONTINUOUS
10
5.80244
20
-5.1202
11
5.14244
21
-5.1202
0
LINE
8
BLACK
6
CONTINUOUS
10
5.14244
20
-5.1202
11
5.14105
21
-5.11962
0
LINE
8
BLACK
6
CONTINUOUS
10
5.14862
20
-4.92028
11
5.14862
21
-5.10925
0
LINE
8
BLACK
6
CONTINUOUS
10
5.14862
20
-5.10925
11
5.79528
21
-5.10925
0
LINE
8
BLACK
6
CONTINUOUS
10
5.79528
20
-5.10925
11
5.79528
21
-4.92028
0
LINE
8
BLACK
6
CONTINUOUS
10
5.79528
20
-4.92028
11
5.14862
21
-4.92028
0
LINE
8
BLACK
6
CONTINUOUS
10
5.50679
20
-4.98081
11
5.50812
21
-4.98108
0
LINE
8
BLACK
6
CONTINUOUS
10
5.50812
20
-4.98108
11
5.51375
21
-4.98389
0
LINE
8
BLACK
6
CONTINUOUS
10
5.51375
20
-4.98389
11
5.51446
21
-4.98452
0
LINE
8
BLACK
6
CONTINUOUS
10
5.51446
20
-4.98452
11
5.51528
21
-4.985
0
LINE
8
BLACK
6
CONTINUOUS
10
5.51528
20
-4.985
11
5.5181
21
-4.98781
0
LINE
8
BLACK
6
CONTINUOUS
10
5.5181
20
-4.98781
11
5.51857
21
-4.98863
0
LINE
8
BLACK
6
CONTINUOUS
10
5.51857
20
-4.98863
11
5.5192
21
-4.98934
0
LINE
8
BLACK
6
CONTINUOUS
10
5.5192
20
-4.98934
11
5.52201
21
-4.99497
0
LINE
8
BLACK
6
CONTINUOUS
10
5.52201
20
-4.99497
11
5.52229
21
-4.9963
0
LINE
8
BLACK
6
CONTINUOUS
10
5.52229
20
-4.9963
11
5.52264
21
-4.99761
0
LINE
8
BLACK
6
CONTINUOUS
10
5.52264
20
-4.99761
11
5.52264
21
-5.00323
0
LINE
8
BLACK
6
CONTINUOUS
10
5.52264
20
-5.00323
11
5.52239
21
-5.00415
0
LINE
8
BLACK
6
CONTINUOUS
10
5.52239
20
-5.00415
11
5.52233
21
-5.0051
0
LINE
8
BLACK
6
CONTINUOUS
10
5.52233
20
-5.0051
11
5.51952
21
-5.01354
0
LINE
8
BLACK
6
CONTINUOUS
10
5.51952
20
-5.01354
11
5.51877
21
-5.01467
0
LINE
8
BLACK
6
CONTINUOUS
10
5.51877
20
-5.01467
11
5.5181
21
-5.01585
0
LINE
8
BLACK
6
CONTINUOUS
10
5.5181
20
-5.01585
11
5.49443
21
-5.03951
0
LINE
8
BLACK
6
CONTINUOUS
10
5.49443
20
-5.03951
11
5.51673
21
-5.03951
0
LINE
8
BLACK
6
CONTINUOUS
10
5.51673
20
-5.03951
11
5.51969
21
-5.0403
0
LINE
8
BLACK
6
CONTINUOUS
10
5.51969
20
-5.0403
11
5.52185
21
-5.04246
0
LINE
8
BLACK
6
CONTINUOUS
10
5.52185
20
-5.04246
11
5.52264
21
-5.04542
0
LINE
8
BLACK
6
CONTINUOUS
10
5.52264
20
-5.04542
11
5.52185
21
-5.04837
0
LINE
8
BLACK
6
CONTINUOUS
10
5.52185
20
-5.04837
11
5.51969
21
-5.05053
0
LINE
8
BLACK
6
CONTINUOUS
10
5.51969
20
-5.05053
11
5.51673
21
-5.05132
0
LINE
8
BLACK
6
CONTINUOUS
10
5.51673
20
-5.05132
11
5.48017
21
-5.05132
0
LINE
8
BLACK
6
CONTINUOUS
10
5.48017
20
-5.05132
11
5.47942
21
-5.05112
0
LINE
8
BLACK
6
CONTINUOUS
10
5.47942
20
-5.05112
11
5.47865
21
-5.05112
0
LINE
8
BLACK
6
CONTINUOUS
10
5.47865
20
-5.05112
11
5.47797
21
-5.05073
0
LINE
8
BLACK
6
CONTINUOUS
10
5.47797
20
-5.05073
11
5.47722
21
-5.05053
0
LINE
8
BLACK
6
CONTINUOUS
10
5.47722
20
-5.05053
11
5.47667
21
-5.04998
0
LINE
8
BLACK
6
CONTINUOUS
10
5.47667
20
-5.04998
11
5.476
21
-5.04959
0
LINE
8
BLACK
6
CONTINUOUS
10
5.476
20
-5.04959
11
5.47561
21
-5.04892
0
LINE
8
BLACK
6
CONTINUOUS
10
5.47561
20
-5.04892
11
5.47506
21
-5.04837
0
LINE
8
BLACK
6
CONTINUOUS
10
5.47506
20
-5.04837
11
5.47486
21
-5.04762
0
LINE
8
BLACK
6
CONTINUOUS
10
5.47486
20
-5.04762
11
5.47447
21
-5.04694
0
LINE
8
BLACK
6
CONTINUOUS
10
5.47447
20
-5.04694
11
5.47447
21
-5.04617
0
LINE
8
BLACK
6
CONTINUOUS
10
5.47447
20
-5.04617
11
5.47427
21
-5.04542
0
LINE
8
BLACK
6
CONTINUOUS
10
5.47427
20
-5.04542
11
5.47447
21
-5.04467
0
LINE
8
BLACK
6
CONTINUOUS
10
5.47447
20
-5.04467
11
5.47447
21
-5.04389
0
LINE
8
BLACK
6
CONTINUOUS
10
5.47447
20
-5.04389
11
5.47486
21
-5.04321
0
LINE
8
BLACK
6
CONTINUOUS
10
5.47486
20
-5.04321
11
5.47506
21
-5.04246
0
LINE
8
BLACK
6
CONTINUOUS
10
5.47506
20
-5.04246
11
5.47561
21
-5.04191
0
LINE
8
BLACK
6
CONTINUOUS
10
5.47561
20
-5.04191
11
5.476
21
-5.04124
0
LINE
8
BLACK
6
CONTINUOUS
10
5.476
20
-5.04124
11
5.50876
21
-5.00848
0
LINE
8
BLACK
6
CONTINUOUS
10
5.50876
20
-5.00848
11
5.51083
21
-5.00228
0
LINE
8
BLACK
6
CONTINUOUS
10
5.51083
20
-5.00228
11
5.51083
21
-4.999
0
LINE
8
BLACK
6
CONTINUOUS
10
5.51083
20
-4.999
11
5.50907
21
-4.99548
0
LINE
8
BLACK
6
CONTINUOUS
10
5.50907
20
-4.99548
11
5.50761
21
-4.99403
0
LINE
8
BLACK
6
CONTINUOUS
10
5.50761
20
-4.99403
11
5.50409
21
-4.99227
0
LINE
8
BLACK
6
CONTINUOUS
10
5.50409
20
-4.99227
11
5.49282
21
-4.99227
0
LINE
8
BLACK
6
CONTINUOUS
10
5.49282
20
-4.99227
11
5.4893
21
-4.99403
0
LINE
8
BLACK
6
CONTINUOUS
10
5.4893
20
-4.99403
11
5.48716
21
-4.99616
0
LINE
8
BLACK
6
CONTINUOUS
10
5.48716
20
-4.99616
11
5.48451
21
-4.99769
0
LINE
8
BLACK
6
CONTINUOUS
10
5.48451
20
-4.99769
11
5.48146
21
-4.99769
0
LINE
8
BLACK
6
CONTINUOUS
10
5.48146
20
-4.99769
11
5.47881
21
-4.99616
0
LINE
8
BLACK
6
CONTINUOUS
10
5.47881
20
-4.99616
11
5.47728
21
-4.99351
0
LINE
8
BLACK
6
CONTINUOUS
10
5.47728
20
-4.99351
11
5.47728
21
-4.99046
0
LINE
8
BLACK
6
CONTINUOUS
10
5.47728
20
-4.99046
11
5.47881
21
-4.98781
0
LINE
8
BLACK
6
CONTINUOUS
10
5.47881
20
-4.98781
11
5.48162
21
-4.985
0
LINE
8
BLACK
6
CONTINUOUS
10
5.48162
20
-4.985
11
5.48245
21
-4.98452
0
LINE
8
BLACK
6
CONTINUOUS
10
5.48245
20
-4.98452
11
5.48316
21
-4.98389
0
LINE
8
BLACK
6
CONTINUOUS
10
5.48316
20
-4.98389
11
5.48878
21
-4.98108
0
LINE
8
BLACK
6
CONTINUOUS
10
5.48878
20
-4.98108
11
5.49011
21
-4.98081
0
LINE
8
BLACK
6
CONTINUOUS
10
5.49011
20
-4.98081
11
5.49142
21
-4.98046
0
LINE
8
BLACK
6
CONTINUOUS
10
5.49142
20
-4.98046
11
5.50548
21
-4.98046
0
LINE
8
BLACK
6
CONTINUOUS
10
5.50548
20
-4.98046
11
5.50679
21
-4.98081
0
LINE
8
BLACK
6
CONTINUOUS
10
5.46063
20
-4.98125
11
5.46279
21
-4.98341
0
LINE
8
BLACK
6
CONTINUOUS
10
5.46279
20
-4.98341
11
5.46358
21
-4.98636
0
LINE
8
BLACK
6
CONTINUOUS
10
5.46358
20
-4.98636
11
5.46358
21
-5.02854
0
LINE
8
BLACK
6
CONTINUOUS
10
5.46358
20
-5.02854
11
5.46334
21
-5.02946
0
LINE
8
BLACK
6
CONTINUOUS
10
5.46334
20
-5.02946
11
5.46328
21
-5.03041
0
LINE
8
BLACK
6
CONTINUOUS
10
5.46328
20
-5.03041
11
5.46047
21
-5.03885
0
LINE
8
BLACK
6
CONTINUOUS
10
5.46047
20
-5.03885
11
5.45972
21
-5.03998
0
LINE
8
BLACK
6
CONTINUOUS
10
5.45972
20
-5.03998
11
5.45904
21
-5.04116
0
LINE
8
BLACK
6
CONTINUOUS
10
5.45904
20
-5.04116
11
5.45342
21
-5.04678
0
LINE
8
BLACK
6
CONTINUOUS
10
5.45342
20
-5.04678
11
5.45224
21
-5.04746
0
LINE
8
BLACK
6
CONTINUOUS
10
5.45224
20
-5.04746
11
5.45111
21
-5.04821
0
LINE
8
BLACK
6
CONTINUOUS
10
5.45111
20
-5.04821
11
5.44267
21
-5.05102
0
LINE
8
BLACK
6
CONTINUOUS
10
5.44267
20
-5.05102
11
5.44172
21
-5.05108
0
LINE
8
BLACK
6
CONTINUOUS
10
5.44172
20
-5.05108
11
5.4408
21
-5.05132
0
LINE
8
BLACK
6
CONTINUOUS
10
5.4408
20
-5.05132
11
5.43518
21
-5.05132
0
LINE
8
BLACK
6
CONTINUOUS
10
5.43518
20
-5.05132
11
5.43223
21
-5.05053
0
LINE
8
BLACK
6
CONTINUOUS
10
5.43223
20
-5.05053
11
5.43007
21
-5.04837
0
LINE
8
BLACK
6
CONTINUOUS
10
5.43007
20
-5.04837
11
5.42927
21
-5.04542
0
LINE
8
BLACK
6
CONTINUOUS
10
5.42927
20
-5.04542
11
5.43007
21
-5.04246
0
LINE
8
BLACK
6
CONTINUOUS
10
5.43007
20
-5.04246
11
5.43223
21
-5.0403
0
LINE
8
BLACK
6
CONTINUOUS
10
5.43223
20
-5.0403
11
5.43518
21
-5.03951
0
LINE
8
BLACK
6
CONTINUOUS
10
5.43518
20
-5.03951
11
5.43985
21
-5.03951
0
LINE
8
BLACK
6
CONTINUOUS
10
5.43985
20
-5.03951
11
5.44605
21
-5.03744
0
LINE
8
BLACK
6
CONTINUOUS
10
5.44605
20
-5.03744
11
5.4497
21
-5.03379
0
LINE
8
BLACK
6
CONTINUOUS
10
5.4497
20
-5.03379
11
5.45177
21
-5.02759
0
LINE
8
BLACK
6
CONTINUOUS
10
5.45177
20
-5.02759
11
5.45177
21
-4.98636
0
LINE
8
BLACK
6
CONTINUOUS
10
5.45177
20
-4.98636
11
5.45256
21
-4.98341
0
LINE
8
BLACK
6
CONTINUOUS
10
5.45256
20
-4.98341
11
5.45472
21
-4.98125
0
LINE
8
BLACK
6
CONTINUOUS
10
5.45472
20
-4.98125
11
5.45768
21
-4.98046
0
LINE
8
BLACK
6
CONTINUOUS
10
5.45768
20
-4.98046
11
5.46063
21
-4.98125
0
LINE
8
BLACK
6
CONTINUOUS
10
5.46158
20
-4.93477
11
5.46227
21
-4.93667
0
LINE
8
BLACK
6
CONTINUOUS
10
5.46227
20
-4.93667
11
5.46227
21
-4.96479
0
LINE
8
BLACK
6
CONTINUOUS
10
5.46227
20
-4.96479
11
5.46212
21
-4.96566
0
LINE
8
BLACK
6
CONTINUOUS
10
5.46212
20
-4.96566
11
5.46212
21
-4.96572
0
LINE
8
BLACK
6
CONTINUOUS
10
5.46212
20
-4.96572
11
5.46024
21
-4.97135
0
LINE
8
BLACK
6
CONTINUOUS
10
5.46024
20
-4.97135
11
5.45976
21
-4.97225
0
LINE
8
BLACK
6
CONTINUOUS
10
5.45976
20
-4.97225
11
5.45961
21
-4.97234
0
LINE
8
BLACK
6
CONTINUOUS
10
5.45961
20
-4.97234
11
5.45953
21
-4.9725
0
LINE
8
BLACK
6
CONTINUOUS
10
5.45953
20
-4.9725
11
5.45578
21
-4.97625
0
LINE
8
BLACK
6
CONTINUOUS
10
5.45578
20
-4.97625
11
5.45494
21
-4.97684
0
LINE
8
BLACK
6
CONTINUOUS
10
5.45494
20
-4.97684
11
5.45477
21
-4.97686
0
LINE
8
BLACK
6
CONTINUOUS
10
5.45477
20
-4.97686
11
5.45463
21
-4.97697
0
LINE
8
BLACK
6
CONTINUOUS
10
5.45463
20
-4.97697
11
5.449
21
-4.97884
0
LINE
8
BLACK
6
CONTINUOUS
10
5.449
20
-4.97884
11
5.44813
21
-4.97897
0
LINE
8
BLACK
6
CONTINUOUS
10
5.44813
20
-4.97897
11
5.44807
21
-4.97899
0
LINE
8
BLACK
6
CONTINUOUS
10
5.44807
20
-4.97899
11
5.44432
21
-4.97899
0
LINE
8
BLACK
6
CONTINUOUS
10
5.44432
20
-4.97899
11
5.44331
21
-4.97881
0
LINE
8
BLACK
6
CONTINUOUS
10
5.44331
20
-4.97881
11
5.44176
21
-4.97751
0
LINE
8
BLACK
6
CONTINUOUS
10
5.44176
20
-4.97751
11
5.44141
21
-4.97553
0
LINE
8
BLACK
6
CONTINUOUS
10
5.44141
20
-4.97553
11
5.44242
21
-4.97378
0
LINE
8
BLACK
6
CONTINUOUS
10
5.44242
20
-4.97378
11
5.44432
21
-4.97309
0
LINE
8
BLACK
6
CONTINUOUS
10
5.44432
20
-4.97309
11
5.44759
21
-4.97309
0
LINE
8
BLACK
6
CONTINUOUS
10
5.44759
20
-4.97309
11
5.4521
21
-4.97158
0
LINE
8
BLACK
6
CONTINUOUS
10
5.4521
20
-4.97158
11
5.45486
21
-4.96882
0
LINE
8
BLACK
6
CONTINUOUS
10
5.45486
20
-4.96882
11
5.45636
21
-4.96431
0
LINE
8
BLACK
6
CONTINUOUS
10
5.45636
20
-4.96431
11
5.45636
21
-4.93667
0
LINE
8
BLACK
6
CONTINUOUS
10
5.45636
20
-4.93667
11
5.45654
21
-4.93566
0
LINE
8
BLACK
6
CONTINUOUS
10
5.45654
20
-4.93566
11
5.45784
21
-4.93411
0
LINE
8
BLACK
6
CONTINUOUS
10
5.45784
20
-4.93411
11
5.45983
21
-4.93376
0
LINE
8
BLACK
6
CONTINUOUS
10
5.45983
20
-4.93376
11
5.46158
21
-4.93477
0
LINE
8
BLACK
6
CONTINUOUS
10
5.4922
20
-4.93389
11
5.49233
21
-4.93401
0
LINE
8
BLACK
6
CONTINUOUS
10
5.49233
20
-4.93401
11
5.49251
21
-4.93403
0
LINE
8
BLACK
6
CONTINUOUS
10
5.49251
20
-4.93403
11
5.49626
21
-4.9359
0
LINE
8
BLACK
6
CONTINUOUS
10
5.49626
20
-4.9359
11
5.49697
21
-4.93643
0
LINE
8
BLACK
6
CONTINUOUS
10
5.49697
20
-4.93643
11
5.49703
21
-4.93646
0
LINE
8
BLACK
6
CONTINUOUS
10
5.49703
20
-4.93646
11
5.4989
21
-4.93833
0
LINE
8
BLACK
6
CONTINUOUS
10
5.4989
20
-4.93833
11
5.49941
21
-4.93905
0
LINE
8
BLACK
6
CONTINUOUS
10
5.49941
20
-4.93905
11
5.49945
21
-4.9391
0
LINE
8
BLACK
6
CONTINUOUS
10
5.49945
20
-4.9391
11
5.50133
21
-4.94285
0
LINE
8
BLACK
6
CONTINUOUS
10
5.50133
20
-4.94285
11
5.50162
21
-4.94383
0
LINE
8
BLACK
6
CONTINUOUS
10
5.50162
20
-4.94383
11
5.50158
21
-4.944
0
LINE
8
BLACK
6
CONTINUOUS
10
5.50158
20
-4.944
11
5.50164
21
-4.94417
0
LINE
8
BLACK
6
CONTINUOUS
10
5.50164
20
-4.94417
11
5.50164
21
-4.94792
0
LINE
8
BLACK
6
CONTINUOUS
10
5.50164
20
-4.94792
11
5.50149
21
-4.94879
0
LINE
8
BLACK
6
CONTINUOUS
10
5.50149
20
-4.94879
11
5.50149
21
-4.94885
0
LINE
8
BLACK
6
CONTINUOUS
10
5.50149
20
-4.94885
11
5.49961
21
-4.95448
0
LINE
8
BLACK
6
CONTINUOUS
10
5.49961
20
-4.95448
11
5.49913
21
-4.95538
0
LINE
8
BLACK
6
CONTINUOUS
10
5.49913
20
-4.95538
11
5.49898
21
-4.95547
0
LINE
8
BLACK
6
CONTINUOUS
10
5.49898
20
-4.95547
11
5.4989
21
-4.95563
0
LINE
8
BLACK
6
CONTINUOUS
10
5.4989
20
-4.95563
11
5.48144
21
-4.97309
0
LINE
8
BLACK
6
CONTINUOUS
10
5.48144
20
-4.97309
11
5.49869
21
-4.97309
0
LINE
8
BLACK
6
CONTINUOUS
10
5.49869
20
-4.97309
11
5.4997
21
-4.97326
0
LINE
8
BLACK
6
CONTINUOUS
10
5.4997
20
-4.97326
11
5.50124
21
-4.97456
0
LINE
8
BLACK
6
CONTINUOUS
10
5.50124
20
-4.97456
11
5.5016
21
-4.97655
0
LINE
8
BLACK
6
CONTINUOUS
10
5.5016
20
-4.97655
11
5.50059
21
-4.9783
0
LINE
8
BLACK
6
CONTINUOUS
10
5.50059
20
-4.9783
11
5.49869
21
-4.97899
0
LINE
8
BLACK
6
CONTINUOUS
10
5.49869
20
-4.97899
11
5.47432
21
-4.97899
0
LINE
8
BLACK
6
CONTINUOUS
10
5.47432
20
-4.97899
11
5.47368
21
-4.97888
0
LINE
8
BLACK
6
CONTINUOUS
10
5.47368
20
-4.97888
11
5.47355
21
-4.97889
0
LINE
8
BLACK
6
CONTINUOUS
10
5.47355
20
-4.97889
11
5.47349
21
-4.97885
0
LINE
8
BLACK
6
CONTINUOUS
10
5.47349
20
-4.97885
11
5.47331
21
-4.97881
0
LINE
8
BLACK
6
CONTINUOUS
10
5.47331
20
-4.97881
11
5.47262
21
-4.97824
0
LINE
8
BLACK
6
CONTINUOUS
10
5.47262
20
-4.97824
11
5.4719
21
-4.97773
0
LINE
8
BLACK
6
CONTINUOUS
10
5.4719
20
-4.97773
11
5.47186
21
-4.9776
0
LINE
8
BLACK
6
CONTINUOUS
10
5.47186
20
-4.9776
11
5.47176
21
-4.97751
0
LINE
8
BLACK
6
CONTINUOUS
10
5.47176
20
-4.97751
11
5.4716
21
-4.97664
0
LINE
8
BLACK
6
CONTINUOUS
10
5.4716
20
-4.97664
11
5.47137
21
-4.97578
0
LINE
8
BLACK
6
CONTINUOUS
10
5.47137
20
-4.97578
11
5.47143
21
-4.97566
0
LINE
8
BLACK
6
CONTINUOUS
10
5.47143
20
-4.97566
11
5.47141
21
-4.97553
0
LINE
8
BLACK
6
CONTINUOUS
10
5.47141
20
-4.97553
11
5.47185
21
-4.97476
0
LINE
8
BLACK
6
CONTINUOUS
10
5.47185
20
-4.97476
11
5.47223
21
-4.97395
0
LINE
8
BLACK
6
CONTINUOUS
10
5.47223
20
-4.97395
11
5.49423
21
-4.95195
0
LINE
8
BLACK
6
CONTINUOUS
10
5.49423
20
-4.95195
11
5.49573
21
-4.94744
0
LINE
8
BLACK
6
CONTINUOUS
10
5.49573
20
-4.94744
11
5.49573
21
-4.94486
0
LINE
8
BLACK
6
CONTINUOUS
10
5.49573
20
-4.94486
11
5.49439
21
-4.94217
0
LINE
8
BLACK
6
CONTINUOUS
10
5.49439
20
-4.94217
11
5.49319
21
-4.94097
0
LINE
8
BLACK
6
CONTINUOUS
10
5.49319
20
-4.94097
11
5.49049
21
-4.93962
0
LINE
8
BLACK
6
CONTINUOUS
10
5.49049
20
-4.93962
11
5.48251
21
-4.93962
0
LINE
8
BLACK
6
CONTINUOUS
10
5.48251
20
-4.93962
11
5.47981
21
-4.94097
0
LINE
8
BLACK
6
CONTINUOUS
10
5.47981
20
-4.94097
11
5.47828
21
-4.94251
0
LINE
8
BLACK
6
CONTINUOUS
10
5.47828
20
-4.94251
11
5.47744
21
-4.94309
0
LINE
8
BLACK
6
CONTINUOUS
10
5.47744
20
-4.94309
11
5.47543
21
-4.94327
0
LINE
8
BLACK
6
CONTINUOUS
10
5.47543
20
-4.94327
11
5.47377
21
-4.94211
0
LINE
8
BLACK
6
CONTINUOUS
10
5.47377
20
-4.94211
11
5.47325
21
-4.94016
0
LINE
8
BLACK
6
CONTINUOUS
10
5.47325
20
-4.94016
11
5.4741
21
-4.93833
0
LINE
8
BLACK
6
CONTINUOUS
10
5.4741
20
-4.93833
11
5.47598
21
-4.93646
0
LINE
8
BLACK
6
CONTINUOUS
10
5.47598
20
-4.93646
11
5.4767
21
-4.93595
0
LINE
8
BLACK
6
CONTINUOUS
10
5.4767
20
-4.93595
11
5.47674
21
-4.9359
0
LINE
8
BLACK
6
CONTINUOUS
10
5.47674
20
-4.9359
11
5.48049
21
-4.93403
0
LINE
8
BLACK
6
CONTINUOUS
10
5.48049
20
-4.93403
11
5.48148
21
-4.93374
0
LINE
8
BLACK
6
CONTINUOUS
10
5.48148
20
-4.93374
11
5.48165
21
-4.93378
0
LINE
8
BLACK
6
CONTINUOUS
10
5.48165
20
-4.93378
11
5.48181
21
-4.93372
0
LINE
8
BLACK
6
CONTINUOUS
10
5.48181
20
-4.93372
11
5.49119
21
-4.93372
0
LINE
8
BLACK
6
CONTINUOUS
10
5.49119
20
-4.93372
11
5.4922
21
-4.93389
0
LINE
8
BLACK
6
CONTINUOUS
10
4.19459
20
-5.11962
11
4.19402
21
-5.11823
0
LINE
8
BLACK
6
CONTINUOUS
10
4.19402
20
-5.11823
11
4.19402
21
-4.91323
0
LINE
8
BLACK
6
CONTINUOUS
10
4.19402
20
-4.91323
11
4.19459
21
-4.91184
0
LINE
8
BLACK
6
CONTINUOUS
10
4.19459
20
-4.91184
11
4.19598
21
-4.91126
0
LINE
8
BLACK
6
CONTINUOUS
10
4.19598
20
-4.91126
11
4.85598
21
-4.91126
0
LINE
8
BLACK
6
CONTINUOUS
10
4.85598
20
-4.91126
11
4.85738
21
-4.91184
0
LINE
8
BLACK
6
CONTINUOUS
10
4.85738
20
-4.91184
11
4.85795
21
-4.91323
0
LINE
8
BLACK
6
CONTINUOUS
10
4.85795
20
-4.91323
11
4.85795
21
-5.11823
0
LINE
8
BLACK
6
CONTINUOUS
10
4.85795
20
-5.11823
11
4.85738
21
-5.11962
0
LINE
8
BLACK
6
CONTINUOUS
10
4.85738
20
-5.11962
11
4.85598
21
-5.1202
0
LINE
8
BLACK
6
CONTINUOUS
10
4.85598
20
-5.1202
11
4.19598
21
-5.1202
0
LINE
8
BLACK
6
CONTINUOUS
10
4.19598
20
-5.1202
11
4.19459
21
-5.11962
0
LINE
8
BLACK
6
CONTINUOUS
10
4.85394
20
-5.11595
11
4.85335
21
-5.11614
0
LINE
8
BLACK
6
CONTINUOUS
10
4.85335
20
-5.11614
11
4.19882
21
-5.11614
0
LINE
8
BLACK
6
CONTINUOUS
10
4.19882
20
-5.11614
11
4.19823
21
-5.11595
0
LINE
8
BLACK
6
CONTINUOUS
10
4.19823
20
-5.11595
11
4.19795
21
-5.11595
0
LINE
8
BLACK
6
CONTINUOUS
10
4.19795
20
-5.11595
11
4.19795
21
-5.11626
0
LINE
8
BLACK
6
CONTINUOUS
10
4.19795
20
-5.11626
11
4.85402
21
-5.11626
0
LINE
8
BLACK
6
CONTINUOUS
10
4.85402
20
-5.11626
11
4.85402
21
-5.11595
0
LINE
8
BLACK
6
CONTINUOUS
10
4.85402
20
-5.11595
11
4.85394
21
-5.11595
0
LINE
8
BLACK
6
CONTINUOUS
10
4.20276
20
-4.91929
11
4.20276
21
-5.10827
0
LINE
8
BLACK
6
CONTINUOUS
10
4.20276
20
-5.10827
11
4.84941
21
-5.10827
0
LINE
8
BLACK
6
CONTINUOUS
10
4.84941
20
-5.10827
11
4.84941
21
-4.91929
0
LINE
8
BLACK
6
CONTINUOUS
10
4.84941
20
-4.91929
11
4.20276
21
-4.91929
0
LINE
8
BLACK
6
CONTINUOUS
10
4.51512
20
-4.93477
11
4.51581
21
-4.93667
0
LINE
8
BLACK
6
CONTINUOUS
10
4.51581
20
-4.93667
11
4.51581
21
-4.96479
0
LINE
8
BLACK
6
CONTINUOUS
10
4.51581
20
-4.96479
11
4.51566
21
-4.96566
0
LINE
8
BLACK
6
CONTINUOUS
10
4.51566
20
-4.96566
11
4.51566
21
-4.96572
0
LINE
8
BLACK
6
CONTINUOUS
10
4.51566
20
-4.96572
11
4.51379
21
-4.97135
0
LINE
8
BLACK
6
CONTINUOUS
10
4.51379
20
-4.97135
11
4.5133
21
-4.97225
0
LINE
8
BLACK
6
CONTINUOUS
10
4.5133
20
-4.97225
11
4.51315
21
-4.97234
0
LINE
8
BLACK
6
CONTINUOUS
10
4.51315
20
-4.97234
11
4.51307
21
-4.9725
0
LINE
8
BLACK
6
CONTINUOUS
10
4.51307
20
-4.9725
11
4.51098
21
-4.97459
0
LINE
8
BLACK
6
CONTINUOUS
10
4.51098
20
-4.97459
11
4.51378
21
-4.97534
0
LINE
8
BLACK
6
CONTINUOUS
10
4.51378
20
-4.97534
11
4.51594
21
-4.9775
0
LINE
8
BLACK
6
CONTINUOUS
10
4.51594
20
-4.9775
11
4.51673
21
-4.98046
0
LINE
8
BLACK
6
CONTINUOUS
10
4.51673
20
-4.98046
11
4.51673
21
-5.02264
0
LINE
8
BLACK
6
CONTINUOUS
10
4.51673
20
-5.02264
11
4.51649
21
-5.02356
0
LINE
8
BLACK
6
CONTINUOUS
10
4.51649
20
-5.02356
11
4.51643
21
-5.02451
0
LINE
8
BLACK
6
CONTINUOUS
10
4.51643
20
-5.02451
11
4.51362
21
-5.03294
0
LINE
8
BLACK
6
CONTINUOUS
10
4.51362
20
-5.03294
11
4.51287
21
-5.03407
0
LINE
8
BLACK
6
CONTINUOUS
10
4.51287
20
-5.03407
11
4.51219
21
-5.03525
0
LINE
8
BLACK
6
CONTINUOUS
10
4.51219
20
-5.03525
11
4.50657
21
-5.04087
0
LINE
8
BLACK
6
CONTINUOUS
10
4.50657
20
-5.04087
11
4.50539
21
-5.04155
0
LINE
8
BLACK
6
CONTINUOUS
10
4.50539
20
-5.04155
11
4.50426
21
-5.0423
0
LINE
8
BLACK
6
CONTINUOUS
10
4.50426
20
-5.0423
11
4.49582
21
-5.04511
0
LINE
8
BLACK
6
CONTINUOUS
10
4.49582
20
-5.04511
11
4.49487
21
-5.04517
0
LINE
8
BLACK
6
CONTINUOUS
10
4.49487
20
-5.04517
11
4.49395
21
-5.04542
0
LINE
8
BLACK
6
CONTINUOUS
10
4.49395
20
-5.04542
11
4.48833
21
-5.04542
0
LINE
8
BLACK
6
CONTINUOUS
10
4.48833
20
-5.04542
11
4.48538
21
-5.04462
0
LINE
8
BLACK
6
CONTINUOUS
10
4.48538
20
-5.04462
11
4.48322
21
-5.04246
0
LINE
8
BLACK
6
CONTINUOUS
10
4.48322
20
-5.04246
11
4.48242
21
-5.03951
0
LINE
8
BLACK
6
CONTINUOUS
10
4.48242
20
-5.03951
11
4.48322
21
-5.03656
0
LINE
8
BLACK
6
CONTINUOUS
10
4.48322
20
-5.03656
11
4.48538
21
-5.0344
0
LINE
8
BLACK
6
CONTINUOUS
10
4.48538
20
-5.0344
11
4.48833
21
-5.03361
0
LINE
8
BLACK
6
CONTINUOUS
10
4.48833
20
-5.03361
11
4.493
21
-5.03361
0
LINE
8
BLACK
6
CONTINUOUS
10
4.493
20
-5.03361
11
4.4992
21
-5.03154
0
LINE
8
BLACK
6
CONTINUOUS
10
4.4992
20
-5.03154
11
4.50285
21
-5.02788
0
LINE
8
BLACK
6
CONTINUOUS
10
4.50285
20
-5.02788
11
4.50492
21
-5.02168
0
LINE
8
BLACK
6
CONTINUOUS
10
4.50492
20
-5.02168
11
4.50492
21
-4.98046
0
LINE
8
BLACK
6
CONTINUOUS
10
4.50492
20
-4.98046
11
4.50563
21
-4.97781
0
LINE
8
BLACK
6
CONTINUOUS
10
4.50563
20
-4.97781
11
4.50255
21
-4.97884
0
LINE
8
BLACK
6
CONTINUOUS
10
4.50255
20
-4.97884
11
4.50167
21
-4.97897
0
LINE
8
BLACK
6
CONTINUOUS
10
4.50167
20
-4.97897
11
4.50161
21
-4.97899
0
LINE
8
BLACK
6
CONTINUOUS
10
4.50161
20
-4.97899
11
4.49786
21
-4.97899
0
LINE
8
BLACK
6
CONTINUOUS
10
4.49786
20
-4.97899
11
4.49685
21
-4.97881
0
LINE
8
BLACK
6
CONTINUOUS
10
4.49685
20
-4.97881
11
4.49531
21
-4.97751
0
LINE
8
BLACK
6
CONTINUOUS
10
4.49531
20
-4.97751
11
4.49495
21
-4.97553
0
LINE
8
BLACK
6
CONTINUOUS
10
4.49495
20
-4.97553
11
4.49596
21
-4.97378
0
LINE
8
BLACK
6
CONTINUOUS
10
4.49596
20
-4.97378
11
4.49786
21
-4.97309
0
LINE
8
BLACK
6
CONTINUOUS
10
4.49786
20
-4.97309
11
4.50113
21
-4.97309
0
LINE
8
BLACK
6
CONTINUOUS
10
4.50113
20
-4.97309
11
4.50564
21
-4.97158
0
LINE
8
BLACK
6
CONTINUOUS
10
4.50564
20
-4.97158
11
4.50841
21
-4.96882
0
LINE
8
BLACK
6
CONTINUOUS
10
4.50841
20
-4.96882
11
4.50991
21
-4.96431
0
LINE
8
BLACK
6
CONTINUOUS
10
4.50991
20
-4.96431
11
4.50991
21
-4.93667
0
LINE
8
BLACK
6
CONTINUOUS
10
4.50991
20
-4.93667
11
4.51009
21
-4.93566
0
LINE
8
BLACK
6
CONTINUOUS
10
4.51009
20
-4.93566
11
4.51138
21
-4.93411
0
LINE
8
BLACK
6
CONTINUOUS
10
4.51138
20
-4.93411
11
4.51337
21
-4.93376
0
LINE
8
BLACK
6
CONTINUOUS
10
4.51337
20
-4.93376
11
4.51512
21
-4.93477
0
LINE
8
BLACK
6
CONTINUOUS
10
4.54949
20
-4.93389
11
4.55104
21
-4.93519
0
LINE
8
BLACK
6
CONTINUOUS
10
4.55104
20
-4.93519
11
4.55139
21
-4.93718
0
LINE
8
BLACK
6
CONTINUOUS
10
4.55139
20
-4.93718
11
4.55038
21
-4.93893
0
LINE
8
BLACK
6
CONTINUOUS
10
4.55038
20
-4.93893
11
4.54848
21
-4.93962
0
LINE
8
BLACK
6
CONTINUOUS
10
4.54848
20
-4.93962
11
4.54168
21
-4.93962
0
LINE
8
BLACK
6
CONTINUOUS
10
4.54168
20
-4.93962
11
4.53898
21
-4.94097
0
LINE
8
BLACK
6
CONTINUOUS
10
4.53898
20
-4.94097
11
4.53765
21
-4.9423
0
LINE
8
BLACK
6
CONTINUOUS
10
4.53765
20
-4.9423
11
4.53435
21
-4.94725
0
LINE
8
BLACK
6
CONTINUOUS
10
4.53435
20
-4.94725
11
4.53362
21
-4.95017
0
LINE
8
BLACK
6
CONTINUOUS
10
4.53362
20
-4.95017
11
4.53591
21
-4.94903
0
LINE
8
BLACK
6
CONTINUOUS
10
4.53591
20
-4.94903
11
4.5369
21
-4.94873
0
LINE
8
BLACK
6
CONTINUOUS
10
4.5369
20
-4.94873
11
4.53707
21
-4.94877
0
LINE
8
BLACK
6
CONTINUOUS
10
4.53707
20
-4.94877
11
4.53723
21
-4.94871
0
LINE
8
BLACK
6
CONTINUOUS
10
4.53723
20
-4.94871
11
4.54473
21
-4.94871
0
LINE
8
BLACK
6
CONTINUOUS
10
4.54473
20
-4.94871
11
4.54574
21
-4.94889
0
LINE
8
BLACK
6
CONTINUOUS
10
4.54574
20
-4.94889
11
4.54588
21
-4.94901
0
LINE
8
BLACK
6
CONTINUOUS
10
4.54588
20
-4.94901
11
4.54605
21
-4.94903
0
LINE
8
BLACK
6
CONTINUOUS
10
4.54605
20
-4.94903
11
4.5498
21
-4.9509
0
LINE
8
BLACK
6
CONTINUOUS
10
4.5498
20
-4.9509
11
4.55051
21
-4.95143
0
LINE
8
BLACK
6
CONTINUOUS
10
4.55051
20
-4.95143
11
4.55057
21
-4.95145
0
LINE
8
BLACK
6
CONTINUOUS
10
4.55057
20
-4.95145
11
4.55244
21
-4.95333
0
LINE
8
BLACK
6
CONTINUOUS
10
4.55244
20
-4.95333
11
4.55295
21
-4.95405
0
LINE
8
BLACK
6
CONTINUOUS
10
4.55295
20
-4.95405
11
4.553
21
-4.9541
0
LINE
8
BLACK
6
CONTINUOUS
10
4.553
20
-4.9541
11
4.55487
21
-4.95785
0
LINE
8
BLACK
6
CONTINUOUS
10
4.55487
20
-4.95785
11
4.55516
21
-4.95883
0
LINE
8
BLACK
6
CONTINUOUS
10
4.55516
20
-4.95883
11
4.55512
21
-4.959
0
LINE
8
BLACK
6
CONTINUOUS
10
4.55512
20
-4.959
11
4.55518
21
-4.95917
0
LINE
8
BLACK
6
CONTINUOUS
10
4.55518
20
-4.95917
11
4.55518
21
-4.96854
0
LINE
8
BLACK
6
CONTINUOUS
10
4.55518
20
-4.96854
11
4.55501
21
-4.96955
0
LINE
8
BLACK
6
CONTINUOUS
10
4.55501
20
-4.96955
11
4.55489
21
-4.96968
0
LINE
8
BLACK
6
CONTINUOUS
10
4.55489
20
-4.96968
11
4.55487
21
-4.96986
0
LINE
8
BLACK
6
CONTINUOUS
10
4.55487
20
-4.96986
11
4.553
21
-4.97361
0
LINE
8
BLACK
6
CONTINUOUS
10
4.553
20
-4.97361
11
4.55247
21
-4.97432
0
LINE
8
BLACK
6
CONTINUOUS
10
4.55247
20
-4.97432
11
4.55244
21
-4.97438
0
LINE
8
BLACK
6
CONTINUOUS
10
4.55244
20
-4.97438
11
4.552
21
-4.97482
0
LINE
8
BLACK
6
CONTINUOUS
10
4.552
20
-4.97482
11
4.55301
21
-4.97455
0
LINE
8
BLACK
6
CONTINUOUS
10
4.55301
20
-4.97455
11
4.56426
21
-4.97455
0
LINE
8
BLACK
6
CONTINUOUS
10
4.56426
20
-4.97455
11
4.56721
21
-4.97534
0
LINE
8
BLACK
6
CONTINUOUS
10
4.56721
20
-4.97534
11
4.56937
21
-4.9775
0
LINE
8
BLACK
6
CONTINUOUS
10
4.56937
20
-4.9775
11
4.57016
21
-4.98046
0
LINE
8
BLACK
6
CONTINUOUS
10
4.57016
20
-4.98046
11
4.56937
21
-4.98341
0
LINE
8
BLACK
6
CONTINUOUS
10
4.56937
20
-4.98341
11
4.56721
21
-4.98557
0
LINE
8
BLACK
6
CONTINUOUS
10
4.56721
20
-4.98557
11
4.56426
21
-4.98636
0
LINE
8
BLACK
6
CONTINUOUS
10
4.56426
20
-4.98636
11
4.5544
21
-4.98636
0
LINE
8
BLACK
6
CONTINUOUS
10
4.5544
20
-4.98636
11
4.55088
21
-4.98812
0
LINE
8
BLACK
6
CONTINUOUS
10
4.55088
20
-4.98812
11
4.54916
21
-4.98984
0
LINE
8
BLACK
6
CONTINUOUS
10
4.54916
20
-4.98984
11
4.54443
21
-4.99694
0
LINE
8
BLACK
6
CONTINUOUS
10
4.54443
20
-4.99694
11
4.54418
21
-4.99795
0
LINE
8
BLACK
6
CONTINUOUS
10
4.54418
20
-4.99795
11
4.54474
21
-4.99767
0
LINE
8
BLACK
6
CONTINUOUS
10
4.54474
20
-4.99767
11
4.54607
21
-4.9974
0
LINE
8
BLACK
6
CONTINUOUS
10
4.54607
20
-4.9974
11
4.54738
21
-4.99705
0
LINE
8
BLACK
6
CONTINUOUS
10
4.54738
20
-4.99705
11
4.55863
21
-4.99705
0
LINE
8
BLACK
6
CONTINUOUS
10
4.55863
20
-4.99705
11
4.55994
21
-4.9974
0
LINE
8
BLACK
6
CONTINUOUS
10
4.55994
20
-4.9974
11
4.56127
21
-4.99767
0
LINE
8
BLACK
6
CONTINUOUS
10
4.56127
20
-4.99767
11
4.5669
21
-5.00048
0
LINE
8
BLACK
6
CONTINUOUS
10
4.5669
20
-5.00048
11
4.56761
21
-5.00111
0
LINE
8
BLACK
6
CONTINUOUS
10
4.56761
20
-5.00111
11
4.56843
21
-5.00159
0
LINE
8
BLACK
6
CONTINUOUS
10
4.56843
20
-5.00159
11
4.57125
21
-5.0044
0
LINE
8
BLACK
6
CONTINUOUS
10
4.57125
20
-5.0044
11
4.57172
21
-5.00522
0
LINE
8
BLACK
6
CONTINUOUS
10
4.57172
20
-5.00522
11
4.57235
21
-5.00594
0
LINE
8
BLACK
6
CONTINUOUS
10
4.57235
20
-5.00594
11
4.57516
21
-5.01156
0
LINE
8
BLACK
6
CONTINUOUS
10
4.57516
20
-5.01156
11
4.57544
21
-5.01289
0
LINE
8
BLACK
6
CONTINUOUS
10
4.57544
20
-5.01289
11
4.57579
21
-5.0142
0
LINE
8
BLACK
6
CONTINUOUS
10
4.57579
20
-5.0142
11
4.57579
21
-5.02826
0
LINE
8
BLACK
6
CONTINUOUS
10
4.57579
20
-5.02826
11
4.57544
21
-5.02957
0
LINE
8
BLACK
6
CONTINUOUS
10
4.57544
20
-5.02957
11
4.57516
21
-5.0309
0
LINE
8
BLACK
6
CONTINUOUS
10
4.57516
20
-5.0309
11
4.57235
21
-5.03653
0
LINE
8
BLACK
6
CONTINUOUS
10
4.57235
20
-5.03653
11
4.57172
21
-5.03724
0
LINE
8
BLACK
6
CONTINUOUS
10
4.57172
20
-5.03724
11
4.57125
21
-5.03806
0
LINE
8
BLACK
6
CONTINUOUS
10
4.57125
20
-5.03806
11
4.56843
21
-5.04087
0
LINE
8
BLACK
6
CONTINUOUS
10
4.56843
20
-5.04087
11
4.56761
21
-5.04135
0
LINE
8
BLACK
6
CONTINUOUS
10
4.56761
20
-5.04135
11
4.5669
21
-5.04198
0
LINE
8
BLACK
6
CONTINUOUS
10
4.5669
20
-5.04198
11
4.56127
21
-5.04479
0
LINE
8
BLACK
6
CONTINUOUS
10
4.56127
20
-5.04479
11
4.55994
21
-5.04506
0
LINE
8
BLACK
6
CONTINUOUS
10
4.55994
20
-5.04506
11
4.55863
21
-5.04542
0
LINE
8
BLACK
6
CONTINUOUS
10
4.55863
20
-5.04542
11
4.54738
21
-5.04542
0
LINE
8
BLACK
6
CONTINUOUS
10
4.54738
20
-5.04542
11
4.54607
21
-5.04506
0
LINE
8
BLACK
6
CONTINUOUS
10
4.54607
20
-5.04506
11
4.54474
21
-5.04479
0
LINE
8
BLACK
6
CONTINUOUS
10
4.54474
20
-5.04479
11
4.53912
21
-5.04198
0
LINE
8
BLACK
6
CONTINUOUS
10
4.53912
20
-5.04198
11
4.53841
21
-5.04135
0
LINE
8
BLACK
6
CONTINUOUS
10
4.53841
20
-5.04135
11
4.53758
21
-5.04087
0
LINE
8
BLACK
6
CONTINUOUS
10
4.53758
20
-5.04087
11
4.53477
21
-5.03806
0
LINE
8
BLACK
6
CONTINUOUS
10
4.53477
20
-5.03806
11
4.5343
21
-5.03724
0
LINE
8
BLACK
6
CONTINUOUS
10
4.5343
20
-5.03724
11
4.53367
21
-5.03653
0
LINE
8
BLACK
6
CONTINUOUS
10
4.53367
20
-5.03653
11
4.53085
21
-5.0309
0
LINE
8
BLACK
6
CONTINUOUS
10
4.53085
20
-5.0309
11
4.53058
21
-5.02957
0
LINE
8
BLACK
6
CONTINUOUS
10
4.53058
20
-5.02957
11
4.53023
21
-5.02826
0
LINE
8
BLACK
6
CONTINUOUS
10
4.53023
20
-5.02826
11
4.53023
21
-5.00576
0
LINE
8
BLACK
6
CONTINUOUS
10
4.53023
20
-5.00576
11
4.53042
21
-5.00506
0
LINE
8
BLACK
6
CONTINUOUS
10
4.53042
20
-5.00506
11
4.53041
21
-5.00433
0
LINE
8
BLACK
6
CONTINUOUS
10
4.53041
20
-5.00433
11
4.53322
21
-4.99308
0
LINE
8
BLACK
6
CONTINUOUS
10
4.53322
20
-4.99308
11
4.53371
21
-4.9922
0
LINE
8
BLACK
6
CONTINUOUS
10
4.53371
20
-4.9922
11
4.53403
21
-4.99124
0
LINE
8
BLACK
6
CONTINUOUS
10
4.53403
20
-4.99124
11
4.53966
21
-4.9828
0
LINE
8
BLACK
6
CONTINUOUS
10
4.53966
20
-4.9828
11
4.5401
21
-4.98241
0
LINE
8
BLACK
6
CONTINUOUS
10
4.5401
20
-4.98241
11
4.5404
21
-4.9819
0
LINE
8
BLACK
6
CONTINUOUS
10
4.5404
20
-4.9819
11
4.54321
21
-4.97909
0
LINE
8
BLACK
6
CONTINUOUS
10
4.54321
20
-4.97909
11
4.54338
21
-4.97899
0
LINE
8
BLACK
6
CONTINUOUS
10
4.54338
20
-4.97899
11
4.53723
21
-4.97899
0
LINE
8
BLACK
6
CONTINUOUS
10
4.53723
20
-4.97899
11
4.53622
21
-4.97881
0
LINE
8
BLACK
6
CONTINUOUS
10
4.53622
20
-4.97881
11
4.53609
21
-4.9787
0
LINE
8
BLACK
6
CONTINUOUS
10
4.53609
20
-4.9787
11
4.53591
21
-4.97868
0
LINE
8
BLACK
6
CONTINUOUS
10
4.53591
20
-4.97868
11
4.53216
21
-4.9768
0
LINE
8
BLACK
6
CONTINUOUS
10
4.53216
20
-4.9768
11
4.53145
21
-4.97628
0
LINE
8
BLACK
6
CONTINUOUS
10
4.53145
20
-4.97628
11
4.5314
21
-4.97625
0
LINE
8
BLACK
6
CONTINUOUS
10
4.5314
20
-4.97625
11
4.52952
21
-4.97438
0
LINE
8
BLACK
6
CONTINUOUS
10
4.52952
20
-4.97438
11
4.52901
21
-4.97365
0
LINE
8
BLACK
6
CONTINUOUS
10
4.52901
20
-4.97365
11
4.52897
21
-4.97361
0
LINE
8
BLACK
6
CONTINUOUS
10
4.52897
20
-4.97361
11
4.52709
21
-4.96986
0
LINE
8
BLACK
6
CONTINUOUS
10
4.52709
20
-4.96986
11
4.5268
21
-4.96888
0
LINE
8
BLACK
6
CONTINUOUS
10
4.5268
20
-4.96888
11
4.52684
21
-4.96871
0
LINE
8
BLACK
6
CONTINUOUS
10
4.52684
20
-4.96871
11
4.52678
21
-4.96854
0
LINE
8
BLACK
6
CONTINUOUS
10
4.52678
20
-4.96854
11
4.52678
21
-4.95354
0
LINE
8
BLACK
6
CONTINUOUS
10
4.52678
20
-4.95354
11
4.52688
21
-4.95296
0
LINE
8
BLACK
6
CONTINUOUS
10
4.52688
20
-4.95296
11
4.52687
21
-4.95283
0
LINE
8
BLACK
6
CONTINUOUS
10
4.52687
20
-4.95283
11
4.52874
21
-4.94533
0
LINE
8
BLACK
6
CONTINUOUS
10
4.52874
20
-4.94533
11
4.52915
21
-4.94442
0
LINE
8
BLACK
6
CONTINUOUS
10
4.52915
20
-4.94442
11
4.52915
21
-4.9444
0
LINE
8
BLACK
6
CONTINUOUS
10
4.52915
20
-4.9444
11
4.5329
21
-4.93878
0
LINE
8
BLACK
6
CONTINUOUS
10
4.5329
20
-4.93878
11
4.53321
21
-4.93845
0
LINE
8
BLACK
6
CONTINUOUS
10
4.53321
20
-4.93845
11
4.53327
21
-4.93833
0
LINE
8
BLACK
6
CONTINUOUS
10
4.53327
20
-4.93833
11
4.53514
21
-4.93646
0
LINE
8
BLACK
6
CONTINUOUS
10
4.53514
20
-4.93646
11
4.53587
21
-4.93595
0
LINE
8
BLACK
6
CONTINUOUS
10
4.53587
20
-4.93595
11
4.53591
21
-4.9359
0
LINE
8
BLACK
6
CONTINUOUS
10
4.53591
20
-4.9359
11
4.53966
21
-4.93403
0
LINE
8
BLACK
6
CONTINUOUS
10
4.53966
20
-4.93403
11
4.54064
21
-4.93374
0
LINE
8
BLACK
6
CONTINUOUS
10
4.54064
20
-4.93374
11
4.54082
21
-4.93378
0
LINE
8
BLACK
6
CONTINUOUS
10
4.54082
20
-4.93378
11
4.54098
21
-4.93372
0
LINE
8
BLACK
6
CONTINUOUS
10
4.54098
20
-4.93372
11
4.54848
21
-4.93372
0
LINE
8
BLACK
6
CONTINUOUS
10
4.54848
20
-4.93372
11
4.54949
21
-4.93389
0
LINE
8
BLACK
6
CONTINUOUS
10
4.54878
20
-5.00886
11
4.54526
21
-5.01062
0
LINE
8
BLACK
6
CONTINUOUS
10
4.54526
20
-5.01062
11
4.5438
21
-5.01208
0
LINE
8
BLACK
6
CONTINUOUS
10
4.5438
20
-5.01208
11
4.54204
21
-5.0156
0
LINE
8
BLACK
6
CONTINUOUS
10
4.54204
20
-5.0156
11
4.54204
21
-5.02687
0
LINE
8
BLACK
6
CONTINUOUS
10
4.54204
20
-5.02687
11
4.5438
21
-5.03039
0
LINE
8
BLACK
6
CONTINUOUS
10
4.5438
20
-5.03039
11
4.54526
21
-5.03185
0
LINE
8
BLACK
6
CONTINUOUS
10
4.54526
20
-5.03185
11
4.54878
21
-5.03361
0
LINE
8
BLACK
6
CONTINUOUS
10
4.54878
20
-5.03361
11
4.55724
21
-5.03361
0
LINE
8
BLACK
6
CONTINUOUS
10
4.55724
20
-5.03361
11
4.56076
21
-5.03184
0
LINE
8
BLACK
6
CONTINUOUS
10
4.56076
20
-5.03184
11
4.56222
21
-5.03039
0
LINE
8
BLACK
6
CONTINUOUS
10
4.56222
20
-5.03039
11
4.56398
21
-5.02687
0
LINE
8
BLACK
6
CONTINUOUS
10
4.56398
20
-5.02687
11
4.56398
21
-5.0156
0
LINE
8
BLACK
6
CONTINUOUS
10
4.56398
20
-5.0156
11
4.56222
21
-5.01208
0
LINE
8
BLACK
6
CONTINUOUS
10
4.56222
20
-5.01208
11
4.56076
21
-5.01062
0
LINE
8
BLACK
6
CONTINUOUS
10
4.56076
20
-5.01062
11
4.55724
21
-5.00886
0
LINE
8
BLACK
6
CONTINUOUS
10
4.55724
20
-5.00886
11
4.54878
21
-5.00886
0
LINE
8
BLACK
6
CONTINUOUS
10
4.53793
20
-4.95462
11
4.53523
21
-4.95597
0
LINE
8
BLACK
6
CONTINUOUS
10
4.53523
20
-4.95597
11
4.53404
21
-4.95717
0
LINE
8
BLACK
6
CONTINUOUS
10
4.53404
20
-4.95717
11
4.53269
21
-4.95986
0
LINE
8
BLACK
6
CONTINUOUS
10
4.53269
20
-4.95986
11
4.53269
21
-4.96784
0
LINE
8
BLACK
6
CONTINUOUS
10
4.53269
20
-4.96784
11
4.53404
21
-4.97054
0
LINE
8
BLACK
6
CONTINUOUS
10
4.53404
20
-4.97054
11
4.53523
21
-4.97174
0
LINE
8
BLACK
6
CONTINUOUS
10
4.53523
20
-4.97174
11
4.53793
21
-4.97309
0
LINE
8
BLACK
6
CONTINUOUS
10
4.53793
20
-4.97309
11
4.54403
21
-4.97309
0
LINE
8
BLACK
6
CONTINUOUS
10
4.54403
20
-4.97309
11
4.54673
21
-4.97174
0
LINE
8
BLACK
6
CONTINUOUS
10
4.54673
20
-4.97174
11
4.54793
21
-4.97054
0
LINE
8
BLACK
6
CONTINUOUS
10
4.54793
20
-4.97054
11
4.54928
21
-4.96784
0
LINE
8
BLACK
6
CONTINUOUS
10
4.54928
20
-4.96784
11
4.54928
21
-4.95986
0
LINE
8
BLACK
6
CONTINUOUS
10
4.54928
20
-4.95986
11
4.54793
21
-4.95717
0
LINE
8
BLACK
6
CONTINUOUS
10
4.54793
20
-4.95717
11
4.54673
21
-4.95597
0
LINE
8
BLACK
6
CONTINUOUS
10
4.54673
20
-4.95597
11
4.54403
21
-4.95462
0
LINE
8
BLACK
6
CONTINUOUS
10
4.54403
20
-4.95462
11
4.53793
21
-4.95462
0
LINE
8
BLACK
6
CONTINUOUS
10
4.66861
20
-4.85387
11
4.66803
21
-4.85248
0
LINE
8
BLACK
6
CONTINUOUS
10
4.66803
20
-4.85248
11
4.66803
21
-4.64748
0
LINE
8
BLACK
6
CONTINUOUS
10
4.66803
20
-4.64748
11
4.66861
21
-4.64609
0
LINE
8
BLACK
6
CONTINUOUS
10
4.66861
20
-4.64609
11
4.67
21
-4.64551
0
LINE
8
BLACK
6
CONTINUOUS
10
4.67
20
-4.64551
11
5.33
21
-4.64551
0
LINE
8
BLACK
6
CONTINUOUS
10
5.33
20
-4.64551
11
5.33139
21
-4.64609
0
LINE
8
BLACK
6
CONTINUOUS
10
5.33139
20
-4.64609
11
5.33197
21
-4.64748
0
LINE
8
BLACK
6
CONTINUOUS
10
5.33197
20
-4.64748
11
5.33197
21
-4.85248
0
LINE
8
BLACK
6
CONTINUOUS
10
5.33197
20
-4.85248
11
5.33139
21
-4.85387
0
LINE
8
BLACK
6
CONTINUOUS
10
5.33139
20
-4.85387
11
5.33
21
-4.85445
0
LINE
8
BLACK
6
CONTINUOUS
10
5.33
20
-4.85445
11
4.67
21
-4.85445
0
LINE
8
BLACK
6
CONTINUOUS
10
4.67
20
-4.85445
11
4.66861
21
-4.85387
0
LINE
8
BLACK
6
CONTINUOUS
10
4.67717
20
-4.65453
11
4.67717
21
-4.8435
0
LINE
8
BLACK
6
CONTINUOUS
10
4.67717
20
-4.8435
11
5.32382
21
-4.8435
0
LINE
8
BLACK
6
CONTINUOUS
10
5.32382
20
-4.8435
11
5.32382
21
-4.65453
0
LINE
8
BLACK
6
CONTINUOUS
10
5.32382
20
-4.65453
11
4.67717
21
-4.65453
0
LINE
8
BLACK
6
CONTINUOUS
10
4.98914
20
-4.66902
11
4.98983
21
-4.67092
0
LINE
8
BLACK
6
CONTINUOUS
10
4.98983
20
-4.67092
11
4.98983
21
-4.69904
0
LINE
8
BLACK
6
CONTINUOUS
10
4.98983
20
-4.69904
11
4.98968
21
-4.69991
0
LINE
8
BLACK
6
CONTINUOUS
10
4.98968
20
-4.69991
11
4.98968
21
-4.69998
0
LINE
8
BLACK
6
CONTINUOUS
10
4.98968
20
-4.69998
11
4.9878
21
-4.7056
0
LINE
8
BLACK
6
CONTINUOUS
10
4.9878
20
-4.7056
11
4.98731
21
-4.7065
0
LINE
8
BLACK
6
CONTINUOUS
10
4.98731
20
-4.7065
11
4.98716
21
-4.70659
0
LINE
8
BLACK
6
CONTINUOUS
10
4.98716
20
-4.70659
11
4.98709
21
-4.70675
0
LINE
8
BLACK
6
CONTINUOUS
10
4.98709
20
-4.70675
11
4.98359
21
-4.71026
0
LINE
8
BLACK
6
CONTINUOUS
10
4.98359
20
-4.71026
11
4.98425
21
-4.71274
0
LINE
8
BLACK
6
CONTINUOUS
10
4.98425
20
-4.71274
11
4.98425
21
-4.75492
0
LINE
8
BLACK
6
CONTINUOUS
10
4.98425
20
-4.75492
11
4.98401
21
-4.75584
0
LINE
8
BLACK
6
CONTINUOUS
10
4.98401
20
-4.75584
11
4.98395
21
-4.75679
0
LINE
8
BLACK
6
CONTINUOUS
10
4.98395
20
-4.75679
11
4.98114
21
-4.76523
0
LINE
8
BLACK
6
CONTINUOUS
10
4.98114
20
-4.76523
11
4.98039
21
-4.76636
0
LINE
8
BLACK
6
CONTINUOUS
10
4.98039
20
-4.76636
11
4.97971
21
-4.76753
0
LINE
8
BLACK
6
CONTINUOUS
10
4.97971
20
-4.76753
11
4.97409
21
-4.77316
0
LINE
8
BLACK
6
CONTINUOUS
10
4.97409
20
-4.77316
11
4.97291
21
-4.77384
0
LINE
8
BLACK
6
CONTINUOUS
10
4.97291
20
-4.77384
11
4.97178
21
-4.77458
0
LINE
8
BLACK
6
CONTINUOUS
10
4.97178
20
-4.77458
11
4.96334
21
-4.7774
0
LINE
8
BLACK
6
CONTINUOUS
10
4.96334
20
-4.7774
11
4.96239
21
-4.77745
0
LINE
8
BLACK
6
CONTINUOUS
10
4.96239
20
-4.77745
11
4.96147
21
-4.7777
0
LINE
8
BLACK
6
CONTINUOUS
10
4.96147
20
-4.7777
11
4.95585
21
-4.7777
0
LINE
8
BLACK
6
CONTINUOUS
10
4.95585
20
-4.7777
11
4.9529
21
-4.77691
0
LINE
8
BLACK
6
CONTINUOUS
10
4.9529
20
-4.77691
11
4.95073
21
-4.77475
0
LINE
8
BLACK
6
CONTINUOUS
10
4.95073
20
-4.77475
11
4.94994
21
-4.77179
0
LINE
8
BLACK
6
CONTINUOUS
10
4.94994
20
-4.77179
11
4.95073
21
-4.76884
0
LINE
8
BLACK
6
CONTINUOUS
10
4.95073
20
-4.76884
11
4.9529
21
-4.76668
0
LINE
8
BLACK
6
CONTINUOUS
10
4.9529
20
-4.76668
11
4.95585
21
-4.76589
0
LINE
8
BLACK
6
CONTINUOUS
10
4.95585
20
-4.76589
11
4.96052
21
-4.76589
0
LINE
8
BLACK
6
CONTINUOUS
10
4.96052
20
-4.76589
11
4.96672
21
-4.76382
0
LINE
8
BLACK
6
CONTINUOUS
10
4.96672
20
-4.76382
11
4.97037
21
-4.76017
0
LINE
8
BLACK
6
CONTINUOUS
10
4.97037
20
-4.76017
11
4.97244
21
-4.75396
0
LINE
8
BLACK
6
CONTINUOUS
10
4.97244
20
-4.75396
11
4.97244
21
-4.71324
0
LINE
8
BLACK
6
CONTINUOUS
10
4.97244
20
-4.71324
11
4.97188
21
-4.71324
0
LINE
8
BLACK
6
CONTINUOUS
10
4.97188
20
-4.71324
11
4.97087
21
-4.71307
0
LINE
8
BLACK
6
CONTINUOUS
10
4.97087
20
-4.71307
11
4.96932
21
-4.71177
0
LINE
8
BLACK
6
CONTINUOUS
10
4.96932
20
-4.71177
11
4.96897
21
-4.70978
0
LINE
8
BLACK
6
CONTINUOUS
10
4.96897
20
-4.70978
11
4.96998
21
-4.70803
0
LINE
8
BLACK
6
CONTINUOUS
10
4.96998
20
-4.70803
11
4.97188
21
-4.70734
0
LINE
8
BLACK
6
CONTINUOUS
10
4.97188
20
-4.70734
11
4.97515
21
-4.70734
0
LINE
8
BLACK
6
CONTINUOUS
10
4.97515
20
-4.70734
11
4.97966
21
-4.70583
0
LINE
8
BLACK
6
CONTINUOUS
10
4.97966
20
-4.70583
11
4.98242
21
-4.70307
0
LINE
8
BLACK
6
CONTINUOUS
10
4.98242
20
-4.70307
11
4.98392
21
-4.69856
0
LINE
8
BLACK
6
CONTINUOUS
10
4.98392
20
-4.69856
11
4.98392
21
-4.67092
0
LINE
8
BLACK
6
CONTINUOUS
10
4.98392
20
-4.67092
11
4.9841
21
-4.66991
0
LINE
8
BLACK
6
CONTINUOUS
10
4.9841
20
-4.66991
11
4.9854
21
-4.66836
0
LINE
8
BLACK
6
CONTINUOUS
10
4.9854
20
-4.66836
11
4.98739
21
-4.66801
0
LINE
8
BLACK
6
CONTINUOUS
10
4.98739
20
-4.66801
11
4.98914
21
-4.66902
0
LINE
8
BLACK
6
CONTINUOUS
10
5.01453
20
-4.66645
11
5.01587
21
-4.66796
0
LINE
8
BLACK
6
CONTINUOUS
10
5.01587
20
-4.66796
11
5.01592
21
-4.66998
0
LINE
8
BLACK
6
CONTINUOUS
10
5.01592
20
-4.66998
11
5.00785
21
-4.69421
0
LINE
8
BLACK
6
CONTINUOUS
10
5.00785
20
-4.69421
11
5.01954
21
-4.69421
0
LINE
8
BLACK
6
CONTINUOUS
10
5.01954
20
-4.69421
11
5.01954
21
-4.68404
0
LINE
8
BLACK
6
CONTINUOUS
10
5.01954
20
-4.68404
11
5.01972
21
-4.68303
0
LINE
8
BLACK
6
CONTINUOUS
10
5.01972
20
-4.68303
11
5.02102
21
-4.68149
0
LINE
8
BLACK
6
CONTINUOUS
10
5.02102
20
-4.68149
11
5.02301
21
-4.68114
0
LINE
8
BLACK
6
CONTINUOUS
10
5.02301
20
-4.68114
11
5.02476
21
-4.68215
0
LINE
8
BLACK
6
CONTINUOUS
10
5.02476
20
-4.68215
11
5.02545
21
-4.68404
0
LINE
8
BLACK
6
CONTINUOUS
10
5.02545
20
-4.68404
11
5.02545
21
-4.69421
0
LINE
8
BLACK
6
CONTINUOUS
10
5.02545
20
-4.69421
11
5.02812
21
-4.69421
0
LINE
8
BLACK
6
CONTINUOUS
10
5.02812
20
-4.69421
11
5.02913
21
-4.69439
0
LINE
8
BLACK
6
CONTINUOUS
10
5.02913
20
-4.69439
11
5.03068
21
-4.69569
0
LINE
8
BLACK
6
CONTINUOUS
10
5.03068
20
-4.69569
11
5.03103
21
-4.69768
0
LINE
8
BLACK
6
CONTINUOUS
10
5.03103
20
-4.69768
11
5.03002
21
-4.69943
0
LINE
8
BLACK
6
CONTINUOUS
10
5.03002
20
-4.69943
11
5.02812
21
-4.70012
0
LINE
8
BLACK
6
CONTINUOUS
10
5.02812
20
-4.70012
11
5.02545
21
-4.70012
0
LINE
8
BLACK
6
CONTINUOUS
10
5.02545
20
-4.70012
11
5.02545
21
-4.71029
0
LINE
8
BLACK
6
CONTINUOUS
10
5.02545
20
-4.71029
11
5.02527
21
-4.7113
0
LINE
8
BLACK
6
CONTINUOUS
10
5.02527
20
-4.7113
11
5.02397
21
-4.71285
0
LINE
8
BLACK
6
CONTINUOUS
10
5.02397
20
-4.71285
11
5.02291
21
-4.71304
0
LINE
8
BLACK
6
CONTINUOUS
10
5.02291
20
-4.71304
11
5.01185
21
-4.7462
0
LINE
8
BLACK
6
CONTINUOUS
10
5.01185
20
-4.7462
11
5.02587
21
-4.7462
0
LINE
8
BLACK
6
CONTINUOUS
10
5.02587
20
-4.7462
11
5.02587
21
-4.73242
0
LINE
8
BLACK
6
CONTINUOUS
10
5.02587
20
-4.73242
11
5.02666
21
-4.72947
0
LINE
8
BLACK
6
CONTINUOUS
10
5.02666
20
-4.72947
11
5.02882
21
-4.72731
0
LINE
8
BLACK
6
CONTINUOUS
10
5.02882
20
-4.72731
11
5.03178
21
-4.72652
0
LINE
8
BLACK
6
CONTINUOUS
10
5.03178
20
-4.72652
11
5.03473
21
-4.72731
0
LINE
8
BLACK
6
CONTINUOUS
10
5.03473
20
-4.72731
11
5.03689
21
-4.72947
0
LINE
8
BLACK
6
CONTINUOUS
10
5.03689
20
-4.72947
11
5.03768
21
-4.73242
0
LINE
8
BLACK
6
CONTINUOUS
10
5.03768
20
-4.73242
11
5.03768
21
-4.7462
0
LINE
8
BLACK
6
CONTINUOUS
10
5.03768
20
-4.7462
11
5.04021
21
-4.7462
0
LINE
8
BLACK
6
CONTINUOUS
10
5.04021
20
-4.7462
11
5.04317
21
-4.74699
0
LINE
8
BLACK
6
CONTINUOUS
10
5.04317
20
-4.74699
11
5.04533
21
-4.74916
0
LINE
8
BLACK
6
CONTINUOUS
10
5.04533
20
-4.74916
11
5.04612
21
-4.75211
0
LINE
8
BLACK
6
CONTINUOUS
10
5.04612
20
-4.75211
11
5.04533
21
-4.75506
0
LINE
8
BLACK
6
CONTINUOUS
10
5.04533
20
-4.75506
11
5.04317
21
-4.75722
0
LINE
8
BLACK
6
CONTINUOUS
10
5.04317
20
-4.75722
11
5.04021
21
-4.75801
0
LINE
8
BLACK
6
CONTINUOUS
10
5.04021
20
-4.75801
11
5.03768
21
-4.75801
0
LINE
8
BLACK
6
CONTINUOUS
10
5.03768
20
-4.75801
11
5.03768
21
-4.77179
0
LINE
8
BLACK
6
CONTINUOUS
10
5.03768
20
-4.77179
11
5.03689
21
-4.77475
0
LINE
8
BLACK
6
CONTINUOUS
10
5.03689
20
-4.77475
11
5.03473
21
-4.77691
0
LINE
8
BLACK
6
CONTINUOUS
10
5.03473
20
-4.77691
11
5.03178
21
-4.7777
0
LINE
8
BLACK
6
CONTINUOUS
10
5.03178
20
-4.7777
11
5.02882
21
-4.77691
0
LINE
8
BLACK
6
CONTINUOUS
10
5.02882
20
-4.77691
11
5.02666
21
-4.77475
0
LINE
8
BLACK
6
CONTINUOUS
10
5.02666
20
-4.77475
11
5.02587
21
-4.77179
0
LINE
8
BLACK
6
CONTINUOUS
10
5.02587
20
-4.77179
11
5.02587
21
-4.75801
0
LINE
8
BLACK
6
CONTINUOUS
10
5.02587
20
-4.75801
11
5.00366
21
-4.75801
0
LINE
8
BLACK
6
CONTINUOUS
10
5.00366
20
-4.75801
11
5.00274
21
-4.75777
0
LINE
8
BLACK
6
CONTINUOUS
10
5.00274
20
-4.75777
11
5.00179
21
-4.75771
0
LINE
8
BLACK
6
CONTINUOUS
10
5.00179
20
-4.75771
11
5.00129
21
-4.75738
0
LINE
8
BLACK
6
CONTINUOUS
10
5.00129
20
-4.75738
11
5.0007
21
-4.75722
0
LINE
8
BLACK
6
CONTINUOUS
10
5.0007
20
-4.75722
11
5.00003
21
-4.75655
0
LINE
8
BLACK
6
CONTINUOUS
10
5.00003
20
-4.75655
11
4.99924
21
-4.75603
0
LINE
8
BLACK
6
CONTINUOUS
10
4.99924
20
-4.75603
11
4.99897
21
-4.75549
0
LINE
8
BLACK
6
CONTINUOUS
10
4.99897
20
-4.75549
11
4.99854
21
-4.75506
0
LINE
8
BLACK
6
CONTINUOUS
10
4.99854
20
-4.75506
11
4.9983
21
-4.75414
0
LINE
8
BLACK
6
CONTINUOUS
10
4.9983
20
-4.75414
11
4.99787
21
-4.75329
0
LINE
8
BLACK
6
CONTINUOUS
10
4.99787
20
-4.75329
11
4.99791
21
-4.75269
0
LINE
8
BLACK
6
CONTINUOUS
10
4.99791
20
-4.75269
11
4.99775
21
-4.75211
0
LINE
8
BLACK
6
CONTINUOUS
10
4.99775
20
-4.75211
11
4.998
21
-4.75119
0
LINE
8
BLACK
6
CONTINUOUS
10
4.998
20
-4.75119
11
4.99805
21
-4.75024
0
LINE
8
BLACK
6
CONTINUOUS
10
4.99805
20
-4.75024
11
5.01211
21
-4.70806
0
LINE
8
BLACK
6
CONTINUOUS
10
5.01211
20
-4.70806
11
5.0138
21
-4.70551
0
LINE
8
BLACK
6
CONTINUOUS
10
5.0138
20
-4.70551
11
5.01653
21
-4.70414
0
LINE
8
BLACK
6
CONTINUOUS
10
5.01653
20
-4.70414
11
5.01954
21
-4.70432
0
LINE
8
BLACK
6
CONTINUOUS
10
5.01954
20
-4.70432
11
5.01954
21
-4.70012
0
LINE
8
BLACK
6
CONTINUOUS
10
5.01954
20
-4.70012
11
5.00375
21
-4.70012
0
LINE
8
BLACK
6
CONTINUOUS
10
5.00375
20
-4.70012
11
5.00274
21
-4.69994
0
LINE
8
BLACK
6
CONTINUOUS
10
5.00274
20
-4.69994
11
5.00257
21
-4.6998
0
LINE
8
BLACK
6
CONTINUOUS
10
5.00257
20
-4.6998
11
5.00234
21
-4.69976
0
LINE
8
BLACK
6
CONTINUOUS
10
5.00234
20
-4.69976
11
5.00181
21
-4.69916
0
LINE
8
BLACK
6
CONTINUOUS
10
5.00181
20
-4.69916
11
5.00119
21
-4.69864
0
LINE
8
BLACK
6
CONTINUOUS
10
5.00119
20
-4.69864
11
5.00115
21
-4.69842
0
LINE
8
BLACK
6
CONTINUOUS
10
5.00115
20
-4.69842
11
5.001
21
-4.69825
0
LINE
8
BLACK
6
CONTINUOUS
10
5.001
20
-4.69825
11
5.00098
21
-4.69745
0
LINE
8
BLACK
6
CONTINUOUS
10
5.00098
20
-4.69745
11
5.00084
21
-4.69665
0
LINE
8
BLACK
6
CONTINUOUS
10
5.00084
20
-4.69665
11
5.00095
21
-4.69646
0
LINE
8
BLACK
6
CONTINUOUS
10
5.00095
20
-4.69646
11
5.00095
21
-4.69623
0
LINE
8
BLACK
6
CONTINUOUS
10
5.00095
20
-4.69623
11
5.01032
21
-4.66811
0
LINE
8
BLACK
6
CONTINUOUS
10
5.01032
20
-4.66811
11
5.01081
21
-4.66721
0
LINE
8
BLACK
6
CONTINUOUS
10
5.01081
20
-4.66721
11
5.01253
21
-4.66615
0
LINE
8
BLACK
6
CONTINUOUS
10
5.01253
20
-4.66615
11
5.01453
21
-4.66645
0
LINE
8
BLACK
6
CONTINUOUS
10
5.42416
20
-4.79261
11
5.42358
21
-4.79122
0
LINE
8
BLACK
6
CONTINUOUS
10
5.42358
20
-4.79122
11
5.42358
21
-3.53122
0
LINE
8
BLACK
6
CONTINUOUS
10
5.42358
20
-3.53122
11
5.42416
21
-3.52983
0
LINE
8
BLACK
6
CONTINUOUS
10
5.42416
20
-3.52983
11
5.42555
21
-3.52925
0
LINE
8
BLACK
6
CONTINUOUS
10
5.42555
20
-3.52925
11
5.75555
21
-3.52925
0
LINE
8
BLACK
6
CONTINUOUS
10
5.75555
20
-3.52925
11
5.75694
21
-3.52983
0
LINE
8
BLACK
6
CONTINUOUS
10
5.75694
20
-3.52983
11
5.75752
21
-3.53122
0
LINE
8
BLACK
6
CONTINUOUS
10
5.75752
20
-3.53122
11
5.75752
21
-4.79122
0
LINE
8
BLACK
6
CONTINUOUS
10
5.75752
20
-4.79122
11
5.75694
21
-4.79261
0
LINE
8
BLACK
6
CONTINUOUS
10
5.75694
20
-4.79261
11
5.75555
21
-4.79319
0
LINE
8
BLACK
6
CONTINUOUS
10
5.75555
20
-4.79319
11
5.42555
21
-4.79319
0
LINE
8
BLACK
6
CONTINUOUS
10
5.42555
20
-4.79319
11
5.42416
21
-4.79261
0
LINE
8
BLACK
6
CONTINUOUS
10
5.42752
20
-3.53319
11
5.42752
21
-4.78925
0
LINE
8
BLACK
6
CONTINUOUS
10
5.42752
20
-4.78925
11
5.75358
21
-4.78925
0
LINE
8
BLACK
6
CONTINUOUS
10
5.75358
20
-4.78925
11
5.75358
21
-3.53319
0
LINE
8
BLACK
6
CONTINUOUS
10
5.75358
20
-3.53319
11
5.42752
21
-3.53319
0
LINE
8
BLACK
6
CONTINUOUS
10
5.63048
20
-4.12135
11
5.63107
21
-4.12132
0
LINE
8
BLACK
6
CONTINUOUS
10
5.63107
20
-4.12132
11
5.63194
21
-4.12174
0
LINE
8
BLACK
6
CONTINUOUS
10
5.63194
20
-4.12174
11
5.63287
21
-4.12199
0
LINE
8
BLACK
6
CONTINUOUS
10
5.63287
20
-4.12199
11
5.63329
21
-4.12241
0
LINE
8
BLACK
6
CONTINUOUS
10
5.63329
20
-4.12241
11
5.63381
21
-4.12266
0
LINE
8
BLACK
6
CONTINUOUS
10
5.63381
20
-4.12266
11
5.63435
21
-4.12347
0
LINE
8
BLACK
6
CONTINUOUS
10
5.63435
20
-4.12347
11
5.63504
21
-4.12416
0
LINE
8
BLACK
6
CONTINUOUS
10
5.63504
20
-4.12416
11
5.63519
21
-4.12472
0
LINE
8
BLACK
6
CONTINUOUS
10
5.63519
20
-4.12472
11
5.63551
21
-4.1252
0
LINE
8
BLACK
6
CONTINUOUS
10
5.63551
20
-4.1252
11
5.63558
21
-4.12617
0
LINE
8
BLACK
6
CONTINUOUS
10
5.63558
20
-4.12617
11
5.63583
21
-4.12711
0
LINE
8
BLACK
6
CONTINUOUS
10
5.63583
20
-4.12711
11
5.63568
21
-4.12767
0
LINE
8
BLACK
6
CONTINUOUS
10
5.63568
20
-4.12767
11
5.63571
21
-4.12825
0
LINE
8
BLACK
6
CONTINUOUS
10
5.63571
20
-4.12825
11
5.63529
21
-4.12912
0
LINE
8
BLACK
6
CONTINUOUS
10
5.63529
20
-4.12912
11
5.63504
21
-4.13006
0
LINE
8
BLACK
6
CONTINUOUS
10
5.63504
20
-4.13006
11
5.63462
21
-4.13047
0
LINE
8
BLACK
6
CONTINUOUS
10
5.63462
20
-4.13047
11
5.63437
21
-4.131
0
LINE
8
BLACK
6
CONTINUOUS
10
5.63437
20
-4.131
11
5.62228
21
-4.14481
0
LINE
8
BLACK
6
CONTINUOUS
10
5.62228
20
-4.14481
11
5.62694
21
-4.14714
0
LINE
8
BLACK
6
CONTINUOUS
10
5.62694
20
-4.14714
11
5.62765
21
-4.14777
0
LINE
8
BLACK
6
CONTINUOUS
10
5.62765
20
-4.14777
11
5.62847
21
-4.14824
0
LINE
8
BLACK
6
CONTINUOUS
10
5.62847
20
-4.14824
11
5.63128
21
-4.15105
0
LINE
8
BLACK
6
CONTINUOUS
10
5.63128
20
-4.15105
11
5.63176
21
-4.15188
0
LINE
8
BLACK
6
CONTINUOUS
10
5.63176
20
-4.15188
11
5.63239
21
-4.15259
0
LINE
8
BLACK
6
CONTINUOUS
10
5.63239
20
-4.15259
11
5.6352
21
-4.15821
0
LINE
8
BLACK
6
CONTINUOUS
10
5.6352
20
-4.15821
11
5.63548
21
-4.15954
0
LINE
8
BLACK
6
CONTINUOUS
10
5.63548
20
-4.15954
11
5.63583
21
-4.16085
0
LINE
8
BLACK
6
CONTINUOUS
10
5.63583
20
-4.16085
11
5.63583
21
-4.17492
0
LINE
8
BLACK
6
CONTINUOUS
10
5.63583
20
-4.17492
11
5.63548
21
-4.17623
0
LINE
8
BLACK
6
CONTINUOUS
10
5.63548
20
-4.17623
11
5.6352
21
-4.17756
0
LINE
8
BLACK
6
CONTINUOUS
10
5.6352
20
-4.17756
11
5.63239
21
-4.18318
0
LINE
8
BLACK
6
CONTINUOUS
10
5.63239
20
-4.18318
11
5.63176
21
-4.18389
0
LINE
8
BLACK
6
CONTINUOUS
10
5.63176
20
-4.18389
11
5.63128
21
-4.18472
0
LINE
8
BLACK
6
CONTINUOUS
10
5.63128
20
-4.18472
11
5.62847
21
-4.18753
0
LINE
8
BLACK
6
CONTINUOUS
10
5.62847
20
-4.18753
11
5.62765
21
-4.188
0
LINE
8
BLACK
6
CONTINUOUS
10
5.62765
20
-4.188
11
5.62694
21
-4.18863
0
LINE
8
BLACK
6
CONTINUOUS
10
5.62694
20
-4.18863
11
5.62131
21
-4.19145
0
LINE
8
BLACK
6
CONTINUOUS
10
5.62131
20
-4.19145
11
5.61998
21
-4.19172
0
LINE
8
BLACK
6
CONTINUOUS
10
5.61998
20
-4.19172
11
5.61867
21
-4.19207
0
LINE
8
BLACK
6
CONTINUOUS
10
5.61867
20
-4.19207
11
5.60631
21
-4.19207
0
LINE
8
BLACK
6
CONTINUOUS
10
5.60631
20
-4.19207
11
5.60631
21
-4.19434
0
LINE
8
BLACK
6
CONTINUOUS
10
5.60631
20
-4.19434
11
5.60614
21
-4.19535
0
LINE
8
BLACK
6
CONTINUOUS
10
5.60614
20
-4.19535
11
5.60484
21
-4.1969
0
LINE
8
BLACK
6
CONTINUOUS
10
5.60484
20
-4.1969
11
5.60285
21
-4.19725
0
LINE
8
BLACK
6
CONTINUOUS
10
5.60285
20
-4.19725
11
5.6011
21
-4.19624
0
LINE
8
BLACK
6
CONTINUOUS
10
5.6011
20
-4.19624
11
5.60041
21
-4.19434
0
LINE
8
BLACK
6
CONTINUOUS
10
5.60041
20
-4.19434
11
5.60041
21
-4.1917
0
LINE
8
BLACK
6
CONTINUOUS
10
5.60041
20
-4.1917
11
5.59916
21
-4.19145
0
LINE
8
BLACK
6
CONTINUOUS
10
5.59916
20
-4.19145
11
5.59353
21
-4.18863
0
LINE
8
BLACK
6
CONTINUOUS
10
5.59353
20
-4.18863
11
5.59282
21
-4.188
0
LINE
8
BLACK
6
CONTINUOUS
10
5.59282
20
-4.188
11
5.592
21
-4.18753
0
LINE
8
BLACK
6
CONTINUOUS
10
5.592
20
-4.18753
11
5.58919
21
-4.18472
0
LINE
8
BLACK
6
CONTINUOUS
10
5.58919
20
-4.18472
11
5.58779
21
-4.1823
0
LINE
8
BLACK
6
CONTINUOUS
10
5.58779
20
-4.1823
11
5.57184
21
-4.1823
0
LINE
8
BLACK
6
CONTINUOUS
10
5.57184
20
-4.1823
11
5.56661
21
-4.18753
0
LINE
8
BLACK
6
CONTINUOUS
10
5.56661
20
-4.18753
11
5.56543
21
-4.18821
0
LINE
8
BLACK
6
CONTINUOUS
10
5.56543
20
-4.18821
11
5.5643
21
-4.18895
0
LINE
8
BLACK
6
CONTINUOUS
10
5.5643
20
-4.18895
11
5.55586
21
-4.19177
0
LINE
8
BLACK
6
CONTINUOUS
10
5.55586
20
-4.19177
11
5.55491
21
-4.19182
0
LINE
8
BLACK
6
CONTINUOUS
10
5.55491
20
-4.19182
11
5.55399
21
-4.19207
0
LINE
8
BLACK
6
CONTINUOUS
10
5.55399
20
-4.19207
11
5.54837
21
-4.19207
0
LINE
8
BLACK
6
CONTINUOUS
10
5.54837
20
-4.19207
11
5.54542
21
-4.19128
0
LINE
8
BLACK
6
CONTINUOUS
10
5.54542
20
-4.19128
11
5.54325
21
-4.18912
0
LINE
8
BLACK
6
CONTINUOUS
10
5.54325
20
-4.18912
11
5.54246
21
-4.18616
0
LINE
8
BLACK
6
CONTINUOUS
10
5.54246
20
-4.18616
11
5.54325
21
-4.18321
0
LINE
8
BLACK
6
CONTINUOUS
10
5.54325
20
-4.18321
11
5.54542
21
-4.18105
0
LINE
8
BLACK
6
CONTINUOUS
10
5.54542
20
-4.18105
11
5.54837
21
-4.18026
0
LINE
8
BLACK
6
CONTINUOUS
10
5.54837
20
-4.18026
11
5.55303
21
-4.18026
0
LINE
8
BLACK
6
CONTINUOUS
10
5.55303
20
-4.18026
11
5.55924
21
-4.17819
0
LINE
8
BLACK
6
CONTINUOUS
10
5.55924
20
-4.17819
11
5.56289
21
-4.17454
0
LINE
8
BLACK
6
CONTINUOUS
10
5.56289
20
-4.17454
11
5.56496
21
-4.16833
0
LINE
8
BLACK
6
CONTINUOUS
10
5.56496
20
-4.16833
11
5.56496
21
-4.16699
0
LINE
8
BLACK
6
CONTINUOUS
10
5.56496
20
-4.16699
11
5.56348
21
-4.16725
0
LINE
8
BLACK
6
CONTINUOUS
10
5.56348
20
-4.16725
11
5.56173
21
-4.16624
0
LINE
8
BLACK
6
CONTINUOUS
10
5.56173
20
-4.16624
11
5.56104
21
-4.16435
0
LINE
8
BLACK
6
CONTINUOUS
10
5.56104
20
-4.16435
11
5.56104
21
-4.13997
0
LINE
8
BLACK
6
CONTINUOUS
10
5.56104
20
-4.13997
11
5.56112
21
-4.13954
0
LINE
8
BLACK
6
CONTINUOUS
10
5.56112
20
-4.13954
11
5.56109
21
-4.1394
0
LINE
8
BLACK
6
CONTINUOUS
10
5.56109
20
-4.1394
11
5.56116
21
-4.1393
0
LINE
8
BLACK
6
CONTINUOUS
10
5.56116
20
-4.1393
11
5.56122
21
-4.13896
0
LINE
8
BLACK
6
CONTINUOUS
10
5.56122
20
-4.13896
11
5.56173
21
-4.13835
0
LINE
8
BLACK
6
CONTINUOUS
10
5.56173
20
-4.13835
11
5.56214
21
-4.13767
0
LINE
8
BLACK
6
CONTINUOUS
10
5.56214
20
-4.13767
11
5.56236
21
-4.1376
0
LINE
8
BLACK
6
CONTINUOUS
10
5.56236
20
-4.1376
11
5.56251
21
-4.13742
0
LINE
8
BLACK
6
CONTINUOUS
10
5.56251
20
-4.13742
11
5.5633
21
-4.13728
0
LINE
8
BLACK
6
CONTINUOUS
10
5.5633
20
-4.13728
11
5.56405
21
-4.13702
0
LINE
8
BLACK
6
CONTINUOUS
10
5.56405
20
-4.13702
11
5.56427
21
-4.13711
0
LINE
8
BLACK
6
CONTINUOUS
10
5.56427
20
-4.13711
11
5.5645
21
-4.13707
0
LINE
8
BLACK
6
CONTINUOUS
10
5.5645
20
-4.13707
11
5.56496
21
-4.13733
0
LINE
8
BLACK
6
CONTINUOUS
10
5.56496
20
-4.13733
11
5.56496
21
-4.12711
0
LINE
8
BLACK
6
CONTINUOUS
10
5.56496
20
-4.12711
11
5.56575
21
-4.12416
0
LINE
8
BLACK
6
CONTINUOUS
10
5.56575
20
-4.12416
11
5.56791
21
-4.12199
0
LINE
8
BLACK
6
CONTINUOUS
10
5.56791
20
-4.12199
11
5.57087
21
-4.1212
0
LINE
8
BLACK
6
CONTINUOUS
10
5.57087
20
-4.1212
11
5.57382
21
-4.12199
0
LINE
8
BLACK
6
CONTINUOUS
10
5.57382
20
-4.12199
11
5.57598
21
-4.12416
0
LINE
8
BLACK
6
CONTINUOUS
10
5.57598
20
-4.12416
11
5.57677
21
-4.12711
0
LINE
8
BLACK
6
CONTINUOUS
10
5.57677
20
-4.12711
11
5.57677
21
-4.14531
0
LINE
8
BLACK
6
CONTINUOUS
10
5.57677
20
-4.14531
11
5.57822
21
-4.1424
0
LINE
8
BLACK
6
CONTINUOUS
10
5.57822
20
-4.1424
11
5.57875
21
-4.14169
0
LINE
8
BLACK
6
CONTINUOUS
10
5.57875
20
-4.14169
11
5.57878
21
-4.14164
0
LINE
8
BLACK
6
CONTINUOUS
10
5.57878
20
-4.14164
11
5.58065
21
-4.13976
0
LINE
8
BLACK
6
CONTINUOUS
10
5.58065
20
-4.13976
11
5.58137
21
-4.13925
0
LINE
8
BLACK
6
CONTINUOUS
10
5.58137
20
-4.13925
11
5.58142
21
-4.13921
0
LINE
8
BLACK
6
CONTINUOUS
10
5.58142
20
-4.13921
11
5.58517
21
-4.13733
0
LINE
8
BLACK
6
CONTINUOUS
10
5.58517
20
-4.13733
11
5.58615
21
-4.13704
0
LINE
8
BLACK
6
CONTINUOUS
10
5.58615
20
-4.13704
11
5.58632
21
-4.13708
0
LINE
8
BLACK
6
CONTINUOUS
10
5.58632
20
-4.13708
11
5.58649
21
-4.13702
0
LINE
8
BLACK
6
CONTINUOUS
10
5.58649
20
-4.13702
11
5.59586
21
-4.13702
0
LINE
8
BLACK
6
CONTINUOUS
10
5.59586
20
-4.13702
11
5.59687
21
-4.1372
0
LINE
8
BLACK
6
CONTINUOUS
10
5.59687
20
-4.1372
11
5.59701
21
-4.13731
0
LINE
8
BLACK
6
CONTINUOUS
10
5.59701
20
-4.13731
11
5.59718
21
-4.13733
0
LINE
8
BLACK
6
CONTINUOUS
10
5.59718
20
-4.13733
11
5.60093
21
-4.13921
0
LINE
8
BLACK
6
CONTINUOUS
10
5.60093
20
-4.13921
11
5.60164
21
-4.13973
0
LINE
8
BLACK
6
CONTINUOUS
10
5.60164
20
-4.13973
11
5.6017
21
-4.13976
0
LINE
8
BLACK
6
CONTINUOUS
10
5.6017
20
-4.13976
11
5.60357
21
-4.14164
0
LINE
8
BLACK
6
CONTINUOUS
10
5.60357
20
-4.14164
11
5.60408
21
-4.14236
0
LINE
8
BLACK
6
CONTINUOUS
10
5.60408
20
-4.14236
11
5.60413
21
-4.1424
0
LINE
8
BLACK
6
CONTINUOUS
10
5.60413
20
-4.1424
11
5.60579
21
-4.14572
0
LINE
8
BLACK
6
CONTINUOUS
10
5.60579
20
-4.14572
11
5.60579
21
-4.14572
0
LINE
8
BLACK
6
CONTINUOUS
10
5.60579
20
-4.14572
11
5.61691
21
-4.13301
0
LINE
8
BLACK
6
CONTINUOUS
10
5.61691
20
-4.13301
11
5.59336
21
-4.13301
0
LINE
8
BLACK
6
CONTINUOUS
10
5.59336
20
-4.13301
11
5.59041
21
-4.13222
0
LINE
8
BLACK
6
CONTINUOUS
10
5.59041
20
-4.13222
11
5.58825
21
-4.13006
0
LINE
8
BLACK
6
CONTINUOUS
10
5.58825
20
-4.13006
11
5.58746
21
-4.12711
0
LINE
8
BLACK
6
CONTINUOUS
10
5.58746
20
-4.12711
11
5.58825
21
-4.12416
0
LINE
8
BLACK
6
CONTINUOUS
10
5.58825
20
-4.12416
11
5.59041
21
-4.12199
0
LINE
8
BLACK
6
CONTINUOUS
10
5.59041
20
-4.12199
11
5.59336
21
-4.1212
0
LINE
8
BLACK
6
CONTINUOUS
10
5.59336
20
-4.1212
11
5.62992
21
-4.1212
0
LINE
8
BLACK
6
CONTINUOUS
10
5.62992
20
-4.1212
11
5.63048
21
-4.12135
0
LINE
8
BLACK
6
CONTINUOUS
10
5.58719
20
-4.14293
11
5.58449
21
-4.14428
0
LINE
8
BLACK
6
CONTINUOUS
10
5.58449
20
-4.14428
11
5.58329
21
-4.14547
0
LINE
8
BLACK
6
CONTINUOUS
10
5.58329
20
-4.14547
11
5.58194
21
-4.14817
0
LINE
8
BLACK
6
CONTINUOUS
10
5.58194
20
-4.14817
11
5.58194
21
-4.1531
0
LINE
8
BLACK
6
CONTINUOUS
10
5.58194
20
-4.1531
11
5.58187
21
-4.15353
0
LINE
8
BLACK
6
CONTINUOUS
10
5.58187
20
-4.15353
11
5.58189
21
-4.15367
0
LINE
8
BLACK
6
CONTINUOUS
10
5.58189
20
-4.15367
11
5.58182
21
-4.15377
0
LINE
8
BLACK
6
CONTINUOUS
10
5.58182
20
-4.15377
11
5.58176
21
-4.15411
0
LINE
8
BLACK
6
CONTINUOUS
10
5.58176
20
-4.15411
11
5.58125
21
-4.15472
0
LINE
8
BLACK
6
CONTINUOUS
10
5.58125
20
-4.15472
11
5.58084
21
-4.1554
0
LINE
8
BLACK
6
CONTINUOUS
10
5.58084
20
-4.1554
11
5.58062
21
-4.15547
0
LINE
8
BLACK
6
CONTINUOUS
10
5.58062
20
-4.15547
11
5.58047
21
-4.15565
0
LINE
8
BLACK
6
CONTINUOUS
10
5.58047
20
-4.15565
11
5.57968
21
-4.15579
0
LINE
8
BLACK
6
CONTINUOUS
10
5.57968
20
-4.15579
11
5.57893
21
-4.15605
0
LINE
8
BLACK
6
CONTINUOUS
10
5.57893
20
-4.15605
11
5.57871
21
-4.15596
0
LINE
8
BLACK
6
CONTINUOUS
10
5.57871
20
-4.15596
11
5.57848
21
-4.156
0
LINE
8
BLACK
6
CONTINUOUS
10
5.57848
20
-4.156
11
5.57779
21
-4.15561
0
LINE
8
BLACK
6
CONTINUOUS
10
5.57779
20
-4.15561
11
5.57705
21
-4.15532
0
LINE
8
BLACK
6
CONTINUOUS
10
5.57705
20
-4.15532
11
5.57677
21
-4.15508
0
LINE
8
BLACK
6
CONTINUOUS
10
5.57677
20
-4.15508
11
5.57677
21
-4.16929
0
LINE
8
BLACK
6
CONTINUOUS
10
5.57677
20
-4.16929
11
5.57653
21
-4.17021
0
LINE
8
BLACK
6
CONTINUOUS
10
5.57653
20
-4.17021
11
5.57647
21
-4.17116
0
LINE
8
BLACK
6
CONTINUOUS
10
5.57647
20
-4.17116
11
5.57472
21
-4.17639
0
LINE
8
BLACK
6
CONTINUOUS
10
5.57472
20
-4.17639
11
5.58917
21
-4.17639
0
LINE
8
BLACK
6
CONTINUOUS
10
5.58917
20
-4.17639
11
5.58919
21
-4.17636
0
LINE
8
BLACK
6
CONTINUOUS
10
5.58919
20
-4.17636
11
5.59183
21
-4.17484
0
LINE
8
BLACK
6
CONTINUOUS
10
5.59183
20
-4.17484
11
5.59489
21
-4.17484
0
LINE
8
BLACK
6
CONTINUOUS
10
5.59489
20
-4.17484
11
5.59754
21
-4.17636
0
LINE
8
BLACK
6
CONTINUOUS
10
5.59754
20
-4.17636
11
5.59967
21
-4.1785
0
LINE
8
BLACK
6
CONTINUOUS
10
5.59967
20
-4.1785
11
5.60319
21
-4.18026
0
LINE
8
BLACK
6
CONTINUOUS
10
5.60319
20
-4.18026
11
5.61728
21
-4.18026
0
LINE
8
BLACK
6
CONTINUOUS
10
5.61728
20
-4.18026
11
5.6208
21
-4.1785
0
LINE
8
BLACK
6
CONTINUOUS
10
5.6208
20
-4.1785
11
5.62226
21
-4.17704
0
LINE
8
BLACK
6
CONTINUOUS
10
5.62226
20
-4.17704
11
5.62402
21
-4.17352
0
LINE
8
BLACK
6
CONTINUOUS
10
5.62402
20
-4.17352
11
5.62402
21
-4.16225
0
LINE
8
BLACK
6
CONTINUOUS
10
5.62402
20
-4.16225
11
5.62226
21
-4.15873
0
LINE
8
BLACK
6
CONTINUOUS
10
5.62226
20
-4.15873
11
5.6208
21
-4.15727
0
LINE
8
BLACK
6
CONTINUOUS
10
5.6208
20
-4.15727
11
5.61728
21
-4.15551
0
LINE
8
BLACK
6
CONTINUOUS
10
5.61728
20
-4.15551
11
5.61024
21
-4.15551
0
LINE
8
BLACK
6
CONTINUOUS
10
5.61024
20
-4.15551
11
5.60967
21
-4.15536
0
LINE
8
BLACK
6
CONTINUOUS
10
5.60967
20
-4.15536
11
5.60909
21
-4.1554
0
LINE
8
BLACK
6
CONTINUOUS
10
5.60909
20
-4.1554
11
5.60822
21
-4.15497
0
LINE
8
BLACK
6
CONTINUOUS
10
5.60822
20
-4.15497
11
5.60728
21
-4.15472
0
LINE
8
BLACK
6
CONTINUOUS
10
5.60728
20
-4.15472
11
5.60687
21
-4.15431
0
LINE
8
BLACK
6
CONTINUOUS
10
5.60687
20
-4.15431
11
5.60635
21
-4.15405
0
LINE
8
BLACK
6
CONTINUOUS
10
5.60635
20
-4.15405
11
5.60631
21
-4.154
0
LINE
8
BLACK
6
CONTINUOUS
10
5.60631
20
-4.154
11
5.60631
21
-4.15872
0
LINE
8
BLACK
6
CONTINUOUS
10
5.60631
20
-4.15872
11
5.60614
21
-4.15973
0
LINE
8
BLACK
6
CONTINUOUS
10
5.60614
20
-4.15973
11
5.60602
21
-4.15987
0
LINE
8
BLACK
6
CONTINUOUS
10
5.60602
20
-4.15987
11
5.606
21
-4.16004
0
LINE
8
BLACK
6
CONTINUOUS
10
5.606
20
-4.16004
11
5.60413
21
-4.16379
0
LINE
8
BLACK
6
CONTINUOUS
10
5.60413
20
-4.16379
11
5.6036
21
-4.1645
0
LINE
8
BLACK
6
CONTINUOUS
10
5.6036
20
-4.1645
11
5.60357
21
-4.16456
0
LINE
8
BLACK
6
CONTINUOUS
10
5.60357
20
-4.16456
11
5.6017
21
-4.16643
0
LINE
8
BLACK
6
CONTINUOUS
10
5.6017
20
-4.16643
11
5.60086
21
-4.16702
0
LINE
8
BLACK
6
CONTINUOUS
10
5.60086
20
-4.16702
11
5.59885
21
-4.1672
0
LINE
8
BLACK
6
CONTINUOUS
10
5.59885
20
-4.1672
11
5.59719
21
-4.16604
0
LINE
8
BLACK
6
CONTINUOUS
10
5.59719
20
-4.16604
11
5.59667
21
-4.16409
0
LINE
8
BLACK
6
CONTINUOUS
10
5.59667
20
-4.16409
11
5.59752
21
-4.16226
0
LINE
8
BLACK
6
CONTINUOUS
10
5.59752
20
-4.16226
11
5.59906
21
-4.16072
0
LINE
8
BLACK
6
CONTINUOUS
10
5.59906
20
-4.16072
11
5.60041
21
-4.15802
0
LINE
8
BLACK
6
CONTINUOUS
10
5.60041
20
-4.15802
11
5.60041
21
-4.14817
0
LINE
8
BLACK
6
CONTINUOUS
10
5.60041
20
-4.14817
11
5.59906
21
-4.14547
0
LINE
8
BLACK
6
CONTINUOUS
10
5.59906
20
-4.14547
11
5.59786
21
-4.14428
0
LINE
8
BLACK
6
CONTINUOUS
10
5.59786
20
-4.14428
11
5.59517
21
-4.14293
0
LINE
8
BLACK
6
CONTINUOUS
10
5.59517
20
-4.14293
11
5.58719
21
-4.14293
0
LINE
8
BLACK
6
CONTINUOUS
10
4.24306
20
-4.79261
11
4.24248
21
-4.79122
0
LINE
8
BLACK
6
CONTINUOUS
10
4.24248
20
-4.79122
11
4.24248
21
-3.53122
0
LINE
8
BLACK
6
CONTINUOUS
10
4.24248
20
-3.53122
11
4.24306
21
-3.52983
0
LINE
8
BLACK
6
CONTINUOUS
10
4.24306
20
-3.52983
11
4.24445
21
-3.52925
0
LINE
8
BLACK
6
CONTINUOUS
10
4.24445
20
-3.52925
11
4.57445
21
-3.52925
0
LINE
8
BLACK
6
CONTINUOUS
10
4.57445
20
-3.52925
11
4.57584
21
-3.52983
0
LINE
8
BLACK
6
CONTINUOUS
10
4.57584
20
-3.52983
11
4.57642
21
-3.53122
0
LINE
8
BLACK
6
CONTINUOUS
10
4.57642
20
-3.53122
11
4.57642
21
-4.79122
0
LINE
8
BLACK
6
CONTINUOUS
10
4.57642
20
-4.79122
11
4.57584
21
-4.79261
0
LINE
8
BLACK
6
CONTINUOUS
10
4.57584
20
-4.79261
11
4.57445
21
-4.79319
0
LINE
8
BLACK
6
CONTINUOUS
10
4.57445
20
-4.79319
11
4.24445
21
-4.79319
0
LINE
8
BLACK
6
CONTINUOUS
10
4.24445
20
-4.79319
11
4.24306
21
-4.79261
0
LINE
8
BLACK
6
CONTINUOUS
10
4.24642
20
-3.53319
11
4.24642
21
-4.78925
0
LINE
8
BLACK
6
CONTINUOUS
10
4.24642
20
-4.78925
11
4.57248
21
-4.78925
0
LINE
8
BLACK
6
CONTINUOUS
10
4.57248
20
-4.78925
11
4.57248
21
-3.53319
0
LINE
8
BLACK
6
CONTINUOUS
10
4.57248
20
-3.53319
11
4.24642
21
-3.53319
0
LINE
8
BLACK
6
CONTINUOUS
10
4.42526
20
-4.12711
11
4.44896
21
-4.12711
0
LINE
8
BLACK
6
CONTINUOUS
10
4.44896
20
-4.12711
11
4.45191
21
-4.1279
0
LINE
8
BLACK
6
CONTINUOUS
10
4.45191
20
-4.1279
11
4.45407
21
-4.13006
0
LINE
8
BLACK
6
CONTINUOUS
10
4.45407
20
-4.13006
11
4.45486
21
-4.13301
0
LINE
8
BLACK
6
CONTINUOUS
10
4.45486
20
-4.13301
11
4.45407
21
-4.13597
0
LINE
8
BLACK
6
CONTINUOUS
10
4.45407
20
-4.13597
11
4.45191
21
-4.13813
0
LINE
8
BLACK
6
CONTINUOUS
10
4.45191
20
-4.13813
11
4.44896
21
-4.13892
0
LINE
8
BLACK
6
CONTINUOUS
10
4.44896
20
-4.13892
11
4.43521
21
-4.13892
0
LINE
8
BLACK
6
CONTINUOUS
10
4.43521
20
-4.13892
11
4.43521
21
-4.14685
0
LINE
8
BLACK
6
CONTINUOUS
10
4.43521
20
-4.14685
11
4.43503
21
-4.14786
0
LINE
8
BLACK
6
CONTINUOUS
10
4.43503
20
-4.14786
11
4.43492
21
-4.14799
0
LINE
8
BLACK
6
CONTINUOUS
10
4.43492
20
-4.14799
11
4.4349
21
-4.14817
0
LINE
8
BLACK
6
CONTINUOUS
10
4.4349
20
-4.14817
11
4.43418
21
-4.14961
0
LINE
8
BLACK
6
CONTINUOUS
10
4.43418
20
-4.14961
11
4.44052
21
-4.14961
0
LINE
8
BLACK
6
CONTINUOUS
10
4.44052
20
-4.14961
11
4.44183
21
-4.14996
0
LINE
8
BLACK
6
CONTINUOUS
10
4.44183
20
-4.14996
11
4.44316
21
-4.15023
0
LINE
8
BLACK
6
CONTINUOUS
10
4.44316
20
-4.15023
11
4.44879
21
-4.15304
0
LINE
8
BLACK
6
CONTINUOUS
10
4.44879
20
-4.15304
11
4.4495
21
-4.15367
0
LINE
8
BLACK
6
CONTINUOUS
10
4.4495
20
-4.15367
11
4.45032
21
-4.15415
0
LINE
8
BLACK
6
CONTINUOUS
10
4.45032
20
-4.15415
11
4.45314
21
-4.15696
0
LINE
8
BLACK
6
CONTINUOUS
10
4.45314
20
-4.15696
11
4.45361
21
-4.15778
0
LINE
8
BLACK
6
CONTINUOUS
10
4.45361
20
-4.15778
11
4.45424
21
-4.1585
0
LINE
8
BLACK
6
CONTINUOUS
10
4.45424
20
-4.1585
11
4.45705
21
-4.16412
0
LINE
8
BLACK
6
CONTINUOUS
10
4.45705
20
-4.16412
11
4.45733
21
-4.16545
0
LINE
8
BLACK
6
CONTINUOUS
10
4.45733
20
-4.16545
11
4.45768
21
-4.16676
0
LINE
8
BLACK
6
CONTINUOUS
10
4.45768
20
-4.16676
11
4.45768
21
-4.18082
0
LINE
8
BLACK
6
CONTINUOUS
10
4.45768
20
-4.18082
11
4.45733
21
-4.18213
0
LINE
8
BLACK
6
CONTINUOUS
10
4.45733
20
-4.18213
11
4.45705
21
-4.18346
0
LINE
8
BLACK
6
CONTINUOUS
10
4.45705
20
-4.18346
11
4.45424
21
-4.18909
0
LINE
8
BLACK
6
CONTINUOUS
10
4.45424
20
-4.18909
11
4.45361
21
-4.1898
0
LINE
8
BLACK
6
CONTINUOUS
10
4.45361
20
-4.1898
11
4.45314
21
-4.19062
0
LINE
8
BLACK
6
CONTINUOUS
10
4.45314
20
-4.19062
11
4.45032
21
-4.19343
0
LINE
8
BLACK
6
CONTINUOUS
10
4.45032
20
-4.19343
11
4.4495
21
-4.19391
0
LINE
8
BLACK
6
CONTINUOUS
10
4.4495
20
-4.19391
11
4.44879
21
-4.19454
0
LINE
8
BLACK
6
CONTINUOUS
10
4.44879
20
-4.19454
11
4.44316
21
-4.19735
0
LINE
8
BLACK
6
CONTINUOUS
10
4.44316
20
-4.19735
11
4.44183
21
-4.19762
0
LINE
8
BLACK
6
CONTINUOUS
10
4.44183
20
-4.19762
11
4.44052
21
-4.19798
0
LINE
8
BLACK
6
CONTINUOUS
10
4.44052
20
-4.19798
11
4.42646
21
-4.19798
0
LINE
8
BLACK
6
CONTINUOUS
10
4.42646
20
-4.19798
11
4.42515
21
-4.19762
0
LINE
8
BLACK
6
CONTINUOUS
10
4.42515
20
-4.19762
11
4.42382
21
-4.19735
0
LINE
8
BLACK
6
CONTINUOUS
10
4.42382
20
-4.19735
11
4.4182
21
-4.19454
0
LINE
8
BLACK
6
CONTINUOUS
10
4.4182
20
-4.19454
11
4.41749
21
-4.19391
0
LINE
8
BLACK
6
CONTINUOUS
10
4.41749
20
-4.19391
11
4.41666
21
-4.19343
0
LINE
8
BLACK
6
CONTINUOUS
10
4.41666
20
-4.19343
11
4.41385
21
-4.19062
0
LINE
8
BLACK
6
CONTINUOUS
10
4.41385
20
-4.19062
11
4.41232
21
-4.18797
0
LINE
8
BLACK
6
CONTINUOUS
10
4.41232
20
-4.18797
11
4.41232
21
-4.18492
0
LINE
8
BLACK
6
CONTINUOUS
10
4.41232
20
-4.18492
11
4.41385
21
-4.18227
0
LINE
8
BLACK
6
CONTINUOUS
10
4.41385
20
-4.18227
11
4.4165
21
-4.18074
0
LINE
8
BLACK
6
CONTINUOUS
10
4.4165
20
-4.18074
11
4.41955
21
-4.18074
0
LINE
8
BLACK
6
CONTINUOUS
10
4.41955
20
-4.18074
11
4.4222
21
-4.18227
0
LINE
8
BLACK
6
CONTINUOUS
10
4.4222
20
-4.18227
11
4.42434
21
-4.1844
0
LINE
8
BLACK
6
CONTINUOUS
10
4.42434
20
-4.1844
11
4.42786
21
-4.18616
0
LINE
8
BLACK
6
CONTINUOUS
10
4.42786
20
-4.18616
11
4.42997
21
-4.18616
0
LINE
8
BLACK
6
CONTINUOUS
10
4.42997
20
-4.18616
11
4.42931
21
-4.18434
0
LINE
8
BLACK
6
CONTINUOUS
10
4.42931
20
-4.18434
11
4.42931
21
-4.18107
0
LINE
8
BLACK
6
CONTINUOUS
10
4.42931
20
-4.18107
11
4.4278
21
-4.17656
0
LINE
8
BLACK
6
CONTINUOUS
10
4.4278
20
-4.17656
11
4.42504
21
-4.1738
0
LINE
8
BLACK
6
CONTINUOUS
10
4.42504
20
-4.1738
11
4.42053
21
-4.1723
0
LINE
8
BLACK
6
CONTINUOUS
10
4.42053
20
-4.1723
11
4.39862
21
-4.1723
0
LINE
8
BLACK
6
CONTINUOUS
10
4.39862
20
-4.1723
11
4.39862
21
-4.1752
0
LINE
8
BLACK
6
CONTINUOUS
10
4.39862
20
-4.1752
11
4.39838
21
-4.17612
0
LINE
8
BLACK
6
CONTINUOUS
10
4.39838
20
-4.17612
11
4.39832
21
-4.17706
0
LINE
8
BLACK
6
CONTINUOUS
10
4.39832
20
-4.17706
11
4.39551
21
-4.1855
0
LINE
8
BLACK
6
CONTINUOUS
10
4.39551
20
-4.1855
11
4.39476
21
-4.18663
0
LINE
8
BLACK
6
CONTINUOUS
10
4.39476
20
-4.18663
11
4.39408
21
-4.18781
0
LINE
8
BLACK
6
CONTINUOUS
10
4.39408
20
-4.18781
11
4.38846
21
-4.19343
0
LINE
8
BLACK
6
CONTINUOUS
10
4.38846
20
-4.19343
11
4.38728
21
-4.19411
0
LINE
8
BLACK
6
CONTINUOUS
10
4.38728
20
-4.19411
11
4.38615
21
-4.19486
0
LINE
8
BLACK
6
CONTINUOUS
10
4.38615
20
-4.19486
11
4.37771
21
-4.19767
0
LINE
8
BLACK
6
CONTINUOUS
10
4.37771
20
-4.19767
11
4.37676
21
-4.19773
0
LINE
8
BLACK
6
CONTINUOUS
10
4.37676
20
-4.19773
11
4.37584
21
-4.19798
0
LINE
8
BLACK
6
CONTINUOUS
10
4.37584
20
-4.19798
11
4.37022
21
-4.19798
0
LINE
8
BLACK
6
CONTINUOUS
10
4.37022
20
-4.19798
11
4.36727
21
-4.19718
0
LINE
8
BLACK
6
CONTINUOUS
10
4.36727
20
-4.19718
11
4.3651
21
-4.19502
0
LINE
8
BLACK
6
CONTINUOUS
10
4.3651
20
-4.19502
11
4.36431
21
-4.19207
0
LINE
8
BLACK
6
CONTINUOUS
10
4.36431
20
-4.19207
11
4.3651
21
-4.18912
0
LINE
8
BLACK
6
CONTINUOUS
10
4.3651
20
-4.18912
11
4.36727
21
-4.18696
0
LINE
8
BLACK
6
CONTINUOUS
10
4.36727
20
-4.18696
11
4.37022
21
-4.18616
0
LINE
8
BLACK
6
CONTINUOUS
10
4.37022
20
-4.18616
11
4.37489
21
-4.18616
0
LINE
8
BLACK
6
CONTINUOUS
10
4.37489
20
-4.18616
11
4.38109
21
-4.1841
0
LINE
8
BLACK
6
CONTINUOUS
10
4.38109
20
-4.1841
11
4.38474
21
-4.18044
0
LINE
8
BLACK
6
CONTINUOUS
10
4.38474
20
-4.18044
11
4.38681
21
-4.17424
0
LINE
8
BLACK
6
CONTINUOUS
10
4.38681
20
-4.17424
11
4.38681
21
-4.13301
0
LINE
8
BLACK
6
CONTINUOUS
10
4.38681
20
-4.13301
11
4.3876
21
-4.13006
0
LINE
8
BLACK
6
CONTINUOUS
10
4.3876
20
-4.13006
11
4.38976
21
-4.1279
0
LINE
8
BLACK
6
CONTINUOUS
10
4.38976
20
-4.1279
11
4.39272
21
-4.12711
0
LINE
8
BLACK
6
CONTINUOUS
10
4.39272
20
-4.12711
11
4.39567
21
-4.1279
0
LINE
8
BLACK
6
CONTINUOUS
10
4.39567
20
-4.1279
11
4.39783
21
-4.13006
0
LINE
8
BLACK
6
CONTINUOUS
10
4.39783
20
-4.13006
11
4.39862
21
-4.13301
0
LINE
8
BLACK
6
CONTINUOUS
10
4.39862
20
-4.13301
11
4.39862
21
-4.1482
0
LINE
8
BLACK
6
CONTINUOUS
10
4.39862
20
-4.1482
11
4.40561
21
-4.1489
0
LINE
8
BLACK
6
CONTINUOUS
10
4.40561
20
-4.1489
11
4.40525
21
-4.14817
0
LINE
8
BLACK
6
CONTINUOUS
10
4.40525
20
-4.14817
11
4.40495
21
-4.14718
0
LINE
8
BLACK
6
CONTINUOUS
10
4.40495
20
-4.14718
11
4.40499
21
-4.14701
0
LINE
8
BLACK
6
CONTINUOUS
10
4.40499
20
-4.14701
11
4.40493
21
-4.14685
0
LINE
8
BLACK
6
CONTINUOUS
10
4.40493
20
-4.14685
11
4.40493
21
-4.13747
0
LINE
8
BLACK
6
CONTINUOUS
10
4.40493
20
-4.13747
11
4.40511
21
-4.13646
0
LINE
8
BLACK
6
CONTINUOUS
10
4.40511
20
-4.13646
11
4.40523
21
-4.13633
0
LINE
8
BLACK
6
CONTINUOUS
10
4.40523
20
-4.13633
11
4.40525
21
-4.13615
0
LINE
8
BLACK
6
CONTINUOUS
10
4.40525
20
-4.13615
11
4.40712
21
-4.1324
0
LINE
8
BLACK
6
CONTINUOUS
10
4.40712
20
-4.1324
11
4.40765
21
-4.13169
0
LINE
8
BLACK
6
CONTINUOUS
10
4.40765
20
-4.13169
11
4.40767
21
-4.13164
0
LINE
8
BLACK
6
CONTINUOUS
10
4.40767
20
-4.13164
11
4.40955
21
-4.12976
0
LINE
8
BLACK
6
CONTINUOUS
10
4.40955
20
-4.12976
11
4.41027
21
-4.12925
0
LINE
8
BLACK
6
CONTINUOUS
10
4.41027
20
-4.12925
11
4.41032
21
-4.12921
0
LINE
8
BLACK
6
CONTINUOUS
10
4.41032
20
-4.12921
11
4.41407
21
-4.12733
0
LINE
8
BLACK
6
CONTINUOUS
10
4.41407
20
-4.12733
11
4.41505
21
-4.12704
0
LINE
8
BLACK
6
CONTINUOUS
10
4.41505
20
-4.12704
11
4.41522
21
-4.12708
0
LINE
8
BLACK
6
CONTINUOUS
10
4.41522
20
-4.12708
11
4.41539
21
-4.12702
0
LINE
8
BLACK
6
CONTINUOUS
10
4.41539
20
-4.12702
11
4.42476
21
-4.12702
0
LINE
8
BLACK
6
CONTINUOUS
10
4.42476
20
-4.12702
11
4.42526
21
-4.12711
0
LINE
8
BLACK
6
CONTINUOUS
10
4.42786
20
-4.16142
11
4.42434
21
-4.16318
0
LINE
8
BLACK
6
CONTINUOUS
10
4.42434
20
-4.16318
11
4.4222
21
-4.16531
0
LINE
8
BLACK
6
CONTINUOUS
10
4.4222
20
-4.16531
11
4.42128
21
-4.16584
0
LINE
8
BLACK
6
CONTINUOUS
10
4.42128
20
-4.16584
11
4.42061
21
-4.16639
0
LINE
8
BLACK
6
CONTINUOUS
10
4.42061
20
-4.16639
11
4.42101
21
-4.16639
0
LINE
8
BLACK
6
CONTINUOUS
10
4.42101
20
-4.16639
11
4.42188
21
-4.16654
0
LINE
8
BLACK
6
CONTINUOUS
10
4.42188
20
-4.16654
11
4.42194
21
-4.16654
0
LINE
8
BLACK
6
CONTINUOUS
10
4.42194
20
-4.16654
11
4.42757
21
-4.16842
0
LINE
8
BLACK
6
CONTINUOUS
10
4.42757
20
-4.16842
11
4.42847
21
-4.16891
0
LINE
8
BLACK
6
CONTINUOUS
10
4.42847
20
-4.16891
11
4.42856
21
-4.16906
0
LINE
8
BLACK
6
CONTINUOUS
10
4.42856
20
-4.16906
11
4.42872
21
-4.16913
0
LINE
8
BLACK
6
CONTINUOUS
10
4.42872
20
-4.16913
11
4.43247
21
-4.17288
0
LINE
8
BLACK
6
CONTINUOUS
10
4.43247
20
-4.17288
11
4.43306
21
-4.17372
0
LINE
8
BLACK
6
CONTINUOUS
10
4.43306
20
-4.17372
11
4.43308
21
-4.1739
0
LINE
8
BLACK
6
CONTINUOUS
10
4.43308
20
-4.1739
11
4.43319
21
-4.17403
0
LINE
8
BLACK
6
CONTINUOUS
10
4.43319
20
-4.17403
11
4.43506
21
-4.17966
0
LINE
8
BLACK
6
CONTINUOUS
10
4.43506
20
-4.17966
11
4.43519
21
-4.18053
0
LINE
8
BLACK
6
CONTINUOUS
10
4.43519
20
-4.18053
11
4.43521
21
-4.18059
0
LINE
8
BLACK
6
CONTINUOUS
10
4.43521
20
-4.18059
11
4.43521
21
-4.18434
0
LINE
8
BLACK
6
CONTINUOUS
10
4.43521
20
-4.18434
11
4.43503
21
-4.18535
0
LINE
8
BLACK
6
CONTINUOUS
10
4.43503
20
-4.18535
11
4.43435
21
-4.18616
0
LINE
8
BLACK
6
CONTINUOUS
10
4.43435
20
-4.18616
11
4.43913
21
-4.18616
0
LINE
8
BLACK
6
CONTINUOUS
10
4.43913
20
-4.18616
11
4.44265
21
-4.1844
0
LINE
8
BLACK
6
CONTINUOUS
10
4.44265
20
-4.1844
11
4.44411
21
-4.18295
0
LINE
8
BLACK
6
CONTINUOUS
10
4.44411
20
-4.18295
11
4.44587
21
-4.17943
0
LINE
8
BLACK
6
CONTINUOUS
10
4.44587
20
-4.17943
11
4.44587
21
-4.16815
0
LINE
8
BLACK
6
CONTINUOUS
10
4.44587
20
-4.16815
11
4.44411
21
-4.16463
0
LINE
8
BLACK
6
CONTINUOUS
10
4.44411
20
-4.16463
11
4.44265
21
-4.16318
0
LINE
8
BLACK
6
CONTINUOUS
10
4.44265
20
-4.16318
11
4.43913
21
-4.16142
0
LINE
8
BLACK
6
CONTINUOUS
10
4.43913
20
-4.16142
11
4.42786
21
-4.16142
0
LINE
8
BLACK
6
CONTINUOUS
10
4.39862
20
-4.16639
11
4.41572
21
-4.16639
0
LINE
8
BLACK
6
CONTINUOUS
10
4.41572
20
-4.16639
11
4.41558
21
-4.16631
0
LINE
8
BLACK
6
CONTINUOUS
10
4.41558
20
-4.16631
11
4.41458
21
-4.16593
0
LINE
8
BLACK
6
CONTINUOUS
10
4.41458
20
-4.16593
11
4.41427
21
-4.16556
0
LINE
8
BLACK
6
CONTINUOUS
10
4.41427
20
-4.16556
11
4.41385
21
-4.16531
0
LINE
8
BLACK
6
CONTINUOUS
10
4.41385
20
-4.16531
11
4.41332
21
-4.16439
0
LINE
8
BLACK
6
CONTINUOUS
10
4.41332
20
-4.16439
11
4.41264
21
-4.16357
0
LINE
8
BLACK
6
CONTINUOUS
10
4.41264
20
-4.16357
11
4.41256
21
-4.16309
0
LINE
8
BLACK
6
CONTINUOUS
10
4.41256
20
-4.16309
11
4.41232
21
-4.16266
0
LINE
8
BLACK
6
CONTINUOUS
10
4.41232
20
-4.16266
11
4.41232
21
-4.1616
0
LINE
8
BLACK
6
CONTINUOUS
10
4.41232
20
-4.1616
11
4.41215
21
-4.16055
0
LINE
8
BLACK
6
CONTINUOUS
10
4.41215
20
-4.16055
11
4.4127
21
-4.15506
0
LINE
8
BLACK
6
CONTINUOUS
10
4.4127
20
-4.15506
11
4.41234
21
-4.15516
0
LINE
8
BLACK
6
CONTINUOUS
10
4.41234
20
-4.15516
11
4.41138
21
-4.15541
0
LINE
8
BLACK
6
CONTINUOUS
10
4.41138
20
-4.15541
11
4.41136
21
-4.1554
0
LINE
8
BLACK
6
CONTINUOUS
10
4.41136
20
-4.1554
11
4.41134
21
-4.15541
0
LINE
8
BLACK
6
CONTINUOUS
10
4.41134
20
-4.15541
11
4.39862
21
-4.15414
0
LINE
8
BLACK
6
CONTINUOUS
10
4.39862
20
-4.15414
11
4.39862
21
-4.16639
0
LINE
8
BLACK
6
CONTINUOUS
10
4.42618
20
-4.13892
11
4.42508
21
-4.14997
0
LINE
8
BLACK
6
CONTINUOUS
10
4.42508
20
-4.14997
11
4.42515
21
-4.14996
0
LINE
8
BLACK
6
CONTINUOUS
10
4.42515
20
-4.14996
11
4.42646
21
-4.14961
0
LINE
8
BLACK
6
CONTINUOUS
10
4.42646
20
-4.14961
11
4.4272
21
-4.14961
0
LINE
8
BLACK
6
CONTINUOUS
10
4.4272
20
-4.14961
11
4.42796
21
-4.14885
0
LINE
8
BLACK
6
CONTINUOUS
10
4.42796
20
-4.14885
11
4.42931
21
-4.14615
0
LINE
8
BLACK
6
CONTINUOUS
10
4.42931
20
-4.14615
11
4.42931
21
-4.13892
0
LINE
8
BLACK
6
CONTINUOUS
10
4.42931
20
-4.13892
11
4.42618
21
-4.13892
0
LINE
8
BLACK
6
CONTINUOUS
10
4.41339
20
-4.13428
11
4.41219
21
-4.13547
0
LINE
8
BLACK
6
CONTINUOUS
10
4.41219
20
-4.13547
11
4.41084
21
-4.13817
0
LINE
8
BLACK
6
CONTINUOUS
10
4.41084
20
-4.13817
11
4.41084
21
-4.14615
0
LINE
8
BLACK
6
CONTINUOUS
10
4.41084
20
-4.14615
11
4.41219
21
-4.14885
0
LINE
8
BLACK
6
CONTINUOUS
10
4.41219
20
-4.14885
11
4.41322
21
-4.14988
0
LINE
8
BLACK
6
CONTINUOUS
10
4.41322
20
-4.14988
11
4.41485
21
-4.13354
0
LINE
8
BLACK
6
CONTINUOUS
10
4.41485
20
-4.13354
11
4.41339
21
-4.13428
  0
ENDSEC
  0
EOF
