  0
SECTION
  2
HEADER
  9
$ANGBASE
  50
0.0
  9
$ANGDIR
  70
1
  9
$MEASUREMENT
  70
0
  0
ENDSEC
  0
SECTION
  2
TABLES
  0
TABLE
  2
LTYPE
  70
4
  0
LTYPE
  5
40F
  2
CONTINUOUS
  70
0
  3
Solid line
  72
65
  73
0
  40
0.0
  0
LTYPE
  5
410
  2
DASHDOT
 70
0
  3
Dash Dot ____ _ ____ _
 72
65
 73
4
 40
2.0
 49
1.25
 49
-0.25
 49
0.25
 49
-0.25
  0
LTYPE
  5
411
  2
DASHED
 70
0
  3
Dashed __ __ __ __ __
 72
65
 73
2
 40
0.75
 49
0.5
 49
-0.25
  0
LTYPE
  5
43B
  2
DOTTED
 70
0
  3
Dotted .  .  .  .
 72
65
 73
2
 40
0.2
 49
0.0
 49
-0.2
  0
ENDTAB
  0
TABLE
  2
STYLE
  70
4
  0
STYLE
  2
KICAD
  70
0
  40
0
  41
1
  42
1
  50
0
  71
0
  3
isocp.shx
  0
STYLE
  2
KICADB
  70
0
  40
0
  41
1
  42
1
  50
0
  71
0
  3
isocp.shx
  0
STYLE
  2
KICADI
  70
0
  40
0
  41
1
  42
1
  50
15
  71
0
  3
isocp.shx
  0
STYLE
  2
KICADBI
  70
0
  40
0
  41
1
  42
1
  50
15
  71
0
  3
isocp.shx
  0
ENDTAB
  0
TABLE
  2
LAYER
  70
1
  0
LAYER
  2
BLACK
  70
0
  62
7
  6
CONTINUOUS
  0
ENDTAB
  0
ENDSEC
  0
SECTION
  2
ENTITIES
0
LINE
8
BLACK
6
CONTINUOUS
10
3.87792
20
-4.97047
11
3.88197
21
-4.95704
0
LINE
8
BLACK
6
CONTINUOUS
10
3.88197
20
-4.95704
11
3.8875
21
-4.94415
0
LINE
8
BLACK
6
CONTINUOUS
10
3.8875
20
-4.94415
11
3.89442
21
-4.93196
0
LINE
8
BLACK
6
CONTINUOUS
10
3.89442
20
-4.93196
11
3.90267
21
-4.92062
0
LINE
8
BLACK
6
CONTINUOUS
10
3.90267
20
-4.92062
11
3.91212
21
-4.91026
0
LINE
8
BLACK
6
CONTINUOUS
10
3.91212
20
-4.91026
11
3.92267
21
-4.90103
0
LINE
8
BLACK
6
CONTINUOUS
10
3.92267
20
-4.90103
11
3.93419
21
-4.89302
0
LINE
8
BLACK
6
CONTINUOUS
10
3.93419
20
-4.89302
11
3.94652
21
-4.88635
0
LINE
8
BLACK
6
CONTINUOUS
10
3.94652
20
-4.88635
11
3.95952
21
-4.8811
0
LINE
8
BLACK
6
CONTINUOUS
10
3.95952
20
-4.8811
11
3.97303
21
-4.87733
0
LINE
8
BLACK
6
CONTINUOUS
10
3.97303
20
-4.87733
11
3.98687
21
-4.87509
0
LINE
8
BLACK
6
CONTINUOUS
10
3.98687
20
-4.87509
11
4.00088
21
-4.8744
0
LINE
8
BLACK
6
CONTINUOUS
10
4.00088
20
-4.8744
11
4.01487
21
-4.87528
0
LINE
8
BLACK
6
CONTINUOUS
10
4.01487
20
-4.87528
11
4.02868
21
-4.87772
0
LINE
8
BLACK
6
CONTINUOUS
10
4.02868
20
-4.87772
11
4.04213
21
-4.88168
0
LINE
8
BLACK
6
CONTINUOUS
10
4.04213
20
-4.88168
11
4.05506
21
-4.88711
0
LINE
8
BLACK
6
CONTINUOUS
10
4.05506
20
-4.88711
11
4.0673
21
-4.89395
0
LINE
8
BLACK
6
CONTINUOUS
10
4.0673
20
-4.89395
11
4.0787
21
-4.90212
0
LINE
8
BLACK
6
CONTINUOUS
10
4.0787
20
-4.90212
11
4.08912
21
-4.9115
0
LINE
8
BLACK
6
CONTINUOUS
10
4.08912
20
-4.9115
11
4.09843
21
-4.92198
0
LINE
8
BLACK
6
CONTINUOUS
10
4.09843
20
-4.92198
11
4.10651
21
-4.93344
0
LINE
8
BLACK
6
CONTINUOUS
10
4.10651
20
-4.93344
11
4.11327
21
-4.94573
0
LINE
8
BLACK
6
CONTINUOUS
10
4.11327
20
-4.94573
11
4.11861
21
-4.95869
0
LINE
8
BLACK
6
CONTINUOUS
10
4.11861
20
-4.95869
11
4.12248
21
-4.97217
0
LINE
8
BLACK
6
CONTINUOUS
10
4.12248
20
-4.97217
11
4.12482
21
-4.986
0
LINE
8
BLACK
6
CONTINUOUS
10
4.12482
20
-4.986
11
4.1256
21
-5
0
LINE
8
BLACK
6
CONTINUOUS
10
4.1256
20
-5
11
4.12555
21
-5.00351
0
LINE
8
BLACK
6
CONTINUOUS
10
4.12555
20
-5.00351
11
4.12438
21
-5.01748
0
LINE
8
BLACK
6
CONTINUOUS
10
4.12438
20
-5.01748
11
4.12165
21
-5.03124
0
LINE
8
BLACK
6
CONTINUOUS
10
4.12165
20
-5.03124
11
4.11741
21
-5.0446
0
LINE
8
BLACK
6
CONTINUOUS
10
4.11741
20
-5.0446
11
4.11171
21
-5.05741
0
LINE
8
BLACK
6
CONTINUOUS
10
4.11171
20
-5.05741
11
4.10461
21
-5.06951
0
LINE
8
BLACK
6
CONTINUOUS
10
4.10461
20
-5.06951
11
4.09622
21
-5.08073
0
LINE
8
BLACK
6
CONTINUOUS
10
4.09622
20
-5.08073
11
4.08662
21
-5.09096
0
LINE
8
BLACK
6
CONTINUOUS
10
4.08662
20
-5.09096
11
4.07594
21
-5.10004
0
LINE
8
BLACK
6
CONTINUOUS
10
4.07594
20
-5.10004
11
4.06431
21
-5.10789
0
LINE
8
BLACK
6
CONTINUOUS
10
4.06431
20
-5.10789
11
4.05189
21
-5.11438
0
LINE
8
BLACK
6
CONTINUOUS
10
4.05189
20
-5.11438
11
4.03881
21
-5.11945
0
LINE
8
BLACK
6
CONTINUOUS
10
4.03881
20
-5.11945
11
4.02526
21
-5.12303
0
LINE
8
BLACK
6
CONTINUOUS
10
4.02526
20
-5.12303
11
4.01138
21
-5.12508
0
LINE
8
BLACK
6
CONTINUOUS
10
4.01138
20
-5.12508
11
3.99737
21
-5.12557
0
LINE
8
BLACK
6
CONTINUOUS
10
3.99737
20
-5.12557
11
3.98339
21
-5.1245
0
LINE
8
BLACK
6
CONTINUOUS
10
3.98339
20
-5.1245
11
3.96961
21
-5.12187
0
LINE
8
BLACK
6
CONTINUOUS
10
3.96961
20
-5.12187
11
3.95622
21
-5.11772
0
LINE
8
BLACK
6
CONTINUOUS
10
3.95622
20
-5.11772
11
3.94337
21
-5.11211
0
LINE
8
BLACK
6
CONTINUOUS
10
3.94337
20
-5.11211
11
3.93123
21
-5.1051
0
LINE
8
BLACK
6
CONTINUOUS
10
3.93123
20
-5.1051
11
3.91994
21
-5.09678
0
LINE
8
BLACK
6
CONTINUOUS
10
3.91994
20
-5.09678
11
3.90965
21
-5.08725
0
LINE
8
BLACK
6
CONTINUOUS
10
3.90965
20
-5.08725
11
3.90049
21
-5.07663
0
LINE
8
BLACK
6
CONTINUOUS
10
3.90049
20
-5.07663
11
3.89257
21
-5.06506
0
LINE
8
BLACK
6
CONTINUOUS
10
3.89257
20
-5.06506
11
3.88598
21
-5.05268
0
LINE
8
BLACK
6
CONTINUOUS
10
3.88598
20
-5.05268
11
3.88082
21
-5.03965
0
LINE
8
BLACK
6
CONTINUOUS
10
3.88082
20
-5.03965
11
3.87714
21
-5.02611
0
LINE
8
BLACK
6
CONTINUOUS
10
3.87714
20
-5.02611
11
3.875
21
-5.01226
0
LINE
8
BLACK
6
CONTINUOUS
10
3.875
20
-5.01226
11
3.87441
21
-4.99825
0
LINE
8
BLACK
6
CONTINUOUS
10
3.87441
20
-4.99825
11
3.87453
21
-4.99652
0
LINE
8
BLACK
6
CONTINUOUS
10
3.87453
20
-4.99652
11
3.87539
21
-4.98426
0
LINE
8
BLACK
6
CONTINUOUS
10
3.87539
20
-4.98426
11
3.87792
21
-4.97047
0
LINE
8
BLACK
6
CONTINUOUS
10
3.8914
20
-5.0219
11
3.89463
21
-5.03424
0
LINE
8
BLACK
6
CONTINUOUS
10
3.89463
20
-5.03424
11
3.89927
21
-5.04612
0
LINE
8
BLACK
6
CONTINUOUS
10
3.89927
20
-5.04612
11
3.90524
21
-5.05739
0
LINE
8
BLACK
6
CONTINUOUS
10
3.90524
20
-5.05739
11
3.91246
21
-5.0679
0
LINE
8
BLACK
6
CONTINUOUS
10
3.91246
20
-5.0679
11
3.92085
21
-5.07751
0
LINE
8
BLACK
6
CONTINUOUS
10
3.92085
20
-5.07751
11
3.93028
21
-5.0861
0
LINE
8
BLACK
6
CONTINUOUS
10
3.93028
20
-5.0861
11
3.94064
21
-5.09354
0
LINE
8
BLACK
6
CONTINUOUS
10
3.94064
20
-5.09354
11
3.95178
21
-5.09974
0
LINE
8
BLACK
6
CONTINUOUS
10
3.95178
20
-5.09974
11
3.96357
21
-5.10463
0
LINE
8
BLACK
6
CONTINUOUS
10
3.96357
20
-5.10463
11
3.97583
21
-5.10812
0
LINE
8
BLACK
6
CONTINUOUS
10
3.97583
20
-5.10812
11
3.98842
21
-5.11018
0
LINE
8
BLACK
6
CONTINUOUS
10
3.98842
20
-5.11018
11
4.00116
21
-5.11078
0
LINE
8
BLACK
6
CONTINUOUS
10
4.00116
20
-5.11078
11
4.01389
21
-5.10991
0
LINE
8
BLACK
6
CONTINUOUS
10
4.01389
20
-5.10991
11
4.02643
21
-5.10759
0
LINE
8
BLACK
6
CONTINUOUS
10
4.02643
20
-5.10759
11
4.03862
21
-5.10384
0
LINE
8
BLACK
6
CONTINUOUS
10
4.03862
20
-5.10384
11
4.0503
21
-5.09871
0
LINE
8
BLACK
6
CONTINUOUS
10
4.0503
20
-5.09871
11
4.06131
21
-5.09228
0
LINE
8
BLACK
6
CONTINUOUS
10
4.06131
20
-5.09228
11
4.07151
21
-5.08462
0
LINE
8
BLACK
6
CONTINUOUS
10
4.07151
20
-5.08462
11
4.08076
21
-5.07584
0
LINE
8
BLACK
6
CONTINUOUS
10
4.08076
20
-5.07584
11
4.08894
21
-5.06605
0
LINE
8
BLACK
6
CONTINUOUS
10
4.08894
20
-5.06605
11
4.09594
21
-5.05539
0
LINE
8
BLACK
6
CONTINUOUS
10
4.09594
20
-5.05539
11
4.10168
21
-5.044
0
LINE
8
BLACK
6
CONTINUOUS
10
4.10168
20
-5.044
11
4.10606
21
-5.03202
0
LINE
8
BLACK
6
CONTINUOUS
10
4.10606
20
-5.03202
11
4.10904
21
-5.01962
0
LINE
8
BLACK
6
CONTINUOUS
10
4.10904
20
-5.01962
11
4.11057
21
-5.00696
0
LINE
8
BLACK
6
CONTINUOUS
10
4.11057
20
-5.00696
11
4.11079
21
-5
0
LINE
8
BLACK
6
CONTINUOUS
10
4.11079
20
-5
11
4.11005
21
-4.98727
0
LINE
8
BLACK
6
CONTINUOUS
10
4.11005
20
-4.98727
11
4.10786
21
-4.9747
0
LINE
8
BLACK
6
CONTINUOUS
10
4.10786
20
-4.9747
11
4.10424
21
-4.96247
0
LINE
8
BLACK
6
CONTINUOUS
10
4.10424
20
-4.96247
11
4.09923
21
-4.95074
0
LINE
8
BLACK
6
CONTINUOUS
10
4.09923
20
-4.95074
11
4.09291
21
-4.93966
0
LINE
8
BLACK
6
CONTINUOUS
10
4.09291
20
-4.93966
11
4.08536
21
-4.92938
0
LINE
8
BLACK
6
CONTINUOUS
10
4.08536
20
-4.92938
11
4.07668
21
-4.92004
0
LINE
8
BLACK
6
CONTINUOUS
10
4.07668
20
-4.92004
11
4.06698
21
-4.91175
0
LINE
8
BLACK
6
CONTINUOUS
10
4.06698
20
-4.91175
11
4.0564
21
-4.90464
0
LINE
8
BLACK
6
CONTINUOUS
10
4.0564
20
-4.90464
11
4.04506
21
-4.89879
0
LINE
8
BLACK
6
CONTINUOUS
10
4.04506
20
-4.89879
11
4.03313
21
-4.89428
0
LINE
8
BLACK
6
CONTINUOUS
10
4.03313
20
-4.89428
11
4.02076
21
-4.89117
0
LINE
8
BLACK
6
CONTINUOUS
10
4.02076
20
-4.89117
11
4.00811
21
-4.88951
0
LINE
8
BLACK
6
CONTINUOUS
10
4.00811
20
-4.88951
11
3.99536
21
-4.88931
0
LINE
8
BLACK
6
CONTINUOUS
10
3.99536
20
-4.88931
11
3.98267
21
-4.89058
0
LINE
8
BLACK
6
CONTINUOUS
10
3.98267
20
-4.89058
11
3.97021
21
-4.89329
0
LINE
8
BLACK
6
CONTINUOUS
10
3.97021
20
-4.89329
11
3.95814
21
-4.89743
0
LINE
8
BLACK
6
CONTINUOUS
10
3.95814
20
-4.89743
11
3.94663
21
-4.90292
0
LINE
8
BLACK
6
CONTINUOUS
10
3.94663
20
-4.90292
11
3.93582
21
-4.90969
0
LINE
8
BLACK
6
CONTINUOUS
10
3.93582
20
-4.90969
11
3.92587
21
-4.91767
0
LINE
8
BLACK
6
CONTINUOUS
10
3.92587
20
-4.91767
11
3.9169
21
-4.92673
0
LINE
8
BLACK
6
CONTINUOUS
10
3.9169
20
-4.92673
11
3.90903
21
-4.93677
0
LINE
8
BLACK
6
CONTINUOUS
10
3.90903
20
-4.93677
11
3.90236
21
-4.94765
0
LINE
8
BLACK
6
CONTINUOUS
10
3.90236
20
-4.94765
11
3.89699
21
-4.95922
0
LINE
8
BLACK
6
CONTINUOUS
10
3.89699
20
-4.95922
11
3.89299
21
-4.97133
0
LINE
8
BLACK
6
CONTINUOUS
10
3.89299
20
-4.97133
11
3.8904
21
-4.98382
0
LINE
8
BLACK
6
CONTINUOUS
10
3.8904
20
-4.98382
11
3.88927
21
-4.99652
0
LINE
8
BLACK
6
CONTINUOUS
10
3.88927
20
-4.99652
11
3.8896
21
-5.00927
0
LINE
8
BLACK
6
CONTINUOUS
10
3.8896
20
-5.00927
11
3.8914
21
-5.0219
0
LINE
8
BLACK
6
CONTINUOUS
10
5.87792
20
-4.97047
11
5.88197
21
-4.95704
0
LINE
8
BLACK
6
CONTINUOUS
10
5.88197
20
-4.95704
11
5.8875
21
-4.94415
0
LINE
8
BLACK
6
CONTINUOUS
10
5.8875
20
-4.94415
11
5.89442
21
-4.93196
0
LINE
8
BLACK
6
CONTINUOUS
10
5.89442
20
-4.93196
11
5.90267
21
-4.92062
0
LINE
8
BLACK
6
CONTINUOUS
10
5.90267
20
-4.92062
11
5.91212
21
-4.91026
0
LINE
8
BLACK
6
CONTINUOUS
10
5.91212
20
-4.91026
11
5.92267
21
-4.90103
0
LINE
8
BLACK
6
CONTINUOUS
10
5.92267
20
-4.90103
11
5.93419
21
-4.89302
0
LINE
8
BLACK
6
CONTINUOUS
10
5.93419
20
-4.89302
11
5.94652
21
-4.88635
0
LINE
8
BLACK
6
CONTINUOUS
10
5.94652
20
-4.88635
11
5.95952
21
-4.8811
0
LINE
8
BLACK
6
CONTINUOUS
10
5.95952
20
-4.8811
11
5.97303
21
-4.87733
0
LINE
8
BLACK
6
CONTINUOUS
10
5.97303
20
-4.87733
11
5.98687
21
-4.87509
0
LINE
8
BLACK
6
CONTINUOUS
10
5.98687
20
-4.87509
11
6.00088
21
-4.8744
0
LINE
8
BLACK
6
CONTINUOUS
10
6.00088
20
-4.8744
11
6.01487
21
-4.87528
0
LINE
8
BLACK
6
CONTINUOUS
10
6.01487
20
-4.87528
11
6.02868
21
-4.87772
0
LINE
8
BLACK
6
CONTINUOUS
10
6.02868
20
-4.87772
11
6.04213
21
-4.88168
0
LINE
8
BLACK
6
CONTINUOUS
10
6.04213
20
-4.88168
11
6.05506
21
-4.88711
0
LINE
8
BLACK
6
CONTINUOUS
10
6.05506
20
-4.88711
11
6.0673
21
-4.89395
0
LINE
8
BLACK
6
CONTINUOUS
10
6.0673
20
-4.89395
11
6.0787
21
-4.90212
0
LINE
8
BLACK
6
CONTINUOUS
10
6.0787
20
-4.90212
11
6.08912
21
-4.9115
0
LINE
8
BLACK
6
CONTINUOUS
10
6.08912
20
-4.9115
11
6.09843
21
-4.92198
0
LINE
8
BLACK
6
CONTINUOUS
10
6.09843
20
-4.92198
11
6.10651
21
-4.93344
0
LINE
8
BLACK
6
CONTINUOUS
10
6.10651
20
-4.93344
11
6.11327
21
-4.94573
0
LINE
8
BLACK
6
CONTINUOUS
10
6.11327
20
-4.94573
11
6.11861
21
-4.95869
0
LINE
8
BLACK
6
CONTINUOUS
10
6.11861
20
-4.95869
11
6.12248
21
-4.97217
0
LINE
8
BLACK
6
CONTINUOUS
10
6.12248
20
-4.97217
11
6.12482
21
-4.986
0
LINE
8
BLACK
6
CONTINUOUS
10
6.12482
20
-4.986
11
6.1256
21
-5
0
LINE
8
BLACK
6
CONTINUOUS
10
6.1256
20
-5
11
6.12555
21
-5.00351
0
LINE
8
BLACK
6
CONTINUOUS
10
6.12555
20
-5.00351
11
6.12438
21
-5.01748
0
LINE
8
BLACK
6
CONTINUOUS
10
6.12438
20
-5.01748
11
6.12165
21
-5.03124
0
LINE
8
BLACK
6
CONTINUOUS
10
6.12165
20
-5.03124
11
6.11741
21
-5.0446
0
LINE
8
BLACK
6
CONTINUOUS
10
6.11741
20
-5.0446
11
6.11171
21
-5.05741
0
LINE
8
BLACK
6
CONTINUOUS
10
6.11171
20
-5.05741
11
6.10461
21
-5.06951
0
LINE
8
BLACK
6
CONTINUOUS
10
6.10461
20
-5.06951
11
6.09622
21
-5.08073
0
LINE
8
BLACK
6
CONTINUOUS
10
6.09622
20
-5.08073
11
6.08662
21
-5.09096
0
LINE
8
BLACK
6
CONTINUOUS
10
6.08662
20
-5.09096
11
6.07594
21
-5.10004
0
LINE
8
BLACK
6
CONTINUOUS
10
6.07594
20
-5.10004
11
6.06431
21
-5.10789
0
LINE
8
BLACK
6
CONTINUOUS
10
6.06431
20
-5.10789
11
6.05189
21
-5.11438
0
LINE
8
BLACK
6
CONTINUOUS
10
6.05189
20
-5.11438
11
6.03881
21
-5.11945
0
LINE
8
BLACK
6
CONTINUOUS
10
6.03881
20
-5.11945
11
6.02526
21
-5.12303
0
LINE
8
BLACK
6
CONTINUOUS
10
6.02526
20
-5.12303
11
6.01138
21
-5.12508
0
LINE
8
BLACK
6
CONTINUOUS
10
6.01138
20
-5.12508
11
5.99737
21
-5.12557
0
LINE
8
BLACK
6
CONTINUOUS
10
5.99737
20
-5.12557
11
5.98339
21
-5.1245
0
LINE
8
BLACK
6
CONTINUOUS
10
5.98339
20
-5.1245
11
5.96961
21
-5.12187
0
LINE
8
BLACK
6
CONTINUOUS
10
5.96961
20
-5.12187
11
5.95622
21
-5.11772
0
LINE
8
BLACK
6
CONTINUOUS
10
5.95622
20
-5.11772
11
5.94337
21
-5.11211
0
LINE
8
BLACK
6
CONTINUOUS
10
5.94337
20
-5.11211
11
5.93123
21
-5.1051
0
LINE
8
BLACK
6
CONTINUOUS
10
5.93123
20
-5.1051
11
5.91994
21
-5.09678
0
LINE
8
BLACK
6
CONTINUOUS
10
5.91994
20
-5.09678
11
5.90965
21
-5.08725
0
LINE
8
BLACK
6
CONTINUOUS
10
5.90965
20
-5.08725
11
5.90049
21
-5.07663
0
LINE
8
BLACK
6
CONTINUOUS
10
5.90049
20
-5.07663
11
5.89257
21
-5.06506
0
LINE
8
BLACK
6
CONTINUOUS
10
5.89257
20
-5.06506
11
5.88598
21
-5.05268
0
LINE
8
BLACK
6
CONTINUOUS
10
5.88598
20
-5.05268
11
5.88082
21
-5.03965
0
LINE
8
BLACK
6
CONTINUOUS
10
5.88082
20
-5.03965
11
5.87714
21
-5.02611
0
LINE
8
BLACK
6
CONTINUOUS
10
5.87714
20
-5.02611
11
5.875
21
-5.01226
0
LINE
8
BLACK
6
CONTINUOUS
10
5.875
20
-5.01226
11
5.87441
21
-4.99825
0
LINE
8
BLACK
6
CONTINUOUS
10
5.87441
20
-4.99825
11
5.87453
21
-4.99652
0
LINE
8
BLACK
6
CONTINUOUS
10
5.87453
20
-4.99652
11
5.87539
21
-4.98426
0
LINE
8
BLACK
6
CONTINUOUS
10
5.87539
20
-4.98426
11
5.87792
21
-4.97047
0
LINE
8
BLACK
6
CONTINUOUS
10
5.8914
20
-5.0219
11
5.89463
21
-5.03424
0
LINE
8
BLACK
6
CONTINUOUS
10
5.89463
20
-5.03424
11
5.89927
21
-5.04612
0
LINE
8
BLACK
6
CONTINUOUS
10
5.89927
20
-5.04612
11
5.90524
21
-5.05739
0
LINE
8
BLACK
6
CONTINUOUS
10
5.90524
20
-5.05739
11
5.91246
21
-5.0679
0
LINE
8
BLACK
6
CONTINUOUS
10
5.91246
20
-5.0679
11
5.92085
21
-5.07751
0
LINE
8
BLACK
6
CONTINUOUS
10
5.92085
20
-5.07751
11
5.93028
21
-5.0861
0
LINE
8
BLACK
6
CONTINUOUS
10
5.93028
20
-5.0861
11
5.94064
21
-5.09354
0
LINE
8
BLACK
6
CONTINUOUS
10
5.94064
20
-5.09354
11
5.95178
21
-5.09974
0
LINE
8
BLACK
6
CONTINUOUS
10
5.95178
20
-5.09974
11
5.96357
21
-5.10463
0
LINE
8
BLACK
6
CONTINUOUS
10
5.96357
20
-5.10463
11
5.97583
21
-5.10812
0
LINE
8
BLACK
6
CONTINUOUS
10
5.97583
20
-5.10812
11
5.98842
21
-5.11018
0
LINE
8
BLACK
6
CONTINUOUS
10
5.98842
20
-5.11018
11
6.00116
21
-5.11078
0
LINE
8
BLACK
6
CONTINUOUS
10
6.00116
20
-5.11078
11
6.01389
21
-5.10991
0
LINE
8
BLACK
6
CONTINUOUS
10
6.01389
20
-5.10991
11
6.02643
21
-5.10759
0
LINE
8
BLACK
6
CONTINUOUS
10
6.02643
20
-5.10759
11
6.03862
21
-5.10384
0
LINE
8
BLACK
6
CONTINUOUS
10
6.03862
20
-5.10384
11
6.0503
21
-5.09871
0
LINE
8
BLACK
6
CONTINUOUS
10
6.0503
20
-5.09871
11
6.06131
21
-5.09228
0
LINE
8
BLACK
6
CONTINUOUS
10
6.06131
20
-5.09228
11
6.07151
21
-5.08462
0
LINE
8
BLACK
6
CONTINUOUS
10
6.07151
20
-5.08462
11
6.08076
21
-5.07584
0
LINE
8
BLACK
6
CONTINUOUS
10
6.08076
20
-5.07584
11
6.08894
21
-5.06605
0
LINE
8
BLACK
6
CONTINUOUS
10
6.08894
20
-5.06605
11
6.09594
21
-5.05539
0
LINE
8
BLACK
6
CONTINUOUS
10
6.09594
20
-5.05539
11
6.10168
21
-5.044
0
LINE
8
BLACK
6
CONTINUOUS
10
6.10168
20
-5.044
11
6.10606
21
-5.03202
0
LINE
8
BLACK
6
CONTINUOUS
10
6.10606
20
-5.03202
11
6.10904
21
-5.01962
0
LINE
8
BLACK
6
CONTINUOUS
10
6.10904
20
-5.01962
11
6.11057
21
-5.00696
0
LINE
8
BLACK
6
CONTINUOUS
10
6.11057
20
-5.00696
11
6.11079
21
-5
0
LINE
8
BLACK
6
CONTINUOUS
10
6.11079
20
-5
11
6.11005
21
-4.98727
0
LINE
8
BLACK
6
CONTINUOUS
10
6.11005
20
-4.98727
11
6.10786
21
-4.9747
0
LINE
8
BLACK
6
CONTINUOUS
10
6.10786
20
-4.9747
11
6.10424
21
-4.96247
0
LINE
8
BLACK
6
CONTINUOUS
10
6.10424
20
-4.96247
11
6.09923
21
-4.95074
0
LINE
8
BLACK
6
CONTINUOUS
10
6.09923
20
-4.95074
11
6.09291
21
-4.93966
0
LINE
8
BLACK
6
CONTINUOUS
10
6.09291
20
-4.93966
11
6.08536
21
-4.92938
0
LINE
8
BLACK
6
CONTINUOUS
10
6.08536
20
-4.92938
11
6.07668
21
-4.92004
0
LINE
8
BLACK
6
CONTINUOUS
10
6.07668
20
-4.92004
11
6.06698
21
-4.91175
0
LINE
8
BLACK
6
CONTINUOUS
10
6.06698
20
-4.91175
11
6.0564
21
-4.90464
0
LINE
8
BLACK
6
CONTINUOUS
10
6.0564
20
-4.90464
11
6.04506
21
-4.89879
0
LINE
8
BLACK
6
CONTINUOUS
10
6.04506
20
-4.89879
11
6.03313
21
-4.89428
0
LINE
8
BLACK
6
CONTINUOUS
10
6.03313
20
-4.89428
11
6.02076
21
-4.89117
0
LINE
8
BLACK
6
CONTINUOUS
10
6.02076
20
-4.89117
11
6.00811
21
-4.88951
0
LINE
8
BLACK
6
CONTINUOUS
10
6.00811
20
-4.88951
11
5.99536
21
-4.88931
0
LINE
8
BLACK
6
CONTINUOUS
10
5.99536
20
-4.88931
11
5.98267
21
-4.89058
0
LINE
8
BLACK
6
CONTINUOUS
10
5.98267
20
-4.89058
11
5.97021
21
-4.89329
0
LINE
8
BLACK
6
CONTINUOUS
10
5.97021
20
-4.89329
11
5.95814
21
-4.89743
0
LINE
8
BLACK
6
CONTINUOUS
10
5.95814
20
-4.89743
11
5.94663
21
-4.90292
0
LINE
8
BLACK
6
CONTINUOUS
10
5.94663
20
-4.90292
11
5.93582
21
-4.90969
0
LINE
8
BLACK
6
CONTINUOUS
10
5.93582
20
-4.90969
11
5.92587
21
-4.91767
0
LINE
8
BLACK
6
CONTINUOUS
10
5.92587
20
-4.91767
11
5.9169
21
-4.92673
0
LINE
8
BLACK
6
CONTINUOUS
10
5.9169
20
-4.92673
11
5.90903
21
-4.93677
0
LINE
8
BLACK
6
CONTINUOUS
10
5.90903
20
-4.93677
11
5.90236
21
-4.94765
0
LINE
8
BLACK
6
CONTINUOUS
10
5.90236
20
-4.94765
11
5.89699
21
-4.95922
0
LINE
8
BLACK
6
CONTINUOUS
10
5.89699
20
-4.95922
11
5.89299
21
-4.97133
0
LINE
8
BLACK
6
CONTINUOUS
10
5.89299
20
-4.97133
11
5.8904
21
-4.98382
0
LINE
8
BLACK
6
CONTINUOUS
10
5.8904
20
-4.98382
11
5.88927
21
-4.99652
0
LINE
8
BLACK
6
CONTINUOUS
10
5.88927
20
-4.99652
11
5.8896
21
-5.00927
0
LINE
8
BLACK
6
CONTINUOUS
10
5.8896
20
-5.00927
11
5.8914
21
-5.0219
0
LINE
8
BLACK
6
CONTINUOUS
10
3.87792
20
-3.37047
11
3.88197
21
-3.35704
0
LINE
8
BLACK
6
CONTINUOUS
10
3.88197
20
-3.35704
11
3.8875
21
-3.34415
0
LINE
8
BLACK
6
CONTINUOUS
10
3.8875
20
-3.34415
11
3.89442
21
-3.33196
0
LINE
8
BLACK
6
CONTINUOUS
10
3.89442
20
-3.33196
11
3.90267
21
-3.32062
0
LINE
8
BLACK
6
CONTINUOUS
10
3.90267
20
-3.32062
11
3.91212
21
-3.31026
0
LINE
8
BLACK
6
CONTINUOUS
10
3.91212
20
-3.31026
11
3.92267
21
-3.30103
0
LINE
8
BLACK
6
CONTINUOUS
10
3.92267
20
-3.30103
11
3.93419
21
-3.29302
0
LINE
8
BLACK
6
CONTINUOUS
10
3.93419
20
-3.29302
11
3.94652
21
-3.28635
0
LINE
8
BLACK
6
CONTINUOUS
10
3.94652
20
-3.28635
11
3.95952
21
-3.2811
0
LINE
8
BLACK
6
CONTINUOUS
10
3.95952
20
-3.2811
11
3.97303
21
-3.27733
0
LINE
8
BLACK
6
CONTINUOUS
10
3.97303
20
-3.27733
11
3.98687
21
-3.27509
0
LINE
8
BLACK
6
CONTINUOUS
10
3.98687
20
-3.27509
11
4.00088
21
-3.2744
0
LINE
8
BLACK
6
CONTINUOUS
10
4.00088
20
-3.2744
11
4.01487
21
-3.27528
0
LINE
8
BLACK
6
CONTINUOUS
10
4.01487
20
-3.27528
11
4.02868
21
-3.27772
0
LINE
8
BLACK
6
CONTINUOUS
10
4.02868
20
-3.27772
11
4.04213
21
-3.28168
0
LINE
8
BLACK
6
CONTINUOUS
10
4.04213
20
-3.28168
11
4.05506
21
-3.28711
0
LINE
8
BLACK
6
CONTINUOUS
10
4.05506
20
-3.28711
11
4.0673
21
-3.29395
0
LINE
8
BLACK
6
CONTINUOUS
10
4.0673
20
-3.29395
11
4.0787
21
-3.30212
0
LINE
8
BLACK
6
CONTINUOUS
10
4.0787
20
-3.30212
11
4.08912
21
-3.3115
0
LINE
8
BLACK
6
CONTINUOUS
10
4.08912
20
-3.3115
11
4.09843
21
-3.32198
0
LINE
8
BLACK
6
CONTINUOUS
10
4.09843
20
-3.32198
11
4.10651
21
-3.33344
0
LINE
8
BLACK
6
CONTINUOUS
10
4.10651
20
-3.33344
11
4.11327
21
-3.34573
0
LINE
8
BLACK
6
CONTINUOUS
10
4.11327
20
-3.34573
11
4.11861
21
-3.35869
0
LINE
8
BLACK
6
CONTINUOUS
10
4.11861
20
-3.35869
11
4.12248
21
-3.37217
0
LINE
8
BLACK
6
CONTINUOUS
10
4.12248
20
-3.37217
11
4.12482
21
-3.386
0
LINE
8
BLACK
6
CONTINUOUS
10
4.12482
20
-3.386
11
4.1256
21
-3.4
0
LINE
8
BLACK
6
CONTINUOUS
10
4.1256
20
-3.4
11
4.12555
21
-3.40351
0
LINE
8
BLACK
6
CONTINUOUS
10
4.12555
20
-3.40351
11
4.12438
21
-3.41748
0
LINE
8
BLACK
6
CONTINUOUS
10
4.12438
20
-3.41748
11
4.12165
21
-3.43124
0
LINE
8
BLACK
6
CONTINUOUS
10
4.12165
20
-3.43124
11
4.11741
21
-3.4446
0
LINE
8
BLACK
6
CONTINUOUS
10
4.11741
20
-3.4446
11
4.11171
21
-3.45741
0
LINE
8
BLACK
6
CONTINUOUS
10
4.11171
20
-3.45741
11
4.10461
21
-3.46951
0
LINE
8
BLACK
6
CONTINUOUS
10
4.10461
20
-3.46951
11
4.09622
21
-3.48073
0
LINE
8
BLACK
6
CONTINUOUS
10
4.09622
20
-3.48073
11
4.08662
21
-3.49096
0
LINE
8
BLACK
6
CONTINUOUS
10
4.08662
20
-3.49096
11
4.07594
21
-3.50004
0
LINE
8
BLACK
6
CONTINUOUS
10
4.07594
20
-3.50004
11
4.06431
21
-3.50789
0
LINE
8
BLACK
6
CONTINUOUS
10
4.06431
20
-3.50789
11
4.05189
21
-3.51438
0
LINE
8
BLACK
6
CONTINUOUS
10
4.05189
20
-3.51438
11
4.03881
21
-3.51945
0
LINE
8
BLACK
6
CONTINUOUS
10
4.03881
20
-3.51945
11
4.02526
21
-3.52303
0
LINE
8
BLACK
6
CONTINUOUS
10
4.02526
20
-3.52303
11
4.01138
21
-3.52508
0
LINE
8
BLACK
6
CONTINUOUS
10
4.01138
20
-3.52508
11
3.99737
21
-3.52557
0
LINE
8
BLACK
6
CONTINUOUS
10
3.99737
20
-3.52557
11
3.98339
21
-3.5245
0
LINE
8
BLACK
6
CONTINUOUS
10
3.98339
20
-3.5245
11
3.96961
21
-3.52187
0
LINE
8
BLACK
6
CONTINUOUS
10
3.96961
20
-3.52187
11
3.95622
21
-3.51772
0
LINE
8
BLACK
6
CONTINUOUS
10
3.95622
20
-3.51772
11
3.94337
21
-3.51211
0
LINE
8
BLACK
6
CONTINUOUS
10
3.94337
20
-3.51211
11
3.93123
21
-3.5051
0
LINE
8
BLACK
6
CONTINUOUS
10
3.93123
20
-3.5051
11
3.91994
21
-3.49678
0
LINE
8
BLACK
6
CONTINUOUS
10
3.91994
20
-3.49678
11
3.90965
21
-3.48725
0
LINE
8
BLACK
6
CONTINUOUS
10
3.90965
20
-3.48725
11
3.90049
21
-3.47663
0
LINE
8
BLACK
6
CONTINUOUS
10
3.90049
20
-3.47663
11
3.89257
21
-3.46506
0
LINE
8
BLACK
6
CONTINUOUS
10
3.89257
20
-3.46506
11
3.88598
21
-3.45268
0
LINE
8
BLACK
6
CONTINUOUS
10
3.88598
20
-3.45268
11
3.88082
21
-3.43965
0
LINE
8
BLACK
6
CONTINUOUS
10
3.88082
20
-3.43965
11
3.87714
21
-3.42611
0
LINE
8
BLACK
6
CONTINUOUS
10
3.87714
20
-3.42611
11
3.875
21
-3.41226
0
LINE
8
BLACK
6
CONTINUOUS
10
3.875
20
-3.41226
11
3.87441
21
-3.39825
0
LINE
8
BLACK
6
CONTINUOUS
10
3.87441
20
-3.39825
11
3.87453
21
-3.39652
0
LINE
8
BLACK
6
CONTINUOUS
10
3.87453
20
-3.39652
11
3.87539
21
-3.38426
0
LINE
8
BLACK
6
CONTINUOUS
10
3.87539
20
-3.38426
11
3.87792
21
-3.37047
0
LINE
8
BLACK
6
CONTINUOUS
10
3.8914
20
-3.4219
11
3.89463
21
-3.43424
0
LINE
8
BLACK
6
CONTINUOUS
10
3.89463
20
-3.43424
11
3.89927
21
-3.44612
0
LINE
8
BLACK
6
CONTINUOUS
10
3.89927
20
-3.44612
11
3.90524
21
-3.45739
0
LINE
8
BLACK
6
CONTINUOUS
10
3.90524
20
-3.45739
11
3.91246
21
-3.4679
0
LINE
8
BLACK
6
CONTINUOUS
10
3.91246
20
-3.4679
11
3.92085
21
-3.47751
0
LINE
8
BLACK
6
CONTINUOUS
10
3.92085
20
-3.47751
11
3.93028
21
-3.4861
0
LINE
8
BLACK
6
CONTINUOUS
10
3.93028
20
-3.4861
11
3.94064
21
-3.49354
0
LINE
8
BLACK
6
CONTINUOUS
10
3.94064
20
-3.49354
11
3.95178
21
-3.49974
0
LINE
8
BLACK
6
CONTINUOUS
10
3.95178
20
-3.49974
11
3.96357
21
-3.50463
0
LINE
8
BLACK
6
CONTINUOUS
10
3.96357
20
-3.50463
11
3.97583
21
-3.50812
0
LINE
8
BLACK
6
CONTINUOUS
10
3.97583
20
-3.50812
11
3.98842
21
-3.51018
0
LINE
8
BLACK
6
CONTINUOUS
10
3.98842
20
-3.51018
11
4.00116
21
-3.51078
0
LINE
8
BLACK
6
CONTINUOUS
10
4.00116
20
-3.51078
11
4.01389
21
-3.50991
0
LINE
8
BLACK
6
CONTINUOUS
10
4.01389
20
-3.50991
11
4.02643
21
-3.50759
0
LINE
8
BLACK
6
CONTINUOUS
10
4.02643
20
-3.50759
11
4.03862
21
-3.50384
0
LINE
8
BLACK
6
CONTINUOUS
10
4.03862
20
-3.50384
11
4.0503
21
-3.49871
0
LINE
8
BLACK
6
CONTINUOUS
10
4.0503
20
-3.49871
11
4.06131
21
-3.49228
0
LINE
8
BLACK
6
CONTINUOUS
10
4.06131
20
-3.49228
11
4.07151
21
-3.48462
0
LINE
8
BLACK
6
CONTINUOUS
10
4.07151
20
-3.48462
11
4.08076
21
-3.47584
0
LINE
8
BLACK
6
CONTINUOUS
10
4.08076
20
-3.47584
11
4.08894
21
-3.46605
0
LINE
8
BLACK
6
CONTINUOUS
10
4.08894
20
-3.46605
11
4.09594
21
-3.45539
0
LINE
8
BLACK
6
CONTINUOUS
10
4.09594
20
-3.45539
11
4.10168
21
-3.444
0
LINE
8
BLACK
6
CONTINUOUS
10
4.10168
20
-3.444
11
4.10606
21
-3.43202
0
LINE
8
BLACK
6
CONTINUOUS
10
4.10606
20
-3.43202
11
4.10904
21
-3.41962
0
LINE
8
BLACK
6
CONTINUOUS
10
4.10904
20
-3.41962
11
4.11057
21
-3.40696
0
LINE
8
BLACK
6
CONTINUOUS
10
4.11057
20
-3.40696
11
4.11079
21
-3.4
0
LINE
8
BLACK
6
CONTINUOUS
10
4.11079
20
-3.4
11
4.11005
21
-3.38727
0
LINE
8
BLACK
6
CONTINUOUS
10
4.11005
20
-3.38727
11
4.10786
21
-3.3747
0
LINE
8
BLACK
6
CONTINUOUS
10
4.10786
20
-3.3747
11
4.10424
21
-3.36247
0
LINE
8
BLACK
6
CONTINUOUS
10
4.10424
20
-3.36247
11
4.09923
21
-3.35074
0
LINE
8
BLACK
6
CONTINUOUS
10
4.09923
20
-3.35074
11
4.09291
21
-3.33966
0
LINE
8
BLACK
6
CONTINUOUS
10
4.09291
20
-3.33966
11
4.08536
21
-3.32938
0
LINE
8
BLACK
6
CONTINUOUS
10
4.08536
20
-3.32938
11
4.07668
21
-3.32004
0
LINE
8
BLACK
6
CONTINUOUS
10
4.07668
20
-3.32004
11
4.06698
21
-3.31175
0
LINE
8
BLACK
6
CONTINUOUS
10
4.06698
20
-3.31175
11
4.0564
21
-3.30464
0
LINE
8
BLACK
6
CONTINUOUS
10
4.0564
20
-3.30464
11
4.04506
21
-3.29879
0
LINE
8
BLACK
6
CONTINUOUS
10
4.04506
20
-3.29879
11
4.03313
21
-3.29428
0
LINE
8
BLACK
6
CONTINUOUS
10
4.03313
20
-3.29428
11
4.02076
21
-3.29117
0
LINE
8
BLACK
6
CONTINUOUS
10
4.02076
20
-3.29117
11
4.00811
21
-3.28951
0
LINE
8
BLACK
6
CONTINUOUS
10
4.00811
20
-3.28951
11
3.99536
21
-3.28931
0
LINE
8
BLACK
6
CONTINUOUS
10
3.99536
20
-3.28931
11
3.98267
21
-3.29058
0
LINE
8
BLACK
6
CONTINUOUS
10
3.98267
20
-3.29058
11
3.97021
21
-3.29329
0
LINE
8
BLACK
6
CONTINUOUS
10
3.97021
20
-3.29329
11
3.95814
21
-3.29743
0
LINE
8
BLACK
6
CONTINUOUS
10
3.95814
20
-3.29743
11
3.94663
21
-3.30292
0
LINE
8
BLACK
6
CONTINUOUS
10
3.94663
20
-3.30292
11
3.93582
21
-3.30969
0
LINE
8
BLACK
6
CONTINUOUS
10
3.93582
20
-3.30969
11
3.92587
21
-3.31767
0
LINE
8
BLACK
6
CONTINUOUS
10
3.92587
20
-3.31767
11
3.9169
21
-3.32673
0
LINE
8
BLACK
6
CONTINUOUS
10
3.9169
20
-3.32673
11
3.90903
21
-3.33677
0
LINE
8
BLACK
6
CONTINUOUS
10
3.90903
20
-3.33677
11
3.90236
21
-3.34765
0
LINE
8
BLACK
6
CONTINUOUS
10
3.90236
20
-3.34765
11
3.89699
21
-3.35922
0
LINE
8
BLACK
6
CONTINUOUS
10
3.89699
20
-3.35922
11
3.89299
21
-3.37133
0
LINE
8
BLACK
6
CONTINUOUS
10
3.89299
20
-3.37133
11
3.8904
21
-3.38382
0
LINE
8
BLACK
6
CONTINUOUS
10
3.8904
20
-3.38382
11
3.88927
21
-3.39652
0
LINE
8
BLACK
6
CONTINUOUS
10
3.88927
20
-3.39652
11
3.8896
21
-3.40927
0
LINE
8
BLACK
6
CONTINUOUS
10
3.8896
20
-3.40927
11
3.8914
21
-3.4219
0
LINE
8
BLACK
6
CONTINUOUS
10
5.87792
20
-3.37047
11
5.88197
21
-3.35704
0
LINE
8
BLACK
6
CONTINUOUS
10
5.88197
20
-3.35704
11
5.8875
21
-3.34415
0
LINE
8
BLACK
6
CONTINUOUS
10
5.8875
20
-3.34415
11
5.89442
21
-3.33196
0
LINE
8
BLACK
6
CONTINUOUS
10
5.89442
20
-3.33196
11
5.90267
21
-3.32062
0
LINE
8
BLACK
6
CONTINUOUS
10
5.90267
20
-3.32062
11
5.91212
21
-3.31026
0
LINE
8
BLACK
6
CONTINUOUS
10
5.91212
20
-3.31026
11
5.92267
21
-3.30103
0
LINE
8
BLACK
6
CONTINUOUS
10
5.92267
20
-3.30103
11
5.93419
21
-3.29302
0
LINE
8
BLACK
6
CONTINUOUS
10
5.93419
20
-3.29302
11
5.94652
21
-3.28635
0
LINE
8
BLACK
6
CONTINUOUS
10
5.94652
20
-3.28635
11
5.95952
21
-3.2811
0
LINE
8
BLACK
6
CONTINUOUS
10
5.95952
20
-3.2811
11
5.97303
21
-3.27733
0
LINE
8
BLACK
6
CONTINUOUS
10
5.97303
20
-3.27733
11
5.98687
21
-3.27509
0
LINE
8
BLACK
6
CONTINUOUS
10
5.98687
20
-3.27509
11
6.00088
21
-3.2744
0
LINE
8
BLACK
6
CONTINUOUS
10
6.00088
20
-3.2744
11
6.01487
21
-3.27528
0
LINE
8
BLACK
6
CONTINUOUS
10
6.01487
20
-3.27528
11
6.02868
21
-3.27772
0
LINE
8
BLACK
6
CONTINUOUS
10
6.02868
20
-3.27772
11
6.04213
21
-3.28168
0
LINE
8
BLACK
6
CONTINUOUS
10
6.04213
20
-3.28168
11
6.05506
21
-3.28711
0
LINE
8
BLACK
6
CONTINUOUS
10
6.05506
20
-3.28711
11
6.0673
21
-3.29395
0
LINE
8
BLACK
6
CONTINUOUS
10
6.0673
20
-3.29395
11
6.0787
21
-3.30212
0
LINE
8
BLACK
6
CONTINUOUS
10
6.0787
20
-3.30212
11
6.08912
21
-3.3115
0
LINE
8
BLACK
6
CONTINUOUS
10
6.08912
20
-3.3115
11
6.09843
21
-3.32198
0
LINE
8
BLACK
6
CONTINUOUS
10
6.09843
20
-3.32198
11
6.10651
21
-3.33344
0
LINE
8
BLACK
6
CONTINUOUS
10
6.10651
20
-3.33344
11
6.11327
21
-3.34573
0
LINE
8
BLACK
6
CONTINUOUS
10
6.11327
20
-3.34573
11
6.11861
21
-3.35869
0
LINE
8
BLACK
6
CONTINUOUS
10
6.11861
20
-3.35869
11
6.12248
21
-3.37217
0
LINE
8
BLACK
6
CONTINUOUS
10
6.12248
20
-3.37217
11
6.12482
21
-3.386
0
LINE
8
BLACK
6
CONTINUOUS
10
6.12482
20
-3.386
11
6.1256
21
-3.4
0
LINE
8
BLACK
6
CONTINUOUS
10
6.1256
20
-3.4
11
6.12555
21
-3.40351
0
LINE
8
BLACK
6
CONTINUOUS
10
6.12555
20
-3.40351
11
6.12438
21
-3.41748
0
LINE
8
BLACK
6
CONTINUOUS
10
6.12438
20
-3.41748
11
6.12165
21
-3.43124
0
LINE
8
BLACK
6
CONTINUOUS
10
6.12165
20
-3.43124
11
6.11741
21
-3.4446
0
LINE
8
BLACK
6
CONTINUOUS
10
6.11741
20
-3.4446
11
6.11171
21
-3.45741
0
LINE
8
BLACK
6
CONTINUOUS
10
6.11171
20
-3.45741
11
6.10461
21
-3.46951
0
LINE
8
BLACK
6
CONTINUOUS
10
6.10461
20
-3.46951
11
6.09622
21
-3.48073
0
LINE
8
BLACK
6
CONTINUOUS
10
6.09622
20
-3.48073
11
6.08662
21
-3.49096
0
LINE
8
BLACK
6
CONTINUOUS
10
6.08662
20
-3.49096
11
6.07594
21
-3.50004
0
LINE
8
BLACK
6
CONTINUOUS
10
6.07594
20
-3.50004
11
6.06431
21
-3.50789
0
LINE
8
BLACK
6
CONTINUOUS
10
6.06431
20
-3.50789
11
6.05189
21
-3.51438
0
LINE
8
BLACK
6
CONTINUOUS
10
6.05189
20
-3.51438
11
6.03881
21
-3.51945
0
LINE
8
BLACK
6
CONTINUOUS
10
6.03881
20
-3.51945
11
6.02526
21
-3.52303
0
LINE
8
BLACK
6
CONTINUOUS
10
6.02526
20
-3.52303
11
6.01138
21
-3.52508
0
LINE
8
BLACK
6
CONTINUOUS
10
6.01138
20
-3.52508
11
5.99737
21
-3.52557
0
LINE
8
BLACK
6
CONTINUOUS
10
5.99737
20
-3.52557
11
5.98339
21
-3.5245
0
LINE
8
BLACK
6
CONTINUOUS
10
5.98339
20
-3.5245
11
5.96961
21
-3.52187
0
LINE
8
BLACK
6
CONTINUOUS
10
5.96961
20
-3.52187
11
5.95622
21
-3.51772
0
LINE
8
BLACK
6
CONTINUOUS
10
5.95622
20
-3.51772
11
5.94337
21
-3.51211
0
LINE
8
BLACK
6
CONTINUOUS
10
5.94337
20
-3.51211
11
5.93123
21
-3.5051
0
LINE
8
BLACK
6
CONTINUOUS
10
5.93123
20
-3.5051
11
5.91994
21
-3.49678
0
LINE
8
BLACK
6
CONTINUOUS
10
5.91994
20
-3.49678
11
5.90965
21
-3.48725
0
LINE
8
BLACK
6
CONTINUOUS
10
5.90965
20
-3.48725
11
5.90049
21
-3.47663
0
LINE
8
BLACK
6
CONTINUOUS
10
5.90049
20
-3.47663
11
5.89257
21
-3.46506
0
LINE
8
BLACK
6
CONTINUOUS
10
5.89257
20
-3.46506
11
5.88598
21
-3.45268
0
LINE
8
BLACK
6
CONTINUOUS
10
5.88598
20
-3.45268
11
5.88082
21
-3.43965
0
LINE
8
BLACK
6
CONTINUOUS
10
5.88082
20
-3.43965
11
5.87714
21
-3.42611
0
LINE
8
BLACK
6
CONTINUOUS
10
5.87714
20
-3.42611
11
5.875
21
-3.41226
0
LINE
8
BLACK
6
CONTINUOUS
10
5.875
20
-3.41226
11
5.87441
21
-3.39825
0
LINE
8
BLACK
6
CONTINUOUS
10
5.87441
20
-3.39825
11
5.87453
21
-3.39652
0
LINE
8
BLACK
6
CONTINUOUS
10
5.87453
20
-3.39652
11
5.87539
21
-3.38426
0
LINE
8
BLACK
6
CONTINUOUS
10
5.87539
20
-3.38426
11
5.87792
21
-3.37047
0
LINE
8
BLACK
6
CONTINUOUS
10
5.8914
20
-3.4219
11
5.89463
21
-3.43424
0
LINE
8
BLACK
6
CONTINUOUS
10
5.89463
20
-3.43424
11
5.89927
21
-3.44612
0
LINE
8
BLACK
6
CONTINUOUS
10
5.89927
20
-3.44612
11
5.90524
21
-3.45739
0
LINE
8
BLACK
6
CONTINUOUS
10
5.90524
20
-3.45739
11
5.91246
21
-3.4679
0
LINE
8
BLACK
6
CONTINUOUS
10
5.91246
20
-3.4679
11
5.92085
21
-3.47751
0
LINE
8
BLACK
6
CONTINUOUS
10
5.92085
20
-3.47751
11
5.93028
21
-3.4861
0
LINE
8
BLACK
6
CONTINUOUS
10
5.93028
20
-3.4861
11
5.94064
21
-3.49354
0
LINE
8
BLACK
6
CONTINUOUS
10
5.94064
20
-3.49354
11
5.95178
21
-3.49974
0
LINE
8
BLACK
6
CONTINUOUS
10
5.95178
20
-3.49974
11
5.96357
21
-3.50463
0
LINE
8
BLACK
6
CONTINUOUS
10
5.96357
20
-3.50463
11
5.97583
21
-3.50812
0
LINE
8
BLACK
6
CONTINUOUS
10
5.97583
20
-3.50812
11
5.98842
21
-3.51018
0
LINE
8
BLACK
6
CONTINUOUS
10
5.98842
20
-3.51018
11
6.00116
21
-3.51078
0
LINE
8
BLACK
6
CONTINUOUS
10
6.00116
20
-3.51078
11
6.01389
21
-3.50991
0
LINE
8
BLACK
6
CONTINUOUS
10
6.01389
20
-3.50991
11
6.02643
21
-3.50759
0
LINE
8
BLACK
6
CONTINUOUS
10
6.02643
20
-3.50759
11
6.03862
21
-3.50384
0
LINE
8
BLACK
6
CONTINUOUS
10
6.03862
20
-3.50384
11
6.0503
21
-3.49871
0
LINE
8
BLACK
6
CONTINUOUS
10
6.0503
20
-3.49871
11
6.06131
21
-3.49228
0
LINE
8
BLACK
6
CONTINUOUS
10
6.06131
20
-3.49228
11
6.07151
21
-3.48462
0
LINE
8
BLACK
6
CONTINUOUS
10
6.07151
20
-3.48462
11
6.08076
21
-3.47584
0
LINE
8
BLACK
6
CONTINUOUS
10
6.08076
20
-3.47584
11
6.08894
21
-3.46605
0
LINE
8
BLACK
6
CONTINUOUS
10
6.08894
20
-3.46605
11
6.09594
21
-3.45539
0
LINE
8
BLACK
6
CONTINUOUS
10
6.09594
20
-3.45539
11
6.10168
21
-3.444
0
LINE
8
BLACK
6
CONTINUOUS
10
6.10168
20
-3.444
11
6.10606
21
-3.43202
0
LINE
8
BLACK
6
CONTINUOUS
10
6.10606
20
-3.43202
11
6.10904
21
-3.41962
0
LINE
8
BLACK
6
CONTINUOUS
10
6.10904
20
-3.41962
11
6.11057
21
-3.40696
0
LINE
8
BLACK
6
CONTINUOUS
10
6.11057
20
-3.40696
11
6.11079
21
-3.4
0
LINE
8
BLACK
6
CONTINUOUS
10
6.11079
20
-3.4
11
6.11005
21
-3.38727
0
LINE
8
BLACK
6
CONTINUOUS
10
6.11005
20
-3.38727
11
6.10786
21
-3.3747
0
LINE
8
BLACK
6
CONTINUOUS
10
6.10786
20
-3.3747
11
6.10424
21
-3.36247
0
LINE
8
BLACK
6
CONTINUOUS
10
6.10424
20
-3.36247
11
6.09923
21
-3.35074
0
LINE
8
BLACK
6
CONTINUOUS
10
6.09923
20
-3.35074
11
6.09291
21
-3.33966
0
LINE
8
BLACK
6
CONTINUOUS
10
6.09291
20
-3.33966
11
6.08536
21
-3.32938
0
LINE
8
BLACK
6
CONTINUOUS
10
6.08536
20
-3.32938
11
6.07668
21
-3.32004
0
LINE
8
BLACK
6
CONTINUOUS
10
6.07668
20
-3.32004
11
6.06698
21
-3.31175
0
LINE
8
BLACK
6
CONTINUOUS
10
6.06698
20
-3.31175
11
6.0564
21
-3.30464
0
LINE
8
BLACK
6
CONTINUOUS
10
6.0564
20
-3.30464
11
6.04506
21
-3.29879
0
LINE
8
BLACK
6
CONTINUOUS
10
6.04506
20
-3.29879
11
6.03313
21
-3.29428
0
LINE
8
BLACK
6
CONTINUOUS
10
6.03313
20
-3.29428
11
6.02076
21
-3.29117
0
LINE
8
BLACK
6
CONTINUOUS
10
6.02076
20
-3.29117
11
6.00811
21
-3.28951
0
LINE
8
BLACK
6
CONTINUOUS
10
6.00811
20
-3.28951
11
5.99536
21
-3.28931
0
LINE
8
BLACK
6
CONTINUOUS
10
5.99536
20
-3.28931
11
5.98267
21
-3.29058
0
LINE
8
BLACK
6
CONTINUOUS
10
5.98267
20
-3.29058
11
5.97021
21
-3.29329
0
LINE
8
BLACK
6
CONTINUOUS
10
5.97021
20
-3.29329
11
5.95814
21
-3.29743
0
LINE
8
BLACK
6
CONTINUOUS
10
5.95814
20
-3.29743
11
5.94663
21
-3.30292
0
LINE
8
BLACK
6
CONTINUOUS
10
5.94663
20
-3.30292
11
5.93582
21
-3.30969
0
LINE
8
BLACK
6
CONTINUOUS
10
5.93582
20
-3.30969
11
5.92587
21
-3.31767
0
LINE
8
BLACK
6
CONTINUOUS
10
5.92587
20
-3.31767
11
5.9169
21
-3.32673
0
LINE
8
BLACK
6
CONTINUOUS
10
5.9169
20
-3.32673
11
5.90903
21
-3.33677
0
LINE
8
BLACK
6
CONTINUOUS
10
5.90903
20
-3.33677
11
5.90236
21
-3.34765
0
LINE
8
BLACK
6
CONTINUOUS
10
5.90236
20
-3.34765
11
5.89699
21
-3.35922
0
LINE
8
BLACK
6
CONTINUOUS
10
5.89699
20
-3.35922
11
5.89299
21
-3.37133
0
LINE
8
BLACK
6
CONTINUOUS
10
5.89299
20
-3.37133
11
5.8904
21
-3.38382
0
LINE
8
BLACK
6
CONTINUOUS
10
5.8904
20
-3.38382
11
5.88927
21
-3.39652
0
LINE
8
BLACK
6
CONTINUOUS
10
5.88927
20
-3.39652
11
5.8896
21
-3.40927
0
LINE
8
BLACK
6
CONTINUOUS
10
5.8896
20
-3.40927
11
5.8914
21
-3.4219
0
LINE
8
BLACK
6
CONTINUOUS
10
4.56296
20
-3.37047
11
4.56701
21
-3.35704
0
LINE
8
BLACK
6
CONTINUOUS
10
4.56701
20
-3.35704
11
4.57254
21
-3.34415
0
LINE
8
BLACK
6
CONTINUOUS
10
4.57254
20
-3.34415
11
4.57946
21
-3.33196
0
LINE
8
BLACK
6
CONTINUOUS
10
4.57946
20
-3.33196
11
4.58771
21
-3.32062
0
LINE
8
BLACK
6
CONTINUOUS
10
4.58771
20
-3.32062
11
4.59716
21
-3.31026
0
LINE
8
BLACK
6
CONTINUOUS
10
4.59716
20
-3.31026
11
4.60771
21
-3.30103
0
LINE
8
BLACK
6
CONTINUOUS
10
4.60771
20
-3.30103
11
4.61923
21
-3.29302
0
LINE
8
BLACK
6
CONTINUOUS
10
4.61923
20
-3.29302
11
4.63156
21
-3.28635
0
LINE
8
BLACK
6
CONTINUOUS
10
4.63156
20
-3.28635
11
4.64456
21
-3.2811
0
LINE
8
BLACK
6
CONTINUOUS
10
4.64456
20
-3.2811
11
4.65807
21
-3.27733
0
LINE
8
BLACK
6
CONTINUOUS
10
4.65807
20
-3.27733
11
4.67191
21
-3.27509
0
LINE
8
BLACK
6
CONTINUOUS
10
4.67191
20
-3.27509
11
4.68592
21
-3.2744
0
LINE
8
BLACK
6
CONTINUOUS
10
4.68592
20
-3.2744
11
4.69991
21
-3.27528
0
LINE
8
BLACK
6
CONTINUOUS
10
4.69991
20
-3.27528
11
4.71372
21
-3.27772
0
LINE
8
BLACK
6
CONTINUOUS
10
4.71372
20
-3.27772
11
4.72717
21
-3.28168
0
LINE
8
BLACK
6
CONTINUOUS
10
4.72717
20
-3.28168
11
4.7401
21
-3.28711
0
LINE
8
BLACK
6
CONTINUOUS
10
4.7401
20
-3.28711
11
4.75234
21
-3.29395
0
LINE
8
BLACK
6
CONTINUOUS
10
4.75234
20
-3.29395
11
4.76374
21
-3.30212
0
LINE
8
BLACK
6
CONTINUOUS
10
4.76374
20
-3.30212
11
4.77416
21
-3.3115
0
LINE
8
BLACK
6
CONTINUOUS
10
4.77416
20
-3.3115
11
4.78347
21
-3.32198
0
LINE
8
BLACK
6
CONTINUOUS
10
4.78347
20
-3.32198
11
4.79155
21
-3.33344
0
LINE
8
BLACK
6
CONTINUOUS
10
4.79155
20
-3.33344
11
4.79831
21
-3.34573
0
LINE
8
BLACK
6
CONTINUOUS
10
4.79831
20
-3.34573
11
4.80365
21
-3.35869
0
LINE
8
BLACK
6
CONTINUOUS
10
4.80365
20
-3.35869
11
4.80752
21
-3.37217
0
LINE
8
BLACK
6
CONTINUOUS
10
4.80752
20
-3.37217
11
4.80986
21
-3.386
0
LINE
8
BLACK
6
CONTINUOUS
10
4.80986
20
-3.386
11
4.81064
21
-3.4
0
LINE
8
BLACK
6
CONTINUOUS
10
4.81064
20
-3.4
11
4.81059
21
-3.40351
0
LINE
8
BLACK
6
CONTINUOUS
10
4.81059
20
-3.40351
11
4.80942
21
-3.41748
0
LINE
8
BLACK
6
CONTINUOUS
10
4.80942
20
-3.41748
11
4.80669
21
-3.43124
0
LINE
8
BLACK
6
CONTINUOUS
10
4.80669
20
-3.43124
11
4.80245
21
-3.4446
0
LINE
8
BLACK
6
CONTINUOUS
10
4.80245
20
-3.4446
11
4.79675
21
-3.45741
0
LINE
8
BLACK
6
CONTINUOUS
10
4.79675
20
-3.45741
11
4.78965
21
-3.46951
0
LINE
8
BLACK
6
CONTINUOUS
10
4.78965
20
-3.46951
11
4.78125
21
-3.48073
0
LINE
8
BLACK
6
CONTINUOUS
10
4.78125
20
-3.48073
11
4.77166
21
-3.49096
0
LINE
8
BLACK
6
CONTINUOUS
10
4.77166
20
-3.49096
11
4.76098
21
-3.50004
0
LINE
8
BLACK
6
CONTINUOUS
10
4.76098
20
-3.50004
11
4.74935
21
-3.50789
0
LINE
8
BLACK
6
CONTINUOUS
10
4.74935
20
-3.50789
11
4.73693
21
-3.51438
0
LINE
8
BLACK
6
CONTINUOUS
10
4.73693
20
-3.51438
11
4.72385
21
-3.51945
0
LINE
8
BLACK
6
CONTINUOUS
10
4.72385
20
-3.51945
11
4.71029
21
-3.52303
0
LINE
8
BLACK
6
CONTINUOUS
10
4.71029
20
-3.52303
11
4.69642
21
-3.52508
0
LINE
8
BLACK
6
CONTINUOUS
10
4.69642
20
-3.52508
11
4.68241
21
-3.52557
0
LINE
8
BLACK
6
CONTINUOUS
10
4.68241
20
-3.52557
11
4.66843
21
-3.5245
0
LINE
8
BLACK
6
CONTINUOUS
10
4.66843
20
-3.5245
11
4.65465
21
-3.52187
0
LINE
8
BLACK
6
CONTINUOUS
10
4.65465
20
-3.52187
11
4.64126
21
-3.51772
0
LINE
8
BLACK
6
CONTINUOUS
10
4.64126
20
-3.51772
11
4.62841
21
-3.51211
0
LINE
8
BLACK
6
CONTINUOUS
10
4.62841
20
-3.51211
11
4.61627
21
-3.5051
0
LINE
8
BLACK
6
CONTINUOUS
10
4.61627
20
-3.5051
11
4.60498
21
-3.49678
0
LINE
8
BLACK
6
CONTINUOUS
10
4.60498
20
-3.49678
11
4.59469
21
-3.48725
0
LINE
8
BLACK
6
CONTINUOUS
10
4.59469
20
-3.48725
11
4.58553
21
-3.47663
0
LINE
8
BLACK
6
CONTINUOUS
10
4.58553
20
-3.47663
11
4.57761
21
-3.46506
0
LINE
8
BLACK
6
CONTINUOUS
10
4.57761
20
-3.46506
11
4.57102
21
-3.45268
0
LINE
8
BLACK
6
CONTINUOUS
10
4.57102
20
-3.45268
11
4.56586
21
-3.43965
0
LINE
8
BLACK
6
CONTINUOUS
10
4.56586
20
-3.43965
11
4.56218
21
-3.42611
0
LINE
8
BLACK
6
CONTINUOUS
10
4.56218
20
-3.42611
11
4.56004
21
-3.41226
0
LINE
8
BLACK
6
CONTINUOUS
10
4.56004
20
-3.41226
11
4.55945
21
-3.39825
0
LINE
8
BLACK
6
CONTINUOUS
10
4.55945
20
-3.39825
11
4.55957
21
-3.39652
0
LINE
8
BLACK
6
CONTINUOUS
10
4.55957
20
-3.39652
11
4.56043
21
-3.38426
0
LINE
8
BLACK
6
CONTINUOUS
10
4.56043
20
-3.38426
11
4.56296
21
-3.37047
0
LINE
8
BLACK
6
CONTINUOUS
10
4.57644
20
-3.4219
11
4.57967
21
-3.43424
0
LINE
8
BLACK
6
CONTINUOUS
10
4.57967
20
-3.43424
11
4.58431
21
-3.44612
0
LINE
8
BLACK
6
CONTINUOUS
10
4.58431
20
-3.44612
11
4.59028
21
-3.45739
0
LINE
8
BLACK
6
CONTINUOUS
10
4.59028
20
-3.45739
11
4.5975
21
-3.4679
0
LINE
8
BLACK
6
CONTINUOUS
10
4.5975
20
-3.4679
11
4.60588
21
-3.47751
0
LINE
8
BLACK
6
CONTINUOUS
10
4.60588
20
-3.47751
11
4.61532
21
-3.4861
0
LINE
8
BLACK
6
CONTINUOUS
10
4.61532
20
-3.4861
11
4.62568
21
-3.49354
0
LINE
8
BLACK
6
CONTINUOUS
10
4.62568
20
-3.49354
11
4.63682
21
-3.49974
0
LINE
8
BLACK
6
CONTINUOUS
10
4.63682
20
-3.49974
11
4.64861
21
-3.50463
0
LINE
8
BLACK
6
CONTINUOUS
10
4.64861
20
-3.50463
11
4.66087
21
-3.50812
0
LINE
8
BLACK
6
CONTINUOUS
10
4.66087
20
-3.50812
11
4.67346
21
-3.51018
0
LINE
8
BLACK
6
CONTINUOUS
10
4.67346
20
-3.51018
11
4.6862
21
-3.51078
0
LINE
8
BLACK
6
CONTINUOUS
10
4.6862
20
-3.51078
11
4.69892
21
-3.50991
0
LINE
8
BLACK
6
CONTINUOUS
10
4.69892
20
-3.50991
11
4.71147
21
-3.50759
0
LINE
8
BLACK
6
CONTINUOUS
10
4.71147
20
-3.50759
11
4.72366
21
-3.50384
0
LINE
8
BLACK
6
CONTINUOUS
10
4.72366
20
-3.50384
11
4.73534
21
-3.49871
0
LINE
8
BLACK
6
CONTINUOUS
10
4.73534
20
-3.49871
11
4.74635
21
-3.49228
0
LINE
8
BLACK
6
CONTINUOUS
10
4.74635
20
-3.49228
11
4.75655
21
-3.48462
0
LINE
8
BLACK
6
CONTINUOUS
10
4.75655
20
-3.48462
11
4.7658
21
-3.47584
0
LINE
8
BLACK
6
CONTINUOUS
10
4.7658
20
-3.47584
11
4.77398
21
-3.46605
0
LINE
8
BLACK
6
CONTINUOUS
10
4.77398
20
-3.46605
11
4.78098
21
-3.45539
0
LINE
8
BLACK
6
CONTINUOUS
10
4.78098
20
-3.45539
11
4.78672
21
-3.444
0
LINE
8
BLACK
6
CONTINUOUS
10
4.78672
20
-3.444
11
4.7911
21
-3.43202
0
LINE
8
BLACK
6
CONTINUOUS
10
4.7911
20
-3.43202
11
4.79408
21
-3.41962
0
LINE
8
BLACK
6
CONTINUOUS
10
4.79408
20
-3.41962
11
4.79561
21
-3.40696
0
LINE
8
BLACK
6
CONTINUOUS
10
4.79561
20
-3.40696
11
4.79583
21
-3.4
0
LINE
8
BLACK
6
CONTINUOUS
10
4.79583
20
-3.4
11
4.79509
21
-3.38727
0
LINE
8
BLACK
6
CONTINUOUS
10
4.79509
20
-3.38727
11
4.7929
21
-3.3747
0
LINE
8
BLACK
6
CONTINUOUS
10
4.7929
20
-3.3747
11
4.78928
21
-3.36247
0
LINE
8
BLACK
6
CONTINUOUS
10
4.78928
20
-3.36247
11
4.78427
21
-3.35074
0
LINE
8
BLACK
6
CONTINUOUS
10
4.78427
20
-3.35074
11
4.77795
21
-3.33966
0
LINE
8
BLACK
6
CONTINUOUS
10
4.77795
20
-3.33966
11
4.7704
21
-3.32938
0
LINE
8
BLACK
6
CONTINUOUS
10
4.7704
20
-3.32938
11
4.76172
21
-3.32004
0
LINE
8
BLACK
6
CONTINUOUS
10
4.76172
20
-3.32004
11
4.75202
21
-3.31175
0
LINE
8
BLACK
6
CONTINUOUS
10
4.75202
20
-3.31175
11
4.74143
21
-3.30464
0
LINE
8
BLACK
6
CONTINUOUS
10
4.74143
20
-3.30464
11
4.7301
21
-3.29879
0
LINE
8
BLACK
6
CONTINUOUS
10
4.7301
20
-3.29879
11
4.71817
21
-3.29428
0
LINE
8
BLACK
6
CONTINUOUS
10
4.71817
20
-3.29428
11
4.7058
21
-3.29117
0
LINE
8
BLACK
6
CONTINUOUS
10
4.7058
20
-3.29117
11
4.69315
21
-3.28951
0
LINE
8
BLACK
6
CONTINUOUS
10
4.69315
20
-3.28951
11
4.6804
21
-3.28931
0
LINE
8
BLACK
6
CONTINUOUS
10
4.6804
20
-3.28931
11
4.66771
21
-3.29058
0
LINE
8
BLACK
6
CONTINUOUS
10
4.66771
20
-3.29058
11
4.65525
21
-3.29329
0
LINE
8
BLACK
6
CONTINUOUS
10
4.65525
20
-3.29329
11
4.64318
21
-3.29743
0
LINE
8
BLACK
6
CONTINUOUS
10
4.64318
20
-3.29743
11
4.63167
21
-3.30292
0
LINE
8
BLACK
6
CONTINUOUS
10
4.63167
20
-3.30292
11
4.62086
21
-3.30969
0
LINE
8
BLACK
6
CONTINUOUS
10
4.62086
20
-3.30969
11
4.61091
21
-3.31767
0
LINE
8
BLACK
6
CONTINUOUS
10
4.61091
20
-3.31767
11
4.60194
21
-3.32673
0
LINE
8
BLACK
6
CONTINUOUS
10
4.60194
20
-3.32673
11
4.59407
21
-3.33677
0
LINE
8
BLACK
6
CONTINUOUS
10
4.59407
20
-3.33677
11
4.5874
21
-3.34765
0
LINE
8
BLACK
6
CONTINUOUS
10
4.5874
20
-3.34765
11
4.58203
21
-3.35922
0
LINE
8
BLACK
6
CONTINUOUS
10
4.58203
20
-3.35922
11
4.57803
21
-3.37133
0
LINE
8
BLACK
6
CONTINUOUS
10
4.57803
20
-3.37133
11
4.57544
21
-3.38382
0
LINE
8
BLACK
6
CONTINUOUS
10
4.57544
20
-3.38382
11
4.57431
21
-3.39652
0
LINE
8
BLACK
6
CONTINUOUS
10
4.57431
20
-3.39652
11
4.57464
21
-3.40927
0
LINE
8
BLACK
6
CONTINUOUS
10
4.57464
20
-3.40927
11
4.57644
21
-3.4219
0
LINE
8
BLACK
6
CONTINUOUS
10
5.19288
20
-3.37047
11
5.19694
21
-3.35704
0
LINE
8
BLACK
6
CONTINUOUS
10
5.19694
20
-3.35704
11
5.20246
21
-3.34415
0
LINE
8
BLACK
6
CONTINUOUS
10
5.20246
20
-3.34415
11
5.20939
21
-3.33196
0
LINE
8
BLACK
6
CONTINUOUS
10
5.20939
20
-3.33196
11
5.21763
21
-3.32062
0
LINE
8
BLACK
6
CONTINUOUS
10
5.21763
20
-3.32062
11
5.22708
21
-3.31026
0
LINE
8
BLACK
6
CONTINUOUS
10
5.22708
20
-3.31026
11
5.23763
21
-3.30103
0
LINE
8
BLACK
6
CONTINUOUS
10
5.23763
20
-3.30103
11
5.24915
21
-3.29302
0
LINE
8
BLACK
6
CONTINUOUS
10
5.24915
20
-3.29302
11
5.26148
21
-3.28635
0
LINE
8
BLACK
6
CONTINUOUS
10
5.26148
20
-3.28635
11
5.27448
21
-3.2811
0
LINE
8
BLACK
6
CONTINUOUS
10
5.27448
20
-3.2811
11
5.28799
21
-3.27733
0
LINE
8
BLACK
6
CONTINUOUS
10
5.28799
20
-3.27733
11
5.30183
21
-3.27509
0
LINE
8
BLACK
6
CONTINUOUS
10
5.30183
20
-3.27509
11
5.31584
21
-3.2744
0
LINE
8
BLACK
6
CONTINUOUS
10
5.31584
20
-3.2744
11
5.32983
21
-3.27528
0
LINE
8
BLACK
6
CONTINUOUS
10
5.32983
20
-3.27528
11
5.34364
21
-3.27772
0
LINE
8
BLACK
6
CONTINUOUS
10
5.34364
20
-3.27772
11
5.35709
21
-3.28168
0
LINE
8
BLACK
6
CONTINUOUS
10
5.35709
20
-3.28168
11
5.37002
21
-3.28711
0
LINE
8
BLACK
6
CONTINUOUS
10
5.37002
20
-3.28711
11
5.38226
21
-3.29395
0
LINE
8
BLACK
6
CONTINUOUS
10
5.38226
20
-3.29395
11
5.39366
21
-3.30212
0
LINE
8
BLACK
6
CONTINUOUS
10
5.39366
20
-3.30212
11
5.40408
21
-3.3115
0
LINE
8
BLACK
6
CONTINUOUS
10
5.40408
20
-3.3115
11
5.41339
21
-3.32198
0
LINE
8
BLACK
6
CONTINUOUS
10
5.41339
20
-3.32198
11
5.42148
21
-3.33344
0
LINE
8
BLACK
6
CONTINUOUS
10
5.42148
20
-3.33344
11
5.42823
21
-3.34573
0
LINE
8
BLACK
6
CONTINUOUS
10
5.42823
20
-3.34573
11
5.43357
21
-3.35869
0
LINE
8
BLACK
6
CONTINUOUS
10
5.43357
20
-3.35869
11
5.43744
21
-3.37217
0
LINE
8
BLACK
6
CONTINUOUS
10
5.43744
20
-3.37217
11
5.43978
21
-3.386
0
LINE
8
BLACK
6
CONTINUOUS
10
5.43978
20
-3.386
11
5.44056
21
-3.4
0
LINE
8
BLACK
6
CONTINUOUS
10
5.44056
20
-3.4
11
5.44051
21
-3.40351
0
LINE
8
BLACK
6
CONTINUOUS
10
5.44051
20
-3.40351
11
5.43934
21
-3.41748
0
LINE
8
BLACK
6
CONTINUOUS
10
5.43934
20
-3.41748
11
5.43661
21
-3.43124
0
LINE
8
BLACK
6
CONTINUOUS
10
5.43661
20
-3.43124
11
5.43237
21
-3.4446
0
LINE
8
BLACK
6
CONTINUOUS
10
5.43237
20
-3.4446
11
5.42667
21
-3.45741
0
LINE
8
BLACK
6
CONTINUOUS
10
5.42667
20
-3.45741
11
5.41958
21
-3.46951
0
LINE
8
BLACK
6
CONTINUOUS
10
5.41958
20
-3.46951
11
5.41118
21
-3.48073
0
LINE
8
BLACK
6
CONTINUOUS
10
5.41118
20
-3.48073
11
5.40158
21
-3.49096
0
LINE
8
BLACK
6
CONTINUOUS
10
5.40158
20
-3.49096
11
5.3909
21
-3.50004
0
LINE
8
BLACK
6
CONTINUOUS
10
5.3909
20
-3.50004
11
5.37927
21
-3.50789
0
LINE
8
BLACK
6
CONTINUOUS
10
5.37927
20
-3.50789
11
5.36685
21
-3.51438
0
LINE
8
BLACK
6
CONTINUOUS
10
5.36685
20
-3.51438
11
5.35377
21
-3.51945
0
LINE
8
BLACK
6
CONTINUOUS
10
5.35377
20
-3.51945
11
5.34022
21
-3.52303
0
LINE
8
BLACK
6
CONTINUOUS
10
5.34022
20
-3.52303
11
5.32634
21
-3.52508
0
LINE
8
BLACK
6
CONTINUOUS
10
5.32634
20
-3.52508
11
5.31233
21
-3.52557
0
LINE
8
BLACK
6
CONTINUOUS
10
5.31233
20
-3.52557
11
5.29835
21
-3.5245
0
LINE
8
BLACK
6
CONTINUOUS
10
5.29835
20
-3.5245
11
5.28458
21
-3.52187
0
LINE
8
BLACK
6
CONTINUOUS
10
5.28458
20
-3.52187
11
5.27118
21
-3.51772
0
LINE
8
BLACK
6
CONTINUOUS
10
5.27118
20
-3.51772
11
5.25833
21
-3.51211
0
LINE
8
BLACK
6
CONTINUOUS
10
5.25833
20
-3.51211
11
5.24619
21
-3.5051
0
LINE
8
BLACK
6
CONTINUOUS
10
5.24619
20
-3.5051
11
5.2349
21
-3.49678
0
LINE
8
BLACK
6
CONTINUOUS
10
5.2349
20
-3.49678
11
5.22461
21
-3.48725
0
LINE
8
BLACK
6
CONTINUOUS
10
5.22461
20
-3.48725
11
5.21545
21
-3.47663
0
LINE
8
BLACK
6
CONTINUOUS
10
5.21545
20
-3.47663
11
5.20753
21
-3.46506
0
LINE
8
BLACK
6
CONTINUOUS
10
5.20753
20
-3.46506
11
5.20094
21
-3.45268
0
LINE
8
BLACK
6
CONTINUOUS
10
5.20094
20
-3.45268
11
5.19578
21
-3.43965
0
LINE
8
BLACK
6
CONTINUOUS
10
5.19578
20
-3.43965
11
5.19211
21
-3.42611
0
LINE
8
BLACK
6
CONTINUOUS
10
5.19211
20
-3.42611
11
5.18996
21
-3.41226
0
LINE
8
BLACK
6
CONTINUOUS
10
5.18996
20
-3.41226
11
5.18937
21
-3.39825
0
LINE
8
BLACK
6
CONTINUOUS
10
5.18937
20
-3.39825
11
5.18949
21
-3.39652
0
LINE
8
BLACK
6
CONTINUOUS
10
5.18949
20
-3.39652
11
5.19035
21
-3.38426
0
LINE
8
BLACK
6
CONTINUOUS
10
5.19035
20
-3.38426
11
5.19288
21
-3.37047
0
LINE
8
BLACK
6
CONTINUOUS
10
5.20636
20
-3.4219
11
5.2096
21
-3.43424
0
LINE
8
BLACK
6
CONTINUOUS
10
5.2096
20
-3.43424
11
5.21423
21
-3.44612
0
LINE
8
BLACK
6
CONTINUOUS
10
5.21423
20
-3.44612
11
5.2202
21
-3.45739
0
LINE
8
BLACK
6
CONTINUOUS
10
5.2202
20
-3.45739
11
5.22742
21
-3.4679
0
LINE
8
BLACK
6
CONTINUOUS
10
5.22742
20
-3.4679
11
5.23581
21
-3.47751
0
LINE
8
BLACK
6
CONTINUOUS
10
5.23581
20
-3.47751
11
5.24524
21
-3.4861
0
LINE
8
BLACK
6
CONTINUOUS
10
5.24524
20
-3.4861
11
5.2556
21
-3.49354
0
LINE
8
BLACK
6
CONTINUOUS
10
5.2556
20
-3.49354
11
5.26674
21
-3.49974
0
LINE
8
BLACK
6
CONTINUOUS
10
5.26674
20
-3.49974
11
5.27853
21
-3.50463
0
LINE
8
BLACK
6
CONTINUOUS
10
5.27853
20
-3.50463
11
5.29079
21
-3.50812
0
LINE
8
BLACK
6
CONTINUOUS
10
5.29079
20
-3.50812
11
5.30338
21
-3.51018
0
LINE
8
BLACK
6
CONTINUOUS
10
5.30338
20
-3.51018
11
5.31612
21
-3.51078
0
LINE
8
BLACK
6
CONTINUOUS
10
5.31612
20
-3.51078
11
5.32885
21
-3.50991
0
LINE
8
BLACK
6
CONTINUOUS
10
5.32885
20
-3.50991
11
5.34139
21
-3.50759
0
LINE
8
BLACK
6
CONTINUOUS
10
5.34139
20
-3.50759
11
5.35358
21
-3.50384
0
LINE
8
BLACK
6
CONTINUOUS
10
5.35358
20
-3.50384
11
5.36526
21
-3.49871
0
LINE
8
BLACK
6
CONTINUOUS
10
5.36526
20
-3.49871
11
5.37627
21
-3.49228
0
LINE
8
BLACK
6
CONTINUOUS
10
5.37627
20
-3.49228
11
5.38647
21
-3.48462
0
LINE
8
BLACK
6
CONTINUOUS
10
5.38647
20
-3.48462
11
5.39572
21
-3.47584
0
LINE
8
BLACK
6
CONTINUOUS
10
5.39572
20
-3.47584
11
5.4039
21
-3.46605
0
LINE
8
BLACK
6
CONTINUOUS
10
5.4039
20
-3.46605
11
5.41091
21
-3.45539
0
LINE
8
BLACK
6
CONTINUOUS
10
5.41091
20
-3.45539
11
5.41664
21
-3.444
0
LINE
8
BLACK
6
CONTINUOUS
10
5.41664
20
-3.444
11
5.42102
21
-3.43202
0
LINE
8
BLACK
6
CONTINUOUS
10
5.42102
20
-3.43202
11
5.424
21
-3.41962
0
LINE
8
BLACK
6
CONTINUOUS
10
5.424
20
-3.41962
11
5.42553
21
-3.40696
0
LINE
8
BLACK
6
CONTINUOUS
10
5.42553
20
-3.40696
11
5.42575
21
-3.4
0
LINE
8
BLACK
6
CONTINUOUS
10
5.42575
20
-3.4
11
5.42501
21
-3.38727
0
LINE
8
BLACK
6
CONTINUOUS
10
5.42501
20
-3.38727
11
5.42282
21
-3.3747
0
LINE
8
BLACK
6
CONTINUOUS
10
5.42282
20
-3.3747
11
5.4192
21
-3.36247
0
LINE
8
BLACK
6
CONTINUOUS
10
5.4192
20
-3.36247
11
5.41419
21
-3.35074
0
LINE
8
BLACK
6
CONTINUOUS
10
5.41419
20
-3.35074
11
5.40787
21
-3.33966
0
LINE
8
BLACK
6
CONTINUOUS
10
5.40787
20
-3.33966
11
5.40032
21
-3.32938
0
LINE
8
BLACK
6
CONTINUOUS
10
5.40032
20
-3.32938
11
5.39164
21
-3.32004
0
LINE
8
BLACK
6
CONTINUOUS
10
5.39164
20
-3.32004
11
5.38194
21
-3.31175
0
LINE
8
BLACK
6
CONTINUOUS
10
5.38194
20
-3.31175
11
5.37136
21
-3.30464
0
LINE
8
BLACK
6
CONTINUOUS
10
5.37136
20
-3.30464
11
5.36002
21
-3.29879
0
LINE
8
BLACK
6
CONTINUOUS
10
5.36002
20
-3.29879
11
5.34809
21
-3.29428
0
LINE
8
BLACK
6
CONTINUOUS
10
5.34809
20
-3.29428
11
5.33572
21
-3.29117
0
LINE
8
BLACK
6
CONTINUOUS
10
5.33572
20
-3.29117
11
5.32307
21
-3.28951
0
LINE
8
BLACK
6
CONTINUOUS
10
5.32307
20
-3.28951
11
5.31032
21
-3.28931
0
LINE
8
BLACK
6
CONTINUOUS
10
5.31032
20
-3.28931
11
5.29763
21
-3.29058
0
LINE
8
BLACK
6
CONTINUOUS
10
5.29763
20
-3.29058
11
5.28517
21
-3.29329
0
LINE
8
BLACK
6
CONTINUOUS
10
5.28517
20
-3.29329
11
5.2731
21
-3.29743
0
LINE
8
BLACK
6
CONTINUOUS
10
5.2731
20
-3.29743
11
5.26159
21
-3.30292
0
LINE
8
BLACK
6
CONTINUOUS
10
5.26159
20
-3.30292
11
5.25078
21
-3.30969
0
LINE
8
BLACK
6
CONTINUOUS
10
5.25078
20
-3.30969
11
5.24083
21
-3.31767
0
LINE
8
BLACK
6
CONTINUOUS
10
5.24083
20
-3.31767
11
5.23186
21
-3.32673
0
LINE
8
BLACK
6
CONTINUOUS
10
5.23186
20
-3.32673
11
5.22399
21
-3.33677
0
LINE
8
BLACK
6
CONTINUOUS
10
5.22399
20
-3.33677
11
5.21732
21
-3.34765
0
LINE
8
BLACK
6
CONTINUOUS
10
5.21732
20
-3.34765
11
5.21195
21
-3.35922
0
LINE
8
BLACK
6
CONTINUOUS
10
5.21195
20
-3.35922
11
5.20795
21
-3.37133
0
LINE
8
BLACK
6
CONTINUOUS
10
5.20795
20
-3.37133
11
5.20536
21
-3.38382
0
LINE
8
BLACK
6
CONTINUOUS
10
5.20536
20
-3.38382
11
5.20423
21
-3.39652
0
LINE
8
BLACK
6
CONTINUOUS
10
5.20423
20
-3.39652
11
5.20456
21
-3.40927
0
LINE
8
BLACK
6
CONTINUOUS
10
5.20456
20
-3.40927
11
5.20636
21
-3.4219
  0
ENDSEC
  0
EOF
