  0
SECTION
  2
HEADER
  9
$ANGBASE
  50
0.0
  9
$ANGDIR
  70
1
  9
$MEASUREMENT
  70
0
  0
ENDSEC
  0
SECTION
  2
TABLES
  0
TABLE
  2
LTYPE
  70
4
  0
LTYPE
  5
40F
  2
CONTINUOUS
  70
0
  3
Solid line
  72
65
  73
0
  40
0.0
  0
LTYPE
  5
410
  2
DASHDOT
 70
0
  3
Dash Dot ____ _ ____ _
 72
65
 73
4
 40
2.0
 49
1.25
 49
-0.25
 49
0.25
 49
-0.25
  0
LTYPE
  5
411
  2
DASHED
 70
0
  3
Dashed __ __ __ __ __
 72
65
 73
2
 40
0.75
 49
0.5
 49
-0.25
  0
LTYPE
  5
43B
  2
DOTTED
 70
0
  3
Dotted .  .  .  .
 72
65
 73
2
 40
0.2
 49
0.0
 49
-0.2
  0
ENDTAB
  0
TABLE
  2
STYLE
  70
4
  0
STYLE
  2
KICAD
  70
0
  40
0
  41
1
  42
1
  50
0
  71
0
  3
isocp.shx
  0
STYLE
  2
KICADB
  70
0
  40
0
  41
1
  42
1
  50
0
  71
0
  3
isocp.shx
  0
STYLE
  2
KICADI
  70
0
  40
0
  41
1
  42
1
  50
15
  71
0
  3
isocp.shx
  0
STYLE
  2
KICADBI
  70
0
  40
0
  41
1
  42
1
  50
15
  71
0
  3
isocp.shx
  0
ENDTAB
  0
TABLE
  2
LAYER
  70
1
  0
LAYER
  2
BLACK
  70
0
  62
7
  6
CONTINUOUS
  0
ENDTAB
  0
ENDSEC
  0
SECTION
  2
ENTITIES
0
LINE
8
BLACK
6
CONTINUOUS
10
5.26984
20
-4.60133
11
5.27239
21
-4.60304
0
LINE
8
BLACK
6
CONTINUOUS
10
5.27239
20
-4.60304
11
5.2741
21
-4.60559
0
LINE
8
BLACK
6
CONTINUOUS
10
5.2741
20
-4.60559
11
5.2747
21
-4.60861
0
LINE
8
BLACK
6
CONTINUOUS
10
5.2747
20
-4.60861
11
5.2747
21
-4.62435
0
LINE
8
BLACK
6
CONTINUOUS
10
5.2747
20
-4.62435
11
5.2741
21
-4.62737
0
LINE
8
BLACK
6
CONTINUOUS
10
5.2741
20
-4.62737
11
5.27239
21
-4.62992
0
LINE
8
BLACK
6
CONTINUOUS
10
5.27239
20
-4.62992
11
5.26984
21
-4.63163
0
LINE
8
BLACK
6
CONTINUOUS
10
5.26984
20
-4.63163
11
5.26683
21
-4.63223
0
LINE
8
BLACK
6
CONTINUOUS
10
5.26683
20
-4.63223
11
5.24517
21
-4.63223
0
LINE
8
BLACK
6
CONTINUOUS
10
5.24517
20
-4.63223
11
5.24216
21
-4.63163
0
LINE
8
BLACK
6
CONTINUOUS
10
5.24216
20
-4.63163
11
5.23961
21
-4.62992
0
LINE
8
BLACK
6
CONTINUOUS
10
5.23961
20
-4.62992
11
5.2379
21
-4.62737
0
LINE
8
BLACK
6
CONTINUOUS
10
5.2379
20
-4.62737
11
5.2373
21
-4.62435
0
LINE
8
BLACK
6
CONTINUOUS
10
5.2373
20
-4.62435
11
5.2373
21
-4.60861
0
LINE
8
BLACK
6
CONTINUOUS
10
5.2373
20
-4.60861
11
5.2379
21
-4.60559
0
LINE
8
BLACK
6
CONTINUOUS
10
5.2379
20
-4.60559
11
5.23961
21
-4.60304
0
LINE
8
BLACK
6
CONTINUOUS
10
5.23961
20
-4.60304
11
5.24216
21
-4.60133
0
LINE
8
BLACK
6
CONTINUOUS
10
5.24216
20
-4.60133
11
5.24517
21
-4.60073
0
LINE
8
BLACK
6
CONTINUOUS
10
5.24517
20
-4.60073
11
5.26683
21
-4.60073
0
LINE
8
BLACK
6
CONTINUOUS
10
5.26683
20
-4.60073
11
5.26984
21
-4.60133
0
LINE
8
BLACK
6
CONTINUOUS
10
4.75784
20
-4.59933
11
4.76039
21
-4.60104
0
LINE
8
BLACK
6
CONTINUOUS
10
4.76039
20
-4.60104
11
4.7621
21
-4.60359
0
LINE
8
BLACK
6
CONTINUOUS
10
4.7621
20
-4.60359
11
4.7627
21
-4.60661
0
LINE
8
BLACK
6
CONTINUOUS
10
4.7627
20
-4.60661
11
4.7627
21
-4.62235
0
LINE
8
BLACK
6
CONTINUOUS
10
4.7627
20
-4.62235
11
4.7621
21
-4.62537
0
LINE
8
BLACK
6
CONTINUOUS
10
4.7621
20
-4.62537
11
4.76039
21
-4.62792
0
LINE
8
BLACK
6
CONTINUOUS
10
4.76039
20
-4.62792
11
4.75784
21
-4.62963
0
LINE
8
BLACK
6
CONTINUOUS
10
4.75784
20
-4.62963
11
4.75483
21
-4.63023
0
LINE
8
BLACK
6
CONTINUOUS
10
4.75483
20
-4.63023
11
4.73317
21
-4.63023
0
LINE
8
BLACK
6
CONTINUOUS
10
4.73317
20
-4.63023
11
4.73016
21
-4.62963
0
LINE
8
BLACK
6
CONTINUOUS
10
4.73016
20
-4.62963
11
4.72761
21
-4.62792
0
LINE
8
BLACK
6
CONTINUOUS
10
4.72761
20
-4.62792
11
4.7259
21
-4.62537
0
LINE
8
BLACK
6
CONTINUOUS
10
4.7259
20
-4.62537
11
4.7253
21
-4.62235
0
LINE
8
BLACK
6
CONTINUOUS
10
4.7253
20
-4.62235
11
4.7253
21
-4.60661
0
LINE
8
BLACK
6
CONTINUOUS
10
4.7253
20
-4.60661
11
4.7259
21
-4.60359
0
LINE
8
BLACK
6
CONTINUOUS
10
4.7259
20
-4.60359
11
4.72761
21
-4.60104
0
LINE
8
BLACK
6
CONTINUOUS
10
4.72761
20
-4.60104
11
4.73016
21
-4.59933
0
LINE
8
BLACK
6
CONTINUOUS
10
4.73016
20
-4.59933
11
4.73317
21
-4.59873
0
LINE
8
BLACK
6
CONTINUOUS
10
4.73317
20
-4.59873
11
4.75483
21
-4.59873
0
LINE
8
BLACK
6
CONTINUOUS
10
4.75483
20
-4.59873
11
4.75784
21
-4.59933
0
LINE
8
BLACK
6
CONTINUOUS
10
4.96184
20
-4.55333
11
4.96439
21
-4.55504
0
LINE
8
BLACK
6
CONTINUOUS
10
4.96439
20
-4.55504
11
4.9661
21
-4.55759
0
LINE
8
BLACK
6
CONTINUOUS
10
4.9661
20
-4.55759
11
4.9667
21
-4.56061
0
LINE
8
BLACK
6
CONTINUOUS
10
4.9667
20
-4.56061
11
4.9667
21
-4.57635
0
LINE
8
BLACK
6
CONTINUOUS
10
4.9667
20
-4.57635
11
4.9661
21
-4.57937
0
LINE
8
BLACK
6
CONTINUOUS
10
4.9661
20
-4.57937
11
4.96439
21
-4.58192
0
LINE
8
BLACK
6
CONTINUOUS
10
4.96439
20
-4.58192
11
4.96184
21
-4.58363
0
LINE
8
BLACK
6
CONTINUOUS
10
4.96184
20
-4.58363
11
4.95883
21
-4.58423
0
LINE
8
BLACK
6
CONTINUOUS
10
4.95883
20
-4.58423
11
4.93717
21
-4.58423
0
LINE
8
BLACK
6
CONTINUOUS
10
4.93717
20
-4.58423
11
4.93416
21
-4.58363
0
LINE
8
BLACK
6
CONTINUOUS
10
4.93416
20
-4.58363
11
4.93161
21
-4.58192
0
LINE
8
BLACK
6
CONTINUOUS
10
4.93161
20
-4.58192
11
4.9299
21
-4.57937
0
LINE
8
BLACK
6
CONTINUOUS
10
4.9299
20
-4.57937
11
4.9293
21
-4.57635
0
LINE
8
BLACK
6
CONTINUOUS
10
4.9293
20
-4.57635
11
4.9293
21
-4.56061
0
LINE
8
BLACK
6
CONTINUOUS
10
4.9293
20
-4.56061
11
4.9299
21
-4.55759
0
LINE
8
BLACK
6
CONTINUOUS
10
4.9299
20
-4.55759
11
4.93161
21
-4.55504
0
LINE
8
BLACK
6
CONTINUOUS
10
4.93161
20
-4.55504
11
4.93416
21
-4.55333
0
LINE
8
BLACK
6
CONTINUOUS
10
4.93416
20
-4.55333
11
4.93717
21
-4.55273
0
LINE
8
BLACK
6
CONTINUOUS
10
4.93717
20
-4.55273
11
4.95883
21
-4.55273
0
LINE
8
BLACK
6
CONTINUOUS
10
4.95883
20
-4.55273
11
4.96184
21
-4.55333
0
LINE
8
BLACK
6
CONTINUOUS
10
5.06584
20
-4.55333
11
5.06839
21
-4.55504
0
LINE
8
BLACK
6
CONTINUOUS
10
5.06839
20
-4.55504
11
5.0701
21
-4.55759
0
LINE
8
BLACK
6
CONTINUOUS
10
5.0701
20
-4.55759
11
5.0707
21
-4.56061
0
LINE
8
BLACK
6
CONTINUOUS
10
5.0707
20
-4.56061
11
5.0707
21
-4.57635
0
LINE
8
BLACK
6
CONTINUOUS
10
5.0707
20
-4.57635
11
5.0701
21
-4.57937
0
LINE
8
BLACK
6
CONTINUOUS
10
5.0701
20
-4.57937
11
5.06839
21
-4.58192
0
LINE
8
BLACK
6
CONTINUOUS
10
5.06839
20
-4.58192
11
5.06584
21
-4.58363
0
LINE
8
BLACK
6
CONTINUOUS
10
5.06584
20
-4.58363
11
5.06283
21
-4.58423
0
LINE
8
BLACK
6
CONTINUOUS
10
5.06283
20
-4.58423
11
5.04117
21
-4.58423
0
LINE
8
BLACK
6
CONTINUOUS
10
5.04117
20
-4.58423
11
5.03816
21
-4.58363
0
LINE
8
BLACK
6
CONTINUOUS
10
5.03816
20
-4.58363
11
5.03561
21
-4.58192
0
LINE
8
BLACK
6
CONTINUOUS
10
5.03561
20
-4.58192
11
5.0339
21
-4.57937
0
LINE
8
BLACK
6
CONTINUOUS
10
5.0339
20
-4.57937
11
5.0333
21
-4.57635
0
LINE
8
BLACK
6
CONTINUOUS
10
5.0333
20
-4.57635
11
5.0333
21
-4.56061
0
LINE
8
BLACK
6
CONTINUOUS
10
5.0333
20
-4.56061
11
5.0339
21
-4.55759
0
LINE
8
BLACK
6
CONTINUOUS
10
5.0339
20
-4.55759
11
5.03561
21
-4.55504
0
LINE
8
BLACK
6
CONTINUOUS
10
5.03561
20
-4.55504
11
5.03816
21
-4.55333
0
LINE
8
BLACK
6
CONTINUOUS
10
5.03816
20
-4.55333
11
5.04117
21
-4.55273
0
LINE
8
BLACK
6
CONTINUOUS
10
5.04117
20
-4.55273
11
5.06283
21
-4.55273
0
LINE
8
BLACK
6
CONTINUOUS
10
5.06283
20
-4.55273
11
5.06584
21
-4.55333
0
LINE
8
BLACK
6
CONTINUOUS
10
5.26984
20
-4.53637
11
5.27239
21
-4.53808
0
LINE
8
BLACK
6
CONTINUOUS
10
5.27239
20
-4.53808
11
5.2741
21
-4.54063
0
LINE
8
BLACK
6
CONTINUOUS
10
5.2741
20
-4.54063
11
5.2747
21
-4.54365
0
LINE
8
BLACK
6
CONTINUOUS
10
5.2747
20
-4.54365
11
5.2747
21
-4.55939
0
LINE
8
BLACK
6
CONTINUOUS
10
5.2747
20
-4.55939
11
5.2741
21
-4.56241
0
LINE
8
BLACK
6
CONTINUOUS
10
5.2741
20
-4.56241
11
5.27239
21
-4.56496
0
LINE
8
BLACK
6
CONTINUOUS
10
5.27239
20
-4.56496
11
5.26984
21
-4.56667
0
LINE
8
BLACK
6
CONTINUOUS
10
5.26984
20
-4.56667
11
5.26683
21
-4.56727
0
LINE
8
BLACK
6
CONTINUOUS
10
5.26683
20
-4.56727
11
5.24517
21
-4.56727
0
LINE
8
BLACK
6
CONTINUOUS
10
5.24517
20
-4.56727
11
5.24216
21
-4.56667
0
LINE
8
BLACK
6
CONTINUOUS
10
5.24216
20
-4.56667
11
5.23961
21
-4.56496
0
LINE
8
BLACK
6
CONTINUOUS
10
5.23961
20
-4.56496
11
5.2379
21
-4.56241
0
LINE
8
BLACK
6
CONTINUOUS
10
5.2379
20
-4.56241
11
5.2373
21
-4.55939
0
LINE
8
BLACK
6
CONTINUOUS
10
5.2373
20
-4.55939
11
5.2373
21
-4.54365
0
LINE
8
BLACK
6
CONTINUOUS
10
5.2373
20
-4.54365
11
5.2379
21
-4.54063
0
LINE
8
BLACK
6
CONTINUOUS
10
5.2379
20
-4.54063
11
5.23961
21
-4.53808
0
LINE
8
BLACK
6
CONTINUOUS
10
5.23961
20
-4.53808
11
5.24216
21
-4.53637
0
LINE
8
BLACK
6
CONTINUOUS
10
5.24216
20
-4.53637
11
5.24517
21
-4.53577
0
LINE
8
BLACK
6
CONTINUOUS
10
5.24517
20
-4.53577
11
5.26683
21
-4.53577
0
LINE
8
BLACK
6
CONTINUOUS
10
5.26683
20
-4.53577
11
5.26984
21
-4.53637
0
LINE
8
BLACK
6
CONTINUOUS
10
4.75784
20
-4.53437
11
4.76039
21
-4.53608
0
LINE
8
BLACK
6
CONTINUOUS
10
4.76039
20
-4.53608
11
4.7621
21
-4.53863
0
LINE
8
BLACK
6
CONTINUOUS
10
4.7621
20
-4.53863
11
4.7627
21
-4.54165
0
LINE
8
BLACK
6
CONTINUOUS
10
4.7627
20
-4.54165
11
4.7627
21
-4.55739
0
LINE
8
BLACK
6
CONTINUOUS
10
4.7627
20
-4.55739
11
4.7621
21
-4.56041
0
LINE
8
BLACK
6
CONTINUOUS
10
4.7621
20
-4.56041
11
4.76039
21
-4.56296
0
LINE
8
BLACK
6
CONTINUOUS
10
4.76039
20
-4.56296
11
4.75784
21
-4.56467
0
LINE
8
BLACK
6
CONTINUOUS
10
4.75784
20
-4.56467
11
4.75483
21
-4.56527
0
LINE
8
BLACK
6
CONTINUOUS
10
4.75483
20
-4.56527
11
4.73317
21
-4.56527
0
LINE
8
BLACK
6
CONTINUOUS
10
4.73317
20
-4.56527
11
4.73016
21
-4.56467
0
LINE
8
BLACK
6
CONTINUOUS
10
4.73016
20
-4.56467
11
4.72761
21
-4.56296
0
LINE
8
BLACK
6
CONTINUOUS
10
4.72761
20
-4.56296
11
4.7259
21
-4.56041
0
LINE
8
BLACK
6
CONTINUOUS
10
4.7259
20
-4.56041
11
4.7253
21
-4.55739
0
LINE
8
BLACK
6
CONTINUOUS
10
4.7253
20
-4.55739
11
4.7253
21
-4.54165
0
LINE
8
BLACK
6
CONTINUOUS
10
4.7253
20
-4.54165
11
4.7259
21
-4.53863
0
LINE
8
BLACK
6
CONTINUOUS
10
4.7259
20
-4.53863
11
4.72761
21
-4.53608
0
LINE
8
BLACK
6
CONTINUOUS
10
4.72761
20
-4.53608
11
4.73016
21
-4.53437
0
LINE
8
BLACK
6
CONTINUOUS
10
4.73016
20
-4.53437
11
4.73317
21
-4.53377
0
LINE
8
BLACK
6
CONTINUOUS
10
4.73317
20
-4.53377
11
4.75483
21
-4.53377
0
LINE
8
BLACK
6
CONTINUOUS
10
4.75483
20
-4.53377
11
4.75784
21
-4.53437
0
LINE
8
BLACK
6
CONTINUOUS
10
5.80314
20
-4.49797
11
5.80601
21
-4.49989
0
LINE
8
BLACK
6
CONTINUOUS
10
5.80601
20
-4.49989
11
5.80793
21
-4.50277
0
LINE
8
BLACK
6
CONTINUOUS
10
5.80793
20
-4.50277
11
5.80861
21
-4.50616
0
LINE
8
BLACK
6
CONTINUOUS
10
5.80861
20
-4.50616
11
5.80861
21
-4.52584
0
LINE
8
BLACK
6
CONTINUOUS
10
5.80861
20
-4.52584
11
5.80793
21
-4.52923
0
LINE
8
BLACK
6
CONTINUOUS
10
5.80793
20
-4.52923
11
5.80601
21
-4.53211
0
LINE
8
BLACK
6
CONTINUOUS
10
5.80601
20
-4.53211
11
5.80314
21
-4.53403
0
LINE
8
BLACK
6
CONTINUOUS
10
5.80314
20
-4.53403
11
5.79975
21
-4.5347
0
LINE
8
BLACK
6
CONTINUOUS
10
5.79975
20
-4.5347
11
5.78203
21
-4.5347
0
LINE
8
BLACK
6
CONTINUOUS
10
5.78203
20
-4.5347
11
5.77864
21
-4.53403
0
LINE
8
BLACK
6
CONTINUOUS
10
5.77864
20
-4.53403
11
5.77577
21
-4.53211
0
LINE
8
BLACK
6
CONTINUOUS
10
5.77577
20
-4.53211
11
5.77385
21
-4.52923
0
LINE
8
BLACK
6
CONTINUOUS
10
5.77385
20
-4.52923
11
5.77317
21
-4.52584
0
LINE
8
BLACK
6
CONTINUOUS
10
5.77317
20
-4.52584
11
5.77317
21
-4.50616
0
LINE
8
BLACK
6
CONTINUOUS
10
5.77317
20
-4.50616
11
5.77385
21
-4.50277
0
LINE
8
BLACK
6
CONTINUOUS
10
5.77385
20
-4.50277
11
5.77577
21
-4.49989
0
LINE
8
BLACK
6
CONTINUOUS
10
5.77577
20
-4.49989
11
5.77864
21
-4.49797
0
LINE
8
BLACK
6
CONTINUOUS
10
5.77864
20
-4.49797
11
5.78203
21
-4.4973
0
LINE
8
BLACK
6
CONTINUOUS
10
5.78203
20
-4.4973
11
5.79975
21
-4.4973
0
LINE
8
BLACK
6
CONTINUOUS
10
5.79975
20
-4.4973
11
5.80314
21
-4.49797
0
LINE
8
BLACK
6
CONTINUOUS
10
5.86416
20
-4.49797
11
5.86704
21
-4.49989
0
LINE
8
BLACK
6
CONTINUOUS
10
5.86704
20
-4.49989
11
5.86896
21
-4.50277
0
LINE
8
BLACK
6
CONTINUOUS
10
5.86896
20
-4.50277
11
5.86963
21
-4.50616
0
LINE
8
BLACK
6
CONTINUOUS
10
5.86963
20
-4.50616
11
5.86963
21
-4.52584
0
LINE
8
BLACK
6
CONTINUOUS
10
5.86963
20
-4.52584
11
5.86896
21
-4.52923
0
LINE
8
BLACK
6
CONTINUOUS
10
5.86896
20
-4.52923
11
5.86704
21
-4.53211
0
LINE
8
BLACK
6
CONTINUOUS
10
5.86704
20
-4.53211
11
5.86416
21
-4.53403
0
LINE
8
BLACK
6
CONTINUOUS
10
5.86416
20
-4.53403
11
5.86077
21
-4.5347
0
LINE
8
BLACK
6
CONTINUOUS
10
5.86077
20
-4.5347
11
5.84306
21
-4.5347
0
LINE
8
BLACK
6
CONTINUOUS
10
5.84306
20
-4.5347
11
5.83967
21
-4.53403
0
LINE
8
BLACK
6
CONTINUOUS
10
5.83967
20
-4.53403
11
5.83679
21
-4.53211
0
LINE
8
BLACK
6
CONTINUOUS
10
5.83679
20
-4.53211
11
5.83487
21
-4.52923
0
LINE
8
BLACK
6
CONTINUOUS
10
5.83487
20
-4.52923
11
5.8342
21
-4.52584
0
LINE
8
BLACK
6
CONTINUOUS
10
5.8342
20
-4.52584
11
5.8342
21
-4.50616
0
LINE
8
BLACK
6
CONTINUOUS
10
5.8342
20
-4.50616
11
5.83487
21
-4.50277
0
LINE
8
BLACK
6
CONTINUOUS
10
5.83487
20
-4.50277
11
5.83679
21
-4.49989
0
LINE
8
BLACK
6
CONTINUOUS
10
5.83679
20
-4.49989
11
5.83967
21
-4.49797
0
LINE
8
BLACK
6
CONTINUOUS
10
5.83967
20
-4.49797
11
5.84306
21
-4.4973
0
LINE
8
BLACK
6
CONTINUOUS
10
5.84306
20
-4.4973
11
5.86077
21
-4.4973
0
LINE
8
BLACK
6
CONTINUOUS
10
5.86077
20
-4.4973
11
5.86416
21
-4.49797
0
LINE
8
BLACK
6
CONTINUOUS
10
5.06584
20
-4.48837
11
5.06839
21
-4.49008
0
LINE
8
BLACK
6
CONTINUOUS
10
5.06839
20
-4.49008
11
5.0701
21
-4.49263
0
LINE
8
BLACK
6
CONTINUOUS
10
5.0701
20
-4.49263
11
5.0707
21
-4.49565
0
LINE
8
BLACK
6
CONTINUOUS
10
5.0707
20
-4.49565
11
5.0707
21
-4.51139
0
LINE
8
BLACK
6
CONTINUOUS
10
5.0707
20
-4.51139
11
5.0701
21
-4.51441
0
LINE
8
BLACK
6
CONTINUOUS
10
5.0701
20
-4.51441
11
5.06839
21
-4.51696
0
LINE
8
BLACK
6
CONTINUOUS
10
5.06839
20
-4.51696
11
5.06584
21
-4.51867
0
LINE
8
BLACK
6
CONTINUOUS
10
5.06584
20
-4.51867
11
5.06283
21
-4.51927
0
LINE
8
BLACK
6
CONTINUOUS
10
5.06283
20
-4.51927
11
5.04117
21
-4.51927
0
LINE
8
BLACK
6
CONTINUOUS
10
5.04117
20
-4.51927
11
5.03816
21
-4.51867
0
LINE
8
BLACK
6
CONTINUOUS
10
5.03816
20
-4.51867
11
5.03561
21
-4.51696
0
LINE
8
BLACK
6
CONTINUOUS
10
5.03561
20
-4.51696
11
5.0339
21
-4.51441
0
LINE
8
BLACK
6
CONTINUOUS
10
5.0339
20
-4.51441
11
5.0333
21
-4.51139
0
LINE
8
BLACK
6
CONTINUOUS
10
5.0333
20
-4.51139
11
5.0333
21
-4.49565
0
LINE
8
BLACK
6
CONTINUOUS
10
5.0333
20
-4.49565
11
5.0339
21
-4.49263
0
LINE
8
BLACK
6
CONTINUOUS
10
5.0339
20
-4.49263
11
5.03561
21
-4.49008
0
LINE
8
BLACK
6
CONTINUOUS
10
5.03561
20
-4.49008
11
5.03816
21
-4.48837
0
LINE
8
BLACK
6
CONTINUOUS
10
5.03816
20
-4.48837
11
5.04117
21
-4.48777
0
LINE
8
BLACK
6
CONTINUOUS
10
5.04117
20
-4.48777
11
5.06283
21
-4.48777
0
LINE
8
BLACK
6
CONTINUOUS
10
5.06283
20
-4.48777
11
5.06584
21
-4.48837
0
LINE
8
BLACK
6
CONTINUOUS
10
4.96184
20
-4.48837
11
4.96439
21
-4.49008
0
LINE
8
BLACK
6
CONTINUOUS
10
4.96439
20
-4.49008
11
4.9661
21
-4.49263
0
LINE
8
BLACK
6
CONTINUOUS
10
4.9661
20
-4.49263
11
4.9667
21
-4.49565
0
LINE
8
BLACK
6
CONTINUOUS
10
4.9667
20
-4.49565
11
4.9667
21
-4.51139
0
LINE
8
BLACK
6
CONTINUOUS
10
4.9667
20
-4.51139
11
4.9661
21
-4.51441
0
LINE
8
BLACK
6
CONTINUOUS
10
4.9661
20
-4.51441
11
4.96439
21
-4.51696
0
LINE
8
BLACK
6
CONTINUOUS
10
4.96439
20
-4.51696
11
4.96184
21
-4.51867
0
LINE
8
BLACK
6
CONTINUOUS
10
4.96184
20
-4.51867
11
4.95883
21
-4.51927
0
LINE
8
BLACK
6
CONTINUOUS
10
4.95883
20
-4.51927
11
4.93717
21
-4.51927
0
LINE
8
BLACK
6
CONTINUOUS
10
4.93717
20
-4.51927
11
4.93416
21
-4.51867
0
LINE
8
BLACK
6
CONTINUOUS
10
4.93416
20
-4.51867
11
4.93161
21
-4.51696
0
LINE
8
BLACK
6
CONTINUOUS
10
4.93161
20
-4.51696
11
4.9299
21
-4.51441
0
LINE
8
BLACK
6
CONTINUOUS
10
4.9299
20
-4.51441
11
4.9293
21
-4.51139
0
LINE
8
BLACK
6
CONTINUOUS
10
4.9293
20
-4.51139
11
4.9293
21
-4.49565
0
LINE
8
BLACK
6
CONTINUOUS
10
4.9293
20
-4.49565
11
4.9299
21
-4.49263
0
LINE
8
BLACK
6
CONTINUOUS
10
4.9299
20
-4.49263
11
4.93161
21
-4.49008
0
LINE
8
BLACK
6
CONTINUOUS
10
4.93161
20
-4.49008
11
4.93416
21
-4.48837
0
LINE
8
BLACK
6
CONTINUOUS
10
4.93416
20
-4.48837
11
4.93717
21
-4.48777
0
LINE
8
BLACK
6
CONTINUOUS
10
4.93717
20
-4.48777
11
4.95883
21
-4.48777
0
LINE
8
BLACK
6
CONTINUOUS
10
4.95883
20
-4.48777
11
4.96184
21
-4.48837
0
LINE
8
BLACK
6
CONTINUOUS
10
5.26975
20
-4.48032
11
5.2723
21
-4.48203
0
LINE
8
BLACK
6
CONTINUOUS
10
5.2723
20
-4.48203
11
5.27401
21
-4.48459
0
LINE
8
BLACK
6
CONTINUOUS
10
5.27401
20
-4.48459
11
5.27461
21
-4.4876
0
LINE
8
BLACK
6
CONTINUOUS
10
5.27461
20
-4.4876
11
5.27461
21
-4.50335
0
LINE
8
BLACK
6
CONTINUOUS
10
5.27461
20
-4.50335
11
5.27401
21
-4.50636
0
LINE
8
BLACK
6
CONTINUOUS
10
5.27401
20
-4.50636
11
5.2723
21
-4.50891
0
LINE
8
BLACK
6
CONTINUOUS
10
5.2723
20
-4.50891
11
5.26975
21
-4.51062
0
LINE
8
BLACK
6
CONTINUOUS
10
5.26975
20
-4.51062
11
5.26673
21
-4.51122
0
LINE
8
BLACK
6
CONTINUOUS
10
5.26673
20
-4.51122
11
5.24508
21
-4.51122
0
LINE
8
BLACK
6
CONTINUOUS
10
5.24508
20
-4.51122
11
5.24207
21
-4.51062
0
LINE
8
BLACK
6
CONTINUOUS
10
5.24207
20
-4.51062
11
5.23951
21
-4.50891
0
LINE
8
BLACK
6
CONTINUOUS
10
5.23951
20
-4.50891
11
5.2378
21
-4.50636
0
LINE
8
BLACK
6
CONTINUOUS
10
5.2378
20
-4.50636
11
5.2372
21
-4.50335
0
LINE
8
BLACK
6
CONTINUOUS
10
5.2372
20
-4.50335
11
5.2372
21
-4.4876
0
LINE
8
BLACK
6
CONTINUOUS
10
5.2372
20
-4.4876
11
5.2378
21
-4.48459
0
LINE
8
BLACK
6
CONTINUOUS
10
5.2378
20
-4.48459
11
5.23951
21
-4.48203
0
LINE
8
BLACK
6
CONTINUOUS
10
5.23951
20
-4.48203
11
5.24207
21
-4.48032
0
LINE
8
BLACK
6
CONTINUOUS
10
5.24207
20
-4.48032
11
5.24508
21
-4.47972
0
LINE
8
BLACK
6
CONTINUOUS
10
5.24508
20
-4.47972
11
5.26673
21
-4.47972
0
LINE
8
BLACK
6
CONTINUOUS
10
5.26673
20
-4.47972
11
5.26975
21
-4.48032
0
LINE
8
BLACK
6
CONTINUOUS
10
4.75793
20
-4.48032
11
4.76049
21
-4.48203
0
LINE
8
BLACK
6
CONTINUOUS
10
4.76049
20
-4.48203
11
4.7622
21
-4.48459
0
LINE
8
BLACK
6
CONTINUOUS
10
4.7622
20
-4.48459
11
4.7628
21
-4.4876
0
LINE
8
BLACK
6
CONTINUOUS
10
4.7628
20
-4.4876
11
4.7628
21
-4.50335
0
LINE
8
BLACK
6
CONTINUOUS
10
4.7628
20
-4.50335
11
4.7622
21
-4.50636
0
LINE
8
BLACK
6
CONTINUOUS
10
4.7622
20
-4.50636
11
4.76049
21
-4.50891
0
LINE
8
BLACK
6
CONTINUOUS
10
4.76049
20
-4.50891
11
4.75793
21
-4.51062
0
LINE
8
BLACK
6
CONTINUOUS
10
4.75793
20
-4.51062
11
4.75492
21
-4.51122
0
LINE
8
BLACK
6
CONTINUOUS
10
4.75492
20
-4.51122
11
4.73327
21
-4.51122
0
LINE
8
BLACK
6
CONTINUOUS
10
4.73327
20
-4.51122
11
4.73025
21
-4.51062
0
LINE
8
BLACK
6
CONTINUOUS
10
4.73025
20
-4.51062
11
4.7277
21
-4.50891
0
LINE
8
BLACK
6
CONTINUOUS
10
4.7277
20
-4.50891
11
4.72599
21
-4.50636
0
LINE
8
BLACK
6
CONTINUOUS
10
4.72599
20
-4.50636
11
4.72539
21
-4.50335
0
LINE
8
BLACK
6
CONTINUOUS
10
4.72539
20
-4.50335
11
4.72539
21
-4.4876
0
LINE
8
BLACK
6
CONTINUOUS
10
4.72539
20
-4.4876
11
4.72599
21
-4.48459
0
LINE
8
BLACK
6
CONTINUOUS
10
4.72599
20
-4.48459
11
4.7277
21
-4.48203
0
LINE
8
BLACK
6
CONTINUOUS
10
4.7277
20
-4.48203
11
4.73025
21
-4.48032
0
LINE
8
BLACK
6
CONTINUOUS
10
4.73025
20
-4.48032
11
4.73327
21
-4.47972
0
LINE
8
BLACK
6
CONTINUOUS
10
4.73327
20
-4.47972
11
4.75492
21
-4.47972
0
LINE
8
BLACK
6
CONTINUOUS
10
4.75492
20
-4.47972
11
4.75793
21
-4.48032
0
LINE
8
BLACK
6
CONTINUOUS
10
5.0729
20
-4.43111
11
5.07545
21
-4.43282
0
LINE
8
BLACK
6
CONTINUOUS
10
5.07545
20
-4.43282
11
5.07716
21
-4.43537
0
LINE
8
BLACK
6
CONTINUOUS
10
5.07716
20
-4.43537
11
5.07776
21
-4.43839
0
LINE
8
BLACK
6
CONTINUOUS
10
5.07776
20
-4.43839
11
5.07776
21
-4.45413
0
LINE
8
BLACK
6
CONTINUOUS
10
5.07776
20
-4.45413
11
5.07716
21
-4.45715
0
LINE
8
BLACK
6
CONTINUOUS
10
5.07716
20
-4.45715
11
5.07545
21
-4.4597
0
LINE
8
BLACK
6
CONTINUOUS
10
5.07545
20
-4.4597
11
5.0729
21
-4.46141
0
LINE
8
BLACK
6
CONTINUOUS
10
5.0729
20
-4.46141
11
5.06988
21
-4.46201
0
LINE
8
BLACK
6
CONTINUOUS
10
5.06988
20
-4.46201
11
5.04823
21
-4.46201
0
LINE
8
BLACK
6
CONTINUOUS
10
5.04823
20
-4.46201
11
5.04522
21
-4.46141
0
LINE
8
BLACK
6
CONTINUOUS
10
5.04522
20
-4.46141
11
5.04266
21
-4.4597
0
LINE
8
BLACK
6
CONTINUOUS
10
5.04266
20
-4.4597
11
5.04095
21
-4.45715
0
LINE
8
BLACK
6
CONTINUOUS
10
5.04095
20
-4.45715
11
5.04035
21
-4.45413
0
LINE
8
BLACK
6
CONTINUOUS
10
5.04035
20
-4.45413
11
5.04035
21
-4.43839
0
LINE
8
BLACK
6
CONTINUOUS
10
5.04035
20
-4.43839
11
5.04095
21
-4.43537
0
LINE
8
BLACK
6
CONTINUOUS
10
5.04095
20
-4.43537
11
5.04266
21
-4.43282
0
LINE
8
BLACK
6
CONTINUOUS
10
5.04266
20
-4.43282
11
5.04522
21
-4.43111
0
LINE
8
BLACK
6
CONTINUOUS
10
5.04522
20
-4.43111
11
5.04823
21
-4.43051
0
LINE
8
BLACK
6
CONTINUOUS
10
5.04823
20
-4.43051
11
5.06988
21
-4.43051
0
LINE
8
BLACK
6
CONTINUOUS
10
5.06988
20
-4.43051
11
5.0729
21
-4.43111
0
LINE
8
BLACK
6
CONTINUOUS
10
5.14119
20
-4.42725
11
5.14406
21
-4.42917
0
LINE
8
BLACK
6
CONTINUOUS
10
5.14406
20
-4.42917
11
5.14598
21
-4.43204
0
LINE
8
BLACK
6
CONTINUOUS
10
5.14598
20
-4.43204
11
5.14665
21
-4.43543
0
LINE
8
BLACK
6
CONTINUOUS
10
5.14665
20
-4.43543
11
5.14665
21
-4.45315
0
LINE
8
BLACK
6
CONTINUOUS
10
5.14665
20
-4.45315
11
5.14598
21
-4.45654
0
LINE
8
BLACK
6
CONTINUOUS
10
5.14598
20
-4.45654
11
5.14406
21
-4.45941
0
LINE
8
BLACK
6
CONTINUOUS
10
5.14406
20
-4.45941
11
5.14119
21
-4.46133
0
LINE
8
BLACK
6
CONTINUOUS
10
5.14119
20
-4.46133
11
5.1378
21
-4.46201
0
LINE
8
BLACK
6
CONTINUOUS
10
5.1378
20
-4.46201
11
5.11811
21
-4.46201
0
LINE
8
BLACK
6
CONTINUOUS
10
5.11811
20
-4.46201
11
5.11472
21
-4.46133
0
LINE
8
BLACK
6
CONTINUOUS
10
5.11472
20
-4.46133
11
5.11185
21
-4.45941
0
LINE
8
BLACK
6
CONTINUOUS
10
5.11185
20
-4.45941
11
5.10993
21
-4.45654
0
LINE
8
BLACK
6
CONTINUOUS
10
5.10993
20
-4.45654
11
5.10925
21
-4.45315
0
LINE
8
BLACK
6
CONTINUOUS
10
5.10925
20
-4.45315
11
5.10925
21
-4.43543
0
LINE
8
BLACK
6
CONTINUOUS
10
5.10925
20
-4.43543
11
5.10993
21
-4.43204
0
LINE
8
BLACK
6
CONTINUOUS
10
5.10993
20
-4.43204
11
5.11185
21
-4.42917
0
LINE
8
BLACK
6
CONTINUOUS
10
5.11185
20
-4.42917
11
5.11472
21
-4.42725
0
LINE
8
BLACK
6
CONTINUOUS
10
5.11472
20
-4.42725
11
5.11811
21
-4.42657
0
LINE
8
BLACK
6
CONTINUOUS
10
5.11811
20
-4.42657
11
5.1378
21
-4.42657
0
LINE
8
BLACK
6
CONTINUOUS
10
5.1378
20
-4.42657
11
5.14119
21
-4.42725
0
LINE
8
BLACK
6
CONTINUOUS
10
5.20024
20
-4.42725
11
5.20311
21
-4.42917
0
LINE
8
BLACK
6
CONTINUOUS
10
5.20311
20
-4.42917
11
5.20503
21
-4.43204
0
LINE
8
BLACK
6
CONTINUOUS
10
5.20503
20
-4.43204
11
5.20571
21
-4.43543
0
LINE
8
BLACK
6
CONTINUOUS
10
5.20571
20
-4.43543
11
5.20571
21
-4.45315
0
LINE
8
BLACK
6
CONTINUOUS
10
5.20571
20
-4.45315
11
5.20503
21
-4.45654
0
LINE
8
BLACK
6
CONTINUOUS
10
5.20503
20
-4.45654
11
5.20311
21
-4.45941
0
LINE
8
BLACK
6
CONTINUOUS
10
5.20311
20
-4.45941
11
5.20024
21
-4.46133
0
LINE
8
BLACK
6
CONTINUOUS
10
5.20024
20
-4.46133
11
5.19685
21
-4.46201
0
LINE
8
BLACK
6
CONTINUOUS
10
5.19685
20
-4.46201
11
5.17717
21
-4.46201
0
LINE
8
BLACK
6
CONTINUOUS
10
5.17717
20
-4.46201
11
5.17378
21
-4.46133
0
LINE
8
BLACK
6
CONTINUOUS
10
5.17378
20
-4.46133
11
5.1709
21
-4.45941
0
LINE
8
BLACK
6
CONTINUOUS
10
5.1709
20
-4.45941
11
5.16898
21
-4.45654
0
LINE
8
BLACK
6
CONTINUOUS
10
5.16898
20
-4.45654
11
5.16831
21
-4.45315
0
LINE
8
BLACK
6
CONTINUOUS
10
5.16831
20
-4.45315
11
5.16831
21
-4.43543
0
LINE
8
BLACK
6
CONTINUOUS
10
5.16831
20
-4.43543
11
5.16898
21
-4.43204
0
LINE
8
BLACK
6
CONTINUOUS
10
5.16898
20
-4.43204
11
5.1709
21
-4.42917
0
LINE
8
BLACK
6
CONTINUOUS
10
5.1709
20
-4.42917
11
5.17378
21
-4.42725
0
LINE
8
BLACK
6
CONTINUOUS
10
5.17378
20
-4.42725
11
5.17717
21
-4.42657
0
LINE
8
BLACK
6
CONTINUOUS
10
5.17717
20
-4.42657
11
5.19685
21
-4.42657
0
LINE
8
BLACK
6
CONTINUOUS
10
5.19685
20
-4.42657
11
5.20024
21
-4.42725
0
LINE
8
BLACK
6
CONTINUOUS
10
4.88528
20
-4.42725
11
4.88815
21
-4.42917
0
LINE
8
BLACK
6
CONTINUOUS
10
4.88815
20
-4.42917
11
4.89007
21
-4.43204
0
LINE
8
BLACK
6
CONTINUOUS
10
4.89007
20
-4.43204
11
4.89075
21
-4.43543
0
LINE
8
BLACK
6
CONTINUOUS
10
4.89075
20
-4.43543
11
4.89075
21
-4.45315
0
LINE
8
BLACK
6
CONTINUOUS
10
4.89075
20
-4.45315
11
4.89007
21
-4.45654
0
LINE
8
BLACK
6
CONTINUOUS
10
4.89007
20
-4.45654
11
4.88815
21
-4.45941
0
LINE
8
BLACK
6
CONTINUOUS
10
4.88815
20
-4.45941
11
4.88528
21
-4.46133
0
LINE
8
BLACK
6
CONTINUOUS
10
4.88528
20
-4.46133
11
4.88189
21
-4.46201
0
LINE
8
BLACK
6
CONTINUOUS
10
4.88189
20
-4.46201
11
4.8622
21
-4.46201
0
LINE
8
BLACK
6
CONTINUOUS
10
4.8622
20
-4.46201
11
4.85881
21
-4.46133
0
LINE
8
BLACK
6
CONTINUOUS
10
4.85881
20
-4.46133
11
4.85594
21
-4.45941
0
LINE
8
BLACK
6
CONTINUOUS
10
4.85594
20
-4.45941
11
4.85402
21
-4.45654
0
LINE
8
BLACK
6
CONTINUOUS
10
4.85402
20
-4.45654
11
4.85335
21
-4.45315
0
LINE
8
BLACK
6
CONTINUOUS
10
4.85335
20
-4.45315
11
4.85335
21
-4.43543
0
LINE
8
BLACK
6
CONTINUOUS
10
4.85335
20
-4.43543
11
4.85402
21
-4.43204
0
LINE
8
BLACK
6
CONTINUOUS
10
4.85402
20
-4.43204
11
4.85594
21
-4.42917
0
LINE
8
BLACK
6
CONTINUOUS
10
4.85594
20
-4.42917
11
4.85881
21
-4.42725
0
LINE
8
BLACK
6
CONTINUOUS
10
4.85881
20
-4.42725
11
4.8622
21
-4.42657
0
LINE
8
BLACK
6
CONTINUOUS
10
4.8622
20
-4.42657
11
4.88189
21
-4.42657
0
LINE
8
BLACK
6
CONTINUOUS
10
4.88189
20
-4.42657
11
4.88528
21
-4.42725
0
LINE
8
BLACK
6
CONTINUOUS
10
4.95478
20
-4.43111
11
4.95734
21
-4.43282
0
LINE
8
BLACK
6
CONTINUOUS
10
4.95734
20
-4.43282
11
4.95905
21
-4.43537
0
LINE
8
BLACK
6
CONTINUOUS
10
4.95905
20
-4.43537
11
4.95965
21
-4.43839
0
LINE
8
BLACK
6
CONTINUOUS
10
4.95965
20
-4.43839
11
4.95965
21
-4.45413
0
LINE
8
BLACK
6
CONTINUOUS
10
4.95965
20
-4.45413
11
4.95905
21
-4.45715
0
LINE
8
BLACK
6
CONTINUOUS
10
4.95905
20
-4.45715
11
4.95734
21
-4.4597
0
LINE
8
BLACK
6
CONTINUOUS
10
4.95734
20
-4.4597
11
4.95478
21
-4.46141
0
LINE
8
BLACK
6
CONTINUOUS
10
4.95478
20
-4.46141
11
4.95177
21
-4.46201
0
LINE
8
BLACK
6
CONTINUOUS
10
4.95177
20
-4.46201
11
4.93012
21
-4.46201
0
LINE
8
BLACK
6
CONTINUOUS
10
4.93012
20
-4.46201
11
4.9271
21
-4.46141
0
LINE
8
BLACK
6
CONTINUOUS
10
4.9271
20
-4.46141
11
4.92455
21
-4.4597
0
LINE
8
BLACK
6
CONTINUOUS
10
4.92455
20
-4.4597
11
4.92284
21
-4.45715
0
LINE
8
BLACK
6
CONTINUOUS
10
4.92284
20
-4.45715
11
4.92224
21
-4.45413
0
LINE
8
BLACK
6
CONTINUOUS
10
4.92224
20
-4.45413
11
4.92224
21
-4.43839
0
LINE
8
BLACK
6
CONTINUOUS
10
4.92224
20
-4.43839
11
4.92284
21
-4.43537
0
LINE
8
BLACK
6
CONTINUOUS
10
4.92284
20
-4.43537
11
4.92455
21
-4.43282
0
LINE
8
BLACK
6
CONTINUOUS
10
4.92455
20
-4.43282
11
4.9271
21
-4.43111
0
LINE
8
BLACK
6
CONTINUOUS
10
4.9271
20
-4.43111
11
4.93012
21
-4.43051
0
LINE
8
BLACK
6
CONTINUOUS
10
4.93012
20
-4.43051
11
4.95177
21
-4.43051
0
LINE
8
BLACK
6
CONTINUOUS
10
4.95177
20
-4.43051
11
4.95478
21
-4.43111
0
LINE
8
BLACK
6
CONTINUOUS
10
4.82622
20
-4.42725
11
4.8291
21
-4.42917
0
LINE
8
BLACK
6
CONTINUOUS
10
4.8291
20
-4.42917
11
4.83102
21
-4.43204
0
LINE
8
BLACK
6
CONTINUOUS
10
4.83102
20
-4.43204
11
4.83169
21
-4.43543
0
LINE
8
BLACK
6
CONTINUOUS
10
4.83169
20
-4.43543
11
4.83169
21
-4.45315
0
LINE
8
BLACK
6
CONTINUOUS
10
4.83169
20
-4.45315
11
4.83102
21
-4.45654
0
LINE
8
BLACK
6
CONTINUOUS
10
4.83102
20
-4.45654
11
4.8291
21
-4.45941
0
LINE
8
BLACK
6
CONTINUOUS
10
4.8291
20
-4.45941
11
4.82622
21
-4.46133
0
LINE
8
BLACK
6
CONTINUOUS
10
4.82622
20
-4.46133
11
4.82283
21
-4.46201
0
LINE
8
BLACK
6
CONTINUOUS
10
4.82283
20
-4.46201
11
4.80315
21
-4.46201
0
LINE
8
BLACK
6
CONTINUOUS
10
4.80315
20
-4.46201
11
4.79976
21
-4.46133
0
LINE
8
BLACK
6
CONTINUOUS
10
4.79976
20
-4.46133
11
4.79689
21
-4.45941
0
LINE
8
BLACK
6
CONTINUOUS
10
4.79689
20
-4.45941
11
4.79497
21
-4.45654
0
LINE
8
BLACK
6
CONTINUOUS
10
4.79497
20
-4.45654
11
4.79429
21
-4.45315
0
LINE
8
BLACK
6
CONTINUOUS
10
4.79429
20
-4.45315
11
4.79429
21
-4.43543
0
LINE
8
BLACK
6
CONTINUOUS
10
4.79429
20
-4.43543
11
4.79497
21
-4.43204
0
LINE
8
BLACK
6
CONTINUOUS
10
4.79497
20
-4.43204
11
4.79689
21
-4.42917
0
LINE
8
BLACK
6
CONTINUOUS
10
4.79689
20
-4.42917
11
4.79976
21
-4.42725
0
LINE
8
BLACK
6
CONTINUOUS
10
4.79976
20
-4.42725
11
4.80315
21
-4.42657
0
LINE
8
BLACK
6
CONTINUOUS
10
4.80315
20
-4.42657
11
4.82283
21
-4.42657
0
LINE
8
BLACK
6
CONTINUOUS
10
4.82283
20
-4.42657
11
4.82622
21
-4.42725
0
LINE
8
BLACK
6
CONTINUOUS
10
5.26975
20
-4.41536
11
5.2723
21
-4.41707
0
LINE
8
BLACK
6
CONTINUOUS
10
5.2723
20
-4.41707
11
5.27401
21
-4.41962
0
LINE
8
BLACK
6
CONTINUOUS
10
5.27401
20
-4.41962
11
5.27461
21
-4.42264
0
LINE
8
BLACK
6
CONTINUOUS
10
5.27461
20
-4.42264
11
5.27461
21
-4.43839
0
LINE
8
BLACK
6
CONTINUOUS
10
5.27461
20
-4.43839
11
5.27401
21
-4.4414
0
LINE
8
BLACK
6
CONTINUOUS
10
5.27401
20
-4.4414
11
5.2723
21
-4.44395
0
LINE
8
BLACK
6
CONTINUOUS
10
5.2723
20
-4.44395
11
5.26975
21
-4.44566
0
LINE
8
BLACK
6
CONTINUOUS
10
5.26975
20
-4.44566
11
5.26673
21
-4.44626
0
LINE
8
BLACK
6
CONTINUOUS
10
5.26673
20
-4.44626
11
5.24508
21
-4.44626
0
LINE
8
BLACK
6
CONTINUOUS
10
5.24508
20
-4.44626
11
5.24207
21
-4.44566
0
LINE
8
BLACK
6
CONTINUOUS
10
5.24207
20
-4.44566
11
5.23951
21
-4.44395
0
LINE
8
BLACK
6
CONTINUOUS
10
5.23951
20
-4.44395
11
5.2378
21
-4.4414
0
LINE
8
BLACK
6
CONTINUOUS
10
5.2378
20
-4.4414
11
5.2372
21
-4.43839
0
LINE
8
BLACK
6
CONTINUOUS
10
5.2372
20
-4.43839
11
5.2372
21
-4.42264
0
LINE
8
BLACK
6
CONTINUOUS
10
5.2372
20
-4.42264
11
5.2378
21
-4.41962
0
LINE
8
BLACK
6
CONTINUOUS
10
5.2378
20
-4.41962
11
5.23951
21
-4.41707
0
LINE
8
BLACK
6
CONTINUOUS
10
5.23951
20
-4.41707
11
5.24207
21
-4.41536
0
LINE
8
BLACK
6
CONTINUOUS
10
5.24207
20
-4.41536
11
5.24508
21
-4.41476
0
LINE
8
BLACK
6
CONTINUOUS
10
5.24508
20
-4.41476
11
5.26673
21
-4.41476
0
LINE
8
BLACK
6
CONTINUOUS
10
5.26673
20
-4.41476
11
5.26975
21
-4.41536
0
LINE
8
BLACK
6
CONTINUOUS
10
4.75793
20
-4.41536
11
4.76049
21
-4.41707
0
LINE
8
BLACK
6
CONTINUOUS
10
4.76049
20
-4.41707
11
4.7622
21
-4.41962
0
LINE
8
BLACK
6
CONTINUOUS
10
4.7622
20
-4.41962
11
4.7628
21
-4.42264
0
LINE
8
BLACK
6
CONTINUOUS
10
4.7628
20
-4.42264
11
4.7628
21
-4.43839
0
LINE
8
BLACK
6
CONTINUOUS
10
4.7628
20
-4.43839
11
4.7622
21
-4.4414
0
LINE
8
BLACK
6
CONTINUOUS
10
4.7622
20
-4.4414
11
4.76049
21
-4.44395
0
LINE
8
BLACK
6
CONTINUOUS
10
4.76049
20
-4.44395
11
4.75793
21
-4.44566
0
LINE
8
BLACK
6
CONTINUOUS
10
4.75793
20
-4.44566
11
4.75492
21
-4.44626
0
LINE
8
BLACK
6
CONTINUOUS
10
4.75492
20
-4.44626
11
4.73327
21
-4.44626
0
LINE
8
BLACK
6
CONTINUOUS
10
4.73327
20
-4.44626
11
4.73025
21
-4.44566
0
LINE
8
BLACK
6
CONTINUOUS
10
4.73025
20
-4.44566
11
4.7277
21
-4.44395
0
LINE
8
BLACK
6
CONTINUOUS
10
4.7277
20
-4.44395
11
4.72599
21
-4.4414
0
LINE
8
BLACK
6
CONTINUOUS
10
4.72599
20
-4.4414
11
4.72539
21
-4.43839
0
LINE
8
BLACK
6
CONTINUOUS
10
4.72539
20
-4.43839
11
4.72539
21
-4.42264
0
LINE
8
BLACK
6
CONTINUOUS
10
4.72539
20
-4.42264
11
4.72599
21
-4.41962
0
LINE
8
BLACK
6
CONTINUOUS
10
4.72599
20
-4.41962
11
4.7277
21
-4.41707
0
LINE
8
BLACK
6
CONTINUOUS
10
4.7277
20
-4.41707
11
4.73025
21
-4.41536
0
LINE
8
BLACK
6
CONTINUOUS
10
4.73025
20
-4.41536
11
4.73327
21
-4.41476
0
LINE
8
BLACK
6
CONTINUOUS
10
4.73327
20
-4.41476
11
4.75492
21
-4.41476
0
LINE
8
BLACK
6
CONTINUOUS
10
4.75492
20
-4.41476
11
4.75793
21
-4.41536
0
LINE
8
BLACK
6
CONTINUOUS
10
5.87301
20
-4.37421
11
5.8762
21
-4.37634
0
LINE
8
BLACK
6
CONTINUOUS
10
5.8762
20
-4.37634
11
5.87834
21
-4.37953
0
LINE
8
BLACK
6
CONTINUOUS
10
5.87834
20
-4.37953
11
5.87909
21
-4.3833
0
LINE
8
BLACK
6
CONTINUOUS
10
5.87909
20
-4.3833
11
5.87909
21
-4.4207
0
LINE
8
BLACK
6
CONTINUOUS
10
5.87909
20
-4.4207
11
5.87834
21
-4.42447
0
LINE
8
BLACK
6
CONTINUOUS
10
5.87834
20
-4.42447
11
5.8762
21
-4.42766
0
LINE
8
BLACK
6
CONTINUOUS
10
5.8762
20
-4.42766
11
5.87301
21
-4.42979
0
LINE
8
BLACK
6
CONTINUOUS
10
5.87301
20
-4.42979
11
5.86924
21
-4.43054
0
LINE
8
BLACK
6
CONTINUOUS
10
5.86924
20
-4.43054
11
5.84956
21
-4.43054
0
LINE
8
BLACK
6
CONTINUOUS
10
5.84956
20
-4.43054
11
5.84579
21
-4.42979
0
LINE
8
BLACK
6
CONTINUOUS
10
5.84579
20
-4.42979
11
5.8426
21
-4.42766
0
LINE
8
BLACK
6
CONTINUOUS
10
5.8426
20
-4.42766
11
5.84047
21
-4.42447
0
LINE
8
BLACK
6
CONTINUOUS
10
5.84047
20
-4.42447
11
5.83972
21
-4.4207
0
LINE
8
BLACK
6
CONTINUOUS
10
5.83972
20
-4.4207
11
5.83972
21
-4.3833
0
LINE
8
BLACK
6
CONTINUOUS
10
5.83972
20
-4.3833
11
5.84047
21
-4.37953
0
LINE
8
BLACK
6
CONTINUOUS
10
5.84047
20
-4.37953
11
5.8426
21
-4.37634
0
LINE
8
BLACK
6
CONTINUOUS
10
5.8426
20
-4.37634
11
5.84579
21
-4.37421
0
LINE
8
BLACK
6
CONTINUOUS
10
5.84579
20
-4.37421
11
5.84956
21
-4.37346
0
LINE
8
BLACK
6
CONTINUOUS
10
5.84956
20
-4.37346
11
5.86924
21
-4.37346
0
LINE
8
BLACK
6
CONTINUOUS
10
5.86924
20
-4.37346
11
5.87301
21
-4.37421
0
LINE
8
BLACK
6
CONTINUOUS
10
5.79821
20
-4.37421
11
5.8014
21
-4.37634
0
LINE
8
BLACK
6
CONTINUOUS
10
5.8014
20
-4.37634
11
5.80353
21
-4.37953
0
LINE
8
BLACK
6
CONTINUOUS
10
5.80353
20
-4.37953
11
5.80428
21
-4.3833
0
LINE
8
BLACK
6
CONTINUOUS
10
5.80428
20
-4.3833
11
5.80428
21
-4.4207
0
LINE
8
BLACK
6
CONTINUOUS
10
5.80428
20
-4.4207
11
5.80353
21
-4.42447
0
LINE
8
BLACK
6
CONTINUOUS
10
5.80353
20
-4.42447
11
5.8014
21
-4.42766
0
LINE
8
BLACK
6
CONTINUOUS
10
5.8014
20
-4.42766
11
5.79821
21
-4.42979
0
LINE
8
BLACK
6
CONTINUOUS
10
5.79821
20
-4.42979
11
5.79444
21
-4.43054
0
LINE
8
BLACK
6
CONTINUOUS
10
5.79444
20
-4.43054
11
5.77476
21
-4.43054
0
LINE
8
BLACK
6
CONTINUOUS
10
5.77476
20
-4.43054
11
5.77099
21
-4.42979
0
LINE
8
BLACK
6
CONTINUOUS
10
5.77099
20
-4.42979
11
5.7678
21
-4.42766
0
LINE
8
BLACK
6
CONTINUOUS
10
5.7678
20
-4.42766
11
5.76566
21
-4.42447
0
LINE
8
BLACK
6
CONTINUOUS
10
5.76566
20
-4.42447
11
5.76491
21
-4.4207
0
LINE
8
BLACK
6
CONTINUOUS
10
5.76491
20
-4.4207
11
5.76491
21
-4.3833
0
LINE
8
BLACK
6
CONTINUOUS
10
5.76491
20
-4.3833
11
5.76566
21
-4.37953
0
LINE
8
BLACK
6
CONTINUOUS
10
5.76566
20
-4.37953
11
5.7678
21
-4.37634
0
LINE
8
BLACK
6
CONTINUOUS
10
5.7678
20
-4.37634
11
5.77099
21
-4.37421
0
LINE
8
BLACK
6
CONTINUOUS
10
5.77099
20
-4.37421
11
5.77476
21
-4.37346
0
LINE
8
BLACK
6
CONTINUOUS
10
5.77476
20
-4.37346
11
5.79444
21
-4.37346
0
LINE
8
BLACK
6
CONTINUOUS
10
5.79444
20
-4.37346
11
5.79821
21
-4.37421
0
LINE
8
BLACK
6
CONTINUOUS
10
4.82622
20
-4.36623
11
4.8291
21
-4.36815
0
LINE
8
BLACK
6
CONTINUOUS
10
4.8291
20
-4.36815
11
4.83102
21
-4.37102
0
LINE
8
BLACK
6
CONTINUOUS
10
4.83102
20
-4.37102
11
4.83169
21
-4.37441
0
LINE
8
BLACK
6
CONTINUOUS
10
4.83169
20
-4.37441
11
4.83169
21
-4.39213
0
LINE
8
BLACK
6
CONTINUOUS
10
4.83169
20
-4.39213
11
4.83102
21
-4.39552
0
LINE
8
BLACK
6
CONTINUOUS
10
4.83102
20
-4.39552
11
4.8291
21
-4.39839
0
LINE
8
BLACK
6
CONTINUOUS
10
4.8291
20
-4.39839
11
4.82622
21
-4.40031
0
LINE
8
BLACK
6
CONTINUOUS
10
4.82622
20
-4.40031
11
4.82283
21
-4.40098
0
LINE
8
BLACK
6
CONTINUOUS
10
4.82283
20
-4.40098
11
4.80315
21
-4.40098
0
LINE
8
BLACK
6
CONTINUOUS
10
4.80315
20
-4.40098
11
4.79976
21
-4.40031
0
LINE
8
BLACK
6
CONTINUOUS
10
4.79976
20
-4.40031
11
4.79689
21
-4.39839
0
LINE
8
BLACK
6
CONTINUOUS
10
4.79689
20
-4.39839
11
4.79497
21
-4.39552
0
LINE
8
BLACK
6
CONTINUOUS
10
4.79497
20
-4.39552
11
4.79429
21
-4.39213
0
LINE
8
BLACK
6
CONTINUOUS
10
4.79429
20
-4.39213
11
4.79429
21
-4.37441
0
LINE
8
BLACK
6
CONTINUOUS
10
4.79429
20
-4.37441
11
4.79497
21
-4.37102
0
LINE
8
BLACK
6
CONTINUOUS
10
4.79497
20
-4.37102
11
4.79689
21
-4.36815
0
LINE
8
BLACK
6
CONTINUOUS
10
4.79689
20
-4.36815
11
4.79976
21
-4.36623
0
LINE
8
BLACK
6
CONTINUOUS
10
4.79976
20
-4.36623
11
4.80315
21
-4.36555
0
LINE
8
BLACK
6
CONTINUOUS
10
4.80315
20
-4.36555
11
4.82283
21
-4.36555
0
LINE
8
BLACK
6
CONTINUOUS
10
4.82283
20
-4.36555
11
4.82622
21
-4.36623
0
LINE
8
BLACK
6
CONTINUOUS
10
4.88528
20
-4.36623
11
4.88815
21
-4.36815
0
LINE
8
BLACK
6
CONTINUOUS
10
4.88815
20
-4.36815
11
4.89007
21
-4.37102
0
LINE
8
BLACK
6
CONTINUOUS
10
4.89007
20
-4.37102
11
4.89075
21
-4.37441
0
LINE
8
BLACK
6
CONTINUOUS
10
4.89075
20
-4.37441
11
4.89075
21
-4.39213
0
LINE
8
BLACK
6
CONTINUOUS
10
4.89075
20
-4.39213
11
4.89007
21
-4.39552
0
LINE
8
BLACK
6
CONTINUOUS
10
4.89007
20
-4.39552
11
4.88815
21
-4.39839
0
LINE
8
BLACK
6
CONTINUOUS
10
4.88815
20
-4.39839
11
4.88528
21
-4.40031
0
LINE
8
BLACK
6
CONTINUOUS
10
4.88528
20
-4.40031
11
4.88189
21
-4.40098
0
LINE
8
BLACK
6
CONTINUOUS
10
4.88189
20
-4.40098
11
4.8622
21
-4.40098
0
LINE
8
BLACK
6
CONTINUOUS
10
4.8622
20
-4.40098
11
4.85881
21
-4.40031
0
LINE
8
BLACK
6
CONTINUOUS
10
4.85881
20
-4.40031
11
4.85594
21
-4.39839
0
LINE
8
BLACK
6
CONTINUOUS
10
4.85594
20
-4.39839
11
4.85402
21
-4.39552
0
LINE
8
BLACK
6
CONTINUOUS
10
4.85402
20
-4.39552
11
4.85335
21
-4.39213
0
LINE
8
BLACK
6
CONTINUOUS
10
4.85335
20
-4.39213
11
4.85335
21
-4.37441
0
LINE
8
BLACK
6
CONTINUOUS
10
4.85335
20
-4.37441
11
4.85402
21
-4.37102
0
LINE
8
BLACK
6
CONTINUOUS
10
4.85402
20
-4.37102
11
4.85594
21
-4.36815
0
LINE
8
BLACK
6
CONTINUOUS
10
4.85594
20
-4.36815
11
4.85881
21
-4.36623
0
LINE
8
BLACK
6
CONTINUOUS
10
4.85881
20
-4.36623
11
4.8622
21
-4.36555
0
LINE
8
BLACK
6
CONTINUOUS
10
4.8622
20
-4.36555
11
4.88189
21
-4.36555
0
LINE
8
BLACK
6
CONTINUOUS
10
4.88189
20
-4.36555
11
4.88528
21
-4.36623
0
LINE
8
BLACK
6
CONTINUOUS
10
5.20024
20
-4.36623
11
5.20311
21
-4.36815
0
LINE
8
BLACK
6
CONTINUOUS
10
5.20311
20
-4.36815
11
5.20503
21
-4.37102
0
LINE
8
BLACK
6
CONTINUOUS
10
5.20503
20
-4.37102
11
5.20571
21
-4.37441
0
LINE
8
BLACK
6
CONTINUOUS
10
5.20571
20
-4.37441
11
5.20571
21
-4.39213
0
LINE
8
BLACK
6
CONTINUOUS
10
5.20571
20
-4.39213
11
5.20503
21
-4.39552
0
LINE
8
BLACK
6
CONTINUOUS
10
5.20503
20
-4.39552
11
5.20311
21
-4.39839
0
LINE
8
BLACK
6
CONTINUOUS
10
5.20311
20
-4.39839
11
5.20024
21
-4.40031
0
LINE
8
BLACK
6
CONTINUOUS
10
5.20024
20
-4.40031
11
5.19685
21
-4.40098
0
LINE
8
BLACK
6
CONTINUOUS
10
5.19685
20
-4.40098
11
5.17717
21
-4.40098
0
LINE
8
BLACK
6
CONTINUOUS
10
5.17717
20
-4.40098
11
5.17378
21
-4.40031
0
LINE
8
BLACK
6
CONTINUOUS
10
5.17378
20
-4.40031
11
5.1709
21
-4.39839
0
LINE
8
BLACK
6
CONTINUOUS
10
5.1709
20
-4.39839
11
5.16898
21
-4.39552
0
LINE
8
BLACK
6
CONTINUOUS
10
5.16898
20
-4.39552
11
5.16831
21
-4.39213
0
LINE
8
BLACK
6
CONTINUOUS
10
5.16831
20
-4.39213
11
5.16831
21
-4.37441
0
LINE
8
BLACK
6
CONTINUOUS
10
5.16831
20
-4.37441
11
5.16898
21
-4.37102
0
LINE
8
BLACK
6
CONTINUOUS
10
5.16898
20
-4.37102
11
5.1709
21
-4.36815
0
LINE
8
BLACK
6
CONTINUOUS
10
5.1709
20
-4.36815
11
5.17378
21
-4.36623
0
LINE
8
BLACK
6
CONTINUOUS
10
5.17378
20
-4.36623
11
5.17717
21
-4.36555
0
LINE
8
BLACK
6
CONTINUOUS
10
5.17717
20
-4.36555
11
5.19685
21
-4.36555
0
LINE
8
BLACK
6
CONTINUOUS
10
5.19685
20
-4.36555
11
5.20024
21
-4.36623
0
LINE
8
BLACK
6
CONTINUOUS
10
5.14119
20
-4.36623
11
5.14406
21
-4.36815
0
LINE
8
BLACK
6
CONTINUOUS
10
5.14406
20
-4.36815
11
5.14598
21
-4.37102
0
LINE
8
BLACK
6
CONTINUOUS
10
5.14598
20
-4.37102
11
5.14665
21
-4.37441
0
LINE
8
BLACK
6
CONTINUOUS
10
5.14665
20
-4.37441
11
5.14665
21
-4.39213
0
LINE
8
BLACK
6
CONTINUOUS
10
5.14665
20
-4.39213
11
5.14598
21
-4.39552
0
LINE
8
BLACK
6
CONTINUOUS
10
5.14598
20
-4.39552
11
5.14406
21
-4.39839
0
LINE
8
BLACK
6
CONTINUOUS
10
5.14406
20
-4.39839
11
5.14119
21
-4.40031
0
LINE
8
BLACK
6
CONTINUOUS
10
5.14119
20
-4.40031
11
5.1378
21
-4.40098
0
LINE
8
BLACK
6
CONTINUOUS
10
5.1378
20
-4.40098
11
5.11811
21
-4.40098
0
LINE
8
BLACK
6
CONTINUOUS
10
5.11811
20
-4.40098
11
5.11472
21
-4.40031
0
LINE
8
BLACK
6
CONTINUOUS
10
5.11472
20
-4.40031
11
5.11185
21
-4.39839
0
LINE
8
BLACK
6
CONTINUOUS
10
5.11185
20
-4.39839
11
5.10993
21
-4.39552
0
LINE
8
BLACK
6
CONTINUOUS
10
5.10993
20
-4.39552
11
5.10925
21
-4.39213
0
LINE
8
BLACK
6
CONTINUOUS
10
5.10925
20
-4.39213
11
5.10925
21
-4.37441
0
LINE
8
BLACK
6
CONTINUOUS
10
5.10925
20
-4.37441
11
5.10993
21
-4.37102
0
LINE
8
BLACK
6
CONTINUOUS
10
5.10993
20
-4.37102
11
5.11185
21
-4.36815
0
LINE
8
BLACK
6
CONTINUOUS
10
5.11185
20
-4.36815
11
5.11472
21
-4.36623
0
LINE
8
BLACK
6
CONTINUOUS
10
5.11472
20
-4.36623
11
5.11811
21
-4.36555
0
LINE
8
BLACK
6
CONTINUOUS
10
5.11811
20
-4.36555
11
5.1378
21
-4.36555
0
LINE
8
BLACK
6
CONTINUOUS
10
5.1378
20
-4.36555
11
5.14119
21
-4.36623
0
LINE
8
BLACK
6
CONTINUOUS
10
4.95478
20
-4.36615
11
4.95734
21
-4.36786
0
LINE
8
BLACK
6
CONTINUOUS
10
4.95734
20
-4.36786
11
4.95905
21
-4.37041
0
LINE
8
BLACK
6
CONTINUOUS
10
4.95905
20
-4.37041
11
4.95965
21
-4.37343
0
LINE
8
BLACK
6
CONTINUOUS
10
4.95965
20
-4.37343
11
4.95965
21
-4.38917
0
LINE
8
BLACK
6
CONTINUOUS
10
4.95965
20
-4.38917
11
4.95905
21
-4.39219
0
LINE
8
BLACK
6
CONTINUOUS
10
4.95905
20
-4.39219
11
4.95734
21
-4.39474
0
LINE
8
BLACK
6
CONTINUOUS
10
4.95734
20
-4.39474
11
4.95478
21
-4.39645
0
LINE
8
BLACK
6
CONTINUOUS
10
4.95478
20
-4.39645
11
4.95177
21
-4.39705
0
LINE
8
BLACK
6
CONTINUOUS
10
4.95177
20
-4.39705
11
4.93012
21
-4.39705
0
LINE
8
BLACK
6
CONTINUOUS
10
4.93012
20
-4.39705
11
4.9271
21
-4.39645
0
LINE
8
BLACK
6
CONTINUOUS
10
4.9271
20
-4.39645
11
4.92455
21
-4.39474
0
LINE
8
BLACK
6
CONTINUOUS
10
4.92455
20
-4.39474
11
4.92284
21
-4.39219
0
LINE
8
BLACK
6
CONTINUOUS
10
4.92284
20
-4.39219
11
4.92224
21
-4.38917
0
LINE
8
BLACK
6
CONTINUOUS
10
4.92224
20
-4.38917
11
4.92224
21
-4.37343
0
LINE
8
BLACK
6
CONTINUOUS
10
4.92224
20
-4.37343
11
4.92284
21
-4.37041
0
LINE
8
BLACK
6
CONTINUOUS
10
4.92284
20
-4.37041
11
4.92455
21
-4.36786
0
LINE
8
BLACK
6
CONTINUOUS
10
4.92455
20
-4.36786
11
4.9271
21
-4.36615
0
LINE
8
BLACK
6
CONTINUOUS
10
4.9271
20
-4.36615
11
4.93012
21
-4.36555
0
LINE
8
BLACK
6
CONTINUOUS
10
4.93012
20
-4.36555
11
4.95177
21
-4.36555
0
LINE
8
BLACK
6
CONTINUOUS
10
4.95177
20
-4.36555
11
4.95478
21
-4.36615
0
LINE
8
BLACK
6
CONTINUOUS
10
5.0729
20
-4.36615
11
5.07545
21
-4.36786
0
LINE
8
BLACK
6
CONTINUOUS
10
5.07545
20
-4.36786
11
5.07716
21
-4.37041
0
LINE
8
BLACK
6
CONTINUOUS
10
5.07716
20
-4.37041
11
5.07776
21
-4.37343
0
LINE
8
BLACK
6
CONTINUOUS
10
5.07776
20
-4.37343
11
5.07776
21
-4.38917
0
LINE
8
BLACK
6
CONTINUOUS
10
5.07776
20
-4.38917
11
5.07716
21
-4.39219
0
LINE
8
BLACK
6
CONTINUOUS
10
5.07716
20
-4.39219
11
5.07545
21
-4.39474
0
LINE
8
BLACK
6
CONTINUOUS
10
5.07545
20
-4.39474
11
5.0729
21
-4.39645
0
LINE
8
BLACK
6
CONTINUOUS
10
5.0729
20
-4.39645
11
5.06988
21
-4.39705
0
LINE
8
BLACK
6
CONTINUOUS
10
5.06988
20
-4.39705
11
5.04823
21
-4.39705
0
LINE
8
BLACK
6
CONTINUOUS
10
5.04823
20
-4.39705
11
5.04522
21
-4.39645
0
LINE
8
BLACK
6
CONTINUOUS
10
5.04522
20
-4.39645
11
5.04266
21
-4.39474
0
LINE
8
BLACK
6
CONTINUOUS
10
5.04266
20
-4.39474
11
5.04095
21
-4.39219
0
LINE
8
BLACK
6
CONTINUOUS
10
5.04095
20
-4.39219
11
5.04035
21
-4.38917
0
LINE
8
BLACK
6
CONTINUOUS
10
5.04035
20
-4.38917
11
5.04035
21
-4.37343
0
LINE
8
BLACK
6
CONTINUOUS
10
5.04035
20
-4.37343
11
5.04095
21
-4.37041
0
LINE
8
BLACK
6
CONTINUOUS
10
5.04095
20
-4.37041
11
5.04266
21
-4.36786
0
LINE
8
BLACK
6
CONTINUOUS
10
5.04266
20
-4.36786
11
5.04522
21
-4.36615
0
LINE
8
BLACK
6
CONTINUOUS
10
5.04522
20
-4.36615
11
5.04823
21
-4.36555
0
LINE
8
BLACK
6
CONTINUOUS
10
5.04823
20
-4.36555
11
5.06988
21
-4.36555
0
LINE
8
BLACK
6
CONTINUOUS
10
5.06988
20
-4.36555
11
5.0729
21
-4.36615
0
LINE
8
BLACK
6
CONTINUOUS
10
4.75733
20
-4.35835
11
4.7602
21
-4.36027
0
LINE
8
BLACK
6
CONTINUOUS
10
4.7602
20
-4.36027
11
4.76212
21
-4.36315
0
LINE
8
BLACK
6
CONTINUOUS
10
4.76212
20
-4.36315
11
4.7628
21
-4.36654
0
LINE
8
BLACK
6
CONTINUOUS
10
4.7628
20
-4.36654
11
4.7628
21
-4.38425
0
LINE
8
BLACK
6
CONTINUOUS
10
4.7628
20
-4.38425
11
4.76212
21
-4.38764
0
LINE
8
BLACK
6
CONTINUOUS
10
4.76212
20
-4.38764
11
4.7602
21
-4.39052
0
LINE
8
BLACK
6
CONTINUOUS
10
4.7602
20
-4.39052
11
4.75733
21
-4.39244
0
LINE
8
BLACK
6
CONTINUOUS
10
4.75733
20
-4.39244
11
4.75394
21
-4.39311
0
LINE
8
BLACK
6
CONTINUOUS
10
4.75394
20
-4.39311
11
4.73425
21
-4.39311
0
LINE
8
BLACK
6
CONTINUOUS
10
4.73425
20
-4.39311
11
4.73086
21
-4.39244
0
LINE
8
BLACK
6
CONTINUOUS
10
4.73086
20
-4.39244
11
4.72799
21
-4.39052
0
LINE
8
BLACK
6
CONTINUOUS
10
4.72799
20
-4.39052
11
4.72607
21
-4.38764
0
LINE
8
BLACK
6
CONTINUOUS
10
4.72607
20
-4.38764
11
4.72539
21
-4.38425
0
LINE
8
BLACK
6
CONTINUOUS
10
4.72539
20
-4.38425
11
4.72539
21
-4.36654
0
LINE
8
BLACK
6
CONTINUOUS
10
4.72539
20
-4.36654
11
4.72607
21
-4.36315
0
LINE
8
BLACK
6
CONTINUOUS
10
4.72607
20
-4.36315
11
4.72799
21
-4.36027
0
LINE
8
BLACK
6
CONTINUOUS
10
4.72799
20
-4.36027
11
4.73086
21
-4.35835
0
LINE
8
BLACK
6
CONTINUOUS
10
4.73086
20
-4.35835
11
4.73425
21
-4.35768
0
LINE
8
BLACK
6
CONTINUOUS
10
4.73425
20
-4.35768
11
4.75394
21
-4.35768
0
LINE
8
BLACK
6
CONTINUOUS
10
4.75394
20
-4.35768
11
4.75733
21
-4.35835
0
LINE
8
BLACK
6
CONTINUOUS
10
5.26914
20
-4.35835
11
5.27201
21
-4.36027
0
LINE
8
BLACK
6
CONTINUOUS
10
5.27201
20
-4.36027
11
5.27393
21
-4.36315
0
LINE
8
BLACK
6
CONTINUOUS
10
5.27393
20
-4.36315
11
5.27461
21
-4.36654
0
LINE
8
BLACK
6
CONTINUOUS
10
5.27461
20
-4.36654
11
5.27461
21
-4.38425
0
LINE
8
BLACK
6
CONTINUOUS
10
5.27461
20
-4.38425
11
5.27393
21
-4.38764
0
LINE
8
BLACK
6
CONTINUOUS
10
5.27393
20
-4.38764
11
5.27201
21
-4.39052
0
LINE
8
BLACK
6
CONTINUOUS
10
5.27201
20
-4.39052
11
5.26914
21
-4.39244
0
LINE
8
BLACK
6
CONTINUOUS
10
5.26914
20
-4.39244
11
5.26575
21
-4.39311
0
LINE
8
BLACK
6
CONTINUOUS
10
5.26575
20
-4.39311
11
5.24606
21
-4.39311
0
LINE
8
BLACK
6
CONTINUOUS
10
5.24606
20
-4.39311
11
5.24267
21
-4.39244
0
LINE
8
BLACK
6
CONTINUOUS
10
5.24267
20
-4.39244
11
5.2398
21
-4.39052
0
LINE
8
BLACK
6
CONTINUOUS
10
5.2398
20
-4.39052
11
5.23788
21
-4.38764
0
LINE
8
BLACK
6
CONTINUOUS
10
5.23788
20
-4.38764
11
5.2372
21
-4.38425
0
LINE
8
BLACK
6
CONTINUOUS
10
5.2372
20
-4.38425
11
5.2372
21
-4.36654
0
LINE
8
BLACK
6
CONTINUOUS
10
5.2372
20
-4.36654
11
5.23788
21
-4.36315
0
LINE
8
BLACK
6
CONTINUOUS
10
5.23788
20
-4.36315
11
5.2398
21
-4.36027
0
LINE
8
BLACK
6
CONTINUOUS
10
5.2398
20
-4.36027
11
5.24267
21
-4.35835
0
LINE
8
BLACK
6
CONTINUOUS
10
5.24267
20
-4.35835
11
5.24606
21
-4.35768
0
LINE
8
BLACK
6
CONTINUOUS
10
5.24606
20
-4.35768
11
5.26575
21
-4.35768
0
LINE
8
BLACK
6
CONTINUOUS
10
5.26575
20
-4.35768
11
5.26914
21
-4.35835
0
LINE
8
BLACK
6
CONTINUOUS
10
5.02559
20
-4.33701
11
4.97441
21
-4.33701
0
LINE
8
BLACK
6
CONTINUOUS
10
4.97441
20
-4.33701
11
4.97441
21
-4.30945
0
LINE
8
BLACK
6
CONTINUOUS
10
4.97441
20
-4.30945
11
5.02559
21
-4.30945
0
LINE
8
BLACK
6
CONTINUOUS
10
5.02559
20
-4.30945
11
5.02559
21
-4.33701
0
LINE
8
BLACK
6
CONTINUOUS
10
4.88589
20
-4.29725
11
4.88844
21
-4.29896
0
LINE
8
BLACK
6
CONTINUOUS
10
4.88844
20
-4.29896
11
4.89015
21
-4.30151
0
LINE
8
BLACK
6
CONTINUOUS
10
4.89015
20
-4.30151
11
4.89075
21
-4.30453
0
LINE
8
BLACK
6
CONTINUOUS
10
4.89075
20
-4.30453
11
4.89075
21
-4.32618
0
LINE
8
BLACK
6
CONTINUOUS
10
4.89075
20
-4.32618
11
4.89015
21
-4.32919
0
LINE
8
BLACK
6
CONTINUOUS
10
4.89015
20
-4.32919
11
4.88844
21
-4.33175
0
LINE
8
BLACK
6
CONTINUOUS
10
4.88844
20
-4.33175
11
4.88589
21
-4.33346
0
LINE
8
BLACK
6
CONTINUOUS
10
4.88589
20
-4.33346
11
4.88287
21
-4.33406
0
LINE
8
BLACK
6
CONTINUOUS
10
4.88287
20
-4.33406
11
4.86713
21
-4.33406
0
LINE
8
BLACK
6
CONTINUOUS
10
4.86713
20
-4.33406
11
4.86411
21
-4.33346
0
LINE
8
BLACK
6
CONTINUOUS
10
4.86411
20
-4.33346
11
4.86156
21
-4.33175
0
LINE
8
BLACK
6
CONTINUOUS
10
4.86156
20
-4.33175
11
4.85985
21
-4.32919
0
LINE
8
BLACK
6
CONTINUOUS
10
4.85985
20
-4.32919
11
4.85925
21
-4.32618
0
LINE
8
BLACK
6
CONTINUOUS
10
4.85925
20
-4.32618
11
4.85925
21
-4.30453
0
LINE
8
BLACK
6
CONTINUOUS
10
4.85925
20
-4.30453
11
4.85985
21
-4.30151
0
LINE
8
BLACK
6
CONTINUOUS
10
4.85985
20
-4.30151
11
4.86156
21
-4.29896
0
LINE
8
BLACK
6
CONTINUOUS
10
4.86156
20
-4.29896
11
4.86411
21
-4.29725
0
LINE
8
BLACK
6
CONTINUOUS
10
4.86411
20
-4.29725
11
4.86713
21
-4.29665
0
LINE
8
BLACK
6
CONTINUOUS
10
4.86713
20
-4.29665
11
4.88287
21
-4.29665
0
LINE
8
BLACK
6
CONTINUOUS
10
4.88287
20
-4.29665
11
4.88589
21
-4.29725
0
LINE
8
BLACK
6
CONTINUOUS
10
5.20085
20
-4.29725
11
5.2034
21
-4.29896
0
LINE
8
BLACK
6
CONTINUOUS
10
5.2034
20
-4.29896
11
5.20511
21
-4.30151
0
LINE
8
BLACK
6
CONTINUOUS
10
5.20511
20
-4.30151
11
5.20571
21
-4.30453
0
LINE
8
BLACK
6
CONTINUOUS
10
5.20571
20
-4.30453
11
5.20571
21
-4.32618
0
LINE
8
BLACK
6
CONTINUOUS
10
5.20571
20
-4.32618
11
5.20511
21
-4.32919
0
LINE
8
BLACK
6
CONTINUOUS
10
5.20511
20
-4.32919
11
5.2034
21
-4.33175
0
LINE
8
BLACK
6
CONTINUOUS
10
5.2034
20
-4.33175
11
5.20085
21
-4.33346
0
LINE
8
BLACK
6
CONTINUOUS
10
5.20085
20
-4.33346
11
5.19783
21
-4.33406
0
LINE
8
BLACK
6
CONTINUOUS
10
5.19783
20
-4.33406
11
5.18209
21
-4.33406
0
LINE
8
BLACK
6
CONTINUOUS
10
5.18209
20
-4.33406
11
5.17907
21
-4.33346
0
LINE
8
BLACK
6
CONTINUOUS
10
5.17907
20
-4.33346
11
5.17652
21
-4.33175
0
LINE
8
BLACK
6
CONTINUOUS
10
5.17652
20
-4.33175
11
5.17481
21
-4.32919
0
LINE
8
BLACK
6
CONTINUOUS
10
5.17481
20
-4.32919
11
5.17421
21
-4.32618
0
LINE
8
BLACK
6
CONTINUOUS
10
5.17421
20
-4.32618
11
5.17421
21
-4.30453
0
LINE
8
BLACK
6
CONTINUOUS
10
5.17421
20
-4.30453
11
5.17481
21
-4.30151
0
LINE
8
BLACK
6
CONTINUOUS
10
5.17481
20
-4.30151
11
5.17652
21
-4.29896
0
LINE
8
BLACK
6
CONTINUOUS
10
5.17652
20
-4.29896
11
5.17907
21
-4.29725
0
LINE
8
BLACK
6
CONTINUOUS
10
5.17907
20
-4.29725
11
5.18209
21
-4.29665
0
LINE
8
BLACK
6
CONTINUOUS
10
5.18209
20
-4.29665
11
5.19783
21
-4.29665
0
LINE
8
BLACK
6
CONTINUOUS
10
5.19783
20
-4.29665
11
5.20085
21
-4.29725
0
LINE
8
BLACK
6
CONTINUOUS
10
5.13589
20
-4.29725
11
5.13844
21
-4.29896
0
LINE
8
BLACK
6
CONTINUOUS
10
5.13844
20
-4.29896
11
5.14015
21
-4.30151
0
LINE
8
BLACK
6
CONTINUOUS
10
5.14015
20
-4.30151
11
5.14075
21
-4.30453
0
LINE
8
BLACK
6
CONTINUOUS
10
5.14075
20
-4.30453
11
5.14075
21
-4.32618
0
LINE
8
BLACK
6
CONTINUOUS
10
5.14075
20
-4.32618
11
5.14015
21
-4.32919
0
LINE
8
BLACK
6
CONTINUOUS
10
5.14015
20
-4.32919
11
5.13844
21
-4.33175
0
LINE
8
BLACK
6
CONTINUOUS
10
5.13844
20
-4.33175
11
5.13589
21
-4.33346
0
LINE
8
BLACK
6
CONTINUOUS
10
5.13589
20
-4.33346
11
5.13287
21
-4.33406
0
LINE
8
BLACK
6
CONTINUOUS
10
5.13287
20
-4.33406
11
5.11713
21
-4.33406
0
LINE
8
BLACK
6
CONTINUOUS
10
5.11713
20
-4.33406
11
5.11411
21
-4.33346
0
LINE
8
BLACK
6
CONTINUOUS
10
5.11411
20
-4.33346
11
5.11156
21
-4.33175
0
LINE
8
BLACK
6
CONTINUOUS
10
5.11156
20
-4.33175
11
5.10985
21
-4.32919
0
LINE
8
BLACK
6
CONTINUOUS
10
5.10985
20
-4.32919
11
5.10925
21
-4.32618
0
LINE
8
BLACK
6
CONTINUOUS
10
5.10925
20
-4.32618
11
5.10925
21
-4.30453
0
LINE
8
BLACK
6
CONTINUOUS
10
5.10925
20
-4.30453
11
5.10985
21
-4.30151
0
LINE
8
BLACK
6
CONTINUOUS
10
5.10985
20
-4.30151
11
5.11156
21
-4.29896
0
LINE
8
BLACK
6
CONTINUOUS
10
5.11156
20
-4.29896
11
5.11411
21
-4.29725
0
LINE
8
BLACK
6
CONTINUOUS
10
5.11411
20
-4.29725
11
5.11713
21
-4.29665
0
LINE
8
BLACK
6
CONTINUOUS
10
5.11713
20
-4.29665
11
5.13287
21
-4.29665
0
LINE
8
BLACK
6
CONTINUOUS
10
5.13287
20
-4.29665
11
5.13589
21
-4.29725
0
LINE
8
BLACK
6
CONTINUOUS
10
4.82093
20
-4.29725
11
4.82348
21
-4.29896
0
LINE
8
BLACK
6
CONTINUOUS
10
4.82348
20
-4.29896
11
4.82519
21
-4.30151
0
LINE
8
BLACK
6
CONTINUOUS
10
4.82519
20
-4.30151
11
4.82579
21
-4.30453
0
LINE
8
BLACK
6
CONTINUOUS
10
4.82579
20
-4.30453
11
4.82579
21
-4.32618
0
LINE
8
BLACK
6
CONTINUOUS
10
4.82579
20
-4.32618
11
4.82519
21
-4.32919
0
LINE
8
BLACK
6
CONTINUOUS
10
4.82519
20
-4.32919
11
4.82348
21
-4.33175
0
LINE
8
BLACK
6
CONTINUOUS
10
4.82348
20
-4.33175
11
4.82093
21
-4.33346
0
LINE
8
BLACK
6
CONTINUOUS
10
4.82093
20
-4.33346
11
4.81791
21
-4.33406
0
LINE
8
BLACK
6
CONTINUOUS
10
4.81791
20
-4.33406
11
4.80217
21
-4.33406
0
LINE
8
BLACK
6
CONTINUOUS
10
4.80217
20
-4.33406
11
4.79915
21
-4.33346
0
LINE
8
BLACK
6
CONTINUOUS
10
4.79915
20
-4.33346
11
4.7966
21
-4.33175
0
LINE
8
BLACK
6
CONTINUOUS
10
4.7966
20
-4.33175
11
4.79489
21
-4.32919
0
LINE
8
BLACK
6
CONTINUOUS
10
4.79489
20
-4.32919
11
4.79429
21
-4.32618
0
LINE
8
BLACK
6
CONTINUOUS
10
4.79429
20
-4.32618
11
4.79429
21
-4.30453
0
LINE
8
BLACK
6
CONTINUOUS
10
4.79429
20
-4.30453
11
4.79489
21
-4.30151
0
LINE
8
BLACK
6
CONTINUOUS
10
4.79489
20
-4.30151
11
4.7966
21
-4.29896
0
LINE
8
BLACK
6
CONTINUOUS
10
4.7966
20
-4.29896
11
4.79915
21
-4.29725
0
LINE
8
BLACK
6
CONTINUOUS
10
4.79915
20
-4.29725
11
4.80217
21
-4.29665
0
LINE
8
BLACK
6
CONTINUOUS
10
4.80217
20
-4.29665
11
4.81791
21
-4.29665
0
LINE
8
BLACK
6
CONTINUOUS
10
4.81791
20
-4.29665
11
4.82093
21
-4.29725
0
LINE
8
BLACK
6
CONTINUOUS
10
4.75733
20
-4.29733
11
4.7602
21
-4.29925
0
LINE
8
BLACK
6
CONTINUOUS
10
4.7602
20
-4.29925
11
4.76212
21
-4.30212
0
LINE
8
BLACK
6
CONTINUOUS
10
4.76212
20
-4.30212
11
4.7628
21
-4.30551
0
LINE
8
BLACK
6
CONTINUOUS
10
4.7628
20
-4.30551
11
4.7628
21
-4.32323
0
LINE
8
BLACK
6
CONTINUOUS
10
4.7628
20
-4.32323
11
4.76212
21
-4.32662
0
LINE
8
BLACK
6
CONTINUOUS
10
4.76212
20
-4.32662
11
4.7602
21
-4.32949
0
LINE
8
BLACK
6
CONTINUOUS
10
4.7602
20
-4.32949
11
4.75733
21
-4.33141
0
LINE
8
BLACK
6
CONTINUOUS
10
4.75733
20
-4.33141
11
4.75394
21
-4.33209
0
LINE
8
BLACK
6
CONTINUOUS
10
4.75394
20
-4.33209
11
4.73425
21
-4.33209
0
LINE
8
BLACK
6
CONTINUOUS
10
4.73425
20
-4.33209
11
4.73086
21
-4.33141
0
LINE
8
BLACK
6
CONTINUOUS
10
4.73086
20
-4.33141
11
4.72799
21
-4.32949
0
LINE
8
BLACK
6
CONTINUOUS
10
4.72799
20
-4.32949
11
4.72607
21
-4.32662
0
LINE
8
BLACK
6
CONTINUOUS
10
4.72607
20
-4.32662
11
4.72539
21
-4.32323
0
LINE
8
BLACK
6
CONTINUOUS
10
4.72539
20
-4.32323
11
4.72539
21
-4.30551
0
LINE
8
BLACK
6
CONTINUOUS
10
4.72539
20
-4.30551
11
4.72607
21
-4.30212
0
LINE
8
BLACK
6
CONTINUOUS
10
4.72607
20
-4.30212
11
4.72799
21
-4.29925
0
LINE
8
BLACK
6
CONTINUOUS
10
4.72799
20
-4.29925
11
4.73086
21
-4.29733
0
LINE
8
BLACK
6
CONTINUOUS
10
4.73086
20
-4.29733
11
4.73425
21
-4.29665
0
LINE
8
BLACK
6
CONTINUOUS
10
4.73425
20
-4.29665
11
4.75394
21
-4.29665
0
LINE
8
BLACK
6
CONTINUOUS
10
4.75394
20
-4.29665
11
4.75733
21
-4.29733
0
LINE
8
BLACK
6
CONTINUOUS
10
5.26914
20
-4.29733
11
5.27201
21
-4.29925
0
LINE
8
BLACK
6
CONTINUOUS
10
5.27201
20
-4.29925
11
5.27393
21
-4.30212
0
LINE
8
BLACK
6
CONTINUOUS
10
5.27393
20
-4.30212
11
5.27461
21
-4.30551
0
LINE
8
BLACK
6
CONTINUOUS
10
5.27461
20
-4.30551
11
5.27461
21
-4.32323
0
LINE
8
BLACK
6
CONTINUOUS
10
5.27461
20
-4.32323
11
5.27393
21
-4.32662
0
LINE
8
BLACK
6
CONTINUOUS
10
5.27393
20
-4.32662
11
5.27201
21
-4.32949
0
LINE
8
BLACK
6
CONTINUOUS
10
5.27201
20
-4.32949
11
5.26914
21
-4.33141
0
LINE
8
BLACK
6
CONTINUOUS
10
5.26914
20
-4.33141
11
5.26575
21
-4.33209
0
LINE
8
BLACK
6
CONTINUOUS
10
5.26575
20
-4.33209
11
5.24606
21
-4.33209
0
LINE
8
BLACK
6
CONTINUOUS
10
5.24606
20
-4.33209
11
5.24267
21
-4.33141
0
LINE
8
BLACK
6
CONTINUOUS
10
5.24267
20
-4.33141
11
5.2398
21
-4.32949
0
LINE
8
BLACK
6
CONTINUOUS
10
5.2398
20
-4.32949
11
5.23788
21
-4.32662
0
LINE
8
BLACK
6
CONTINUOUS
10
5.23788
20
-4.32662
11
5.2372
21
-4.32323
0
LINE
8
BLACK
6
CONTINUOUS
10
5.2372
20
-4.32323
11
5.2372
21
-4.30551
0
LINE
8
BLACK
6
CONTINUOUS
10
5.2372
20
-4.30551
11
5.23788
21
-4.30212
0
LINE
8
BLACK
6
CONTINUOUS
10
5.23788
20
-4.30212
11
5.2398
21
-4.29925
0
LINE
8
BLACK
6
CONTINUOUS
10
5.2398
20
-4.29925
11
5.24267
21
-4.29733
0
LINE
8
BLACK
6
CONTINUOUS
10
5.24267
20
-4.29733
11
5.24606
21
-4.29665
0
LINE
8
BLACK
6
CONTINUOUS
10
5.24606
20
-4.29665
11
5.26575
21
-4.29665
0
LINE
8
BLACK
6
CONTINUOUS
10
5.26575
20
-4.29665
11
5.26914
21
-4.29733
0
LINE
8
BLACK
6
CONTINUOUS
10
5.93647
20
-4.28543
11
5.83805
21
-4.28543
0
LINE
8
BLACK
6
CONTINUOUS
10
5.83805
20
-4.28543
11
5.83805
21
-4.21457
0
LINE
8
BLACK
6
CONTINUOUS
10
5.83805
20
-4.21457
11
5.93647
21
-4.21457
0
LINE
8
BLACK
6
CONTINUOUS
10
5.93647
20
-4.21457
11
5.93647
21
-4.28543
0
LINE
8
BLACK
6
CONTINUOUS
10
6.09395
20
-4.28543
11
5.99553
21
-4.28543
0
LINE
8
BLACK
6
CONTINUOUS
10
5.99553
20
-4.28543
11
5.99553
21
-4.21457
0
LINE
8
BLACK
6
CONTINUOUS
10
5.99553
20
-4.21457
11
6.09395
21
-4.21457
0
LINE
8
BLACK
6
CONTINUOUS
10
6.09395
20
-4.21457
11
6.09395
21
-4.28543
0
LINE
8
BLACK
6
CONTINUOUS
10
5.02559
20
-4.2622
11
4.97441
21
-4.2622
0
LINE
8
BLACK
6
CONTINUOUS
10
4.97441
20
-4.2622
11
4.97441
21
-4.23465
0
LINE
8
BLACK
6
CONTINUOUS
10
4.97441
20
-4.23465
11
5.02559
21
-4.23465
0
LINE
8
BLACK
6
CONTINUOUS
10
5.02559
20
-4.23465
11
5.02559
21
-4.2622
0
LINE
8
BLACK
6
CONTINUOUS
10
5.19065
20
-4.18391
11
5.19256
21
-4.18519
0
LINE
8
BLACK
6
CONTINUOUS
10
5.19256
20
-4.18519
11
5.19384
21
-4.18711
0
LINE
8
BLACK
6
CONTINUOUS
10
5.19384
20
-4.18711
11
5.19429
21
-4.18937
0
LINE
8
BLACK
6
CONTINUOUS
10
5.19429
20
-4.18937
11
5.19429
21
-4.25433
0
LINE
8
BLACK
6
CONTINUOUS
10
5.19429
20
-4.25433
11
5.19384
21
-4.25659
0
LINE
8
BLACK
6
CONTINUOUS
10
5.19384
20
-4.25659
11
5.19256
21
-4.25851
0
LINE
8
BLACK
6
CONTINUOUS
10
5.19256
20
-4.25851
11
5.19065
21
-4.25979
0
LINE
8
BLACK
6
CONTINUOUS
10
5.19065
20
-4.25979
11
5.18839
21
-4.26024
0
LINE
8
BLACK
6
CONTINUOUS
10
5.18839
20
-4.26024
11
5.17657
21
-4.26024
0
LINE
8
BLACK
6
CONTINUOUS
10
5.17657
20
-4.26024
11
5.17431
21
-4.25979
0
LINE
8
BLACK
6
CONTINUOUS
10
5.17431
20
-4.25979
11
5.1724
21
-4.25851
0
LINE
8
BLACK
6
CONTINUOUS
10
5.1724
20
-4.25851
11
5.17112
21
-4.25659
0
LINE
8
BLACK
6
CONTINUOUS
10
5.17112
20
-4.25659
11
5.17067
21
-4.25433
0
LINE
8
BLACK
6
CONTINUOUS
10
5.17067
20
-4.25433
11
5.17067
21
-4.18937
0
LINE
8
BLACK
6
CONTINUOUS
10
5.17067
20
-4.18937
11
5.17112
21
-4.18711
0
LINE
8
BLACK
6
CONTINUOUS
10
5.17112
20
-4.18711
11
5.1724
21
-4.18519
0
LINE
8
BLACK
6
CONTINUOUS
10
5.1724
20
-4.18519
11
5.17431
21
-4.18391
0
LINE
8
BLACK
6
CONTINUOUS
10
5.17431
20
-4.18391
11
5.17657
21
-4.18346
0
LINE
8
BLACK
6
CONTINUOUS
10
5.17657
20
-4.18346
11
5.18839
21
-4.18346
0
LINE
8
BLACK
6
CONTINUOUS
10
5.18839
20
-4.18346
11
5.19065
21
-4.18391
0
LINE
8
BLACK
6
CONTINUOUS
10
4.92569
20
-4.18391
11
4.9276
21
-4.18519
0
LINE
8
BLACK
6
CONTINUOUS
10
4.9276
20
-4.18519
11
4.92888
21
-4.18711
0
LINE
8
BLACK
6
CONTINUOUS
10
4.92888
20
-4.18711
11
4.92933
21
-4.18937
0
LINE
8
BLACK
6
CONTINUOUS
10
4.92933
20
-4.18937
11
4.92933
21
-4.25433
0
LINE
8
BLACK
6
CONTINUOUS
10
4.92933
20
-4.25433
11
4.92888
21
-4.25659
0
LINE
8
BLACK
6
CONTINUOUS
10
4.92888
20
-4.25659
11
4.9276
21
-4.25851
0
LINE
8
BLACK
6
CONTINUOUS
10
4.9276
20
-4.25851
11
4.92569
21
-4.25979
0
LINE
8
BLACK
6
CONTINUOUS
10
4.92569
20
-4.25979
11
4.92343
21
-4.26024
0
LINE
8
BLACK
6
CONTINUOUS
10
4.92343
20
-4.26024
11
4.91161
21
-4.26024
0
LINE
8
BLACK
6
CONTINUOUS
10
4.91161
20
-4.26024
11
4.90935
21
-4.25979
0
LINE
8
BLACK
6
CONTINUOUS
10
4.90935
20
-4.25979
11
4.90744
21
-4.25851
0
LINE
8
BLACK
6
CONTINUOUS
10
4.90744
20
-4.25851
11
4.90616
21
-4.25659
0
LINE
8
BLACK
6
CONTINUOUS
10
4.90616
20
-4.25659
11
4.90571
21
-4.25433
0
LINE
8
BLACK
6
CONTINUOUS
10
4.90571
20
-4.25433
11
4.90571
21
-4.18937
0
LINE
8
BLACK
6
CONTINUOUS
10
4.90571
20
-4.18937
11
4.90616
21
-4.18711
0
LINE
8
BLACK
6
CONTINUOUS
10
4.90616
20
-4.18711
11
4.90744
21
-4.18519
0
LINE
8
BLACK
6
CONTINUOUS
10
4.90744
20
-4.18519
11
4.90935
21
-4.18391
0
LINE
8
BLACK
6
CONTINUOUS
10
4.90935
20
-4.18391
11
4.91161
21
-4.18346
0
LINE
8
BLACK
6
CONTINUOUS
10
4.91161
20
-4.18346
11
4.92343
21
-4.18346
0
LINE
8
BLACK
6
CONTINUOUS
10
4.92343
20
-4.18346
11
4.92569
21
-4.18391
0
LINE
8
BLACK
6
CONTINUOUS
10
4.87569
20
-4.18391
11
4.8776
21
-4.18519
0
LINE
8
BLACK
6
CONTINUOUS
10
4.8776
20
-4.18519
11
4.87888
21
-4.18711
0
LINE
8
BLACK
6
CONTINUOUS
10
4.87888
20
-4.18711
11
4.87933
21
-4.18937
0
LINE
8
BLACK
6
CONTINUOUS
10
4.87933
20
-4.18937
11
4.87933
21
-4.25433
0
LINE
8
BLACK
6
CONTINUOUS
10
4.87933
20
-4.25433
11
4.87888
21
-4.25659
0
LINE
8
BLACK
6
CONTINUOUS
10
4.87888
20
-4.25659
11
4.8776
21
-4.25851
0
LINE
8
BLACK
6
CONTINUOUS
10
4.8776
20
-4.25851
11
4.87569
21
-4.25979
0
LINE
8
BLACK
6
CONTINUOUS
10
4.87569
20
-4.25979
11
4.87343
21
-4.26024
0
LINE
8
BLACK
6
CONTINUOUS
10
4.87343
20
-4.26024
11
4.86161
21
-4.26024
0
LINE
8
BLACK
6
CONTINUOUS
10
4.86161
20
-4.26024
11
4.85935
21
-4.25979
0
LINE
8
BLACK
6
CONTINUOUS
10
4.85935
20
-4.25979
11
4.85744
21
-4.25851
0
LINE
8
BLACK
6
CONTINUOUS
10
4.85744
20
-4.25851
11
4.85616
21
-4.25659
0
LINE
8
BLACK
6
CONTINUOUS
10
4.85616
20
-4.25659
11
4.85571
21
-4.25433
0
LINE
8
BLACK
6
CONTINUOUS
10
4.85571
20
-4.25433
11
4.85571
21
-4.18937
0
LINE
8
BLACK
6
CONTINUOUS
10
4.85571
20
-4.18937
11
4.85616
21
-4.18711
0
LINE
8
BLACK
6
CONTINUOUS
10
4.85616
20
-4.18711
11
4.85744
21
-4.18519
0
LINE
8
BLACK
6
CONTINUOUS
10
4.85744
20
-4.18519
11
4.85935
21
-4.18391
0
LINE
8
BLACK
6
CONTINUOUS
10
4.85935
20
-4.18391
11
4.86161
21
-4.18346
0
LINE
8
BLACK
6
CONTINUOUS
10
4.86161
20
-4.18346
11
4.87343
21
-4.18346
0
LINE
8
BLACK
6
CONTINUOUS
10
4.87343
20
-4.18346
11
4.87569
21
-4.18391
0
LINE
8
BLACK
6
CONTINUOUS
10
5.24065
20
-4.18391
11
5.24256
21
-4.18519
0
LINE
8
BLACK
6
CONTINUOUS
10
5.24256
20
-4.18519
11
5.24384
21
-4.18711
0
LINE
8
BLACK
6
CONTINUOUS
10
5.24384
20
-4.18711
11
5.24429
21
-4.18937
0
LINE
8
BLACK
6
CONTINUOUS
10
5.24429
20
-4.18937
11
5.24429
21
-4.25433
0
LINE
8
BLACK
6
CONTINUOUS
10
5.24429
20
-4.25433
11
5.24384
21
-4.25659
0
LINE
8
BLACK
6
CONTINUOUS
10
5.24384
20
-4.25659
11
5.24256
21
-4.25851
0
LINE
8
BLACK
6
CONTINUOUS
10
5.24256
20
-4.25851
11
5.24065
21
-4.25979
0
LINE
8
BLACK
6
CONTINUOUS
10
5.24065
20
-4.25979
11
5.23839
21
-4.26024
0
LINE
8
BLACK
6
CONTINUOUS
10
5.23839
20
-4.26024
11
5.22657
21
-4.26024
0
LINE
8
BLACK
6
CONTINUOUS
10
5.22657
20
-4.26024
11
5.22431
21
-4.25979
0
LINE
8
BLACK
6
CONTINUOUS
10
5.22431
20
-4.25979
11
5.2224
21
-4.25851
0
LINE
8
BLACK
6
CONTINUOUS
10
5.2224
20
-4.25851
11
5.22112
21
-4.25659
0
LINE
8
BLACK
6
CONTINUOUS
10
5.22112
20
-4.25659
11
5.22067
21
-4.25433
0
LINE
8
BLACK
6
CONTINUOUS
10
5.22067
20
-4.25433
11
5.22067
21
-4.18937
0
LINE
8
BLACK
6
CONTINUOUS
10
5.22067
20
-4.18937
11
5.22112
21
-4.18711
0
LINE
8
BLACK
6
CONTINUOUS
10
5.22112
20
-4.18711
11
5.2224
21
-4.18519
0
LINE
8
BLACK
6
CONTINUOUS
10
5.2224
20
-4.18519
11
5.22431
21
-4.18391
0
LINE
8
BLACK
6
CONTINUOUS
10
5.22431
20
-4.18391
11
5.22657
21
-4.18346
0
LINE
8
BLACK
6
CONTINUOUS
10
5.22657
20
-4.18346
11
5.23839
21
-4.18346
0
LINE
8
BLACK
6
CONTINUOUS
10
5.23839
20
-4.18346
11
5.24065
21
-4.18391
0
LINE
8
BLACK
6
CONTINUOUS
10
5.14065
20
-4.18391
11
5.14256
21
-4.18519
0
LINE
8
BLACK
6
CONTINUOUS
10
5.14256
20
-4.18519
11
5.14384
21
-4.18711
0
LINE
8
BLACK
6
CONTINUOUS
10
5.14384
20
-4.18711
11
5.14429
21
-4.18937
0
LINE
8
BLACK
6
CONTINUOUS
10
5.14429
20
-4.18937
11
5.14429
21
-4.25433
0
LINE
8
BLACK
6
CONTINUOUS
10
5.14429
20
-4.25433
11
5.14384
21
-4.25659
0
LINE
8
BLACK
6
CONTINUOUS
10
5.14384
20
-4.25659
11
5.14256
21
-4.25851
0
LINE
8
BLACK
6
CONTINUOUS
10
5.14256
20
-4.25851
11
5.14065
21
-4.25979
0
LINE
8
BLACK
6
CONTINUOUS
10
5.14065
20
-4.25979
11
5.13839
21
-4.26024
0
LINE
8
BLACK
6
CONTINUOUS
10
5.13839
20
-4.26024
11
5.12657
21
-4.26024
0
LINE
8
BLACK
6
CONTINUOUS
10
5.12657
20
-4.26024
11
5.12431
21
-4.25979
0
LINE
8
BLACK
6
CONTINUOUS
10
5.12431
20
-4.25979
11
5.1224
21
-4.25851
0
LINE
8
BLACK
6
CONTINUOUS
10
5.1224
20
-4.25851
11
5.12112
21
-4.25659
0
LINE
8
BLACK
6
CONTINUOUS
10
5.12112
20
-4.25659
11
5.12067
21
-4.25433
0
LINE
8
BLACK
6
CONTINUOUS
10
5.12067
20
-4.25433
11
5.12067
21
-4.18937
0
LINE
8
BLACK
6
CONTINUOUS
10
5.12067
20
-4.18937
11
5.12112
21
-4.18711
0
LINE
8
BLACK
6
CONTINUOUS
10
5.12112
20
-4.18711
11
5.1224
21
-4.18519
0
LINE
8
BLACK
6
CONTINUOUS
10
5.1224
20
-4.18519
11
5.12431
21
-4.18391
0
LINE
8
BLACK
6
CONTINUOUS
10
5.12431
20
-4.18391
11
5.12657
21
-4.18346
0
LINE
8
BLACK
6
CONTINUOUS
10
5.12657
20
-4.18346
11
5.13839
21
-4.18346
0
LINE
8
BLACK
6
CONTINUOUS
10
5.13839
20
-4.18346
11
5.14065
21
-4.18391
0
LINE
8
BLACK
6
CONTINUOUS
10
5.09065
20
-4.18391
11
5.09256
21
-4.18519
0
LINE
8
BLACK
6
CONTINUOUS
10
5.09256
20
-4.18519
11
5.09384
21
-4.18711
0
LINE
8
BLACK
6
CONTINUOUS
10
5.09384
20
-4.18711
11
5.09429
21
-4.18937
0
LINE
8
BLACK
6
CONTINUOUS
10
5.09429
20
-4.18937
11
5.09429
21
-4.25433
0
LINE
8
BLACK
6
CONTINUOUS
10
5.09429
20
-4.25433
11
5.09384
21
-4.25659
0
LINE
8
BLACK
6
CONTINUOUS
10
5.09384
20
-4.25659
11
5.09256
21
-4.25851
0
LINE
8
BLACK
6
CONTINUOUS
10
5.09256
20
-4.25851
11
5.09065
21
-4.25979
0
LINE
8
BLACK
6
CONTINUOUS
10
5.09065
20
-4.25979
11
5.08839
21
-4.26024
0
LINE
8
BLACK
6
CONTINUOUS
10
5.08839
20
-4.26024
11
5.07657
21
-4.26024
0
LINE
8
BLACK
6
CONTINUOUS
10
5.07657
20
-4.26024
11
5.07431
21
-4.25979
0
LINE
8
BLACK
6
CONTINUOUS
10
5.07431
20
-4.25979
11
5.0724
21
-4.25851
0
LINE
8
BLACK
6
CONTINUOUS
10
5.0724
20
-4.25851
11
5.07112
21
-4.25659
0
LINE
8
BLACK
6
CONTINUOUS
10
5.07112
20
-4.25659
11
5.07067
21
-4.25433
0
LINE
8
BLACK
6
CONTINUOUS
10
5.07067
20
-4.25433
11
5.07067
21
-4.18937
0
LINE
8
BLACK
6
CONTINUOUS
10
5.07067
20
-4.18937
11
5.07112
21
-4.18711
0
LINE
8
BLACK
6
CONTINUOUS
10
5.07112
20
-4.18711
11
5.0724
21
-4.18519
0
LINE
8
BLACK
6
CONTINUOUS
10
5.0724
20
-4.18519
11
5.07431
21
-4.18391
0
LINE
8
BLACK
6
CONTINUOUS
10
5.07431
20
-4.18391
11
5.07657
21
-4.18346
0
LINE
8
BLACK
6
CONTINUOUS
10
5.07657
20
-4.18346
11
5.08839
21
-4.18346
0
LINE
8
BLACK
6
CONTINUOUS
10
5.08839
20
-4.18346
11
5.09065
21
-4.18391
0
LINE
8
BLACK
6
CONTINUOUS
10
4.82569
20
-4.18391
11
4.8276
21
-4.18519
0
LINE
8
BLACK
6
CONTINUOUS
10
4.8276
20
-4.18519
11
4.82888
21
-4.18711
0
LINE
8
BLACK
6
CONTINUOUS
10
4.82888
20
-4.18711
11
4.82933
21
-4.18937
0
LINE
8
BLACK
6
CONTINUOUS
10
4.82933
20
-4.18937
11
4.82933
21
-4.25433
0
LINE
8
BLACK
6
CONTINUOUS
10
4.82933
20
-4.25433
11
4.82888
21
-4.25659
0
LINE
8
BLACK
6
CONTINUOUS
10
4.82888
20
-4.25659
11
4.8276
21
-4.25851
0
LINE
8
BLACK
6
CONTINUOUS
10
4.8276
20
-4.25851
11
4.82569
21
-4.25979
0
LINE
8
BLACK
6
CONTINUOUS
10
4.82569
20
-4.25979
11
4.82343
21
-4.26024
0
LINE
8
BLACK
6
CONTINUOUS
10
4.82343
20
-4.26024
11
4.81161
21
-4.26024
0
LINE
8
BLACK
6
CONTINUOUS
10
4.81161
20
-4.26024
11
4.80935
21
-4.25979
0
LINE
8
BLACK
6
CONTINUOUS
10
4.80935
20
-4.25979
11
4.80744
21
-4.25851
0
LINE
8
BLACK
6
CONTINUOUS
10
4.80744
20
-4.25851
11
4.80616
21
-4.25659
0
LINE
8
BLACK
6
CONTINUOUS
10
4.80616
20
-4.25659
11
4.80571
21
-4.25433
0
LINE
8
BLACK
6
CONTINUOUS
10
4.80571
20
-4.25433
11
4.80571
21
-4.18937
0
LINE
8
BLACK
6
CONTINUOUS
10
4.80571
20
-4.18937
11
4.80616
21
-4.18711
0
LINE
8
BLACK
6
CONTINUOUS
10
4.80616
20
-4.18711
11
4.80744
21
-4.18519
0
LINE
8
BLACK
6
CONTINUOUS
10
4.80744
20
-4.18519
11
4.80935
21
-4.18391
0
LINE
8
BLACK
6
CONTINUOUS
10
4.80935
20
-4.18391
11
4.81161
21
-4.18346
0
LINE
8
BLACK
6
CONTINUOUS
10
4.81161
20
-4.18346
11
4.82343
21
-4.18346
0
LINE
8
BLACK
6
CONTINUOUS
10
4.82343
20
-4.18346
11
4.82569
21
-4.18391
0
LINE
8
BLACK
6
CONTINUOUS
10
4.77569
20
-4.18391
11
4.7776
21
-4.18519
0
LINE
8
BLACK
6
CONTINUOUS
10
4.7776
20
-4.18519
11
4.77888
21
-4.18711
0
LINE
8
BLACK
6
CONTINUOUS
10
4.77888
20
-4.18711
11
4.77933
21
-4.18937
0
LINE
8
BLACK
6
CONTINUOUS
10
4.77933
20
-4.18937
11
4.77933
21
-4.25433
0
LINE
8
BLACK
6
CONTINUOUS
10
4.77933
20
-4.25433
11
4.77888
21
-4.25659
0
LINE
8
BLACK
6
CONTINUOUS
10
4.77888
20
-4.25659
11
4.7776
21
-4.25851
0
LINE
8
BLACK
6
CONTINUOUS
10
4.7776
20
-4.25851
11
4.77569
21
-4.25979
0
LINE
8
BLACK
6
CONTINUOUS
10
4.77569
20
-4.25979
11
4.77343
21
-4.26024
0
LINE
8
BLACK
6
CONTINUOUS
10
4.77343
20
-4.26024
11
4.76161
21
-4.26024
0
LINE
8
BLACK
6
CONTINUOUS
10
4.76161
20
-4.26024
11
4.75935
21
-4.25979
0
LINE
8
BLACK
6
CONTINUOUS
10
4.75935
20
-4.25979
11
4.75744
21
-4.25851
0
LINE
8
BLACK
6
CONTINUOUS
10
4.75744
20
-4.25851
11
4.75616
21
-4.25659
0
LINE
8
BLACK
6
CONTINUOUS
10
4.75616
20
-4.25659
11
4.75571
21
-4.25433
0
LINE
8
BLACK
6
CONTINUOUS
10
4.75571
20
-4.25433
11
4.75571
21
-4.18937
0
LINE
8
BLACK
6
CONTINUOUS
10
4.75571
20
-4.18937
11
4.75616
21
-4.18711
0
LINE
8
BLACK
6
CONTINUOUS
10
4.75616
20
-4.18711
11
4.75744
21
-4.18519
0
LINE
8
BLACK
6
CONTINUOUS
10
4.75744
20
-4.18519
11
4.75935
21
-4.18391
0
LINE
8
BLACK
6
CONTINUOUS
10
4.75935
20
-4.18391
11
4.76161
21
-4.18346
0
LINE
8
BLACK
6
CONTINUOUS
10
4.76161
20
-4.18346
11
4.77343
21
-4.18346
0
LINE
8
BLACK
6
CONTINUOUS
10
4.77343
20
-4.18346
11
4.77569
21
-4.18391
0
LINE
8
BLACK
6
CONTINUOUS
10
4.99945
20
-4.13591
11
5.00233
21
-4.13783
0
LINE
8
BLACK
6
CONTINUOUS
10
5.00233
20
-4.13783
11
5.00425
21
-4.1407
0
LINE
8
BLACK
6
CONTINUOUS
10
5.00425
20
-4.1407
11
5.00492
21
-4.14409
0
LINE
8
BLACK
6
CONTINUOUS
10
5.00492
20
-4.14409
11
5.00492
21
-4.16181
0
LINE
8
BLACK
6
CONTINUOUS
10
5.00492
20
-4.16181
11
5.00425
21
-4.1652
0
LINE
8
BLACK
6
CONTINUOUS
10
5.00425
20
-4.1652
11
5.00233
21
-4.16807
0
LINE
8
BLACK
6
CONTINUOUS
10
5.00233
20
-4.16807
11
4.99945
21
-4.17
0
LINE
8
BLACK
6
CONTINUOUS
10
4.99945
20
-4.17
11
4.99606
21
-4.17067
0
LINE
8
BLACK
6
CONTINUOUS
10
4.99606
20
-4.17067
11
4.97638
21
-4.17067
0
LINE
8
BLACK
6
CONTINUOUS
10
4.97638
20
-4.17067
11
4.97299
21
-4.17
0
LINE
8
BLACK
6
CONTINUOUS
10
4.97299
20
-4.17
11
4.97011
21
-4.16807
0
LINE
8
BLACK
6
CONTINUOUS
10
4.97011
20
-4.16807
11
4.96819
21
-4.1652
0
LINE
8
BLACK
6
CONTINUOUS
10
4.96819
20
-4.1652
11
4.96752
21
-4.16181
0
LINE
8
BLACK
6
CONTINUOUS
10
4.96752
20
-4.16181
11
4.96752
21
-4.14409
0
LINE
8
BLACK
6
CONTINUOUS
10
4.96752
20
-4.14409
11
4.96819
21
-4.1407
0
LINE
8
BLACK
6
CONTINUOUS
10
4.96819
20
-4.1407
11
4.97011
21
-4.13783
0
LINE
8
BLACK
6
CONTINUOUS
10
4.97011
20
-4.13783
11
4.97299
21
-4.13591
0
LINE
8
BLACK
6
CONTINUOUS
10
4.97299
20
-4.13591
11
4.97638
21
-4.13524
0
LINE
8
BLACK
6
CONTINUOUS
10
4.97638
20
-4.13524
11
4.99606
21
-4.13524
0
LINE
8
BLACK
6
CONTINUOUS
10
4.99606
20
-4.13524
11
4.99945
21
-4.13591
0
LINE
8
BLACK
6
CONTINUOUS
10
5.87741
20
-4.10323
11
5.88028
21
-4.10515
0
LINE
8
BLACK
6
CONTINUOUS
10
5.88028
20
-4.10515
11
5.8822
21
-4.10803
0
LINE
8
BLACK
6
CONTINUOUS
10
5.8822
20
-4.10803
11
5.88287
21
-4.11142
0
LINE
8
BLACK
6
CONTINUOUS
10
5.88287
20
-4.11142
11
5.88287
21
-4.1311
0
LINE
8
BLACK
6
CONTINUOUS
10
5.88287
20
-4.1311
11
5.8822
21
-4.13449
0
LINE
8
BLACK
6
CONTINUOUS
10
5.8822
20
-4.13449
11
5.88028
21
-4.13737
0
LINE
8
BLACK
6
CONTINUOUS
10
5.88028
20
-4.13737
11
5.87741
21
-4.13929
0
LINE
8
BLACK
6
CONTINUOUS
10
5.87741
20
-4.13929
11
5.87402
21
-4.13996
0
LINE
8
BLACK
6
CONTINUOUS
10
5.87402
20
-4.13996
11
5.8563
21
-4.13996
0
LINE
8
BLACK
6
CONTINUOUS
10
5.8563
20
-4.13996
11
5.85291
21
-4.13929
0
LINE
8
BLACK
6
CONTINUOUS
10
5.85291
20
-4.13929
11
5.85004
21
-4.13737
0
LINE
8
BLACK
6
CONTINUOUS
10
5.85004
20
-4.13737
11
5.84812
21
-4.13449
0
LINE
8
BLACK
6
CONTINUOUS
10
5.84812
20
-4.13449
11
5.84744
21
-4.1311
0
LINE
8
BLACK
6
CONTINUOUS
10
5.84744
20
-4.1311
11
5.84744
21
-4.11142
0
LINE
8
BLACK
6
CONTINUOUS
10
5.84744
20
-4.11142
11
5.84812
21
-4.10803
0
LINE
8
BLACK
6
CONTINUOUS
10
5.84812
20
-4.10803
11
5.85004
21
-4.10515
0
LINE
8
BLACK
6
CONTINUOUS
10
5.85004
20
-4.10515
11
5.85291
21
-4.10323
0
LINE
8
BLACK
6
CONTINUOUS
10
5.85291
20
-4.10323
11
5.8563
21
-4.10256
0
LINE
8
BLACK
6
CONTINUOUS
10
5.8563
20
-4.10256
11
5.87402
21
-4.10256
0
LINE
8
BLACK
6
CONTINUOUS
10
5.87402
20
-4.10256
11
5.87741
21
-4.10323
0
LINE
8
BLACK
6
CONTINUOUS
10
5.93843
20
-4.10323
11
5.9413
21
-4.10515
0
LINE
8
BLACK
6
CONTINUOUS
10
5.9413
20
-4.10515
11
5.94322
21
-4.10803
0
LINE
8
BLACK
6
CONTINUOUS
10
5.94322
20
-4.10803
11
5.9439
21
-4.11142
0
LINE
8
BLACK
6
CONTINUOUS
10
5.9439
20
-4.11142
11
5.9439
21
-4.1311
0
LINE
8
BLACK
6
CONTINUOUS
10
5.9439
20
-4.1311
11
5.94322
21
-4.13449
0
LINE
8
BLACK
6
CONTINUOUS
10
5.94322
20
-4.13449
11
5.9413
21
-4.13737
0
LINE
8
BLACK
6
CONTINUOUS
10
5.9413
20
-4.13737
11
5.93843
21
-4.13929
0
LINE
8
BLACK
6
CONTINUOUS
10
5.93843
20
-4.13929
11
5.93504
21
-4.13996
0
LINE
8
BLACK
6
CONTINUOUS
10
5.93504
20
-4.13996
11
5.91732
21
-4.13996
0
LINE
8
BLACK
6
CONTINUOUS
10
5.91732
20
-4.13996
11
5.91393
21
-4.13929
0
LINE
8
BLACK
6
CONTINUOUS
10
5.91393
20
-4.13929
11
5.91106
21
-4.13737
0
LINE
8
BLACK
6
CONTINUOUS
10
5.91106
20
-4.13737
11
5.90914
21
-4.13449
0
LINE
8
BLACK
6
CONTINUOUS
10
5.90914
20
-4.13449
11
5.90846
21
-4.1311
0
LINE
8
BLACK
6
CONTINUOUS
10
5.90846
20
-4.1311
11
5.90846
21
-4.11142
0
LINE
8
BLACK
6
CONTINUOUS
10
5.90846
20
-4.11142
11
5.90914
21
-4.10803
0
LINE
8
BLACK
6
CONTINUOUS
10
5.90914
20
-4.10803
11
5.91106
21
-4.10515
0
LINE
8
BLACK
6
CONTINUOUS
10
5.91106
20
-4.10515
11
5.91393
21
-4.10323
0
LINE
8
BLACK
6
CONTINUOUS
10
5.91393
20
-4.10323
11
5.91732
21
-4.10256
0
LINE
8
BLACK
6
CONTINUOUS
10
5.91732
20
-4.10256
11
5.93504
21
-4.10256
0
LINE
8
BLACK
6
CONTINUOUS
10
5.93504
20
-4.10256
11
5.93843
21
-4.10323
0
LINE
8
BLACK
6
CONTINUOUS
10
4.99945
20
-4.07489
11
5.00233
21
-4.07681
0
LINE
8
BLACK
6
CONTINUOUS
10
5.00233
20
-4.07681
11
5.00425
21
-4.07968
0
LINE
8
BLACK
6
CONTINUOUS
10
5.00425
20
-4.07968
11
5.00492
21
-4.08307
0
LINE
8
BLACK
6
CONTINUOUS
10
5.00492
20
-4.08307
11
5.00492
21
-4.10079
0
LINE
8
BLACK
6
CONTINUOUS
10
5.00492
20
-4.10079
11
5.00425
21
-4.10418
0
LINE
8
BLACK
6
CONTINUOUS
10
5.00425
20
-4.10418
11
5.00233
21
-4.10705
0
LINE
8
BLACK
6
CONTINUOUS
10
5.00233
20
-4.10705
11
4.99945
21
-4.10897
0
LINE
8
BLACK
6
CONTINUOUS
10
4.99945
20
-4.10897
11
4.99606
21
-4.10965
0
LINE
8
BLACK
6
CONTINUOUS
10
4.99606
20
-4.10965
11
4.97638
21
-4.10965
0
LINE
8
BLACK
6
CONTINUOUS
10
4.97638
20
-4.10965
11
4.97299
21
-4.10897
0
LINE
8
BLACK
6
CONTINUOUS
10
4.97299
20
-4.10897
11
4.97011
21
-4.10705
0
LINE
8
BLACK
6
CONTINUOUS
10
4.97011
20
-4.10705
11
4.96819
21
-4.10418
0
LINE
8
BLACK
6
CONTINUOUS
10
4.96819
20
-4.10418
11
4.96752
21
-4.10079
0
LINE
8
BLACK
6
CONTINUOUS
10
4.96752
20
-4.10079
11
4.96752
21
-4.08307
0
LINE
8
BLACK
6
CONTINUOUS
10
4.96752
20
-4.08307
11
4.96819
21
-4.07968
0
LINE
8
BLACK
6
CONTINUOUS
10
4.96819
20
-4.07968
11
4.97011
21
-4.07681
0
LINE
8
BLACK
6
CONTINUOUS
10
4.97011
20
-4.07681
11
4.97299
21
-4.07489
0
LINE
8
BLACK
6
CONTINUOUS
10
4.97299
20
-4.07489
11
4.97638
21
-4.07421
0
LINE
8
BLACK
6
CONTINUOUS
10
4.97638
20
-4.07421
11
4.99606
21
-4.07421
0
LINE
8
BLACK
6
CONTINUOUS
10
4.99606
20
-4.07421
11
4.99945
21
-4.07489
0
LINE
8
BLACK
6
CONTINUOUS
10
4.92569
20
-3.98903
11
4.9276
21
-3.99031
0
LINE
8
BLACK
6
CONTINUOUS
10
4.9276
20
-3.99031
11
4.92888
21
-3.99223
0
LINE
8
BLACK
6
CONTINUOUS
10
4.92888
20
-3.99223
11
4.92933
21
-3.99449
0
LINE
8
BLACK
6
CONTINUOUS
10
4.92933
20
-3.99449
11
4.92933
21
-4.05945
0
LINE
8
BLACK
6
CONTINUOUS
10
4.92933
20
-4.05945
11
4.92888
21
-4.06171
0
LINE
8
BLACK
6
CONTINUOUS
10
4.92888
20
-4.06171
11
4.9276
21
-4.06362
0
LINE
8
BLACK
6
CONTINUOUS
10
4.9276
20
-4.06362
11
4.92569
21
-4.0649
0
LINE
8
BLACK
6
CONTINUOUS
10
4.92569
20
-4.0649
11
4.92343
21
-4.06535
0
LINE
8
BLACK
6
CONTINUOUS
10
4.92343
20
-4.06535
11
4.91161
21
-4.06535
0
LINE
8
BLACK
6
CONTINUOUS
10
4.91161
20
-4.06535
11
4.90935
21
-4.0649
0
LINE
8
BLACK
6
CONTINUOUS
10
4.90935
20
-4.0649
11
4.90744
21
-4.06362
0
LINE
8
BLACK
6
CONTINUOUS
10
4.90744
20
-4.06362
11
4.90616
21
-4.06171
0
LINE
8
BLACK
6
CONTINUOUS
10
4.90616
20
-4.06171
11
4.90571
21
-4.05945
0
LINE
8
BLACK
6
CONTINUOUS
10
4.90571
20
-4.05945
11
4.90571
21
-3.99449
0
LINE
8
BLACK
6
CONTINUOUS
10
4.90571
20
-3.99449
11
4.90616
21
-3.99223
0
LINE
8
BLACK
6
CONTINUOUS
10
4.90616
20
-3.99223
11
4.90744
21
-3.99031
0
LINE
8
BLACK
6
CONTINUOUS
10
4.90744
20
-3.99031
11
4.90935
21
-3.98903
0
LINE
8
BLACK
6
CONTINUOUS
10
4.90935
20
-3.98903
11
4.91161
21
-3.98858
0
LINE
8
BLACK
6
CONTINUOUS
10
4.91161
20
-3.98858
11
4.92343
21
-3.98858
0
LINE
8
BLACK
6
CONTINUOUS
10
4.92343
20
-3.98858
11
4.92569
21
-3.98903
0
LINE
8
BLACK
6
CONTINUOUS
10
4.87569
20
-3.98903
11
4.8776
21
-3.99031
0
LINE
8
BLACK
6
CONTINUOUS
10
4.8776
20
-3.99031
11
4.87888
21
-3.99223
0
LINE
8
BLACK
6
CONTINUOUS
10
4.87888
20
-3.99223
11
4.87933
21
-3.99449
0
LINE
8
BLACK
6
CONTINUOUS
10
4.87933
20
-3.99449
11
4.87933
21
-4.05945
0
LINE
8
BLACK
6
CONTINUOUS
10
4.87933
20
-4.05945
11
4.87888
21
-4.06171
0
LINE
8
BLACK
6
CONTINUOUS
10
4.87888
20
-4.06171
11
4.8776
21
-4.06362
0
LINE
8
BLACK
6
CONTINUOUS
10
4.8776
20
-4.06362
11
4.87569
21
-4.0649
0
LINE
8
BLACK
6
CONTINUOUS
10
4.87569
20
-4.0649
11
4.87343
21
-4.06535
0
LINE
8
BLACK
6
CONTINUOUS
10
4.87343
20
-4.06535
11
4.86161
21
-4.06535
0
LINE
8
BLACK
6
CONTINUOUS
10
4.86161
20
-4.06535
11
4.85935
21
-4.0649
0
LINE
8
BLACK
6
CONTINUOUS
10
4.85935
20
-4.0649
11
4.85744
21
-4.06362
0
LINE
8
BLACK
6
CONTINUOUS
10
4.85744
20
-4.06362
11
4.85616
21
-4.06171
0
LINE
8
BLACK
6
CONTINUOUS
10
4.85616
20
-4.06171
11
4.85571
21
-4.05945
0
LINE
8
BLACK
6
CONTINUOUS
10
4.85571
20
-4.05945
11
4.85571
21
-3.99449
0
LINE
8
BLACK
6
CONTINUOUS
10
4.85571
20
-3.99449
11
4.85616
21
-3.99223
0
LINE
8
BLACK
6
CONTINUOUS
10
4.85616
20
-3.99223
11
4.85744
21
-3.99031
0
LINE
8
BLACK
6
CONTINUOUS
10
4.85744
20
-3.99031
11
4.85935
21
-3.98903
0
LINE
8
BLACK
6
CONTINUOUS
10
4.85935
20
-3.98903
11
4.86161
21
-3.98858
0
LINE
8
BLACK
6
CONTINUOUS
10
4.86161
20
-3.98858
11
4.87343
21
-3.98858
0
LINE
8
BLACK
6
CONTINUOUS
10
4.87343
20
-3.98858
11
4.87569
21
-3.98903
0
LINE
8
BLACK
6
CONTINUOUS
10
4.82569
20
-3.98903
11
4.8276
21
-3.99031
0
LINE
8
BLACK
6
CONTINUOUS
10
4.8276
20
-3.99031
11
4.82888
21
-3.99223
0
LINE
8
BLACK
6
CONTINUOUS
10
4.82888
20
-3.99223
11
4.82933
21
-3.99449
0
LINE
8
BLACK
6
CONTINUOUS
10
4.82933
20
-3.99449
11
4.82933
21
-4.05945
0
LINE
8
BLACK
6
CONTINUOUS
10
4.82933
20
-4.05945
11
4.82888
21
-4.06171
0
LINE
8
BLACK
6
CONTINUOUS
10
4.82888
20
-4.06171
11
4.8276
21
-4.06362
0
LINE
8
BLACK
6
CONTINUOUS
10
4.8276
20
-4.06362
11
4.82569
21
-4.0649
0
LINE
8
BLACK
6
CONTINUOUS
10
4.82569
20
-4.0649
11
4.82343
21
-4.06535
0
LINE
8
BLACK
6
CONTINUOUS
10
4.82343
20
-4.06535
11
4.81161
21
-4.06535
0
LINE
8
BLACK
6
CONTINUOUS
10
4.81161
20
-4.06535
11
4.80935
21
-4.0649
0
LINE
8
BLACK
6
CONTINUOUS
10
4.80935
20
-4.0649
11
4.80744
21
-4.06362
0
LINE
8
BLACK
6
CONTINUOUS
10
4.80744
20
-4.06362
11
4.80616
21
-4.06171
0
LINE
8
BLACK
6
CONTINUOUS
10
4.80616
20
-4.06171
11
4.80571
21
-4.05945
0
LINE
8
BLACK
6
CONTINUOUS
10
4.80571
20
-4.05945
11
4.80571
21
-3.99449
0
LINE
8
BLACK
6
CONTINUOUS
10
4.80571
20
-3.99449
11
4.80616
21
-3.99223
0
LINE
8
BLACK
6
CONTINUOUS
10
4.80616
20
-3.99223
11
4.80744
21
-3.99031
0
LINE
8
BLACK
6
CONTINUOUS
10
4.80744
20
-3.99031
11
4.80935
21
-3.98903
0
LINE
8
BLACK
6
CONTINUOUS
10
4.80935
20
-3.98903
11
4.81161
21
-3.98858
0
LINE
8
BLACK
6
CONTINUOUS
10
4.81161
20
-3.98858
11
4.82343
21
-3.98858
0
LINE
8
BLACK
6
CONTINUOUS
10
4.82343
20
-3.98858
11
4.82569
21
-3.98903
0
LINE
8
BLACK
6
CONTINUOUS
10
4.77569
20
-3.98903
11
4.7776
21
-3.99031
0
LINE
8
BLACK
6
CONTINUOUS
10
4.7776
20
-3.99031
11
4.77888
21
-3.99223
0
LINE
8
BLACK
6
CONTINUOUS
10
4.77888
20
-3.99223
11
4.77933
21
-3.99449
0
LINE
8
BLACK
6
CONTINUOUS
10
4.77933
20
-3.99449
11
4.77933
21
-4.05945
0
LINE
8
BLACK
6
CONTINUOUS
10
4.77933
20
-4.05945
11
4.77888
21
-4.06171
0
LINE
8
BLACK
6
CONTINUOUS
10
4.77888
20
-4.06171
11
4.7776
21
-4.06362
0
LINE
8
BLACK
6
CONTINUOUS
10
4.7776
20
-4.06362
11
4.77569
21
-4.0649
0
LINE
8
BLACK
6
CONTINUOUS
10
4.77569
20
-4.0649
11
4.77343
21
-4.06535
0
LINE
8
BLACK
6
CONTINUOUS
10
4.77343
20
-4.06535
11
4.76161
21
-4.06535
0
LINE
8
BLACK
6
CONTINUOUS
10
4.76161
20
-4.06535
11
4.75935
21
-4.0649
0
LINE
8
BLACK
6
CONTINUOUS
10
4.75935
20
-4.0649
11
4.75744
21
-4.06362
0
LINE
8
BLACK
6
CONTINUOUS
10
4.75744
20
-4.06362
11
4.75616
21
-4.06171
0
LINE
8
BLACK
6
CONTINUOUS
10
4.75616
20
-4.06171
11
4.75571
21
-4.05945
0
LINE
8
BLACK
6
CONTINUOUS
10
4.75571
20
-4.05945
11
4.75571
21
-3.99449
0
LINE
8
BLACK
6
CONTINUOUS
10
4.75571
20
-3.99449
11
4.75616
21
-3.99223
0
LINE
8
BLACK
6
CONTINUOUS
10
4.75616
20
-3.99223
11
4.75744
21
-3.99031
0
LINE
8
BLACK
6
CONTINUOUS
10
4.75744
20
-3.99031
11
4.75935
21
-3.98903
0
LINE
8
BLACK
6
CONTINUOUS
10
4.75935
20
-3.98903
11
4.76161
21
-3.98858
0
LINE
8
BLACK
6
CONTINUOUS
10
4.76161
20
-3.98858
11
4.77343
21
-3.98858
0
LINE
8
BLACK
6
CONTINUOUS
10
4.77343
20
-3.98858
11
4.77569
21
-3.98903
0
LINE
8
BLACK
6
CONTINUOUS
10
5.09065
20
-3.98903
11
5.09256
21
-3.99031
0
LINE
8
BLACK
6
CONTINUOUS
10
5.09256
20
-3.99031
11
5.09384
21
-3.99223
0
LINE
8
BLACK
6
CONTINUOUS
10
5.09384
20
-3.99223
11
5.09429
21
-3.99449
0
LINE
8
BLACK
6
CONTINUOUS
10
5.09429
20
-3.99449
11
5.09429
21
-4.05945
0
LINE
8
BLACK
6
CONTINUOUS
10
5.09429
20
-4.05945
11
5.09384
21
-4.06171
0
LINE
8
BLACK
6
CONTINUOUS
10
5.09384
20
-4.06171
11
5.09256
21
-4.06362
0
LINE
8
BLACK
6
CONTINUOUS
10
5.09256
20
-4.06362
11
5.09065
21
-4.0649
0
LINE
8
BLACK
6
CONTINUOUS
10
5.09065
20
-4.0649
11
5.08839
21
-4.06535
0
LINE
8
BLACK
6
CONTINUOUS
10
5.08839
20
-4.06535
11
5.07657
21
-4.06535
0
LINE
8
BLACK
6
CONTINUOUS
10
5.07657
20
-4.06535
11
5.07431
21
-4.0649
0
LINE
8
BLACK
6
CONTINUOUS
10
5.07431
20
-4.0649
11
5.0724
21
-4.06362
0
LINE
8
BLACK
6
CONTINUOUS
10
5.0724
20
-4.06362
11
5.07112
21
-4.06171
0
LINE
8
BLACK
6
CONTINUOUS
10
5.07112
20
-4.06171
11
5.07067
21
-4.05945
0
LINE
8
BLACK
6
CONTINUOUS
10
5.07067
20
-4.05945
11
5.07067
21
-3.99449
0
LINE
8
BLACK
6
CONTINUOUS
10
5.07067
20
-3.99449
11
5.07112
21
-3.99223
0
LINE
8
BLACK
6
CONTINUOUS
10
5.07112
20
-3.99223
11
5.0724
21
-3.99031
0
LINE
8
BLACK
6
CONTINUOUS
10
5.0724
20
-3.99031
11
5.07431
21
-3.98903
0
LINE
8
BLACK
6
CONTINUOUS
10
5.07431
20
-3.98903
11
5.07657
21
-3.98858
0
LINE
8
BLACK
6
CONTINUOUS
10
5.07657
20
-3.98858
11
5.08839
21
-3.98858
0
LINE
8
BLACK
6
CONTINUOUS
10
5.08839
20
-3.98858
11
5.09065
21
-3.98903
0
LINE
8
BLACK
6
CONTINUOUS
10
5.14065
20
-3.98903
11
5.14256
21
-3.99031
0
LINE
8
BLACK
6
CONTINUOUS
10
5.14256
20
-3.99031
11
5.14384
21
-3.99223
0
LINE
8
BLACK
6
CONTINUOUS
10
5.14384
20
-3.99223
11
5.14429
21
-3.99449
0
LINE
8
BLACK
6
CONTINUOUS
10
5.14429
20
-3.99449
11
5.14429
21
-4.05945
0
LINE
8
BLACK
6
CONTINUOUS
10
5.14429
20
-4.05945
11
5.14384
21
-4.06171
0
LINE
8
BLACK
6
CONTINUOUS
10
5.14384
20
-4.06171
11
5.14256
21
-4.06362
0
LINE
8
BLACK
6
CONTINUOUS
10
5.14256
20
-4.06362
11
5.14065
21
-4.0649
0
LINE
8
BLACK
6
CONTINUOUS
10
5.14065
20
-4.0649
11
5.13839
21
-4.06535
0
LINE
8
BLACK
6
CONTINUOUS
10
5.13839
20
-4.06535
11
5.12657
21
-4.06535
0
LINE
8
BLACK
6
CONTINUOUS
10
5.12657
20
-4.06535
11
5.12431
21
-4.0649
0
LINE
8
BLACK
6
CONTINUOUS
10
5.12431
20
-4.0649
11
5.1224
21
-4.06362
0
LINE
8
BLACK
6
CONTINUOUS
10
5.1224
20
-4.06362
11
5.12112
21
-4.06171
0
LINE
8
BLACK
6
CONTINUOUS
10
5.12112
20
-4.06171
11
5.12067
21
-4.05945
0
LINE
8
BLACK
6
CONTINUOUS
10
5.12067
20
-4.05945
11
5.12067
21
-3.99449
0
LINE
8
BLACK
6
CONTINUOUS
10
5.12067
20
-3.99449
11
5.12112
21
-3.99223
0
LINE
8
BLACK
6
CONTINUOUS
10
5.12112
20
-3.99223
11
5.1224
21
-3.99031
0
LINE
8
BLACK
6
CONTINUOUS
10
5.1224
20
-3.99031
11
5.12431
21
-3.98903
0
LINE
8
BLACK
6
CONTINUOUS
10
5.12431
20
-3.98903
11
5.12657
21
-3.98858
0
LINE
8
BLACK
6
CONTINUOUS
10
5.12657
20
-3.98858
11
5.13839
21
-3.98858
0
LINE
8
BLACK
6
CONTINUOUS
10
5.13839
20
-3.98858
11
5.14065
21
-3.98903
0
LINE
8
BLACK
6
CONTINUOUS
10
5.19065
20
-3.98903
11
5.19256
21
-3.99031
0
LINE
8
BLACK
6
CONTINUOUS
10
5.19256
20
-3.99031
11
5.19384
21
-3.99223
0
LINE
8
BLACK
6
CONTINUOUS
10
5.19384
20
-3.99223
11
5.19429
21
-3.99449
0
LINE
8
BLACK
6
CONTINUOUS
10
5.19429
20
-3.99449
11
5.19429
21
-4.05945
0
LINE
8
BLACK
6
CONTINUOUS
10
5.19429
20
-4.05945
11
5.19384
21
-4.06171
0
LINE
8
BLACK
6
CONTINUOUS
10
5.19384
20
-4.06171
11
5.19256
21
-4.06362
0
LINE
8
BLACK
6
CONTINUOUS
10
5.19256
20
-4.06362
11
5.19065
21
-4.0649
0
LINE
8
BLACK
6
CONTINUOUS
10
5.19065
20
-4.0649
11
5.18839
21
-4.06535
0
LINE
8
BLACK
6
CONTINUOUS
10
5.18839
20
-4.06535
11
5.17657
21
-4.06535
0
LINE
8
BLACK
6
CONTINUOUS
10
5.17657
20
-4.06535
11
5.17431
21
-4.0649
0
LINE
8
BLACK
6
CONTINUOUS
10
5.17431
20
-4.0649
11
5.1724
21
-4.06362
0
LINE
8
BLACK
6
CONTINUOUS
10
5.1724
20
-4.06362
11
5.17112
21
-4.06171
0
LINE
8
BLACK
6
CONTINUOUS
10
5.17112
20
-4.06171
11
5.17067
21
-4.05945
0
LINE
8
BLACK
6
CONTINUOUS
10
5.17067
20
-4.05945
11
5.17067
21
-3.99449
0
LINE
8
BLACK
6
CONTINUOUS
10
5.17067
20
-3.99449
11
5.17112
21
-3.99223
0
LINE
8
BLACK
6
CONTINUOUS
10
5.17112
20
-3.99223
11
5.1724
21
-3.99031
0
LINE
8
BLACK
6
CONTINUOUS
10
5.1724
20
-3.99031
11
5.17431
21
-3.98903
0
LINE
8
BLACK
6
CONTINUOUS
10
5.17431
20
-3.98903
11
5.17657
21
-3.98858
0
LINE
8
BLACK
6
CONTINUOUS
10
5.17657
20
-3.98858
11
5.18839
21
-3.98858
0
LINE
8
BLACK
6
CONTINUOUS
10
5.18839
20
-3.98858
11
5.19065
21
-3.98903
0
LINE
8
BLACK
6
CONTINUOUS
10
5.24065
20
-3.98903
11
5.24256
21
-3.99031
0
LINE
8
BLACK
6
CONTINUOUS
10
5.24256
20
-3.99031
11
5.24384
21
-3.99223
0
LINE
8
BLACK
6
CONTINUOUS
10
5.24384
20
-3.99223
11
5.24429
21
-3.99449
0
LINE
8
BLACK
6
CONTINUOUS
10
5.24429
20
-3.99449
11
5.24429
21
-4.05945
0
LINE
8
BLACK
6
CONTINUOUS
10
5.24429
20
-4.05945
11
5.24384
21
-4.06171
0
LINE
8
BLACK
6
CONTINUOUS
10
5.24384
20
-4.06171
11
5.24256
21
-4.06362
0
LINE
8
BLACK
6
CONTINUOUS
10
5.24256
20
-4.06362
11
5.24065
21
-4.0649
0
LINE
8
BLACK
6
CONTINUOUS
10
5.24065
20
-4.0649
11
5.23839
21
-4.06535
0
LINE
8
BLACK
6
CONTINUOUS
10
5.23839
20
-4.06535
11
5.22657
21
-4.06535
0
LINE
8
BLACK
6
CONTINUOUS
10
5.22657
20
-4.06535
11
5.22431
21
-4.0649
0
LINE
8
BLACK
6
CONTINUOUS
10
5.22431
20
-4.0649
11
5.2224
21
-4.06362
0
LINE
8
BLACK
6
CONTINUOUS
10
5.2224
20
-4.06362
11
5.22112
21
-4.06171
0
LINE
8
BLACK
6
CONTINUOUS
10
5.22112
20
-4.06171
11
5.22067
21
-4.05945
0
LINE
8
BLACK
6
CONTINUOUS
10
5.22067
20
-4.05945
11
5.22067
21
-3.99449
0
LINE
8
BLACK
6
CONTINUOUS
10
5.22067
20
-3.99449
11
5.22112
21
-3.99223
0
LINE
8
BLACK
6
CONTINUOUS
10
5.22112
20
-3.99223
11
5.2224
21
-3.99031
0
LINE
8
BLACK
6
CONTINUOUS
10
5.2224
20
-3.99031
11
5.22431
21
-3.98903
0
LINE
8
BLACK
6
CONTINUOUS
10
5.22431
20
-3.98903
11
5.22657
21
-3.98858
0
LINE
8
BLACK
6
CONTINUOUS
10
5.22657
20
-3.98858
11
5.23839
21
-3.98858
0
LINE
8
BLACK
6
CONTINUOUS
10
5.23839
20
-3.98858
11
5.24065
21
-3.98903
0
LINE
8
BLACK
6
CONTINUOUS
10
5.97441
20
-4.04843
11
5.91535
21
-4.04843
0
LINE
8
BLACK
6
CONTINUOUS
10
5.91535
20
-4.04843
11
5.91535
21
-3.96969
0
LINE
8
BLACK
6
CONTINUOUS
10
5.91535
20
-3.96969
11
5.97441
21
-3.96969
0
LINE
8
BLACK
6
CONTINUOUS
10
5.97441
20
-3.96969
11
5.97441
21
-4.04843
0
LINE
8
BLACK
6
CONTINUOUS
10
6.06496
20
-4.04843
11
6.00591
21
-4.04843
0
LINE
8
BLACK
6
CONTINUOUS
10
6.00591
20
-4.04843
11
6.00591
21
-3.96969
0
LINE
8
BLACK
6
CONTINUOUS
10
6.00591
20
-3.96969
11
6.06496
21
-3.96969
0
LINE
8
BLACK
6
CONTINUOUS
10
6.06496
20
-3.96969
11
6.06496
21
-4.04843
0
LINE
8
BLACK
6
CONTINUOUS
10
5.88386
20
-4.04843
11
5.8248
21
-4.04843
0
LINE
8
BLACK
6
CONTINUOUS
10
5.8248
20
-4.04843
11
5.8248
21
-3.96969
0
LINE
8
BLACK
6
CONTINUOUS
10
5.8248
20
-3.96969
11
5.88386
21
-3.96969
0
LINE
8
BLACK
6
CONTINUOUS
10
5.88386
20
-3.96969
11
5.88386
21
-4.04843
0
LINE
8
BLACK
6
CONTINUOUS
10
5.31835
20
-4.00402
11
5.32122
21
-4.00594
0
LINE
8
BLACK
6
CONTINUOUS
10
5.32122
20
-4.00594
11
5.32314
21
-4.00881
0
LINE
8
BLACK
6
CONTINUOUS
10
5.32314
20
-4.00881
11
5.32382
21
-4.0122
0
LINE
8
BLACK
6
CONTINUOUS
10
5.32382
20
-4.0122
11
5.32382
21
-4.02992
0
LINE
8
BLACK
6
CONTINUOUS
10
5.32382
20
-4.02992
11
5.32314
21
-4.03331
0
LINE
8
BLACK
6
CONTINUOUS
10
5.32314
20
-4.03331
11
5.32122
21
-4.03618
0
LINE
8
BLACK
6
CONTINUOUS
10
5.32122
20
-4.03618
11
5.31835
21
-4.03811
0
LINE
8
BLACK
6
CONTINUOUS
10
5.31835
20
-4.03811
11
5.31496
21
-4.03878
0
LINE
8
BLACK
6
CONTINUOUS
10
5.31496
20
-4.03878
11
5.29528
21
-4.03878
0
LINE
8
BLACK
6
CONTINUOUS
10
5.29528
20
-4.03878
11
5.29189
21
-4.03811
0
LINE
8
BLACK
6
CONTINUOUS
10
5.29189
20
-4.03811
11
5.28901
21
-4.03618
0
LINE
8
BLACK
6
CONTINUOUS
10
5.28901
20
-4.03618
11
5.28709
21
-4.03331
0
LINE
8
BLACK
6
CONTINUOUS
10
5.28709
20
-4.03331
11
5.28642
21
-4.02992
0
LINE
8
BLACK
6
CONTINUOUS
10
5.28642
20
-4.02992
11
5.28642
21
-4.0122
0
LINE
8
BLACK
6
CONTINUOUS
10
5.28642
20
-4.0122
11
5.28709
21
-4.00881
0
LINE
8
BLACK
6
CONTINUOUS
10
5.28709
20
-4.00881
11
5.28901
21
-4.00594
0
LINE
8
BLACK
6
CONTINUOUS
10
5.28901
20
-4.00594
11
5.29189
21
-4.00402
0
LINE
8
BLACK
6
CONTINUOUS
10
5.29189
20
-4.00402
11
5.29528
21
-4.00335
0
LINE
8
BLACK
6
CONTINUOUS
10
5.29528
20
-4.00335
11
5.31496
21
-4.00335
0
LINE
8
BLACK
6
CONTINUOUS
10
5.31496
20
-4.00335
11
5.31835
21
-4.00402
0
LINE
8
BLACK
6
CONTINUOUS
10
5.31835
20
-3.943
11
5.32122
21
-3.94492
0
LINE
8
BLACK
6
CONTINUOUS
10
5.32122
20
-3.94492
11
5.32314
21
-3.94779
0
LINE
8
BLACK
6
CONTINUOUS
10
5.32314
20
-3.94779
11
5.32382
21
-3.95118
0
LINE
8
BLACK
6
CONTINUOUS
10
5.32382
20
-3.95118
11
5.32382
21
-3.9689
0
LINE
8
BLACK
6
CONTINUOUS
10
5.32382
20
-3.9689
11
5.32314
21
-3.97229
0
LINE
8
BLACK
6
CONTINUOUS
10
5.32314
20
-3.97229
11
5.32122
21
-3.97516
0
LINE
8
BLACK
6
CONTINUOUS
10
5.32122
20
-3.97516
11
5.31835
21
-3.97708
0
LINE
8
BLACK
6
CONTINUOUS
10
5.31835
20
-3.97708
11
5.31496
21
-3.97776
0
LINE
8
BLACK
6
CONTINUOUS
10
5.31496
20
-3.97776
11
5.29528
21
-3.97776
0
LINE
8
BLACK
6
CONTINUOUS
10
5.29528
20
-3.97776
11
5.29189
21
-3.97708
0
LINE
8
BLACK
6
CONTINUOUS
10
5.29189
20
-3.97708
11
5.28901
21
-3.97516
0
LINE
8
BLACK
6
CONTINUOUS
10
5.28901
20
-3.97516
11
5.28709
21
-3.97229
0
LINE
8
BLACK
6
CONTINUOUS
10
5.28709
20
-3.97229
11
5.28642
21
-3.9689
0
LINE
8
BLACK
6
CONTINUOUS
10
5.28642
20
-3.9689
11
5.28642
21
-3.95118
0
LINE
8
BLACK
6
CONTINUOUS
10
5.28642
20
-3.95118
11
5.28709
21
-3.94779
0
LINE
8
BLACK
6
CONTINUOUS
10
5.28709
20
-3.94779
11
5.28901
21
-3.94492
0
LINE
8
BLACK
6
CONTINUOUS
10
5.28901
20
-3.94492
11
5.29189
21
-3.943
0
LINE
8
BLACK
6
CONTINUOUS
10
5.29189
20
-3.943
11
5.29528
21
-3.94232
0
LINE
8
BLACK
6
CONTINUOUS
10
5.29528
20
-3.94232
11
5.31496
21
-3.94232
0
LINE
8
BLACK
6
CONTINUOUS
10
5.31496
20
-3.94232
11
5.31835
21
-3.943
0
LINE
8
BLACK
6
CONTINUOUS
10
5.14179
20
-3.9121
11
5.14435
21
-3.9138
0
LINE
8
BLACK
6
CONTINUOUS
10
5.14435
20
-3.9138
11
5.14605
21
-3.91636
0
LINE
8
BLACK
6
CONTINUOUS
10
5.14605
20
-3.91636
11
5.14665
21
-3.91937
0
LINE
8
BLACK
6
CONTINUOUS
10
5.14665
20
-3.91937
11
5.14665
21
-3.94102
0
LINE
8
BLACK
6
CONTINUOUS
10
5.14665
20
-3.94102
11
5.14605
21
-3.94404
0
LINE
8
BLACK
6
CONTINUOUS
10
5.14605
20
-3.94404
11
5.14435
21
-3.94659
0
LINE
8
BLACK
6
CONTINUOUS
10
5.14435
20
-3.94659
11
5.14179
21
-3.9483
0
LINE
8
BLACK
6
CONTINUOUS
10
5.14179
20
-3.9483
11
5.13878
21
-3.9489
0
LINE
8
BLACK
6
CONTINUOUS
10
5.13878
20
-3.9489
11
5.12303
21
-3.9489
0
LINE
8
BLACK
6
CONTINUOUS
10
5.12303
20
-3.9489
11
5.12002
21
-3.9483
0
LINE
8
BLACK
6
CONTINUOUS
10
5.12002
20
-3.9483
11
5.11746
21
-3.94659
0
LINE
8
BLACK
6
CONTINUOUS
10
5.11746
20
-3.94659
11
5.11576
21
-3.94404
0
LINE
8
BLACK
6
CONTINUOUS
10
5.11576
20
-3.94404
11
5.11516
21
-3.94102
0
LINE
8
BLACK
6
CONTINUOUS
10
5.11516
20
-3.94102
11
5.11516
21
-3.91937
0
LINE
8
BLACK
6
CONTINUOUS
10
5.11516
20
-3.91937
11
5.11576
21
-3.91636
0
LINE
8
BLACK
6
CONTINUOUS
10
5.11576
20
-3.91636
11
5.11746
21
-3.9138
0
LINE
8
BLACK
6
CONTINUOUS
10
5.11746
20
-3.9138
11
5.12002
21
-3.9121
0
LINE
8
BLACK
6
CONTINUOUS
10
5.12002
20
-3.9121
11
5.12303
21
-3.9115
0
LINE
8
BLACK
6
CONTINUOUS
10
5.12303
20
-3.9115
11
5.13878
21
-3.9115
0
LINE
8
BLACK
6
CONTINUOUS
10
5.13878
20
-3.9115
11
5.14179
21
-3.9121
0
LINE
8
BLACK
6
CONTINUOUS
10
5.07683
20
-3.9121
11
5.07939
21
-3.9138
0
LINE
8
BLACK
6
CONTINUOUS
10
5.07939
20
-3.9138
11
5.08109
21
-3.91636
0
LINE
8
BLACK
6
CONTINUOUS
10
5.08109
20
-3.91636
11
5.08169
21
-3.91937
0
LINE
8
BLACK
6
CONTINUOUS
10
5.08169
20
-3.91937
11
5.08169
21
-3.94102
0
LINE
8
BLACK
6
CONTINUOUS
10
5.08169
20
-3.94102
11
5.08109
21
-3.94404
0
LINE
8
BLACK
6
CONTINUOUS
10
5.08109
20
-3.94404
11
5.07939
21
-3.94659
0
LINE
8
BLACK
6
CONTINUOUS
10
5.07939
20
-3.94659
11
5.07683
21
-3.9483
0
LINE
8
BLACK
6
CONTINUOUS
10
5.07683
20
-3.9483
11
5.07382
21
-3.9489
0
LINE
8
BLACK
6
CONTINUOUS
10
5.07382
20
-3.9489
11
5.05807
21
-3.9489
0
LINE
8
BLACK
6
CONTINUOUS
10
5.05807
20
-3.9489
11
5.05506
21
-3.9483
0
LINE
8
BLACK
6
CONTINUOUS
10
5.05506
20
-3.9483
11
5.0525
21
-3.94659
0
LINE
8
BLACK
6
CONTINUOUS
10
5.0525
20
-3.94659
11
5.0508
21
-3.94404
0
LINE
8
BLACK
6
CONTINUOUS
10
5.0508
20
-3.94404
11
5.0502
21
-3.94102
0
LINE
8
BLACK
6
CONTINUOUS
10
5.0502
20
-3.94102
11
5.0502
21
-3.91937
0
LINE
8
BLACK
6
CONTINUOUS
10
5.0502
20
-3.91937
11
5.0508
21
-3.91636
0
LINE
8
BLACK
6
CONTINUOUS
10
5.0508
20
-3.91636
11
5.0525
21
-3.9138
0
LINE
8
BLACK
6
CONTINUOUS
10
5.0525
20
-3.9138
11
5.05506
21
-3.9121
0
LINE
8
BLACK
6
CONTINUOUS
10
5.05506
20
-3.9121
11
5.05807
21
-3.9115
0
LINE
8
BLACK
6
CONTINUOUS
10
5.05807
20
-3.9115
11
5.07382
21
-3.9115
0
LINE
8
BLACK
6
CONTINUOUS
10
5.07382
20
-3.9115
11
5.07683
21
-3.9121
0
LINE
8
BLACK
6
CONTINUOUS
10
5.19494
20
-3.9121
11
5.1975
21
-3.9138
0
LINE
8
BLACK
6
CONTINUOUS
10
5.1975
20
-3.9138
11
5.1992
21
-3.91636
0
LINE
8
BLACK
6
CONTINUOUS
10
5.1992
20
-3.91636
11
5.1998
21
-3.91937
0
LINE
8
BLACK
6
CONTINUOUS
10
5.1998
20
-3.91937
11
5.1998
21
-3.94102
0
LINE
8
BLACK
6
CONTINUOUS
10
5.1998
20
-3.94102
11
5.1992
21
-3.94404
0
LINE
8
BLACK
6
CONTINUOUS
10
5.1992
20
-3.94404
11
5.1975
21
-3.94659
0
LINE
8
BLACK
6
CONTINUOUS
10
5.1975
20
-3.94659
11
5.19494
21
-3.9483
0
LINE
8
BLACK
6
CONTINUOUS
10
5.19494
20
-3.9483
11
5.19193
21
-3.9489
0
LINE
8
BLACK
6
CONTINUOUS
10
5.19193
20
-3.9489
11
5.17618
21
-3.9489
0
LINE
8
BLACK
6
CONTINUOUS
10
5.17618
20
-3.9489
11
5.17317
21
-3.9483
0
LINE
8
BLACK
6
CONTINUOUS
10
5.17317
20
-3.9483
11
5.17061
21
-3.94659
0
LINE
8
BLACK
6
CONTINUOUS
10
5.17061
20
-3.94659
11
5.16891
21
-3.94404
0
LINE
8
BLACK
6
CONTINUOUS
10
5.16891
20
-3.94404
11
5.16831
21
-3.94102
0
LINE
8
BLACK
6
CONTINUOUS
10
5.16831
20
-3.94102
11
5.16831
21
-3.91937
0
LINE
8
BLACK
6
CONTINUOUS
10
5.16831
20
-3.91937
11
5.16891
21
-3.91636
0
LINE
8
BLACK
6
CONTINUOUS
10
5.16891
20
-3.91636
11
5.17061
21
-3.9138
0
LINE
8
BLACK
6
CONTINUOUS
10
5.17061
20
-3.9138
11
5.17317
21
-3.9121
0
LINE
8
BLACK
6
CONTINUOUS
10
5.17317
20
-3.9121
11
5.17618
21
-3.9115
0
LINE
8
BLACK
6
CONTINUOUS
10
5.17618
20
-3.9115
11
5.19193
21
-3.9115
0
LINE
8
BLACK
6
CONTINUOUS
10
5.19193
20
-3.9115
11
5.19494
21
-3.9121
0
LINE
8
BLACK
6
CONTINUOUS
10
4.76187
20
-3.9121
11
4.76443
21
-3.9138
0
LINE
8
BLACK
6
CONTINUOUS
10
4.76443
20
-3.9138
11
4.76613
21
-3.91636
0
LINE
8
BLACK
6
CONTINUOUS
10
4.76613
20
-3.91636
11
4.76673
21
-3.91937
0
LINE
8
BLACK
6
CONTINUOUS
10
4.76673
20
-3.91937
11
4.76673
21
-3.94102
0
LINE
8
BLACK
6
CONTINUOUS
10
4.76673
20
-3.94102
11
4.76613
21
-3.94404
0
LINE
8
BLACK
6
CONTINUOUS
10
4.76613
20
-3.94404
11
4.76443
21
-3.94659
0
LINE
8
BLACK
6
CONTINUOUS
10
4.76443
20
-3.94659
11
4.76187
21
-3.9483
0
LINE
8
BLACK
6
CONTINUOUS
10
4.76187
20
-3.9483
11
4.75886
21
-3.9489
0
LINE
8
BLACK
6
CONTINUOUS
10
4.75886
20
-3.9489
11
4.74311
21
-3.9489
0
LINE
8
BLACK
6
CONTINUOUS
10
4.74311
20
-3.9489
11
4.7401
21
-3.9483
0
LINE
8
BLACK
6
CONTINUOUS
10
4.7401
20
-3.9483
11
4.73754
21
-3.94659
0
LINE
8
BLACK
6
CONTINUOUS
10
4.73754
20
-3.94659
11
4.73584
21
-3.94404
0
LINE
8
BLACK
6
CONTINUOUS
10
4.73584
20
-3.94404
11
4.73524
21
-3.94102
0
LINE
8
BLACK
6
CONTINUOUS
10
4.73524
20
-3.94102
11
4.73524
21
-3.91937
0
LINE
8
BLACK
6
CONTINUOUS
10
4.73524
20
-3.91937
11
4.73584
21
-3.91636
0
LINE
8
BLACK
6
CONTINUOUS
10
4.73584
20
-3.91636
11
4.73754
21
-3.9138
0
LINE
8
BLACK
6
CONTINUOUS
10
4.73754
20
-3.9138
11
4.7401
21
-3.9121
0
LINE
8
BLACK
6
CONTINUOUS
10
4.7401
20
-3.9121
11
4.74311
21
-3.9115
0
LINE
8
BLACK
6
CONTINUOUS
10
4.74311
20
-3.9115
11
4.75886
21
-3.9115
0
LINE
8
BLACK
6
CONTINUOUS
10
4.75886
20
-3.9115
11
4.76187
21
-3.9121
0
LINE
8
BLACK
6
CONTINUOUS
10
4.82683
20
-3.9121
11
4.82939
21
-3.9138
0
LINE
8
BLACK
6
CONTINUOUS
10
4.82939
20
-3.9138
11
4.83109
21
-3.91636
0
LINE
8
BLACK
6
CONTINUOUS
10
4.83109
20
-3.91636
11
4.83169
21
-3.91937
0
LINE
8
BLACK
6
CONTINUOUS
10
4.83169
20
-3.91937
11
4.83169
21
-3.94102
0
LINE
8
BLACK
6
CONTINUOUS
10
4.83169
20
-3.94102
11
4.83109
21
-3.94404
0
LINE
8
BLACK
6
CONTINUOUS
10
4.83109
20
-3.94404
11
4.82939
21
-3.94659
0
LINE
8
BLACK
6
CONTINUOUS
10
4.82939
20
-3.94659
11
4.82683
21
-3.9483
0
LINE
8
BLACK
6
CONTINUOUS
10
4.82683
20
-3.9483
11
4.82382
21
-3.9489
0
LINE
8
BLACK
6
CONTINUOUS
10
4.82382
20
-3.9489
11
4.80807
21
-3.9489
0
LINE
8
BLACK
6
CONTINUOUS
10
4.80807
20
-3.9489
11
4.80506
21
-3.9483
0
LINE
8
BLACK
6
CONTINUOUS
10
4.80506
20
-3.9483
11
4.8025
21
-3.94659
0
LINE
8
BLACK
6
CONTINUOUS
10
4.8025
20
-3.94659
11
4.8008
21
-3.94404
0
LINE
8
BLACK
6
CONTINUOUS
10
4.8008
20
-3.94404
11
4.8002
21
-3.94102
0
LINE
8
BLACK
6
CONTINUOUS
10
4.8002
20
-3.94102
11
4.8002
21
-3.91937
0
LINE
8
BLACK
6
CONTINUOUS
10
4.8002
20
-3.91937
11
4.8008
21
-3.91636
0
LINE
8
BLACK
6
CONTINUOUS
10
4.8008
20
-3.91636
11
4.8025
21
-3.9138
0
LINE
8
BLACK
6
CONTINUOUS
10
4.8025
20
-3.9138
11
4.80506
21
-3.9121
0
LINE
8
BLACK
6
CONTINUOUS
10
4.80506
20
-3.9121
11
4.80807
21
-3.9115
0
LINE
8
BLACK
6
CONTINUOUS
10
4.80807
20
-3.9115
11
4.82382
21
-3.9115
0
LINE
8
BLACK
6
CONTINUOUS
10
4.82382
20
-3.9115
11
4.82683
21
-3.9121
0
LINE
8
BLACK
6
CONTINUOUS
10
5.2599
20
-3.9121
11
5.26246
21
-3.9138
0
LINE
8
BLACK
6
CONTINUOUS
10
5.26246
20
-3.9138
11
5.26416
21
-3.91636
0
LINE
8
BLACK
6
CONTINUOUS
10
5.26416
20
-3.91636
11
5.26476
21
-3.91937
0
LINE
8
BLACK
6
CONTINUOUS
10
5.26476
20
-3.91937
11
5.26476
21
-3.94102
0
LINE
8
BLACK
6
CONTINUOUS
10
5.26476
20
-3.94102
11
5.26416
21
-3.94404
0
LINE
8
BLACK
6
CONTINUOUS
10
5.26416
20
-3.94404
11
5.26246
21
-3.94659
0
LINE
8
BLACK
6
CONTINUOUS
10
5.26246
20
-3.94659
11
5.2599
21
-3.9483
0
LINE
8
BLACK
6
CONTINUOUS
10
5.2599
20
-3.9483
11
5.25689
21
-3.9489
0
LINE
8
BLACK
6
CONTINUOUS
10
5.25689
20
-3.9489
11
5.24114
21
-3.9489
0
LINE
8
BLACK
6
CONTINUOUS
10
5.24114
20
-3.9489
11
5.23813
21
-3.9483
0
LINE
8
BLACK
6
CONTINUOUS
10
5.23813
20
-3.9483
11
5.23557
21
-3.94659
0
LINE
8
BLACK
6
CONTINUOUS
10
5.23557
20
-3.94659
11
5.23387
21
-3.94404
0
LINE
8
BLACK
6
CONTINUOUS
10
5.23387
20
-3.94404
11
5.23327
21
-3.94102
0
LINE
8
BLACK
6
CONTINUOUS
10
5.23327
20
-3.94102
11
5.23327
21
-3.91937
0
LINE
8
BLACK
6
CONTINUOUS
10
5.23327
20
-3.91937
11
5.23387
21
-3.91636
0
LINE
8
BLACK
6
CONTINUOUS
10
5.23387
20
-3.91636
11
5.23557
21
-3.9138
0
LINE
8
BLACK
6
CONTINUOUS
10
5.23557
20
-3.9138
11
5.23813
21
-3.9121
0
LINE
8
BLACK
6
CONTINUOUS
10
5.23813
20
-3.9121
11
5.24114
21
-3.9115
0
LINE
8
BLACK
6
CONTINUOUS
10
5.24114
20
-3.9115
11
5.25689
21
-3.9115
0
LINE
8
BLACK
6
CONTINUOUS
10
5.25689
20
-3.9115
11
5.2599
21
-3.9121
0
LINE
8
BLACK
6
CONTINUOUS
10
4.87998
20
-3.9121
11
4.88254
21
-3.9138
0
LINE
8
BLACK
6
CONTINUOUS
10
4.88254
20
-3.9138
11
4.88424
21
-3.91636
0
LINE
8
BLACK
6
CONTINUOUS
10
4.88424
20
-3.91636
11
4.88484
21
-3.91937
0
LINE
8
BLACK
6
CONTINUOUS
10
4.88484
20
-3.91937
11
4.88484
21
-3.94102
0
LINE
8
BLACK
6
CONTINUOUS
10
4.88484
20
-3.94102
11
4.88424
21
-3.94404
0
LINE
8
BLACK
6
CONTINUOUS
10
4.88424
20
-3.94404
11
4.88254
21
-3.94659
0
LINE
8
BLACK
6
CONTINUOUS
10
4.88254
20
-3.94659
11
4.87998
21
-3.9483
0
LINE
8
BLACK
6
CONTINUOUS
10
4.87998
20
-3.9483
11
4.87697
21
-3.9489
0
LINE
8
BLACK
6
CONTINUOUS
10
4.87697
20
-3.9489
11
4.86122
21
-3.9489
0
LINE
8
BLACK
6
CONTINUOUS
10
4.86122
20
-3.9489
11
4.85821
21
-3.9483
0
LINE
8
BLACK
6
CONTINUOUS
10
4.85821
20
-3.9483
11
4.85565
21
-3.94659
0
LINE
8
BLACK
6
CONTINUOUS
10
4.85565
20
-3.94659
11
4.85395
21
-3.94404
0
LINE
8
BLACK
6
CONTINUOUS
10
4.85395
20
-3.94404
11
4.85335
21
-3.94102
0
LINE
8
BLACK
6
CONTINUOUS
10
4.85335
20
-3.94102
11
4.85335
21
-3.91937
0
LINE
8
BLACK
6
CONTINUOUS
10
4.85335
20
-3.91937
11
4.85395
21
-3.91636
0
LINE
8
BLACK
6
CONTINUOUS
10
4.85395
20
-3.91636
11
4.85565
21
-3.9138
0
LINE
8
BLACK
6
CONTINUOUS
10
4.85565
20
-3.9138
11
4.85821
21
-3.9121
0
LINE
8
BLACK
6
CONTINUOUS
10
4.85821
20
-3.9121
11
4.86122
21
-3.9115
0
LINE
8
BLACK
6
CONTINUOUS
10
4.86122
20
-3.9115
11
4.87697
21
-3.9115
0
LINE
8
BLACK
6
CONTINUOUS
10
4.87697
20
-3.9115
11
4.87998
21
-3.9121
0
LINE
8
BLACK
6
CONTINUOUS
10
4.94494
20
-3.9121
11
4.9475
21
-3.9138
0
LINE
8
BLACK
6
CONTINUOUS
10
4.9475
20
-3.9138
11
4.9492
21
-3.91636
0
LINE
8
BLACK
6
CONTINUOUS
10
4.9492
20
-3.91636
11
4.9498
21
-3.91937
0
LINE
8
BLACK
6
CONTINUOUS
10
4.9498
20
-3.91937
11
4.9498
21
-3.94102
0
LINE
8
BLACK
6
CONTINUOUS
10
4.9498
20
-3.94102
11
4.9492
21
-3.94404
0
LINE
8
BLACK
6
CONTINUOUS
10
4.9492
20
-3.94404
11
4.9475
21
-3.94659
0
LINE
8
BLACK
6
CONTINUOUS
10
4.9475
20
-3.94659
11
4.94494
21
-3.9483
0
LINE
8
BLACK
6
CONTINUOUS
10
4.94494
20
-3.9483
11
4.94193
21
-3.9489
0
LINE
8
BLACK
6
CONTINUOUS
10
4.94193
20
-3.9489
11
4.92618
21
-3.9489
0
LINE
8
BLACK
6
CONTINUOUS
10
4.92618
20
-3.9489
11
4.92317
21
-3.9483
0
LINE
8
BLACK
6
CONTINUOUS
10
4.92317
20
-3.9483
11
4.92061
21
-3.94659
0
LINE
8
BLACK
6
CONTINUOUS
10
4.92061
20
-3.94659
11
4.91891
21
-3.94404
0
LINE
8
BLACK
6
CONTINUOUS
10
4.91891
20
-3.94404
11
4.91831
21
-3.94102
0
LINE
8
BLACK
6
CONTINUOUS
10
4.91831
20
-3.94102
11
4.91831
21
-3.91937
0
LINE
8
BLACK
6
CONTINUOUS
10
4.91831
20
-3.91937
11
4.91891
21
-3.91636
0
LINE
8
BLACK
6
CONTINUOUS
10
4.91891
20
-3.91636
11
4.92061
21
-3.9138
0
LINE
8
BLACK
6
CONTINUOUS
10
4.92061
20
-3.9138
11
4.92317
21
-3.9121
0
LINE
8
BLACK
6
CONTINUOUS
10
4.92317
20
-3.9121
11
4.92618
21
-3.9115
0
LINE
8
BLACK
6
CONTINUOUS
10
4.92618
20
-3.9115
11
4.94193
21
-3.9115
0
LINE
8
BLACK
6
CONTINUOUS
10
4.94193
20
-3.9115
11
4.94494
21
-3.9121
0
LINE
8
BLACK
6
CONTINUOUS
10
5.14119
20
-3.84654
11
5.14406
21
-3.84846
0
LINE
8
BLACK
6
CONTINUOUS
10
5.14406
20
-3.84846
11
5.14598
21
-3.85133
0
LINE
8
BLACK
6
CONTINUOUS
10
5.14598
20
-3.85133
11
5.14665
21
-3.85472
0
LINE
8
BLACK
6
CONTINUOUS
10
5.14665
20
-3.85472
11
5.14665
21
-3.87244
0
LINE
8
BLACK
6
CONTINUOUS
10
5.14665
20
-3.87244
11
5.14598
21
-3.87583
0
LINE
8
BLACK
6
CONTINUOUS
10
5.14598
20
-3.87583
11
5.14406
21
-3.8787
0
LINE
8
BLACK
6
CONTINUOUS
10
5.14406
20
-3.8787
11
5.14119
21
-3.88062
0
LINE
8
BLACK
6
CONTINUOUS
10
5.14119
20
-3.88062
11
5.1378
21
-3.8813
0
LINE
8
BLACK
6
CONTINUOUS
10
5.1378
20
-3.8813
11
5.11811
21
-3.8813
0
LINE
8
BLACK
6
CONTINUOUS
10
5.11811
20
-3.8813
11
5.11472
21
-3.88062
0
LINE
8
BLACK
6
CONTINUOUS
10
5.11472
20
-3.88062
11
5.11185
21
-3.8787
0
LINE
8
BLACK
6
CONTINUOUS
10
5.11185
20
-3.8787
11
5.10993
21
-3.87583
0
LINE
8
BLACK
6
CONTINUOUS
10
5.10993
20
-3.87583
11
5.10925
21
-3.87244
0
LINE
8
BLACK
6
CONTINUOUS
10
5.10925
20
-3.87244
11
5.10925
21
-3.85472
0
LINE
8
BLACK
6
CONTINUOUS
10
5.10925
20
-3.85472
11
5.10993
21
-3.85133
0
LINE
8
BLACK
6
CONTINUOUS
10
5.10993
20
-3.85133
11
5.11185
21
-3.84846
0
LINE
8
BLACK
6
CONTINUOUS
10
5.11185
20
-3.84846
11
5.11472
21
-3.84654
0
LINE
8
BLACK
6
CONTINUOUS
10
5.11472
20
-3.84654
11
5.11811
21
-3.84587
0
LINE
8
BLACK
6
CONTINUOUS
10
5.11811
20
-3.84587
11
5.1378
21
-3.84587
0
LINE
8
BLACK
6
CONTINUOUS
10
5.1378
20
-3.84587
11
5.14119
21
-3.84654
0
LINE
8
BLACK
6
CONTINUOUS
10
5.20024
20
-3.84654
11
5.20311
21
-3.84846
0
LINE
8
BLACK
6
CONTINUOUS
10
5.20311
20
-3.84846
11
5.20503
21
-3.85133
0
LINE
8
BLACK
6
CONTINUOUS
10
5.20503
20
-3.85133
11
5.20571
21
-3.85472
0
LINE
8
BLACK
6
CONTINUOUS
10
5.20571
20
-3.85472
11
5.20571
21
-3.87244
0
LINE
8
BLACK
6
CONTINUOUS
10
5.20571
20
-3.87244
11
5.20503
21
-3.87583
0
LINE
8
BLACK
6
CONTINUOUS
10
5.20503
20
-3.87583
11
5.20311
21
-3.8787
0
LINE
8
BLACK
6
CONTINUOUS
10
5.20311
20
-3.8787
11
5.20024
21
-3.88062
0
LINE
8
BLACK
6
CONTINUOUS
10
5.20024
20
-3.88062
11
5.19685
21
-3.8813
0
LINE
8
BLACK
6
CONTINUOUS
10
5.19685
20
-3.8813
11
5.17717
21
-3.8813
0
LINE
8
BLACK
6
CONTINUOUS
10
5.17717
20
-3.8813
11
5.17378
21
-3.88062
0
LINE
8
BLACK
6
CONTINUOUS
10
5.17378
20
-3.88062
11
5.1709
21
-3.8787
0
LINE
8
BLACK
6
CONTINUOUS
10
5.1709
20
-3.8787
11
5.16898
21
-3.87583
0
LINE
8
BLACK
6
CONTINUOUS
10
5.16898
20
-3.87583
11
5.16831
21
-3.87244
0
LINE
8
BLACK
6
CONTINUOUS
10
5.16831
20
-3.87244
11
5.16831
21
-3.85472
0
LINE
8
BLACK
6
CONTINUOUS
10
5.16831
20
-3.85472
11
5.16898
21
-3.85133
0
LINE
8
BLACK
6
CONTINUOUS
10
5.16898
20
-3.85133
11
5.1709
21
-3.84846
0
LINE
8
BLACK
6
CONTINUOUS
10
5.1709
20
-3.84846
11
5.17378
21
-3.84654
0
LINE
8
BLACK
6
CONTINUOUS
10
5.17378
20
-3.84654
11
5.17717
21
-3.84587
0
LINE
8
BLACK
6
CONTINUOUS
10
5.17717
20
-3.84587
11
5.19685
21
-3.84587
0
LINE
8
BLACK
6
CONTINUOUS
10
5.19685
20
-3.84587
11
5.20024
21
-3.84654
0
LINE
8
BLACK
6
CONTINUOUS
10
4.82622
20
-3.84654
11
4.8291
21
-3.84846
0
LINE
8
BLACK
6
CONTINUOUS
10
4.8291
20
-3.84846
11
4.83102
21
-3.85133
0
LINE
8
BLACK
6
CONTINUOUS
10
4.83102
20
-3.85133
11
4.83169
21
-3.85472
0
LINE
8
BLACK
6
CONTINUOUS
10
4.83169
20
-3.85472
11
4.83169
21
-3.87244
0
LINE
8
BLACK
6
CONTINUOUS
10
4.83169
20
-3.87244
11
4.83102
21
-3.87583
0
LINE
8
BLACK
6
CONTINUOUS
10
4.83102
20
-3.87583
11
4.8291
21
-3.8787
0
LINE
8
BLACK
6
CONTINUOUS
10
4.8291
20
-3.8787
11
4.82622
21
-3.88062
0
LINE
8
BLACK
6
CONTINUOUS
10
4.82622
20
-3.88062
11
4.82283
21
-3.8813
0
LINE
8
BLACK
6
CONTINUOUS
10
4.82283
20
-3.8813
11
4.80315
21
-3.8813
0
LINE
8
BLACK
6
CONTINUOUS
10
4.80315
20
-3.8813
11
4.79976
21
-3.88062
0
LINE
8
BLACK
6
CONTINUOUS
10
4.79976
20
-3.88062
11
4.79689
21
-3.8787
0
LINE
8
BLACK
6
CONTINUOUS
10
4.79689
20
-3.8787
11
4.79497
21
-3.87583
0
LINE
8
BLACK
6
CONTINUOUS
10
4.79497
20
-3.87583
11
4.79429
21
-3.87244
0
LINE
8
BLACK
6
CONTINUOUS
10
4.79429
20
-3.87244
11
4.79429
21
-3.85472
0
LINE
8
BLACK
6
CONTINUOUS
10
4.79429
20
-3.85472
11
4.79497
21
-3.85133
0
LINE
8
BLACK
6
CONTINUOUS
10
4.79497
20
-3.85133
11
4.79689
21
-3.84846
0
LINE
8
BLACK
6
CONTINUOUS
10
4.79689
20
-3.84846
11
4.79976
21
-3.84654
0
LINE
8
BLACK
6
CONTINUOUS
10
4.79976
20
-3.84654
11
4.80315
21
-3.84587
0
LINE
8
BLACK
6
CONTINUOUS
10
4.80315
20
-3.84587
11
4.82283
21
-3.84587
0
LINE
8
BLACK
6
CONTINUOUS
10
4.82283
20
-3.84587
11
4.82622
21
-3.84654
0
LINE
8
BLACK
6
CONTINUOUS
10
4.88528
20
-3.84654
11
4.88815
21
-3.84846
0
LINE
8
BLACK
6
CONTINUOUS
10
4.88815
20
-3.84846
11
4.89007
21
-3.85133
0
LINE
8
BLACK
6
CONTINUOUS
10
4.89007
20
-3.85133
11
4.89075
21
-3.85472
0
LINE
8
BLACK
6
CONTINUOUS
10
4.89075
20
-3.85472
11
4.89075
21
-3.87244
0
LINE
8
BLACK
6
CONTINUOUS
10
4.89075
20
-3.87244
11
4.89007
21
-3.87583
0
LINE
8
BLACK
6
CONTINUOUS
10
4.89007
20
-3.87583
11
4.88815
21
-3.8787
0
LINE
8
BLACK
6
CONTINUOUS
10
4.88815
20
-3.8787
11
4.88528
21
-3.88062
0
LINE
8
BLACK
6
CONTINUOUS
10
4.88528
20
-3.88062
11
4.88189
21
-3.8813
0
LINE
8
BLACK
6
CONTINUOUS
10
4.88189
20
-3.8813
11
4.8622
21
-3.8813
0
LINE
8
BLACK
6
CONTINUOUS
10
4.8622
20
-3.8813
11
4.85881
21
-3.88062
0
LINE
8
BLACK
6
CONTINUOUS
10
4.85881
20
-3.88062
11
4.85594
21
-3.8787
0
LINE
8
BLACK
6
CONTINUOUS
10
4.85594
20
-3.8787
11
4.85402
21
-3.87583
0
LINE
8
BLACK
6
CONTINUOUS
10
4.85402
20
-3.87583
11
4.85335
21
-3.87244
0
LINE
8
BLACK
6
CONTINUOUS
10
4.85335
20
-3.87244
11
4.85335
21
-3.85472
0
LINE
8
BLACK
6
CONTINUOUS
10
4.85335
20
-3.85472
11
4.85402
21
-3.85133
0
LINE
8
BLACK
6
CONTINUOUS
10
4.85402
20
-3.85133
11
4.85594
21
-3.84846
0
LINE
8
BLACK
6
CONTINUOUS
10
4.85594
20
-3.84846
11
4.85881
21
-3.84654
0
LINE
8
BLACK
6
CONTINUOUS
10
4.85881
20
-3.84654
11
4.8622
21
-3.84587
0
LINE
8
BLACK
6
CONTINUOUS
10
4.8622
20
-3.84587
11
4.88189
21
-3.84587
0
LINE
8
BLACK
6
CONTINUOUS
10
4.88189
20
-3.84587
11
4.88528
21
-3.84654
0
LINE
8
BLACK
6
CONTINUOUS
10
5.14119
20
-3.78552
11
5.14406
21
-3.78744
0
LINE
8
BLACK
6
CONTINUOUS
10
5.14406
20
-3.78744
11
5.14598
21
-3.79031
0
LINE
8
BLACK
6
CONTINUOUS
10
5.14598
20
-3.79031
11
5.14665
21
-3.7937
0
LINE
8
BLACK
6
CONTINUOUS
10
5.14665
20
-3.7937
11
5.14665
21
-3.81142
0
LINE
8
BLACK
6
CONTINUOUS
10
5.14665
20
-3.81142
11
5.14598
21
-3.81481
0
LINE
8
BLACK
6
CONTINUOUS
10
5.14598
20
-3.81481
11
5.14406
21
-3.81768
0
LINE
8
BLACK
6
CONTINUOUS
10
5.14406
20
-3.81768
11
5.14119
21
-3.8196
0
LINE
8
BLACK
6
CONTINUOUS
10
5.14119
20
-3.8196
11
5.1378
21
-3.82028
0
LINE
8
BLACK
6
CONTINUOUS
10
5.1378
20
-3.82028
11
5.11811
21
-3.82028
0
LINE
8
BLACK
6
CONTINUOUS
10
5.11811
20
-3.82028
11
5.11472
21
-3.8196
0
LINE
8
BLACK
6
CONTINUOUS
10
5.11472
20
-3.8196
11
5.11185
21
-3.81768
0
LINE
8
BLACK
6
CONTINUOUS
10
5.11185
20
-3.81768
11
5.10993
21
-3.81481
0
LINE
8
BLACK
6
CONTINUOUS
10
5.10993
20
-3.81481
11
5.10925
21
-3.81142
0
LINE
8
BLACK
6
CONTINUOUS
10
5.10925
20
-3.81142
11
5.10925
21
-3.7937
0
LINE
8
BLACK
6
CONTINUOUS
10
5.10925
20
-3.7937
11
5.10993
21
-3.79031
0
LINE
8
BLACK
6
CONTINUOUS
10
5.10993
20
-3.79031
11
5.11185
21
-3.78744
0
LINE
8
BLACK
6
CONTINUOUS
10
5.11185
20
-3.78744
11
5.11472
21
-3.78552
0
LINE
8
BLACK
6
CONTINUOUS
10
5.11472
20
-3.78552
11
5.11811
21
-3.78484
0
LINE
8
BLACK
6
CONTINUOUS
10
5.11811
20
-3.78484
11
5.1378
21
-3.78484
0
LINE
8
BLACK
6
CONTINUOUS
10
5.1378
20
-3.78484
11
5.14119
21
-3.78552
0
LINE
8
BLACK
6
CONTINUOUS
10
4.82622
20
-3.78552
11
4.8291
21
-3.78744
0
LINE
8
BLACK
6
CONTINUOUS
10
4.8291
20
-3.78744
11
4.83102
21
-3.79031
0
LINE
8
BLACK
6
CONTINUOUS
10
4.83102
20
-3.79031
11
4.83169
21
-3.7937
0
LINE
8
BLACK
6
CONTINUOUS
10
4.83169
20
-3.7937
11
4.83169
21
-3.81142
0
LINE
8
BLACK
6
CONTINUOUS
10
4.83169
20
-3.81142
11
4.83102
21
-3.81481
0
LINE
8
BLACK
6
CONTINUOUS
10
4.83102
20
-3.81481
11
4.8291
21
-3.81768
0
LINE
8
BLACK
6
CONTINUOUS
10
4.8291
20
-3.81768
11
4.82622
21
-3.8196
0
LINE
8
BLACK
6
CONTINUOUS
10
4.82622
20
-3.8196
11
4.82283
21
-3.82028
0
LINE
8
BLACK
6
CONTINUOUS
10
4.82283
20
-3.82028
11
4.80315
21
-3.82028
0
LINE
8
BLACK
6
CONTINUOUS
10
4.80315
20
-3.82028
11
4.79976
21
-3.8196
0
LINE
8
BLACK
6
CONTINUOUS
10
4.79976
20
-3.8196
11
4.79689
21
-3.81768
0
LINE
8
BLACK
6
CONTINUOUS
10
4.79689
20
-3.81768
11
4.79497
21
-3.81481
0
LINE
8
BLACK
6
CONTINUOUS
10
4.79497
20
-3.81481
11
4.79429
21
-3.81142
0
LINE
8
BLACK
6
CONTINUOUS
10
4.79429
20
-3.81142
11
4.79429
21
-3.7937
0
LINE
8
BLACK
6
CONTINUOUS
10
4.79429
20
-3.7937
11
4.79497
21
-3.79031
0
LINE
8
BLACK
6
CONTINUOUS
10
4.79497
20
-3.79031
11
4.79689
21
-3.78744
0
LINE
8
BLACK
6
CONTINUOUS
10
4.79689
20
-3.78744
11
4.79976
21
-3.78552
0
LINE
8
BLACK
6
CONTINUOUS
10
4.79976
20
-3.78552
11
4.80315
21
-3.78484
0
LINE
8
BLACK
6
CONTINUOUS
10
4.80315
20
-3.78484
11
4.82283
21
-3.78484
0
LINE
8
BLACK
6
CONTINUOUS
10
4.82283
20
-3.78484
11
4.82622
21
-3.78552
0
LINE
8
BLACK
6
CONTINUOUS
10
4.88528
20
-3.78552
11
4.88815
21
-3.78744
0
LINE
8
BLACK
6
CONTINUOUS
10
4.88815
20
-3.78744
11
4.89007
21
-3.79031
0
LINE
8
BLACK
6
CONTINUOUS
10
4.89007
20
-3.79031
11
4.89075
21
-3.7937
0
LINE
8
BLACK
6
CONTINUOUS
10
4.89075
20
-3.7937
11
4.89075
21
-3.81142
0
LINE
8
BLACK
6
CONTINUOUS
10
4.89075
20
-3.81142
11
4.89007
21
-3.81481
0
LINE
8
BLACK
6
CONTINUOUS
10
4.89007
20
-3.81481
11
4.88815
21
-3.81768
0
LINE
8
BLACK
6
CONTINUOUS
10
4.88815
20
-3.81768
11
4.88528
21
-3.8196
0
LINE
8
BLACK
6
CONTINUOUS
10
4.88528
20
-3.8196
11
4.88189
21
-3.82028
0
LINE
8
BLACK
6
CONTINUOUS
10
4.88189
20
-3.82028
11
4.8622
21
-3.82028
0
LINE
8
BLACK
6
CONTINUOUS
10
4.8622
20
-3.82028
11
4.85881
21
-3.8196
0
LINE
8
BLACK
6
CONTINUOUS
10
4.85881
20
-3.8196
11
4.85594
21
-3.81768
0
LINE
8
BLACK
6
CONTINUOUS
10
4.85594
20
-3.81768
11
4.85402
21
-3.81481
0
LINE
8
BLACK
6
CONTINUOUS
10
4.85402
20
-3.81481
11
4.85335
21
-3.81142
0
LINE
8
BLACK
6
CONTINUOUS
10
4.85335
20
-3.81142
11
4.85335
21
-3.7937
0
LINE
8
BLACK
6
CONTINUOUS
10
4.85335
20
-3.7937
11
4.85402
21
-3.79031
0
LINE
8
BLACK
6
CONTINUOUS
10
4.85402
20
-3.79031
11
4.85594
21
-3.78744
0
LINE
8
BLACK
6
CONTINUOUS
10
4.85594
20
-3.78744
11
4.85881
21
-3.78552
0
LINE
8
BLACK
6
CONTINUOUS
10
4.85881
20
-3.78552
11
4.8622
21
-3.78484
0
LINE
8
BLACK
6
CONTINUOUS
10
4.8622
20
-3.78484
11
4.88189
21
-3.78484
0
LINE
8
BLACK
6
CONTINUOUS
10
4.88189
20
-3.78484
11
4.88528
21
-3.78552
0
LINE
8
BLACK
6
CONTINUOUS
10
5.20024
20
-3.78552
11
5.20311
21
-3.78744
0
LINE
8
BLACK
6
CONTINUOUS
10
5.20311
20
-3.78744
11
5.20503
21
-3.79031
0
LINE
8
BLACK
6
CONTINUOUS
10
5.20503
20
-3.79031
11
5.20571
21
-3.7937
0
LINE
8
BLACK
6
CONTINUOUS
10
5.20571
20
-3.7937
11
5.20571
21
-3.81142
0
LINE
8
BLACK
6
CONTINUOUS
10
5.20571
20
-3.81142
11
5.20503
21
-3.81481
0
LINE
8
BLACK
6
CONTINUOUS
10
5.20503
20
-3.81481
11
5.20311
21
-3.81768
0
LINE
8
BLACK
6
CONTINUOUS
10
5.20311
20
-3.81768
11
5.20024
21
-3.8196
0
LINE
8
BLACK
6
CONTINUOUS
10
5.20024
20
-3.8196
11
5.19685
21
-3.82028
0
LINE
8
BLACK
6
CONTINUOUS
10
5.19685
20
-3.82028
11
5.17717
21
-3.82028
0
LINE
8
BLACK
6
CONTINUOUS
10
5.17717
20
-3.82028
11
5.17378
21
-3.8196
0
LINE
8
BLACK
6
CONTINUOUS
10
5.17378
20
-3.8196
11
5.1709
21
-3.81768
0
LINE
8
BLACK
6
CONTINUOUS
10
5.1709
20
-3.81768
11
5.16898
21
-3.81481
0
LINE
8
BLACK
6
CONTINUOUS
10
5.16898
20
-3.81481
11
5.16831
21
-3.81142
0
LINE
8
BLACK
6
CONTINUOUS
10
5.16831
20
-3.81142
11
5.16831
21
-3.7937
0
LINE
8
BLACK
6
CONTINUOUS
10
5.16831
20
-3.7937
11
5.16898
21
-3.79031
0
LINE
8
BLACK
6
CONTINUOUS
10
5.16898
20
-3.79031
11
5.1709
21
-3.78744
0
LINE
8
BLACK
6
CONTINUOUS
10
5.1709
20
-3.78744
11
5.17378
21
-3.78552
0
LINE
8
BLACK
6
CONTINUOUS
10
5.17378
20
-3.78552
11
5.17717
21
-3.78484
0
LINE
8
BLACK
6
CONTINUOUS
10
5.17717
20
-3.78484
11
5.19685
21
-3.78484
0
LINE
8
BLACK
6
CONTINUOUS
10
5.19685
20
-3.78484
11
5.20024
21
-3.78552
0
LINE
8
BLACK
6
CONTINUOUS
10
6.01969
20
-3.80039
11
5.87008
21
-3.80039
0
LINE
8
BLACK
6
CONTINUOUS
10
5.87008
20
-3.80039
11
5.87008
21
-3.72165
0
LINE
8
BLACK
6
CONTINUOUS
10
5.87008
20
-3.72165
11
6.01969
21
-3.72165
0
LINE
8
BLACK
6
CONTINUOUS
10
6.01969
20
-3.72165
11
6.01969
21
-3.80039
0
LINE
8
BLACK
6
CONTINUOUS
10
6.08115
20
-3.63886
11
6.08402
21
-3.64078
0
LINE
8
BLACK
6
CONTINUOUS
10
6.08402
20
-3.64078
11
6.08594
21
-3.64366
0
LINE
8
BLACK
6
CONTINUOUS
10
6.08594
20
-3.64366
11
6.08661
21
-3.64705
0
LINE
8
BLACK
6
CONTINUOUS
10
6.08661
20
-3.64705
11
6.08661
21
-3.66673
0
LINE
8
BLACK
6
CONTINUOUS
10
6.08661
20
-3.66673
11
6.08594
21
-3.67012
0
LINE
8
BLACK
6
CONTINUOUS
10
6.08594
20
-3.67012
11
6.08402
21
-3.673
0
LINE
8
BLACK
6
CONTINUOUS
10
6.08402
20
-3.673
11
6.08115
21
-3.67492
0
LINE
8
BLACK
6
CONTINUOUS
10
6.08115
20
-3.67492
11
6.07776
21
-3.67559
0
LINE
8
BLACK
6
CONTINUOUS
10
6.07776
20
-3.67559
11
6.06004
21
-3.67559
0
LINE
8
BLACK
6
CONTINUOUS
10
6.06004
20
-3.67559
11
6.05665
21
-3.67492
0
LINE
8
BLACK
6
CONTINUOUS
10
6.05665
20
-3.67492
11
6.05378
21
-3.673
0
LINE
8
BLACK
6
CONTINUOUS
10
6.05378
20
-3.673
11
6.05186
21
-3.67012
0
LINE
8
BLACK
6
CONTINUOUS
10
6.05186
20
-3.67012
11
6.05118
21
-3.66673
0
LINE
8
BLACK
6
CONTINUOUS
10
6.05118
20
-3.66673
11
6.05118
21
-3.64705
0
LINE
8
BLACK
6
CONTINUOUS
10
6.05118
20
-3.64705
11
6.05186
21
-3.64366
0
LINE
8
BLACK
6
CONTINUOUS
10
6.05186
20
-3.64366
11
6.05378
21
-3.64078
0
LINE
8
BLACK
6
CONTINUOUS
10
6.05378
20
-3.64078
11
6.05665
21
-3.63886
0
LINE
8
BLACK
6
CONTINUOUS
10
6.05665
20
-3.63886
11
6.06004
21
-3.63819
0
LINE
8
BLACK
6
CONTINUOUS
10
6.06004
20
-3.63819
11
6.07776
21
-3.63819
0
LINE
8
BLACK
6
CONTINUOUS
10
6.07776
20
-3.63819
11
6.08115
21
-3.63886
0
LINE
8
BLACK
6
CONTINUOUS
10
6.02012
20
-3.63886
11
6.023
21
-3.64078
0
LINE
8
BLACK
6
CONTINUOUS
10
6.023
20
-3.64078
11
6.02492
21
-3.64366
0
LINE
8
BLACK
6
CONTINUOUS
10
6.02492
20
-3.64366
11
6.02559
21
-3.64705
0
LINE
8
BLACK
6
CONTINUOUS
10
6.02559
20
-3.64705
11
6.02559
21
-3.66673
0
LINE
8
BLACK
6
CONTINUOUS
10
6.02559
20
-3.66673
11
6.02492
21
-3.67012
0
LINE
8
BLACK
6
CONTINUOUS
10
6.02492
20
-3.67012
11
6.023
21
-3.673
0
LINE
8
BLACK
6
CONTINUOUS
10
6.023
20
-3.673
11
6.02012
21
-3.67492
0
LINE
8
BLACK
6
CONTINUOUS
10
6.02012
20
-3.67492
11
6.01673
21
-3.67559
0
LINE
8
BLACK
6
CONTINUOUS
10
6.01673
20
-3.67559
11
5.99902
21
-3.67559
0
LINE
8
BLACK
6
CONTINUOUS
10
5.99902
20
-3.67559
11
5.99563
21
-3.67492
0
LINE
8
BLACK
6
CONTINUOUS
10
5.99563
20
-3.67492
11
5.99275
21
-3.673
0
LINE
8
BLACK
6
CONTINUOUS
10
5.99275
20
-3.673
11
5.99083
21
-3.67012
0
LINE
8
BLACK
6
CONTINUOUS
10
5.99083
20
-3.67012
11
5.99016
21
-3.66673
0
LINE
8
BLACK
6
CONTINUOUS
10
5.99016
20
-3.66673
11
5.99016
21
-3.64705
0
LINE
8
BLACK
6
CONTINUOUS
10
5.99016
20
-3.64705
11
5.99083
21
-3.64366
0
LINE
8
BLACK
6
CONTINUOUS
10
5.99083
20
-3.64366
11
5.99275
21
-3.64078
0
LINE
8
BLACK
6
CONTINUOUS
10
5.99275
20
-3.64078
11
5.99563
21
-3.63886
0
LINE
8
BLACK
6
CONTINUOUS
10
5.99563
20
-3.63886
11
5.99902
21
-3.63819
0
LINE
8
BLACK
6
CONTINUOUS
10
5.99902
20
-3.63819
11
6.01673
21
-3.63819
0
LINE
8
BLACK
6
CONTINUOUS
10
6.01673
20
-3.63819
11
6.02012
21
-3.63886
0
LINE
8
BLACK
6
CONTINUOUS
10
5.84629
20
-3.60843
11
5.84948
21
-3.61056
0
LINE
8
BLACK
6
CONTINUOUS
10
5.84948
20
-3.61056
11
5.85161
21
-3.61375
0
LINE
8
BLACK
6
CONTINUOUS
10
5.85161
20
-3.61375
11
5.85236
21
-3.61752
0
LINE
8
BLACK
6
CONTINUOUS
10
5.85236
20
-3.61752
11
5.85236
21
-3.65492
0
LINE
8
BLACK
6
CONTINUOUS
10
5.85236
20
-3.65492
11
5.85161
21
-3.65869
0
LINE
8
BLACK
6
CONTINUOUS
10
5.85161
20
-3.65869
11
5.84948
21
-3.66188
0
LINE
8
BLACK
6
CONTINUOUS
10
5.84948
20
-3.66188
11
5.84629
21
-3.66401
0
LINE
8
BLACK
6
CONTINUOUS
10
5.84629
20
-3.66401
11
5.84252
21
-3.66476
0
LINE
8
BLACK
6
CONTINUOUS
10
5.84252
20
-3.66476
11
5.82283
21
-3.66476
0
LINE
8
BLACK
6
CONTINUOUS
10
5.82283
20
-3.66476
11
5.81907
21
-3.66401
0
LINE
8
BLACK
6
CONTINUOUS
10
5.81907
20
-3.66401
11
5.81587
21
-3.66188
0
LINE
8
BLACK
6
CONTINUOUS
10
5.81587
20
-3.66188
11
5.81374
21
-3.65869
0
LINE
8
BLACK
6
CONTINUOUS
10
5.81374
20
-3.65869
11
5.81299
21
-3.65492
0
LINE
8
BLACK
6
CONTINUOUS
10
5.81299
20
-3.65492
11
5.81299
21
-3.61752
0
LINE
8
BLACK
6
CONTINUOUS
10
5.81299
20
-3.61752
11
5.81374
21
-3.61375
0
LINE
8
BLACK
6
CONTINUOUS
10
5.81374
20
-3.61375
11
5.81587
21
-3.61056
0
LINE
8
BLACK
6
CONTINUOUS
10
5.81587
20
-3.61056
11
5.81907
21
-3.60843
0
LINE
8
BLACK
6
CONTINUOUS
10
5.81907
20
-3.60843
11
5.82283
21
-3.60768
0
LINE
8
BLACK
6
CONTINUOUS
10
5.82283
20
-3.60768
11
5.84252
21
-3.60768
0
LINE
8
BLACK
6
CONTINUOUS
10
5.84252
20
-3.60768
11
5.84629
21
-3.60843
0
LINE
8
BLACK
6
CONTINUOUS
10
5.92109
20
-3.60843
11
5.92428
21
-3.61056
0
LINE
8
BLACK
6
CONTINUOUS
10
5.92428
20
-3.61056
11
5.92642
21
-3.61375
0
LINE
8
BLACK
6
CONTINUOUS
10
5.92642
20
-3.61375
11
5.92717
21
-3.61752
0
LINE
8
BLACK
6
CONTINUOUS
10
5.92717
20
-3.61752
11
5.92717
21
-3.65492
0
LINE
8
BLACK
6
CONTINUOUS
10
5.92717
20
-3.65492
11
5.92642
21
-3.65869
0
LINE
8
BLACK
6
CONTINUOUS
10
5.92642
20
-3.65869
11
5.92428
21
-3.66188
0
LINE
8
BLACK
6
CONTINUOUS
10
5.92428
20
-3.66188
11
5.92109
21
-3.66401
0
LINE
8
BLACK
6
CONTINUOUS
10
5.92109
20
-3.66401
11
5.91732
21
-3.66476
0
LINE
8
BLACK
6
CONTINUOUS
10
5.91732
20
-3.66476
11
5.89764
21
-3.66476
0
LINE
8
BLACK
6
CONTINUOUS
10
5.89764
20
-3.66476
11
5.89387
21
-3.66401
0
LINE
8
BLACK
6
CONTINUOUS
10
5.89387
20
-3.66401
11
5.89068
21
-3.66188
0
LINE
8
BLACK
6
CONTINUOUS
10
5.89068
20
-3.66188
11
5.88854
21
-3.65869
0
LINE
8
BLACK
6
CONTINUOUS
10
5.88854
20
-3.65869
11
5.8878
21
-3.65492
0
LINE
8
BLACK
6
CONTINUOUS
10
5.8878
20
-3.65492
11
5.8878
21
-3.61752
0
LINE
8
BLACK
6
CONTINUOUS
10
5.8878
20
-3.61752
11
5.88854
21
-3.61375
0
LINE
8
BLACK
6
CONTINUOUS
10
5.88854
20
-3.61375
11
5.89068
21
-3.61056
0
LINE
8
BLACK
6
CONTINUOUS
10
5.89068
20
-3.61056
11
5.89387
21
-3.60843
0
LINE
8
BLACK
6
CONTINUOUS
10
5.89387
20
-3.60843
11
5.89764
21
-3.60768
0
LINE
8
BLACK
6
CONTINUOUS
10
5.89764
20
-3.60768
11
5.91732
21
-3.60768
0
LINE
8
BLACK
6
CONTINUOUS
10
5.91732
20
-3.60768
11
5.92109
21
-3.60843
  0
ENDSEC
  0
EOF
