  0
SECTION
  2
HEADER
  9
$ANGBASE
  50
0.0
  9
$ANGDIR
  70
1
  9
$MEASUREMENT
  70
0
  0
ENDSEC
  0
SECTION
  2
TABLES
  0
TABLE
  2
LTYPE
  70
4
  0
LTYPE
  5
40F
  2
CONTINUOUS
  70
0
  3
Solid line
  72
65
  73
0
  40
0.0
  0
LTYPE
  5
410
  2
DASHDOT
 70
0
  3
Dash Dot ____ _ ____ _
 72
65
 73
4
 40
2.0
 49
1.25
 49
-0.25
 49
0.25
 49
-0.25
  0
LTYPE
  5
411
  2
DASHED
 70
0
  3
Dashed __ __ __ __ __
 72
65
 73
2
 40
0.75
 49
0.5
 49
-0.25
  0
LTYPE
  5
43B
  2
DOTTED
 70
0
  3
Dotted .  .  .  .
 72
65
 73
2
 40
0.2
 49
0.0
 49
-0.2
  0
ENDTAB
  0
TABLE
  2
STYLE
  70
4
  0
STYLE
  2
KICAD
  70
0
  40
0
  41
1
  42
1
  50
0
  71
0
  3
isocp.shx
  0
STYLE
  2
KICADB
  70
0
  40
0
  41
1
  42
1
  50
0
  71
0
  3
isocp.shx
  0
STYLE
  2
KICADI
  70
0
  40
0
  41
1
  42
1
  50
15
  71
0
  3
isocp.shx
  0
STYLE
  2
KICADBI
  70
0
  40
0
  41
1
  42
1
  50
15
  71
0
  3
isocp.shx
  0
ENDTAB
  0
TABLE
  2
LAYER
  70
1
  0
LAYER
  2
BLACK
  70
0
  62
7
  6
CONTINUOUS
  0
ENDTAB
  0
ENDSEC
  0
SECTION
  2
ENTITIES
0
LINE
8
BLACK
6
CONTINUOUS
10
4.18867
20
-5.12314
11
4.18839
21
-5.12244
0
LINE
8
BLACK
6
CONTINUOUS
10
4.18839
20
-5.12244
11
4.18839
21
-4.90591
0
LINE
8
BLACK
6
CONTINUOUS
10
4.18839
20
-4.90591
11
4.18867
21
-4.90521
0
LINE
8
BLACK
6
CONTINUOUS
10
4.18867
20
-4.90521
11
4.18937
21
-4.90492
0
LINE
8
BLACK
6
CONTINUOUS
10
4.18937
20
-4.90492
11
4.8626
21
-4.90492
0
LINE
8
BLACK
6
CONTINUOUS
10
4.8626
20
-4.90492
11
4.86329
21
-4.90521
0
LINE
8
BLACK
6
CONTINUOUS
10
4.86329
20
-4.90521
11
4.86358
21
-4.90591
0
LINE
8
BLACK
6
CONTINUOUS
10
4.86358
20
-4.90591
11
4.86358
21
-5.12244
0
LINE
8
BLACK
6
CONTINUOUS
10
4.86358
20
-5.12244
11
4.86329
21
-5.12314
0
LINE
8
BLACK
6
CONTINUOUS
10
4.86329
20
-5.12314
11
4.8626
21
-5.12343
0
LINE
8
BLACK
6
CONTINUOUS
10
4.8626
20
-5.12343
11
4.18937
21
-5.12343
0
LINE
8
BLACK
6
CONTINUOUS
10
4.18937
20
-5.12343
11
4.18867
21
-5.12314
0
LINE
8
BLACK
6
CONTINUOUS
10
4.19035
20
-4.90689
11
4.19035
21
-5.12146
0
LINE
8
BLACK
6
CONTINUOUS
10
4.19035
20
-5.12146
11
4.86161
21
-5.12146
0
LINE
8
BLACK
6
CONTINUOUS
10
4.86161
20
-5.12146
11
4.86161
21
-4.90689
0
LINE
8
BLACK
6
CONTINUOUS
10
4.86161
20
-4.90689
11
4.19035
21
-4.90689
0
LINE
8
BLACK
6
CONTINUOUS
10
5.13513
20
-5.12314
11
5.13484
21
-5.12244
0
LINE
8
BLACK
6
CONTINUOUS
10
5.13484
20
-5.12244
11
5.13484
21
-4.90591
0
LINE
8
BLACK
6
CONTINUOUS
10
5.13484
20
-4.90591
11
5.13513
21
-4.90521
0
LINE
8
BLACK
6
CONTINUOUS
10
5.13513
20
-4.90521
11
5.13583
21
-4.90492
0
LINE
8
BLACK
6
CONTINUOUS
10
5.13583
20
-4.90492
11
5.80906
21
-4.90492
0
LINE
8
BLACK
6
CONTINUOUS
10
5.80906
20
-4.90492
11
5.80975
21
-4.90521
0
LINE
8
BLACK
6
CONTINUOUS
10
5.80975
20
-4.90521
11
5.81004
21
-4.90591
0
LINE
8
BLACK
6
CONTINUOUS
10
5.81004
20
-4.90591
11
5.81004
21
-5.12244
0
LINE
8
BLACK
6
CONTINUOUS
10
5.81004
20
-5.12244
11
5.80975
21
-5.12314
0
LINE
8
BLACK
6
CONTINUOUS
10
5.80975
20
-5.12314
11
5.80906
21
-5.12343
0
LINE
8
BLACK
6
CONTINUOUS
10
5.80906
20
-5.12343
11
5.13583
21
-5.12343
0
LINE
8
BLACK
6
CONTINUOUS
10
5.13583
20
-5.12343
11
5.13513
21
-5.12314
0
LINE
8
BLACK
6
CONTINUOUS
10
5.13681
20
-4.90689
11
5.13681
21
-5.12146
0
LINE
8
BLACK
6
CONTINUOUS
10
5.13681
20
-5.12146
11
5.80807
21
-5.12146
0
LINE
8
BLACK
6
CONTINUOUS
10
5.80807
20
-5.12146
11
5.80807
21
-4.90689
0
LINE
8
BLACK
6
CONTINUOUS
10
5.80807
20
-4.90689
11
5.13681
21
-4.90689
0
LINE
8
BLACK
6
CONTINUOUS
10
4.66269
20
-4.85739
11
4.6624
21
-4.85669
0
LINE
8
BLACK
6
CONTINUOUS
10
4.6624
20
-4.85669
11
4.6624
21
-4.64016
0
LINE
8
BLACK
6
CONTINUOUS
10
4.6624
20
-4.64016
11
4.66269
21
-4.63946
0
LINE
8
BLACK
6
CONTINUOUS
10
4.66269
20
-4.63946
11
4.66339
21
-4.63917
0
LINE
8
BLACK
6
CONTINUOUS
10
4.66339
20
-4.63917
11
5.33661
21
-4.63917
0
LINE
8
BLACK
6
CONTINUOUS
10
5.33661
20
-4.63917
11
5.33731
21
-4.63946
0
LINE
8
BLACK
6
CONTINUOUS
10
5.33731
20
-4.63946
11
5.3376
21
-4.64016
0
LINE
8
BLACK
6
CONTINUOUS
10
5.3376
20
-4.64016
11
5.3376
21
-4.85669
0
LINE
8
BLACK
6
CONTINUOUS
10
5.3376
20
-4.85669
11
5.33731
21
-4.85739
0
LINE
8
BLACK
6
CONTINUOUS
10
5.33731
20
-4.85739
11
5.33661
21
-4.85768
0
LINE
8
BLACK
6
CONTINUOUS
10
5.33661
20
-4.85768
11
4.66339
21
-4.85768
0
LINE
8
BLACK
6
CONTINUOUS
10
4.66339
20
-4.85768
11
4.66269
21
-4.85739
0
LINE
8
BLACK
6
CONTINUOUS
10
4.66437
20
-4.64114
11
4.66437
21
-4.85571
0
LINE
8
BLACK
6
CONTINUOUS
10
4.66437
20
-4.85571
11
5.33563
21
-4.85571
0
LINE
8
BLACK
6
CONTINUOUS
10
5.33563
20
-4.85571
11
5.33563
21
-4.64114
0
LINE
8
BLACK
6
CONTINUOUS
10
5.33563
20
-4.64114
11
4.66437
21
-4.64114
0
LINE
8
BLACK
6
CONTINUOUS
10
5.42486
20
-4.79192
11
5.42457
21
-4.79122
0
LINE
8
BLACK
6
CONTINUOUS
10
5.42457
20
-4.79122
11
5.42457
21
-3.53122
0
LINE
8
BLACK
6
CONTINUOUS
10
5.42457
20
-3.53122
11
5.42486
21
-3.53052
0
LINE
8
BLACK
6
CONTINUOUS
10
5.42486
20
-3.53052
11
5.42555
21
-3.53024
0
LINE
8
BLACK
6
CONTINUOUS
10
5.42555
20
-3.53024
11
5.75555
21
-3.53024
0
LINE
8
BLACK
6
CONTINUOUS
10
5.75555
20
-3.53024
11
5.75625
21
-3.53052
0
LINE
8
BLACK
6
CONTINUOUS
10
5.75625
20
-3.53052
11
5.75654
21
-3.53122
0
LINE
8
BLACK
6
CONTINUOUS
10
5.75654
20
-3.53122
11
5.75654
21
-4.79122
0
LINE
8
BLACK
6
CONTINUOUS
10
5.75654
20
-4.79122
11
5.75625
21
-4.79192
0
LINE
8
BLACK
6
CONTINUOUS
10
5.75625
20
-4.79192
11
5.75555
21
-4.7922
0
LINE
8
BLACK
6
CONTINUOUS
10
5.75555
20
-4.7922
11
5.42555
21
-4.7922
0
LINE
8
BLACK
6
CONTINUOUS
10
5.42555
20
-4.7922
11
5.42486
21
-4.79192
0
LINE
8
BLACK
6
CONTINUOUS
10
5.42654
20
-3.5322
11
5.42654
21
-4.79024
0
LINE
8
BLACK
6
CONTINUOUS
10
5.42654
20
-4.79024
11
5.75457
21
-4.79024
0
LINE
8
BLACK
6
CONTINUOUS
10
5.75457
20
-4.79024
11
5.75457
21
-3.5322
0
LINE
8
BLACK
6
CONTINUOUS
10
5.75457
20
-3.5322
11
5.42654
21
-3.5322
0
LINE
8
BLACK
6
CONTINUOUS
10
4.24375
20
-4.79192
11
4.24346
21
-4.79122
0
LINE
8
BLACK
6
CONTINUOUS
10
4.24346
20
-4.79122
11
4.24346
21
-3.53122
0
LINE
8
BLACK
6
CONTINUOUS
10
4.24346
20
-3.53122
11
4.24375
21
-3.53052
0
LINE
8
BLACK
6
CONTINUOUS
10
4.24375
20
-3.53052
11
4.24445
21
-3.53024
0
LINE
8
BLACK
6
CONTINUOUS
10
4.24445
20
-3.53024
11
4.57445
21
-3.53024
0
LINE
8
BLACK
6
CONTINUOUS
10
4.57445
20
-3.53024
11
4.57514
21
-3.53052
0
LINE
8
BLACK
6
CONTINUOUS
10
4.57514
20
-3.53052
11
4.57543
21
-3.53122
0
LINE
8
BLACK
6
CONTINUOUS
10
4.57543
20
-3.53122
11
4.57543
21
-4.79122
0
LINE
8
BLACK
6
CONTINUOUS
10
4.57543
20
-4.79122
11
4.57514
21
-4.79192
0
LINE
8
BLACK
6
CONTINUOUS
10
4.57514
20
-4.79192
11
4.57445
21
-4.7922
0
LINE
8
BLACK
6
CONTINUOUS
10
4.57445
20
-4.7922
11
4.24445
21
-4.7922
0
LINE
8
BLACK
6
CONTINUOUS
10
4.24445
20
-4.7922
11
4.24375
21
-4.79192
0
LINE
8
BLACK
6
CONTINUOUS
10
4.24543
20
-3.5322
11
4.24543
21
-4.79024
0
LINE
8
BLACK
6
CONTINUOUS
10
4.24543
20
-4.79024
11
4.57346
21
-4.79024
0
LINE
8
BLACK
6
CONTINUOUS
10
4.57346
20
-4.79024
11
4.57346
21
-3.5322
0
LINE
8
BLACK
6
CONTINUOUS
10
4.57346
20
-3.5322
11
4.24543
21
-3.5322
  0
ENDSEC
  0
EOF
