  0
SECTION
  2
HEADER
  9
$ANGBASE
  50
0.0
  9
$ANGDIR
  70
1
  9
$MEASUREMENT
  70
0
  0
ENDSEC
  0
SECTION
  2
TABLES
  0
TABLE
  2
LTYPE
  70
4
  0
LTYPE
  5
40F
  2
CONTINUOUS
  70
0
  3
Solid line
  72
65
  73
0
  40
0.0
  0
LTYPE
  5
410
  2
DASHDOT
 70
0
  3
Dash Dot ____ _ ____ _
 72
65
 73
4
 40
2.0
 49
1.25
 49
-0.25
 49
0.25
 49
-0.25
  0
LTYPE
  5
411
  2
DASHED
 70
0
  3
Dashed __ __ __ __ __
 72
65
 73
2
 40
0.75
 49
0.5
 49
-0.25
  0
LTYPE
  5
43B
  2
DOTTED
 70
0
  3
Dotted .  .  .  .
 72
65
 73
2
 40
0.2
 49
0.0
 49
-0.2
  0
ENDTAB
  0
TABLE
  2
STYLE
  70
4
  0
STYLE
  2
KICAD
  70
0
  40
0
  41
1
  42
1
  50
0
  71
0
  3
isocp.shx
  0
STYLE
  2
KICADB
  70
0
  40
0
  41
1
  42
1
  50
0
  71
0
  3
isocp.shx
  0
STYLE
  2
KICADI
  70
0
  40
0
  41
1
  42
1
  50
15
  71
0
  3
isocp.shx
  0
STYLE
  2
KICADBI
  70
0
  40
0
  41
1
  42
1
  50
15
  71
0
  3
isocp.shx
  0
ENDTAB
  0
TABLE
  2
LAYER
  70
1
  0
LAYER
  2
BLACK
  70
0
  62
7
  6
CONTINUOUS
  0
ENDTAB
  0
ENDSEC
  0
SECTION
  2
ENTITIES
0
LINE
8
BLACK
6
CONTINUOUS
10
6.01492
20
-4.8749
11
6.02877
21
-4.87734
0
LINE
8
BLACK
6
CONTINUOUS
10
6.02877
20
-4.87734
11
6.04226
21
-4.88132
0
LINE
8
BLACK
6
CONTINUOUS
10
6.04226
20
-4.88132
11
6.05523
21
-4.88677
0
LINE
8
BLACK
6
CONTINUOUS
10
6.05523
20
-4.88677
11
6.06751
21
-4.89363
0
LINE
8
BLACK
6
CONTINUOUS
10
6.06751
20
-4.89363
11
6.07894
21
-4.90182
0
LINE
8
BLACK
6
CONTINUOUS
10
6.07894
20
-4.90182
11
6.08939
21
-4.91123
0
LINE
8
BLACK
6
CONTINUOUS
10
6.08939
20
-4.91123
11
6.09873
21
-4.92175
0
LINE
8
BLACK
6
CONTINUOUS
10
6.09873
20
-4.92175
11
6.10684
21
-4.93324
0
LINE
8
BLACK
6
CONTINUOUS
10
6.10684
20
-4.93324
11
6.11362
21
-4.94556
0
LINE
8
BLACK
6
CONTINUOUS
10
6.11362
20
-4.94556
11
6.11898
21
-4.95857
0
LINE
8
BLACK
6
CONTINUOUS
10
6.11898
20
-4.95857
11
6.12285
21
-4.97209
0
LINE
8
BLACK
6
CONTINUOUS
10
6.12285
20
-4.97209
11
6.1252
21
-4.98596
0
LINE
8
BLACK
6
CONTINUOUS
10
6.1252
20
-4.98596
11
6.12598
21
-5
0
LINE
8
BLACK
6
CONTINUOUS
10
6.12598
20
-5
11
6.12594
21
-5.00352
0
LINE
8
BLACK
6
CONTINUOUS
10
6.12594
20
-5.00352
11
6.12476
21
-5.01753
0
LINE
8
BLACK
6
CONTINUOUS
10
6.12476
20
-5.01753
11
6.12203
21
-5.03133
0
LINE
8
BLACK
6
CONTINUOUS
10
6.12203
20
-5.03133
11
6.11777
21
-5.04474
0
LINE
8
BLACK
6
CONTINUOUS
10
6.11777
20
-5.04474
11
6.11205
21
-5.05759
0
LINE
8
BLACK
6
CONTINUOUS
10
6.11205
20
-5.05759
11
6.10493
21
-5.06972
0
LINE
8
BLACK
6
CONTINUOUS
10
6.10493
20
-5.06972
11
6.09651
21
-5.08098
0
LINE
8
BLACK
6
CONTINUOUS
10
6.09651
20
-5.08098
11
6.08688
21
-5.09123
0
LINE
8
BLACK
6
CONTINUOUS
10
6.08688
20
-5.09123
11
6.07617
21
-5.10035
0
LINE
8
BLACK
6
CONTINUOUS
10
6.07617
20
-5.10035
11
6.06451
21
-5.10822
0
LINE
8
BLACK
6
CONTINUOUS
10
6.06451
20
-5.10822
11
6.05204
21
-5.11473
0
LINE
8
BLACK
6
CONTINUOUS
10
6.05204
20
-5.11473
11
6.03893
21
-5.11982
0
LINE
8
BLACK
6
CONTINUOUS
10
6.03893
20
-5.11982
11
6.02533
21
-5.12341
0
LINE
8
BLACK
6
CONTINUOUS
10
6.02533
20
-5.12341
11
6.01142
21
-5.12547
0
LINE
8
BLACK
6
CONTINUOUS
10
6.01142
20
-5.12547
11
5.99736
21
-5.12596
0
LINE
8
BLACK
6
CONTINUOUS
10
5.99736
20
-5.12596
11
5.98334
21
-5.12488
0
LINE
8
BLACK
6
CONTINUOUS
10
5.98334
20
-5.12488
11
5.96952
21
-5.12224
0
LINE
8
BLACK
6
CONTINUOUS
10
5.96952
20
-5.12224
11
5.95609
21
-5.11808
0
LINE
8
BLACK
6
CONTINUOUS
10
5.95609
20
-5.11808
11
5.9432
21
-5.11245
0
LINE
8
BLACK
6
CONTINUOUS
10
5.9432
20
-5.11245
11
5.93102
21
-5.10542
0
LINE
8
BLACK
6
CONTINUOUS
10
5.93102
20
-5.10542
11
5.91969
21
-5.09707
0
LINE
8
BLACK
6
CONTINUOUS
10
5.91969
20
-5.09707
11
5.90937
21
-5.08752
0
LINE
8
BLACK
6
CONTINUOUS
10
5.90937
20
-5.08752
11
5.90018
21
-5.07687
0
LINE
8
BLACK
6
CONTINUOUS
10
5.90018
20
-5.07687
11
5.89224
21
-5.06526
0
LINE
8
BLACK
6
CONTINUOUS
10
5.89224
20
-5.06526
11
5.88563
21
-5.05284
0
LINE
8
BLACK
6
CONTINUOUS
10
5.88563
20
-5.05284
11
5.88046
21
-5.03977
0
LINE
8
BLACK
6
CONTINUOUS
10
5.88046
20
-5.03977
11
5.87677
21
-5.02619
0
LINE
8
BLACK
6
CONTINUOUS
10
5.87677
20
-5.02619
11
5.87462
21
-5.01229
0
LINE
8
BLACK
6
CONTINUOUS
10
5.87462
20
-5.01229
11
5.87403
21
-4.99824
0
LINE
8
BLACK
6
CONTINUOUS
10
5.87403
20
-4.99824
11
5.87501
21
-4.98421
0
LINE
8
BLACK
6
CONTINUOUS
10
5.87501
20
-4.98421
11
5.87755
21
-4.97038
0
LINE
8
BLACK
6
CONTINUOUS
10
5.87755
20
-4.97038
11
5.88161
21
-4.95691
0
LINE
8
BLACK
6
CONTINUOUS
10
5.88161
20
-4.95691
11
5.88715
21
-4.94398
0
LINE
8
BLACK
6
CONTINUOUS
10
5.88715
20
-4.94398
11
5.8941
21
-4.93175
0
LINE
8
BLACK
6
CONTINUOUS
10
5.8941
20
-4.93175
11
5.90237
21
-4.92037
0
LINE
8
BLACK
6
CONTINUOUS
10
5.90237
20
-4.92037
11
5.91185
21
-4.90999
0
LINE
8
BLACK
6
CONTINUOUS
10
5.91185
20
-4.90999
11
5.92244
21
-4.90072
0
LINE
8
BLACK
6
CONTINUOUS
10
5.92244
20
-4.90072
11
5.93399
21
-4.8927
0
LINE
8
BLACK
6
CONTINUOUS
10
5.93399
20
-4.8927
11
5.94636
21
-4.88601
0
LINE
8
BLACK
6
CONTINUOUS
10
5.94636
20
-4.88601
11
5.9594
21
-4.88074
0
LINE
8
BLACK
6
CONTINUOUS
10
5.9594
20
-4.88074
11
5.97295
21
-4.87695
0
LINE
8
BLACK
6
CONTINUOUS
10
5.97295
20
-4.87695
11
5.98683
21
-4.87471
0
LINE
8
BLACK
6
CONTINUOUS
10
5.98683
20
-4.87471
11
6.00088
21
-4.87402
0
LINE
8
BLACK
6
CONTINUOUS
10
6.00088
20
-4.87402
11
6.01492
21
-4.8749
0
LINE
8
BLACK
6
CONTINUOUS
10
4.01492
20
-4.8749
11
4.02877
21
-4.87734
0
LINE
8
BLACK
6
CONTINUOUS
10
4.02877
20
-4.87734
11
4.04226
21
-4.88132
0
LINE
8
BLACK
6
CONTINUOUS
10
4.04226
20
-4.88132
11
4.05523
21
-4.88677
0
LINE
8
BLACK
6
CONTINUOUS
10
4.05523
20
-4.88677
11
4.06751
21
-4.89363
0
LINE
8
BLACK
6
CONTINUOUS
10
4.06751
20
-4.89363
11
4.07894
21
-4.90182
0
LINE
8
BLACK
6
CONTINUOUS
10
4.07894
20
-4.90182
11
4.08939
21
-4.91123
0
LINE
8
BLACK
6
CONTINUOUS
10
4.08939
20
-4.91123
11
4.09873
21
-4.92175
0
LINE
8
BLACK
6
CONTINUOUS
10
4.09873
20
-4.92175
11
4.10684
21
-4.93324
0
LINE
8
BLACK
6
CONTINUOUS
10
4.10684
20
-4.93324
11
4.11362
21
-4.94556
0
LINE
8
BLACK
6
CONTINUOUS
10
4.11362
20
-4.94556
11
4.11898
21
-4.95857
0
LINE
8
BLACK
6
CONTINUOUS
10
4.11898
20
-4.95857
11
4.12285
21
-4.97209
0
LINE
8
BLACK
6
CONTINUOUS
10
4.12285
20
-4.97209
11
4.1252
21
-4.98596
0
LINE
8
BLACK
6
CONTINUOUS
10
4.1252
20
-4.98596
11
4.12598
21
-5
0
LINE
8
BLACK
6
CONTINUOUS
10
4.12598
20
-5
11
4.12594
21
-5.00352
0
LINE
8
BLACK
6
CONTINUOUS
10
4.12594
20
-5.00352
11
4.12476
21
-5.01753
0
LINE
8
BLACK
6
CONTINUOUS
10
4.12476
20
-5.01753
11
4.12203
21
-5.03133
0
LINE
8
BLACK
6
CONTINUOUS
10
4.12203
20
-5.03133
11
4.11777
21
-5.04474
0
LINE
8
BLACK
6
CONTINUOUS
10
4.11777
20
-5.04474
11
4.11205
21
-5.05759
0
LINE
8
BLACK
6
CONTINUOUS
10
4.11205
20
-5.05759
11
4.10493
21
-5.06972
0
LINE
8
BLACK
6
CONTINUOUS
10
4.10493
20
-5.06972
11
4.09651
21
-5.08098
0
LINE
8
BLACK
6
CONTINUOUS
10
4.09651
20
-5.08098
11
4.08688
21
-5.09123
0
LINE
8
BLACK
6
CONTINUOUS
10
4.08688
20
-5.09123
11
4.07617
21
-5.10035
0
LINE
8
BLACK
6
CONTINUOUS
10
4.07617
20
-5.10035
11
4.06451
21
-5.10822
0
LINE
8
BLACK
6
CONTINUOUS
10
4.06451
20
-5.10822
11
4.05204
21
-5.11473
0
LINE
8
BLACK
6
CONTINUOUS
10
4.05204
20
-5.11473
11
4.03893
21
-5.11982
0
LINE
8
BLACK
6
CONTINUOUS
10
4.03893
20
-5.11982
11
4.02533
21
-5.12341
0
LINE
8
BLACK
6
CONTINUOUS
10
4.02533
20
-5.12341
11
4.01142
21
-5.12547
0
LINE
8
BLACK
6
CONTINUOUS
10
4.01142
20
-5.12547
11
3.99736
21
-5.12596
0
LINE
8
BLACK
6
CONTINUOUS
10
3.99736
20
-5.12596
11
3.98334
21
-5.12488
0
LINE
8
BLACK
6
CONTINUOUS
10
3.98334
20
-5.12488
11
3.96952
21
-5.12224
0
LINE
8
BLACK
6
CONTINUOUS
10
3.96952
20
-5.12224
11
3.95609
21
-5.11808
0
LINE
8
BLACK
6
CONTINUOUS
10
3.95609
20
-5.11808
11
3.9432
21
-5.11245
0
LINE
8
BLACK
6
CONTINUOUS
10
3.9432
20
-5.11245
11
3.93102
21
-5.10542
0
LINE
8
BLACK
6
CONTINUOUS
10
3.93102
20
-5.10542
11
3.91969
21
-5.09707
0
LINE
8
BLACK
6
CONTINUOUS
10
3.91969
20
-5.09707
11
3.90937
21
-5.08752
0
LINE
8
BLACK
6
CONTINUOUS
10
3.90937
20
-5.08752
11
3.90018
21
-5.07687
0
LINE
8
BLACK
6
CONTINUOUS
10
3.90018
20
-5.07687
11
3.89224
21
-5.06526
0
LINE
8
BLACK
6
CONTINUOUS
10
3.89224
20
-5.06526
11
3.88563
21
-5.05284
0
LINE
8
BLACK
6
CONTINUOUS
10
3.88563
20
-5.05284
11
3.88046
21
-5.03977
0
LINE
8
BLACK
6
CONTINUOUS
10
3.88046
20
-5.03977
11
3.87677
21
-5.02619
0
LINE
8
BLACK
6
CONTINUOUS
10
3.87677
20
-5.02619
11
3.87462
21
-5.01229
0
LINE
8
BLACK
6
CONTINUOUS
10
3.87462
20
-5.01229
11
3.87403
21
-4.99824
0
LINE
8
BLACK
6
CONTINUOUS
10
3.87403
20
-4.99824
11
3.87501
21
-4.98421
0
LINE
8
BLACK
6
CONTINUOUS
10
3.87501
20
-4.98421
11
3.87755
21
-4.97038
0
LINE
8
BLACK
6
CONTINUOUS
10
3.87755
20
-4.97038
11
3.88161
21
-4.95691
0
LINE
8
BLACK
6
CONTINUOUS
10
3.88161
20
-4.95691
11
3.88715
21
-4.94398
0
LINE
8
BLACK
6
CONTINUOUS
10
3.88715
20
-4.94398
11
3.8941
21
-4.93175
0
LINE
8
BLACK
6
CONTINUOUS
10
3.8941
20
-4.93175
11
3.90237
21
-4.92037
0
LINE
8
BLACK
6
CONTINUOUS
10
3.90237
20
-4.92037
11
3.91185
21
-4.90999
0
LINE
8
BLACK
6
CONTINUOUS
10
3.91185
20
-4.90999
11
3.92244
21
-4.90072
0
LINE
8
BLACK
6
CONTINUOUS
10
3.92244
20
-4.90072
11
3.93399
21
-4.8927
0
LINE
8
BLACK
6
CONTINUOUS
10
3.93399
20
-4.8927
11
3.94636
21
-4.88601
0
LINE
8
BLACK
6
CONTINUOUS
10
3.94636
20
-4.88601
11
3.9594
21
-4.88074
0
LINE
8
BLACK
6
CONTINUOUS
10
3.9594
20
-4.88074
11
3.97295
21
-4.87695
0
LINE
8
BLACK
6
CONTINUOUS
10
3.97295
20
-4.87695
11
3.98683
21
-4.87471
0
LINE
8
BLACK
6
CONTINUOUS
10
3.98683
20
-4.87471
11
4.00088
21
-4.87402
0
LINE
8
BLACK
6
CONTINUOUS
10
4.00088
20
-4.87402
11
4.01492
21
-4.8749
0
LINE
8
BLACK
6
CONTINUOUS
10
4.68121
20
-5.04023
11
4.68776
21
-5.04221
0
LINE
8
BLACK
6
CONTINUOUS
10
4.68776
20
-5.04221
11
4.69367
21
-5.04565
0
LINE
8
BLACK
6
CONTINUOUS
10
4.69367
20
-5.04565
11
4.69864
21
-5.05035
0
LINE
8
BLACK
6
CONTINUOUS
10
4.69864
20
-5.05035
11
4.70239
21
-5.05607
0
LINE
8
BLACK
6
CONTINUOUS
10
4.70239
20
-5.05607
11
4.70472
21
-5.0625
0
LINE
8
BLACK
6
CONTINUOUS
10
4.70472
20
-5.0625
11
4.70551
21
-5.06929
0
LINE
8
BLACK
6
CONTINUOUS
10
4.70551
20
-5.06929
11
4.70551
21
-5.07717
0
LINE
8
BLACK
6
CONTINUOUS
10
4.70551
20
-5.07717
11
4.70529
21
-5.08082
0
LINE
8
BLACK
6
CONTINUOUS
10
4.70529
20
-5.08082
11
4.70366
21
-5.08746
0
LINE
8
BLACK
6
CONTINUOUS
10
4.70366
20
-5.08746
11
4.70055
21
-5.09355
0
LINE
8
BLACK
6
CONTINUOUS
10
4.70055
20
-5.09355
11
4.69612
21
-5.09876
0
LINE
8
BLACK
6
CONTINUOUS
10
4.69612
20
-5.09876
11
4.69061
21
-5.10281
0
LINE
8
BLACK
6
CONTINUOUS
10
4.69061
20
-5.10281
11
4.68432
21
-5.10549
0
LINE
8
BLACK
6
CONTINUOUS
10
4.68432
20
-5.10549
11
4.67758
21
-5.10665
0
LINE
8
BLACK
6
CONTINUOUS
10
4.67758
20
-5.10665
11
4.67076
21
-5.10623
0
LINE
8
BLACK
6
CONTINUOUS
10
4.67076
20
-5.10623
11
4.66421
21
-5.10424
0
LINE
8
BLACK
6
CONTINUOUS
10
4.66421
20
-5.10424
11
4.6583
21
-5.10081
0
LINE
8
BLACK
6
CONTINUOUS
10
4.6583
20
-5.10081
11
4.65333
21
-5.09611
0
LINE
8
BLACK
6
CONTINUOUS
10
4.65333
20
-5.09611
11
4.64958
21
-5.09039
0
LINE
8
BLACK
6
CONTINUOUS
10
4.64958
20
-5.09039
11
4.64725
21
-5.08396
0
LINE
8
BLACK
6
CONTINUOUS
10
4.64725
20
-5.08396
11
4.64646
21
-5.07717
0
LINE
8
BLACK
6
CONTINUOUS
10
4.64646
20
-5.07717
11
4.64646
21
-5.06929
0
LINE
8
BLACK
6
CONTINUOUS
10
4.64646
20
-5.06929
11
4.64668
21
-5.06564
0
LINE
8
BLACK
6
CONTINUOUS
10
4.64668
20
-5.06564
11
4.64831
21
-5.059
0
LINE
8
BLACK
6
CONTINUOUS
10
4.64831
20
-5.059
11
4.65142
21
-5.05291
0
LINE
8
BLACK
6
CONTINUOUS
10
4.65142
20
-5.05291
11
4.65585
21
-5.0477
0
LINE
8
BLACK
6
CONTINUOUS
10
4.65585
20
-5.0477
11
4.66135
21
-5.04364
0
LINE
8
BLACK
6
CONTINUOUS
10
4.66135
20
-5.04364
11
4.66765
21
-5.04097
0
LINE
8
BLACK
6
CONTINUOUS
10
4.66765
20
-5.04097
11
4.67439
21
-5.03981
0
LINE
8
BLACK
6
CONTINUOUS
10
4.67439
20
-5.03981
11
4.68121
21
-5.04023
0
LINE
8
BLACK
6
CONTINUOUS
10
4.38121
20
-5.04023
11
4.38776
21
-5.04221
0
LINE
8
BLACK
6
CONTINUOUS
10
4.38776
20
-5.04221
11
4.39367
21
-5.04565
0
LINE
8
BLACK
6
CONTINUOUS
10
4.39367
20
-5.04565
11
4.39864
21
-5.05035
0
LINE
8
BLACK
6
CONTINUOUS
10
4.39864
20
-5.05035
11
4.40239
21
-5.05607
0
LINE
8
BLACK
6
CONTINUOUS
10
4.40239
20
-5.05607
11
4.40472
21
-5.0625
0
LINE
8
BLACK
6
CONTINUOUS
10
4.40472
20
-5.0625
11
4.40551
21
-5.06929
0
LINE
8
BLACK
6
CONTINUOUS
10
4.40551
20
-5.06929
11
4.40551
21
-5.07717
0
LINE
8
BLACK
6
CONTINUOUS
10
4.40551
20
-5.07717
11
4.40529
21
-5.08082
0
LINE
8
BLACK
6
CONTINUOUS
10
4.40529
20
-5.08082
11
4.40366
21
-5.08746
0
LINE
8
BLACK
6
CONTINUOUS
10
4.40366
20
-5.08746
11
4.40055
21
-5.09355
0
LINE
8
BLACK
6
CONTINUOUS
10
4.40055
20
-5.09355
11
4.39612
21
-5.09876
0
LINE
8
BLACK
6
CONTINUOUS
10
4.39612
20
-5.09876
11
4.39061
21
-5.10281
0
LINE
8
BLACK
6
CONTINUOUS
10
4.39061
20
-5.10281
11
4.38432
21
-5.10549
0
LINE
8
BLACK
6
CONTINUOUS
10
4.38432
20
-5.10549
11
4.37758
21
-5.10665
0
LINE
8
BLACK
6
CONTINUOUS
10
4.37758
20
-5.10665
11
4.37076
21
-5.10623
0
LINE
8
BLACK
6
CONTINUOUS
10
4.37076
20
-5.10623
11
4.36421
21
-5.10424
0
LINE
8
BLACK
6
CONTINUOUS
10
4.36421
20
-5.10424
11
4.3583
21
-5.10081
0
LINE
8
BLACK
6
CONTINUOUS
10
4.3583
20
-5.10081
11
4.35333
21
-5.09611
0
LINE
8
BLACK
6
CONTINUOUS
10
4.35333
20
-5.09611
11
4.34958
21
-5.09039
0
LINE
8
BLACK
6
CONTINUOUS
10
4.34958
20
-5.09039
11
4.34725
21
-5.08396
0
LINE
8
BLACK
6
CONTINUOUS
10
4.34725
20
-5.08396
11
4.34646
21
-5.07717
0
LINE
8
BLACK
6
CONTINUOUS
10
4.34646
20
-5.07717
11
4.34646
21
-5.06929
0
LINE
8
BLACK
6
CONTINUOUS
10
4.34646
20
-5.06929
11
4.34668
21
-5.06564
0
LINE
8
BLACK
6
CONTINUOUS
10
4.34668
20
-5.06564
11
4.34831
21
-5.059
0
LINE
8
BLACK
6
CONTINUOUS
10
4.34831
20
-5.059
11
4.35142
21
-5.05291
0
LINE
8
BLACK
6
CONTINUOUS
10
4.35142
20
-5.05291
11
4.35585
21
-5.0477
0
LINE
8
BLACK
6
CONTINUOUS
10
4.35585
20
-5.0477
11
4.36135
21
-5.04364
0
LINE
8
BLACK
6
CONTINUOUS
10
4.36135
20
-5.04364
11
4.36765
21
-5.04097
0
LINE
8
BLACK
6
CONTINUOUS
10
4.36765
20
-5.04097
11
4.37439
21
-5.03981
0
LINE
8
BLACK
6
CONTINUOUS
10
4.37439
20
-5.03981
11
4.38121
21
-5.04023
0
LINE
8
BLACK
6
CONTINUOUS
10
5.32767
20
-5.04023
11
5.33422
21
-5.04221
0
LINE
8
BLACK
6
CONTINUOUS
10
5.33422
20
-5.04221
11
5.34013
21
-5.04565
0
LINE
8
BLACK
6
CONTINUOUS
10
5.34013
20
-5.04565
11
5.34509
21
-5.05035
0
LINE
8
BLACK
6
CONTINUOUS
10
5.34509
20
-5.05035
11
5.34884
21
-5.05607
0
LINE
8
BLACK
6
CONTINUOUS
10
5.34884
20
-5.05607
11
5.35118
21
-5.0625
0
LINE
8
BLACK
6
CONTINUOUS
10
5.35118
20
-5.0625
11
5.35197
21
-5.06929
0
LINE
8
BLACK
6
CONTINUOUS
10
5.35197
20
-5.06929
11
5.35197
21
-5.07717
0
LINE
8
BLACK
6
CONTINUOUS
10
5.35197
20
-5.07717
11
5.35174
21
-5.08082
0
LINE
8
BLACK
6
CONTINUOUS
10
5.35174
20
-5.08082
11
5.35012
21
-5.08746
0
LINE
8
BLACK
6
CONTINUOUS
10
5.35012
20
-5.08746
11
5.34701
21
-5.09355
0
LINE
8
BLACK
6
CONTINUOUS
10
5.34701
20
-5.09355
11
5.34258
21
-5.09876
0
LINE
8
BLACK
6
CONTINUOUS
10
5.34258
20
-5.09876
11
5.33707
21
-5.10281
0
LINE
8
BLACK
6
CONTINUOUS
10
5.33707
20
-5.10281
11
5.33078
21
-5.10549
0
LINE
8
BLACK
6
CONTINUOUS
10
5.33078
20
-5.10549
11
5.32404
21
-5.10665
0
LINE
8
BLACK
6
CONTINUOUS
10
5.32404
20
-5.10665
11
5.31721
21
-5.10623
0
LINE
8
BLACK
6
CONTINUOUS
10
5.31721
20
-5.10623
11
5.31067
21
-5.10424
0
LINE
8
BLACK
6
CONTINUOUS
10
5.31067
20
-5.10424
11
5.30475
21
-5.10081
0
LINE
8
BLACK
6
CONTINUOUS
10
5.30475
20
-5.10081
11
5.29979
21
-5.09611
0
LINE
8
BLACK
6
CONTINUOUS
10
5.29979
20
-5.09611
11
5.29604
21
-5.09039
0
LINE
8
BLACK
6
CONTINUOUS
10
5.29604
20
-5.09039
11
5.29371
21
-5.08396
0
LINE
8
BLACK
6
CONTINUOUS
10
5.29371
20
-5.08396
11
5.29291
21
-5.07717
0
LINE
8
BLACK
6
CONTINUOUS
10
5.29291
20
-5.07717
11
5.29291
21
-5.06929
0
LINE
8
BLACK
6
CONTINUOUS
10
5.29291
20
-5.06929
11
5.29314
21
-5.06564
0
LINE
8
BLACK
6
CONTINUOUS
10
5.29314
20
-5.06564
11
5.29477
21
-5.059
0
LINE
8
BLACK
6
CONTINUOUS
10
5.29477
20
-5.059
11
5.29788
21
-5.05291
0
LINE
8
BLACK
6
CONTINUOUS
10
5.29788
20
-5.05291
11
5.3023
21
-5.0477
0
LINE
8
BLACK
6
CONTINUOUS
10
5.3023
20
-5.0477
11
5.30781
21
-5.04364
0
LINE
8
BLACK
6
CONTINUOUS
10
5.30781
20
-5.04364
11
5.3141
21
-5.04097
0
LINE
8
BLACK
6
CONTINUOUS
10
5.3141
20
-5.04097
11
5.32084
21
-5.03981
0
LINE
8
BLACK
6
CONTINUOUS
10
5.32084
20
-5.03981
11
5.32767
21
-5.04023
0
LINE
8
BLACK
6
CONTINUOUS
10
5.47767
20
-5.04023
11
5.48422
21
-5.04221
0
LINE
8
BLACK
6
CONTINUOUS
10
5.48422
20
-5.04221
11
5.49013
21
-5.04565
0
LINE
8
BLACK
6
CONTINUOUS
10
5.49013
20
-5.04565
11
5.49509
21
-5.05035
0
LINE
8
BLACK
6
CONTINUOUS
10
5.49509
20
-5.05035
11
5.49884
21
-5.05607
0
LINE
8
BLACK
6
CONTINUOUS
10
5.49884
20
-5.05607
11
5.50118
21
-5.0625
0
LINE
8
BLACK
6
CONTINUOUS
10
5.50118
20
-5.0625
11
5.50197
21
-5.06929
0
LINE
8
BLACK
6
CONTINUOUS
10
5.50197
20
-5.06929
11
5.50197
21
-5.07717
0
LINE
8
BLACK
6
CONTINUOUS
10
5.50197
20
-5.07717
11
5.50174
21
-5.08082
0
LINE
8
BLACK
6
CONTINUOUS
10
5.50174
20
-5.08082
11
5.50012
21
-5.08746
0
LINE
8
BLACK
6
CONTINUOUS
10
5.50012
20
-5.08746
11
5.49701
21
-5.09355
0
LINE
8
BLACK
6
CONTINUOUS
10
5.49701
20
-5.09355
11
5.49258
21
-5.09876
0
LINE
8
BLACK
6
CONTINUOUS
10
5.49258
20
-5.09876
11
5.48707
21
-5.10281
0
LINE
8
BLACK
6
CONTINUOUS
10
5.48707
20
-5.10281
11
5.48078
21
-5.10549
0
LINE
8
BLACK
6
CONTINUOUS
10
5.48078
20
-5.10549
11
5.47404
21
-5.10665
0
LINE
8
BLACK
6
CONTINUOUS
10
5.47404
20
-5.10665
11
5.46721
21
-5.10623
0
LINE
8
BLACK
6
CONTINUOUS
10
5.46721
20
-5.10623
11
5.46067
21
-5.10424
0
LINE
8
BLACK
6
CONTINUOUS
10
5.46067
20
-5.10424
11
5.45475
21
-5.10081
0
LINE
8
BLACK
6
CONTINUOUS
10
5.45475
20
-5.10081
11
5.44979
21
-5.09611
0
LINE
8
BLACK
6
CONTINUOUS
10
5.44979
20
-5.09611
11
5.44604
21
-5.09039
0
LINE
8
BLACK
6
CONTINUOUS
10
5.44604
20
-5.09039
11
5.44371
21
-5.08396
0
LINE
8
BLACK
6
CONTINUOUS
10
5.44371
20
-5.08396
11
5.44291
21
-5.07717
0
LINE
8
BLACK
6
CONTINUOUS
10
5.44291
20
-5.07717
11
5.44291
21
-5.06929
0
LINE
8
BLACK
6
CONTINUOUS
10
5.44291
20
-5.06929
11
5.44314
21
-5.06564
0
LINE
8
BLACK
6
CONTINUOUS
10
5.44314
20
-5.06564
11
5.44477
21
-5.059
0
LINE
8
BLACK
6
CONTINUOUS
10
5.44477
20
-5.059
11
5.44788
21
-5.05291
0
LINE
8
BLACK
6
CONTINUOUS
10
5.44788
20
-5.05291
11
5.4523
21
-5.0477
0
LINE
8
BLACK
6
CONTINUOUS
10
5.4523
20
-5.0477
11
5.45781
21
-5.04364
0
LINE
8
BLACK
6
CONTINUOUS
10
5.45781
20
-5.04364
11
5.4641
21
-5.04097
0
LINE
8
BLACK
6
CONTINUOUS
10
5.4641
20
-5.04097
11
5.47084
21
-5.03981
0
LINE
8
BLACK
6
CONTINUOUS
10
5.47084
20
-5.03981
11
5.47767
21
-5.04023
0
LINE
8
BLACK
6
CONTINUOUS
10
5.62767
20
-5.04023
11
5.63422
21
-5.04221
0
LINE
8
BLACK
6
CONTINUOUS
10
5.63422
20
-5.04221
11
5.64013
21
-5.04565
0
LINE
8
BLACK
6
CONTINUOUS
10
5.64013
20
-5.04565
11
5.64509
21
-5.05035
0
LINE
8
BLACK
6
CONTINUOUS
10
5.64509
20
-5.05035
11
5.64884
21
-5.05607
0
LINE
8
BLACK
6
CONTINUOUS
10
5.64884
20
-5.05607
11
5.65118
21
-5.0625
0
LINE
8
BLACK
6
CONTINUOUS
10
5.65118
20
-5.0625
11
5.65197
21
-5.06929
0
LINE
8
BLACK
6
CONTINUOUS
10
5.65197
20
-5.06929
11
5.65197
21
-5.07717
0
LINE
8
BLACK
6
CONTINUOUS
10
5.65197
20
-5.07717
11
5.65174
21
-5.08082
0
LINE
8
BLACK
6
CONTINUOUS
10
5.65174
20
-5.08082
11
5.65012
21
-5.08746
0
LINE
8
BLACK
6
CONTINUOUS
10
5.65012
20
-5.08746
11
5.64701
21
-5.09355
0
LINE
8
BLACK
6
CONTINUOUS
10
5.64701
20
-5.09355
11
5.64258
21
-5.09876
0
LINE
8
BLACK
6
CONTINUOUS
10
5.64258
20
-5.09876
11
5.63707
21
-5.10281
0
LINE
8
BLACK
6
CONTINUOUS
10
5.63707
20
-5.10281
11
5.63078
21
-5.10549
0
LINE
8
BLACK
6
CONTINUOUS
10
5.63078
20
-5.10549
11
5.62404
21
-5.10665
0
LINE
8
BLACK
6
CONTINUOUS
10
5.62404
20
-5.10665
11
5.61721
21
-5.10623
0
LINE
8
BLACK
6
CONTINUOUS
10
5.61721
20
-5.10623
11
5.61067
21
-5.10424
0
LINE
8
BLACK
6
CONTINUOUS
10
5.61067
20
-5.10424
11
5.60475
21
-5.10081
0
LINE
8
BLACK
6
CONTINUOUS
10
5.60475
20
-5.10081
11
5.59979
21
-5.09611
0
LINE
8
BLACK
6
CONTINUOUS
10
5.59979
20
-5.09611
11
5.59604
21
-5.09039
0
LINE
8
BLACK
6
CONTINUOUS
10
5.59604
20
-5.09039
11
5.59371
21
-5.08396
0
LINE
8
BLACK
6
CONTINUOUS
10
5.59371
20
-5.08396
11
5.59291
21
-5.07717
0
LINE
8
BLACK
6
CONTINUOUS
10
5.59291
20
-5.07717
11
5.59291
21
-5.06929
0
LINE
8
BLACK
6
CONTINUOUS
10
5.59291
20
-5.06929
11
5.59314
21
-5.06564
0
LINE
8
BLACK
6
CONTINUOUS
10
5.59314
20
-5.06564
11
5.59477
21
-5.059
0
LINE
8
BLACK
6
CONTINUOUS
10
5.59477
20
-5.059
11
5.59788
21
-5.05291
0
LINE
8
BLACK
6
CONTINUOUS
10
5.59788
20
-5.05291
11
5.6023
21
-5.0477
0
LINE
8
BLACK
6
CONTINUOUS
10
5.6023
20
-5.0477
11
5.60781
21
-5.04364
0
LINE
8
BLACK
6
CONTINUOUS
10
5.60781
20
-5.04364
11
5.6141
21
-5.04097
0
LINE
8
BLACK
6
CONTINUOUS
10
5.6141
20
-5.04097
11
5.62084
21
-5.03981
0
LINE
8
BLACK
6
CONTINUOUS
10
5.62084
20
-5.03981
11
5.62767
21
-5.04023
0
LINE
8
BLACK
6
CONTINUOUS
10
4.53121
20
-5.04023
11
4.53776
21
-5.04221
0
LINE
8
BLACK
6
CONTINUOUS
10
4.53776
20
-5.04221
11
4.54367
21
-5.04565
0
LINE
8
BLACK
6
CONTINUOUS
10
4.54367
20
-5.04565
11
4.54864
21
-5.05035
0
LINE
8
BLACK
6
CONTINUOUS
10
4.54864
20
-5.05035
11
4.55239
21
-5.05607
0
LINE
8
BLACK
6
CONTINUOUS
10
4.55239
20
-5.05607
11
4.55472
21
-5.0625
0
LINE
8
BLACK
6
CONTINUOUS
10
4.55472
20
-5.0625
11
4.55551
21
-5.06929
0
LINE
8
BLACK
6
CONTINUOUS
10
4.55551
20
-5.06929
11
4.55551
21
-5.07717
0
LINE
8
BLACK
6
CONTINUOUS
10
4.55551
20
-5.07717
11
4.55529
21
-5.08082
0
LINE
8
BLACK
6
CONTINUOUS
10
4.55529
20
-5.08082
11
4.55366
21
-5.08746
0
LINE
8
BLACK
6
CONTINUOUS
10
4.55366
20
-5.08746
11
4.55055
21
-5.09355
0
LINE
8
BLACK
6
CONTINUOUS
10
4.55055
20
-5.09355
11
4.54612
21
-5.09876
0
LINE
8
BLACK
6
CONTINUOUS
10
4.54612
20
-5.09876
11
4.54061
21
-5.10281
0
LINE
8
BLACK
6
CONTINUOUS
10
4.54061
20
-5.10281
11
4.53432
21
-5.10549
0
LINE
8
BLACK
6
CONTINUOUS
10
4.53432
20
-5.10549
11
4.52758
21
-5.10665
0
LINE
8
BLACK
6
CONTINUOUS
10
4.52758
20
-5.10665
11
4.52076
21
-5.10623
0
LINE
8
BLACK
6
CONTINUOUS
10
4.52076
20
-5.10623
11
4.51421
21
-5.10424
0
LINE
8
BLACK
6
CONTINUOUS
10
4.51421
20
-5.10424
11
4.5083
21
-5.10081
0
LINE
8
BLACK
6
CONTINUOUS
10
4.5083
20
-5.10081
11
4.50333
21
-5.09611
0
LINE
8
BLACK
6
CONTINUOUS
10
4.50333
20
-5.09611
11
4.49958
21
-5.09039
0
LINE
8
BLACK
6
CONTINUOUS
10
4.49958
20
-5.09039
11
4.49725
21
-5.08396
0
LINE
8
BLACK
6
CONTINUOUS
10
4.49725
20
-5.08396
11
4.49646
21
-5.07717
0
LINE
8
BLACK
6
CONTINUOUS
10
4.49646
20
-5.07717
11
4.49646
21
-5.06929
0
LINE
8
BLACK
6
CONTINUOUS
10
4.49646
20
-5.06929
11
4.49668
21
-5.06564
0
LINE
8
BLACK
6
CONTINUOUS
10
4.49668
20
-5.06564
11
4.49831
21
-5.059
0
LINE
8
BLACK
6
CONTINUOUS
10
4.49831
20
-5.059
11
4.50142
21
-5.05291
0
LINE
8
BLACK
6
CONTINUOUS
10
4.50142
20
-5.05291
11
4.50585
21
-5.0477
0
LINE
8
BLACK
6
CONTINUOUS
10
4.50585
20
-5.0477
11
4.51135
21
-5.04364
0
LINE
8
BLACK
6
CONTINUOUS
10
4.51135
20
-5.04364
11
4.51765
21
-5.04097
0
LINE
8
BLACK
6
CONTINUOUS
10
4.51765
20
-5.04097
11
4.52439
21
-5.03981
0
LINE
8
BLACK
6
CONTINUOUS
10
4.52439
20
-5.03981
11
4.53121
21
-5.04023
0
LINE
8
BLACK
6
CONTINUOUS
10
4.77821
20
-4.95734
11
4.78742
21
-4.95898
0
LINE
8
BLACK
6
CONTINUOUS
10
4.78742
20
-4.95898
11
4.79624
21
-4.9621
0
LINE
8
BLACK
6
CONTINUOUS
10
4.79624
20
-4.9621
11
4.80443
21
-4.96662
0
LINE
8
BLACK
6
CONTINUOUS
10
4.80443
20
-4.96662
11
4.81177
21
-4.97242
0
LINE
8
BLACK
6
CONTINUOUS
10
4.81177
20
-4.97242
11
4.81806
21
-4.97934
0
LINE
8
BLACK
6
CONTINUOUS
10
4.81806
20
-4.97934
11
4.82315
21
-4.9872
0
LINE
8
BLACK
6
CONTINUOUS
10
4.82315
20
-4.9872
11
4.82688
21
-4.99578
0
LINE
8
BLACK
6
CONTINUOUS
10
4.82688
20
-4.99578
11
4.82915
21
-5.00485
0
LINE
8
BLACK
6
CONTINUOUS
10
4.82915
20
-5.00485
11
4.82992
21
-5.01417
0
LINE
8
BLACK
6
CONTINUOUS
10
4.82992
20
-5.01417
11
4.82985
21
-5.01696
0
LINE
8
BLACK
6
CONTINUOUS
10
4.82985
20
-5.01696
11
4.82863
21
-5.02624
0
LINE
8
BLACK
6
CONTINUOUS
10
4.82863
20
-5.02624
11
4.82591
21
-5.03519
0
LINE
8
BLACK
6
CONTINUOUS
10
4.82591
20
-5.03519
11
4.82177
21
-5.04357
0
LINE
8
BLACK
6
CONTINUOUS
10
4.82177
20
-5.04357
11
4.81631
21
-5.05117
0
LINE
8
BLACK
6
CONTINUOUS
10
4.81631
20
-5.05117
11
4.80968
21
-5.05778
0
LINE
8
BLACK
6
CONTINUOUS
10
4.80968
20
-5.05778
11
4.80207
21
-5.06321
0
LINE
8
BLACK
6
CONTINUOUS
10
4.80207
20
-5.06321
11
4.79366
21
-5.06732
0
LINE
8
BLACK
6
CONTINUOUS
10
4.79366
20
-5.06732
11
4.7847
21
-5.07001
0
LINE
8
BLACK
6
CONTINUOUS
10
4.7847
20
-5.07001
11
4.77542
21
-5.0712
0
LINE
8
BLACK
6
CONTINUOUS
10
4.77542
20
-5.0712
11
4.76608
21
-5.07086
0
LINE
8
BLACK
6
CONTINUOUS
10
4.76608
20
-5.07086
11
4.75691
21
-5.06899
0
LINE
8
BLACK
6
CONTINUOUS
10
4.75691
20
-5.06899
11
4.74817
21
-5.06566
0
LINE
8
BLACK
6
CONTINUOUS
10
4.74817
20
-5.06566
11
4.74009
21
-5.06094
0
LINE
8
BLACK
6
CONTINUOUS
10
4.74009
20
-5.06094
11
4.73289
21
-5.05496
0
LINE
8
BLACK
6
CONTINUOUS
10
4.73289
20
-5.05496
11
4.72677
21
-5.04789
0
LINE
8
BLACK
6
CONTINUOUS
10
4.72677
20
-5.04789
11
4.72188
21
-5.03991
0
LINE
8
BLACK
6
CONTINUOUS
10
4.72188
20
-5.03991
11
4.71836
21
-5.03124
0
LINE
8
BLACK
6
CONTINUOUS
10
4.71836
20
-5.03124
11
4.7163
21
-5.02212
0
LINE
8
BLACK
6
CONTINUOUS
10
4.7163
20
-5.02212
11
4.71577
21
-5.01278
0
LINE
8
BLACK
6
CONTINUOUS
10
4.71577
20
-5.01278
11
4.71676
21
-5.00348
0
LINE
8
BLACK
6
CONTINUOUS
10
4.71676
20
-5.00348
11
4.71926
21
-4.99446
0
LINE
8
BLACK
6
CONTINUOUS
10
4.71926
20
-4.99446
11
4.7232
21
-4.98598
0
LINE
8
BLACK
6
CONTINUOUS
10
4.7232
20
-4.98598
11
4.72847
21
-4.97825
0
LINE
8
BLACK
6
CONTINUOUS
10
4.72847
20
-4.97825
11
4.73493
21
-4.97148
0
LINE
8
BLACK
6
CONTINUOUS
10
4.73493
20
-4.97148
11
4.74241
21
-4.96587
0
LINE
8
BLACK
6
CONTINUOUS
10
4.74241
20
-4.96587
11
4.75071
21
-4.96155
0
LINE
8
BLACK
6
CONTINUOUS
10
4.75071
20
-4.96155
11
4.7596
21
-4.95864
0
LINE
8
BLACK
6
CONTINUOUS
10
4.7596
20
-4.95864
11
4.76885
21
-4.95723
0
LINE
8
BLACK
6
CONTINUOUS
10
4.76885
20
-4.95723
11
4.77821
21
-4.95734
0
LINE
8
BLACK
6
CONTINUOUS
10
5.72466
20
-4.95734
11
5.73387
21
-4.95898
0
LINE
8
BLACK
6
CONTINUOUS
10
5.73387
20
-4.95898
11
5.74269
21
-4.9621
0
LINE
8
BLACK
6
CONTINUOUS
10
5.74269
20
-4.9621
11
5.75088
21
-4.96662
0
LINE
8
BLACK
6
CONTINUOUS
10
5.75088
20
-4.96662
11
5.75822
21
-4.97242
0
LINE
8
BLACK
6
CONTINUOUS
10
5.75822
20
-4.97242
11
5.76452
21
-4.97934
0
LINE
8
BLACK
6
CONTINUOUS
10
5.76452
20
-4.97934
11
5.7696
21
-4.9872
0
LINE
8
BLACK
6
CONTINUOUS
10
5.7696
20
-4.9872
11
5.77333
21
-4.99578
0
LINE
8
BLACK
6
CONTINUOUS
10
5.77333
20
-4.99578
11
5.77561
21
-5.00485
0
LINE
8
BLACK
6
CONTINUOUS
10
5.77561
20
-5.00485
11
5.77638
21
-5.01417
0
LINE
8
BLACK
6
CONTINUOUS
10
5.77638
20
-5.01417
11
5.77631
21
-5.01696
0
LINE
8
BLACK
6
CONTINUOUS
10
5.77631
20
-5.01696
11
5.77509
21
-5.02624
0
LINE
8
BLACK
6
CONTINUOUS
10
5.77509
20
-5.02624
11
5.77237
21
-5.03519
0
LINE
8
BLACK
6
CONTINUOUS
10
5.77237
20
-5.03519
11
5.76822
21
-5.04357
0
LINE
8
BLACK
6
CONTINUOUS
10
5.76822
20
-5.04357
11
5.76276
21
-5.05117
0
LINE
8
BLACK
6
CONTINUOUS
10
5.76276
20
-5.05117
11
5.75614
21
-5.05778
0
LINE
8
BLACK
6
CONTINUOUS
10
5.75614
20
-5.05778
11
5.74852
21
-5.06321
0
LINE
8
BLACK
6
CONTINUOUS
10
5.74852
20
-5.06321
11
5.74012
21
-5.06732
0
LINE
8
BLACK
6
CONTINUOUS
10
5.74012
20
-5.06732
11
5.73116
21
-5.07001
0
LINE
8
BLACK
6
CONTINUOUS
10
5.73116
20
-5.07001
11
5.72188
21
-5.0712
0
LINE
8
BLACK
6
CONTINUOUS
10
5.72188
20
-5.0712
11
5.71253
21
-5.07086
0
LINE
8
BLACK
6
CONTINUOUS
10
5.71253
20
-5.07086
11
5.70336
21
-5.06899
0
LINE
8
BLACK
6
CONTINUOUS
10
5.70336
20
-5.06899
11
5.69463
21
-5.06566
0
LINE
8
BLACK
6
CONTINUOUS
10
5.69463
20
-5.06566
11
5.68655
21
-5.06094
0
LINE
8
BLACK
6
CONTINUOUS
10
5.68655
20
-5.06094
11
5.67935
21
-5.05496
0
LINE
8
BLACK
6
CONTINUOUS
10
5.67935
20
-5.05496
11
5.67322
21
-5.04789
0
LINE
8
BLACK
6
CONTINUOUS
10
5.67322
20
-5.04789
11
5.66834
21
-5.03991
0
LINE
8
BLACK
6
CONTINUOUS
10
5.66834
20
-5.03991
11
5.66482
21
-5.03124
0
LINE
8
BLACK
6
CONTINUOUS
10
5.66482
20
-5.03124
11
5.66276
21
-5.02212
0
LINE
8
BLACK
6
CONTINUOUS
10
5.66276
20
-5.02212
11
5.66222
21
-5.01278
0
LINE
8
BLACK
6
CONTINUOUS
10
5.66222
20
-5.01278
11
5.66322
21
-5.00348
0
LINE
8
BLACK
6
CONTINUOUS
10
5.66322
20
-5.00348
11
5.66572
21
-4.99446
0
LINE
8
BLACK
6
CONTINUOUS
10
5.66572
20
-4.99446
11
5.66965
21
-4.98598
0
LINE
8
BLACK
6
CONTINUOUS
10
5.66965
20
-4.98598
11
5.67493
21
-4.97825
0
LINE
8
BLACK
6
CONTINUOUS
10
5.67493
20
-4.97825
11
5.68139
21
-4.97148
0
LINE
8
BLACK
6
CONTINUOUS
10
5.68139
20
-4.97148
11
5.68887
21
-4.96587
0
LINE
8
BLACK
6
CONTINUOUS
10
5.68887
20
-4.96587
11
5.69717
21
-4.96155
0
LINE
8
BLACK
6
CONTINUOUS
10
5.69717
20
-4.96155
11
5.70606
21
-4.95864
0
LINE
8
BLACK
6
CONTINUOUS
10
5.70606
20
-4.95864
11
5.71531
21
-4.95723
0
LINE
8
BLACK
6
CONTINUOUS
10
5.71531
20
-4.95723
11
5.72466
21
-4.95734
0
LINE
8
BLACK
6
CONTINUOUS
10
4.63121
20
-4.98118
11
4.63776
21
-4.98316
0
LINE
8
BLACK
6
CONTINUOUS
10
4.63776
20
-4.98316
11
4.64367
21
-4.98659
0
LINE
8
BLACK
6
CONTINUOUS
10
4.64367
20
-4.98659
11
4.64864
21
-4.9913
0
LINE
8
BLACK
6
CONTINUOUS
10
4.64864
20
-4.9913
11
4.65239
21
-4.99702
0
LINE
8
BLACK
6
CONTINUOUS
10
4.65239
20
-4.99702
11
4.65472
21
-5.00344
0
LINE
8
BLACK
6
CONTINUOUS
10
4.65472
20
-5.00344
11
4.65551
21
-5.01024
0
LINE
8
BLACK
6
CONTINUOUS
10
4.65551
20
-5.01024
11
4.65551
21
-5.01811
0
LINE
8
BLACK
6
CONTINUOUS
10
4.65551
20
-5.01811
11
4.65529
21
-5.02176
0
LINE
8
BLACK
6
CONTINUOUS
10
4.65529
20
-5.02176
11
4.65366
21
-5.0284
0
LINE
8
BLACK
6
CONTINUOUS
10
4.65366
20
-5.0284
11
4.65055
21
-5.03449
0
LINE
8
BLACK
6
CONTINUOUS
10
4.65055
20
-5.03449
11
4.64612
21
-5.03971
0
LINE
8
BLACK
6
CONTINUOUS
10
4.64612
20
-5.03971
11
4.64061
21
-5.04376
0
LINE
8
BLACK
6
CONTINUOUS
10
4.64061
20
-5.04376
11
4.63432
21
-5.04644
0
LINE
8
BLACK
6
CONTINUOUS
10
4.63432
20
-5.04644
11
4.62758
21
-5.04759
0
LINE
8
BLACK
6
CONTINUOUS
10
4.62758
20
-5.04759
11
4.62076
21
-5.04717
0
LINE
8
BLACK
6
CONTINUOUS
10
4.62076
20
-5.04717
11
4.61421
21
-5.04519
0
LINE
8
BLACK
6
CONTINUOUS
10
4.61421
20
-5.04519
11
4.6083
21
-5.04175
0
LINE
8
BLACK
6
CONTINUOUS
10
4.6083
20
-5.04175
11
4.60333
21
-5.03705
0
LINE
8
BLACK
6
CONTINUOUS
10
4.60333
20
-5.03705
11
4.60103
21
-5.03355
0
LINE
8
BLACK
6
CONTINUOUS
10
4.60103
20
-5.03355
11
4.60055
21
-5.03449
0
LINE
8
BLACK
6
CONTINUOUS
10
4.60055
20
-5.03449
11
4.59612
21
-5.03971
0
LINE
8
BLACK
6
CONTINUOUS
10
4.59612
20
-5.03971
11
4.59061
21
-5.04376
0
LINE
8
BLACK
6
CONTINUOUS
10
4.59061
20
-5.04376
11
4.58432
21
-5.04644
0
LINE
8
BLACK
6
CONTINUOUS
10
4.58432
20
-5.04644
11
4.57758
21
-5.04759
0
LINE
8
BLACK
6
CONTINUOUS
10
4.57758
20
-5.04759
11
4.57076
21
-5.04717
0
LINE
8
BLACK
6
CONTINUOUS
10
4.57076
20
-5.04717
11
4.56421
21
-5.04519
0
LINE
8
BLACK
6
CONTINUOUS
10
4.56421
20
-5.04519
11
4.5583
21
-5.04175
0
LINE
8
BLACK
6
CONTINUOUS
10
4.5583
20
-5.04175
11
4.55333
21
-5.03705
0
LINE
8
BLACK
6
CONTINUOUS
10
4.55333
20
-5.03705
11
4.54958
21
-5.03133
0
LINE
8
BLACK
6
CONTINUOUS
10
4.54958
20
-5.03133
11
4.54725
21
-5.0249
0
LINE
8
BLACK
6
CONTINUOUS
10
4.54725
20
-5.0249
11
4.54646
21
-5.01811
0
LINE
8
BLACK
6
CONTINUOUS
10
4.54646
20
-5.01811
11
4.54646
21
-5.01024
0
LINE
8
BLACK
6
CONTINUOUS
10
4.54646
20
-5.01024
11
4.54668
21
-5.00659
0
LINE
8
BLACK
6
CONTINUOUS
10
4.54668
20
-5.00659
11
4.54831
21
-4.99994
0
LINE
8
BLACK
6
CONTINUOUS
10
4.54831
20
-4.99994
11
4.55142
21
-4.99385
0
LINE
8
BLACK
6
CONTINUOUS
10
4.55142
20
-4.99385
11
4.55585
21
-4.98864
0
LINE
8
BLACK
6
CONTINUOUS
10
4.55585
20
-4.98864
11
4.56135
21
-4.98459
0
LINE
8
BLACK
6
CONTINUOUS
10
4.56135
20
-4.98459
11
4.56765
21
-4.98191
0
LINE
8
BLACK
6
CONTINUOUS
10
4.56765
20
-4.98191
11
4.57439
21
-4.98075
0
LINE
8
BLACK
6
CONTINUOUS
10
4.57439
20
-4.98075
11
4.58121
21
-4.98118
0
LINE
8
BLACK
6
CONTINUOUS
10
4.58121
20
-4.98118
11
4.58776
21
-4.98316
0
LINE
8
BLACK
6
CONTINUOUS
10
4.58776
20
-4.98316
11
4.59367
21
-4.98659
0
LINE
8
BLACK
6
CONTINUOUS
10
4.59367
20
-4.98659
11
4.59864
21
-4.9913
0
LINE
8
BLACK
6
CONTINUOUS
10
4.59864
20
-4.9913
11
4.60093
21
-4.9948
0
LINE
8
BLACK
6
CONTINUOUS
10
4.60093
20
-4.9948
11
4.60142
21
-4.99385
0
LINE
8
BLACK
6
CONTINUOUS
10
4.60142
20
-4.99385
11
4.60585
21
-4.98864
0
LINE
8
BLACK
6
CONTINUOUS
10
4.60585
20
-4.98864
11
4.61135
21
-4.98459
0
LINE
8
BLACK
6
CONTINUOUS
10
4.61135
20
-4.98459
11
4.61765
21
-4.98191
0
LINE
8
BLACK
6
CONTINUOUS
10
4.61765
20
-4.98191
11
4.62439
21
-4.98075
0
LINE
8
BLACK
6
CONTINUOUS
10
4.62439
20
-4.98075
11
4.63121
21
-4.98118
0
LINE
8
BLACK
6
CONTINUOUS
10
4.48121
20
-4.98118
11
4.48776
21
-4.98316
0
LINE
8
BLACK
6
CONTINUOUS
10
4.48776
20
-4.98316
11
4.49367
21
-4.98659
0
LINE
8
BLACK
6
CONTINUOUS
10
4.49367
20
-4.98659
11
4.49864
21
-4.9913
0
LINE
8
BLACK
6
CONTINUOUS
10
4.49864
20
-4.9913
11
4.50239
21
-4.99702
0
LINE
8
BLACK
6
CONTINUOUS
10
4.50239
20
-4.99702
11
4.50472
21
-5.00344
0
LINE
8
BLACK
6
CONTINUOUS
10
4.50472
20
-5.00344
11
4.50551
21
-5.01024
0
LINE
8
BLACK
6
CONTINUOUS
10
4.50551
20
-5.01024
11
4.50551
21
-5.01811
0
LINE
8
BLACK
6
CONTINUOUS
10
4.50551
20
-5.01811
11
4.50529
21
-5.02176
0
LINE
8
BLACK
6
CONTINUOUS
10
4.50529
20
-5.02176
11
4.50366
21
-5.0284
0
LINE
8
BLACK
6
CONTINUOUS
10
4.50366
20
-5.0284
11
4.50055
21
-5.03449
0
LINE
8
BLACK
6
CONTINUOUS
10
4.50055
20
-5.03449
11
4.49612
21
-5.03971
0
LINE
8
BLACK
6
CONTINUOUS
10
4.49612
20
-5.03971
11
4.49061
21
-5.04376
0
LINE
8
BLACK
6
CONTINUOUS
10
4.49061
20
-5.04376
11
4.48432
21
-5.04644
0
LINE
8
BLACK
6
CONTINUOUS
10
4.48432
20
-5.04644
11
4.47758
21
-5.04759
0
LINE
8
BLACK
6
CONTINUOUS
10
4.47758
20
-5.04759
11
4.47076
21
-5.04717
0
LINE
8
BLACK
6
CONTINUOUS
10
4.47076
20
-5.04717
11
4.46421
21
-5.04519
0
LINE
8
BLACK
6
CONTINUOUS
10
4.46421
20
-5.04519
11
4.4583
21
-5.04175
0
LINE
8
BLACK
6
CONTINUOUS
10
4.4583
20
-5.04175
11
4.45333
21
-5.03705
0
LINE
8
BLACK
6
CONTINUOUS
10
4.45333
20
-5.03705
11
4.45103
21
-5.03355
0
LINE
8
BLACK
6
CONTINUOUS
10
4.45103
20
-5.03355
11
4.45055
21
-5.03449
0
LINE
8
BLACK
6
CONTINUOUS
10
4.45055
20
-5.03449
11
4.44612
21
-5.03971
0
LINE
8
BLACK
6
CONTINUOUS
10
4.44612
20
-5.03971
11
4.44061
21
-5.04376
0
LINE
8
BLACK
6
CONTINUOUS
10
4.44061
20
-5.04376
11
4.43432
21
-5.04644
0
LINE
8
BLACK
6
CONTINUOUS
10
4.43432
20
-5.04644
11
4.42758
21
-5.04759
0
LINE
8
BLACK
6
CONTINUOUS
10
4.42758
20
-5.04759
11
4.42076
21
-5.04717
0
LINE
8
BLACK
6
CONTINUOUS
10
4.42076
20
-5.04717
11
4.41421
21
-5.04519
0
LINE
8
BLACK
6
CONTINUOUS
10
4.41421
20
-5.04519
11
4.4083
21
-5.04175
0
LINE
8
BLACK
6
CONTINUOUS
10
4.4083
20
-5.04175
11
4.40333
21
-5.03705
0
LINE
8
BLACK
6
CONTINUOUS
10
4.40333
20
-5.03705
11
4.39958
21
-5.03133
0
LINE
8
BLACK
6
CONTINUOUS
10
4.39958
20
-5.03133
11
4.39725
21
-5.0249
0
LINE
8
BLACK
6
CONTINUOUS
10
4.39725
20
-5.0249
11
4.39646
21
-5.01811
0
LINE
8
BLACK
6
CONTINUOUS
10
4.39646
20
-5.01811
11
4.39646
21
-5.01024
0
LINE
8
BLACK
6
CONTINUOUS
10
4.39646
20
-5.01024
11
4.39668
21
-5.00659
0
LINE
8
BLACK
6
CONTINUOUS
10
4.39668
20
-5.00659
11
4.39831
21
-4.99994
0
LINE
8
BLACK
6
CONTINUOUS
10
4.39831
20
-4.99994
11
4.40142
21
-4.99385
0
LINE
8
BLACK
6
CONTINUOUS
10
4.40142
20
-4.99385
11
4.40585
21
-4.98864
0
LINE
8
BLACK
6
CONTINUOUS
10
4.40585
20
-4.98864
11
4.41135
21
-4.98459
0
LINE
8
BLACK
6
CONTINUOUS
10
4.41135
20
-4.98459
11
4.41765
21
-4.98191
0
LINE
8
BLACK
6
CONTINUOUS
10
4.41765
20
-4.98191
11
4.42439
21
-4.98075
0
LINE
8
BLACK
6
CONTINUOUS
10
4.42439
20
-4.98075
11
4.43121
21
-4.98118
0
LINE
8
BLACK
6
CONTINUOUS
10
4.43121
20
-4.98118
11
4.43776
21
-4.98316
0
LINE
8
BLACK
6
CONTINUOUS
10
4.43776
20
-4.98316
11
4.44367
21
-4.98659
0
LINE
8
BLACK
6
CONTINUOUS
10
4.44367
20
-4.98659
11
4.44864
21
-4.9913
0
LINE
8
BLACK
6
CONTINUOUS
10
4.44864
20
-4.9913
11
4.45093
21
-4.9948
0
LINE
8
BLACK
6
CONTINUOUS
10
4.45093
20
-4.9948
11
4.45142
21
-4.99385
0
LINE
8
BLACK
6
CONTINUOUS
10
4.45142
20
-4.99385
11
4.45585
21
-4.98864
0
LINE
8
BLACK
6
CONTINUOUS
10
4.45585
20
-4.98864
11
4.46135
21
-4.98459
0
LINE
8
BLACK
6
CONTINUOUS
10
4.46135
20
-4.98459
11
4.46765
21
-4.98191
0
LINE
8
BLACK
6
CONTINUOUS
10
4.46765
20
-4.98191
11
4.47439
21
-4.98075
0
LINE
8
BLACK
6
CONTINUOUS
10
4.47439
20
-4.98075
11
4.48121
21
-4.98118
0
LINE
8
BLACK
6
CONTINUOUS
10
5.42767
20
-4.98118
11
5.43422
21
-4.98316
0
LINE
8
BLACK
6
CONTINUOUS
10
5.43422
20
-4.98316
11
5.44013
21
-4.98659
0
LINE
8
BLACK
6
CONTINUOUS
10
5.44013
20
-4.98659
11
5.44509
21
-4.9913
0
LINE
8
BLACK
6
CONTINUOUS
10
5.44509
20
-4.9913
11
5.44884
21
-4.99702
0
LINE
8
BLACK
6
CONTINUOUS
10
5.44884
20
-4.99702
11
5.45118
21
-5.00344
0
LINE
8
BLACK
6
CONTINUOUS
10
5.45118
20
-5.00344
11
5.45197
21
-5.01024
0
LINE
8
BLACK
6
CONTINUOUS
10
5.45197
20
-5.01024
11
5.45197
21
-5.01811
0
LINE
8
BLACK
6
CONTINUOUS
10
5.45197
20
-5.01811
11
5.45174
21
-5.02176
0
LINE
8
BLACK
6
CONTINUOUS
10
5.45174
20
-5.02176
11
5.45012
21
-5.0284
0
LINE
8
BLACK
6
CONTINUOUS
10
5.45012
20
-5.0284
11
5.44701
21
-5.03449
0
LINE
8
BLACK
6
CONTINUOUS
10
5.44701
20
-5.03449
11
5.44258
21
-5.03971
0
LINE
8
BLACK
6
CONTINUOUS
10
5.44258
20
-5.03971
11
5.43707
21
-5.04376
0
LINE
8
BLACK
6
CONTINUOUS
10
5.43707
20
-5.04376
11
5.43078
21
-5.04644
0
LINE
8
BLACK
6
CONTINUOUS
10
5.43078
20
-5.04644
11
5.42404
21
-5.04759
0
LINE
8
BLACK
6
CONTINUOUS
10
5.42404
20
-5.04759
11
5.41721
21
-5.04717
0
LINE
8
BLACK
6
CONTINUOUS
10
5.41721
20
-5.04717
11
5.41067
21
-5.04519
0
LINE
8
BLACK
6
CONTINUOUS
10
5.41067
20
-5.04519
11
5.40475
21
-5.04175
0
LINE
8
BLACK
6
CONTINUOUS
10
5.40475
20
-5.04175
11
5.39979
21
-5.03705
0
LINE
8
BLACK
6
CONTINUOUS
10
5.39979
20
-5.03705
11
5.39749
21
-5.03355
0
LINE
8
BLACK
6
CONTINUOUS
10
5.39749
20
-5.03355
11
5.39701
21
-5.03449
0
LINE
8
BLACK
6
CONTINUOUS
10
5.39701
20
-5.03449
11
5.39258
21
-5.03971
0
LINE
8
BLACK
6
CONTINUOUS
10
5.39258
20
-5.03971
11
5.38707
21
-5.04376
0
LINE
8
BLACK
6
CONTINUOUS
10
5.38707
20
-5.04376
11
5.38078
21
-5.04644
0
LINE
8
BLACK
6
CONTINUOUS
10
5.38078
20
-5.04644
11
5.37404
21
-5.04759
0
LINE
8
BLACK
6
CONTINUOUS
10
5.37404
20
-5.04759
11
5.36721
21
-5.04717
0
LINE
8
BLACK
6
CONTINUOUS
10
5.36721
20
-5.04717
11
5.36067
21
-5.04519
0
LINE
8
BLACK
6
CONTINUOUS
10
5.36067
20
-5.04519
11
5.35475
21
-5.04175
0
LINE
8
BLACK
6
CONTINUOUS
10
5.35475
20
-5.04175
11
5.34979
21
-5.03705
0
LINE
8
BLACK
6
CONTINUOUS
10
5.34979
20
-5.03705
11
5.34604
21
-5.03133
0
LINE
8
BLACK
6
CONTINUOUS
10
5.34604
20
-5.03133
11
5.34371
21
-5.0249
0
LINE
8
BLACK
6
CONTINUOUS
10
5.34371
20
-5.0249
11
5.34291
21
-5.01811
0
LINE
8
BLACK
6
CONTINUOUS
10
5.34291
20
-5.01811
11
5.34291
21
-5.01024
0
LINE
8
BLACK
6
CONTINUOUS
10
5.34291
20
-5.01024
11
5.34314
21
-5.00659
0
LINE
8
BLACK
6
CONTINUOUS
10
5.34314
20
-5.00659
11
5.34477
21
-4.99994
0
LINE
8
BLACK
6
CONTINUOUS
10
5.34477
20
-4.99994
11
5.34788
21
-4.99385
0
LINE
8
BLACK
6
CONTINUOUS
10
5.34788
20
-4.99385
11
5.3523
21
-4.98864
0
LINE
8
BLACK
6
CONTINUOUS
10
5.3523
20
-4.98864
11
5.35781
21
-4.98459
0
LINE
8
BLACK
6
CONTINUOUS
10
5.35781
20
-4.98459
11
5.3641
21
-4.98191
0
LINE
8
BLACK
6
CONTINUOUS
10
5.3641
20
-4.98191
11
5.37084
21
-4.98075
0
LINE
8
BLACK
6
CONTINUOUS
10
5.37084
20
-4.98075
11
5.37767
21
-4.98118
0
LINE
8
BLACK
6
CONTINUOUS
10
5.37767
20
-4.98118
11
5.38422
21
-4.98316
0
LINE
8
BLACK
6
CONTINUOUS
10
5.38422
20
-4.98316
11
5.39013
21
-4.98659
0
LINE
8
BLACK
6
CONTINUOUS
10
5.39013
20
-4.98659
11
5.39509
21
-4.9913
0
LINE
8
BLACK
6
CONTINUOUS
10
5.39509
20
-4.9913
11
5.39739
21
-4.9948
0
LINE
8
BLACK
6
CONTINUOUS
10
5.39739
20
-4.9948
11
5.39788
21
-4.99385
0
LINE
8
BLACK
6
CONTINUOUS
10
5.39788
20
-4.99385
11
5.4023
21
-4.98864
0
LINE
8
BLACK
6
CONTINUOUS
10
5.4023
20
-4.98864
11
5.40781
21
-4.98459
0
LINE
8
BLACK
6
CONTINUOUS
10
5.40781
20
-4.98459
11
5.4141
21
-4.98191
0
LINE
8
BLACK
6
CONTINUOUS
10
5.4141
20
-4.98191
11
5.42084
21
-4.98075
0
LINE
8
BLACK
6
CONTINUOUS
10
5.42084
20
-4.98075
11
5.42767
21
-4.98118
0
LINE
8
BLACK
6
CONTINUOUS
10
5.57767
20
-4.98118
11
5.58422
21
-4.98316
0
LINE
8
BLACK
6
CONTINUOUS
10
5.58422
20
-4.98316
11
5.59013
21
-4.98659
0
LINE
8
BLACK
6
CONTINUOUS
10
5.59013
20
-4.98659
11
5.59509
21
-4.9913
0
LINE
8
BLACK
6
CONTINUOUS
10
5.59509
20
-4.9913
11
5.59884
21
-4.99702
0
LINE
8
BLACK
6
CONTINUOUS
10
5.59884
20
-4.99702
11
5.60118
21
-5.00344
0
LINE
8
BLACK
6
CONTINUOUS
10
5.60118
20
-5.00344
11
5.60197
21
-5.01024
0
LINE
8
BLACK
6
CONTINUOUS
10
5.60197
20
-5.01024
11
5.60197
21
-5.01811
0
LINE
8
BLACK
6
CONTINUOUS
10
5.60197
20
-5.01811
11
5.60174
21
-5.02176
0
LINE
8
BLACK
6
CONTINUOUS
10
5.60174
20
-5.02176
11
5.60012
21
-5.0284
0
LINE
8
BLACK
6
CONTINUOUS
10
5.60012
20
-5.0284
11
5.59701
21
-5.03449
0
LINE
8
BLACK
6
CONTINUOUS
10
5.59701
20
-5.03449
11
5.59258
21
-5.03971
0
LINE
8
BLACK
6
CONTINUOUS
10
5.59258
20
-5.03971
11
5.58707
21
-5.04376
0
LINE
8
BLACK
6
CONTINUOUS
10
5.58707
20
-5.04376
11
5.58078
21
-5.04644
0
LINE
8
BLACK
6
CONTINUOUS
10
5.58078
20
-5.04644
11
5.57404
21
-5.04759
0
LINE
8
BLACK
6
CONTINUOUS
10
5.57404
20
-5.04759
11
5.56721
21
-5.04717
0
LINE
8
BLACK
6
CONTINUOUS
10
5.56721
20
-5.04717
11
5.56067
21
-5.04519
0
LINE
8
BLACK
6
CONTINUOUS
10
5.56067
20
-5.04519
11
5.55475
21
-5.04175
0
LINE
8
BLACK
6
CONTINUOUS
10
5.55475
20
-5.04175
11
5.54979
21
-5.03705
0
LINE
8
BLACK
6
CONTINUOUS
10
5.54979
20
-5.03705
11
5.54749
21
-5.03355
0
LINE
8
BLACK
6
CONTINUOUS
10
5.54749
20
-5.03355
11
5.54701
21
-5.03449
0
LINE
8
BLACK
6
CONTINUOUS
10
5.54701
20
-5.03449
11
5.54258
21
-5.03971
0
LINE
8
BLACK
6
CONTINUOUS
10
5.54258
20
-5.03971
11
5.53707
21
-5.04376
0
LINE
8
BLACK
6
CONTINUOUS
10
5.53707
20
-5.04376
11
5.53078
21
-5.04644
0
LINE
8
BLACK
6
CONTINUOUS
10
5.53078
20
-5.04644
11
5.52404
21
-5.04759
0
LINE
8
BLACK
6
CONTINUOUS
10
5.52404
20
-5.04759
11
5.51721
21
-5.04717
0
LINE
8
BLACK
6
CONTINUOUS
10
5.51721
20
-5.04717
11
5.51067
21
-5.04519
0
LINE
8
BLACK
6
CONTINUOUS
10
5.51067
20
-5.04519
11
5.50475
21
-5.04175
0
LINE
8
BLACK
6
CONTINUOUS
10
5.50475
20
-5.04175
11
5.49979
21
-5.03705
0
LINE
8
BLACK
6
CONTINUOUS
10
5.49979
20
-5.03705
11
5.49604
21
-5.03133
0
LINE
8
BLACK
6
CONTINUOUS
10
5.49604
20
-5.03133
11
5.49371
21
-5.0249
0
LINE
8
BLACK
6
CONTINUOUS
10
5.49371
20
-5.0249
11
5.49291
21
-5.01811
0
LINE
8
BLACK
6
CONTINUOUS
10
5.49291
20
-5.01811
11
5.49291
21
-5.01024
0
LINE
8
BLACK
6
CONTINUOUS
10
5.49291
20
-5.01024
11
5.49314
21
-5.00659
0
LINE
8
BLACK
6
CONTINUOUS
10
5.49314
20
-5.00659
11
5.49477
21
-4.99994
0
LINE
8
BLACK
6
CONTINUOUS
10
5.49477
20
-4.99994
11
5.49788
21
-4.99385
0
LINE
8
BLACK
6
CONTINUOUS
10
5.49788
20
-4.99385
11
5.5023
21
-4.98864
0
LINE
8
BLACK
6
CONTINUOUS
10
5.5023
20
-4.98864
11
5.50781
21
-4.98459
0
LINE
8
BLACK
6
CONTINUOUS
10
5.50781
20
-4.98459
11
5.5141
21
-4.98191
0
LINE
8
BLACK
6
CONTINUOUS
10
5.5141
20
-4.98191
11
5.52084
21
-4.98075
0
LINE
8
BLACK
6
CONTINUOUS
10
5.52084
20
-4.98075
11
5.52767
21
-4.98118
0
LINE
8
BLACK
6
CONTINUOUS
10
5.52767
20
-4.98118
11
5.53422
21
-4.98316
0
LINE
8
BLACK
6
CONTINUOUS
10
5.53422
20
-4.98316
11
5.54013
21
-4.98659
0
LINE
8
BLACK
6
CONTINUOUS
10
5.54013
20
-4.98659
11
5.54509
21
-4.9913
0
LINE
8
BLACK
6
CONTINUOUS
10
5.54509
20
-4.9913
11
5.54739
21
-4.9948
0
LINE
8
BLACK
6
CONTINUOUS
10
5.54739
20
-4.9948
11
5.54788
21
-4.99385
0
LINE
8
BLACK
6
CONTINUOUS
10
5.54788
20
-4.99385
11
5.5523
21
-4.98864
0
LINE
8
BLACK
6
CONTINUOUS
10
5.5523
20
-4.98864
11
5.55781
21
-4.98459
0
LINE
8
BLACK
6
CONTINUOUS
10
5.55781
20
-4.98459
11
5.5641
21
-4.98191
0
LINE
8
BLACK
6
CONTINUOUS
10
5.5641
20
-4.98191
11
5.57084
21
-4.98075
0
LINE
8
BLACK
6
CONTINUOUS
10
5.57084
20
-4.98075
11
5.57767
21
-4.98118
0
LINE
8
BLACK
6
CONTINUOUS
10
5.21955
20
-4.91797
11
5.22876
21
-4.91961
0
LINE
8
BLACK
6
CONTINUOUS
10
5.22876
20
-4.91961
11
5.23757
21
-4.92273
0
LINE
8
BLACK
6
CONTINUOUS
10
5.23757
20
-4.92273
11
5.24576
21
-4.92725
0
LINE
8
BLACK
6
CONTINUOUS
10
5.24576
20
-4.92725
11
5.25311
21
-4.93305
0
LINE
8
BLACK
6
CONTINUOUS
10
5.25311
20
-4.93305
11
5.2594
21
-4.93997
0
LINE
8
BLACK
6
CONTINUOUS
10
5.2594
20
-4.93997
11
5.26448
21
-4.94783
0
LINE
8
BLACK
6
CONTINUOUS
10
5.26448
20
-4.94783
11
5.26821
21
-4.95641
0
LINE
8
BLACK
6
CONTINUOUS
10
5.26821
20
-4.95641
11
5.27049
21
-4.96548
0
LINE
8
BLACK
6
CONTINUOUS
10
5.27049
20
-4.96548
11
5.27126
21
-4.9748
0
LINE
8
BLACK
6
CONTINUOUS
10
5.27126
20
-4.9748
11
5.27119
21
-4.97759
0
LINE
8
BLACK
6
CONTINUOUS
10
5.27119
20
-4.97759
11
5.26997
21
-4.98687
0
LINE
8
BLACK
6
CONTINUOUS
10
5.26997
20
-4.98687
11
5.26725
21
-4.99582
0
LINE
8
BLACK
6
CONTINUOUS
10
5.26725
20
-4.99582
11
5.26311
21
-5.0042
0
LINE
8
BLACK
6
CONTINUOUS
10
5.26311
20
-5.0042
11
5.25765
21
-5.0118
0
LINE
8
BLACK
6
CONTINUOUS
10
5.25765
20
-5.0118
11
5.25102
21
-5.01841
0
LINE
8
BLACK
6
CONTINUOUS
10
5.25102
20
-5.01841
11
5.2434
21
-5.02384
0
LINE
8
BLACK
6
CONTINUOUS
10
5.2434
20
-5.02384
11
5.235
21
-5.02795
0
LINE
8
BLACK
6
CONTINUOUS
10
5.235
20
-5.02795
11
5.22604
21
-5.03064
0
LINE
8
BLACK
6
CONTINUOUS
10
5.22604
20
-5.03064
11
5.21676
21
-5.03183
0
LINE
8
BLACK
6
CONTINUOUS
10
5.21676
20
-5.03183
11
5.20741
21
-5.03149
0
LINE
8
BLACK
6
CONTINUOUS
10
5.20741
20
-5.03149
11
5.19825
21
-5.02962
0
LINE
8
BLACK
6
CONTINUOUS
10
5.19825
20
-5.02962
11
5.18951
21
-5.02629
0
LINE
8
BLACK
6
CONTINUOUS
10
5.18951
20
-5.02629
11
5.18143
21
-5.02157
0
LINE
8
BLACK
6
CONTINUOUS
10
5.18143
20
-5.02157
11
5.17423
21
-5.01559
0
LINE
8
BLACK
6
CONTINUOUS
10
5.17423
20
-5.01559
11
5.16811
21
-5.00852
0
LINE
8
BLACK
6
CONTINUOUS
10
5.16811
20
-5.00852
11
5.16322
21
-5.00054
0
LINE
8
BLACK
6
CONTINUOUS
10
5.16322
20
-5.00054
11
5.1597
21
-4.99187
0
LINE
8
BLACK
6
CONTINUOUS
10
5.1597
20
-4.99187
11
5.15764
21
-4.98275
0
LINE
8
BLACK
6
CONTINUOUS
10
5.15764
20
-4.98275
11
5.1571
21
-4.97341
0
LINE
8
BLACK
6
CONTINUOUS
10
5.1571
20
-4.97341
11
5.1581
21
-4.96411
0
LINE
8
BLACK
6
CONTINUOUS
10
5.1581
20
-4.96411
11
5.1606
21
-4.95509
0
LINE
8
BLACK
6
CONTINUOUS
10
5.1606
20
-4.95509
11
5.16454
21
-4.94661
0
LINE
8
BLACK
6
CONTINUOUS
10
5.16454
20
-4.94661
11
5.16981
21
-4.93888
0
LINE
8
BLACK
6
CONTINUOUS
10
5.16981
20
-4.93888
11
5.17627
21
-4.93211
0
LINE
8
BLACK
6
CONTINUOUS
10
5.17627
20
-4.93211
11
5.18375
21
-4.9265
0
LINE
8
BLACK
6
CONTINUOUS
10
5.18375
20
-4.9265
11
5.19205
21
-4.92218
0
LINE
8
BLACK
6
CONTINUOUS
10
5.19205
20
-4.92218
11
5.20094
21
-4.91927
0
LINE
8
BLACK
6
CONTINUOUS
10
5.20094
20
-4.91927
11
5.21019
21
-4.91786
0
LINE
8
BLACK
6
CONTINUOUS
10
5.21019
20
-4.91786
11
5.21955
21
-4.91797
0
LINE
8
BLACK
6
CONTINUOUS
10
4.27309
20
-4.91797
11
4.2823
21
-4.91961
0
LINE
8
BLACK
6
CONTINUOUS
10
4.2823
20
-4.91961
11
4.29112
21
-4.92273
0
LINE
8
BLACK
6
CONTINUOUS
10
4.29112
20
-4.92273
11
4.29931
21
-4.92725
0
LINE
8
BLACK
6
CONTINUOUS
10
4.29931
20
-4.92725
11
4.30665
21
-4.93305
0
LINE
8
BLACK
6
CONTINUOUS
10
4.30665
20
-4.93305
11
4.31295
21
-4.93997
0
LINE
8
BLACK
6
CONTINUOUS
10
4.31295
20
-4.93997
11
4.31803
21
-4.94783
0
LINE
8
BLACK
6
CONTINUOUS
10
4.31803
20
-4.94783
11
4.32176
21
-4.95641
0
LINE
8
BLACK
6
CONTINUOUS
10
4.32176
20
-4.95641
11
4.32404
21
-4.96548
0
LINE
8
BLACK
6
CONTINUOUS
10
4.32404
20
-4.96548
11
4.3248
21
-4.9748
0
LINE
8
BLACK
6
CONTINUOUS
10
4.3248
20
-4.9748
11
4.32473
21
-4.97759
0
LINE
8
BLACK
6
CONTINUOUS
10
4.32473
20
-4.97759
11
4.32351
21
-4.98687
0
LINE
8
BLACK
6
CONTINUOUS
10
4.32351
20
-4.98687
11
4.32079
21
-4.99582
0
LINE
8
BLACK
6
CONTINUOUS
10
4.32079
20
-4.99582
11
4.31665
21
-5.0042
0
LINE
8
BLACK
6
CONTINUOUS
10
4.31665
20
-5.0042
11
4.31119
21
-5.0118
0
LINE
8
BLACK
6
CONTINUOUS
10
4.31119
20
-5.0118
11
4.30456
21
-5.01841
0
LINE
8
BLACK
6
CONTINUOUS
10
4.30456
20
-5.01841
11
4.29695
21
-5.02384
0
LINE
8
BLACK
6
CONTINUOUS
10
4.29695
20
-5.02384
11
4.28855
21
-5.02795
0
LINE
8
BLACK
6
CONTINUOUS
10
4.28855
20
-5.02795
11
4.27959
21
-5.03064
0
LINE
8
BLACK
6
CONTINUOUS
10
4.27959
20
-5.03064
11
4.27031
21
-5.03183
0
LINE
8
BLACK
6
CONTINUOUS
10
4.27031
20
-5.03183
11
4.26096
21
-5.03149
0
LINE
8
BLACK
6
CONTINUOUS
10
4.26096
20
-5.03149
11
4.25179
21
-5.02962
0
LINE
8
BLACK
6
CONTINUOUS
10
4.25179
20
-5.02962
11
4.24305
21
-5.02629
0
LINE
8
BLACK
6
CONTINUOUS
10
4.24305
20
-5.02629
11
4.23497
21
-5.02157
0
LINE
8
BLACK
6
CONTINUOUS
10
4.23497
20
-5.02157
11
4.22778
21
-5.01559
0
LINE
8
BLACK
6
CONTINUOUS
10
4.22778
20
-5.01559
11
4.22165
21
-5.00852
0
LINE
8
BLACK
6
CONTINUOUS
10
4.22165
20
-5.00852
11
4.21676
21
-5.00054
0
LINE
8
BLACK
6
CONTINUOUS
10
4.21676
20
-5.00054
11
4.21324
21
-4.99187
0
LINE
8
BLACK
6
CONTINUOUS
10
4.21324
20
-4.99187
11
4.21119
21
-4.98275
0
LINE
8
BLACK
6
CONTINUOUS
10
4.21119
20
-4.98275
11
4.21065
21
-4.97341
0
LINE
8
BLACK
6
CONTINUOUS
10
4.21065
20
-4.97341
11
4.21164
21
-4.96411
0
LINE
8
BLACK
6
CONTINUOUS
10
4.21164
20
-4.96411
11
4.21414
21
-4.95509
0
LINE
8
BLACK
6
CONTINUOUS
10
4.21414
20
-4.95509
11
4.21808
21
-4.94661
0
LINE
8
BLACK
6
CONTINUOUS
10
4.21808
20
-4.94661
11
4.22335
21
-4.93888
0
LINE
8
BLACK
6
CONTINUOUS
10
4.22335
20
-4.93888
11
4.22982
21
-4.93211
0
LINE
8
BLACK
6
CONTINUOUS
10
4.22982
20
-4.93211
11
4.2373
21
-4.9265
0
LINE
8
BLACK
6
CONTINUOUS
10
4.2373
20
-4.9265
11
4.24559
21
-4.92218
0
LINE
8
BLACK
6
CONTINUOUS
10
4.24559
20
-4.92218
11
4.25449
21
-4.91927
0
LINE
8
BLACK
6
CONTINUOUS
10
4.25449
20
-4.91927
11
4.26373
21
-4.91786
0
LINE
8
BLACK
6
CONTINUOUS
10
4.26373
20
-4.91786
11
4.27309
21
-4.91797
0
LINE
8
BLACK
6
CONTINUOUS
10
4.85523
20
-4.77448
11
4.86177
21
-4.77646
0
LINE
8
BLACK
6
CONTINUOUS
10
4.86177
20
-4.77646
11
4.86769
21
-4.7799
0
LINE
8
BLACK
6
CONTINUOUS
10
4.86769
20
-4.7799
11
4.87265
21
-4.7846
0
LINE
8
BLACK
6
CONTINUOUS
10
4.87265
20
-4.7846
11
4.8764
21
-4.79032
0
LINE
8
BLACK
6
CONTINUOUS
10
4.8764
20
-4.79032
11
4.87874
21
-4.79675
0
LINE
8
BLACK
6
CONTINUOUS
10
4.87874
20
-4.79675
11
4.87953
21
-4.80354
0
LINE
8
BLACK
6
CONTINUOUS
10
4.87953
20
-4.80354
11
4.87953
21
-4.81142
0
LINE
8
BLACK
6
CONTINUOUS
10
4.87953
20
-4.81142
11
4.8793
21
-4.81507
0
LINE
8
BLACK
6
CONTINUOUS
10
4.8793
20
-4.81507
11
4.87768
21
-4.82171
0
LINE
8
BLACK
6
CONTINUOUS
10
4.87768
20
-4.82171
11
4.87457
21
-4.8278
0
LINE
8
BLACK
6
CONTINUOUS
10
4.87457
20
-4.8278
11
4.87014
21
-4.83301
0
LINE
8
BLACK
6
CONTINUOUS
10
4.87014
20
-4.83301
11
4.86463
21
-4.83707
0
LINE
8
BLACK
6
CONTINUOUS
10
4.86463
20
-4.83707
11
4.85834
21
-4.83974
0
LINE
8
BLACK
6
CONTINUOUS
10
4.85834
20
-4.83974
11
4.8516
21
-4.8409
0
LINE
8
BLACK
6
CONTINUOUS
10
4.8516
20
-4.8409
11
4.84477
21
-4.84048
0
LINE
8
BLACK
6
CONTINUOUS
10
4.84477
20
-4.84048
11
4.83823
21
-4.8385
0
LINE
8
BLACK
6
CONTINUOUS
10
4.83823
20
-4.8385
11
4.83231
21
-4.83506
0
LINE
8
BLACK
6
CONTINUOUS
10
4.83231
20
-4.83506
11
4.82735
21
-4.83036
0
LINE
8
BLACK
6
CONTINUOUS
10
4.82735
20
-4.83036
11
4.8236
21
-4.82464
0
LINE
8
BLACK
6
CONTINUOUS
10
4.8236
20
-4.82464
11
4.82126
21
-4.81821
0
LINE
8
BLACK
6
CONTINUOUS
10
4.82126
20
-4.81821
11
4.82047
21
-4.81142
0
LINE
8
BLACK
6
CONTINUOUS
10
4.82047
20
-4.81142
11
4.82047
21
-4.80354
0
LINE
8
BLACK
6
CONTINUOUS
10
4.82047
20
-4.80354
11
4.8207
21
-4.79989
0
LINE
8
BLACK
6
CONTINUOUS
10
4.8207
20
-4.79989
11
4.82232
21
-4.79325
0
LINE
8
BLACK
6
CONTINUOUS
10
4.82232
20
-4.79325
11
4.82543
21
-4.78716
0
LINE
8
BLACK
6
CONTINUOUS
10
4.82543
20
-4.78716
11
4.82986
21
-4.78195
0
LINE
8
BLACK
6
CONTINUOUS
10
4.82986
20
-4.78195
11
4.83537
21
-4.77789
0
LINE
8
BLACK
6
CONTINUOUS
10
4.83537
20
-4.77789
11
4.84166
21
-4.77522
0
LINE
8
BLACK
6
CONTINUOUS
10
4.84166
20
-4.77522
11
4.8484
21
-4.77406
0
LINE
8
BLACK
6
CONTINUOUS
10
4.8484
20
-4.77406
11
4.85523
21
-4.77448
0
LINE
8
BLACK
6
CONTINUOUS
10
5.15523
20
-4.77448
11
5.16177
21
-4.77646
0
LINE
8
BLACK
6
CONTINUOUS
10
5.16177
20
-4.77646
11
5.16769
21
-4.7799
0
LINE
8
BLACK
6
CONTINUOUS
10
5.16769
20
-4.7799
11
5.17265
21
-4.7846
0
LINE
8
BLACK
6
CONTINUOUS
10
5.17265
20
-4.7846
11
5.1764
21
-4.79032
0
LINE
8
BLACK
6
CONTINUOUS
10
5.1764
20
-4.79032
11
5.17874
21
-4.79675
0
LINE
8
BLACK
6
CONTINUOUS
10
5.17874
20
-4.79675
11
5.17953
21
-4.80354
0
LINE
8
BLACK
6
CONTINUOUS
10
5.17953
20
-4.80354
11
5.17953
21
-4.81142
0
LINE
8
BLACK
6
CONTINUOUS
10
5.17953
20
-4.81142
11
5.1793
21
-4.81507
0
LINE
8
BLACK
6
CONTINUOUS
10
5.1793
20
-4.81507
11
5.17768
21
-4.82171
0
LINE
8
BLACK
6
CONTINUOUS
10
5.17768
20
-4.82171
11
5.17457
21
-4.8278
0
LINE
8
BLACK
6
CONTINUOUS
10
5.17457
20
-4.8278
11
5.17014
21
-4.83301
0
LINE
8
BLACK
6
CONTINUOUS
10
5.17014
20
-4.83301
11
5.16463
21
-4.83707
0
LINE
8
BLACK
6
CONTINUOUS
10
5.16463
20
-4.83707
11
5.15834
21
-4.83974
0
LINE
8
BLACK
6
CONTINUOUS
10
5.15834
20
-4.83974
11
5.1516
21
-4.8409
0
LINE
8
BLACK
6
CONTINUOUS
10
5.1516
20
-4.8409
11
5.14477
21
-4.84048
0
LINE
8
BLACK
6
CONTINUOUS
10
5.14477
20
-4.84048
11
5.13823
21
-4.8385
0
LINE
8
BLACK
6
CONTINUOUS
10
5.13823
20
-4.8385
11
5.13231
21
-4.83506
0
LINE
8
BLACK
6
CONTINUOUS
10
5.13231
20
-4.83506
11
5.12735
21
-4.83036
0
LINE
8
BLACK
6
CONTINUOUS
10
5.12735
20
-4.83036
11
5.1236
21
-4.82464
0
LINE
8
BLACK
6
CONTINUOUS
10
5.1236
20
-4.82464
11
5.12126
21
-4.81821
0
LINE
8
BLACK
6
CONTINUOUS
10
5.12126
20
-4.81821
11
5.12047
21
-4.81142
0
LINE
8
BLACK
6
CONTINUOUS
10
5.12047
20
-4.81142
11
5.12047
21
-4.80354
0
LINE
8
BLACK
6
CONTINUOUS
10
5.12047
20
-4.80354
11
5.1207
21
-4.79989
0
LINE
8
BLACK
6
CONTINUOUS
10
5.1207
20
-4.79989
11
5.12232
21
-4.79325
0
LINE
8
BLACK
6
CONTINUOUS
10
5.12232
20
-4.79325
11
5.12543
21
-4.78716
0
LINE
8
BLACK
6
CONTINUOUS
10
5.12543
20
-4.78716
11
5.12986
21
-4.78195
0
LINE
8
BLACK
6
CONTINUOUS
10
5.12986
20
-4.78195
11
5.13537
21
-4.77789
0
LINE
8
BLACK
6
CONTINUOUS
10
5.13537
20
-4.77789
11
5.14166
21
-4.77522
0
LINE
8
BLACK
6
CONTINUOUS
10
5.14166
20
-4.77522
11
5.1484
21
-4.77406
0
LINE
8
BLACK
6
CONTINUOUS
10
5.1484
20
-4.77406
11
5.15523
21
-4.77448
0
LINE
8
BLACK
6
CONTINUOUS
10
5.00523
20
-4.77448
11
5.01177
21
-4.77646
0
LINE
8
BLACK
6
CONTINUOUS
10
5.01177
20
-4.77646
11
5.01769
21
-4.7799
0
LINE
8
BLACK
6
CONTINUOUS
10
5.01769
20
-4.7799
11
5.02265
21
-4.7846
0
LINE
8
BLACK
6
CONTINUOUS
10
5.02265
20
-4.7846
11
5.0264
21
-4.79032
0
LINE
8
BLACK
6
CONTINUOUS
10
5.0264
20
-4.79032
11
5.02874
21
-4.79675
0
LINE
8
BLACK
6
CONTINUOUS
10
5.02874
20
-4.79675
11
5.02953
21
-4.80354
0
LINE
8
BLACK
6
CONTINUOUS
10
5.02953
20
-4.80354
11
5.02953
21
-4.81142
0
LINE
8
BLACK
6
CONTINUOUS
10
5.02953
20
-4.81142
11
5.0293
21
-4.81507
0
LINE
8
BLACK
6
CONTINUOUS
10
5.0293
20
-4.81507
11
5.02768
21
-4.82171
0
LINE
8
BLACK
6
CONTINUOUS
10
5.02768
20
-4.82171
11
5.02457
21
-4.8278
0
LINE
8
BLACK
6
CONTINUOUS
10
5.02457
20
-4.8278
11
5.02014
21
-4.83301
0
LINE
8
BLACK
6
CONTINUOUS
10
5.02014
20
-4.83301
11
5.01463
21
-4.83707
0
LINE
8
BLACK
6
CONTINUOUS
10
5.01463
20
-4.83707
11
5.00834
21
-4.83974
0
LINE
8
BLACK
6
CONTINUOUS
10
5.00834
20
-4.83974
11
5.0016
21
-4.8409
0
LINE
8
BLACK
6
CONTINUOUS
10
5.0016
20
-4.8409
11
4.99477
21
-4.84048
0
LINE
8
BLACK
6
CONTINUOUS
10
4.99477
20
-4.84048
11
4.98823
21
-4.8385
0
LINE
8
BLACK
6
CONTINUOUS
10
4.98823
20
-4.8385
11
4.98231
21
-4.83506
0
LINE
8
BLACK
6
CONTINUOUS
10
4.98231
20
-4.83506
11
4.97735
21
-4.83036
0
LINE
8
BLACK
6
CONTINUOUS
10
4.97735
20
-4.83036
11
4.9736
21
-4.82464
0
LINE
8
BLACK
6
CONTINUOUS
10
4.9736
20
-4.82464
11
4.97126
21
-4.81821
0
LINE
8
BLACK
6
CONTINUOUS
10
4.97126
20
-4.81821
11
4.97047
21
-4.81142
0
LINE
8
BLACK
6
CONTINUOUS
10
4.97047
20
-4.81142
11
4.97047
21
-4.80354
0
LINE
8
BLACK
6
CONTINUOUS
10
4.97047
20
-4.80354
11
4.9707
21
-4.79989
0
LINE
8
BLACK
6
CONTINUOUS
10
4.9707
20
-4.79989
11
4.97232
21
-4.79325
0
LINE
8
BLACK
6
CONTINUOUS
10
4.97232
20
-4.79325
11
4.97543
21
-4.78716
0
LINE
8
BLACK
6
CONTINUOUS
10
4.97543
20
-4.78716
11
4.97986
21
-4.78195
0
LINE
8
BLACK
6
CONTINUOUS
10
4.97986
20
-4.78195
11
4.98537
21
-4.77789
0
LINE
8
BLACK
6
CONTINUOUS
10
4.98537
20
-4.77789
11
4.99166
21
-4.77522
0
LINE
8
BLACK
6
CONTINUOUS
10
4.99166
20
-4.77522
11
4.9984
21
-4.77406
0
LINE
8
BLACK
6
CONTINUOUS
10
4.9984
20
-4.77406
11
5.00523
21
-4.77448
0
LINE
8
BLACK
6
CONTINUOUS
10
5.25222
20
-4.69159
11
5.26143
21
-4.69323
0
LINE
8
BLACK
6
CONTINUOUS
10
5.26143
20
-4.69323
11
5.27025
21
-4.69636
0
LINE
8
BLACK
6
CONTINUOUS
10
5.27025
20
-4.69636
11
5.27844
21
-4.70088
0
LINE
8
BLACK
6
CONTINUOUS
10
5.27844
20
-4.70088
11
5.28578
21
-4.70667
0
LINE
8
BLACK
6
CONTINUOUS
10
5.28578
20
-4.70667
11
5.29208
21
-4.71359
0
LINE
8
BLACK
6
CONTINUOUS
10
5.29208
20
-4.71359
11
5.29716
21
-4.72145
0
LINE
8
BLACK
6
CONTINUOUS
10
5.29716
20
-4.72145
11
5.30089
21
-4.73003
0
LINE
8
BLACK
6
CONTINUOUS
10
5.30089
20
-4.73003
11
5.30317
21
-4.7391
0
LINE
8
BLACK
6
CONTINUOUS
10
5.30317
20
-4.7391
11
5.30394
21
-4.74843
0
LINE
8
BLACK
6
CONTINUOUS
10
5.30394
20
-4.74843
11
5.30387
21
-4.75121
0
LINE
8
BLACK
6
CONTINUOUS
10
5.30387
20
-4.75121
11
5.30265
21
-4.76049
0
LINE
8
BLACK
6
CONTINUOUS
10
5.30265
20
-4.76049
11
5.29993
21
-4.76944
0
LINE
8
BLACK
6
CONTINUOUS
10
5.29993
20
-4.76944
11
5.29578
21
-4.77783
0
LINE
8
BLACK
6
CONTINUOUS
10
5.29578
20
-4.77783
11
5.29032
21
-4.78542
0
LINE
8
BLACK
6
CONTINUOUS
10
5.29032
20
-4.78542
11
5.2837
21
-4.79203
0
LINE
8
BLACK
6
CONTINUOUS
10
5.2837
20
-4.79203
11
5.27608
21
-4.79746
0
LINE
8
BLACK
6
CONTINUOUS
10
5.27608
20
-4.79746
11
5.26768
21
-4.80158
0
LINE
8
BLACK
6
CONTINUOUS
10
5.26768
20
-4.80158
11
5.25872
21
-4.80426
0
LINE
8
BLACK
6
CONTINUOUS
10
5.25872
20
-4.80426
11
5.24944
21
-4.80545
0
LINE
8
BLACK
6
CONTINUOUS
10
5.24944
20
-4.80545
11
5.24009
21
-4.80511
0
LINE
8
BLACK
6
CONTINUOUS
10
5.24009
20
-4.80511
11
5.23092
21
-4.80325
0
LINE
8
BLACK
6
CONTINUOUS
10
5.23092
20
-4.80325
11
5.22218
21
-4.79991
0
LINE
8
BLACK
6
CONTINUOUS
10
5.22218
20
-4.79991
11
5.21411
21
-4.79519
0
LINE
8
BLACK
6
CONTINUOUS
10
5.21411
20
-4.79519
11
5.20691
21
-4.78921
0
LINE
8
BLACK
6
CONTINUOUS
10
5.20691
20
-4.78921
11
5.20078
21
-4.78214
0
LINE
8
BLACK
6
CONTINUOUS
10
5.20078
20
-4.78214
11
5.1959
21
-4.77416
0
LINE
8
BLACK
6
CONTINUOUS
10
5.1959
20
-4.77416
11
5.19238
21
-4.7655
0
LINE
8
BLACK
6
CONTINUOUS
10
5.19238
20
-4.7655
11
5.19032
21
-4.75637
0
LINE
8
BLACK
6
CONTINUOUS
10
5.19032
20
-4.75637
11
5.18978
21
-4.74703
0
LINE
8
BLACK
6
CONTINUOUS
10
5.18978
20
-4.74703
11
5.19077
21
-4.73773
0
LINE
8
BLACK
6
CONTINUOUS
10
5.19077
20
-4.73773
11
5.19327
21
-4.72871
0
LINE
8
BLACK
6
CONTINUOUS
10
5.19327
20
-4.72871
11
5.19721
21
-4.72023
0
LINE
8
BLACK
6
CONTINUOUS
10
5.19721
20
-4.72023
11
5.20249
21
-4.7125
0
LINE
8
BLACK
6
CONTINUOUS
10
5.20249
20
-4.7125
11
5.20895
21
-4.70574
0
LINE
8
BLACK
6
CONTINUOUS
10
5.20895
20
-4.70574
11
5.21643
21
-4.70012
0
LINE
8
BLACK
6
CONTINUOUS
10
5.21643
20
-4.70012
11
5.22473
21
-4.6958
0
LINE
8
BLACK
6
CONTINUOUS
10
5.22473
20
-4.6958
11
5.23362
21
-4.69289
0
LINE
8
BLACK
6
CONTINUOUS
10
5.23362
20
-4.69289
11
5.24287
21
-4.69148
0
LINE
8
BLACK
6
CONTINUOUS
10
5.24287
20
-4.69148
11
5.25222
21
-4.69159
0
LINE
8
BLACK
6
CONTINUOUS
10
4.95523
20
-4.71543
11
4.96177
21
-4.71741
0
LINE
8
BLACK
6
CONTINUOUS
10
4.96177
20
-4.71741
11
4.96769
21
-4.72084
0
LINE
8
BLACK
6
CONTINUOUS
10
4.96769
20
-4.72084
11
4.97265
21
-4.72555
0
LINE
8
BLACK
6
CONTINUOUS
10
4.97265
20
-4.72555
11
4.9764
21
-4.73127
0
LINE
8
BLACK
6
CONTINUOUS
10
4.9764
20
-4.73127
11
4.97874
21
-4.7377
0
LINE
8
BLACK
6
CONTINUOUS
10
4.97874
20
-4.7377
11
4.97953
21
-4.74449
0
LINE
8
BLACK
6
CONTINUOUS
10
4.97953
20
-4.74449
11
4.97953
21
-4.75236
0
LINE
8
BLACK
6
CONTINUOUS
10
4.97953
20
-4.75236
11
4.9793
21
-4.75601
0
LINE
8
BLACK
6
CONTINUOUS
10
4.9793
20
-4.75601
11
4.97768
21
-4.76265
0
LINE
8
BLACK
6
CONTINUOUS
10
4.97768
20
-4.76265
11
4.97457
21
-4.76875
0
LINE
8
BLACK
6
CONTINUOUS
10
4.97457
20
-4.76875
11
4.97014
21
-4.77396
0
LINE
8
BLACK
6
CONTINUOUS
10
4.97014
20
-4.77396
11
4.96463
21
-4.77801
0
LINE
8
BLACK
6
CONTINUOUS
10
4.96463
20
-4.77801
11
4.95834
21
-4.78069
0
LINE
8
BLACK
6
CONTINUOUS
10
4.95834
20
-4.78069
11
4.9516
21
-4.78185
0
LINE
8
BLACK
6
CONTINUOUS
10
4.9516
20
-4.78185
11
4.94477
21
-4.78142
0
LINE
8
BLACK
6
CONTINUOUS
10
4.94477
20
-4.78142
11
4.93823
21
-4.77944
0
LINE
8
BLACK
6
CONTINUOUS
10
4.93823
20
-4.77944
11
4.93231
21
-4.77601
0
LINE
8
BLACK
6
CONTINUOUS
10
4.93231
20
-4.77601
11
4.92735
21
-4.7713
0
LINE
8
BLACK
6
CONTINUOUS
10
4.92735
20
-4.7713
11
4.92505
21
-4.7678
0
LINE
8
BLACK
6
CONTINUOUS
10
4.92505
20
-4.7678
11
4.92457
21
-4.76875
0
LINE
8
BLACK
6
CONTINUOUS
10
4.92457
20
-4.76875
11
4.92014
21
-4.77396
0
LINE
8
BLACK
6
CONTINUOUS
10
4.92014
20
-4.77396
11
4.91463
21
-4.77801
0
LINE
8
BLACK
6
CONTINUOUS
10
4.91463
20
-4.77801
11
4.90834
21
-4.78069
0
LINE
8
BLACK
6
CONTINUOUS
10
4.90834
20
-4.78069
11
4.9016
21
-4.78185
0
LINE
8
BLACK
6
CONTINUOUS
10
4.9016
20
-4.78185
11
4.89477
21
-4.78142
0
LINE
8
BLACK
6
CONTINUOUS
10
4.89477
20
-4.78142
11
4.88823
21
-4.77944
0
LINE
8
BLACK
6
CONTINUOUS
10
4.88823
20
-4.77944
11
4.88231
21
-4.77601
0
LINE
8
BLACK
6
CONTINUOUS
10
4.88231
20
-4.77601
11
4.87735
21
-4.7713
0
LINE
8
BLACK
6
CONTINUOUS
10
4.87735
20
-4.7713
11
4.8736
21
-4.76558
0
LINE
8
BLACK
6
CONTINUOUS
10
4.8736
20
-4.76558
11
4.87126
21
-4.75915
0
LINE
8
BLACK
6
CONTINUOUS
10
4.87126
20
-4.75915
11
4.87047
21
-4.75236
0
LINE
8
BLACK
6
CONTINUOUS
10
4.87047
20
-4.75236
11
4.87047
21
-4.74449
0
LINE
8
BLACK
6
CONTINUOUS
10
4.87047
20
-4.74449
11
4.8707
21
-4.74084
0
LINE
8
BLACK
6
CONTINUOUS
10
4.8707
20
-4.74084
11
4.87232
21
-4.7342
0
LINE
8
BLACK
6
CONTINUOUS
10
4.87232
20
-4.7342
11
4.87543
21
-4.72811
0
LINE
8
BLACK
6
CONTINUOUS
10
4.87543
20
-4.72811
11
4.87986
21
-4.72289
0
LINE
8
BLACK
6
CONTINUOUS
10
4.87986
20
-4.72289
11
4.88537
21
-4.71884
0
LINE
8
BLACK
6
CONTINUOUS
10
4.88537
20
-4.71884
11
4.89166
21
-4.71616
0
LINE
8
BLACK
6
CONTINUOUS
10
4.89166
20
-4.71616
11
4.8984
21
-4.715
0
LINE
8
BLACK
6
CONTINUOUS
10
4.8984
20
-4.715
11
4.90523
21
-4.71543
0
LINE
8
BLACK
6
CONTINUOUS
10
4.90523
20
-4.71543
11
4.91177
21
-4.71741
0
LINE
8
BLACK
6
CONTINUOUS
10
4.91177
20
-4.71741
11
4.91769
21
-4.72084
0
LINE
8
BLACK
6
CONTINUOUS
10
4.91769
20
-4.72084
11
4.92265
21
-4.72555
0
LINE
8
BLACK
6
CONTINUOUS
10
4.92265
20
-4.72555
11
4.92495
21
-4.72905
0
LINE
8
BLACK
6
CONTINUOUS
10
4.92495
20
-4.72905
11
4.92543
21
-4.72811
0
LINE
8
BLACK
6
CONTINUOUS
10
4.92543
20
-4.72811
11
4.92986
21
-4.72289
0
LINE
8
BLACK
6
CONTINUOUS
10
4.92986
20
-4.72289
11
4.93537
21
-4.71884
0
LINE
8
BLACK
6
CONTINUOUS
10
4.93537
20
-4.71884
11
4.94166
21
-4.71616
0
LINE
8
BLACK
6
CONTINUOUS
10
4.94166
20
-4.71616
11
4.9484
21
-4.715
0
LINE
8
BLACK
6
CONTINUOUS
10
4.9484
20
-4.715
11
4.95523
21
-4.71543
0
LINE
8
BLACK
6
CONTINUOUS
10
5.10523
20
-4.71543
11
5.11177
21
-4.71741
0
LINE
8
BLACK
6
CONTINUOUS
10
5.11177
20
-4.71741
11
5.11769
21
-4.72084
0
LINE
8
BLACK
6
CONTINUOUS
10
5.11769
20
-4.72084
11
5.12265
21
-4.72555
0
LINE
8
BLACK
6
CONTINUOUS
10
5.12265
20
-4.72555
11
5.1264
21
-4.73127
0
LINE
8
BLACK
6
CONTINUOUS
10
5.1264
20
-4.73127
11
5.12874
21
-4.7377
0
LINE
8
BLACK
6
CONTINUOUS
10
5.12874
20
-4.7377
11
5.12953
21
-4.74449
0
LINE
8
BLACK
6
CONTINUOUS
10
5.12953
20
-4.74449
11
5.12953
21
-4.75236
0
LINE
8
BLACK
6
CONTINUOUS
10
5.12953
20
-4.75236
11
5.1293
21
-4.75601
0
LINE
8
BLACK
6
CONTINUOUS
10
5.1293
20
-4.75601
11
5.12768
21
-4.76265
0
LINE
8
BLACK
6
CONTINUOUS
10
5.12768
20
-4.76265
11
5.12457
21
-4.76875
0
LINE
8
BLACK
6
CONTINUOUS
10
5.12457
20
-4.76875
11
5.12014
21
-4.77396
0
LINE
8
BLACK
6
CONTINUOUS
10
5.12014
20
-4.77396
11
5.11463
21
-4.77801
0
LINE
8
BLACK
6
CONTINUOUS
10
5.11463
20
-4.77801
11
5.10834
21
-4.78069
0
LINE
8
BLACK
6
CONTINUOUS
10
5.10834
20
-4.78069
11
5.1016
21
-4.78185
0
LINE
8
BLACK
6
CONTINUOUS
10
5.1016
20
-4.78185
11
5.09477
21
-4.78142
0
LINE
8
BLACK
6
CONTINUOUS
10
5.09477
20
-4.78142
11
5.08823
21
-4.77944
0
LINE
8
BLACK
6
CONTINUOUS
10
5.08823
20
-4.77944
11
5.08231
21
-4.77601
0
LINE
8
BLACK
6
CONTINUOUS
10
5.08231
20
-4.77601
11
5.07735
21
-4.7713
0
LINE
8
BLACK
6
CONTINUOUS
10
5.07735
20
-4.7713
11
5.07505
21
-4.7678
0
LINE
8
BLACK
6
CONTINUOUS
10
5.07505
20
-4.7678
11
5.07457
21
-4.76875
0
LINE
8
BLACK
6
CONTINUOUS
10
5.07457
20
-4.76875
11
5.07014
21
-4.77396
0
LINE
8
BLACK
6
CONTINUOUS
10
5.07014
20
-4.77396
11
5.06463
21
-4.77801
0
LINE
8
BLACK
6
CONTINUOUS
10
5.06463
20
-4.77801
11
5.05834
21
-4.78069
0
LINE
8
BLACK
6
CONTINUOUS
10
5.05834
20
-4.78069
11
5.0516
21
-4.78185
0
LINE
8
BLACK
6
CONTINUOUS
10
5.0516
20
-4.78185
11
5.04477
21
-4.78142
0
LINE
8
BLACK
6
CONTINUOUS
10
5.04477
20
-4.78142
11
5.03823
21
-4.77944
0
LINE
8
BLACK
6
CONTINUOUS
10
5.03823
20
-4.77944
11
5.03231
21
-4.77601
0
LINE
8
BLACK
6
CONTINUOUS
10
5.03231
20
-4.77601
11
5.02735
21
-4.7713
0
LINE
8
BLACK
6
CONTINUOUS
10
5.02735
20
-4.7713
11
5.0236
21
-4.76558
0
LINE
8
BLACK
6
CONTINUOUS
10
5.0236
20
-4.76558
11
5.02126
21
-4.75915
0
LINE
8
BLACK
6
CONTINUOUS
10
5.02126
20
-4.75915
11
5.02047
21
-4.75236
0
LINE
8
BLACK
6
CONTINUOUS
10
5.02047
20
-4.75236
11
5.02047
21
-4.74449
0
LINE
8
BLACK
6
CONTINUOUS
10
5.02047
20
-4.74449
11
5.0207
21
-4.74084
0
LINE
8
BLACK
6
CONTINUOUS
10
5.0207
20
-4.74084
11
5.02232
21
-4.7342
0
LINE
8
BLACK
6
CONTINUOUS
10
5.02232
20
-4.7342
11
5.02543
21
-4.72811
0
LINE
8
BLACK
6
CONTINUOUS
10
5.02543
20
-4.72811
11
5.02986
21
-4.72289
0
LINE
8
BLACK
6
CONTINUOUS
10
5.02986
20
-4.72289
11
5.03537
21
-4.71884
0
LINE
8
BLACK
6
CONTINUOUS
10
5.03537
20
-4.71884
11
5.04166
21
-4.71616
0
LINE
8
BLACK
6
CONTINUOUS
10
5.04166
20
-4.71616
11
5.0484
21
-4.715
0
LINE
8
BLACK
6
CONTINUOUS
10
5.0484
20
-4.715
11
5.05523
21
-4.71543
0
LINE
8
BLACK
6
CONTINUOUS
10
5.05523
20
-4.71543
11
5.06177
21
-4.71741
0
LINE
8
BLACK
6
CONTINUOUS
10
5.06177
20
-4.71741
11
5.06769
21
-4.72084
0
LINE
8
BLACK
6
CONTINUOUS
10
5.06769
20
-4.72084
11
5.07265
21
-4.72555
0
LINE
8
BLACK
6
CONTINUOUS
10
5.07265
20
-4.72555
11
5.07495
21
-4.72905
0
LINE
8
BLACK
6
CONTINUOUS
10
5.07495
20
-4.72905
11
5.07543
21
-4.72811
0
LINE
8
BLACK
6
CONTINUOUS
10
5.07543
20
-4.72811
11
5.07986
21
-4.72289
0
LINE
8
BLACK
6
CONTINUOUS
10
5.07986
20
-4.72289
11
5.08537
21
-4.71884
0
LINE
8
BLACK
6
CONTINUOUS
10
5.08537
20
-4.71884
11
5.09166
21
-4.71616
0
LINE
8
BLACK
6
CONTINUOUS
10
5.09166
20
-4.71616
11
5.0984
21
-4.715
0
LINE
8
BLACK
6
CONTINUOUS
10
5.0984
20
-4.715
11
5.10523
21
-4.71543
0
LINE
8
BLACK
6
CONTINUOUS
10
4.7471
20
-4.65222
11
4.75631
21
-4.65386
0
LINE
8
BLACK
6
CONTINUOUS
10
4.75631
20
-4.65386
11
4.76513
21
-4.65699
0
LINE
8
BLACK
6
CONTINUOUS
10
4.76513
20
-4.65699
11
4.77332
21
-4.66151
0
LINE
8
BLACK
6
CONTINUOUS
10
4.77332
20
-4.66151
11
4.78067
21
-4.6673
0
LINE
8
BLACK
6
CONTINUOUS
10
4.78067
20
-4.6673
11
4.78696
21
-4.67422
0
LINE
8
BLACK
6
CONTINUOUS
10
4.78696
20
-4.67422
11
4.79204
21
-4.68208
0
LINE
8
BLACK
6
CONTINUOUS
10
4.79204
20
-4.68208
11
4.79577
21
-4.69066
0
LINE
8
BLACK
6
CONTINUOUS
10
4.79577
20
-4.69066
11
4.79805
21
-4.69973
0
LINE
8
BLACK
6
CONTINUOUS
10
4.79805
20
-4.69973
11
4.79882
21
-4.70906
0
LINE
8
BLACK
6
CONTINUOUS
10
4.79882
20
-4.70906
11
4.79875
21
-4.71184
0
LINE
8
BLACK
6
CONTINUOUS
10
4.79875
20
-4.71184
11
4.79753
21
-4.72112
0
LINE
8
BLACK
6
CONTINUOUS
10
4.79753
20
-4.72112
11
4.79481
21
-4.73007
0
LINE
8
BLACK
6
CONTINUOUS
10
4.79481
20
-4.73007
11
4.79067
21
-4.73846
0
LINE
8
BLACK
6
CONTINUOUS
10
4.79067
20
-4.73846
11
4.78521
21
-4.74605
0
LINE
8
BLACK
6
CONTINUOUS
10
4.78521
20
-4.74605
11
4.77858
21
-4.75266
0
LINE
8
BLACK
6
CONTINUOUS
10
4.77858
20
-4.75266
11
4.77096
21
-4.75809
0
LINE
8
BLACK
6
CONTINUOUS
10
4.77096
20
-4.75809
11
4.76256
21
-4.76221
0
LINE
8
BLACK
6
CONTINUOUS
10
4.76256
20
-4.76221
11
4.7536
21
-4.76489
0
LINE
8
BLACK
6
CONTINUOUS
10
4.7536
20
-4.76489
11
4.74432
21
-4.76608
0
LINE
8
BLACK
6
CONTINUOUS
10
4.74432
20
-4.76608
11
4.73497
21
-4.76574
0
LINE
8
BLACK
6
CONTINUOUS
10
4.73497
20
-4.76574
11
4.72581
21
-4.76388
0
LINE
8
BLACK
6
CONTINUOUS
10
4.72581
20
-4.76388
11
4.71707
21
-4.76054
0
LINE
8
BLACK
6
CONTINUOUS
10
4.71707
20
-4.76054
11
4.70899
21
-4.75582
0
LINE
8
BLACK
6
CONTINUOUS
10
4.70899
20
-4.75582
11
4.70179
21
-4.74984
0
LINE
8
BLACK
6
CONTINUOUS
10
4.70179
20
-4.74984
11
4.69567
21
-4.74277
0
LINE
8
BLACK
6
CONTINUOUS
10
4.69567
20
-4.74277
11
4.69078
21
-4.73479
0
LINE
8
BLACK
6
CONTINUOUS
10
4.69078
20
-4.73479
11
4.68726
21
-4.72613
0
LINE
8
BLACK
6
CONTINUOUS
10
4.68726
20
-4.72613
11
4.6852
21
-4.717
0
LINE
8
BLACK
6
CONTINUOUS
10
4.6852
20
-4.717
11
4.68466
21
-4.70766
0
LINE
8
BLACK
6
CONTINUOUS
10
4.68466
20
-4.70766
11
4.68566
21
-4.69836
0
LINE
8
BLACK
6
CONTINUOUS
10
4.68566
20
-4.69836
11
4.68816
21
-4.68934
0
LINE
8
BLACK
6
CONTINUOUS
10
4.68816
20
-4.68934
11
4.6921
21
-4.68086
0
LINE
8
BLACK
6
CONTINUOUS
10
4.6921
20
-4.68086
11
4.69737
21
-4.67313
0
LINE
8
BLACK
6
CONTINUOUS
10
4.69737
20
-4.67313
11
4.70383
21
-4.66637
0
LINE
8
BLACK
6
CONTINUOUS
10
4.70383
20
-4.66637
11
4.71131
21
-4.66075
0
LINE
8
BLACK
6
CONTINUOUS
10
4.71131
20
-4.66075
11
4.71961
21
-4.65643
0
LINE
8
BLACK
6
CONTINUOUS
10
4.71961
20
-4.65643
11
4.7285
21
-4.65352
0
LINE
8
BLACK
6
CONTINUOUS
10
4.7285
20
-4.65352
11
4.73775
21
-4.65211
0
LINE
8
BLACK
6
CONTINUOUS
10
4.73775
20
-4.65211
11
4.7471
21
-4.65222
0
LINE
8
BLACK
6
CONTINUOUS
10
6.09901
20
-4.68273
11
6.10157
21
-4.68443
0
LINE
8
BLACK
6
CONTINUOUS
10
6.10157
20
-4.68443
11
6.10327
21
-4.68699
0
LINE
8
BLACK
6
CONTINUOUS
10
6.10327
20
-4.68699
11
6.10387
21
-4.69
0
LINE
8
BLACK
6
CONTINUOUS
10
6.10387
20
-4.69
11
6.10387
21
-4.75
0
LINE
8
BLACK
6
CONTINUOUS
10
6.10387
20
-4.75
11
6.10327
21
-4.75301
0
LINE
8
BLACK
6
CONTINUOUS
10
6.10327
20
-4.75301
11
6.10157
21
-4.75557
0
LINE
8
BLACK
6
CONTINUOUS
10
6.10157
20
-4.75557
11
6.09901
21
-4.75727
0
LINE
8
BLACK
6
CONTINUOUS
10
6.09901
20
-4.75727
11
6.096
21
-4.75787
0
LINE
8
BLACK
6
CONTINUOUS
10
6.096
20
-4.75787
11
6.036
21
-4.75787
0
LINE
8
BLACK
6
CONTINUOUS
10
6.036
20
-4.75787
11
6.03299
21
-4.75727
0
LINE
8
BLACK
6
CONTINUOUS
10
6.03299
20
-4.75727
11
6.03043
21
-4.75557
0
LINE
8
BLACK
6
CONTINUOUS
10
6.03043
20
-4.75557
11
6.02873
21
-4.75301
0
LINE
8
BLACK
6
CONTINUOUS
10
6.02873
20
-4.75301
11
6.02813
21
-4.75
0
LINE
8
BLACK
6
CONTINUOUS
10
6.02813
20
-4.75
11
6.02813
21
-4.69
0
LINE
8
BLACK
6
CONTINUOUS
10
6.02813
20
-4.69
11
6.02873
21
-4.68699
0
LINE
8
BLACK
6
CONTINUOUS
10
6.02873
20
-4.68699
11
6.03043
21
-4.68443
0
LINE
8
BLACK
6
CONTINUOUS
10
6.03043
20
-4.68443
11
6.03299
21
-4.68273
0
LINE
8
BLACK
6
CONTINUOUS
10
6.03299
20
-4.68273
11
6.036
21
-4.68213
0
LINE
8
BLACK
6
CONTINUOUS
10
6.036
20
-4.68213
11
6.096
21
-4.68213
0
LINE
8
BLACK
6
CONTINUOUS
10
6.096
20
-4.68213
11
6.09901
21
-4.68273
0
LINE
8
BLACK
6
CONTINUOUS
10
5.99901
20
-4.68273
11
6.00157
21
-4.68443
0
LINE
8
BLACK
6
CONTINUOUS
10
6.00157
20
-4.68443
11
6.00327
21
-4.68699
0
LINE
8
BLACK
6
CONTINUOUS
10
6.00327
20
-4.68699
11
6.00387
21
-4.69
0
LINE
8
BLACK
6
CONTINUOUS
10
6.00387
20
-4.69
11
6.00387
21
-4.75
0
LINE
8
BLACK
6
CONTINUOUS
10
6.00387
20
-4.75
11
6.00327
21
-4.75301
0
LINE
8
BLACK
6
CONTINUOUS
10
6.00327
20
-4.75301
11
6.00157
21
-4.75557
0
LINE
8
BLACK
6
CONTINUOUS
10
6.00157
20
-4.75557
11
5.99901
21
-4.75727
0
LINE
8
BLACK
6
CONTINUOUS
10
5.99901
20
-4.75727
11
5.996
21
-4.75787
0
LINE
8
BLACK
6
CONTINUOUS
10
5.996
20
-4.75787
11
5.936
21
-4.75787
0
LINE
8
BLACK
6
CONTINUOUS
10
5.936
20
-4.75787
11
5.93299
21
-4.75727
0
LINE
8
BLACK
6
CONTINUOUS
10
5.93299
20
-4.75727
11
5.93043
21
-4.75557
0
LINE
8
BLACK
6
CONTINUOUS
10
5.93043
20
-4.75557
11
5.92873
21
-4.75301
0
LINE
8
BLACK
6
CONTINUOUS
10
5.92873
20
-4.75301
11
5.92813
21
-4.75
0
LINE
8
BLACK
6
CONTINUOUS
10
5.92813
20
-4.75
11
5.92813
21
-4.69
0
LINE
8
BLACK
6
CONTINUOUS
10
5.92813
20
-4.69
11
5.92873
21
-4.68699
0
LINE
8
BLACK
6
CONTINUOUS
10
5.92873
20
-4.68699
11
5.93043
21
-4.68443
0
LINE
8
BLACK
6
CONTINUOUS
10
5.93043
20
-4.68443
11
5.93299
21
-4.68273
0
LINE
8
BLACK
6
CONTINUOUS
10
5.93299
20
-4.68273
11
5.936
21
-4.68213
0
LINE
8
BLACK
6
CONTINUOUS
10
5.936
20
-4.68213
11
5.996
21
-4.68213
0
LINE
8
BLACK
6
CONTINUOUS
10
5.996
20
-4.68213
11
5.99901
21
-4.68273
0
LINE
8
BLACK
6
CONTINUOUS
10
5.59592
20
-4.62939
11
5.60513
21
-4.63103
0
LINE
8
BLACK
6
CONTINUOUS
10
5.60513
20
-4.63103
11
5.61395
21
-4.63415
0
LINE
8
BLACK
6
CONTINUOUS
10
5.61395
20
-4.63415
11
5.62214
21
-4.63867
0
LINE
8
BLACK
6
CONTINUOUS
10
5.62214
20
-4.63867
11
5.62948
21
-4.64447
0
LINE
8
BLACK
6
CONTINUOUS
10
5.62948
20
-4.64447
11
5.63578
21
-4.65139
0
LINE
8
BLACK
6
CONTINUOUS
10
5.63578
20
-4.65139
11
5.64086
21
-4.65924
0
LINE
8
BLACK
6
CONTINUOUS
10
5.64086
20
-4.65924
11
5.64459
21
-4.66782
0
LINE
8
BLACK
6
CONTINUOUS
10
5.64459
20
-4.66782
11
5.64687
21
-4.6769
0
LINE
8
BLACK
6
CONTINUOUS
10
5.64687
20
-4.6769
11
5.64764
21
-4.68622
0
LINE
8
BLACK
6
CONTINUOUS
10
5.64764
20
-4.68622
11
5.64757
21
-4.68901
0
LINE
8
BLACK
6
CONTINUOUS
10
5.64757
20
-4.68901
11
5.64635
21
-4.69828
0
LINE
8
BLACK
6
CONTINUOUS
10
5.64635
20
-4.69828
11
5.64363
21
-4.70724
0
LINE
8
BLACK
6
CONTINUOUS
10
5.64363
20
-4.70724
11
5.63948
21
-4.71562
0
LINE
8
BLACK
6
CONTINUOUS
10
5.63948
20
-4.71562
11
5.63402
21
-4.72322
0
LINE
8
BLACK
6
CONTINUOUS
10
5.63402
20
-4.72322
11
5.6274
21
-4.72982
0
LINE
8
BLACK
6
CONTINUOUS
10
5.6274
20
-4.72982
11
5.61978
21
-4.73526
0
LINE
8
BLACK
6
CONTINUOUS
10
5.61978
20
-4.73526
11
5.61138
21
-4.73937
0
LINE
8
BLACK
6
CONTINUOUS
10
5.61138
20
-4.73937
11
5.60242
21
-4.74206
0
LINE
8
BLACK
6
CONTINUOUS
10
5.60242
20
-4.74206
11
5.59314
21
-4.74325
0
LINE
8
BLACK
6
CONTINUOUS
10
5.59314
20
-4.74325
11
5.58379
21
-4.74291
0
LINE
8
BLACK
6
CONTINUOUS
10
5.58379
20
-4.74291
11
5.57462
21
-4.74104
0
LINE
8
BLACK
6
CONTINUOUS
10
5.57462
20
-4.74104
11
5.56588
21
-4.7377
0
LINE
8
BLACK
6
CONTINUOUS
10
5.56588
20
-4.7377
11
5.55781
21
-4.73298
0
LINE
8
BLACK
6
CONTINUOUS
10
5.55781
20
-4.73298
11
5.55061
21
-4.72701
0
LINE
8
BLACK
6
CONTINUOUS
10
5.55061
20
-4.72701
11
5.54448
21
-4.71994
0
LINE
8
BLACK
6
CONTINUOUS
10
5.54448
20
-4.71994
11
5.5396
21
-4.71196
0
LINE
8
BLACK
6
CONTINUOUS
10
5.5396
20
-4.71196
11
5.53608
21
-4.70329
0
LINE
8
BLACK
6
CONTINUOUS
10
5.53608
20
-4.70329
11
5.53402
21
-4.69417
0
LINE
8
BLACK
6
CONTINUOUS
10
5.53402
20
-4.69417
11
5.53348
21
-4.68483
0
LINE
8
BLACK
6
CONTINUOUS
10
5.53348
20
-4.68483
11
5.53448
21
-4.67552
0
LINE
8
BLACK
6
CONTINUOUS
10
5.53448
20
-4.67552
11
5.53698
21
-4.66651
0
LINE
8
BLACK
6
CONTINUOUS
10
5.53698
20
-4.66651
11
5.54091
21
-4.65802
0
LINE
8
BLACK
6
CONTINUOUS
10
5.54091
20
-4.65802
11
5.54619
21
-4.65029
0
LINE
8
BLACK
6
CONTINUOUS
10
5.54619
20
-4.65029
11
5.55265
21
-4.64353
0
LINE
8
BLACK
6
CONTINUOUS
10
5.55265
20
-4.64353
11
5.56013
21
-4.63791
0
LINE
8
BLACK
6
CONTINUOUS
10
5.56013
20
-4.63791
11
5.56843
21
-4.63359
0
LINE
8
BLACK
6
CONTINUOUS
10
5.56843
20
-4.63359
11
5.57732
21
-4.63069
0
LINE
8
BLACK
6
CONTINUOUS
10
5.57732
20
-4.63069
11
5.58657
21
-4.62927
0
LINE
8
BLACK
6
CONTINUOUS
10
5.58657
20
-4.62927
11
5.59592
21
-4.62939
0
LINE
8
BLACK
6
CONTINUOUS
10
4.41482
20
-4.62939
11
4.42403
21
-4.63103
0
LINE
8
BLACK
6
CONTINUOUS
10
4.42403
20
-4.63103
11
4.43285
21
-4.63415
0
LINE
8
BLACK
6
CONTINUOUS
10
4.43285
20
-4.63415
11
4.44104
21
-4.63867
0
LINE
8
BLACK
6
CONTINUOUS
10
4.44104
20
-4.63867
11
4.44838
21
-4.64447
0
LINE
8
BLACK
6
CONTINUOUS
10
4.44838
20
-4.64447
11
4.45468
21
-4.65139
0
LINE
8
BLACK
6
CONTINUOUS
10
4.45468
20
-4.65139
11
4.45976
21
-4.65924
0
LINE
8
BLACK
6
CONTINUOUS
10
4.45976
20
-4.65924
11
4.46349
21
-4.66782
0
LINE
8
BLACK
6
CONTINUOUS
10
4.46349
20
-4.66782
11
4.46577
21
-4.6769
0
LINE
8
BLACK
6
CONTINUOUS
10
4.46577
20
-4.6769
11
4.46654
21
-4.68622
0
LINE
8
BLACK
6
CONTINUOUS
10
4.46654
20
-4.68622
11
4.46647
21
-4.68901
0
LINE
8
BLACK
6
CONTINUOUS
10
4.46647
20
-4.68901
11
4.46525
21
-4.69828
0
LINE
8
BLACK
6
CONTINUOUS
10
4.46525
20
-4.69828
11
4.46253
21
-4.70724
0
LINE
8
BLACK
6
CONTINUOUS
10
4.46253
20
-4.70724
11
4.45838
21
-4.71562
0
LINE
8
BLACK
6
CONTINUOUS
10
4.45838
20
-4.71562
11
4.45292
21
-4.72322
0
LINE
8
BLACK
6
CONTINUOUS
10
4.45292
20
-4.72322
11
4.4463
21
-4.72982
0
LINE
8
BLACK
6
CONTINUOUS
10
4.4463
20
-4.72982
11
4.43868
21
-4.73526
0
LINE
8
BLACK
6
CONTINUOUS
10
4.43868
20
-4.73526
11
4.43028
21
-4.73937
0
LINE
8
BLACK
6
CONTINUOUS
10
4.43028
20
-4.73937
11
4.42132
21
-4.74206
0
LINE
8
BLACK
6
CONTINUOUS
10
4.42132
20
-4.74206
11
4.41204
21
-4.74325
0
LINE
8
BLACK
6
CONTINUOUS
10
4.41204
20
-4.74325
11
4.40269
21
-4.74291
0
LINE
8
BLACK
6
CONTINUOUS
10
4.40269
20
-4.74291
11
4.39352
21
-4.74104
0
LINE
8
BLACK
6
CONTINUOUS
10
4.39352
20
-4.74104
11
4.38478
21
-4.7377
0
LINE
8
BLACK
6
CONTINUOUS
10
4.38478
20
-4.7377
11
4.37671
21
-4.73298
0
LINE
8
BLACK
6
CONTINUOUS
10
4.37671
20
-4.73298
11
4.36951
21
-4.72701
0
LINE
8
BLACK
6
CONTINUOUS
10
4.36951
20
-4.72701
11
4.36338
21
-4.71994
0
LINE
8
BLACK
6
CONTINUOUS
10
4.36338
20
-4.71994
11
4.35849
21
-4.71196
0
LINE
8
BLACK
6
CONTINUOUS
10
4.35849
20
-4.71196
11
4.35497
21
-4.70329
0
LINE
8
BLACK
6
CONTINUOUS
10
4.35497
20
-4.70329
11
4.35292
21
-4.69417
0
LINE
8
BLACK
6
CONTINUOUS
10
4.35292
20
-4.69417
11
4.35238
21
-4.68483
0
LINE
8
BLACK
6
CONTINUOUS
10
4.35238
20
-4.68483
11
4.35337
21
-4.67552
0
LINE
8
BLACK
6
CONTINUOUS
10
4.35337
20
-4.67552
11
4.35587
21
-4.66651
0
LINE
8
BLACK
6
CONTINUOUS
10
4.35587
20
-4.66651
11
4.35981
21
-4.65802
0
LINE
8
BLACK
6
CONTINUOUS
10
4.35981
20
-4.65802
11
4.36508
21
-4.65029
0
LINE
8
BLACK
6
CONTINUOUS
10
4.36508
20
-4.65029
11
4.37155
21
-4.64353
0
LINE
8
BLACK
6
CONTINUOUS
10
4.37155
20
-4.64353
11
4.37903
21
-4.63791
0
LINE
8
BLACK
6
CONTINUOUS
10
4.37903
20
-4.63791
11
4.38733
21
-4.63359
0
LINE
8
BLACK
6
CONTINUOUS
10
4.38733
20
-4.63359
11
4.39622
21
-4.63069
0
LINE
8
BLACK
6
CONTINUOUS
10
4.39622
20
-4.63069
11
4.40547
21
-4.62927
0
LINE
8
BLACK
6
CONTINUOUS
10
4.40547
20
-4.62927
11
4.41482
21
-4.62939
0
LINE
8
BLACK
6
CONTINUOUS
10
6.09901
20
-4.58273
11
6.10157
21
-4.58443
0
LINE
8
BLACK
6
CONTINUOUS
10
6.10157
20
-4.58443
11
6.10327
21
-4.58699
0
LINE
8
BLACK
6
CONTINUOUS
10
6.10327
20
-4.58699
11
6.10387
21
-4.59
0
LINE
8
BLACK
6
CONTINUOUS
10
6.10387
20
-4.59
11
6.10387
21
-4.65
0
LINE
8
BLACK
6
CONTINUOUS
10
6.10387
20
-4.65
11
6.10327
21
-4.65301
0
LINE
8
BLACK
6
CONTINUOUS
10
6.10327
20
-4.65301
11
6.10157
21
-4.65557
0
LINE
8
BLACK
6
CONTINUOUS
10
6.10157
20
-4.65557
11
6.09901
21
-4.65727
0
LINE
8
BLACK
6
CONTINUOUS
10
6.09901
20
-4.65727
11
6.096
21
-4.65787
0
LINE
8
BLACK
6
CONTINUOUS
10
6.096
20
-4.65787
11
6.036
21
-4.65787
0
LINE
8
BLACK
6
CONTINUOUS
10
6.036
20
-4.65787
11
6.03299
21
-4.65727
0
LINE
8
BLACK
6
CONTINUOUS
10
6.03299
20
-4.65727
11
6.03043
21
-4.65557
0
LINE
8
BLACK
6
CONTINUOUS
10
6.03043
20
-4.65557
11
6.02873
21
-4.65301
0
LINE
8
BLACK
6
CONTINUOUS
10
6.02873
20
-4.65301
11
6.02813
21
-4.65
0
LINE
8
BLACK
6
CONTINUOUS
10
6.02813
20
-4.65
11
6.02813
21
-4.59
0
LINE
8
BLACK
6
CONTINUOUS
10
6.02813
20
-4.59
11
6.02873
21
-4.58699
0
LINE
8
BLACK
6
CONTINUOUS
10
6.02873
20
-4.58699
11
6.03043
21
-4.58443
0
LINE
8
BLACK
6
CONTINUOUS
10
6.03043
20
-4.58443
11
6.03299
21
-4.58273
0
LINE
8
BLACK
6
CONTINUOUS
10
6.03299
20
-4.58273
11
6.036
21
-4.58213
0
LINE
8
BLACK
6
CONTINUOUS
10
6.036
20
-4.58213
11
6.096
21
-4.58213
0
LINE
8
BLACK
6
CONTINUOUS
10
6.096
20
-4.58213
11
6.09901
21
-4.58273
0
LINE
8
BLACK
6
CONTINUOUS
10
5.99901
20
-4.58273
11
6.00157
21
-4.58443
0
LINE
8
BLACK
6
CONTINUOUS
10
6.00157
20
-4.58443
11
6.00327
21
-4.58699
0
LINE
8
BLACK
6
CONTINUOUS
10
6.00327
20
-4.58699
11
6.00387
21
-4.59
0
LINE
8
BLACK
6
CONTINUOUS
10
6.00387
20
-4.59
11
6.00387
21
-4.65
0
LINE
8
BLACK
6
CONTINUOUS
10
6.00387
20
-4.65
11
6.00327
21
-4.65301
0
LINE
8
BLACK
6
CONTINUOUS
10
6.00327
20
-4.65301
11
6.00157
21
-4.65557
0
LINE
8
BLACK
6
CONTINUOUS
10
6.00157
20
-4.65557
11
5.99901
21
-4.65727
0
LINE
8
BLACK
6
CONTINUOUS
10
5.99901
20
-4.65727
11
5.996
21
-4.65787
0
LINE
8
BLACK
6
CONTINUOUS
10
5.996
20
-4.65787
11
5.936
21
-4.65787
0
LINE
8
BLACK
6
CONTINUOUS
10
5.936
20
-4.65787
11
5.93299
21
-4.65727
0
LINE
8
BLACK
6
CONTINUOUS
10
5.93299
20
-4.65727
11
5.93043
21
-4.65557
0
LINE
8
BLACK
6
CONTINUOUS
10
5.93043
20
-4.65557
11
5.92873
21
-4.65301
0
LINE
8
BLACK
6
CONTINUOUS
10
5.92873
20
-4.65301
11
5.92813
21
-4.65
0
LINE
8
BLACK
6
CONTINUOUS
10
5.92813
20
-4.65
11
5.92813
21
-4.59
0
LINE
8
BLACK
6
CONTINUOUS
10
5.92813
20
-4.59
11
5.92873
21
-4.58699
0
LINE
8
BLACK
6
CONTINUOUS
10
5.92873
20
-4.58699
11
5.93043
21
-4.58443
0
LINE
8
BLACK
6
CONTINUOUS
10
5.93043
20
-4.58443
11
5.93299
21
-4.58273
0
LINE
8
BLACK
6
CONTINUOUS
10
5.93299
20
-4.58273
11
5.936
21
-4.58213
0
LINE
8
BLACK
6
CONTINUOUS
10
5.936
20
-4.58213
11
5.996
21
-4.58213
0
LINE
8
BLACK
6
CONTINUOUS
10
5.996
20
-4.58213
11
5.99901
21
-4.58273
0
LINE
8
BLACK
6
CONTINUOUS
10
5.72445
20
-4.57265
11
5.73179
21
-4.57493
0
LINE
8
BLACK
6
CONTINUOUS
10
5.73179
20
-4.57493
11
5.73855
21
-4.57858
0
LINE
8
BLACK
6
CONTINUOUS
10
5.73855
20
-4.57858
11
5.74447
21
-4.58348
0
LINE
8
BLACK
6
CONTINUOUS
10
5.74447
20
-4.58348
11
5.74933
21
-4.58943
0
LINE
8
BLACK
6
CONTINUOUS
10
5.74933
20
-4.58943
11
5.75293
21
-4.59622
0
LINE
8
BLACK
6
CONTINUOUS
10
5.75293
20
-4.59622
11
5.75516
21
-4.60357
0
LINE
8
BLACK
6
CONTINUOUS
10
5.75516
20
-4.60357
11
5.75591
21
-4.61122
0
LINE
8
BLACK
6
CONTINUOUS
10
5.75591
20
-4.61122
11
5.75589
21
-4.61232
0
LINE
8
BLACK
6
CONTINUOUS
10
5.75589
20
-4.61232
11
5.75493
21
-4.61994
0
LINE
8
BLACK
6
CONTINUOUS
10
5.75493
20
-4.61994
11
5.7525
21
-4.62723
0
LINE
8
BLACK
6
CONTINUOUS
10
5.7525
20
-4.62723
11
5.74871
21
-4.63391
0
LINE
8
BLACK
6
CONTINUOUS
10
5.74871
20
-4.63391
11
5.74369
21
-4.63973
0
LINE
8
BLACK
6
CONTINUOUS
10
5.74369
20
-4.63973
11
5.73763
21
-4.64446
0
LINE
8
BLACK
6
CONTINUOUS
10
5.73763
20
-4.64446
11
5.73077
21
-4.64793
0
LINE
8
BLACK
6
CONTINUOUS
10
5.73077
20
-4.64793
11
5.72337
21
-4.64999
0
LINE
8
BLACK
6
CONTINUOUS
10
5.72337
20
-4.64999
11
5.71571
21
-4.65058
0
LINE
8
BLACK
6
CONTINUOUS
10
5.71571
20
-4.65058
11
5.70808
21
-4.64967
0
LINE
8
BLACK
6
CONTINUOUS
10
5.70808
20
-4.64967
11
5.70077
21
-4.6473
0
LINE
8
BLACK
6
CONTINUOUS
10
5.70077
20
-4.6473
11
5.69407
21
-4.64355
0
LINE
8
BLACK
6
CONTINUOUS
10
5.69407
20
-4.64355
11
5.68821
21
-4.63857
0
LINE
8
BLACK
6
CONTINUOUS
10
5.68821
20
-4.63857
11
5.68344
21
-4.63255
0
LINE
8
BLACK
6
CONTINUOUS
10
5.68344
20
-4.63255
11
5.67993
21
-4.62571
0
LINE
8
BLACK
6
CONTINUOUS
10
5.67993
20
-4.62571
11
5.67781
21
-4.61833
0
LINE
8
BLACK
6
CONTINUOUS
10
5.67781
20
-4.61833
11
5.67717
21
-4.61067
0
LINE
8
BLACK
6
CONTINUOUS
10
5.67717
20
-4.61067
11
5.67803
21
-4.60303
0
LINE
8
BLACK
6
CONTINUOUS
10
5.67803
20
-4.60303
11
5.68035
21
-4.59571
0
LINE
8
BLACK
6
CONTINUOUS
10
5.68035
20
-4.59571
11
5.68405
21
-4.58898
0
LINE
8
BLACK
6
CONTINUOUS
10
5.68405
20
-4.58898
11
5.68899
21
-4.58309
0
LINE
8
BLACK
6
CONTINUOUS
10
5.68899
20
-4.58309
11
5.69498
21
-4.57828
0
LINE
8
BLACK
6
CONTINUOUS
10
5.69498
20
-4.57828
11
5.70179
21
-4.57472
0
LINE
8
BLACK
6
CONTINUOUS
10
5.70179
20
-4.57472
11
5.70916
21
-4.57255
0
LINE
8
BLACK
6
CONTINUOUS
10
5.70916
20
-4.57255
11
5.71681
21
-4.57185
0
LINE
8
BLACK
6
CONTINUOUS
10
5.71681
20
-4.57185
11
5.72445
21
-4.57265
0
LINE
8
BLACK
6
CONTINUOUS
10
4.29138
20
-4.57265
11
4.29872
21
-4.57493
0
LINE
8
BLACK
6
CONTINUOUS
10
4.29872
20
-4.57493
11
4.30548
21
-4.57858
0
LINE
8
BLACK
6
CONTINUOUS
10
4.30548
20
-4.57858
11
4.3114
21
-4.58348
0
LINE
8
BLACK
6
CONTINUOUS
10
4.3114
20
-4.58348
11
4.31626
21
-4.58943
0
LINE
8
BLACK
6
CONTINUOUS
10
4.31626
20
-4.58943
11
4.31986
21
-4.59622
0
LINE
8
BLACK
6
CONTINUOUS
10
4.31986
20
-4.59622
11
4.32208
21
-4.60357
0
LINE
8
BLACK
6
CONTINUOUS
10
4.32208
20
-4.60357
11
4.32283
21
-4.61122
0
LINE
8
BLACK
6
CONTINUOUS
10
4.32283
20
-4.61122
11
4.32282
21
-4.61232
0
LINE
8
BLACK
6
CONTINUOUS
10
4.32282
20
-4.61232
11
4.32186
21
-4.61994
0
LINE
8
BLACK
6
CONTINUOUS
10
4.32186
20
-4.61994
11
4.31943
21
-4.62723
0
LINE
8
BLACK
6
CONTINUOUS
10
4.31943
20
-4.62723
11
4.31564
21
-4.63391
0
LINE
8
BLACK
6
CONTINUOUS
10
4.31564
20
-4.63391
11
4.31061
21
-4.63973
0
LINE
8
BLACK
6
CONTINUOUS
10
4.31061
20
-4.63973
11
4.30456
21
-4.64446
0
LINE
8
BLACK
6
CONTINUOUS
10
4.30456
20
-4.64446
11
4.2977
21
-4.64793
0
LINE
8
BLACK
6
CONTINUOUS
10
4.2977
20
-4.64793
11
4.2903
21
-4.64999
0
LINE
8
BLACK
6
CONTINUOUS
10
4.2903
20
-4.64999
11
4.28264
21
-4.65058
0
LINE
8
BLACK
6
CONTINUOUS
10
4.28264
20
-4.65058
11
4.27501
21
-4.64967
0
LINE
8
BLACK
6
CONTINUOUS
10
4.27501
20
-4.64967
11
4.2677
21
-4.6473
0
LINE
8
BLACK
6
CONTINUOUS
10
4.2677
20
-4.6473
11
4.261
21
-4.64355
0
LINE
8
BLACK
6
CONTINUOUS
10
4.261
20
-4.64355
11
4.25514
21
-4.63857
0
LINE
8
BLACK
6
CONTINUOUS
10
4.25514
20
-4.63857
11
4.25037
21
-4.63255
0
LINE
8
BLACK
6
CONTINUOUS
10
4.25037
20
-4.63255
11
4.24686
21
-4.62571
0
LINE
8
BLACK
6
CONTINUOUS
10
4.24686
20
-4.62571
11
4.24474
21
-4.61833
0
LINE
8
BLACK
6
CONTINUOUS
10
4.24474
20
-4.61833
11
4.2441
21
-4.61067
0
LINE
8
BLACK
6
CONTINUOUS
10
4.2441
20
-4.61067
11
4.24495
21
-4.60303
0
LINE
8
BLACK
6
CONTINUOUS
10
4.24495
20
-4.60303
11
4.24728
21
-4.59571
0
LINE
8
BLACK
6
CONTINUOUS
10
4.24728
20
-4.59571
11
4.25098
21
-4.58898
0
LINE
8
BLACK
6
CONTINUOUS
10
4.25098
20
-4.58898
11
4.25592
21
-4.58309
0
LINE
8
BLACK
6
CONTINUOUS
10
4.25592
20
-4.58309
11
4.26191
21
-4.57828
0
LINE
8
BLACK
6
CONTINUOUS
10
4.26191
20
-4.57828
11
4.26872
21
-4.57472
0
LINE
8
BLACK
6
CONTINUOUS
10
4.26872
20
-4.57472
11
4.27609
21
-4.57255
0
LINE
8
BLACK
6
CONTINUOUS
10
4.27609
20
-4.57255
11
4.28374
21
-4.57185
0
LINE
8
BLACK
6
CONTINUOUS
10
4.28374
20
-4.57185
11
4.29138
21
-4.57265
0
LINE
8
BLACK
6
CONTINUOUS
10
5.59592
20
-4.47939
11
5.60513
21
-4.48103
0
LINE
8
BLACK
6
CONTINUOUS
10
5.60513
20
-4.48103
11
5.61395
21
-4.48415
0
LINE
8
BLACK
6
CONTINUOUS
10
5.61395
20
-4.48415
11
5.62214
21
-4.48867
0
LINE
8
BLACK
6
CONTINUOUS
10
5.62214
20
-4.48867
11
5.62948
21
-4.49447
0
LINE
8
BLACK
6
CONTINUOUS
10
5.62948
20
-4.49447
11
5.63578
21
-4.50139
0
LINE
8
BLACK
6
CONTINUOUS
10
5.63578
20
-4.50139
11
5.64086
21
-4.50924
0
LINE
8
BLACK
6
CONTINUOUS
10
5.64086
20
-4.50924
11
5.64459
21
-4.51782
0
LINE
8
BLACK
6
CONTINUOUS
10
5.64459
20
-4.51782
11
5.64687
21
-4.5269
0
LINE
8
BLACK
6
CONTINUOUS
10
5.64687
20
-4.5269
11
5.64764
21
-4.53622
0
LINE
8
BLACK
6
CONTINUOUS
10
5.64764
20
-4.53622
11
5.64757
21
-4.53901
0
LINE
8
BLACK
6
CONTINUOUS
10
5.64757
20
-4.53901
11
5.64635
21
-4.54828
0
LINE
8
BLACK
6
CONTINUOUS
10
5.64635
20
-4.54828
11
5.64363
21
-4.55724
0
LINE
8
BLACK
6
CONTINUOUS
10
5.64363
20
-4.55724
11
5.63948
21
-4.56562
0
LINE
8
BLACK
6
CONTINUOUS
10
5.63948
20
-4.56562
11
5.63402
21
-4.57322
0
LINE
8
BLACK
6
CONTINUOUS
10
5.63402
20
-4.57322
11
5.6274
21
-4.57982
0
LINE
8
BLACK
6
CONTINUOUS
10
5.6274
20
-4.57982
11
5.61978
21
-4.58526
0
LINE
8
BLACK
6
CONTINUOUS
10
5.61978
20
-4.58526
11
5.61138
21
-4.58937
0
LINE
8
BLACK
6
CONTINUOUS
10
5.61138
20
-4.58937
11
5.60242
21
-4.59206
0
LINE
8
BLACK
6
CONTINUOUS
10
5.60242
20
-4.59206
11
5.59314
21
-4.59325
0
LINE
8
BLACK
6
CONTINUOUS
10
5.59314
20
-4.59325
11
5.58379
21
-4.59291
0
LINE
8
BLACK
6
CONTINUOUS
10
5.58379
20
-4.59291
11
5.57462
21
-4.59104
0
LINE
8
BLACK
6
CONTINUOUS
10
5.57462
20
-4.59104
11
5.56588
21
-4.5877
0
LINE
8
BLACK
6
CONTINUOUS
10
5.56588
20
-4.5877
11
5.55781
21
-4.58298
0
LINE
8
BLACK
6
CONTINUOUS
10
5.55781
20
-4.58298
11
5.55061
21
-4.57701
0
LINE
8
BLACK
6
CONTINUOUS
10
5.55061
20
-4.57701
11
5.54448
21
-4.56994
0
LINE
8
BLACK
6
CONTINUOUS
10
5.54448
20
-4.56994
11
5.5396
21
-4.56196
0
LINE
8
BLACK
6
CONTINUOUS
10
5.5396
20
-4.56196
11
5.53608
21
-4.55329
0
LINE
8
BLACK
6
CONTINUOUS
10
5.53608
20
-4.55329
11
5.53402
21
-4.54417
0
LINE
8
BLACK
6
CONTINUOUS
10
5.53402
20
-4.54417
11
5.53348
21
-4.53483
0
LINE
8
BLACK
6
CONTINUOUS
10
5.53348
20
-4.53483
11
5.53448
21
-4.52552
0
LINE
8
BLACK
6
CONTINUOUS
10
5.53448
20
-4.52552
11
5.53698
21
-4.51651
0
LINE
8
BLACK
6
CONTINUOUS
10
5.53698
20
-4.51651
11
5.54091
21
-4.50802
0
LINE
8
BLACK
6
CONTINUOUS
10
5.54091
20
-4.50802
11
5.54619
21
-4.50029
0
LINE
8
BLACK
6
CONTINUOUS
10
5.54619
20
-4.50029
11
5.55265
21
-4.49353
0
LINE
8
BLACK
6
CONTINUOUS
10
5.55265
20
-4.49353
11
5.56013
21
-4.48791
0
LINE
8
BLACK
6
CONTINUOUS
10
5.56013
20
-4.48791
11
5.56843
21
-4.48359
0
LINE
8
BLACK
6
CONTINUOUS
10
5.56843
20
-4.48359
11
5.57732
21
-4.48069
0
LINE
8
BLACK
6
CONTINUOUS
10
5.57732
20
-4.48069
11
5.58657
21
-4.47927
0
LINE
8
BLACK
6
CONTINUOUS
10
5.58657
20
-4.47927
11
5.59592
21
-4.47939
0
LINE
8
BLACK
6
CONTINUOUS
10
4.41482
20
-4.47939
11
4.42403
21
-4.48103
0
LINE
8
BLACK
6
CONTINUOUS
10
4.42403
20
-4.48103
11
4.43285
21
-4.48415
0
LINE
8
BLACK
6
CONTINUOUS
10
4.43285
20
-4.48415
11
4.44104
21
-4.48867
0
LINE
8
BLACK
6
CONTINUOUS
10
4.44104
20
-4.48867
11
4.44838
21
-4.49447
0
LINE
8
BLACK
6
CONTINUOUS
10
4.44838
20
-4.49447
11
4.45468
21
-4.50139
0
LINE
8
BLACK
6
CONTINUOUS
10
4.45468
20
-4.50139
11
4.45976
21
-4.50924
0
LINE
8
BLACK
6
CONTINUOUS
10
4.45976
20
-4.50924
11
4.46349
21
-4.51782
0
LINE
8
BLACK
6
CONTINUOUS
10
4.46349
20
-4.51782
11
4.46577
21
-4.5269
0
LINE
8
BLACK
6
CONTINUOUS
10
4.46577
20
-4.5269
11
4.46654
21
-4.53622
0
LINE
8
BLACK
6
CONTINUOUS
10
4.46654
20
-4.53622
11
4.46647
21
-4.53901
0
LINE
8
BLACK
6
CONTINUOUS
10
4.46647
20
-4.53901
11
4.46525
21
-4.54828
0
LINE
8
BLACK
6
CONTINUOUS
10
4.46525
20
-4.54828
11
4.46253
21
-4.55724
0
LINE
8
BLACK
6
CONTINUOUS
10
4.46253
20
-4.55724
11
4.45838
21
-4.56562
0
LINE
8
BLACK
6
CONTINUOUS
10
4.45838
20
-4.56562
11
4.45292
21
-4.57322
0
LINE
8
BLACK
6
CONTINUOUS
10
4.45292
20
-4.57322
11
4.4463
21
-4.57982
0
LINE
8
BLACK
6
CONTINUOUS
10
4.4463
20
-4.57982
11
4.43868
21
-4.58526
0
LINE
8
BLACK
6
CONTINUOUS
10
4.43868
20
-4.58526
11
4.43028
21
-4.58937
0
LINE
8
BLACK
6
CONTINUOUS
10
4.43028
20
-4.58937
11
4.42132
21
-4.59206
0
LINE
8
BLACK
6
CONTINUOUS
10
4.42132
20
-4.59206
11
4.41204
21
-4.59325
0
LINE
8
BLACK
6
CONTINUOUS
10
4.41204
20
-4.59325
11
4.40269
21
-4.59291
0
LINE
8
BLACK
6
CONTINUOUS
10
4.40269
20
-4.59291
11
4.39352
21
-4.59104
0
LINE
8
BLACK
6
CONTINUOUS
10
4.39352
20
-4.59104
11
4.38478
21
-4.5877
0
LINE
8
BLACK
6
CONTINUOUS
10
4.38478
20
-4.5877
11
4.37671
21
-4.58298
0
LINE
8
BLACK
6
CONTINUOUS
10
4.37671
20
-4.58298
11
4.36951
21
-4.57701
0
LINE
8
BLACK
6
CONTINUOUS
10
4.36951
20
-4.57701
11
4.36338
21
-4.56994
0
LINE
8
BLACK
6
CONTINUOUS
10
4.36338
20
-4.56994
11
4.35849
21
-4.56196
0
LINE
8
BLACK
6
CONTINUOUS
10
4.35849
20
-4.56196
11
4.35497
21
-4.55329
0
LINE
8
BLACK
6
CONTINUOUS
10
4.35497
20
-4.55329
11
4.35292
21
-4.54417
0
LINE
8
BLACK
6
CONTINUOUS
10
4.35292
20
-4.54417
11
4.35238
21
-4.53483
0
LINE
8
BLACK
6
CONTINUOUS
10
4.35238
20
-4.53483
11
4.35337
21
-4.52552
0
LINE
8
BLACK
6
CONTINUOUS
10
4.35337
20
-4.52552
11
4.35587
21
-4.51651
0
LINE
8
BLACK
6
CONTINUOUS
10
4.35587
20
-4.51651
11
4.35981
21
-4.50802
0
LINE
8
BLACK
6
CONTINUOUS
10
4.35981
20
-4.50802
11
4.36508
21
-4.50029
0
LINE
8
BLACK
6
CONTINUOUS
10
4.36508
20
-4.50029
11
4.37155
21
-4.49353
0
LINE
8
BLACK
6
CONTINUOUS
10
4.37155
20
-4.49353
11
4.37903
21
-4.48791
0
LINE
8
BLACK
6
CONTINUOUS
10
4.37903
20
-4.48791
11
4.38733
21
-4.48359
0
LINE
8
BLACK
6
CONTINUOUS
10
4.38733
20
-4.48359
11
4.39622
21
-4.48069
0
LINE
8
BLACK
6
CONTINUOUS
10
4.39622
20
-4.48069
11
4.40547
21
-4.47927
0
LINE
8
BLACK
6
CONTINUOUS
10
4.40547
20
-4.47927
11
4.41482
21
-4.47939
0
LINE
8
BLACK
6
CONTINUOUS
10
5.99901
20
-4.48273
11
6.00157
21
-4.48443
0
LINE
8
BLACK
6
CONTINUOUS
10
6.00157
20
-4.48443
11
6.00327
21
-4.48699
0
LINE
8
BLACK
6
CONTINUOUS
10
6.00327
20
-4.48699
11
6.00387
21
-4.49
0
LINE
8
BLACK
6
CONTINUOUS
10
6.00387
20
-4.49
11
6.00387
21
-4.55
0
LINE
8
BLACK
6
CONTINUOUS
10
6.00387
20
-4.55
11
6.00327
21
-4.55301
0
LINE
8
BLACK
6
CONTINUOUS
10
6.00327
20
-4.55301
11
6.00157
21
-4.55557
0
LINE
8
BLACK
6
CONTINUOUS
10
6.00157
20
-4.55557
11
5.99901
21
-4.55727
0
LINE
8
BLACK
6
CONTINUOUS
10
5.99901
20
-4.55727
11
5.996
21
-4.55787
0
LINE
8
BLACK
6
CONTINUOUS
10
5.996
20
-4.55787
11
5.936
21
-4.55787
0
LINE
8
BLACK
6
CONTINUOUS
10
5.936
20
-4.55787
11
5.93299
21
-4.55727
0
LINE
8
BLACK
6
CONTINUOUS
10
5.93299
20
-4.55727
11
5.93043
21
-4.55557
0
LINE
8
BLACK
6
CONTINUOUS
10
5.93043
20
-4.55557
11
5.92873
21
-4.55301
0
LINE
8
BLACK
6
CONTINUOUS
10
5.92873
20
-4.55301
11
5.92813
21
-4.55
0
LINE
8
BLACK
6
CONTINUOUS
10
5.92813
20
-4.55
11
5.92813
21
-4.49
0
LINE
8
BLACK
6
CONTINUOUS
10
5.92813
20
-4.49
11
5.92873
21
-4.48699
0
LINE
8
BLACK
6
CONTINUOUS
10
5.92873
20
-4.48699
11
5.93043
21
-4.48443
0
LINE
8
BLACK
6
CONTINUOUS
10
5.93043
20
-4.48443
11
5.93299
21
-4.48273
0
LINE
8
BLACK
6
CONTINUOUS
10
5.93299
20
-4.48273
11
5.936
21
-4.48213
0
LINE
8
BLACK
6
CONTINUOUS
10
5.936
20
-4.48213
11
5.996
21
-4.48213
0
LINE
8
BLACK
6
CONTINUOUS
10
5.996
20
-4.48213
11
5.99901
21
-4.48273
0
LINE
8
BLACK
6
CONTINUOUS
10
6.09901
20
-4.48273
11
6.10157
21
-4.48443
0
LINE
8
BLACK
6
CONTINUOUS
10
6.10157
20
-4.48443
11
6.10327
21
-4.48699
0
LINE
8
BLACK
6
CONTINUOUS
10
6.10327
20
-4.48699
11
6.10387
21
-4.49
0
LINE
8
BLACK
6
CONTINUOUS
10
6.10387
20
-4.49
11
6.10387
21
-4.55
0
LINE
8
BLACK
6
CONTINUOUS
10
6.10387
20
-4.55
11
6.10327
21
-4.55301
0
LINE
8
BLACK
6
CONTINUOUS
10
6.10327
20
-4.55301
11
6.10157
21
-4.55557
0
LINE
8
BLACK
6
CONTINUOUS
10
6.10157
20
-4.55557
11
6.09901
21
-4.55727
0
LINE
8
BLACK
6
CONTINUOUS
10
6.09901
20
-4.55727
11
6.096
21
-4.55787
0
LINE
8
BLACK
6
CONTINUOUS
10
6.096
20
-4.55787
11
6.036
21
-4.55787
0
LINE
8
BLACK
6
CONTINUOUS
10
6.036
20
-4.55787
11
6.03299
21
-4.55727
0
LINE
8
BLACK
6
CONTINUOUS
10
6.03299
20
-4.55727
11
6.03043
21
-4.55557
0
LINE
8
BLACK
6
CONTINUOUS
10
6.03043
20
-4.55557
11
6.02873
21
-4.55301
0
LINE
8
BLACK
6
CONTINUOUS
10
6.02873
20
-4.55301
11
6.02813
21
-4.55
0
LINE
8
BLACK
6
CONTINUOUS
10
6.02813
20
-4.55
11
6.02813
21
-4.49
0
LINE
8
BLACK
6
CONTINUOUS
10
6.02813
20
-4.49
11
6.02873
21
-4.48699
0
LINE
8
BLACK
6
CONTINUOUS
10
6.02873
20
-4.48699
11
6.03043
21
-4.48443
0
LINE
8
BLACK
6
CONTINUOUS
10
6.03043
20
-4.48443
11
6.03299
21
-4.48273
0
LINE
8
BLACK
6
CONTINUOUS
10
6.03299
20
-4.48273
11
6.036
21
-4.48213
0
LINE
8
BLACK
6
CONTINUOUS
10
6.036
20
-4.48213
11
6.096
21
-4.48213
0
LINE
8
BLACK
6
CONTINUOUS
10
6.096
20
-4.48213
11
6.09901
21
-4.48273
0
LINE
8
BLACK
6
CONTINUOUS
10
4.54335
20
-4.42265
11
4.55069
21
-4.42493
0
LINE
8
BLACK
6
CONTINUOUS
10
4.55069
20
-4.42493
11
4.55745
21
-4.42858
0
LINE
8
BLACK
6
CONTINUOUS
10
4.55745
20
-4.42858
11
4.56337
21
-4.43348
0
LINE
8
BLACK
6
CONTINUOUS
10
4.56337
20
-4.43348
11
4.56823
21
-4.43943
0
LINE
8
BLACK
6
CONTINUOUS
10
4.56823
20
-4.43943
11
4.57183
21
-4.44622
0
LINE
8
BLACK
6
CONTINUOUS
10
4.57183
20
-4.44622
11
4.57405
21
-4.45357
0
LINE
8
BLACK
6
CONTINUOUS
10
4.57405
20
-4.45357
11
4.5748
21
-4.46122
0
LINE
8
BLACK
6
CONTINUOUS
10
4.5748
20
-4.46122
11
4.57479
21
-4.46232
0
LINE
8
BLACK
6
CONTINUOUS
10
4.57479
20
-4.46232
11
4.57382
21
-4.46994
0
LINE
8
BLACK
6
CONTINUOUS
10
4.57382
20
-4.46994
11
4.5714
21
-4.47723
0
LINE
8
BLACK
6
CONTINUOUS
10
4.5714
20
-4.47723
11
4.5676
21
-4.48391
0
LINE
8
BLACK
6
CONTINUOUS
10
4.5676
20
-4.48391
11
4.56258
21
-4.48973
0
LINE
8
BLACK
6
CONTINUOUS
10
4.56258
20
-4.48973
11
4.55653
21
-4.49446
0
LINE
8
BLACK
6
CONTINUOUS
10
4.55653
20
-4.49446
11
4.54967
21
-4.49793
0
LINE
8
BLACK
6
CONTINUOUS
10
4.54967
20
-4.49793
11
4.54227
21
-4.49999
0
LINE
8
BLACK
6
CONTINUOUS
10
4.54227
20
-4.49999
11
4.53461
21
-4.50058
0
LINE
8
BLACK
6
CONTINUOUS
10
4.53461
20
-4.50058
11
4.52698
21
-4.49967
0
LINE
8
BLACK
6
CONTINUOUS
10
4.52698
20
-4.49967
11
4.51967
21
-4.4973
0
LINE
8
BLACK
6
CONTINUOUS
10
4.51967
20
-4.4973
11
4.51296
21
-4.49355
0
LINE
8
BLACK
6
CONTINUOUS
10
4.51296
20
-4.49355
11
4.50711
21
-4.48857
0
LINE
8
BLACK
6
CONTINUOUS
10
4.50711
20
-4.48857
11
4.50234
21
-4.48255
0
LINE
8
BLACK
6
CONTINUOUS
10
4.50234
20
-4.48255
11
4.49883
21
-4.47571
0
LINE
8
BLACK
6
CONTINUOUS
10
4.49883
20
-4.47571
11
4.49671
21
-4.46833
0
LINE
8
BLACK
6
CONTINUOUS
10
4.49671
20
-4.46833
11
4.49607
21
-4.46067
0
LINE
8
BLACK
6
CONTINUOUS
10
4.49607
20
-4.46067
11
4.49692
21
-4.45303
0
LINE
8
BLACK
6
CONTINUOUS
10
4.49692
20
-4.45303
11
4.49925
21
-4.44571
0
LINE
8
BLACK
6
CONTINUOUS
10
4.49925
20
-4.44571
11
4.50295
21
-4.43898
0
LINE
8
BLACK
6
CONTINUOUS
10
4.50295
20
-4.43898
11
4.50789
21
-4.43309
0
LINE
8
BLACK
6
CONTINUOUS
10
4.50789
20
-4.43309
11
4.51388
21
-4.42828
0
LINE
8
BLACK
6
CONTINUOUS
10
4.51388
20
-4.42828
11
4.52068
21
-4.42472
0
LINE
8
BLACK
6
CONTINUOUS
10
4.52068
20
-4.42472
11
4.52806
21
-4.42255
0
LINE
8
BLACK
6
CONTINUOUS
10
4.52806
20
-4.42255
11
4.53571
21
-4.42185
0
LINE
8
BLACK
6
CONTINUOUS
10
4.53571
20
-4.42185
11
4.54335
21
-4.42265
0
LINE
8
BLACK
6
CONTINUOUS
10
5.47248
20
-4.42265
11
5.47982
21
-4.42493
0
LINE
8
BLACK
6
CONTINUOUS
10
5.47982
20
-4.42493
11
5.48658
21
-4.42858
0
LINE
8
BLACK
6
CONTINUOUS
10
5.48658
20
-4.42858
11
5.4925
21
-4.43348
0
LINE
8
BLACK
6
CONTINUOUS
10
5.4925
20
-4.43348
11
5.49736
21
-4.43943
0
LINE
8
BLACK
6
CONTINUOUS
10
5.49736
20
-4.43943
11
5.50097
21
-4.44622
0
LINE
8
BLACK
6
CONTINUOUS
10
5.50097
20
-4.44622
11
5.50319
21
-4.45357
0
LINE
8
BLACK
6
CONTINUOUS
10
5.50319
20
-4.45357
11
5.50394
21
-4.46122
0
LINE
8
BLACK
6
CONTINUOUS
10
5.50394
20
-4.46122
11
5.50392
21
-4.46232
0
LINE
8
BLACK
6
CONTINUOUS
10
5.50392
20
-4.46232
11
5.50296
21
-4.46994
0
LINE
8
BLACK
6
CONTINUOUS
10
5.50296
20
-4.46994
11
5.50053
21
-4.47723
0
LINE
8
BLACK
6
CONTINUOUS
10
5.50053
20
-4.47723
11
5.49674
21
-4.48391
0
LINE
8
BLACK
6
CONTINUOUS
10
5.49674
20
-4.48391
11
5.49172
21
-4.48973
0
LINE
8
BLACK
6
CONTINUOUS
10
5.49172
20
-4.48973
11
5.48566
21
-4.49446
0
LINE
8
BLACK
6
CONTINUOUS
10
5.48566
20
-4.49446
11
5.4788
21
-4.49793
0
LINE
8
BLACK
6
CONTINUOUS
10
5.4788
20
-4.49793
11
5.4714
21
-4.49999
0
LINE
8
BLACK
6
CONTINUOUS
10
5.4714
20
-4.49999
11
5.46374
21
-4.50058
0
LINE
8
BLACK
6
CONTINUOUS
10
5.46374
20
-4.50058
11
5.45611
21
-4.49967
0
LINE
8
BLACK
6
CONTINUOUS
10
5.45611
20
-4.49967
11
5.44881
21
-4.4973
0
LINE
8
BLACK
6
CONTINUOUS
10
5.44881
20
-4.4973
11
5.4421
21
-4.49355
0
LINE
8
BLACK
6
CONTINUOUS
10
5.4421
20
-4.49355
11
5.43625
21
-4.48857
0
LINE
8
BLACK
6
CONTINUOUS
10
5.43625
20
-4.48857
11
5.43147
21
-4.48255
0
LINE
8
BLACK
6
CONTINUOUS
10
5.43147
20
-4.48255
11
5.42796
21
-4.47571
0
LINE
8
BLACK
6
CONTINUOUS
10
5.42796
20
-4.47571
11
5.42584
21
-4.46833
0
LINE
8
BLACK
6
CONTINUOUS
10
5.42584
20
-4.46833
11
5.4252
21
-4.46067
0
LINE
8
BLACK
6
CONTINUOUS
10
5.4252
20
-4.46067
11
5.42606
21
-4.45303
0
LINE
8
BLACK
6
CONTINUOUS
10
5.42606
20
-4.45303
11
5.42838
21
-4.44571
0
LINE
8
BLACK
6
CONTINUOUS
10
5.42838
20
-4.44571
11
5.43208
21
-4.43898
0
LINE
8
BLACK
6
CONTINUOUS
10
5.43208
20
-4.43898
11
5.43702
21
-4.43309
0
LINE
8
BLACK
6
CONTINUOUS
10
5.43702
20
-4.43309
11
5.44301
21
-4.42828
0
LINE
8
BLACK
6
CONTINUOUS
10
5.44301
20
-4.42828
11
5.44982
21
-4.42472
0
LINE
8
BLACK
6
CONTINUOUS
10
5.44982
20
-4.42472
11
5.45719
21
-4.42255
0
LINE
8
BLACK
6
CONTINUOUS
10
5.45719
20
-4.42255
11
5.46484
21
-4.42185
0
LINE
8
BLACK
6
CONTINUOUS
10
5.46484
20
-4.42185
11
5.47248
21
-4.42265
0
LINE
8
BLACK
6
CONTINUOUS
10
6.09901
20
-4.38273
11
6.10157
21
-4.38443
0
LINE
8
BLACK
6
CONTINUOUS
10
6.10157
20
-4.38443
11
6.10327
21
-4.38699
0
LINE
8
BLACK
6
CONTINUOUS
10
6.10327
20
-4.38699
11
6.10387
21
-4.39
0
LINE
8
BLACK
6
CONTINUOUS
10
6.10387
20
-4.39
11
6.10387
21
-4.45
0
LINE
8
BLACK
6
CONTINUOUS
10
6.10387
20
-4.45
11
6.10327
21
-4.45301
0
LINE
8
BLACK
6
CONTINUOUS
10
6.10327
20
-4.45301
11
6.10157
21
-4.45557
0
LINE
8
BLACK
6
CONTINUOUS
10
6.10157
20
-4.45557
11
6.09901
21
-4.45727
0
LINE
8
BLACK
6
CONTINUOUS
10
6.09901
20
-4.45727
11
6.096
21
-4.45787
0
LINE
8
BLACK
6
CONTINUOUS
10
6.096
20
-4.45787
11
6.036
21
-4.45787
0
LINE
8
BLACK
6
CONTINUOUS
10
6.036
20
-4.45787
11
6.03299
21
-4.45727
0
LINE
8
BLACK
6
CONTINUOUS
10
6.03299
20
-4.45727
11
6.03043
21
-4.45557
0
LINE
8
BLACK
6
CONTINUOUS
10
6.03043
20
-4.45557
11
6.02873
21
-4.45301
0
LINE
8
BLACK
6
CONTINUOUS
10
6.02873
20
-4.45301
11
6.02813
21
-4.45
0
LINE
8
BLACK
6
CONTINUOUS
10
6.02813
20
-4.45
11
6.02813
21
-4.39
0
LINE
8
BLACK
6
CONTINUOUS
10
6.02813
20
-4.39
11
6.02873
21
-4.38699
0
LINE
8
BLACK
6
CONTINUOUS
10
6.02873
20
-4.38699
11
6.03043
21
-4.38443
0
LINE
8
BLACK
6
CONTINUOUS
10
6.03043
20
-4.38443
11
6.03299
21
-4.38273
0
LINE
8
BLACK
6
CONTINUOUS
10
6.03299
20
-4.38273
11
6.036
21
-4.38213
0
LINE
8
BLACK
6
CONTINUOUS
10
6.036
20
-4.38213
11
6.096
21
-4.38213
0
LINE
8
BLACK
6
CONTINUOUS
10
6.096
20
-4.38213
11
6.09901
21
-4.38273
0
LINE
8
BLACK
6
CONTINUOUS
10
5.99901
20
-4.38273
11
6.00157
21
-4.38443
0
LINE
8
BLACK
6
CONTINUOUS
10
6.00157
20
-4.38443
11
6.00327
21
-4.38699
0
LINE
8
BLACK
6
CONTINUOUS
10
6.00327
20
-4.38699
11
6.00387
21
-4.39
0
LINE
8
BLACK
6
CONTINUOUS
10
6.00387
20
-4.39
11
6.00387
21
-4.45
0
LINE
8
BLACK
6
CONTINUOUS
10
6.00387
20
-4.45
11
6.00327
21
-4.45301
0
LINE
8
BLACK
6
CONTINUOUS
10
6.00327
20
-4.45301
11
6.00157
21
-4.45557
0
LINE
8
BLACK
6
CONTINUOUS
10
6.00157
20
-4.45557
11
5.99901
21
-4.45727
0
LINE
8
BLACK
6
CONTINUOUS
10
5.99901
20
-4.45727
11
5.996
21
-4.45787
0
LINE
8
BLACK
6
CONTINUOUS
10
5.996
20
-4.45787
11
5.936
21
-4.45787
0
LINE
8
BLACK
6
CONTINUOUS
10
5.936
20
-4.45787
11
5.93299
21
-4.45727
0
LINE
8
BLACK
6
CONTINUOUS
10
5.93299
20
-4.45727
11
5.93043
21
-4.45557
0
LINE
8
BLACK
6
CONTINUOUS
10
5.93043
20
-4.45557
11
5.92873
21
-4.45301
0
LINE
8
BLACK
6
CONTINUOUS
10
5.92873
20
-4.45301
11
5.92813
21
-4.45
0
LINE
8
BLACK
6
CONTINUOUS
10
5.92813
20
-4.45
11
5.92813
21
-4.39
0
LINE
8
BLACK
6
CONTINUOUS
10
5.92813
20
-4.39
11
5.92873
21
-4.38699
0
LINE
8
BLACK
6
CONTINUOUS
10
5.92873
20
-4.38699
11
5.93043
21
-4.38443
0
LINE
8
BLACK
6
CONTINUOUS
10
5.93043
20
-4.38443
11
5.93299
21
-4.38273
0
LINE
8
BLACK
6
CONTINUOUS
10
5.93299
20
-4.38273
11
5.936
21
-4.38213
0
LINE
8
BLACK
6
CONTINUOUS
10
5.936
20
-4.38213
11
5.996
21
-4.38213
0
LINE
8
BLACK
6
CONTINUOUS
10
5.996
20
-4.38213
11
5.99901
21
-4.38273
0
LINE
8
BLACK
6
CONTINUOUS
10
4.41482
20
-4.32939
11
4.42403
21
-4.33103
0
LINE
8
BLACK
6
CONTINUOUS
10
4.42403
20
-4.33103
11
4.43285
21
-4.33415
0
LINE
8
BLACK
6
CONTINUOUS
10
4.43285
20
-4.33415
11
4.44104
21
-4.33867
0
LINE
8
BLACK
6
CONTINUOUS
10
4.44104
20
-4.33867
11
4.44838
21
-4.34447
0
LINE
8
BLACK
6
CONTINUOUS
10
4.44838
20
-4.34447
11
4.45468
21
-4.35139
0
LINE
8
BLACK
6
CONTINUOUS
10
4.45468
20
-4.35139
11
4.45976
21
-4.35924
0
LINE
8
BLACK
6
CONTINUOUS
10
4.45976
20
-4.35924
11
4.46349
21
-4.36782
0
LINE
8
BLACK
6
CONTINUOUS
10
4.46349
20
-4.36782
11
4.46577
21
-4.3769
0
LINE
8
BLACK
6
CONTINUOUS
10
4.46577
20
-4.3769
11
4.46654
21
-4.38622
0
LINE
8
BLACK
6
CONTINUOUS
10
4.46654
20
-4.38622
11
4.46647
21
-4.38901
0
LINE
8
BLACK
6
CONTINUOUS
10
4.46647
20
-4.38901
11
4.46525
21
-4.39828
0
LINE
8
BLACK
6
CONTINUOUS
10
4.46525
20
-4.39828
11
4.46253
21
-4.40724
0
LINE
8
BLACK
6
CONTINUOUS
10
4.46253
20
-4.40724
11
4.45838
21
-4.41562
0
LINE
8
BLACK
6
CONTINUOUS
10
4.45838
20
-4.41562
11
4.45292
21
-4.42322
0
LINE
8
BLACK
6
CONTINUOUS
10
4.45292
20
-4.42322
11
4.4463
21
-4.42982
0
LINE
8
BLACK
6
CONTINUOUS
10
4.4463
20
-4.42982
11
4.43868
21
-4.43526
0
LINE
8
BLACK
6
CONTINUOUS
10
4.43868
20
-4.43526
11
4.43028
21
-4.43937
0
LINE
8
BLACK
6
CONTINUOUS
10
4.43028
20
-4.43937
11
4.42132
21
-4.44206
0
LINE
8
BLACK
6
CONTINUOUS
10
4.42132
20
-4.44206
11
4.41204
21
-4.44325
0
LINE
8
BLACK
6
CONTINUOUS
10
4.41204
20
-4.44325
11
4.40269
21
-4.44291
0
LINE
8
BLACK
6
CONTINUOUS
10
4.40269
20
-4.44291
11
4.39352
21
-4.44104
0
LINE
8
BLACK
6
CONTINUOUS
10
4.39352
20
-4.44104
11
4.38478
21
-4.4377
0
LINE
8
BLACK
6
CONTINUOUS
10
4.38478
20
-4.4377
11
4.37671
21
-4.43298
0
LINE
8
BLACK
6
CONTINUOUS
10
4.37671
20
-4.43298
11
4.36951
21
-4.42701
0
LINE
8
BLACK
6
CONTINUOUS
10
4.36951
20
-4.42701
11
4.36338
21
-4.41994
0
LINE
8
BLACK
6
CONTINUOUS
10
4.36338
20
-4.41994
11
4.35849
21
-4.41196
0
LINE
8
BLACK
6
CONTINUOUS
10
4.35849
20
-4.41196
11
4.35497
21
-4.40329
0
LINE
8
BLACK
6
CONTINUOUS
10
4.35497
20
-4.40329
11
4.35292
21
-4.39417
0
LINE
8
BLACK
6
CONTINUOUS
10
4.35292
20
-4.39417
11
4.35238
21
-4.38483
0
LINE
8
BLACK
6
CONTINUOUS
10
4.35238
20
-4.38483
11
4.35337
21
-4.37552
0
LINE
8
BLACK
6
CONTINUOUS
10
4.35337
20
-4.37552
11
4.35587
21
-4.36651
0
LINE
8
BLACK
6
CONTINUOUS
10
4.35587
20
-4.36651
11
4.35981
21
-4.35802
0
LINE
8
BLACK
6
CONTINUOUS
10
4.35981
20
-4.35802
11
4.36508
21
-4.35029
0
LINE
8
BLACK
6
CONTINUOUS
10
4.36508
20
-4.35029
11
4.37155
21
-4.34353
0
LINE
8
BLACK
6
CONTINUOUS
10
4.37155
20
-4.34353
11
4.37903
21
-4.33791
0
LINE
8
BLACK
6
CONTINUOUS
10
4.37903
20
-4.33791
11
4.38733
21
-4.33359
0
LINE
8
BLACK
6
CONTINUOUS
10
4.38733
20
-4.33359
11
4.39622
21
-4.33069
0
LINE
8
BLACK
6
CONTINUOUS
10
4.39622
20
-4.33069
11
4.40547
21
-4.32927
0
LINE
8
BLACK
6
CONTINUOUS
10
4.40547
20
-4.32927
11
4.41482
21
-4.32939
0
LINE
8
BLACK
6
CONTINUOUS
10
5.59592
20
-4.32939
11
5.60513
21
-4.33103
0
LINE
8
BLACK
6
CONTINUOUS
10
5.60513
20
-4.33103
11
5.61395
21
-4.33415
0
LINE
8
BLACK
6
CONTINUOUS
10
5.61395
20
-4.33415
11
5.62214
21
-4.33867
0
LINE
8
BLACK
6
CONTINUOUS
10
5.62214
20
-4.33867
11
5.62948
21
-4.34447
0
LINE
8
BLACK
6
CONTINUOUS
10
5.62948
20
-4.34447
11
5.63578
21
-4.35139
0
LINE
8
BLACK
6
CONTINUOUS
10
5.63578
20
-4.35139
11
5.64086
21
-4.35924
0
LINE
8
BLACK
6
CONTINUOUS
10
5.64086
20
-4.35924
11
5.64459
21
-4.36782
0
LINE
8
BLACK
6
CONTINUOUS
10
5.64459
20
-4.36782
11
5.64687
21
-4.3769
0
LINE
8
BLACK
6
CONTINUOUS
10
5.64687
20
-4.3769
11
5.64764
21
-4.38622
0
LINE
8
BLACK
6
CONTINUOUS
10
5.64764
20
-4.38622
11
5.64757
21
-4.38901
0
LINE
8
BLACK
6
CONTINUOUS
10
5.64757
20
-4.38901
11
5.64635
21
-4.39828
0
LINE
8
BLACK
6
CONTINUOUS
10
5.64635
20
-4.39828
11
5.64363
21
-4.40724
0
LINE
8
BLACK
6
CONTINUOUS
10
5.64363
20
-4.40724
11
5.63948
21
-4.41562
0
LINE
8
BLACK
6
CONTINUOUS
10
5.63948
20
-4.41562
11
5.63402
21
-4.42322
0
LINE
8
BLACK
6
CONTINUOUS
10
5.63402
20
-4.42322
11
5.6274
21
-4.42982
0
LINE
8
BLACK
6
CONTINUOUS
10
5.6274
20
-4.42982
11
5.61978
21
-4.43526
0
LINE
8
BLACK
6
CONTINUOUS
10
5.61978
20
-4.43526
11
5.61138
21
-4.43937
0
LINE
8
BLACK
6
CONTINUOUS
10
5.61138
20
-4.43937
11
5.60242
21
-4.44206
0
LINE
8
BLACK
6
CONTINUOUS
10
5.60242
20
-4.44206
11
5.59314
21
-4.44325
0
LINE
8
BLACK
6
CONTINUOUS
10
5.59314
20
-4.44325
11
5.58379
21
-4.44291
0
LINE
8
BLACK
6
CONTINUOUS
10
5.58379
20
-4.44291
11
5.57462
21
-4.44104
0
LINE
8
BLACK
6
CONTINUOUS
10
5.57462
20
-4.44104
11
5.56588
21
-4.4377
0
LINE
8
BLACK
6
CONTINUOUS
10
5.56588
20
-4.4377
11
5.55781
21
-4.43298
0
LINE
8
BLACK
6
CONTINUOUS
10
5.55781
20
-4.43298
11
5.55061
21
-4.42701
0
LINE
8
BLACK
6
CONTINUOUS
10
5.55061
20
-4.42701
11
5.54448
21
-4.41994
0
LINE
8
BLACK
6
CONTINUOUS
10
5.54448
20
-4.41994
11
5.5396
21
-4.41196
0
LINE
8
BLACK
6
CONTINUOUS
10
5.5396
20
-4.41196
11
5.53608
21
-4.40329
0
LINE
8
BLACK
6
CONTINUOUS
10
5.53608
20
-4.40329
11
5.53402
21
-4.39417
0
LINE
8
BLACK
6
CONTINUOUS
10
5.53402
20
-4.39417
11
5.53348
21
-4.38483
0
LINE
8
BLACK
6
CONTINUOUS
10
5.53348
20
-4.38483
11
5.53448
21
-4.37552
0
LINE
8
BLACK
6
CONTINUOUS
10
5.53448
20
-4.37552
11
5.53698
21
-4.36651
0
LINE
8
BLACK
6
CONTINUOUS
10
5.53698
20
-4.36651
11
5.54091
21
-4.35802
0
LINE
8
BLACK
6
CONTINUOUS
10
5.54091
20
-4.35802
11
5.54619
21
-4.35029
0
LINE
8
BLACK
6
CONTINUOUS
10
5.54619
20
-4.35029
11
5.55265
21
-4.34353
0
LINE
8
BLACK
6
CONTINUOUS
10
5.55265
20
-4.34353
11
5.56013
21
-4.33791
0
LINE
8
BLACK
6
CONTINUOUS
10
5.56013
20
-4.33791
11
5.56843
21
-4.33359
0
LINE
8
BLACK
6
CONTINUOUS
10
5.56843
20
-4.33359
11
5.57732
21
-4.33069
0
LINE
8
BLACK
6
CONTINUOUS
10
5.57732
20
-4.33069
11
5.58657
21
-4.32927
0
LINE
8
BLACK
6
CONTINUOUS
10
5.58657
20
-4.32927
11
5.59592
21
-4.32939
0
LINE
8
BLACK
6
CONTINUOUS
10
4.29138
20
-4.27265
11
4.29872
21
-4.27493
0
LINE
8
BLACK
6
CONTINUOUS
10
4.29872
20
-4.27493
11
4.30548
21
-4.27858
0
LINE
8
BLACK
6
CONTINUOUS
10
4.30548
20
-4.27858
11
4.3114
21
-4.28348
0
LINE
8
BLACK
6
CONTINUOUS
10
4.3114
20
-4.28348
11
4.31626
21
-4.28943
0
LINE
8
BLACK
6
CONTINUOUS
10
4.31626
20
-4.28943
11
4.31986
21
-4.29622
0
LINE
8
BLACK
6
CONTINUOUS
10
4.31986
20
-4.29622
11
4.32208
21
-4.30357
0
LINE
8
BLACK
6
CONTINUOUS
10
4.32208
20
-4.30357
11
4.32283
21
-4.31122
0
LINE
8
BLACK
6
CONTINUOUS
10
4.32283
20
-4.31122
11
4.32282
21
-4.31232
0
LINE
8
BLACK
6
CONTINUOUS
10
4.32282
20
-4.31232
11
4.32186
21
-4.31994
0
LINE
8
BLACK
6
CONTINUOUS
10
4.32186
20
-4.31994
11
4.31943
21
-4.32723
0
LINE
8
BLACK
6
CONTINUOUS
10
4.31943
20
-4.32723
11
4.31564
21
-4.33391
0
LINE
8
BLACK
6
CONTINUOUS
10
4.31564
20
-4.33391
11
4.31061
21
-4.33973
0
LINE
8
BLACK
6
CONTINUOUS
10
4.31061
20
-4.33973
11
4.30456
21
-4.34446
0
LINE
8
BLACK
6
CONTINUOUS
10
4.30456
20
-4.34446
11
4.2977
21
-4.34793
0
LINE
8
BLACK
6
CONTINUOUS
10
4.2977
20
-4.34793
11
4.2903
21
-4.34999
0
LINE
8
BLACK
6
CONTINUOUS
10
4.2903
20
-4.34999
11
4.28264
21
-4.35058
0
LINE
8
BLACK
6
CONTINUOUS
10
4.28264
20
-4.35058
11
4.27501
21
-4.34967
0
LINE
8
BLACK
6
CONTINUOUS
10
4.27501
20
-4.34967
11
4.2677
21
-4.3473
0
LINE
8
BLACK
6
CONTINUOUS
10
4.2677
20
-4.3473
11
4.261
21
-4.34355
0
LINE
8
BLACK
6
CONTINUOUS
10
4.261
20
-4.34355
11
4.25514
21
-4.33857
0
LINE
8
BLACK
6
CONTINUOUS
10
4.25514
20
-4.33857
11
4.25037
21
-4.33255
0
LINE
8
BLACK
6
CONTINUOUS
10
4.25037
20
-4.33255
11
4.24686
21
-4.32571
0
LINE
8
BLACK
6
CONTINUOUS
10
4.24686
20
-4.32571
11
4.24474
21
-4.31833
0
LINE
8
BLACK
6
CONTINUOUS
10
4.24474
20
-4.31833
11
4.2441
21
-4.31067
0
LINE
8
BLACK
6
CONTINUOUS
10
4.2441
20
-4.31067
11
4.24495
21
-4.30303
0
LINE
8
BLACK
6
CONTINUOUS
10
4.24495
20
-4.30303
11
4.24728
21
-4.29571
0
LINE
8
BLACK
6
CONTINUOUS
10
4.24728
20
-4.29571
11
4.25098
21
-4.28898
0
LINE
8
BLACK
6
CONTINUOUS
10
4.25098
20
-4.28898
11
4.25592
21
-4.28309
0
LINE
8
BLACK
6
CONTINUOUS
10
4.25592
20
-4.28309
11
4.26191
21
-4.27828
0
LINE
8
BLACK
6
CONTINUOUS
10
4.26191
20
-4.27828
11
4.26872
21
-4.27472
0
LINE
8
BLACK
6
CONTINUOUS
10
4.26872
20
-4.27472
11
4.27609
21
-4.27255
0
LINE
8
BLACK
6
CONTINUOUS
10
4.27609
20
-4.27255
11
4.28374
21
-4.27185
0
LINE
8
BLACK
6
CONTINUOUS
10
4.28374
20
-4.27185
11
4.29138
21
-4.27265
0
LINE
8
BLACK
6
CONTINUOUS
10
5.72445
20
-4.27265
11
5.73179
21
-4.27493
0
LINE
8
BLACK
6
CONTINUOUS
10
5.73179
20
-4.27493
11
5.73855
21
-4.27858
0
LINE
8
BLACK
6
CONTINUOUS
10
5.73855
20
-4.27858
11
5.74447
21
-4.28348
0
LINE
8
BLACK
6
CONTINUOUS
10
5.74447
20
-4.28348
11
5.74933
21
-4.28943
0
LINE
8
BLACK
6
CONTINUOUS
10
5.74933
20
-4.28943
11
5.75293
21
-4.29622
0
LINE
8
BLACK
6
CONTINUOUS
10
5.75293
20
-4.29622
11
5.75516
21
-4.30357
0
LINE
8
BLACK
6
CONTINUOUS
10
5.75516
20
-4.30357
11
5.75591
21
-4.31122
0
LINE
8
BLACK
6
CONTINUOUS
10
5.75591
20
-4.31122
11
5.75589
21
-4.31232
0
LINE
8
BLACK
6
CONTINUOUS
10
5.75589
20
-4.31232
11
5.75493
21
-4.31994
0
LINE
8
BLACK
6
CONTINUOUS
10
5.75493
20
-4.31994
11
5.7525
21
-4.32723
0
LINE
8
BLACK
6
CONTINUOUS
10
5.7525
20
-4.32723
11
5.74871
21
-4.33391
0
LINE
8
BLACK
6
CONTINUOUS
10
5.74871
20
-4.33391
11
5.74369
21
-4.33973
0
LINE
8
BLACK
6
CONTINUOUS
10
5.74369
20
-4.33973
11
5.73763
21
-4.34446
0
LINE
8
BLACK
6
CONTINUOUS
10
5.73763
20
-4.34446
11
5.73077
21
-4.34793
0
LINE
8
BLACK
6
CONTINUOUS
10
5.73077
20
-4.34793
11
5.72337
21
-4.34999
0
LINE
8
BLACK
6
CONTINUOUS
10
5.72337
20
-4.34999
11
5.71571
21
-4.35058
0
LINE
8
BLACK
6
CONTINUOUS
10
5.71571
20
-4.35058
11
5.70808
21
-4.34967
0
LINE
8
BLACK
6
CONTINUOUS
10
5.70808
20
-4.34967
11
5.70077
21
-4.3473
0
LINE
8
BLACK
6
CONTINUOUS
10
5.70077
20
-4.3473
11
5.69407
21
-4.34355
0
LINE
8
BLACK
6
CONTINUOUS
10
5.69407
20
-4.34355
11
5.68821
21
-4.33857
0
LINE
8
BLACK
6
CONTINUOUS
10
5.68821
20
-4.33857
11
5.68344
21
-4.33255
0
LINE
8
BLACK
6
CONTINUOUS
10
5.68344
20
-4.33255
11
5.67993
21
-4.32571
0
LINE
8
BLACK
6
CONTINUOUS
10
5.67993
20
-4.32571
11
5.67781
21
-4.31833
0
LINE
8
BLACK
6
CONTINUOUS
10
5.67781
20
-4.31833
11
5.67717
21
-4.31067
0
LINE
8
BLACK
6
CONTINUOUS
10
5.67717
20
-4.31067
11
5.67803
21
-4.30303
0
LINE
8
BLACK
6
CONTINUOUS
10
5.67803
20
-4.30303
11
5.68035
21
-4.29571
0
LINE
8
BLACK
6
CONTINUOUS
10
5.68035
20
-4.29571
11
5.68405
21
-4.28898
0
LINE
8
BLACK
6
CONTINUOUS
10
5.68405
20
-4.28898
11
5.68899
21
-4.28309
0
LINE
8
BLACK
6
CONTINUOUS
10
5.68899
20
-4.28309
11
5.69498
21
-4.27828
0
LINE
8
BLACK
6
CONTINUOUS
10
5.69498
20
-4.27828
11
5.70179
21
-4.27472
0
LINE
8
BLACK
6
CONTINUOUS
10
5.70179
20
-4.27472
11
5.70916
21
-4.27255
0
LINE
8
BLACK
6
CONTINUOUS
10
5.70916
20
-4.27255
11
5.71681
21
-4.27185
0
LINE
8
BLACK
6
CONTINUOUS
10
5.71681
20
-4.27185
11
5.72445
21
-4.27265
0
LINE
8
BLACK
6
CONTINUOUS
10
4.41482
20
-4.17939
11
4.42403
21
-4.18103
0
LINE
8
BLACK
6
CONTINUOUS
10
4.42403
20
-4.18103
11
4.43285
21
-4.18415
0
LINE
8
BLACK
6
CONTINUOUS
10
4.43285
20
-4.18415
11
4.44104
21
-4.18867
0
LINE
8
BLACK
6
CONTINUOUS
10
4.44104
20
-4.18867
11
4.44838
21
-4.19447
0
LINE
8
BLACK
6
CONTINUOUS
10
4.44838
20
-4.19447
11
4.45468
21
-4.20139
0
LINE
8
BLACK
6
CONTINUOUS
10
4.45468
20
-4.20139
11
4.45976
21
-4.20924
0
LINE
8
BLACK
6
CONTINUOUS
10
4.45976
20
-4.20924
11
4.46349
21
-4.21782
0
LINE
8
BLACK
6
CONTINUOUS
10
4.46349
20
-4.21782
11
4.46577
21
-4.2269
0
LINE
8
BLACK
6
CONTINUOUS
10
4.46577
20
-4.2269
11
4.46654
21
-4.23622
0
LINE
8
BLACK
6
CONTINUOUS
10
4.46654
20
-4.23622
11
4.46647
21
-4.23901
0
LINE
8
BLACK
6
CONTINUOUS
10
4.46647
20
-4.23901
11
4.46525
21
-4.24828
0
LINE
8
BLACK
6
CONTINUOUS
10
4.46525
20
-4.24828
11
4.46253
21
-4.25724
0
LINE
8
BLACK
6
CONTINUOUS
10
4.46253
20
-4.25724
11
4.45838
21
-4.26562
0
LINE
8
BLACK
6
CONTINUOUS
10
4.45838
20
-4.26562
11
4.45292
21
-4.27322
0
LINE
8
BLACK
6
CONTINUOUS
10
4.45292
20
-4.27322
11
4.4463
21
-4.27982
0
LINE
8
BLACK
6
CONTINUOUS
10
4.4463
20
-4.27982
11
4.43868
21
-4.28526
0
LINE
8
BLACK
6
CONTINUOUS
10
4.43868
20
-4.28526
11
4.43028
21
-4.28937
0
LINE
8
BLACK
6
CONTINUOUS
10
4.43028
20
-4.28937
11
4.42132
21
-4.29206
0
LINE
8
BLACK
6
CONTINUOUS
10
4.42132
20
-4.29206
11
4.41204
21
-4.29325
0
LINE
8
BLACK
6
CONTINUOUS
10
4.41204
20
-4.29325
11
4.40269
21
-4.29291
0
LINE
8
BLACK
6
CONTINUOUS
10
4.40269
20
-4.29291
11
4.39352
21
-4.29104
0
LINE
8
BLACK
6
CONTINUOUS
10
4.39352
20
-4.29104
11
4.38478
21
-4.2877
0
LINE
8
BLACK
6
CONTINUOUS
10
4.38478
20
-4.2877
11
4.37671
21
-4.28298
0
LINE
8
BLACK
6
CONTINUOUS
10
4.37671
20
-4.28298
11
4.36951
21
-4.27701
0
LINE
8
BLACK
6
CONTINUOUS
10
4.36951
20
-4.27701
11
4.36338
21
-4.26994
0
LINE
8
BLACK
6
CONTINUOUS
10
4.36338
20
-4.26994
11
4.35849
21
-4.26196
0
LINE
8
BLACK
6
CONTINUOUS
10
4.35849
20
-4.26196
11
4.35497
21
-4.25329
0
LINE
8
BLACK
6
CONTINUOUS
10
4.35497
20
-4.25329
11
4.35292
21
-4.24417
0
LINE
8
BLACK
6
CONTINUOUS
10
4.35292
20
-4.24417
11
4.35238
21
-4.23483
0
LINE
8
BLACK
6
CONTINUOUS
10
4.35238
20
-4.23483
11
4.35337
21
-4.22552
0
LINE
8
BLACK
6
CONTINUOUS
10
4.35337
20
-4.22552
11
4.35587
21
-4.21651
0
LINE
8
BLACK
6
CONTINUOUS
10
4.35587
20
-4.21651
11
4.35981
21
-4.20802
0
LINE
8
BLACK
6
CONTINUOUS
10
4.35981
20
-4.20802
11
4.36508
21
-4.20029
0
LINE
8
BLACK
6
CONTINUOUS
10
4.36508
20
-4.20029
11
4.37155
21
-4.19353
0
LINE
8
BLACK
6
CONTINUOUS
10
4.37155
20
-4.19353
11
4.37903
21
-4.18791
0
LINE
8
BLACK
6
CONTINUOUS
10
4.37903
20
-4.18791
11
4.38733
21
-4.18359
0
LINE
8
BLACK
6
CONTINUOUS
10
4.38733
20
-4.18359
11
4.39622
21
-4.18069
0
LINE
8
BLACK
6
CONTINUOUS
10
4.39622
20
-4.18069
11
4.40547
21
-4.17927
0
LINE
8
BLACK
6
CONTINUOUS
10
4.40547
20
-4.17927
11
4.41482
21
-4.17939
0
LINE
8
BLACK
6
CONTINUOUS
10
5.59592
20
-4.17939
11
5.60513
21
-4.18103
0
LINE
8
BLACK
6
CONTINUOUS
10
5.60513
20
-4.18103
11
5.61395
21
-4.18415
0
LINE
8
BLACK
6
CONTINUOUS
10
5.61395
20
-4.18415
11
5.62214
21
-4.18867
0
LINE
8
BLACK
6
CONTINUOUS
10
5.62214
20
-4.18867
11
5.62948
21
-4.19447
0
LINE
8
BLACK
6
CONTINUOUS
10
5.62948
20
-4.19447
11
5.63578
21
-4.20139
0
LINE
8
BLACK
6
CONTINUOUS
10
5.63578
20
-4.20139
11
5.64086
21
-4.20924
0
LINE
8
BLACK
6
CONTINUOUS
10
5.64086
20
-4.20924
11
5.64459
21
-4.21782
0
LINE
8
BLACK
6
CONTINUOUS
10
5.64459
20
-4.21782
11
5.64687
21
-4.2269
0
LINE
8
BLACK
6
CONTINUOUS
10
5.64687
20
-4.2269
11
5.64764
21
-4.23622
0
LINE
8
BLACK
6
CONTINUOUS
10
5.64764
20
-4.23622
11
5.64757
21
-4.23901
0
LINE
8
BLACK
6
CONTINUOUS
10
5.64757
20
-4.23901
11
5.64635
21
-4.24828
0
LINE
8
BLACK
6
CONTINUOUS
10
5.64635
20
-4.24828
11
5.64363
21
-4.25724
0
LINE
8
BLACK
6
CONTINUOUS
10
5.64363
20
-4.25724
11
5.63948
21
-4.26562
0
LINE
8
BLACK
6
CONTINUOUS
10
5.63948
20
-4.26562
11
5.63402
21
-4.27322
0
LINE
8
BLACK
6
CONTINUOUS
10
5.63402
20
-4.27322
11
5.6274
21
-4.27982
0
LINE
8
BLACK
6
CONTINUOUS
10
5.6274
20
-4.27982
11
5.61978
21
-4.28526
0
LINE
8
BLACK
6
CONTINUOUS
10
5.61978
20
-4.28526
11
5.61138
21
-4.28937
0
LINE
8
BLACK
6
CONTINUOUS
10
5.61138
20
-4.28937
11
5.60242
21
-4.29206
0
LINE
8
BLACK
6
CONTINUOUS
10
5.60242
20
-4.29206
11
5.59314
21
-4.29325
0
LINE
8
BLACK
6
CONTINUOUS
10
5.59314
20
-4.29325
11
5.58379
21
-4.29291
0
LINE
8
BLACK
6
CONTINUOUS
10
5.58379
20
-4.29291
11
5.57462
21
-4.29104
0
LINE
8
BLACK
6
CONTINUOUS
10
5.57462
20
-4.29104
11
5.56588
21
-4.2877
0
LINE
8
BLACK
6
CONTINUOUS
10
5.56588
20
-4.2877
11
5.55781
21
-4.28298
0
LINE
8
BLACK
6
CONTINUOUS
10
5.55781
20
-4.28298
11
5.55061
21
-4.27701
0
LINE
8
BLACK
6
CONTINUOUS
10
5.55061
20
-4.27701
11
5.54448
21
-4.26994
0
LINE
8
BLACK
6
CONTINUOUS
10
5.54448
20
-4.26994
11
5.5396
21
-4.26196
0
LINE
8
BLACK
6
CONTINUOUS
10
5.5396
20
-4.26196
11
5.53608
21
-4.25329
0
LINE
8
BLACK
6
CONTINUOUS
10
5.53608
20
-4.25329
11
5.53402
21
-4.24417
0
LINE
8
BLACK
6
CONTINUOUS
10
5.53402
20
-4.24417
11
5.53348
21
-4.23483
0
LINE
8
BLACK
6
CONTINUOUS
10
5.53348
20
-4.23483
11
5.53448
21
-4.22552
0
LINE
8
BLACK
6
CONTINUOUS
10
5.53448
20
-4.22552
11
5.53698
21
-4.21651
0
LINE
8
BLACK
6
CONTINUOUS
10
5.53698
20
-4.21651
11
5.54091
21
-4.20802
0
LINE
8
BLACK
6
CONTINUOUS
10
5.54091
20
-4.20802
11
5.54619
21
-4.20029
0
LINE
8
BLACK
6
CONTINUOUS
10
5.54619
20
-4.20029
11
5.55265
21
-4.19353
0
LINE
8
BLACK
6
CONTINUOUS
10
5.55265
20
-4.19353
11
5.56013
21
-4.18791
0
LINE
8
BLACK
6
CONTINUOUS
10
5.56013
20
-4.18791
11
5.56843
21
-4.18359
0
LINE
8
BLACK
6
CONTINUOUS
10
5.56843
20
-4.18359
11
5.57732
21
-4.18069
0
LINE
8
BLACK
6
CONTINUOUS
10
5.57732
20
-4.18069
11
5.58657
21
-4.17927
0
LINE
8
BLACK
6
CONTINUOUS
10
5.58657
20
-4.17927
11
5.59592
21
-4.17939
0
LINE
8
BLACK
6
CONTINUOUS
10
4.41482
20
-4.02939
11
4.42403
21
-4.03103
0
LINE
8
BLACK
6
CONTINUOUS
10
4.42403
20
-4.03103
11
4.43285
21
-4.03415
0
LINE
8
BLACK
6
CONTINUOUS
10
4.43285
20
-4.03415
11
4.44104
21
-4.03867
0
LINE
8
BLACK
6
CONTINUOUS
10
4.44104
20
-4.03867
11
4.44838
21
-4.04447
0
LINE
8
BLACK
6
CONTINUOUS
10
4.44838
20
-4.04447
11
4.45468
21
-4.05139
0
LINE
8
BLACK
6
CONTINUOUS
10
4.45468
20
-4.05139
11
4.45976
21
-4.05924
0
LINE
8
BLACK
6
CONTINUOUS
10
4.45976
20
-4.05924
11
4.46349
21
-4.06782
0
LINE
8
BLACK
6
CONTINUOUS
10
4.46349
20
-4.06782
11
4.46577
21
-4.0769
0
LINE
8
BLACK
6
CONTINUOUS
10
4.46577
20
-4.0769
11
4.46654
21
-4.08622
0
LINE
8
BLACK
6
CONTINUOUS
10
4.46654
20
-4.08622
11
4.46647
21
-4.08901
0
LINE
8
BLACK
6
CONTINUOUS
10
4.46647
20
-4.08901
11
4.46525
21
-4.09828
0
LINE
8
BLACK
6
CONTINUOUS
10
4.46525
20
-4.09828
11
4.46253
21
-4.10724
0
LINE
8
BLACK
6
CONTINUOUS
10
4.46253
20
-4.10724
11
4.45838
21
-4.11562
0
LINE
8
BLACK
6
CONTINUOUS
10
4.45838
20
-4.11562
11
4.45292
21
-4.12322
0
LINE
8
BLACK
6
CONTINUOUS
10
4.45292
20
-4.12322
11
4.4463
21
-4.12982
0
LINE
8
BLACK
6
CONTINUOUS
10
4.4463
20
-4.12982
11
4.43868
21
-4.13526
0
LINE
8
BLACK
6
CONTINUOUS
10
4.43868
20
-4.13526
11
4.43028
21
-4.13937
0
LINE
8
BLACK
6
CONTINUOUS
10
4.43028
20
-4.13937
11
4.42132
21
-4.14206
0
LINE
8
BLACK
6
CONTINUOUS
10
4.42132
20
-4.14206
11
4.41204
21
-4.14325
0
LINE
8
BLACK
6
CONTINUOUS
10
4.41204
20
-4.14325
11
4.40269
21
-4.14291
0
LINE
8
BLACK
6
CONTINUOUS
10
4.40269
20
-4.14291
11
4.39352
21
-4.14104
0
LINE
8
BLACK
6
CONTINUOUS
10
4.39352
20
-4.14104
11
4.38478
21
-4.1377
0
LINE
8
BLACK
6
CONTINUOUS
10
4.38478
20
-4.1377
11
4.37671
21
-4.13298
0
LINE
8
BLACK
6
CONTINUOUS
10
4.37671
20
-4.13298
11
4.36951
21
-4.12701
0
LINE
8
BLACK
6
CONTINUOUS
10
4.36951
20
-4.12701
11
4.36338
21
-4.11994
0
LINE
8
BLACK
6
CONTINUOUS
10
4.36338
20
-4.11994
11
4.35849
21
-4.11196
0
LINE
8
BLACK
6
CONTINUOUS
10
4.35849
20
-4.11196
11
4.35497
21
-4.10329
0
LINE
8
BLACK
6
CONTINUOUS
10
4.35497
20
-4.10329
11
4.35292
21
-4.09417
0
LINE
8
BLACK
6
CONTINUOUS
10
4.35292
20
-4.09417
11
4.35238
21
-4.08483
0
LINE
8
BLACK
6
CONTINUOUS
10
4.35238
20
-4.08483
11
4.35337
21
-4.07552
0
LINE
8
BLACK
6
CONTINUOUS
10
4.35337
20
-4.07552
11
4.35587
21
-4.06651
0
LINE
8
BLACK
6
CONTINUOUS
10
4.35587
20
-4.06651
11
4.35981
21
-4.05802
0
LINE
8
BLACK
6
CONTINUOUS
10
4.35981
20
-4.05802
11
4.36508
21
-4.05029
0
LINE
8
BLACK
6
CONTINUOUS
10
4.36508
20
-4.05029
11
4.37155
21
-4.04353
0
LINE
8
BLACK
6
CONTINUOUS
10
4.37155
20
-4.04353
11
4.37903
21
-4.03791
0
LINE
8
BLACK
6
CONTINUOUS
10
4.37903
20
-4.03791
11
4.38733
21
-4.03359
0
LINE
8
BLACK
6
CONTINUOUS
10
4.38733
20
-4.03359
11
4.39622
21
-4.03069
0
LINE
8
BLACK
6
CONTINUOUS
10
4.39622
20
-4.03069
11
4.40547
21
-4.02927
0
LINE
8
BLACK
6
CONTINUOUS
10
4.40547
20
-4.02927
11
4.41482
21
-4.02939
0
LINE
8
BLACK
6
CONTINUOUS
10
5.59592
20
-4.02939
11
5.60513
21
-4.03103
0
LINE
8
BLACK
6
CONTINUOUS
10
5.60513
20
-4.03103
11
5.61395
21
-4.03415
0
LINE
8
BLACK
6
CONTINUOUS
10
5.61395
20
-4.03415
11
5.62214
21
-4.03867
0
LINE
8
BLACK
6
CONTINUOUS
10
5.62214
20
-4.03867
11
5.62948
21
-4.04447
0
LINE
8
BLACK
6
CONTINUOUS
10
5.62948
20
-4.04447
11
5.63578
21
-4.05139
0
LINE
8
BLACK
6
CONTINUOUS
10
5.63578
20
-4.05139
11
5.64086
21
-4.05924
0
LINE
8
BLACK
6
CONTINUOUS
10
5.64086
20
-4.05924
11
5.64459
21
-4.06782
0
LINE
8
BLACK
6
CONTINUOUS
10
5.64459
20
-4.06782
11
5.64687
21
-4.0769
0
LINE
8
BLACK
6
CONTINUOUS
10
5.64687
20
-4.0769
11
5.64764
21
-4.08622
0
LINE
8
BLACK
6
CONTINUOUS
10
5.64764
20
-4.08622
11
5.64757
21
-4.08901
0
LINE
8
BLACK
6
CONTINUOUS
10
5.64757
20
-4.08901
11
5.64635
21
-4.09828
0
LINE
8
BLACK
6
CONTINUOUS
10
5.64635
20
-4.09828
11
5.64363
21
-4.10724
0
LINE
8
BLACK
6
CONTINUOUS
10
5.64363
20
-4.10724
11
5.63948
21
-4.11562
0
LINE
8
BLACK
6
CONTINUOUS
10
5.63948
20
-4.11562
11
5.63402
21
-4.12322
0
LINE
8
BLACK
6
CONTINUOUS
10
5.63402
20
-4.12322
11
5.6274
21
-4.12982
0
LINE
8
BLACK
6
CONTINUOUS
10
5.6274
20
-4.12982
11
5.61978
21
-4.13526
0
LINE
8
BLACK
6
CONTINUOUS
10
5.61978
20
-4.13526
11
5.61138
21
-4.13937
0
LINE
8
BLACK
6
CONTINUOUS
10
5.61138
20
-4.13937
11
5.60242
21
-4.14206
0
LINE
8
BLACK
6
CONTINUOUS
10
5.60242
20
-4.14206
11
5.59314
21
-4.14325
0
LINE
8
BLACK
6
CONTINUOUS
10
5.59314
20
-4.14325
11
5.58379
21
-4.14291
0
LINE
8
BLACK
6
CONTINUOUS
10
5.58379
20
-4.14291
11
5.57462
21
-4.14104
0
LINE
8
BLACK
6
CONTINUOUS
10
5.57462
20
-4.14104
11
5.56588
21
-4.1377
0
LINE
8
BLACK
6
CONTINUOUS
10
5.56588
20
-4.1377
11
5.55781
21
-4.13298
0
LINE
8
BLACK
6
CONTINUOUS
10
5.55781
20
-4.13298
11
5.55061
21
-4.12701
0
LINE
8
BLACK
6
CONTINUOUS
10
5.55061
20
-4.12701
11
5.54448
21
-4.11994
0
LINE
8
BLACK
6
CONTINUOUS
10
5.54448
20
-4.11994
11
5.5396
21
-4.11196
0
LINE
8
BLACK
6
CONTINUOUS
10
5.5396
20
-4.11196
11
5.53608
21
-4.10329
0
LINE
8
BLACK
6
CONTINUOUS
10
5.53608
20
-4.10329
11
5.53402
21
-4.09417
0
LINE
8
BLACK
6
CONTINUOUS
10
5.53402
20
-4.09417
11
5.53348
21
-4.08483
0
LINE
8
BLACK
6
CONTINUOUS
10
5.53348
20
-4.08483
11
5.53448
21
-4.07552
0
LINE
8
BLACK
6
CONTINUOUS
10
5.53448
20
-4.07552
11
5.53698
21
-4.06651
0
LINE
8
BLACK
6
CONTINUOUS
10
5.53698
20
-4.06651
11
5.54091
21
-4.05802
0
LINE
8
BLACK
6
CONTINUOUS
10
5.54091
20
-4.05802
11
5.54619
21
-4.05029
0
LINE
8
BLACK
6
CONTINUOUS
10
5.54619
20
-4.05029
11
5.55265
21
-4.04353
0
LINE
8
BLACK
6
CONTINUOUS
10
5.55265
20
-4.04353
11
5.56013
21
-4.03791
0
LINE
8
BLACK
6
CONTINUOUS
10
5.56013
20
-4.03791
11
5.56843
21
-4.03359
0
LINE
8
BLACK
6
CONTINUOUS
10
5.56843
20
-4.03359
11
5.57732
21
-4.03069
0
LINE
8
BLACK
6
CONTINUOUS
10
5.57732
20
-4.03069
11
5.58657
21
-4.02927
0
LINE
8
BLACK
6
CONTINUOUS
10
5.58657
20
-4.02927
11
5.59592
21
-4.02939
0
LINE
8
BLACK
6
CONTINUOUS
10
5.72445
20
-3.97265
11
5.73179
21
-3.97493
0
LINE
8
BLACK
6
CONTINUOUS
10
5.73179
20
-3.97493
11
5.73855
21
-3.97858
0
LINE
8
BLACK
6
CONTINUOUS
10
5.73855
20
-3.97858
11
5.74447
21
-3.98348
0
LINE
8
BLACK
6
CONTINUOUS
10
5.74447
20
-3.98348
11
5.74933
21
-3.98943
0
LINE
8
BLACK
6
CONTINUOUS
10
5.74933
20
-3.98943
11
5.75293
21
-3.99622
0
LINE
8
BLACK
6
CONTINUOUS
10
5.75293
20
-3.99622
11
5.75516
21
-4.00357
0
LINE
8
BLACK
6
CONTINUOUS
10
5.75516
20
-4.00357
11
5.75591
21
-4.01122
0
LINE
8
BLACK
6
CONTINUOUS
10
5.75591
20
-4.01122
11
5.75589
21
-4.01232
0
LINE
8
BLACK
6
CONTINUOUS
10
5.75589
20
-4.01232
11
5.75493
21
-4.01994
0
LINE
8
BLACK
6
CONTINUOUS
10
5.75493
20
-4.01994
11
5.7525
21
-4.02723
0
LINE
8
BLACK
6
CONTINUOUS
10
5.7525
20
-4.02723
11
5.74871
21
-4.03391
0
LINE
8
BLACK
6
CONTINUOUS
10
5.74871
20
-4.03391
11
5.74369
21
-4.03973
0
LINE
8
BLACK
6
CONTINUOUS
10
5.74369
20
-4.03973
11
5.73763
21
-4.04446
0
LINE
8
BLACK
6
CONTINUOUS
10
5.73763
20
-4.04446
11
5.73077
21
-4.04793
0
LINE
8
BLACK
6
CONTINUOUS
10
5.73077
20
-4.04793
11
5.72337
21
-4.04999
0
LINE
8
BLACK
6
CONTINUOUS
10
5.72337
20
-4.04999
11
5.71571
21
-4.05058
0
LINE
8
BLACK
6
CONTINUOUS
10
5.71571
20
-4.05058
11
5.70808
21
-4.04967
0
LINE
8
BLACK
6
CONTINUOUS
10
5.70808
20
-4.04967
11
5.70077
21
-4.0473
0
LINE
8
BLACK
6
CONTINUOUS
10
5.70077
20
-4.0473
11
5.69407
21
-4.04355
0
LINE
8
BLACK
6
CONTINUOUS
10
5.69407
20
-4.04355
11
5.68821
21
-4.03857
0
LINE
8
BLACK
6
CONTINUOUS
10
5.68821
20
-4.03857
11
5.68344
21
-4.03255
0
LINE
8
BLACK
6
CONTINUOUS
10
5.68344
20
-4.03255
11
5.67993
21
-4.02571
0
LINE
8
BLACK
6
CONTINUOUS
10
5.67993
20
-4.02571
11
5.67781
21
-4.01833
0
LINE
8
BLACK
6
CONTINUOUS
10
5.67781
20
-4.01833
11
5.67717
21
-4.01067
0
LINE
8
BLACK
6
CONTINUOUS
10
5.67717
20
-4.01067
11
5.67803
21
-4.00303
0
LINE
8
BLACK
6
CONTINUOUS
10
5.67803
20
-4.00303
11
5.68035
21
-3.99571
0
LINE
8
BLACK
6
CONTINUOUS
10
5.68035
20
-3.99571
11
5.68405
21
-3.98898
0
LINE
8
BLACK
6
CONTINUOUS
10
5.68405
20
-3.98898
11
5.68899
21
-3.98309
0
LINE
8
BLACK
6
CONTINUOUS
10
5.68899
20
-3.98309
11
5.69498
21
-3.97828
0
LINE
8
BLACK
6
CONTINUOUS
10
5.69498
20
-3.97828
11
5.70179
21
-3.97472
0
LINE
8
BLACK
6
CONTINUOUS
10
5.70179
20
-3.97472
11
5.70916
21
-3.97255
0
LINE
8
BLACK
6
CONTINUOUS
10
5.70916
20
-3.97255
11
5.71681
21
-3.97185
0
LINE
8
BLACK
6
CONTINUOUS
10
5.71681
20
-3.97185
11
5.72445
21
-3.97265
0
LINE
8
BLACK
6
CONTINUOUS
10
4.29138
20
-3.97265
11
4.29872
21
-3.97493
0
LINE
8
BLACK
6
CONTINUOUS
10
4.29872
20
-3.97493
11
4.30548
21
-3.97858
0
LINE
8
BLACK
6
CONTINUOUS
10
4.30548
20
-3.97858
11
4.3114
21
-3.98348
0
LINE
8
BLACK
6
CONTINUOUS
10
4.3114
20
-3.98348
11
4.31626
21
-3.98943
0
LINE
8
BLACK
6
CONTINUOUS
10
4.31626
20
-3.98943
11
4.31986
21
-3.99622
0
LINE
8
BLACK
6
CONTINUOUS
10
4.31986
20
-3.99622
11
4.32208
21
-4.00357
0
LINE
8
BLACK
6
CONTINUOUS
10
4.32208
20
-4.00357
11
4.32283
21
-4.01122
0
LINE
8
BLACK
6
CONTINUOUS
10
4.32283
20
-4.01122
11
4.32282
21
-4.01232
0
LINE
8
BLACK
6
CONTINUOUS
10
4.32282
20
-4.01232
11
4.32186
21
-4.01994
0
LINE
8
BLACK
6
CONTINUOUS
10
4.32186
20
-4.01994
11
4.31943
21
-4.02723
0
LINE
8
BLACK
6
CONTINUOUS
10
4.31943
20
-4.02723
11
4.31564
21
-4.03391
0
LINE
8
BLACK
6
CONTINUOUS
10
4.31564
20
-4.03391
11
4.31061
21
-4.03973
0
LINE
8
BLACK
6
CONTINUOUS
10
4.31061
20
-4.03973
11
4.30456
21
-4.04446
0
LINE
8
BLACK
6
CONTINUOUS
10
4.30456
20
-4.04446
11
4.2977
21
-4.04793
0
LINE
8
BLACK
6
CONTINUOUS
10
4.2977
20
-4.04793
11
4.2903
21
-4.04999
0
LINE
8
BLACK
6
CONTINUOUS
10
4.2903
20
-4.04999
11
4.28264
21
-4.05058
0
LINE
8
BLACK
6
CONTINUOUS
10
4.28264
20
-4.05058
11
4.27501
21
-4.04967
0
LINE
8
BLACK
6
CONTINUOUS
10
4.27501
20
-4.04967
11
4.2677
21
-4.0473
0
LINE
8
BLACK
6
CONTINUOUS
10
4.2677
20
-4.0473
11
4.261
21
-4.04355
0
LINE
8
BLACK
6
CONTINUOUS
10
4.261
20
-4.04355
11
4.25514
21
-4.03857
0
LINE
8
BLACK
6
CONTINUOUS
10
4.25514
20
-4.03857
11
4.25037
21
-4.03255
0
LINE
8
BLACK
6
CONTINUOUS
10
4.25037
20
-4.03255
11
4.24686
21
-4.02571
0
LINE
8
BLACK
6
CONTINUOUS
10
4.24686
20
-4.02571
11
4.24474
21
-4.01833
0
LINE
8
BLACK
6
CONTINUOUS
10
4.24474
20
-4.01833
11
4.2441
21
-4.01067
0
LINE
8
BLACK
6
CONTINUOUS
10
4.2441
20
-4.01067
11
4.24495
21
-4.00303
0
LINE
8
BLACK
6
CONTINUOUS
10
4.24495
20
-4.00303
11
4.24728
21
-3.99571
0
LINE
8
BLACK
6
CONTINUOUS
10
4.24728
20
-3.99571
11
4.25098
21
-3.98898
0
LINE
8
BLACK
6
CONTINUOUS
10
4.25098
20
-3.98898
11
4.25592
21
-3.98309
0
LINE
8
BLACK
6
CONTINUOUS
10
4.25592
20
-3.98309
11
4.26191
21
-3.97828
0
LINE
8
BLACK
6
CONTINUOUS
10
4.26191
20
-3.97828
11
4.26872
21
-3.97472
0
LINE
8
BLACK
6
CONTINUOUS
10
4.26872
20
-3.97472
11
4.27609
21
-3.97255
0
LINE
8
BLACK
6
CONTINUOUS
10
4.27609
20
-3.97255
11
4.28374
21
-3.97185
0
LINE
8
BLACK
6
CONTINUOUS
10
4.28374
20
-3.97185
11
4.29138
21
-3.97265
0
LINE
8
BLACK
6
CONTINUOUS
10
5.59592
20
-3.87939
11
5.60513
21
-3.88103
0
LINE
8
BLACK
6
CONTINUOUS
10
5.60513
20
-3.88103
11
5.61395
21
-3.88415
0
LINE
8
BLACK
6
CONTINUOUS
10
5.61395
20
-3.88415
11
5.62214
21
-3.88867
0
LINE
8
BLACK
6
CONTINUOUS
10
5.62214
20
-3.88867
11
5.62948
21
-3.89447
0
LINE
8
BLACK
6
CONTINUOUS
10
5.62948
20
-3.89447
11
5.63578
21
-3.90139
0
LINE
8
BLACK
6
CONTINUOUS
10
5.63578
20
-3.90139
11
5.64086
21
-3.90924
0
LINE
8
BLACK
6
CONTINUOUS
10
5.64086
20
-3.90924
11
5.64459
21
-3.91782
0
LINE
8
BLACK
6
CONTINUOUS
10
5.64459
20
-3.91782
11
5.64687
21
-3.9269
0
LINE
8
BLACK
6
CONTINUOUS
10
5.64687
20
-3.9269
11
5.64764
21
-3.93622
0
LINE
8
BLACK
6
CONTINUOUS
10
5.64764
20
-3.93622
11
5.64757
21
-3.93901
0
LINE
8
BLACK
6
CONTINUOUS
10
5.64757
20
-3.93901
11
5.64635
21
-3.94828
0
LINE
8
BLACK
6
CONTINUOUS
10
5.64635
20
-3.94828
11
5.64363
21
-3.95724
0
LINE
8
BLACK
6
CONTINUOUS
10
5.64363
20
-3.95724
11
5.63948
21
-3.96562
0
LINE
8
BLACK
6
CONTINUOUS
10
5.63948
20
-3.96562
11
5.63402
21
-3.97322
0
LINE
8
BLACK
6
CONTINUOUS
10
5.63402
20
-3.97322
11
5.6274
21
-3.97982
0
LINE
8
BLACK
6
CONTINUOUS
10
5.6274
20
-3.97982
11
5.61978
21
-3.98526
0
LINE
8
BLACK
6
CONTINUOUS
10
5.61978
20
-3.98526
11
5.61138
21
-3.98937
0
LINE
8
BLACK
6
CONTINUOUS
10
5.61138
20
-3.98937
11
5.60242
21
-3.99206
0
LINE
8
BLACK
6
CONTINUOUS
10
5.60242
20
-3.99206
11
5.59314
21
-3.99325
0
LINE
8
BLACK
6
CONTINUOUS
10
5.59314
20
-3.99325
11
5.58379
21
-3.99291
0
LINE
8
BLACK
6
CONTINUOUS
10
5.58379
20
-3.99291
11
5.57462
21
-3.99104
0
LINE
8
BLACK
6
CONTINUOUS
10
5.57462
20
-3.99104
11
5.56588
21
-3.9877
0
LINE
8
BLACK
6
CONTINUOUS
10
5.56588
20
-3.9877
11
5.55781
21
-3.98298
0
LINE
8
BLACK
6
CONTINUOUS
10
5.55781
20
-3.98298
11
5.55061
21
-3.97701
0
LINE
8
BLACK
6
CONTINUOUS
10
5.55061
20
-3.97701
11
5.54448
21
-3.96994
0
LINE
8
BLACK
6
CONTINUOUS
10
5.54448
20
-3.96994
11
5.5396
21
-3.96196
0
LINE
8
BLACK
6
CONTINUOUS
10
5.5396
20
-3.96196
11
5.53608
21
-3.95329
0
LINE
8
BLACK
6
CONTINUOUS
10
5.53608
20
-3.95329
11
5.53402
21
-3.94417
0
LINE
8
BLACK
6
CONTINUOUS
10
5.53402
20
-3.94417
11
5.53348
21
-3.93483
0
LINE
8
BLACK
6
CONTINUOUS
10
5.53348
20
-3.93483
11
5.53448
21
-3.92552
0
LINE
8
BLACK
6
CONTINUOUS
10
5.53448
20
-3.92552
11
5.53698
21
-3.91651
0
LINE
8
BLACK
6
CONTINUOUS
10
5.53698
20
-3.91651
11
5.54091
21
-3.90802
0
LINE
8
BLACK
6
CONTINUOUS
10
5.54091
20
-3.90802
11
5.54619
21
-3.90029
0
LINE
8
BLACK
6
CONTINUOUS
10
5.54619
20
-3.90029
11
5.55265
21
-3.89353
0
LINE
8
BLACK
6
CONTINUOUS
10
5.55265
20
-3.89353
11
5.56013
21
-3.88791
0
LINE
8
BLACK
6
CONTINUOUS
10
5.56013
20
-3.88791
11
5.56843
21
-3.88359
0
LINE
8
BLACK
6
CONTINUOUS
10
5.56843
20
-3.88359
11
5.57732
21
-3.88069
0
LINE
8
BLACK
6
CONTINUOUS
10
5.57732
20
-3.88069
11
5.58657
21
-3.87927
0
LINE
8
BLACK
6
CONTINUOUS
10
5.58657
20
-3.87927
11
5.59592
21
-3.87939
0
LINE
8
BLACK
6
CONTINUOUS
10
4.41482
20
-3.87939
11
4.42403
21
-3.88103
0
LINE
8
BLACK
6
CONTINUOUS
10
4.42403
20
-3.88103
11
4.43285
21
-3.88415
0
LINE
8
BLACK
6
CONTINUOUS
10
4.43285
20
-3.88415
11
4.44104
21
-3.88867
0
LINE
8
BLACK
6
CONTINUOUS
10
4.44104
20
-3.88867
11
4.44838
21
-3.89447
0
LINE
8
BLACK
6
CONTINUOUS
10
4.44838
20
-3.89447
11
4.45468
21
-3.90139
0
LINE
8
BLACK
6
CONTINUOUS
10
4.45468
20
-3.90139
11
4.45976
21
-3.90924
0
LINE
8
BLACK
6
CONTINUOUS
10
4.45976
20
-3.90924
11
4.46349
21
-3.91782
0
LINE
8
BLACK
6
CONTINUOUS
10
4.46349
20
-3.91782
11
4.46577
21
-3.9269
0
LINE
8
BLACK
6
CONTINUOUS
10
4.46577
20
-3.9269
11
4.46654
21
-3.93622
0
LINE
8
BLACK
6
CONTINUOUS
10
4.46654
20
-3.93622
11
4.46647
21
-3.93901
0
LINE
8
BLACK
6
CONTINUOUS
10
4.46647
20
-3.93901
11
4.46525
21
-3.94828
0
LINE
8
BLACK
6
CONTINUOUS
10
4.46525
20
-3.94828
11
4.46253
21
-3.95724
0
LINE
8
BLACK
6
CONTINUOUS
10
4.46253
20
-3.95724
11
4.45838
21
-3.96562
0
LINE
8
BLACK
6
CONTINUOUS
10
4.45838
20
-3.96562
11
4.45292
21
-3.97322
0
LINE
8
BLACK
6
CONTINUOUS
10
4.45292
20
-3.97322
11
4.4463
21
-3.97982
0
LINE
8
BLACK
6
CONTINUOUS
10
4.4463
20
-3.97982
11
4.43868
21
-3.98526
0
LINE
8
BLACK
6
CONTINUOUS
10
4.43868
20
-3.98526
11
4.43028
21
-3.98937
0
LINE
8
BLACK
6
CONTINUOUS
10
4.43028
20
-3.98937
11
4.42132
21
-3.99206
0
LINE
8
BLACK
6
CONTINUOUS
10
4.42132
20
-3.99206
11
4.41204
21
-3.99325
0
LINE
8
BLACK
6
CONTINUOUS
10
4.41204
20
-3.99325
11
4.40269
21
-3.99291
0
LINE
8
BLACK
6
CONTINUOUS
10
4.40269
20
-3.99291
11
4.39352
21
-3.99104
0
LINE
8
BLACK
6
CONTINUOUS
10
4.39352
20
-3.99104
11
4.38478
21
-3.9877
0
LINE
8
BLACK
6
CONTINUOUS
10
4.38478
20
-3.9877
11
4.37671
21
-3.98298
0
LINE
8
BLACK
6
CONTINUOUS
10
4.37671
20
-3.98298
11
4.36951
21
-3.97701
0
LINE
8
BLACK
6
CONTINUOUS
10
4.36951
20
-3.97701
11
4.36338
21
-3.96994
0
LINE
8
BLACK
6
CONTINUOUS
10
4.36338
20
-3.96994
11
4.35849
21
-3.96196
0
LINE
8
BLACK
6
CONTINUOUS
10
4.35849
20
-3.96196
11
4.35497
21
-3.95329
0
LINE
8
BLACK
6
CONTINUOUS
10
4.35497
20
-3.95329
11
4.35292
21
-3.94417
0
LINE
8
BLACK
6
CONTINUOUS
10
4.35292
20
-3.94417
11
4.35238
21
-3.93483
0
LINE
8
BLACK
6
CONTINUOUS
10
4.35238
20
-3.93483
11
4.35337
21
-3.92552
0
LINE
8
BLACK
6
CONTINUOUS
10
4.35337
20
-3.92552
11
4.35587
21
-3.91651
0
LINE
8
BLACK
6
CONTINUOUS
10
4.35587
20
-3.91651
11
4.35981
21
-3.90802
0
LINE
8
BLACK
6
CONTINUOUS
10
4.35981
20
-3.90802
11
4.36508
21
-3.90029
0
LINE
8
BLACK
6
CONTINUOUS
10
4.36508
20
-3.90029
11
4.37155
21
-3.89353
0
LINE
8
BLACK
6
CONTINUOUS
10
4.37155
20
-3.89353
11
4.37903
21
-3.88791
0
LINE
8
BLACK
6
CONTINUOUS
10
4.37903
20
-3.88791
11
4.38733
21
-3.88359
0
LINE
8
BLACK
6
CONTINUOUS
10
4.38733
20
-3.88359
11
4.39622
21
-3.88069
0
LINE
8
BLACK
6
CONTINUOUS
10
4.39622
20
-3.88069
11
4.40547
21
-3.87927
0
LINE
8
BLACK
6
CONTINUOUS
10
4.40547
20
-3.87927
11
4.41482
21
-3.87939
0
LINE
8
BLACK
6
CONTINUOUS
10
5.47248
20
-3.82265
11
5.47982
21
-3.82493
0
LINE
8
BLACK
6
CONTINUOUS
10
5.47982
20
-3.82493
11
5.48658
21
-3.82858
0
LINE
8
BLACK
6
CONTINUOUS
10
5.48658
20
-3.82858
11
5.4925
21
-3.83348
0
LINE
8
BLACK
6
CONTINUOUS
10
5.4925
20
-3.83348
11
5.49736
21
-3.83943
0
LINE
8
BLACK
6
CONTINUOUS
10
5.49736
20
-3.83943
11
5.50097
21
-3.84622
0
LINE
8
BLACK
6
CONTINUOUS
10
5.50097
20
-3.84622
11
5.50319
21
-3.85357
0
LINE
8
BLACK
6
CONTINUOUS
10
5.50319
20
-3.85357
11
5.50394
21
-3.86122
0
LINE
8
BLACK
6
CONTINUOUS
10
5.50394
20
-3.86122
11
5.50392
21
-3.86232
0
LINE
8
BLACK
6
CONTINUOUS
10
5.50392
20
-3.86232
11
5.50296
21
-3.86994
0
LINE
8
BLACK
6
CONTINUOUS
10
5.50296
20
-3.86994
11
5.50053
21
-3.87723
0
LINE
8
BLACK
6
CONTINUOUS
10
5.50053
20
-3.87723
11
5.49674
21
-3.88391
0
LINE
8
BLACK
6
CONTINUOUS
10
5.49674
20
-3.88391
11
5.49172
21
-3.88973
0
LINE
8
BLACK
6
CONTINUOUS
10
5.49172
20
-3.88973
11
5.48566
21
-3.89446
0
LINE
8
BLACK
6
CONTINUOUS
10
5.48566
20
-3.89446
11
5.4788
21
-3.89793
0
LINE
8
BLACK
6
CONTINUOUS
10
5.4788
20
-3.89793
11
5.4714
21
-3.89999
0
LINE
8
BLACK
6
CONTINUOUS
10
5.4714
20
-3.89999
11
5.46374
21
-3.90058
0
LINE
8
BLACK
6
CONTINUOUS
10
5.46374
20
-3.90058
11
5.45611
21
-3.89967
0
LINE
8
BLACK
6
CONTINUOUS
10
5.45611
20
-3.89967
11
5.44881
21
-3.8973
0
LINE
8
BLACK
6
CONTINUOUS
10
5.44881
20
-3.8973
11
5.4421
21
-3.89355
0
LINE
8
BLACK
6
CONTINUOUS
10
5.4421
20
-3.89355
11
5.43625
21
-3.88857
0
LINE
8
BLACK
6
CONTINUOUS
10
5.43625
20
-3.88857
11
5.43147
21
-3.88255
0
LINE
8
BLACK
6
CONTINUOUS
10
5.43147
20
-3.88255
11
5.42796
21
-3.87571
0
LINE
8
BLACK
6
CONTINUOUS
10
5.42796
20
-3.87571
11
5.42584
21
-3.86833
0
LINE
8
BLACK
6
CONTINUOUS
10
5.42584
20
-3.86833
11
5.4252
21
-3.86067
0
LINE
8
BLACK
6
CONTINUOUS
10
5.4252
20
-3.86067
11
5.42606
21
-3.85303
0
LINE
8
BLACK
6
CONTINUOUS
10
5.42606
20
-3.85303
11
5.42838
21
-3.84571
0
LINE
8
BLACK
6
CONTINUOUS
10
5.42838
20
-3.84571
11
5.43208
21
-3.83898
0
LINE
8
BLACK
6
CONTINUOUS
10
5.43208
20
-3.83898
11
5.43702
21
-3.83309
0
LINE
8
BLACK
6
CONTINUOUS
10
5.43702
20
-3.83309
11
5.44301
21
-3.82828
0
LINE
8
BLACK
6
CONTINUOUS
10
5.44301
20
-3.82828
11
5.44982
21
-3.82472
0
LINE
8
BLACK
6
CONTINUOUS
10
5.44982
20
-3.82472
11
5.45719
21
-3.82255
0
LINE
8
BLACK
6
CONTINUOUS
10
5.45719
20
-3.82255
11
5.46484
21
-3.82185
0
LINE
8
BLACK
6
CONTINUOUS
10
5.46484
20
-3.82185
11
5.47248
21
-3.82265
0
LINE
8
BLACK
6
CONTINUOUS
10
4.54335
20
-3.82265
11
4.55069
21
-3.82493
0
LINE
8
BLACK
6
CONTINUOUS
10
4.55069
20
-3.82493
11
4.55745
21
-3.82858
0
LINE
8
BLACK
6
CONTINUOUS
10
4.55745
20
-3.82858
11
4.56337
21
-3.83348
0
LINE
8
BLACK
6
CONTINUOUS
10
4.56337
20
-3.83348
11
4.56823
21
-3.83943
0
LINE
8
BLACK
6
CONTINUOUS
10
4.56823
20
-3.83943
11
4.57183
21
-3.84622
0
LINE
8
BLACK
6
CONTINUOUS
10
4.57183
20
-3.84622
11
4.57405
21
-3.85357
0
LINE
8
BLACK
6
CONTINUOUS
10
4.57405
20
-3.85357
11
4.5748
21
-3.86122
0
LINE
8
BLACK
6
CONTINUOUS
10
4.5748
20
-3.86122
11
4.57479
21
-3.86232
0
LINE
8
BLACK
6
CONTINUOUS
10
4.57479
20
-3.86232
11
4.57382
21
-3.86994
0
LINE
8
BLACK
6
CONTINUOUS
10
4.57382
20
-3.86994
11
4.5714
21
-3.87723
0
LINE
8
BLACK
6
CONTINUOUS
10
4.5714
20
-3.87723
11
4.5676
21
-3.88391
0
LINE
8
BLACK
6
CONTINUOUS
10
4.5676
20
-3.88391
11
4.56258
21
-3.88973
0
LINE
8
BLACK
6
CONTINUOUS
10
4.56258
20
-3.88973
11
4.55653
21
-3.89446
0
LINE
8
BLACK
6
CONTINUOUS
10
4.55653
20
-3.89446
11
4.54967
21
-3.89793
0
LINE
8
BLACK
6
CONTINUOUS
10
4.54967
20
-3.89793
11
4.54227
21
-3.89999
0
LINE
8
BLACK
6
CONTINUOUS
10
4.54227
20
-3.89999
11
4.53461
21
-3.90058
0
LINE
8
BLACK
6
CONTINUOUS
10
4.53461
20
-3.90058
11
4.52698
21
-3.89967
0
LINE
8
BLACK
6
CONTINUOUS
10
4.52698
20
-3.89967
11
4.51967
21
-3.8973
0
LINE
8
BLACK
6
CONTINUOUS
10
4.51967
20
-3.8973
11
4.51296
21
-3.89355
0
LINE
8
BLACK
6
CONTINUOUS
10
4.51296
20
-3.89355
11
4.50711
21
-3.88857
0
LINE
8
BLACK
6
CONTINUOUS
10
4.50711
20
-3.88857
11
4.50234
21
-3.88255
0
LINE
8
BLACK
6
CONTINUOUS
10
4.50234
20
-3.88255
11
4.49883
21
-3.87571
0
LINE
8
BLACK
6
CONTINUOUS
10
4.49883
20
-3.87571
11
4.49671
21
-3.86833
0
LINE
8
BLACK
6
CONTINUOUS
10
4.49671
20
-3.86833
11
4.49607
21
-3.86067
0
LINE
8
BLACK
6
CONTINUOUS
10
4.49607
20
-3.86067
11
4.49692
21
-3.85303
0
LINE
8
BLACK
6
CONTINUOUS
10
4.49692
20
-3.85303
11
4.49925
21
-3.84571
0
LINE
8
BLACK
6
CONTINUOUS
10
4.49925
20
-3.84571
11
4.50295
21
-3.83898
0
LINE
8
BLACK
6
CONTINUOUS
10
4.50295
20
-3.83898
11
4.50789
21
-3.83309
0
LINE
8
BLACK
6
CONTINUOUS
10
4.50789
20
-3.83309
11
4.51388
21
-3.82828
0
LINE
8
BLACK
6
CONTINUOUS
10
4.51388
20
-3.82828
11
4.52068
21
-3.82472
0
LINE
8
BLACK
6
CONTINUOUS
10
4.52068
20
-3.82472
11
4.52806
21
-3.82255
0
LINE
8
BLACK
6
CONTINUOUS
10
4.52806
20
-3.82255
11
4.53571
21
-3.82185
0
LINE
8
BLACK
6
CONTINUOUS
10
4.53571
20
-3.82185
11
4.54335
21
-3.82265
0
LINE
8
BLACK
6
CONTINUOUS
10
4.41482
20
-3.72939
11
4.42403
21
-3.73103
0
LINE
8
BLACK
6
CONTINUOUS
10
4.42403
20
-3.73103
11
4.43285
21
-3.73415
0
LINE
8
BLACK
6
CONTINUOUS
10
4.43285
20
-3.73415
11
4.44104
21
-3.73867
0
LINE
8
BLACK
6
CONTINUOUS
10
4.44104
20
-3.73867
11
4.44838
21
-3.74447
0
LINE
8
BLACK
6
CONTINUOUS
10
4.44838
20
-3.74447
11
4.45468
21
-3.75139
0
LINE
8
BLACK
6
CONTINUOUS
10
4.45468
20
-3.75139
11
4.45976
21
-3.75924
0
LINE
8
BLACK
6
CONTINUOUS
10
4.45976
20
-3.75924
11
4.46349
21
-3.76782
0
LINE
8
BLACK
6
CONTINUOUS
10
4.46349
20
-3.76782
11
4.46577
21
-3.7769
0
LINE
8
BLACK
6
CONTINUOUS
10
4.46577
20
-3.7769
11
4.46654
21
-3.78622
0
LINE
8
BLACK
6
CONTINUOUS
10
4.46654
20
-3.78622
11
4.46647
21
-3.78901
0
LINE
8
BLACK
6
CONTINUOUS
10
4.46647
20
-3.78901
11
4.46525
21
-3.79828
0
LINE
8
BLACK
6
CONTINUOUS
10
4.46525
20
-3.79828
11
4.46253
21
-3.80724
0
LINE
8
BLACK
6
CONTINUOUS
10
4.46253
20
-3.80724
11
4.45838
21
-3.81562
0
LINE
8
BLACK
6
CONTINUOUS
10
4.45838
20
-3.81562
11
4.45292
21
-3.82322
0
LINE
8
BLACK
6
CONTINUOUS
10
4.45292
20
-3.82322
11
4.4463
21
-3.82982
0
LINE
8
BLACK
6
CONTINUOUS
10
4.4463
20
-3.82982
11
4.43868
21
-3.83526
0
LINE
8
BLACK
6
CONTINUOUS
10
4.43868
20
-3.83526
11
4.43028
21
-3.83937
0
LINE
8
BLACK
6
CONTINUOUS
10
4.43028
20
-3.83937
11
4.42132
21
-3.84206
0
LINE
8
BLACK
6
CONTINUOUS
10
4.42132
20
-3.84206
11
4.41204
21
-3.84325
0
LINE
8
BLACK
6
CONTINUOUS
10
4.41204
20
-3.84325
11
4.40269
21
-3.84291
0
LINE
8
BLACK
6
CONTINUOUS
10
4.40269
20
-3.84291
11
4.39352
21
-3.84104
0
LINE
8
BLACK
6
CONTINUOUS
10
4.39352
20
-3.84104
11
4.38478
21
-3.8377
0
LINE
8
BLACK
6
CONTINUOUS
10
4.38478
20
-3.8377
11
4.37671
21
-3.83298
0
LINE
8
BLACK
6
CONTINUOUS
10
4.37671
20
-3.83298
11
4.36951
21
-3.82701
0
LINE
8
BLACK
6
CONTINUOUS
10
4.36951
20
-3.82701
11
4.36338
21
-3.81994
0
LINE
8
BLACK
6
CONTINUOUS
10
4.36338
20
-3.81994
11
4.35849
21
-3.81196
0
LINE
8
BLACK
6
CONTINUOUS
10
4.35849
20
-3.81196
11
4.35497
21
-3.80329
0
LINE
8
BLACK
6
CONTINUOUS
10
4.35497
20
-3.80329
11
4.35292
21
-3.79417
0
LINE
8
BLACK
6
CONTINUOUS
10
4.35292
20
-3.79417
11
4.35238
21
-3.78483
0
LINE
8
BLACK
6
CONTINUOUS
10
4.35238
20
-3.78483
11
4.35337
21
-3.77552
0
LINE
8
BLACK
6
CONTINUOUS
10
4.35337
20
-3.77552
11
4.35587
21
-3.76651
0
LINE
8
BLACK
6
CONTINUOUS
10
4.35587
20
-3.76651
11
4.35981
21
-3.75802
0
LINE
8
BLACK
6
CONTINUOUS
10
4.35981
20
-3.75802
11
4.36508
21
-3.75029
0
LINE
8
BLACK
6
CONTINUOUS
10
4.36508
20
-3.75029
11
4.37155
21
-3.74353
0
LINE
8
BLACK
6
CONTINUOUS
10
4.37155
20
-3.74353
11
4.37903
21
-3.73791
0
LINE
8
BLACK
6
CONTINUOUS
10
4.37903
20
-3.73791
11
4.38733
21
-3.73359
0
LINE
8
BLACK
6
CONTINUOUS
10
4.38733
20
-3.73359
11
4.39622
21
-3.73069
0
LINE
8
BLACK
6
CONTINUOUS
10
4.39622
20
-3.73069
11
4.40547
21
-3.72927
0
LINE
8
BLACK
6
CONTINUOUS
10
4.40547
20
-3.72927
11
4.41482
21
-3.72939
0
LINE
8
BLACK
6
CONTINUOUS
10
5.59592
20
-3.72939
11
5.60513
21
-3.73103
0
LINE
8
BLACK
6
CONTINUOUS
10
5.60513
20
-3.73103
11
5.61395
21
-3.73415
0
LINE
8
BLACK
6
CONTINUOUS
10
5.61395
20
-3.73415
11
5.62214
21
-3.73867
0
LINE
8
BLACK
6
CONTINUOUS
10
5.62214
20
-3.73867
11
5.62948
21
-3.74447
0
LINE
8
BLACK
6
CONTINUOUS
10
5.62948
20
-3.74447
11
5.63578
21
-3.75139
0
LINE
8
BLACK
6
CONTINUOUS
10
5.63578
20
-3.75139
11
5.64086
21
-3.75924
0
LINE
8
BLACK
6
CONTINUOUS
10
5.64086
20
-3.75924
11
5.64459
21
-3.76782
0
LINE
8
BLACK
6
CONTINUOUS
10
5.64459
20
-3.76782
11
5.64687
21
-3.7769
0
LINE
8
BLACK
6
CONTINUOUS
10
5.64687
20
-3.7769
11
5.64764
21
-3.78622
0
LINE
8
BLACK
6
CONTINUOUS
10
5.64764
20
-3.78622
11
5.64757
21
-3.78901
0
LINE
8
BLACK
6
CONTINUOUS
10
5.64757
20
-3.78901
11
5.64635
21
-3.79828
0
LINE
8
BLACK
6
CONTINUOUS
10
5.64635
20
-3.79828
11
5.64363
21
-3.80724
0
LINE
8
BLACK
6
CONTINUOUS
10
5.64363
20
-3.80724
11
5.63948
21
-3.81562
0
LINE
8
BLACK
6
CONTINUOUS
10
5.63948
20
-3.81562
11
5.63402
21
-3.82322
0
LINE
8
BLACK
6
CONTINUOUS
10
5.63402
20
-3.82322
11
5.6274
21
-3.82982
0
LINE
8
BLACK
6
CONTINUOUS
10
5.6274
20
-3.82982
11
5.61978
21
-3.83526
0
LINE
8
BLACK
6
CONTINUOUS
10
5.61978
20
-3.83526
11
5.61138
21
-3.83937
0
LINE
8
BLACK
6
CONTINUOUS
10
5.61138
20
-3.83937
11
5.60242
21
-3.84206
0
LINE
8
BLACK
6
CONTINUOUS
10
5.60242
20
-3.84206
11
5.59314
21
-3.84325
0
LINE
8
BLACK
6
CONTINUOUS
10
5.59314
20
-3.84325
11
5.58379
21
-3.84291
0
LINE
8
BLACK
6
CONTINUOUS
10
5.58379
20
-3.84291
11
5.57462
21
-3.84104
0
LINE
8
BLACK
6
CONTINUOUS
10
5.57462
20
-3.84104
11
5.56588
21
-3.8377
0
LINE
8
BLACK
6
CONTINUOUS
10
5.56588
20
-3.8377
11
5.55781
21
-3.83298
0
LINE
8
BLACK
6
CONTINUOUS
10
5.55781
20
-3.83298
11
5.55061
21
-3.82701
0
LINE
8
BLACK
6
CONTINUOUS
10
5.55061
20
-3.82701
11
5.54448
21
-3.81994
0
LINE
8
BLACK
6
CONTINUOUS
10
5.54448
20
-3.81994
11
5.5396
21
-3.81196
0
LINE
8
BLACK
6
CONTINUOUS
10
5.5396
20
-3.81196
11
5.53608
21
-3.80329
0
LINE
8
BLACK
6
CONTINUOUS
10
5.53608
20
-3.80329
11
5.53402
21
-3.79417
0
LINE
8
BLACK
6
CONTINUOUS
10
5.53402
20
-3.79417
11
5.53348
21
-3.78483
0
LINE
8
BLACK
6
CONTINUOUS
10
5.53348
20
-3.78483
11
5.53448
21
-3.77552
0
LINE
8
BLACK
6
CONTINUOUS
10
5.53448
20
-3.77552
11
5.53698
21
-3.76651
0
LINE
8
BLACK
6
CONTINUOUS
10
5.53698
20
-3.76651
11
5.54091
21
-3.75802
0
LINE
8
BLACK
6
CONTINUOUS
10
5.54091
20
-3.75802
11
5.54619
21
-3.75029
0
LINE
8
BLACK
6
CONTINUOUS
10
5.54619
20
-3.75029
11
5.55265
21
-3.74353
0
LINE
8
BLACK
6
CONTINUOUS
10
5.55265
20
-3.74353
11
5.56013
21
-3.73791
0
LINE
8
BLACK
6
CONTINUOUS
10
5.56013
20
-3.73791
11
5.56843
21
-3.73359
0
LINE
8
BLACK
6
CONTINUOUS
10
5.56843
20
-3.73359
11
5.57732
21
-3.73069
0
LINE
8
BLACK
6
CONTINUOUS
10
5.57732
20
-3.73069
11
5.58657
21
-3.72927
0
LINE
8
BLACK
6
CONTINUOUS
10
5.58657
20
-3.72927
11
5.59592
21
-3.72939
0
LINE
8
BLACK
6
CONTINUOUS
10
4.29138
20
-3.67265
11
4.29872
21
-3.67493
0
LINE
8
BLACK
6
CONTINUOUS
10
4.29872
20
-3.67493
11
4.30548
21
-3.67858
0
LINE
8
BLACK
6
CONTINUOUS
10
4.30548
20
-3.67858
11
4.3114
21
-3.68348
0
LINE
8
BLACK
6
CONTINUOUS
10
4.3114
20
-3.68348
11
4.31626
21
-3.68943
0
LINE
8
BLACK
6
CONTINUOUS
10
4.31626
20
-3.68943
11
4.31986
21
-3.69622
0
LINE
8
BLACK
6
CONTINUOUS
10
4.31986
20
-3.69622
11
4.32208
21
-3.70357
0
LINE
8
BLACK
6
CONTINUOUS
10
4.32208
20
-3.70357
11
4.32283
21
-3.71122
0
LINE
8
BLACK
6
CONTINUOUS
10
4.32283
20
-3.71122
11
4.32282
21
-3.71232
0
LINE
8
BLACK
6
CONTINUOUS
10
4.32282
20
-3.71232
11
4.32186
21
-3.71994
0
LINE
8
BLACK
6
CONTINUOUS
10
4.32186
20
-3.71994
11
4.31943
21
-3.72723
0
LINE
8
BLACK
6
CONTINUOUS
10
4.31943
20
-3.72723
11
4.31564
21
-3.73391
0
LINE
8
BLACK
6
CONTINUOUS
10
4.31564
20
-3.73391
11
4.31061
21
-3.73973
0
LINE
8
BLACK
6
CONTINUOUS
10
4.31061
20
-3.73973
11
4.30456
21
-3.74446
0
LINE
8
BLACK
6
CONTINUOUS
10
4.30456
20
-3.74446
11
4.2977
21
-3.74793
0
LINE
8
BLACK
6
CONTINUOUS
10
4.2977
20
-3.74793
11
4.2903
21
-3.74999
0
LINE
8
BLACK
6
CONTINUOUS
10
4.2903
20
-3.74999
11
4.28264
21
-3.75058
0
LINE
8
BLACK
6
CONTINUOUS
10
4.28264
20
-3.75058
11
4.27501
21
-3.74967
0
LINE
8
BLACK
6
CONTINUOUS
10
4.27501
20
-3.74967
11
4.2677
21
-3.7473
0
LINE
8
BLACK
6
CONTINUOUS
10
4.2677
20
-3.7473
11
4.261
21
-3.74355
0
LINE
8
BLACK
6
CONTINUOUS
10
4.261
20
-3.74355
11
4.25514
21
-3.73857
0
LINE
8
BLACK
6
CONTINUOUS
10
4.25514
20
-3.73857
11
4.25037
21
-3.73255
0
LINE
8
BLACK
6
CONTINUOUS
10
4.25037
20
-3.73255
11
4.24686
21
-3.72571
0
LINE
8
BLACK
6
CONTINUOUS
10
4.24686
20
-3.72571
11
4.24474
21
-3.71833
0
LINE
8
BLACK
6
CONTINUOUS
10
4.24474
20
-3.71833
11
4.2441
21
-3.71067
0
LINE
8
BLACK
6
CONTINUOUS
10
4.2441
20
-3.71067
11
4.24495
21
-3.70303
0
LINE
8
BLACK
6
CONTINUOUS
10
4.24495
20
-3.70303
11
4.24728
21
-3.69571
0
LINE
8
BLACK
6
CONTINUOUS
10
4.24728
20
-3.69571
11
4.25098
21
-3.68898
0
LINE
8
BLACK
6
CONTINUOUS
10
4.25098
20
-3.68898
11
4.25592
21
-3.68309
0
LINE
8
BLACK
6
CONTINUOUS
10
4.25592
20
-3.68309
11
4.26191
21
-3.67828
0
LINE
8
BLACK
6
CONTINUOUS
10
4.26191
20
-3.67828
11
4.26872
21
-3.67472
0
LINE
8
BLACK
6
CONTINUOUS
10
4.26872
20
-3.67472
11
4.27609
21
-3.67255
0
LINE
8
BLACK
6
CONTINUOUS
10
4.27609
20
-3.67255
11
4.28374
21
-3.67185
0
LINE
8
BLACK
6
CONTINUOUS
10
4.28374
20
-3.67185
11
4.29138
21
-3.67265
0
LINE
8
BLACK
6
CONTINUOUS
10
5.72445
20
-3.67265
11
5.73179
21
-3.67493
0
LINE
8
BLACK
6
CONTINUOUS
10
5.73179
20
-3.67493
11
5.73855
21
-3.67858
0
LINE
8
BLACK
6
CONTINUOUS
10
5.73855
20
-3.67858
11
5.74447
21
-3.68348
0
LINE
8
BLACK
6
CONTINUOUS
10
5.74447
20
-3.68348
11
5.74933
21
-3.68943
0
LINE
8
BLACK
6
CONTINUOUS
10
5.74933
20
-3.68943
11
5.75293
21
-3.69622
0
LINE
8
BLACK
6
CONTINUOUS
10
5.75293
20
-3.69622
11
5.75516
21
-3.70357
0
LINE
8
BLACK
6
CONTINUOUS
10
5.75516
20
-3.70357
11
5.75591
21
-3.71122
0
LINE
8
BLACK
6
CONTINUOUS
10
5.75591
20
-3.71122
11
5.75589
21
-3.71232
0
LINE
8
BLACK
6
CONTINUOUS
10
5.75589
20
-3.71232
11
5.75493
21
-3.71994
0
LINE
8
BLACK
6
CONTINUOUS
10
5.75493
20
-3.71994
11
5.7525
21
-3.72723
0
LINE
8
BLACK
6
CONTINUOUS
10
5.7525
20
-3.72723
11
5.74871
21
-3.73391
0
LINE
8
BLACK
6
CONTINUOUS
10
5.74871
20
-3.73391
11
5.74369
21
-3.73973
0
LINE
8
BLACK
6
CONTINUOUS
10
5.74369
20
-3.73973
11
5.73763
21
-3.74446
0
LINE
8
BLACK
6
CONTINUOUS
10
5.73763
20
-3.74446
11
5.73077
21
-3.74793
0
LINE
8
BLACK
6
CONTINUOUS
10
5.73077
20
-3.74793
11
5.72337
21
-3.74999
0
LINE
8
BLACK
6
CONTINUOUS
10
5.72337
20
-3.74999
11
5.71571
21
-3.75058
0
LINE
8
BLACK
6
CONTINUOUS
10
5.71571
20
-3.75058
11
5.70808
21
-3.74967
0
LINE
8
BLACK
6
CONTINUOUS
10
5.70808
20
-3.74967
11
5.70077
21
-3.7473
0
LINE
8
BLACK
6
CONTINUOUS
10
5.70077
20
-3.7473
11
5.69407
21
-3.74355
0
LINE
8
BLACK
6
CONTINUOUS
10
5.69407
20
-3.74355
11
5.68821
21
-3.73857
0
LINE
8
BLACK
6
CONTINUOUS
10
5.68821
20
-3.73857
11
5.68344
21
-3.73255
0
LINE
8
BLACK
6
CONTINUOUS
10
5.68344
20
-3.73255
11
5.67993
21
-3.72571
0
LINE
8
BLACK
6
CONTINUOUS
10
5.67993
20
-3.72571
11
5.67781
21
-3.71833
0
LINE
8
BLACK
6
CONTINUOUS
10
5.67781
20
-3.71833
11
5.67717
21
-3.71067
0
LINE
8
BLACK
6
CONTINUOUS
10
5.67717
20
-3.71067
11
5.67803
21
-3.70303
0
LINE
8
BLACK
6
CONTINUOUS
10
5.67803
20
-3.70303
11
5.68035
21
-3.69571
0
LINE
8
BLACK
6
CONTINUOUS
10
5.68035
20
-3.69571
11
5.68405
21
-3.68898
0
LINE
8
BLACK
6
CONTINUOUS
10
5.68405
20
-3.68898
11
5.68899
21
-3.68309
0
LINE
8
BLACK
6
CONTINUOUS
10
5.68899
20
-3.68309
11
5.69498
21
-3.67828
0
LINE
8
BLACK
6
CONTINUOUS
10
5.69498
20
-3.67828
11
5.70179
21
-3.67472
0
LINE
8
BLACK
6
CONTINUOUS
10
5.70179
20
-3.67472
11
5.70916
21
-3.67255
0
LINE
8
BLACK
6
CONTINUOUS
10
5.70916
20
-3.67255
11
5.71681
21
-3.67185
0
LINE
8
BLACK
6
CONTINUOUS
10
5.71681
20
-3.67185
11
5.72445
21
-3.67265
0
LINE
8
BLACK
6
CONTINUOUS
10
4.41482
20
-3.57939
11
4.42403
21
-3.58103
0
LINE
8
BLACK
6
CONTINUOUS
10
4.42403
20
-3.58103
11
4.43285
21
-3.58415
0
LINE
8
BLACK
6
CONTINUOUS
10
4.43285
20
-3.58415
11
4.44104
21
-3.58867
0
LINE
8
BLACK
6
CONTINUOUS
10
4.44104
20
-3.58867
11
4.44838
21
-3.59447
0
LINE
8
BLACK
6
CONTINUOUS
10
4.44838
20
-3.59447
11
4.45468
21
-3.60139
0
LINE
8
BLACK
6
CONTINUOUS
10
4.45468
20
-3.60139
11
4.45976
21
-3.60924
0
LINE
8
BLACK
6
CONTINUOUS
10
4.45976
20
-3.60924
11
4.46349
21
-3.61782
0
LINE
8
BLACK
6
CONTINUOUS
10
4.46349
20
-3.61782
11
4.46577
21
-3.6269
0
LINE
8
BLACK
6
CONTINUOUS
10
4.46577
20
-3.6269
11
4.46654
21
-3.63622
0
LINE
8
BLACK
6
CONTINUOUS
10
4.46654
20
-3.63622
11
4.46647
21
-3.63901
0
LINE
8
BLACK
6
CONTINUOUS
10
4.46647
20
-3.63901
11
4.46525
21
-3.64828
0
LINE
8
BLACK
6
CONTINUOUS
10
4.46525
20
-3.64828
11
4.46253
21
-3.65724
0
LINE
8
BLACK
6
CONTINUOUS
10
4.46253
20
-3.65724
11
4.45838
21
-3.66562
0
LINE
8
BLACK
6
CONTINUOUS
10
4.45838
20
-3.66562
11
4.45292
21
-3.67322
0
LINE
8
BLACK
6
CONTINUOUS
10
4.45292
20
-3.67322
11
4.4463
21
-3.67982
0
LINE
8
BLACK
6
CONTINUOUS
10
4.4463
20
-3.67982
11
4.43868
21
-3.68526
0
LINE
8
BLACK
6
CONTINUOUS
10
4.43868
20
-3.68526
11
4.43028
21
-3.68937
0
LINE
8
BLACK
6
CONTINUOUS
10
4.43028
20
-3.68937
11
4.42132
21
-3.69206
0
LINE
8
BLACK
6
CONTINUOUS
10
4.42132
20
-3.69206
11
4.41204
21
-3.69325
0
LINE
8
BLACK
6
CONTINUOUS
10
4.41204
20
-3.69325
11
4.40269
21
-3.69291
0
LINE
8
BLACK
6
CONTINUOUS
10
4.40269
20
-3.69291
11
4.39352
21
-3.69104
0
LINE
8
BLACK
6
CONTINUOUS
10
4.39352
20
-3.69104
11
4.38478
21
-3.6877
0
LINE
8
BLACK
6
CONTINUOUS
10
4.38478
20
-3.6877
11
4.37671
21
-3.68298
0
LINE
8
BLACK
6
CONTINUOUS
10
4.37671
20
-3.68298
11
4.36951
21
-3.67701
0
LINE
8
BLACK
6
CONTINUOUS
10
4.36951
20
-3.67701
11
4.36338
21
-3.66994
0
LINE
8
BLACK
6
CONTINUOUS
10
4.36338
20
-3.66994
11
4.35849
21
-3.66196
0
LINE
8
BLACK
6
CONTINUOUS
10
4.35849
20
-3.66196
11
4.35497
21
-3.65329
0
LINE
8
BLACK
6
CONTINUOUS
10
4.35497
20
-3.65329
11
4.35292
21
-3.64417
0
LINE
8
BLACK
6
CONTINUOUS
10
4.35292
20
-3.64417
11
4.35238
21
-3.63483
0
LINE
8
BLACK
6
CONTINUOUS
10
4.35238
20
-3.63483
11
4.35337
21
-3.62552
0
LINE
8
BLACK
6
CONTINUOUS
10
4.35337
20
-3.62552
11
4.35587
21
-3.61651
0
LINE
8
BLACK
6
CONTINUOUS
10
4.35587
20
-3.61651
11
4.35981
21
-3.60802
0
LINE
8
BLACK
6
CONTINUOUS
10
4.35981
20
-3.60802
11
4.36508
21
-3.60029
0
LINE
8
BLACK
6
CONTINUOUS
10
4.36508
20
-3.60029
11
4.37155
21
-3.59353
0
LINE
8
BLACK
6
CONTINUOUS
10
4.37155
20
-3.59353
11
4.37903
21
-3.58791
0
LINE
8
BLACK
6
CONTINUOUS
10
4.37903
20
-3.58791
11
4.38733
21
-3.58359
0
LINE
8
BLACK
6
CONTINUOUS
10
4.38733
20
-3.58359
11
4.39622
21
-3.58069
0
LINE
8
BLACK
6
CONTINUOUS
10
4.39622
20
-3.58069
11
4.40547
21
-3.57927
0
LINE
8
BLACK
6
CONTINUOUS
10
4.40547
20
-3.57927
11
4.41482
21
-3.57939
0
LINE
8
BLACK
6
CONTINUOUS
10
5.59592
20
-3.57939
11
5.60513
21
-3.58103
0
LINE
8
BLACK
6
CONTINUOUS
10
5.60513
20
-3.58103
11
5.61395
21
-3.58415
0
LINE
8
BLACK
6
CONTINUOUS
10
5.61395
20
-3.58415
11
5.62214
21
-3.58867
0
LINE
8
BLACK
6
CONTINUOUS
10
5.62214
20
-3.58867
11
5.62948
21
-3.59447
0
LINE
8
BLACK
6
CONTINUOUS
10
5.62948
20
-3.59447
11
5.63578
21
-3.60139
0
LINE
8
BLACK
6
CONTINUOUS
10
5.63578
20
-3.60139
11
5.64086
21
-3.60924
0
LINE
8
BLACK
6
CONTINUOUS
10
5.64086
20
-3.60924
11
5.64459
21
-3.61782
0
LINE
8
BLACK
6
CONTINUOUS
10
5.64459
20
-3.61782
11
5.64687
21
-3.6269
0
LINE
8
BLACK
6
CONTINUOUS
10
5.64687
20
-3.6269
11
5.64764
21
-3.63622
0
LINE
8
BLACK
6
CONTINUOUS
10
5.64764
20
-3.63622
11
5.64757
21
-3.63901
0
LINE
8
BLACK
6
CONTINUOUS
10
5.64757
20
-3.63901
11
5.64635
21
-3.64828
0
LINE
8
BLACK
6
CONTINUOUS
10
5.64635
20
-3.64828
11
5.64363
21
-3.65724
0
LINE
8
BLACK
6
CONTINUOUS
10
5.64363
20
-3.65724
11
5.63948
21
-3.66562
0
LINE
8
BLACK
6
CONTINUOUS
10
5.63948
20
-3.66562
11
5.63402
21
-3.67322
0
LINE
8
BLACK
6
CONTINUOUS
10
5.63402
20
-3.67322
11
5.6274
21
-3.67982
0
LINE
8
BLACK
6
CONTINUOUS
10
5.6274
20
-3.67982
11
5.61978
21
-3.68526
0
LINE
8
BLACK
6
CONTINUOUS
10
5.61978
20
-3.68526
11
5.61138
21
-3.68937
0
LINE
8
BLACK
6
CONTINUOUS
10
5.61138
20
-3.68937
11
5.60242
21
-3.69206
0
LINE
8
BLACK
6
CONTINUOUS
10
5.60242
20
-3.69206
11
5.59314
21
-3.69325
0
LINE
8
BLACK
6
CONTINUOUS
10
5.59314
20
-3.69325
11
5.58379
21
-3.69291
0
LINE
8
BLACK
6
CONTINUOUS
10
5.58379
20
-3.69291
11
5.57462
21
-3.69104
0
LINE
8
BLACK
6
CONTINUOUS
10
5.57462
20
-3.69104
11
5.56588
21
-3.6877
0
LINE
8
BLACK
6
CONTINUOUS
10
5.56588
20
-3.6877
11
5.55781
21
-3.68298
0
LINE
8
BLACK
6
CONTINUOUS
10
5.55781
20
-3.68298
11
5.55061
21
-3.67701
0
LINE
8
BLACK
6
CONTINUOUS
10
5.55061
20
-3.67701
11
5.54448
21
-3.66994
0
LINE
8
BLACK
6
CONTINUOUS
10
5.54448
20
-3.66994
11
5.5396
21
-3.66196
0
LINE
8
BLACK
6
CONTINUOUS
10
5.5396
20
-3.66196
11
5.53608
21
-3.65329
0
LINE
8
BLACK
6
CONTINUOUS
10
5.53608
20
-3.65329
11
5.53402
21
-3.64417
0
LINE
8
BLACK
6
CONTINUOUS
10
5.53402
20
-3.64417
11
5.53348
21
-3.63483
0
LINE
8
BLACK
6
CONTINUOUS
10
5.53348
20
-3.63483
11
5.53448
21
-3.62552
0
LINE
8
BLACK
6
CONTINUOUS
10
5.53448
20
-3.62552
11
5.53698
21
-3.61651
0
LINE
8
BLACK
6
CONTINUOUS
10
5.53698
20
-3.61651
11
5.54091
21
-3.60802
0
LINE
8
BLACK
6
CONTINUOUS
10
5.54091
20
-3.60802
11
5.54619
21
-3.60029
0
LINE
8
BLACK
6
CONTINUOUS
10
5.54619
20
-3.60029
11
5.55265
21
-3.59353
0
LINE
8
BLACK
6
CONTINUOUS
10
5.55265
20
-3.59353
11
5.56013
21
-3.58791
0
LINE
8
BLACK
6
CONTINUOUS
10
5.56013
20
-3.58791
11
5.56843
21
-3.58359
0
LINE
8
BLACK
6
CONTINUOUS
10
5.56843
20
-3.58359
11
5.57732
21
-3.58069
0
LINE
8
BLACK
6
CONTINUOUS
10
5.57732
20
-3.58069
11
5.58657
21
-3.57927
0
LINE
8
BLACK
6
CONTINUOUS
10
5.58657
20
-3.57927
11
5.59592
21
-3.57939
0
LINE
8
BLACK
6
CONTINUOUS
10
4.01492
20
-3.2749
11
4.02877
21
-3.27734
0
LINE
8
BLACK
6
CONTINUOUS
10
4.02877
20
-3.27734
11
4.04226
21
-3.28132
0
LINE
8
BLACK
6
CONTINUOUS
10
4.04226
20
-3.28132
11
4.05523
21
-3.28677
0
LINE
8
BLACK
6
CONTINUOUS
10
4.05523
20
-3.28677
11
4.06751
21
-3.29363
0
LINE
8
BLACK
6
CONTINUOUS
10
4.06751
20
-3.29363
11
4.07894
21
-3.30182
0
LINE
8
BLACK
6
CONTINUOUS
10
4.07894
20
-3.30182
11
4.08939
21
-3.31123
0
LINE
8
BLACK
6
CONTINUOUS
10
4.08939
20
-3.31123
11
4.09873
21
-3.32175
0
LINE
8
BLACK
6
CONTINUOUS
10
4.09873
20
-3.32175
11
4.10684
21
-3.33324
0
LINE
8
BLACK
6
CONTINUOUS
10
4.10684
20
-3.33324
11
4.11362
21
-3.34556
0
LINE
8
BLACK
6
CONTINUOUS
10
4.11362
20
-3.34556
11
4.11898
21
-3.35857
0
LINE
8
BLACK
6
CONTINUOUS
10
4.11898
20
-3.35857
11
4.12285
21
-3.37209
0
LINE
8
BLACK
6
CONTINUOUS
10
4.12285
20
-3.37209
11
4.1252
21
-3.38596
0
LINE
8
BLACK
6
CONTINUOUS
10
4.1252
20
-3.38596
11
4.12598
21
-3.4
0
LINE
8
BLACK
6
CONTINUOUS
10
4.12598
20
-3.4
11
4.12594
21
-3.40352
0
LINE
8
BLACK
6
CONTINUOUS
10
4.12594
20
-3.40352
11
4.12476
21
-3.41753
0
LINE
8
BLACK
6
CONTINUOUS
10
4.12476
20
-3.41753
11
4.12203
21
-3.43133
0
LINE
8
BLACK
6
CONTINUOUS
10
4.12203
20
-3.43133
11
4.11777
21
-3.44474
0
LINE
8
BLACK
6
CONTINUOUS
10
4.11777
20
-3.44474
11
4.11205
21
-3.45759
0
LINE
8
BLACK
6
CONTINUOUS
10
4.11205
20
-3.45759
11
4.10493
21
-3.46972
0
LINE
8
BLACK
6
CONTINUOUS
10
4.10493
20
-3.46972
11
4.09651
21
-3.48098
0
LINE
8
BLACK
6
CONTINUOUS
10
4.09651
20
-3.48098
11
4.08688
21
-3.49123
0
LINE
8
BLACK
6
CONTINUOUS
10
4.08688
20
-3.49123
11
4.07617
21
-3.50035
0
LINE
8
BLACK
6
CONTINUOUS
10
4.07617
20
-3.50035
11
4.06451
21
-3.50822
0
LINE
8
BLACK
6
CONTINUOUS
10
4.06451
20
-3.50822
11
4.05204
21
-3.51473
0
LINE
8
BLACK
6
CONTINUOUS
10
4.05204
20
-3.51473
11
4.03893
21
-3.51982
0
LINE
8
BLACK
6
CONTINUOUS
10
4.03893
20
-3.51982
11
4.02533
21
-3.52341
0
LINE
8
BLACK
6
CONTINUOUS
10
4.02533
20
-3.52341
11
4.01142
21
-3.52547
0
LINE
8
BLACK
6
CONTINUOUS
10
4.01142
20
-3.52547
11
3.99736
21
-3.52596
0
LINE
8
BLACK
6
CONTINUOUS
10
3.99736
20
-3.52596
11
3.98334
21
-3.52488
0
LINE
8
BLACK
6
CONTINUOUS
10
3.98334
20
-3.52488
11
3.96952
21
-3.52224
0
LINE
8
BLACK
6
CONTINUOUS
10
3.96952
20
-3.52224
11
3.95609
21
-3.51808
0
LINE
8
BLACK
6
CONTINUOUS
10
3.95609
20
-3.51808
11
3.9432
21
-3.51245
0
LINE
8
BLACK
6
CONTINUOUS
10
3.9432
20
-3.51245
11
3.93102
21
-3.50542
0
LINE
8
BLACK
6
CONTINUOUS
10
3.93102
20
-3.50542
11
3.91969
21
-3.49707
0
LINE
8
BLACK
6
CONTINUOUS
10
3.91969
20
-3.49707
11
3.90937
21
-3.48752
0
LINE
8
BLACK
6
CONTINUOUS
10
3.90937
20
-3.48752
11
3.90018
21
-3.47687
0
LINE
8
BLACK
6
CONTINUOUS
10
3.90018
20
-3.47687
11
3.89224
21
-3.46526
0
LINE
8
BLACK
6
CONTINUOUS
10
3.89224
20
-3.46526
11
3.88563
21
-3.45284
0
LINE
8
BLACK
6
CONTINUOUS
10
3.88563
20
-3.45284
11
3.88046
21
-3.43977
0
LINE
8
BLACK
6
CONTINUOUS
10
3.88046
20
-3.43977
11
3.87677
21
-3.42619
0
LINE
8
BLACK
6
CONTINUOUS
10
3.87677
20
-3.42619
11
3.87462
21
-3.41229
0
LINE
8
BLACK
6
CONTINUOUS
10
3.87462
20
-3.41229
11
3.87403
21
-3.39824
0
LINE
8
BLACK
6
CONTINUOUS
10
3.87403
20
-3.39824
11
3.87501
21
-3.38421
0
LINE
8
BLACK
6
CONTINUOUS
10
3.87501
20
-3.38421
11
3.87755
21
-3.37038
0
LINE
8
BLACK
6
CONTINUOUS
10
3.87755
20
-3.37038
11
3.88161
21
-3.35691
0
LINE
8
BLACK
6
CONTINUOUS
10
3.88161
20
-3.35691
11
3.88715
21
-3.34398
0
LINE
8
BLACK
6
CONTINUOUS
10
3.88715
20
-3.34398
11
3.8941
21
-3.33175
0
LINE
8
BLACK
6
CONTINUOUS
10
3.8941
20
-3.33175
11
3.90237
21
-3.32037
0
LINE
8
BLACK
6
CONTINUOUS
10
3.90237
20
-3.32037
11
3.91185
21
-3.30999
0
LINE
8
BLACK
6
CONTINUOUS
10
3.91185
20
-3.30999
11
3.92244
21
-3.30072
0
LINE
8
BLACK
6
CONTINUOUS
10
3.92244
20
-3.30072
11
3.93399
21
-3.2927
0
LINE
8
BLACK
6
CONTINUOUS
10
3.93399
20
-3.2927
11
3.94636
21
-3.28601
0
LINE
8
BLACK
6
CONTINUOUS
10
3.94636
20
-3.28601
11
3.9594
21
-3.28074
0
LINE
8
BLACK
6
CONTINUOUS
10
3.9594
20
-3.28074
11
3.97295
21
-3.27695
0
LINE
8
BLACK
6
CONTINUOUS
10
3.97295
20
-3.27695
11
3.98683
21
-3.27471
0
LINE
8
BLACK
6
CONTINUOUS
10
3.98683
20
-3.27471
11
4.00088
21
-3.27402
0
LINE
8
BLACK
6
CONTINUOUS
10
4.00088
20
-3.27402
11
4.01492
21
-3.2749
0
LINE
8
BLACK
6
CONTINUOUS
10
6.01492
20
-3.2749
11
6.02877
21
-3.27734
0
LINE
8
BLACK
6
CONTINUOUS
10
6.02877
20
-3.27734
11
6.04226
21
-3.28132
0
LINE
8
BLACK
6
CONTINUOUS
10
6.04226
20
-3.28132
11
6.05523
21
-3.28677
0
LINE
8
BLACK
6
CONTINUOUS
10
6.05523
20
-3.28677
11
6.06751
21
-3.29363
0
LINE
8
BLACK
6
CONTINUOUS
10
6.06751
20
-3.29363
11
6.07894
21
-3.30182
0
LINE
8
BLACK
6
CONTINUOUS
10
6.07894
20
-3.30182
11
6.08939
21
-3.31123
0
LINE
8
BLACK
6
CONTINUOUS
10
6.08939
20
-3.31123
11
6.09873
21
-3.32175
0
LINE
8
BLACK
6
CONTINUOUS
10
6.09873
20
-3.32175
11
6.10684
21
-3.33324
0
LINE
8
BLACK
6
CONTINUOUS
10
6.10684
20
-3.33324
11
6.11362
21
-3.34556
0
LINE
8
BLACK
6
CONTINUOUS
10
6.11362
20
-3.34556
11
6.11898
21
-3.35857
0
LINE
8
BLACK
6
CONTINUOUS
10
6.11898
20
-3.35857
11
6.12285
21
-3.37209
0
LINE
8
BLACK
6
CONTINUOUS
10
6.12285
20
-3.37209
11
6.1252
21
-3.38596
0
LINE
8
BLACK
6
CONTINUOUS
10
6.1252
20
-3.38596
11
6.12598
21
-3.4
0
LINE
8
BLACK
6
CONTINUOUS
10
6.12598
20
-3.4
11
6.12594
21
-3.40352
0
LINE
8
BLACK
6
CONTINUOUS
10
6.12594
20
-3.40352
11
6.12476
21
-3.41753
0
LINE
8
BLACK
6
CONTINUOUS
10
6.12476
20
-3.41753
11
6.12203
21
-3.43133
0
LINE
8
BLACK
6
CONTINUOUS
10
6.12203
20
-3.43133
11
6.11777
21
-3.44474
0
LINE
8
BLACK
6
CONTINUOUS
10
6.11777
20
-3.44474
11
6.11205
21
-3.45759
0
LINE
8
BLACK
6
CONTINUOUS
10
6.11205
20
-3.45759
11
6.10493
21
-3.46972
0
LINE
8
BLACK
6
CONTINUOUS
10
6.10493
20
-3.46972
11
6.09651
21
-3.48098
0
LINE
8
BLACK
6
CONTINUOUS
10
6.09651
20
-3.48098
11
6.08688
21
-3.49123
0
LINE
8
BLACK
6
CONTINUOUS
10
6.08688
20
-3.49123
11
6.07617
21
-3.50035
0
LINE
8
BLACK
6
CONTINUOUS
10
6.07617
20
-3.50035
11
6.06451
21
-3.50822
0
LINE
8
BLACK
6
CONTINUOUS
10
6.06451
20
-3.50822
11
6.05204
21
-3.51473
0
LINE
8
BLACK
6
CONTINUOUS
10
6.05204
20
-3.51473
11
6.03893
21
-3.51982
0
LINE
8
BLACK
6
CONTINUOUS
10
6.03893
20
-3.51982
11
6.02533
21
-3.52341
0
LINE
8
BLACK
6
CONTINUOUS
10
6.02533
20
-3.52341
11
6.01142
21
-3.52547
0
LINE
8
BLACK
6
CONTINUOUS
10
6.01142
20
-3.52547
11
5.99736
21
-3.52596
0
LINE
8
BLACK
6
CONTINUOUS
10
5.99736
20
-3.52596
11
5.98334
21
-3.52488
0
LINE
8
BLACK
6
CONTINUOUS
10
5.98334
20
-3.52488
11
5.96952
21
-3.52224
0
LINE
8
BLACK
6
CONTINUOUS
10
5.96952
20
-3.52224
11
5.95609
21
-3.51808
0
LINE
8
BLACK
6
CONTINUOUS
10
5.95609
20
-3.51808
11
5.9432
21
-3.51245
0
LINE
8
BLACK
6
CONTINUOUS
10
5.9432
20
-3.51245
11
5.93102
21
-3.50542
0
LINE
8
BLACK
6
CONTINUOUS
10
5.93102
20
-3.50542
11
5.91969
21
-3.49707
0
LINE
8
BLACK
6
CONTINUOUS
10
5.91969
20
-3.49707
11
5.90937
21
-3.48752
0
LINE
8
BLACK
6
CONTINUOUS
10
5.90937
20
-3.48752
11
5.90018
21
-3.47687
0
LINE
8
BLACK
6
CONTINUOUS
10
5.90018
20
-3.47687
11
5.89224
21
-3.46526
0
LINE
8
BLACK
6
CONTINUOUS
10
5.89224
20
-3.46526
11
5.88563
21
-3.45284
0
LINE
8
BLACK
6
CONTINUOUS
10
5.88563
20
-3.45284
11
5.88046
21
-3.43977
0
LINE
8
BLACK
6
CONTINUOUS
10
5.88046
20
-3.43977
11
5.87677
21
-3.42619
0
LINE
8
BLACK
6
CONTINUOUS
10
5.87677
20
-3.42619
11
5.87462
21
-3.41229
0
LINE
8
BLACK
6
CONTINUOUS
10
5.87462
20
-3.41229
11
5.87403
21
-3.39824
0
LINE
8
BLACK
6
CONTINUOUS
10
5.87403
20
-3.39824
11
5.87501
21
-3.38421
0
LINE
8
BLACK
6
CONTINUOUS
10
5.87501
20
-3.38421
11
5.87755
21
-3.37038
0
LINE
8
BLACK
6
CONTINUOUS
10
5.87755
20
-3.37038
11
5.88161
21
-3.35691
0
LINE
8
BLACK
6
CONTINUOUS
10
5.88161
20
-3.35691
11
5.88715
21
-3.34398
0
LINE
8
BLACK
6
CONTINUOUS
10
5.88715
20
-3.34398
11
5.8941
21
-3.33175
0
LINE
8
BLACK
6
CONTINUOUS
10
5.8941
20
-3.33175
11
5.90237
21
-3.32037
0
LINE
8
BLACK
6
CONTINUOUS
10
5.90237
20
-3.32037
11
5.91185
21
-3.30999
0
LINE
8
BLACK
6
CONTINUOUS
10
5.91185
20
-3.30999
11
5.92244
21
-3.30072
0
LINE
8
BLACK
6
CONTINUOUS
10
5.92244
20
-3.30072
11
5.93399
21
-3.2927
0
LINE
8
BLACK
6
CONTINUOUS
10
5.93399
20
-3.2927
11
5.94636
21
-3.28601
0
LINE
8
BLACK
6
CONTINUOUS
10
5.94636
20
-3.28601
11
5.9594
21
-3.28074
0
LINE
8
BLACK
6
CONTINUOUS
10
5.9594
20
-3.28074
11
5.97295
21
-3.27695
0
LINE
8
BLACK
6
CONTINUOUS
10
5.97295
20
-3.27695
11
5.98683
21
-3.27471
0
LINE
8
BLACK
6
CONTINUOUS
10
5.98683
20
-3.27471
11
6.00088
21
-3.27402
0
LINE
8
BLACK
6
CONTINUOUS
10
6.00088
20
-3.27402
11
6.01492
21
-3.2749
0
LINE
8
BLACK
6
CONTINUOUS
10
4.69836
20
-3.29454
11
4.71094
21
-3.2969
0
LINE
8
BLACK
6
CONTINUOUS
10
4.71094
20
-3.2969
11
4.72313
21
-3.30076
0
LINE
8
BLACK
6
CONTINUOUS
10
4.72313
20
-3.30076
11
4.73478
21
-3.30606
0
LINE
8
BLACK
6
CONTINUOUS
10
4.73478
20
-3.30606
11
4.74571
21
-3.31271
0
LINE
8
BLACK
6
CONTINUOUS
10
4.74571
20
-3.31271
11
4.75575
21
-3.32063
0
LINE
8
BLACK
6
CONTINUOUS
10
4.75575
20
-3.32063
11
4.76478
21
-3.3297
0
LINE
8
BLACK
6
CONTINUOUS
10
4.76478
20
-3.3297
11
4.77264
21
-3.33979
0
LINE
8
BLACK
6
CONTINUOUS
10
4.77264
20
-3.33979
11
4.77924
21
-3.35075
0
LINE
8
BLACK
6
CONTINUOUS
10
4.77924
20
-3.35075
11
4.78448
21
-3.36243
0
LINE
8
BLACK
6
CONTINUOUS
10
4.78448
20
-3.36243
11
4.78827
21
-3.37464
0
LINE
8
BLACK
6
CONTINUOUS
10
4.78827
20
-3.37464
11
4.79057
21
-3.38723
0
LINE
8
BLACK
6
CONTINUOUS
10
4.79057
20
-3.38723
11
4.79134
21
-3.4
0
LINE
8
BLACK
6
CONTINUOUS
10
4.79134
20
-3.4
11
4.79132
21
-3.40223
0
LINE
8
BLACK
6
CONTINUOUS
10
4.79132
20
-3.40223
11
4.79028
21
-3.41498
0
LINE
8
BLACK
6
CONTINUOUS
10
4.79028
20
-3.41498
11
4.78772
21
-3.42751
0
LINE
8
BLACK
6
CONTINUOUS
10
4.78772
20
-3.42751
11
4.78367
21
-3.43965
0
LINE
8
BLACK
6
CONTINUOUS
10
4.78367
20
-3.43965
11
4.77819
21
-3.45121
0
LINE
8
BLACK
6
CONTINUOUS
10
4.77819
20
-3.45121
11
4.77136
21
-3.46203
0
LINE
8
BLACK
6
CONTINUOUS
10
4.77136
20
-3.46203
11
4.76329
21
-3.47195
0
LINE
8
BLACK
6
CONTINUOUS
10
4.76329
20
-3.47195
11
4.75408
21
-3.48083
0
LINE
8
BLACK
6
CONTINUOUS
10
4.75408
20
-3.48083
11
4.74386
21
-3.48854
0
LINE
8
BLACK
6
CONTINUOUS
10
4.74386
20
-3.48854
11
4.7328
21
-3.49496
0
LINE
8
BLACK
6
CONTINUOUS
10
4.7328
20
-3.49496
11
4.72105
21
-3.50001
0
LINE
8
BLACK
6
CONTINUOUS
10
4.72105
20
-3.50001
11
4.70877
21
-3.50362
0
LINE
8
BLACK
6
CONTINUOUS
10
4.70877
20
-3.50362
11
4.69615
21
-3.50572
0
LINE
8
BLACK
6
CONTINUOUS
10
4.69615
20
-3.50572
11
4.68337
21
-3.50629
0
LINE
8
BLACK
6
CONTINUOUS
10
4.68337
20
-3.50629
11
4.67061
21
-3.50532
0
LINE
8
BLACK
6
CONTINUOUS
10
4.67061
20
-3.50532
11
4.65807
21
-3.50282
0
LINE
8
BLACK
6
CONTINUOUS
10
4.65807
20
-3.50282
11
4.64591
21
-3.49883
0
LINE
8
BLACK
6
CONTINUOUS
10
4.64591
20
-3.49883
11
4.63432
21
-3.49342
0
LINE
8
BLACK
6
CONTINUOUS
10
4.63432
20
-3.49342
11
4.62346
21
-3.48665
0
LINE
8
BLACK
6
CONTINUOUS
10
4.62346
20
-3.48665
11
4.6135
21
-3.47862
0
LINE
8
BLACK
6
CONTINUOUS
10
4.6135
20
-3.47862
11
4.60457
21
-3.46946
0
LINE
8
BLACK
6
CONTINUOUS
10
4.60457
20
-3.46946
11
4.59681
21
-3.45929
0
LINE
8
BLACK
6
CONTINUOUS
10
4.59681
20
-3.45929
11
4.59033
21
-3.44826
0
LINE
8
BLACK
6
CONTINUOUS
10
4.59033
20
-3.44826
11
4.58521
21
-3.43653
0
LINE
8
BLACK
6
CONTINUOUS
10
4.58521
20
-3.43653
11
4.58155
21
-3.42427
0
LINE
8
BLACK
6
CONTINUOUS
10
4.58155
20
-3.42427
11
4.57938
21
-3.41166
0
LINE
8
BLACK
6
CONTINUOUS
10
4.57938
20
-3.41166
11
4.57875
21
-3.39889
0
LINE
8
BLACK
6
CONTINUOUS
10
4.57875
20
-3.39889
11
4.57965
21
-3.38613
0
LINE
8
BLACK
6
CONTINUOUS
10
4.57965
20
-3.38613
11
4.58208
21
-3.37356
0
LINE
8
BLACK
6
CONTINUOUS
10
4.58208
20
-3.37356
11
4.586
21
-3.36139
0
LINE
8
BLACK
6
CONTINUOUS
10
4.586
20
-3.36139
11
4.59136
21
-3.34977
0
LINE
8
BLACK
6
CONTINUOUS
10
4.59136
20
-3.34977
11
4.59807
21
-3.33888
0
LINE
8
BLACK
6
CONTINUOUS
10
4.59807
20
-3.33888
11
4.60604
21
-3.32887
0
LINE
8
BLACK
6
CONTINUOUS
10
4.60604
20
-3.32887
11
4.61516
21
-3.3199
0
LINE
8
BLACK
6
CONTINUOUS
10
4.61516
20
-3.3199
11
4.62529
21
-3.31208
0
LINE
8
BLACK
6
CONTINUOUS
10
4.62529
20
-3.31208
11
4.63629
21
-3.30554
0
LINE
8
BLACK
6
CONTINUOUS
10
4.63629
20
-3.30554
11
4.64799
21
-3.30037
0
LINE
8
BLACK
6
CONTINUOUS
10
4.64799
20
-3.30037
11
4.66022
21
-3.29664
0
LINE
8
BLACK
6
CONTINUOUS
10
4.66022
20
-3.29664
11
4.67282
21
-3.29441
0
LINE
8
BLACK
6
CONTINUOUS
10
4.67282
20
-3.29441
11
4.6856
21
-3.2937
0
LINE
8
BLACK
6
CONTINUOUS
10
4.6856
20
-3.2937
11
4.69836
21
-3.29454
0
LINE
8
BLACK
6
CONTINUOUS
10
5.32828
20
-3.29454
11
5.34086
21
-3.2969
0
LINE
8
BLACK
6
CONTINUOUS
10
5.34086
20
-3.2969
11
5.35305
21
-3.30076
0
LINE
8
BLACK
6
CONTINUOUS
10
5.35305
20
-3.30076
11
5.3647
21
-3.30606
0
LINE
8
BLACK
6
CONTINUOUS
10
5.3647
20
-3.30606
11
5.37563
21
-3.31271
0
LINE
8
BLACK
6
CONTINUOUS
10
5.37563
20
-3.31271
11
5.38567
21
-3.32063
0
LINE
8
BLACK
6
CONTINUOUS
10
5.38567
20
-3.32063
11
5.3947
21
-3.3297
0
LINE
8
BLACK
6
CONTINUOUS
10
5.3947
20
-3.3297
11
5.40256
21
-3.33979
0
LINE
8
BLACK
6
CONTINUOUS
10
5.40256
20
-3.33979
11
5.40916
21
-3.35075
0
LINE
8
BLACK
6
CONTINUOUS
10
5.40916
20
-3.35075
11
5.4144
21
-3.36243
0
LINE
8
BLACK
6
CONTINUOUS
10
5.4144
20
-3.36243
11
5.41819
21
-3.37464
0
LINE
8
BLACK
6
CONTINUOUS
10
5.41819
20
-3.37464
11
5.42049
21
-3.38723
0
LINE
8
BLACK
6
CONTINUOUS
10
5.42049
20
-3.38723
11
5.42126
21
-3.4
0
LINE
8
BLACK
6
CONTINUOUS
10
5.42126
20
-3.4
11
5.42124
21
-3.40223
0
LINE
8
BLACK
6
CONTINUOUS
10
5.42124
20
-3.40223
11
5.4202
21
-3.41498
0
LINE
8
BLACK
6
CONTINUOUS
10
5.4202
20
-3.41498
11
5.41764
21
-3.42751
0
LINE
8
BLACK
6
CONTINUOUS
10
5.41764
20
-3.42751
11
5.41359
21
-3.43965
0
LINE
8
BLACK
6
CONTINUOUS
10
5.41359
20
-3.43965
11
5.40811
21
-3.45121
0
LINE
8
BLACK
6
CONTINUOUS
10
5.40811
20
-3.45121
11
5.40128
21
-3.46203
0
LINE
8
BLACK
6
CONTINUOUS
10
5.40128
20
-3.46203
11
5.39321
21
-3.47195
0
LINE
8
BLACK
6
CONTINUOUS
10
5.39321
20
-3.47195
11
5.384
21
-3.48083
0
LINE
8
BLACK
6
CONTINUOUS
10
5.384
20
-3.48083
11
5.37379
21
-3.48854
0
LINE
8
BLACK
6
CONTINUOUS
10
5.37379
20
-3.48854
11
5.36272
21
-3.49496
0
LINE
8
BLACK
6
CONTINUOUS
10
5.36272
20
-3.49496
11
5.35097
21
-3.50001
0
LINE
8
BLACK
6
CONTINUOUS
10
5.35097
20
-3.50001
11
5.33869
21
-3.50362
0
LINE
8
BLACK
6
CONTINUOUS
10
5.33869
20
-3.50362
11
5.32607
21
-3.50572
0
LINE
8
BLACK
6
CONTINUOUS
10
5.32607
20
-3.50572
11
5.31329
21
-3.50629
0
LINE
8
BLACK
6
CONTINUOUS
10
5.31329
20
-3.50629
11
5.30053
21
-3.50532
0
LINE
8
BLACK
6
CONTINUOUS
10
5.30053
20
-3.50532
11
5.28799
21
-3.50282
0
LINE
8
BLACK
6
CONTINUOUS
10
5.28799
20
-3.50282
11
5.27583
21
-3.49883
0
LINE
8
BLACK
6
CONTINUOUS
10
5.27583
20
-3.49883
11
5.26424
21
-3.49342
0
LINE
8
BLACK
6
CONTINUOUS
10
5.26424
20
-3.49342
11
5.25338
21
-3.48665
0
LINE
8
BLACK
6
CONTINUOUS
10
5.25338
20
-3.48665
11
5.24342
21
-3.47862
0
LINE
8
BLACK
6
CONTINUOUS
10
5.24342
20
-3.47862
11
5.23449
21
-3.46946
0
LINE
8
BLACK
6
CONTINUOUS
10
5.23449
20
-3.46946
11
5.22673
21
-3.45929
0
LINE
8
BLACK
6
CONTINUOUS
10
5.22673
20
-3.45929
11
5.22025
21
-3.44826
0
LINE
8
BLACK
6
CONTINUOUS
10
5.22025
20
-3.44826
11
5.21514
21
-3.43653
0
LINE
8
BLACK
6
CONTINUOUS
10
5.21514
20
-3.43653
11
5.21147
21
-3.42427
0
LINE
8
BLACK
6
CONTINUOUS
10
5.21147
20
-3.42427
11
5.2093
21
-3.41166
0
LINE
8
BLACK
6
CONTINUOUS
10
5.2093
20
-3.41166
11
5.20867
21
-3.39889
0
LINE
8
BLACK
6
CONTINUOUS
10
5.20867
20
-3.39889
11
5.20957
21
-3.38613
0
LINE
8
BLACK
6
CONTINUOUS
10
5.20957
20
-3.38613
11
5.212
21
-3.37356
0
LINE
8
BLACK
6
CONTINUOUS
10
5.212
20
-3.37356
11
5.21592
21
-3.36139
0
LINE
8
BLACK
6
CONTINUOUS
10
5.21592
20
-3.36139
11
5.22128
21
-3.34977
0
LINE
8
BLACK
6
CONTINUOUS
10
5.22128
20
-3.34977
11
5.22799
21
-3.33888
0
LINE
8
BLACK
6
CONTINUOUS
10
5.22799
20
-3.33888
11
5.23596
21
-3.32887
0
LINE
8
BLACK
6
CONTINUOUS
10
5.23596
20
-3.32887
11
5.24508
21
-3.3199
0
LINE
8
BLACK
6
CONTINUOUS
10
5.24508
20
-3.3199
11
5.25521
21
-3.31208
0
LINE
8
BLACK
6
CONTINUOUS
10
5.25521
20
-3.31208
11
5.26621
21
-3.30554
0
LINE
8
BLACK
6
CONTINUOUS
10
5.26621
20
-3.30554
11
5.27791
21
-3.30037
0
LINE
8
BLACK
6
CONTINUOUS
10
5.27791
20
-3.30037
11
5.29015
21
-3.29664
0
LINE
8
BLACK
6
CONTINUOUS
10
5.29015
20
-3.29664
11
5.30274
21
-3.29441
0
LINE
8
BLACK
6
CONTINUOUS
10
5.30274
20
-3.29441
11
5.31552
21
-3.2937
0
LINE
8
BLACK
6
CONTINUOUS
10
5.31552
20
-3.2937
11
5.32828
21
-3.29454
  0
ENDSEC
  0
EOF
