  0
SECTION
  2
HEADER
  9
$ANGBASE
  50
0.0
  9
$ANGDIR
  70
1
  9
$MEASUREMENT
  70
0
  0
ENDSEC
  0
SECTION
  2
TABLES
  0
TABLE
  2
LTYPE
  70
4
  0
LTYPE
  5
40F
  2
CONTINUOUS
  70
0
  3
Solid line
  72
65
  73
0
  40
0.0
  0
LTYPE
  5
410
  2
DASHDOT
 70
0
  3
Dash Dot ____ _ ____ _
 72
65
 73
4
 40
2.0
 49
1.25
 49
-0.25
 49
0.25
 49
-0.25
  0
LTYPE
  5
411
  2
DASHED
 70
0
  3
Dashed __ __ __ __ __
 72
65
 73
2
 40
0.75
 49
0.5
 49
-0.25
  0
LTYPE
  5
43B
  2
DOTTED
 70
0
  3
Dotted .  .  .  .
 72
65
 73
2
 40
0.2
 49
0.0
 49
-0.2
  0
ENDTAB
  0
TABLE
  2
STYLE
  70
4
  0
STYLE
  2
KICAD
  70
0
  40
0
  41
1
  42
1
  50
0
  71
0
  3
isocp.shx
  0
STYLE
  2
KICADB
  70
0
  40
0
  41
1
  42
1
  50
0
  71
0
  3
isocp.shx
  0
STYLE
  2
KICADI
  70
0
  40
0
  41
1
  42
1
  50
15
  71
0
  3
isocp.shx
  0
STYLE
  2
KICADBI
  70
0
  40
0
  41
1
  42
1
  50
15
  71
0
  3
isocp.shx
  0
ENDTAB
  0
TABLE
  2
LAYER
  70
1
  0
LAYER
  2
BLACK
  70
0
  62
7
  6
CONTINUOUS
  0
ENDTAB
  0
ENDSEC
  0
SECTION
  2
ENTITIES
0
LINE
8
BLACK
6
CONTINUOUS
10
6.19059
20
-3.20626
11
6.19122
21
-3.20626
0
LINE
8
BLACK
6
CONTINUOUS
10
6.19122
20
-3.20626
11
6.19172
21
-3.20662
0
LINE
8
BLACK
6
CONTINUOUS
10
6.19172
20
-3.20662
11
6.19231
21
-3.20681
0
LINE
8
BLACK
6
CONTINUOUS
10
6.19231
20
-3.20681
11
6.19268
21
-3.20732
0
LINE
8
BLACK
6
CONTINUOUS
10
6.19268
20
-3.20732
11
6.19319
21
-3.20769
0
LINE
8
BLACK
6
CONTINUOUS
10
6.19319
20
-3.20769
11
6.19338
21
-3.20828
0
LINE
8
BLACK
6
CONTINUOUS
10
6.19338
20
-3.20828
11
6.19374
21
-3.20878
0
LINE
8
BLACK
6
CONTINUOUS
10
6.19374
20
-3.20878
11
6.19374
21
-3.20941
0
LINE
8
BLACK
6
CONTINUOUS
10
6.19374
20
-3.20941
11
6.19394
21
-3.21
0
LINE
8
BLACK
6
CONTINUOUS
10
6.19394
20
-3.21
11
6.19394
21
-5.19
0
LINE
8
BLACK
6
CONTINUOUS
10
6.19394
20
-5.19
11
6.19374
21
-5.19059
0
LINE
8
BLACK
6
CONTINUOUS
10
6.19374
20
-5.19059
11
6.19374
21
-5.19122
0
LINE
8
BLACK
6
CONTINUOUS
10
6.19374
20
-5.19122
11
6.19338
21
-5.19172
0
LINE
8
BLACK
6
CONTINUOUS
10
6.19338
20
-5.19172
11
6.19319
21
-5.19231
0
LINE
8
BLACK
6
CONTINUOUS
10
6.19319
20
-5.19231
11
6.19268
21
-5.19268
0
LINE
8
BLACK
6
CONTINUOUS
10
6.19268
20
-5.19268
11
6.19231
21
-5.19319
0
LINE
8
BLACK
6
CONTINUOUS
10
6.19231
20
-5.19319
11
6.19172
21
-5.19338
0
LINE
8
BLACK
6
CONTINUOUS
10
6.19172
20
-5.19338
11
6.19122
21
-5.19374
0
LINE
8
BLACK
6
CONTINUOUS
10
6.19122
20
-5.19374
11
6.19059
21
-5.19374
0
LINE
8
BLACK
6
CONTINUOUS
10
6.19059
20
-5.19374
11
6.19
21
-5.19394
0
LINE
8
BLACK
6
CONTINUOUS
10
6.19
20
-5.19394
11
3.81
21
-5.19394
0
LINE
8
BLACK
6
CONTINUOUS
10
3.81
20
-5.19394
11
3.80941
21
-5.19374
0
LINE
8
BLACK
6
CONTINUOUS
10
3.80941
20
-5.19374
11
3.80878
21
-5.19374
0
LINE
8
BLACK
6
CONTINUOUS
10
3.80878
20
-5.19374
11
3.80828
21
-5.19338
0
LINE
8
BLACK
6
CONTINUOUS
10
3.80828
20
-5.19338
11
3.80769
21
-5.19319
0
LINE
8
BLACK
6
CONTINUOUS
10
3.80769
20
-5.19319
11
3.80732
21
-5.19268
0
LINE
8
BLACK
6
CONTINUOUS
10
3.80732
20
-5.19268
11
3.80681
21
-5.19231
0
LINE
8
BLACK
6
CONTINUOUS
10
3.80681
20
-5.19231
11
3.80662
21
-5.19172
0
LINE
8
BLACK
6
CONTINUOUS
10
3.80662
20
-5.19172
11
3.80626
21
-5.19122
0
LINE
8
BLACK
6
CONTINUOUS
10
3.80626
20
-5.19122
11
3.80626
21
-5.19059
0
LINE
8
BLACK
6
CONTINUOUS
10
3.80626
20
-5.19059
11
3.80606
21
-5.19
0
LINE
8
BLACK
6
CONTINUOUS
10
3.80606
20
-5.19
11
3.80606
21
-3.21
0
LINE
8
BLACK
6
CONTINUOUS
10
3.80606
20
-3.21
11
3.80626
21
-3.20941
0
LINE
8
BLACK
6
CONTINUOUS
10
3.80626
20
-3.20941
11
3.80626
21
-3.20878
0
LINE
8
BLACK
6
CONTINUOUS
10
3.80626
20
-3.20878
11
3.80662
21
-3.20828
0
LINE
8
BLACK
6
CONTINUOUS
10
3.80662
20
-3.20828
11
3.80681
21
-3.20769
0
LINE
8
BLACK
6
CONTINUOUS
10
3.80681
20
-3.20769
11
3.80732
21
-3.20732
0
LINE
8
BLACK
6
CONTINUOUS
10
3.80732
20
-3.20732
11
3.80769
21
-3.20681
0
LINE
8
BLACK
6
CONTINUOUS
10
3.80769
20
-3.20681
11
3.80828
21
-3.20662
0
LINE
8
BLACK
6
CONTINUOUS
10
3.80828
20
-3.20662
11
3.80878
21
-3.20626
0
LINE
8
BLACK
6
CONTINUOUS
10
3.80878
20
-3.20626
11
3.80941
21
-3.20626
0
LINE
8
BLACK
6
CONTINUOUS
10
3.80941
20
-3.20626
11
3.81
21
-3.20606
0
LINE
8
BLACK
6
CONTINUOUS
10
3.81
20
-3.20606
11
6.19
21
-3.20606
0
LINE
8
BLACK
6
CONTINUOUS
10
6.19
20
-3.20606
11
6.19059
21
-3.20626
0
LINE
8
BLACK
6
CONTINUOUS
10
3.81394
20
-3.21394
11
3.81394
21
-5.18606
0
LINE
8
BLACK
6
CONTINUOUS
10
3.81394
20
-5.18606
11
6.18606
21
-5.18606
0
LINE
8
BLACK
6
CONTINUOUS
10
6.18606
20
-5.18606
11
6.18606
21
-3.21394
0
LINE
8
BLACK
6
CONTINUOUS
10
6.18606
20
-3.21394
11
3.81394
21
-3.21394
  0
ENDSEC
  0
EOF
