  0
SECTION
  2
HEADER
  9
$ANGBASE
  50
0.0
  9
$ANGDIR
  70
1
  9
$MEASUREMENT
  70
0
  0
ENDSEC
  0
SECTION
  2
TABLES
  0
TABLE
  2
LTYPE
  70
4
  0
LTYPE
  5
40F
  2
CONTINUOUS
  70
0
  3
Solid line
  72
65
  73
0
  40
0.0
  0
LTYPE
  5
410
  2
DASHDOT
 70
0
  3
Dash Dot ____ _ ____ _
 72
65
 73
4
 40
2.0
 49
1.25
 49
-0.25
 49
0.25
 49
-0.25
  0
LTYPE
  5
411
  2
DASHED
 70
0
  3
Dashed __ __ __ __ __
 72
65
 73
2
 40
0.75
 49
0.5
 49
-0.25
  0
LTYPE
  5
43B
  2
DOTTED
 70
0
  3
Dotted .  .  .  .
 72
65
 73
2
 40
0.2
 49
0.0
 49
-0.2
  0
ENDTAB
  0
TABLE
  2
STYLE
  70
4
  0
STYLE
  2
KICAD
  70
0
  40
0
  41
1
  42
1
  50
0
  71
0
  3
isocp.shx
  0
STYLE
  2
KICADB
  70
0
  40
0
  41
1
  42
1
  50
0
  71
0
  3
isocp.shx
  0
STYLE
  2
KICADI
  70
0
  40
0
  41
1
  42
1
  50
15
  71
0
  3
isocp.shx
  0
STYLE
  2
KICADBI
  70
0
  40
0
  41
1
  42
1
  50
15
  71
0
  3
isocp.shx
  0
ENDTAB
  0
TABLE
  2
LAYER
  70
1
  0
LAYER
  2
BLACK
  70
0
  62
7
  6
CONTINUOUS
  0
ENDTAB
  0
ENDSEC
  0
SECTION
  2
ENTITIES
0
LINE
8
BLACK
6
CONTINUOUS
10
5.22656
20
-4.64296
11
5.22628
21
-4.64227
0
LINE
8
BLACK
6
CONTINUOUS
10
5.22628
20
-4.64227
11
5.22628
21
-4.52573
0
LINE
8
BLACK
6
CONTINUOUS
10
5.22628
20
-4.52573
11
5.22656
21
-4.52504
0
LINE
8
BLACK
6
CONTINUOUS
10
5.22656
20
-4.52504
11
5.22726
21
-4.52475
0
LINE
8
BLACK
6
CONTINUOUS
10
5.22726
20
-4.52475
11
5.28474
21
-4.52475
0
LINE
8
BLACK
6
CONTINUOUS
10
5.28474
20
-4.52475
11
5.28544
21
-4.52504
0
LINE
8
BLACK
6
CONTINUOUS
10
5.28544
20
-4.52504
11
5.28572
21
-4.52573
0
LINE
8
BLACK
6
CONTINUOUS
10
5.28572
20
-4.52573
11
5.28572
21
-4.64227
0
LINE
8
BLACK
6
CONTINUOUS
10
5.28572
20
-4.64227
11
5.28544
21
-4.64296
0
LINE
8
BLACK
6
CONTINUOUS
10
5.28544
20
-4.64296
11
5.28474
21
-4.64325
0
LINE
8
BLACK
6
CONTINUOUS
10
5.28474
20
-4.64325
11
5.22726
21
-4.64325
0
LINE
8
BLACK
6
CONTINUOUS
10
5.22726
20
-4.64325
11
5.22656
21
-4.64296
0
LINE
8
BLACK
6
CONTINUOUS
10
5.22824
20
-4.52672
11
5.22824
21
-4.64128
0
LINE
8
BLACK
6
CONTINUOUS
10
5.22824
20
-4.64128
11
5.28376
21
-4.64128
0
LINE
8
BLACK
6
CONTINUOUS
10
5.28376
20
-4.64128
11
5.28376
21
-4.52672
0
LINE
8
BLACK
6
CONTINUOUS
10
5.28376
20
-4.52672
11
5.22824
21
-4.52672
0
LINE
8
BLACK
6
CONTINUOUS
10
4.71456
20
-4.64096
11
4.71428
21
-4.64027
0
LINE
8
BLACK
6
CONTINUOUS
10
4.71428
20
-4.64027
11
4.71428
21
-4.52373
0
LINE
8
BLACK
6
CONTINUOUS
10
4.71428
20
-4.52373
11
4.71456
21
-4.52304
0
LINE
8
BLACK
6
CONTINUOUS
10
4.71456
20
-4.52304
11
4.71526
21
-4.52275
0
LINE
8
BLACK
6
CONTINUOUS
10
4.71526
20
-4.52275
11
4.77274
21
-4.52275
0
LINE
8
BLACK
6
CONTINUOUS
10
4.77274
20
-4.52275
11
4.77344
21
-4.52304
0
LINE
8
BLACK
6
CONTINUOUS
10
4.77344
20
-4.52304
11
4.77372
21
-4.52373
0
LINE
8
BLACK
6
CONTINUOUS
10
4.77372
20
-4.52373
11
4.77372
21
-4.64027
0
LINE
8
BLACK
6
CONTINUOUS
10
4.77372
20
-4.64027
11
4.77344
21
-4.64096
0
LINE
8
BLACK
6
CONTINUOUS
10
4.77344
20
-4.64096
11
4.77274
21
-4.64125
0
LINE
8
BLACK
6
CONTINUOUS
10
4.77274
20
-4.64125
11
4.71526
21
-4.64125
0
LINE
8
BLACK
6
CONTINUOUS
10
4.71526
20
-4.64125
11
4.71456
21
-4.64096
0
LINE
8
BLACK
6
CONTINUOUS
10
4.71624
20
-4.52472
11
4.71624
21
-4.63928
0
LINE
8
BLACK
6
CONTINUOUS
10
4.71624
20
-4.63928
11
4.77176
21
-4.63928
0
LINE
8
BLACK
6
CONTINUOUS
10
4.77176
20
-4.63928
11
4.77176
21
-4.52472
0
LINE
8
BLACK
6
CONTINUOUS
10
4.77176
20
-4.52472
11
4.71624
21
-4.52472
0
LINE
8
BLACK
6
CONTINUOUS
10
5.02256
20
-4.59496
11
5.02228
21
-4.59427
0
LINE
8
BLACK
6
CONTINUOUS
10
5.02228
20
-4.59427
11
5.02228
21
-4.47773
0
LINE
8
BLACK
6
CONTINUOUS
10
5.02228
20
-4.47773
11
5.02256
21
-4.47704
0
LINE
8
BLACK
6
CONTINUOUS
10
5.02256
20
-4.47704
11
5.02326
21
-4.47675
0
LINE
8
BLACK
6
CONTINUOUS
10
5.02326
20
-4.47675
11
5.08074
21
-4.47675
0
LINE
8
BLACK
6
CONTINUOUS
10
5.08074
20
-4.47675
11
5.08144
21
-4.47704
0
LINE
8
BLACK
6
CONTINUOUS
10
5.08144
20
-4.47704
11
5.08172
21
-4.47773
0
LINE
8
BLACK
6
CONTINUOUS
10
5.08172
20
-4.47773
11
5.08172
21
-4.59427
0
LINE
8
BLACK
6
CONTINUOUS
10
5.08172
20
-4.59427
11
5.08144
21
-4.59496
0
LINE
8
BLACK
6
CONTINUOUS
10
5.08144
20
-4.59496
11
5.08074
21
-4.59525
0
LINE
8
BLACK
6
CONTINUOUS
10
5.08074
20
-4.59525
11
5.02326
21
-4.59525
0
LINE
8
BLACK
6
CONTINUOUS
10
5.02326
20
-4.59525
11
5.02256
21
-4.59496
0
LINE
8
BLACK
6
CONTINUOUS
10
5.02424
20
-4.47872
11
5.02424
21
-4.59328
0
LINE
8
BLACK
6
CONTINUOUS
10
5.02424
20
-4.59328
11
5.07976
21
-4.59328
0
LINE
8
BLACK
6
CONTINUOUS
10
5.07976
20
-4.59328
11
5.07976
21
-4.47872
0
LINE
8
BLACK
6
CONTINUOUS
10
5.07976
20
-4.47872
11
5.02424
21
-4.47872
0
LINE
8
BLACK
6
CONTINUOUS
10
4.91856
20
-4.59496
11
4.91828
21
-4.59427
0
LINE
8
BLACK
6
CONTINUOUS
10
4.91828
20
-4.59427
11
4.91828
21
-4.47773
0
LINE
8
BLACK
6
CONTINUOUS
10
4.91828
20
-4.47773
11
4.91856
21
-4.47704
0
LINE
8
BLACK
6
CONTINUOUS
10
4.91856
20
-4.47704
11
4.91926
21
-4.47675
0
LINE
8
BLACK
6
CONTINUOUS
10
4.91926
20
-4.47675
11
4.97674
21
-4.47675
0
LINE
8
BLACK
6
CONTINUOUS
10
4.97674
20
-4.47675
11
4.97744
21
-4.47704
0
LINE
8
BLACK
6
CONTINUOUS
10
4.97744
20
-4.47704
11
4.97772
21
-4.47773
0
LINE
8
BLACK
6
CONTINUOUS
10
4.97772
20
-4.47773
11
4.97772
21
-4.59427
0
LINE
8
BLACK
6
CONTINUOUS
10
4.97772
20
-4.59427
11
4.97744
21
-4.59496
0
LINE
8
BLACK
6
CONTINUOUS
10
4.97744
20
-4.59496
11
4.97674
21
-4.59525
0
LINE
8
BLACK
6
CONTINUOUS
10
4.97674
20
-4.59525
11
4.91926
21
-4.59525
0
LINE
8
BLACK
6
CONTINUOUS
10
4.91926
20
-4.59525
11
4.91856
21
-4.59496
0
LINE
8
BLACK
6
CONTINUOUS
10
4.92024
20
-4.47872
11
4.92024
21
-4.59328
0
LINE
8
BLACK
6
CONTINUOUS
10
4.92024
20
-4.59328
11
4.97576
21
-4.59328
0
LINE
8
BLACK
6
CONTINUOUS
10
4.97576
20
-4.59328
11
4.97576
21
-4.47872
0
LINE
8
BLACK
6
CONTINUOUS
10
4.97576
20
-4.47872
11
4.92024
21
-4.47872
0
LINE
8
BLACK
6
CONTINUOUS
10
5.76244
20
-4.54544
11
5.76215
21
-4.54474
0
LINE
8
BLACK
6
CONTINUOUS
10
5.76215
20
-4.54474
11
5.76215
21
-4.48726
0
LINE
8
BLACK
6
CONTINUOUS
10
5.76215
20
-4.48726
11
5.76244
21
-4.48656
0
LINE
8
BLACK
6
CONTINUOUS
10
5.76244
20
-4.48656
11
5.76313
21
-4.48628
0
LINE
8
BLACK
6
CONTINUOUS
10
5.76313
20
-4.48628
11
5.87967
21
-4.48628
0
LINE
8
BLACK
6
CONTINUOUS
10
5.87967
20
-4.48628
11
5.88037
21
-4.48656
0
LINE
8
BLACK
6
CONTINUOUS
10
5.88037
20
-4.48656
11
5.88065
21
-4.48726
0
LINE
8
BLACK
6
CONTINUOUS
10
5.88065
20
-4.48726
11
5.88065
21
-4.54474
0
LINE
8
BLACK
6
CONTINUOUS
10
5.88065
20
-4.54474
11
5.88037
21
-4.54544
0
LINE
8
BLACK
6
CONTINUOUS
10
5.88037
20
-4.54544
11
5.87967
21
-4.54572
0
LINE
8
BLACK
6
CONTINUOUS
10
5.87967
20
-4.54572
11
5.76313
21
-4.54572
0
LINE
8
BLACK
6
CONTINUOUS
10
5.76313
20
-4.54572
11
5.76244
21
-4.54544
0
LINE
8
BLACK
6
CONTINUOUS
10
5.76412
20
-4.48824
11
5.76412
21
-4.54376
0
LINE
8
BLACK
6
CONTINUOUS
10
5.76412
20
-4.54376
11
5.87869
21
-4.54376
0
LINE
8
BLACK
6
CONTINUOUS
10
5.87869
20
-4.54376
11
5.87869
21
-4.48824
0
LINE
8
BLACK
6
CONTINUOUS
10
5.87869
20
-4.48824
11
5.76412
21
-4.48824
0
LINE
8
BLACK
6
CONTINUOUS
10
4.71466
20
-4.52196
11
4.71437
21
-4.52126
0
LINE
8
BLACK
6
CONTINUOUS
10
4.71437
20
-4.52126
11
4.71437
21
-4.40472
0
LINE
8
BLACK
6
CONTINUOUS
10
4.71437
20
-4.40472
11
4.71466
21
-4.40403
0
LINE
8
BLACK
6
CONTINUOUS
10
4.71466
20
-4.40403
11
4.71488
21
-4.40394
0
LINE
8
BLACK
6
CONTINUOUS
10
4.71488
20
-4.40394
11
4.71466
21
-4.40385
0
LINE
8
BLACK
6
CONTINUOUS
10
4.71466
20
-4.40385
11
4.71437
21
-4.40315
0
LINE
8
BLACK
6
CONTINUOUS
10
4.71437
20
-4.40315
11
4.71437
21
-4.28661
0
LINE
8
BLACK
6
CONTINUOUS
10
4.71437
20
-4.28661
11
4.71466
21
-4.28592
0
LINE
8
BLACK
6
CONTINUOUS
10
4.71466
20
-4.28592
11
4.71535
21
-4.28563
0
LINE
8
BLACK
6
CONTINUOUS
10
4.71535
20
-4.28563
11
4.77283
21
-4.28563
0
LINE
8
BLACK
6
CONTINUOUS
10
4.77283
20
-4.28563
11
4.77353
21
-4.28592
0
LINE
8
BLACK
6
CONTINUOUS
10
4.77353
20
-4.28592
11
4.77382
21
-4.28661
0
LINE
8
BLACK
6
CONTINUOUS
10
4.77382
20
-4.28661
11
4.77382
21
-4.40315
0
LINE
8
BLACK
6
CONTINUOUS
10
4.77382
20
-4.40315
11
4.77353
21
-4.40385
0
LINE
8
BLACK
6
CONTINUOUS
10
4.77353
20
-4.40385
11
4.77331
21
-4.40394
0
LINE
8
BLACK
6
CONTINUOUS
10
4.77331
20
-4.40394
11
4.77353
21
-4.40403
0
LINE
8
BLACK
6
CONTINUOUS
10
4.77353
20
-4.40403
11
4.77382
21
-4.40472
0
LINE
8
BLACK
6
CONTINUOUS
10
4.77382
20
-4.40472
11
4.77382
21
-4.52126
0
LINE
8
BLACK
6
CONTINUOUS
10
4.77382
20
-4.52126
11
4.77353
21
-4.52196
0
LINE
8
BLACK
6
CONTINUOUS
10
4.77353
20
-4.52196
11
4.77283
21
-4.52224
0
LINE
8
BLACK
6
CONTINUOUS
10
4.77283
20
-4.52224
11
4.71535
21
-4.52224
0
LINE
8
BLACK
6
CONTINUOUS
10
4.71535
20
-4.52224
11
4.71466
21
-4.52196
0
LINE
8
BLACK
6
CONTINUOUS
10
4.71634
20
-4.40571
11
4.71634
21
-4.52028
0
LINE
8
BLACK
6
CONTINUOUS
10
4.71634
20
-4.52028
11
4.77185
21
-4.52028
0
LINE
8
BLACK
6
CONTINUOUS
10
4.77185
20
-4.52028
11
4.77185
21
-4.40571
0
LINE
8
BLACK
6
CONTINUOUS
10
4.77185
20
-4.40571
11
4.71634
21
-4.40571
0
LINE
8
BLACK
6
CONTINUOUS
10
4.71634
20
-4.2876
11
4.71634
21
-4.40217
0
LINE
8
BLACK
6
CONTINUOUS
10
4.71634
20
-4.40217
11
4.77185
21
-4.40217
0
LINE
8
BLACK
6
CONTINUOUS
10
4.77185
20
-4.40217
11
4.77185
21
-4.2876
0
LINE
8
BLACK
6
CONTINUOUS
10
4.77185
20
-4.2876
11
4.71634
21
-4.2876
0
LINE
8
BLACK
6
CONTINUOUS
10
5.22647
20
-4.52196
11
5.22618
21
-4.52126
0
LINE
8
BLACK
6
CONTINUOUS
10
5.22618
20
-4.52126
11
5.22618
21
-4.40472
0
LINE
8
BLACK
6
CONTINUOUS
10
5.22618
20
-4.40472
11
5.22647
21
-4.40403
0
LINE
8
BLACK
6
CONTINUOUS
10
5.22647
20
-4.40403
11
5.22669
21
-4.40394
0
LINE
8
BLACK
6
CONTINUOUS
10
5.22669
20
-4.40394
11
5.22647
21
-4.40385
0
LINE
8
BLACK
6
CONTINUOUS
10
5.22647
20
-4.40385
11
5.22618
21
-4.40315
0
LINE
8
BLACK
6
CONTINUOUS
10
5.22618
20
-4.40315
11
5.22618
21
-4.28661
0
LINE
8
BLACK
6
CONTINUOUS
10
5.22618
20
-4.28661
11
5.22647
21
-4.28592
0
LINE
8
BLACK
6
CONTINUOUS
10
5.22647
20
-4.28592
11
5.22717
21
-4.28563
0
LINE
8
BLACK
6
CONTINUOUS
10
5.22717
20
-4.28563
11
5.28465
21
-4.28563
0
LINE
8
BLACK
6
CONTINUOUS
10
5.28465
20
-4.28563
11
5.28534
21
-4.28592
0
LINE
8
BLACK
6
CONTINUOUS
10
5.28534
20
-4.28592
11
5.28563
21
-4.28661
0
LINE
8
BLACK
6
CONTINUOUS
10
5.28563
20
-4.28661
11
5.28563
21
-4.40315
0
LINE
8
BLACK
6
CONTINUOUS
10
5.28563
20
-4.40315
11
5.28534
21
-4.40385
0
LINE
8
BLACK
6
CONTINUOUS
10
5.28534
20
-4.40385
11
5.28512
21
-4.40394
0
LINE
8
BLACK
6
CONTINUOUS
10
5.28512
20
-4.40394
11
5.28534
21
-4.40403
0
LINE
8
BLACK
6
CONTINUOUS
10
5.28534
20
-4.40403
11
5.28563
21
-4.40472
0
LINE
8
BLACK
6
CONTINUOUS
10
5.28563
20
-4.40472
11
5.28563
21
-4.52126
0
LINE
8
BLACK
6
CONTINUOUS
10
5.28563
20
-4.52126
11
5.28534
21
-4.52196
0
LINE
8
BLACK
6
CONTINUOUS
10
5.28534
20
-4.52196
11
5.28465
21
-4.52224
0
LINE
8
BLACK
6
CONTINUOUS
10
5.28465
20
-4.52224
11
5.22717
21
-4.52224
0
LINE
8
BLACK
6
CONTINUOUS
10
5.22717
20
-4.52224
11
5.22647
21
-4.52196
0
LINE
8
BLACK
6
CONTINUOUS
10
5.22815
20
-4.40571
11
5.22815
21
-4.52028
0
LINE
8
BLACK
6
CONTINUOUS
10
5.22815
20
-4.52028
11
5.28366
21
-4.52028
0
LINE
8
BLACK
6
CONTINUOUS
10
5.28366
20
-4.52028
11
5.28366
21
-4.40571
0
LINE
8
BLACK
6
CONTINUOUS
10
5.28366
20
-4.40571
11
5.22815
21
-4.40571
0
LINE
8
BLACK
6
CONTINUOUS
10
5.22815
20
-4.2876
11
5.22815
21
-4.40217
0
LINE
8
BLACK
6
CONTINUOUS
10
5.22815
20
-4.40217
11
5.28366
21
-4.40217
0
LINE
8
BLACK
6
CONTINUOUS
10
5.28366
20
-4.40217
11
5.28366
21
-4.2876
0
LINE
8
BLACK
6
CONTINUOUS
10
5.28366
20
-4.2876
11
5.22815
21
-4.2876
0
LINE
8
BLACK
6
CONTINUOUS
10
4.90177
20
-4.35551
11
4.90177
21
-4.47205
0
LINE
8
BLACK
6
CONTINUOUS
10
4.90177
20
-4.47205
11
4.90148
21
-4.47274
0
LINE
8
BLACK
6
CONTINUOUS
10
4.90148
20
-4.47274
11
4.90079
21
-4.47303
0
LINE
8
BLACK
6
CONTINUOUS
10
4.90079
20
-4.47303
11
4.84331
21
-4.47303
0
LINE
8
BLACK
6
CONTINUOUS
10
4.84331
20
-4.47303
11
4.84261
21
-4.47274
0
LINE
8
BLACK
6
CONTINUOUS
10
4.84261
20
-4.47274
11
4.84252
21
-4.47252
0
LINE
8
BLACK
6
CONTINUOUS
10
4.84252
20
-4.47252
11
4.84243
21
-4.47274
0
LINE
8
BLACK
6
CONTINUOUS
10
4.84243
20
-4.47274
11
4.84173
21
-4.47303
0
LINE
8
BLACK
6
CONTINUOUS
10
4.84173
20
-4.47303
11
4.78425
21
-4.47303
0
LINE
8
BLACK
6
CONTINUOUS
10
4.78425
20
-4.47303
11
4.78356
21
-4.47274
0
LINE
8
BLACK
6
CONTINUOUS
10
4.78356
20
-4.47274
11
4.78327
21
-4.47205
0
LINE
8
BLACK
6
CONTINUOUS
10
4.78327
20
-4.47205
11
4.78327
21
-4.35551
0
LINE
8
BLACK
6
CONTINUOUS
10
4.78327
20
-4.35551
11
4.78356
21
-4.35482
0
LINE
8
BLACK
6
CONTINUOUS
10
4.78356
20
-4.35482
11
4.78425
21
-4.35453
0
LINE
8
BLACK
6
CONTINUOUS
10
4.78425
20
-4.35453
11
4.84173
21
-4.35453
0
LINE
8
BLACK
6
CONTINUOUS
10
4.84173
20
-4.35453
11
4.84243
21
-4.35482
0
LINE
8
BLACK
6
CONTINUOUS
10
4.84243
20
-4.35482
11
4.84252
21
-4.35504
0
LINE
8
BLACK
6
CONTINUOUS
10
4.84252
20
-4.35504
11
4.84261
21
-4.35482
0
LINE
8
BLACK
6
CONTINUOUS
10
4.84261
20
-4.35482
11
4.84331
21
-4.35453
0
LINE
8
BLACK
6
CONTINUOUS
10
4.84331
20
-4.35453
11
4.90079
21
-4.35453
0
LINE
8
BLACK
6
CONTINUOUS
10
4.90079
20
-4.35453
11
4.90148
21
-4.35482
0
LINE
8
BLACK
6
CONTINUOUS
10
4.90148
20
-4.35482
11
4.90177
21
-4.35551
0
LINE
8
BLACK
6
CONTINUOUS
10
4.84429
20
-4.3565
11
4.84429
21
-4.47106
0
LINE
8
BLACK
6
CONTINUOUS
10
4.84429
20
-4.47106
11
4.8998
21
-4.47106
0
LINE
8
BLACK
6
CONTINUOUS
10
4.8998
20
-4.47106
11
4.8998
21
-4.3565
0
LINE
8
BLACK
6
CONTINUOUS
10
4.8998
20
-4.3565
11
4.84429
21
-4.3565
0
LINE
8
BLACK
6
CONTINUOUS
10
4.78524
20
-4.3565
11
4.78524
21
-4.47106
0
LINE
8
BLACK
6
CONTINUOUS
10
4.78524
20
-4.47106
11
4.84075
21
-4.47106
0
LINE
8
BLACK
6
CONTINUOUS
10
4.84075
20
-4.47106
11
4.84075
21
-4.3565
0
LINE
8
BLACK
6
CONTINUOUS
10
4.84075
20
-4.3565
11
4.78524
21
-4.3565
0
LINE
8
BLACK
6
CONTINUOUS
10
5.21673
20
-4.35551
11
5.21673
21
-4.47205
0
LINE
8
BLACK
6
CONTINUOUS
10
5.21673
20
-4.47205
11
5.21644
21
-4.47274
0
LINE
8
BLACK
6
CONTINUOUS
10
5.21644
20
-4.47274
11
5.21575
21
-4.47303
0
LINE
8
BLACK
6
CONTINUOUS
10
5.21575
20
-4.47303
11
5.15827
21
-4.47303
0
LINE
8
BLACK
6
CONTINUOUS
10
5.15827
20
-4.47303
11
5.15757
21
-4.47274
0
LINE
8
BLACK
6
CONTINUOUS
10
5.15757
20
-4.47274
11
5.15748
21
-4.47252
0
LINE
8
BLACK
6
CONTINUOUS
10
5.15748
20
-4.47252
11
5.15739
21
-4.47274
0
LINE
8
BLACK
6
CONTINUOUS
10
5.15739
20
-4.47274
11
5.15669
21
-4.47303
0
LINE
8
BLACK
6
CONTINUOUS
10
5.15669
20
-4.47303
11
5.09921
21
-4.47303
0
LINE
8
BLACK
6
CONTINUOUS
10
5.09921
20
-4.47303
11
5.09852
21
-4.47274
0
LINE
8
BLACK
6
CONTINUOUS
10
5.09852
20
-4.47274
11
5.09823
21
-4.47205
0
LINE
8
BLACK
6
CONTINUOUS
10
5.09823
20
-4.47205
11
5.09823
21
-4.35551
0
LINE
8
BLACK
6
CONTINUOUS
10
5.09823
20
-4.35551
11
5.09852
21
-4.35482
0
LINE
8
BLACK
6
CONTINUOUS
10
5.09852
20
-4.35482
11
5.09921
21
-4.35453
0
LINE
8
BLACK
6
CONTINUOUS
10
5.09921
20
-4.35453
11
5.15669
21
-4.35453
0
LINE
8
BLACK
6
CONTINUOUS
10
5.15669
20
-4.35453
11
5.15739
21
-4.35482
0
LINE
8
BLACK
6
CONTINUOUS
10
5.15739
20
-4.35482
11
5.15748
21
-4.35504
0
LINE
8
BLACK
6
CONTINUOUS
10
5.15748
20
-4.35504
11
5.15757
21
-4.35482
0
LINE
8
BLACK
6
CONTINUOUS
10
5.15757
20
-4.35482
11
5.15827
21
-4.35453
0
LINE
8
BLACK
6
CONTINUOUS
10
5.15827
20
-4.35453
11
5.21575
21
-4.35453
0
LINE
8
BLACK
6
CONTINUOUS
10
5.21575
20
-4.35453
11
5.21644
21
-4.35482
0
LINE
8
BLACK
6
CONTINUOUS
10
5.21644
20
-4.35482
11
5.21673
21
-4.35551
0
LINE
8
BLACK
6
CONTINUOUS
10
5.15925
20
-4.3565
11
5.15925
21
-4.47106
0
LINE
8
BLACK
6
CONTINUOUS
10
5.15925
20
-4.47106
11
5.21476
21
-4.47106
0
LINE
8
BLACK
6
CONTINUOUS
10
5.21476
20
-4.47106
11
5.21476
21
-4.3565
0
LINE
8
BLACK
6
CONTINUOUS
10
5.21476
20
-4.3565
11
5.15925
21
-4.3565
0
LINE
8
BLACK
6
CONTINUOUS
10
5.1002
20
-4.3565
11
5.1002
21
-4.47106
0
LINE
8
BLACK
6
CONTINUOUS
10
5.1002
20
-4.47106
11
5.15571
21
-4.47106
0
LINE
8
BLACK
6
CONTINUOUS
10
5.15571
20
-4.47106
11
5.15571
21
-4.3565
0
LINE
8
BLACK
6
CONTINUOUS
10
5.15571
20
-4.3565
11
5.1002
21
-4.3565
0
LINE
8
BLACK
6
CONTINUOUS
10
4.91151
20
-4.47274
11
4.91122
21
-4.47205
0
LINE
8
BLACK
6
CONTINUOUS
10
4.91122
20
-4.47205
11
4.91122
21
-4.35551
0
LINE
8
BLACK
6
CONTINUOUS
10
4.91122
20
-4.35551
11
4.91151
21
-4.35482
0
LINE
8
BLACK
6
CONTINUOUS
10
4.91151
20
-4.35482
11
4.9122
21
-4.35453
0
LINE
8
BLACK
6
CONTINUOUS
10
4.9122
20
-4.35453
11
4.96969
21
-4.35453
0
LINE
8
BLACK
6
CONTINUOUS
10
4.96969
20
-4.35453
11
4.97038
21
-4.35482
0
LINE
8
BLACK
6
CONTINUOUS
10
4.97038
20
-4.35482
11
4.97067
21
-4.35551
0
LINE
8
BLACK
6
CONTINUOUS
10
4.97067
20
-4.35551
11
4.97067
21
-4.47205
0
LINE
8
BLACK
6
CONTINUOUS
10
4.97067
20
-4.47205
11
4.97038
21
-4.47274
0
LINE
8
BLACK
6
CONTINUOUS
10
4.97038
20
-4.47274
11
4.96969
21
-4.47303
0
LINE
8
BLACK
6
CONTINUOUS
10
4.96969
20
-4.47303
11
4.9122
21
-4.47303
0
LINE
8
BLACK
6
CONTINUOUS
10
4.9122
20
-4.47303
11
4.91151
21
-4.47274
0
LINE
8
BLACK
6
CONTINUOUS
10
4.91319
20
-4.3565
11
4.91319
21
-4.47106
0
LINE
8
BLACK
6
CONTINUOUS
10
4.91319
20
-4.47106
11
4.9687
21
-4.47106
0
LINE
8
BLACK
6
CONTINUOUS
10
4.9687
20
-4.47106
11
4.9687
21
-4.3565
0
LINE
8
BLACK
6
CONTINUOUS
10
4.9687
20
-4.3565
11
4.91319
21
-4.3565
0
LINE
8
BLACK
6
CONTINUOUS
10
5.02962
20
-4.47274
11
5.02933
21
-4.47205
0
LINE
8
BLACK
6
CONTINUOUS
10
5.02933
20
-4.47205
11
5.02933
21
-4.35551
0
LINE
8
BLACK
6
CONTINUOUS
10
5.02933
20
-4.35551
11
5.02962
21
-4.35482
0
LINE
8
BLACK
6
CONTINUOUS
10
5.02962
20
-4.35482
11
5.03031
21
-4.35453
0
LINE
8
BLACK
6
CONTINUOUS
10
5.03031
20
-4.35453
11
5.0878
21
-4.35453
0
LINE
8
BLACK
6
CONTINUOUS
10
5.0878
20
-4.35453
11
5.08849
21
-4.35482
0
LINE
8
BLACK
6
CONTINUOUS
10
5.08849
20
-4.35482
11
5.08878
21
-4.35551
0
LINE
8
BLACK
6
CONTINUOUS
10
5.08878
20
-4.35551
11
5.08878
21
-4.47205
0
LINE
8
BLACK
6
CONTINUOUS
10
5.08878
20
-4.47205
11
5.08849
21
-4.47274
0
LINE
8
BLACK
6
CONTINUOUS
10
5.08849
20
-4.47274
11
5.0878
21
-4.47303
0
LINE
8
BLACK
6
CONTINUOUS
10
5.0878
20
-4.47303
11
5.03031
21
-4.47303
0
LINE
8
BLACK
6
CONTINUOUS
10
5.03031
20
-4.47303
11
5.02962
21
-4.47274
0
LINE
8
BLACK
6
CONTINUOUS
10
5.0313
20
-4.3565
11
5.0313
21
-4.47106
0
LINE
8
BLACK
6
CONTINUOUS
10
5.0313
20
-4.47106
11
5.08681
21
-4.47106
0
LINE
8
BLACK
6
CONTINUOUS
10
5.08681
20
-4.47106
11
5.08681
21
-4.3565
0
LINE
8
BLACK
6
CONTINUOUS
10
5.08681
20
-4.3565
11
5.0313
21
-4.3565
0
LINE
8
BLACK
6
CONTINUOUS
10
5.75437
20
-4.44128
11
5.75409
21
-4.44058
0
LINE
8
BLACK
6
CONTINUOUS
10
5.75409
20
-4.44058
11
5.75409
21
-4.36342
0
LINE
8
BLACK
6
CONTINUOUS
10
5.75409
20
-4.36342
11
5.75437
21
-4.36272
0
LINE
8
BLACK
6
CONTINUOUS
10
5.75437
20
-4.36272
11
5.75507
21
-4.36243
0
LINE
8
BLACK
6
CONTINUOUS
10
5.75507
20
-4.36243
11
5.88893
21
-4.36243
0
LINE
8
BLACK
6
CONTINUOUS
10
5.88893
20
-4.36243
11
5.88963
21
-4.36272
0
LINE
8
BLACK
6
CONTINUOUS
10
5.88963
20
-4.36272
11
5.88991
21
-4.36342
0
LINE
8
BLACK
6
CONTINUOUS
10
5.88991
20
-4.36342
11
5.88991
21
-4.44058
0
LINE
8
BLACK
6
CONTINUOUS
10
5.88991
20
-4.44058
11
5.88963
21
-4.44128
0
LINE
8
BLACK
6
CONTINUOUS
10
5.88963
20
-4.44128
11
5.88893
21
-4.44157
0
LINE
8
BLACK
6
CONTINUOUS
10
5.88893
20
-4.44157
11
5.75507
21
-4.44157
0
LINE
8
BLACK
6
CONTINUOUS
10
5.75507
20
-4.44157
11
5.75437
21
-4.44128
0
LINE
8
BLACK
6
CONTINUOUS
10
5.75606
20
-4.3644
11
5.75606
21
-4.4396
0
LINE
8
BLACK
6
CONTINUOUS
10
5.75606
20
-4.4396
11
5.88794
21
-4.4396
0
LINE
8
BLACK
6
CONTINUOUS
10
5.88794
20
-4.4396
11
5.88794
21
-4.3644
0
LINE
8
BLACK
6
CONTINUOUS
10
5.88794
20
-4.3644
11
5.75606
21
-4.3644
0
LINE
8
BLACK
6
CONTINUOUS
10
4.95993
20
-4.34951
11
4.95965
21
-4.34882
0
LINE
8
BLACK
6
CONTINUOUS
10
4.95965
20
-4.34882
11
4.95965
21
-4.22283
0
LINE
8
BLACK
6
CONTINUOUS
10
4.95965
20
-4.22283
11
4.95993
21
-4.22214
0
LINE
8
BLACK
6
CONTINUOUS
10
4.95993
20
-4.22214
11
4.96063
21
-4.22185
0
LINE
8
BLACK
6
CONTINUOUS
10
4.96063
20
-4.22185
11
5.03937
21
-4.22185
0
LINE
8
BLACK
6
CONTINUOUS
10
5.03937
20
-4.22185
11
5.04007
21
-4.22214
0
LINE
8
BLACK
6
CONTINUOUS
10
5.04007
20
-4.22214
11
5.04035
21
-4.22283
0
LINE
8
BLACK
6
CONTINUOUS
10
5.04035
20
-4.22283
11
5.04035
21
-4.34882
0
LINE
8
BLACK
6
CONTINUOUS
10
5.04035
20
-4.34882
11
5.04007
21
-4.34951
0
LINE
8
BLACK
6
CONTINUOUS
10
5.04007
20
-4.34951
11
5.03937
21
-4.3498
0
LINE
8
BLACK
6
CONTINUOUS
10
5.03937
20
-4.3498
11
4.96063
21
-4.3498
0
LINE
8
BLACK
6
CONTINUOUS
10
4.96063
20
-4.3498
11
4.95993
21
-4.34951
0
LINE
8
BLACK
6
CONTINUOUS
10
4.96161
20
-4.22382
11
4.96161
21
-4.34783
0
LINE
8
BLACK
6
CONTINUOUS
10
4.96161
20
-4.34783
11
5.03839
21
-4.34783
0
LINE
8
BLACK
6
CONTINUOUS
10
5.03839
20
-4.34783
11
5.03839
21
-4.22382
0
LINE
8
BLACK
6
CONTINUOUS
10
5.03839
20
-4.22382
11
4.96161
21
-4.22382
0
LINE
8
BLACK
6
CONTINUOUS
10
5.09852
20
-4.34479
11
5.09823
21
-4.34409
0
LINE
8
BLACK
6
CONTINUOUS
10
5.09823
20
-4.34409
11
5.09823
21
-4.28661
0
LINE
8
BLACK
6
CONTINUOUS
10
5.09823
20
-4.28661
11
5.09852
21
-4.28592
0
LINE
8
BLACK
6
CONTINUOUS
10
5.09852
20
-4.28592
11
5.09921
21
-4.28563
0
LINE
8
BLACK
6
CONTINUOUS
10
5.09921
20
-4.28563
11
5.21575
21
-4.28563
0
LINE
8
BLACK
6
CONTINUOUS
10
5.21575
20
-4.28563
11
5.21644
21
-4.28592
0
LINE
8
BLACK
6
CONTINUOUS
10
5.21644
20
-4.28592
11
5.21673
21
-4.28661
0
LINE
8
BLACK
6
CONTINUOUS
10
5.21673
20
-4.28661
11
5.21673
21
-4.34409
0
LINE
8
BLACK
6
CONTINUOUS
10
5.21673
20
-4.34409
11
5.21644
21
-4.34479
0
LINE
8
BLACK
6
CONTINUOUS
10
5.21644
20
-4.34479
11
5.21575
21
-4.34508
0
LINE
8
BLACK
6
CONTINUOUS
10
5.21575
20
-4.34508
11
5.09921
21
-4.34508
0
LINE
8
BLACK
6
CONTINUOUS
10
5.09921
20
-4.34508
11
5.09852
21
-4.34479
0
LINE
8
BLACK
6
CONTINUOUS
10
5.1002
20
-4.2876
11
5.1002
21
-4.34311
0
LINE
8
BLACK
6
CONTINUOUS
10
5.1002
20
-4.34311
11
5.21476
21
-4.34311
0
LINE
8
BLACK
6
CONTINUOUS
10
5.21476
20
-4.34311
11
5.21476
21
-4.2876
0
LINE
8
BLACK
6
CONTINUOUS
10
5.21476
20
-4.2876
11
5.1002
21
-4.2876
0
LINE
8
BLACK
6
CONTINUOUS
10
4.78356
20
-4.34479
11
4.78327
21
-4.34409
0
LINE
8
BLACK
6
CONTINUOUS
10
4.78327
20
-4.34409
11
4.78327
21
-4.28661
0
LINE
8
BLACK
6
CONTINUOUS
10
4.78327
20
-4.28661
11
4.78356
21
-4.28592
0
LINE
8
BLACK
6
CONTINUOUS
10
4.78356
20
-4.28592
11
4.78425
21
-4.28563
0
LINE
8
BLACK
6
CONTINUOUS
10
4.78425
20
-4.28563
11
4.90079
21
-4.28563
0
LINE
8
BLACK
6
CONTINUOUS
10
4.90079
20
-4.28563
11
4.90148
21
-4.28592
0
LINE
8
BLACK
6
CONTINUOUS
10
4.90148
20
-4.28592
11
4.90177
21
-4.28661
0
LINE
8
BLACK
6
CONTINUOUS
10
4.90177
20
-4.28661
11
4.90177
21
-4.34409
0
LINE
8
BLACK
6
CONTINUOUS
10
4.90177
20
-4.34409
11
4.90148
21
-4.34479
0
LINE
8
BLACK
6
CONTINUOUS
10
4.90148
20
-4.34479
11
4.90079
21
-4.34508
0
LINE
8
BLACK
6
CONTINUOUS
10
4.90079
20
-4.34508
11
4.78425
21
-4.34508
0
LINE
8
BLACK
6
CONTINUOUS
10
4.78425
20
-4.34508
11
4.78356
21
-4.34479
0
LINE
8
BLACK
6
CONTINUOUS
10
4.78524
20
-4.2876
11
4.78524
21
-4.34311
0
LINE
8
BLACK
6
CONTINUOUS
10
4.78524
20
-4.34311
11
4.8998
21
-4.34311
0
LINE
8
BLACK
6
CONTINUOUS
10
4.8998
20
-4.34311
11
4.8998
21
-4.2876
0
LINE
8
BLACK
6
CONTINUOUS
10
4.8998
20
-4.2876
11
4.78524
21
-4.2876
0
LINE
8
BLACK
6
CONTINUOUS
10
5.82751
20
-4.31959
11
5.82722
21
-4.3189
0
LINE
8
BLACK
6
CONTINUOUS
10
5.82722
20
-4.3189
11
5.82722
21
-4.1811
0
LINE
8
BLACK
6
CONTINUOUS
10
5.82722
20
-4.1811
11
5.82751
21
-4.18041
0
LINE
8
BLACK
6
CONTINUOUS
10
5.82751
20
-4.18041
11
5.8282
21
-4.18012
0
LINE
8
BLACK
6
CONTINUOUS
10
5.8282
20
-4.18012
11
6.1038
21
-4.18012
0
LINE
8
BLACK
6
CONTINUOUS
10
6.1038
20
-4.18012
11
6.10449
21
-4.18041
0
LINE
8
BLACK
6
CONTINUOUS
10
6.10449
20
-4.18041
11
6.10478
21
-4.1811
0
LINE
8
BLACK
6
CONTINUOUS
10
6.10478
20
-4.1811
11
6.10478
21
-4.3189
0
LINE
8
BLACK
6
CONTINUOUS
10
6.10478
20
-4.3189
11
6.10449
21
-4.31959
0
LINE
8
BLACK
6
CONTINUOUS
10
6.10449
20
-4.31959
11
6.1038
21
-4.31988
0
LINE
8
BLACK
6
CONTINUOUS
10
6.1038
20
-4.31988
11
5.8282
21
-4.31988
0
LINE
8
BLACK
6
CONTINUOUS
10
5.8282
20
-4.31988
11
5.82751
21
-4.31959
0
LINE
8
BLACK
6
CONTINUOUS
10
5.82919
20
-4.18209
11
5.82919
21
-4.31791
0
LINE
8
BLACK
6
CONTINUOUS
10
5.82919
20
-4.31791
11
6.10281
21
-4.31791
0
LINE
8
BLACK
6
CONTINUOUS
10
6.10281
20
-4.31791
11
6.10281
21
-4.18209
0
LINE
8
BLACK
6
CONTINUOUS
10
6.10281
20
-4.18209
11
5.82919
21
-4.18209
0
LINE
8
BLACK
6
CONTINUOUS
10
5.05049
20
-4.27077
11
5.0502
21
-4.27008
0
LINE
8
BLACK
6
CONTINUOUS
10
5.0502
20
-4.27008
11
5.0502
21
-3.97874
0
LINE
8
BLACK
6
CONTINUOUS
10
5.0502
20
-3.97874
11
5.05049
21
-3.97804
0
LINE
8
BLACK
6
CONTINUOUS
10
5.05049
20
-3.97804
11
5.05118
21
-3.97776
0
LINE
8
BLACK
6
CONTINUOUS
10
5.05118
20
-3.97776
11
5.26378
21
-3.97776
0
LINE
8
BLACK
6
CONTINUOUS
10
5.26378
20
-3.97776
11
5.26448
21
-3.97804
0
LINE
8
BLACK
6
CONTINUOUS
10
5.26448
20
-3.97804
11
5.26476
21
-3.97874
0
LINE
8
BLACK
6
CONTINUOUS
10
5.26476
20
-3.97874
11
5.26476
21
-4.27008
0
LINE
8
BLACK
6
CONTINUOUS
10
5.26476
20
-4.27008
11
5.26448
21
-4.27077
0
LINE
8
BLACK
6
CONTINUOUS
10
5.26448
20
-4.27077
11
5.26378
21
-4.27106
0
LINE
8
BLACK
6
CONTINUOUS
10
5.26378
20
-4.27106
11
5.05118
21
-4.27106
0
LINE
8
BLACK
6
CONTINUOUS
10
5.05118
20
-4.27106
11
5.05049
21
-4.27077
0
LINE
8
BLACK
6
CONTINUOUS
10
5.05217
20
-3.97972
11
5.05217
21
-4.26909
0
LINE
8
BLACK
6
CONTINUOUS
10
5.05217
20
-4.26909
11
5.2628
21
-4.26909
0
LINE
8
BLACK
6
CONTINUOUS
10
5.2628
20
-4.26909
11
5.2628
21
-3.97972
0
LINE
8
BLACK
6
CONTINUOUS
10
5.2628
20
-3.97972
11
5.05217
21
-3.97972
0
LINE
8
BLACK
6
CONTINUOUS
10
4.73552
20
-4.27077
11
4.73524
21
-4.27008
0
LINE
8
BLACK
6
CONTINUOUS
10
4.73524
20
-4.27008
11
4.73524
21
-3.97874
0
LINE
8
BLACK
6
CONTINUOUS
10
4.73524
20
-3.97874
11
4.73552
21
-3.97804
0
LINE
8
BLACK
6
CONTINUOUS
10
4.73552
20
-3.97804
11
4.73622
21
-3.97776
0
LINE
8
BLACK
6
CONTINUOUS
10
4.73622
20
-3.97776
11
4.94882
21
-3.97776
0
LINE
8
BLACK
6
CONTINUOUS
10
4.94882
20
-3.97776
11
4.94951
21
-3.97804
0
LINE
8
BLACK
6
CONTINUOUS
10
4.94951
20
-3.97804
11
4.9498
21
-3.97874
0
LINE
8
BLACK
6
CONTINUOUS
10
4.9498
20
-3.97874
11
4.9498
21
-4.27008
0
LINE
8
BLACK
6
CONTINUOUS
10
4.9498
20
-4.27008
11
4.94951
21
-4.27077
0
LINE
8
BLACK
6
CONTINUOUS
10
4.94951
20
-4.27077
11
4.94882
21
-4.27106
0
LINE
8
BLACK
6
CONTINUOUS
10
4.94882
20
-4.27106
11
4.73622
21
-4.27106
0
LINE
8
BLACK
6
CONTINUOUS
10
4.73622
20
-4.27106
11
4.73552
21
-4.27077
0
LINE
8
BLACK
6
CONTINUOUS
10
4.7372
20
-3.97972
11
4.7372
21
-4.26909
0
LINE
8
BLACK
6
CONTINUOUS
10
4.7372
20
-4.26909
11
4.94783
21
-4.26909
0
LINE
8
BLACK
6
CONTINUOUS
10
4.94783
20
-4.26909
11
4.94783
21
-3.97972
0
LINE
8
BLACK
6
CONTINUOUS
10
4.94783
20
-3.97972
11
4.7372
21
-3.97972
0
LINE
8
BLACK
6
CONTINUOUS
10
4.95678
20
-4.1814
11
4.9565
21
-4.18071
0
LINE
8
BLACK
6
CONTINUOUS
10
4.9565
20
-4.18071
11
4.9565
21
-4.06417
0
LINE
8
BLACK
6
CONTINUOUS
10
4.9565
20
-4.06417
11
4.95678
21
-4.06348
0
LINE
8
BLACK
6
CONTINUOUS
10
4.95678
20
-4.06348
11
4.95748
21
-4.06319
0
LINE
8
BLACK
6
CONTINUOUS
10
4.95748
20
-4.06319
11
5.01496
21
-4.06319
0
LINE
8
BLACK
6
CONTINUOUS
10
5.01496
20
-4.06319
11
5.01566
21
-4.06348
0
LINE
8
BLACK
6
CONTINUOUS
10
5.01566
20
-4.06348
11
5.01594
21
-4.06417
0
LINE
8
BLACK
6
CONTINUOUS
10
5.01594
20
-4.06417
11
5.01594
21
-4.18071
0
LINE
8
BLACK
6
CONTINUOUS
10
5.01594
20
-4.18071
11
5.01566
21
-4.1814
0
LINE
8
BLACK
6
CONTINUOUS
10
5.01566
20
-4.1814
11
5.01496
21
-4.18169
0
LINE
8
BLACK
6
CONTINUOUS
10
5.01496
20
-4.18169
11
4.95748
21
-4.18169
0
LINE
8
BLACK
6
CONTINUOUS
10
4.95748
20
-4.18169
11
4.95678
21
-4.1814
0
LINE
8
BLACK
6
CONTINUOUS
10
4.95846
20
-4.06516
11
4.95846
21
-4.17972
0
LINE
8
BLACK
6
CONTINUOUS
10
4.95846
20
-4.17972
11
5.01398
21
-4.17972
0
LINE
8
BLACK
6
CONTINUOUS
10
5.01398
20
-4.17972
11
5.01398
21
-4.06516
0
LINE
8
BLACK
6
CONTINUOUS
10
5.01398
20
-4.06516
11
4.95846
21
-4.06516
0
LINE
8
BLACK
6
CONTINUOUS
10
5.83671
20
-4.1507
11
5.83642
21
-4.15
0
LINE
8
BLACK
6
CONTINUOUS
10
5.83642
20
-4.15
11
5.83642
21
-4.09252
0
LINE
8
BLACK
6
CONTINUOUS
10
5.83642
20
-4.09252
11
5.83671
21
-4.09182
0
LINE
8
BLACK
6
CONTINUOUS
10
5.83671
20
-4.09182
11
5.8374
21
-4.09154
0
LINE
8
BLACK
6
CONTINUOUS
10
5.8374
20
-4.09154
11
5.95394
21
-4.09154
0
LINE
8
BLACK
6
CONTINUOUS
10
5.95394
20
-4.09154
11
5.95463
21
-4.09182
0
LINE
8
BLACK
6
CONTINUOUS
10
5.95463
20
-4.09182
11
5.95492
21
-4.09252
0
LINE
8
BLACK
6
CONTINUOUS
10
5.95492
20
-4.09252
11
5.95492
21
-4.15
0
LINE
8
BLACK
6
CONTINUOUS
10
5.95492
20
-4.15
11
5.95463
21
-4.1507
0
LINE
8
BLACK
6
CONTINUOUS
10
5.95463
20
-4.1507
11
5.95394
21
-4.15098
0
LINE
8
BLACK
6
CONTINUOUS
10
5.95394
20
-4.15098
11
5.8374
21
-4.15098
0
LINE
8
BLACK
6
CONTINUOUS
10
5.8374
20
-4.15098
11
5.83671
21
-4.1507
0
LINE
8
BLACK
6
CONTINUOUS
10
5.83839
20
-4.0935
11
5.83839
21
-4.14902
0
LINE
8
BLACK
6
CONTINUOUS
10
5.83839
20
-4.14902
11
5.95295
21
-4.14902
0
LINE
8
BLACK
6
CONTINUOUS
10
5.95295
20
-4.14902
11
5.95295
21
-4.0935
0
LINE
8
BLACK
6
CONTINUOUS
10
5.95295
20
-4.0935
11
5.83839
21
-4.0935
0
LINE
8
BLACK
6
CONTINUOUS
10
5.80245
20
-4.05896
11
5.80217
21
-4.05827
0
LINE
8
BLACK
6
CONTINUOUS
10
5.80217
20
-4.05827
11
5.80217
21
-3.71181
0
LINE
8
BLACK
6
CONTINUOUS
10
5.80217
20
-3.71181
11
5.80245
21
-3.71112
0
LINE
8
BLACK
6
CONTINUOUS
10
5.80245
20
-3.71112
11
5.80315
21
-3.71083
0
LINE
8
BLACK
6
CONTINUOUS
10
5.80315
20
-3.71083
11
6.08661
21
-3.71083
0
LINE
8
BLACK
6
CONTINUOUS
10
6.08661
20
-3.71083
11
6.08731
21
-3.71112
0
LINE
8
BLACK
6
CONTINUOUS
10
6.08731
20
-3.71112
11
6.0876
21
-3.71181
0
LINE
8
BLACK
6
CONTINUOUS
10
6.0876
20
-3.71181
11
6.0876
21
-4.05827
0
LINE
8
BLACK
6
CONTINUOUS
10
6.0876
20
-4.05827
11
6.08731
21
-4.05896
0
LINE
8
BLACK
6
CONTINUOUS
10
6.08731
20
-4.05896
11
6.08661
21
-4.05925
0
LINE
8
BLACK
6
CONTINUOUS
10
6.08661
20
-4.05925
11
5.80315
21
-4.05925
0
LINE
8
BLACK
6
CONTINUOUS
10
5.80315
20
-4.05925
11
5.80245
21
-4.05896
0
LINE
8
BLACK
6
CONTINUOUS
10
5.80413
20
-3.7128
11
5.80413
21
-4.05728
0
LINE
8
BLACK
6
CONTINUOUS
10
5.80413
20
-4.05728
11
6.08563
21
-4.05728
0
LINE
8
BLACK
6
CONTINUOUS
10
6.08563
20
-4.05728
11
6.08563
21
-3.7128
0
LINE
8
BLACK
6
CONTINUOUS
10
6.08563
20
-3.7128
11
5.80413
21
-3.7128
0
LINE
8
BLACK
6
CONTINUOUS
10
5.27579
20
-3.90146
11
5.27579
21
-3.93154
0
LINE
8
BLACK
6
CONTINUOUS
10
5.27579
20
-3.93154
11
5.27638
21
-3.9313
0
LINE
8
BLACK
6
CONTINUOUS
10
5.27638
20
-3.9313
11
5.33386
21
-3.9313
0
LINE
8
BLACK
6
CONTINUOUS
10
5.33386
20
-3.9313
11
5.33455
21
-3.93159
0
LINE
8
BLACK
6
CONTINUOUS
10
5.33455
20
-3.93159
11
5.33484
21
-3.93228
0
LINE
8
BLACK
6
CONTINUOUS
10
5.33484
20
-3.93228
11
5.33484
21
-4.04882
0
LINE
8
BLACK
6
CONTINUOUS
10
5.33484
20
-4.04882
11
5.33455
21
-4.04951
0
LINE
8
BLACK
6
CONTINUOUS
10
5.33455
20
-4.04951
11
5.33386
21
-4.0498
0
LINE
8
BLACK
6
CONTINUOUS
10
5.33386
20
-4.0498
11
5.27638
21
-4.0498
0
LINE
8
BLACK
6
CONTINUOUS
10
5.27638
20
-4.0498
11
5.27568
21
-4.04951
0
LINE
8
BLACK
6
CONTINUOUS
10
5.27568
20
-4.04951
11
5.27539
21
-4.04882
0
LINE
8
BLACK
6
CONTINUOUS
10
5.27539
20
-4.04882
11
5.27539
21
-3.95968
0
LINE
8
BLACK
6
CONTINUOUS
10
5.27539
20
-3.95968
11
5.2748
21
-3.95992
0
LINE
8
BLACK
6
CONTINUOUS
10
5.2748
20
-3.95992
11
5.15827
21
-3.95992
0
LINE
8
BLACK
6
CONTINUOUS
10
5.15827
20
-3.95992
11
5.15757
21
-3.95963
0
LINE
8
BLACK
6
CONTINUOUS
10
5.15757
20
-3.95963
11
5.15748
21
-3.95941
0
LINE
8
BLACK
6
CONTINUOUS
10
5.15748
20
-3.95941
11
5.15739
21
-3.95963
0
LINE
8
BLACK
6
CONTINUOUS
10
5.15739
20
-3.95963
11
5.15669
21
-3.95992
0
LINE
8
BLACK
6
CONTINUOUS
10
5.15669
20
-3.95992
11
5.04016
21
-3.95992
0
LINE
8
BLACK
6
CONTINUOUS
10
5.04016
20
-3.95992
11
5.03946
21
-3.95963
0
LINE
8
BLACK
6
CONTINUOUS
10
5.03946
20
-3.95963
11
5.03917
21
-3.95894
0
LINE
8
BLACK
6
CONTINUOUS
10
5.03917
20
-3.95894
11
5.03917
21
-3.90146
0
LINE
8
BLACK
6
CONTINUOUS
10
5.03917
20
-3.90146
11
5.03946
21
-3.90076
0
LINE
8
BLACK
6
CONTINUOUS
10
5.03946
20
-3.90076
11
5.04016
21
-3.90047
0
LINE
8
BLACK
6
CONTINUOUS
10
5.04016
20
-3.90047
11
5.15669
21
-3.90047
0
LINE
8
BLACK
6
CONTINUOUS
10
5.15669
20
-3.90047
11
5.15739
21
-3.90076
0
LINE
8
BLACK
6
CONTINUOUS
10
5.15739
20
-3.90076
11
5.15748
21
-3.90098
0
LINE
8
BLACK
6
CONTINUOUS
10
5.15748
20
-3.90098
11
5.15757
21
-3.90076
0
LINE
8
BLACK
6
CONTINUOUS
10
5.15757
20
-3.90076
11
5.15827
21
-3.90047
0
LINE
8
BLACK
6
CONTINUOUS
10
5.15827
20
-3.90047
11
5.2748
21
-3.90047
0
LINE
8
BLACK
6
CONTINUOUS
10
5.2748
20
-3.90047
11
5.2755
21
-3.90076
0
LINE
8
BLACK
6
CONTINUOUS
10
5.2755
20
-3.90076
11
5.27579
21
-3.90146
0
LINE
8
BLACK
6
CONTINUOUS
10
5.27736
20
-3.93327
11
5.27736
21
-4.04783
0
LINE
8
BLACK
6
CONTINUOUS
10
5.27736
20
-4.04783
11
5.33287
21
-4.04783
0
LINE
8
BLACK
6
CONTINUOUS
10
5.33287
20
-4.04783
11
5.33287
21
-3.93327
0
LINE
8
BLACK
6
CONTINUOUS
10
5.33287
20
-3.93327
11
5.27736
21
-3.93327
0
LINE
8
BLACK
6
CONTINUOUS
10
5.15925
20
-3.90244
11
5.15925
21
-3.95795
0
LINE
8
BLACK
6
CONTINUOUS
10
5.15925
20
-3.95795
11
5.27382
21
-3.95795
0
LINE
8
BLACK
6
CONTINUOUS
10
5.27382
20
-3.95795
11
5.27382
21
-3.90244
0
LINE
8
BLACK
6
CONTINUOUS
10
5.27382
20
-3.90244
11
5.15925
21
-3.90244
0
LINE
8
BLACK
6
CONTINUOUS
10
5.04114
20
-3.90244
11
5.04114
21
-3.95795
0
LINE
8
BLACK
6
CONTINUOUS
10
5.04114
20
-3.95795
11
5.15571
21
-3.95795
0
LINE
8
BLACK
6
CONTINUOUS
10
5.15571
20
-3.95795
11
5.15571
21
-3.90244
0
LINE
8
BLACK
6
CONTINUOUS
10
5.15571
20
-3.90244
11
5.04114
21
-3.90244
0
LINE
8
BLACK
6
CONTINUOUS
10
4.96083
20
-3.90146
11
4.96083
21
-3.95894
0
LINE
8
BLACK
6
CONTINUOUS
10
4.96083
20
-3.95894
11
4.96054
21
-3.95963
0
LINE
8
BLACK
6
CONTINUOUS
10
4.96054
20
-3.95963
11
4.95984
21
-3.95992
0
LINE
8
BLACK
6
CONTINUOUS
10
4.95984
20
-3.95992
11
4.84331
21
-3.95992
0
LINE
8
BLACK
6
CONTINUOUS
10
4.84331
20
-3.95992
11
4.84261
21
-3.95963
0
LINE
8
BLACK
6
CONTINUOUS
10
4.84261
20
-3.95963
11
4.84252
21
-3.95941
0
LINE
8
BLACK
6
CONTINUOUS
10
4.84252
20
-3.95941
11
4.84243
21
-3.95963
0
LINE
8
BLACK
6
CONTINUOUS
10
4.84243
20
-3.95963
11
4.84173
21
-3.95992
0
LINE
8
BLACK
6
CONTINUOUS
10
4.84173
20
-3.95992
11
4.7252
21
-3.95992
0
LINE
8
BLACK
6
CONTINUOUS
10
4.7252
20
-3.95992
11
4.7245
21
-3.95963
0
LINE
8
BLACK
6
CONTINUOUS
10
4.7245
20
-3.95963
11
4.72421
21
-3.95894
0
LINE
8
BLACK
6
CONTINUOUS
10
4.72421
20
-3.95894
11
4.72421
21
-3.90146
0
LINE
8
BLACK
6
CONTINUOUS
10
4.72421
20
-3.90146
11
4.7245
21
-3.90076
0
LINE
8
BLACK
6
CONTINUOUS
10
4.7245
20
-3.90076
11
4.7252
21
-3.90047
0
LINE
8
BLACK
6
CONTINUOUS
10
4.7252
20
-3.90047
11
4.84173
21
-3.90047
0
LINE
8
BLACK
6
CONTINUOUS
10
4.84173
20
-3.90047
11
4.84243
21
-3.90076
0
LINE
8
BLACK
6
CONTINUOUS
10
4.84243
20
-3.90076
11
4.84252
21
-3.90098
0
LINE
8
BLACK
6
CONTINUOUS
10
4.84252
20
-3.90098
11
4.84261
21
-3.90076
0
LINE
8
BLACK
6
CONTINUOUS
10
4.84261
20
-3.90076
11
4.84331
21
-3.90047
0
LINE
8
BLACK
6
CONTINUOUS
10
4.84331
20
-3.90047
11
4.95984
21
-3.90047
0
LINE
8
BLACK
6
CONTINUOUS
10
4.95984
20
-3.90047
11
4.96054
21
-3.90076
0
LINE
8
BLACK
6
CONTINUOUS
10
4.96054
20
-3.90076
11
4.96083
21
-3.90146
0
LINE
8
BLACK
6
CONTINUOUS
10
4.84429
20
-3.90244
11
4.84429
21
-3.95795
0
LINE
8
BLACK
6
CONTINUOUS
10
4.84429
20
-3.95795
11
4.95886
21
-3.95795
0
LINE
8
BLACK
6
CONTINUOUS
10
4.95886
20
-3.95795
11
4.95886
21
-3.90244
0
LINE
8
BLACK
6
CONTINUOUS
10
4.95886
20
-3.90244
11
4.84429
21
-3.90244
0
LINE
8
BLACK
6
CONTINUOUS
10
4.72618
20
-3.90244
11
4.72618
21
-3.95795
0
LINE
8
BLACK
6
CONTINUOUS
10
4.72618
20
-3.95795
11
4.84075
21
-3.95795
0
LINE
8
BLACK
6
CONTINUOUS
10
4.84075
20
-3.95795
11
4.84075
21
-3.90244
0
LINE
8
BLACK
6
CONTINUOUS
10
4.84075
20
-3.90244
11
4.72618
21
-3.90244
0
LINE
8
BLACK
6
CONTINUOUS
10
5.21673
20
-3.7748
11
5.21673
21
-3.89134
0
LINE
8
BLACK
6
CONTINUOUS
10
5.21673
20
-3.89134
11
5.21644
21
-3.89203
0
LINE
8
BLACK
6
CONTINUOUS
10
5.21644
20
-3.89203
11
5.21575
21
-3.89232
0
LINE
8
BLACK
6
CONTINUOUS
10
5.21575
20
-3.89232
11
5.15827
21
-3.89232
0
LINE
8
BLACK
6
CONTINUOUS
10
5.15827
20
-3.89232
11
5.15757
21
-3.89203
0
LINE
8
BLACK
6
CONTINUOUS
10
5.15757
20
-3.89203
11
5.15748
21
-3.89181
0
LINE
8
BLACK
6
CONTINUOUS
10
5.15748
20
-3.89181
11
5.15739
21
-3.89203
0
LINE
8
BLACK
6
CONTINUOUS
10
5.15739
20
-3.89203
11
5.15669
21
-3.89232
0
LINE
8
BLACK
6
CONTINUOUS
10
5.15669
20
-3.89232
11
5.09921
21
-3.89232
0
LINE
8
BLACK
6
CONTINUOUS
10
5.09921
20
-3.89232
11
5.09852
21
-3.89203
0
LINE
8
BLACK
6
CONTINUOUS
10
5.09852
20
-3.89203
11
5.09823
21
-3.89134
0
LINE
8
BLACK
6
CONTINUOUS
10
5.09823
20
-3.89134
11
5.09823
21
-3.7748
0
LINE
8
BLACK
6
CONTINUOUS
10
5.09823
20
-3.7748
11
5.09852
21
-3.77411
0
LINE
8
BLACK
6
CONTINUOUS
10
5.09852
20
-3.77411
11
5.09921
21
-3.77382
0
LINE
8
BLACK
6
CONTINUOUS
10
5.09921
20
-3.77382
11
5.15669
21
-3.77382
0
LINE
8
BLACK
6
CONTINUOUS
10
5.15669
20
-3.77382
11
5.15739
21
-3.77411
0
LINE
8
BLACK
6
CONTINUOUS
10
5.15739
20
-3.77411
11
5.15748
21
-3.77433
0
LINE
8
BLACK
6
CONTINUOUS
10
5.15748
20
-3.77433
11
5.15757
21
-3.77411
0
LINE
8
BLACK
6
CONTINUOUS
10
5.15757
20
-3.77411
11
5.15827
21
-3.77382
0
LINE
8
BLACK
6
CONTINUOUS
10
5.15827
20
-3.77382
11
5.21575
21
-3.77382
0
LINE
8
BLACK
6
CONTINUOUS
10
5.21575
20
-3.77382
11
5.21644
21
-3.77411
0
LINE
8
BLACK
6
CONTINUOUS
10
5.21644
20
-3.77411
11
5.21673
21
-3.7748
0
LINE
8
BLACK
6
CONTINUOUS
10
5.15925
20
-3.77579
11
5.15925
21
-3.89035
0
LINE
8
BLACK
6
CONTINUOUS
10
5.15925
20
-3.89035
11
5.21476
21
-3.89035
0
LINE
8
BLACK
6
CONTINUOUS
10
5.21476
20
-3.89035
11
5.21476
21
-3.77579
0
LINE
8
BLACK
6
CONTINUOUS
10
5.21476
20
-3.77579
11
5.15925
21
-3.77579
0
LINE
8
BLACK
6
CONTINUOUS
10
5.1002
20
-3.77579
11
5.1002
21
-3.89035
0
LINE
8
BLACK
6
CONTINUOUS
10
5.1002
20
-3.89035
11
5.15571
21
-3.89035
0
LINE
8
BLACK
6
CONTINUOUS
10
5.15571
20
-3.89035
11
5.15571
21
-3.77579
0
LINE
8
BLACK
6
CONTINUOUS
10
5.15571
20
-3.77579
11
5.1002
21
-3.77579
0
LINE
8
BLACK
6
CONTINUOUS
10
4.90177
20
-3.7748
11
4.90177
21
-3.89134
0
LINE
8
BLACK
6
CONTINUOUS
10
4.90177
20
-3.89134
11
4.90148
21
-3.89203
0
LINE
8
BLACK
6
CONTINUOUS
10
4.90148
20
-3.89203
11
4.90079
21
-3.89232
0
LINE
8
BLACK
6
CONTINUOUS
10
4.90079
20
-3.89232
11
4.84331
21
-3.89232
0
LINE
8
BLACK
6
CONTINUOUS
10
4.84331
20
-3.89232
11
4.84261
21
-3.89203
0
LINE
8
BLACK
6
CONTINUOUS
10
4.84261
20
-3.89203
11
4.84252
21
-3.89181
0
LINE
8
BLACK
6
CONTINUOUS
10
4.84252
20
-3.89181
11
4.84243
21
-3.89203
0
LINE
8
BLACK
6
CONTINUOUS
10
4.84243
20
-3.89203
11
4.84173
21
-3.89232
0
LINE
8
BLACK
6
CONTINUOUS
10
4.84173
20
-3.89232
11
4.78425
21
-3.89232
0
LINE
8
BLACK
6
CONTINUOUS
10
4.78425
20
-3.89232
11
4.78356
21
-3.89203
0
LINE
8
BLACK
6
CONTINUOUS
10
4.78356
20
-3.89203
11
4.78327
21
-3.89134
0
LINE
8
BLACK
6
CONTINUOUS
10
4.78327
20
-3.89134
11
4.78327
21
-3.7748
0
LINE
8
BLACK
6
CONTINUOUS
10
4.78327
20
-3.7748
11
4.78356
21
-3.77411
0
LINE
8
BLACK
6
CONTINUOUS
10
4.78356
20
-3.77411
11
4.78425
21
-3.77382
0
LINE
8
BLACK
6
CONTINUOUS
10
4.78425
20
-3.77382
11
4.84173
21
-3.77382
0
LINE
8
BLACK
6
CONTINUOUS
10
4.84173
20
-3.77382
11
4.84243
21
-3.77411
0
LINE
8
BLACK
6
CONTINUOUS
10
4.84243
20
-3.77411
11
4.84252
21
-3.77433
0
LINE
8
BLACK
6
CONTINUOUS
10
4.84252
20
-3.77433
11
4.84261
21
-3.77411
0
LINE
8
BLACK
6
CONTINUOUS
10
4.84261
20
-3.77411
11
4.84331
21
-3.77382
0
LINE
8
BLACK
6
CONTINUOUS
10
4.84331
20
-3.77382
11
4.90079
21
-3.77382
0
LINE
8
BLACK
6
CONTINUOUS
10
4.90079
20
-3.77382
11
4.90148
21
-3.77411
0
LINE
8
BLACK
6
CONTINUOUS
10
4.90148
20
-3.77411
11
4.90177
21
-3.7748
0
LINE
8
BLACK
6
CONTINUOUS
10
4.84429
20
-3.77579
11
4.84429
21
-3.89035
0
LINE
8
BLACK
6
CONTINUOUS
10
4.84429
20
-3.89035
11
4.8998
21
-3.89035
0
LINE
8
BLACK
6
CONTINUOUS
10
4.8998
20
-3.89035
11
4.8998
21
-3.77579
0
LINE
8
BLACK
6
CONTINUOUS
10
4.8998
20
-3.77579
11
4.84429
21
-3.77579
0
LINE
8
BLACK
6
CONTINUOUS
10
4.78524
20
-3.77579
11
4.78524
21
-3.89035
0
LINE
8
BLACK
6
CONTINUOUS
10
4.78524
20
-3.89035
11
4.84075
21
-3.89035
0
LINE
8
BLACK
6
CONTINUOUS
10
4.84075
20
-3.89035
11
4.84075
21
-3.77579
0
LINE
8
BLACK
6
CONTINUOUS
10
4.84075
20
-3.77579
11
4.78524
21
-3.77579
0
LINE
8
BLACK
6
CONTINUOUS
10
5.97942
20
-3.68633
11
5.97913
21
-3.68563
0
LINE
8
BLACK
6
CONTINUOUS
10
5.97913
20
-3.68563
11
5.97913
21
-3.62815
0
LINE
8
BLACK
6
CONTINUOUS
10
5.97913
20
-3.62815
11
5.97942
21
-3.62745
0
LINE
8
BLACK
6
CONTINUOUS
10
5.97942
20
-3.62745
11
5.98012
21
-3.62717
0
LINE
8
BLACK
6
CONTINUOUS
10
5.98012
20
-3.62717
11
6.09665
21
-3.62717
0
LINE
8
BLACK
6
CONTINUOUS
10
6.09665
20
-3.62717
11
6.09735
21
-3.62745
0
LINE
8
BLACK
6
CONTINUOUS
10
6.09735
20
-3.62745
11
6.09764
21
-3.62815
0
LINE
8
BLACK
6
CONTINUOUS
10
6.09764
20
-3.62815
11
6.09764
21
-3.68563
0
LINE
8
BLACK
6
CONTINUOUS
10
6.09764
20
-3.68563
11
6.09735
21
-3.68633
0
LINE
8
BLACK
6
CONTINUOUS
10
6.09735
20
-3.68633
11
6.09665
21
-3.68661
0
LINE
8
BLACK
6
CONTINUOUS
10
6.09665
20
-3.68661
11
5.98012
21
-3.68661
0
LINE
8
BLACK
6
CONTINUOUS
10
5.98012
20
-3.68661
11
5.97942
21
-3.68633
0
LINE
8
BLACK
6
CONTINUOUS
10
5.9811
20
-3.62913
11
5.9811
21
-3.68465
0
LINE
8
BLACK
6
CONTINUOUS
10
5.9811
20
-3.68465
11
6.09567
21
-3.68465
0
LINE
8
BLACK
6
CONTINUOUS
10
6.09567
20
-3.68465
11
6.09567
21
-3.62913
0
LINE
8
BLACK
6
CONTINUOUS
10
6.09567
20
-3.62913
11
5.9811
21
-3.62913
0
LINE
8
BLACK
6
CONTINUOUS
10
5.80245
20
-3.6755
11
5.80217
21
-3.6748
0
LINE
8
BLACK
6
CONTINUOUS
10
5.80217
20
-3.6748
11
5.80217
21
-3.59764
0
LINE
8
BLACK
6
CONTINUOUS
10
5.80217
20
-3.59764
11
5.80245
21
-3.59694
0
LINE
8
BLACK
6
CONTINUOUS
10
5.80245
20
-3.59694
11
5.80315
21
-3.59665
0
LINE
8
BLACK
6
CONTINUOUS
10
5.80315
20
-3.59665
11
5.93701
21
-3.59665
0
LINE
8
BLACK
6
CONTINUOUS
10
5.93701
20
-3.59665
11
5.9377
21
-3.59694
0
LINE
8
BLACK
6
CONTINUOUS
10
5.9377
20
-3.59694
11
5.93799
21
-3.59764
0
LINE
8
BLACK
6
CONTINUOUS
10
5.93799
20
-3.59764
11
5.93799
21
-3.6748
0
LINE
8
BLACK
6
CONTINUOUS
10
5.93799
20
-3.6748
11
5.9377
21
-3.6755
0
LINE
8
BLACK
6
CONTINUOUS
10
5.9377
20
-3.6755
11
5.93701
21
-3.67579
0
LINE
8
BLACK
6
CONTINUOUS
10
5.93701
20
-3.67579
11
5.80315
21
-3.67579
0
LINE
8
BLACK
6
CONTINUOUS
10
5.80315
20
-3.67579
11
5.80245
21
-3.6755
0
LINE
8
BLACK
6
CONTINUOUS
10
5.80413
20
-3.59862
11
5.80413
21
-3.67382
0
LINE
8
BLACK
6
CONTINUOUS
10
5.80413
20
-3.67382
11
5.93602
21
-3.67382
0
LINE
8
BLACK
6
CONTINUOUS
10
5.93602
20
-3.67382
11
5.93602
21
-3.59862
0
LINE
8
BLACK
6
CONTINUOUS
10
5.93602
20
-3.59862
11
5.80413
21
-3.59862
  0
ENDSEC
  0
EOF
